<svg width="96" height="96" viewBox="0 0 96 96" fill="none" xmlns="http://www.w3.org/2000/svg">
<path d="M74.948 29.3799C74.624 28.57 74.1272 27.8405 73.4923 27.2423C72.8574 26.644 72.0997 26.1914 71.272 25.9159L61.82 22.7639L59.296 17.7159C58.8001 16.7172 58.0344 15.8772 57.0857 15.2911C56.137 14.7051 55.0432 14.3964 53.928 14.3999H42.872C41.7569 14.3964 40.6631 14.7051 39.7144 15.2911C38.7657 15.8772 38 16.7172 37.504 17.7159L34.98 22.7639L25.528 25.9159C24.7003 26.1914 23.9426 26.644 23.3078 27.2423C22.6729 27.8405 22.1761 28.57 21.852 29.3799L15.116 46.2239C14.6408 47.4051 14.3977 48.6668 14.4 49.9399V74.3999C14.4 75.4608 14.8215 76.4782 15.5716 77.2283C16.3218 77.9785 17.3392 78.3999 18.4 78.3999H22.4C23.4609 78.3999 24.4783 77.9785 25.2285 77.2283C25.9786 76.4782 26.4 75.4608 26.4 74.3999V68.6959L28.4 62.0239V66.5119C28.518 68.767 29.2061 70.9552 30.4 72.8719V78.3999C30.4 79.4608 30.8215 80.4782 31.5716 81.2283C32.3218 81.9785 33.3392 82.3999 34.4 82.3999H62.4C63.4609 82.3999 64.4783 81.9785 65.2285 81.2283C65.9786 80.4782 66.4 79.4608 66.4 78.3999V72.8719C67.5941 70.9553 68.2823 68.767 68.4 66.5119V62.0239L70.4 68.6959V74.3999C70.4 75.4608 70.8215 76.4782 71.5716 77.2283C72.3218 77.9785 73.3392 78.3999 74.4 78.3999H78.4C79.4609 78.3999 80.4783 77.9785 81.2285 77.2283C81.9786 76.4782 82.4 75.4608 82.4 74.3999V49.9399C82.4027 48.668 82.1596 47.4076 81.684 46.2279L74.948 29.3799ZM70.356 29.9199C68.2228 33.1278 66.2691 36.4516 64.504 39.8759C64.292 40.6759 64.472 39.7479 64.4 62.3999C62.8087 62.3999 61.2826 61.7678 60.1574 60.6426C59.0322 59.5173 58.4 57.9912 58.4 56.3999C58.4 55.8695 58.1893 55.3608 57.8143 54.9857C57.4392 54.6106 56.9305 54.3999 56.4 54.3999C55.8696 54.3999 55.3609 54.6106 54.9858 54.9857C54.6108 55.3608 54.4 55.8695 54.4 56.3999C54.4 59.0521 55.4536 61.5956 57.329 63.471C59.2043 65.3463 61.7479 66.3999 64.4 66.3999V66.5119C64.3169 67.8904 63.8922 69.2265 63.164 70.3999H50.4V33.4719L60.696 26.6079C72.12 30.4919 69.56 29.4559 70.356 29.9199ZM40 21.7039L42.476 26.0359L38.996 23.7159L40 21.7039ZM56.832 21.7039L57.836 23.7039L54.356 26.0239L56.832 21.7039ZM54.088 18.4399L48.4 28.3679L42.728 18.4399C43.54 18.3999 53.256 18.3999 54.072 18.4399H54.088ZM36.104 26.6079L46.4 33.4719V70.3999H33.636C32.9018 69.2293 32.4765 67.8916 32.4 66.5119V66.3999C35.0522 66.3999 37.5957 65.3463 39.4711 63.471C41.3465 61.5956 42.4 59.0521 42.4 56.3999C42.4 55.8695 42.1893 55.3608 41.8143 54.9857C41.4392 54.6106 40.9305 54.3999 40.4 54.3999C39.8696 54.3999 39.3609 54.6106 38.9858 54.9857C38.6108 55.3608 38.4 55.8695 38.4 56.3999C38.4 57.9912 37.7679 59.5173 36.6427 60.6426C35.5175 61.7678 33.9913 62.3999 32.4 62.3999C32.328 39.7519 32.508 40.6559 32.296 39.8759C30.5323 36.4509 28.5785 33.1271 26.444 29.9199C27.056 29.5599 32.024 27.9999 36.104 26.6079ZM18.4 74.3999V70.3999H22.4V74.3999H18.4ZM28.148 48.9519L22.912 66.3999H18.4V49.9399C18.3997 49.1768 18.545 48.4206 18.828 47.7119L24.28 34.0879L28.4 40.9519V47.2279C28.4004 47.8118 28.3155 48.3926 28.148 48.9519V48.9519ZM34.4 78.3999V74.3999H62.4V78.3999H34.4ZM68.4 47.2279V40.9519L72.52 34.0879L77.972 47.7159C78.2559 48.423 78.4012 49.178 78.4 49.9399V66.3999H73.888L68.652 48.9479C68.4843 48.39 68.3994 47.8105 68.4 47.2279V47.2279ZM74.4 74.3999V70.3999H78.4V74.3999H74.4Z" fill="#393D46"/>
</svg>
