<svg width="17" height="286" viewBox="0 0 17 286" fill="none" xmlns="http://www.w3.org/2000/svg">
<path fill-rule="evenodd" clip-rule="evenodd" d="M7.86064 0H1.83963C1.10178 0 0.501748 0.649816 0.501748 1.44958V11.5959C0.501748 12.3949 1.10178 13.0454 1.83963 13.0454H7.86064V7.67177L8.92165 6.52258L7.86064 5.37331V0ZM3.17764 2.89887H5.85367C6.22358 2.89887 6.52263 3.22349 6.52263 3.62313C6.52263 4.02384 6.22358 4.34836 5.85367 4.34836H3.17764C2.80775 4.34836 2.5087 4.02384 2.5087 3.62352C2.5087 3.22349 2.80775 2.89887 3.17764 2.89887ZM5.85367 10.1463H3.17764C2.80775 10.1463 2.5087 9.82186 2.5087 9.42165C2.5087 9.02133 2.80775 8.697 3.17764 8.697H5.85367C6.22358 8.697 6.52263 9.02133 6.52263 9.42165C6.52263 9.82186 6.22358 10.1463 5.85367 10.1463ZM6.52263 7.24742H3.84671C3.47669 7.24742 3.17764 6.92281 3.17764 6.52258C3.17764 6.12256 3.47669 5.79794 3.84671 5.79794H6.52263C6.89265 5.79794 7.1917 6.12256 7.1917 6.52258C7.1917 6.92281 6.89265 7.24742 6.52263 7.24742ZM15.2197 0H9.19865V4.77269L10.8137 6.52258L9.19865 8.27171V13.0454H15.2197C15.9575 13.0454 16.5577 12.3949 16.5577 11.5959V1.44958C16.5577 0.649816 15.9575 0 15.2197 0ZM10.5367 4.34836C10.1666 4.34836 9.86772 4.02384 9.86772 3.62352C9.86772 3.22349 10.1666 2.89887 10.5367 2.89887H13.2126C13.5826 2.89887 13.8816 3.22349 13.8816 3.62352C13.8816 4.02384 13.5826 4.34836 13.2126 4.34836H10.5367ZM13.2126 10.1463H10.5367C10.1666 10.1463 9.86772 9.82186 9.86772 9.42165C9.86772 9.02133 10.1666 8.697 10.5367 8.697H13.2126C13.5826 8.697 13.8816 9.02133 13.8816 9.42165C13.8816 9.82186 13.5826 10.1463 13.2126 10.1463ZM13.8816 7.24742H11.8747C11.5047 7.24742 11.2056 6.92281 11.2056 6.52258C11.2056 6.12256 11.5047 5.79794 11.8747 5.79794H13.8816C14.2515 5.79794 14.5506 6.12256 14.5506 6.52258C14.5506 6.92281 14.2515 7.24742 13.8816 7.24742Z" fill="#7F63F4"/>
<path fill-rule="evenodd" clip-rule="evenodd" d="M12.5437 57.6004C11.1384 57.6004 10.035 58.4036 9.935 58.5034L11.1384 60.1094C11.1384 60.1094 11.8411 59.6074 12.5437 59.6074C13.949 59.6074 14.049 60.8113 14.049 61.2134C13.6472 61.1129 12.9456 60.9118 12.042 61.1129C10.6367 61.4135 9.2324 63.12 9.935 65.0261C10.6367 66.8324 13.0455 67.1343 14.049 65.6289V66.6325H16.056V61.3125C16.056 58.6032 14.149 57.6004 12.5437 57.6004ZM11.5403 64.1236C11.4403 62.2168 13.0455 62.2168 14.049 62.3168V63.3199C14.049 64.5243 11.7411 65.6289 11.5403 64.1236ZM6.9241 66.7326H9.03155L5.82014 54.6899H3.11103L0 66.7326H2.10745L3.11103 62.7189H5.82014L6.9241 66.7326ZM3.61278 60.7116L4.41529 57.4999L5.31839 60.7116H3.61278Z" fill="#AAAAAA"/>
<path fill-rule="evenodd" clip-rule="evenodd" d="M11.6123 112.545H7.80058L6.79652 111.633H5.08561C4.95469 111.633 4.84825 111.74 4.84825 111.871V117.699C4.84825 117.83 4.95469 117.935 5.08561 117.935H5.26592L6.21256 113.064H11.8493V112.782C11.8493 112.651 11.7428 112.545 11.6123 112.545ZM8.52947 106.371C4.09593 106.371 0.501748 109.965 0.501748 114.398C0.501748 118.832 4.09593 122.427 8.52947 122.427C12.963 122.427 16.5577 118.832 16.5577 114.398C16.5577 109.965 12.963 106.371 8.52947 106.371ZM12.6636 117.756C12.6346 118.308 12.1847 118.751 11.6283 118.767C11.6229 118.768 11.6178 118.769 11.6123 118.769H11.1182H5.0854C4.49544 118.769 4.01553 118.289 4.01553 117.699V111.871C4.01553 111.281 4.49557 110.801 5.08574 110.801H7.1182L8.12214 111.712H11.6123C12.2022 111.712 12.6821 112.192 12.6821 112.783V113.064L13.6404 113.065L12.6636 117.756Z" fill="#AAAAAA"/>
<path fill-rule="evenodd" clip-rule="evenodd" d="M0.501748 161.563V176.615H16.5577V161.563H0.501748ZM5.51914 175.612H1.50522V173.605H5.51914V175.612ZM5.51914 172.601H1.50522V170.594H5.51914V172.601ZM5.51914 169.591H1.50522V167.584H5.51914V169.591ZM5.51914 166.58H1.50522V164.573H5.51914V166.58ZM10.5367 175.612H6.52263V173.605H10.5367V175.612ZM10.5367 172.601H6.52263V170.594H10.5367V172.601ZM10.5367 169.591H6.52263V167.584H10.5367V169.591ZM10.5367 166.58H6.52263V164.573H10.5367V166.58ZM15.5542 175.612H11.5401V173.605H15.5542V175.612ZM15.5542 172.601H11.5401V170.594H15.5542V172.601ZM15.5542 169.591H11.5401V167.584H15.5542V169.591ZM15.5542 166.58H11.5401V164.573H15.5542V166.58Z" fill="#AAAAAA"/>
<path fill-rule="evenodd" clip-rule="evenodd" d="M5.89885 274.109C5.78458 274.186 5.63758 274.193 5.51642 274.128C5.39528 274.062 5.3196 273.934 5.3196 273.794V271.232C5.3196 271.105 5.38183 270.988 5.48553 270.917L8.32326 268.997C8.44844 268.911 8.6115 268.911 8.73658 268.997L11.5743 270.917C11.678 270.988 11.7402 271.106 11.7402 271.232V273.794C11.7402 273.934 11.6646 274.062 11.5435 274.128C11.4222 274.193 11.2752 274.186 11.161 274.109L9.84845 273.22V278.597C9.84845 279.336 9.25703 279.936 8.52998 279.936C7.80291 279.936 7.21137 279.336 7.21137 278.597V273.22L5.89885 274.109ZM15.0374 273.053C16.0368 274.452 16.5649 276.107 16.5649 277.84C16.5649 282.339 12.9604 286 8.52998 286C4.09941 286 0.494888 282.339 0.494888 277.84C0.494888 276.107 1.02305 274.452 2.02239 273.053C2.13701 272.893 2.3536 272.849 2.51966 272.953L4.61859 274.267C4.7068 274.322 4.76848 274.412 4.78857 274.516C4.80878 274.619 4.78558 274.726 4.7246 274.812C4.14053 275.629 3.83171 276.597 3.83171 277.61C3.83171 280.241 5.9394 282.381 8.52998 282.381C11.1206 282.381 13.2282 280.241 13.2282 277.61C13.2282 276.597 12.9194 275.629 12.3353 274.812C12.2745 274.726 12.2514 274.619 12.2714 274.516C12.2915 274.412 12.3531 274.322 12.4415 274.267L14.5403 272.953C14.7062 272.849 14.9229 272.893 15.0374 273.053Z" fill="#AAAAAA"/>
</svg>
