<svg width="72" height="72" viewBox="0 0 72 72" fill="none" xmlns="http://www.w3.org/2000/svg">
<circle cx="36" cy="36" r="36" fill="white"/>
<path fill-rule="evenodd" clip-rule="evenodd" d="M46.6673 28.0002C46.6673 29.4668 45.4673 30.6668 44.0007 30.6668C42.534 30.6668 41.334 29.4668 41.334 28.0002C41.334 26.5335 42.534 25.3335 44.0007 25.3335C45.4673 25.3335 46.6673 26.5335 46.6673 28.0002ZM25.334 33.3335C25.334 31.8668 26.534 30.6668 28.0007 30.6668C29.4673 30.6668 30.6673 31.8668 30.6673 33.3335C30.6673 34.8002 29.4673 36.0002 28.0007 36.0002C26.534 36.0002 25.334 34.8002 25.334 33.3335ZM30.6673 38.6668C30.6673 37.2002 31.8673 36.0002 33.334 36.0002C34.8007 36.0002 36.0007 37.2002 36.0007 38.6668C36.0007 40.1335 34.8007 41.3335 33.334 41.3335C31.8673 41.3335 30.6673 40.1335 30.6673 38.6668ZM28.0007 41.3335C26.534 41.3335 25.334 42.5335 25.334 44.0002C25.334 45.4668 26.534 46.6668 28.0007 46.6668C29.4673 46.6668 30.6673 45.4668 30.6673 44.0002C30.6673 42.5335 29.4673 41.3335 28.0007 41.3335ZM38.6673 41.3335C37.2007 41.3335 36.0007 42.5335 36.0007 44.0002C36.0007 45.4668 37.2007 46.6668 38.6673 46.6668C40.134 46.6668 41.334 45.4668 41.334 44.0002C41.334 42.5335 40.134 41.3335 38.6673 41.3335ZM41.334 38.6668C41.334 37.2002 42.534 36.0002 44.0007 36.0002C45.4673 36.0002 46.6673 37.2002 46.6673 38.6668C46.6673 40.1335 45.4673 41.3335 44.0007 41.3335C42.534 41.3335 41.334 40.1335 41.334 38.6668ZM38.6673 30.6668C37.2007 30.6668 36.0007 31.8668 36.0007 33.3335C36.0007 34.8002 37.2007 36.0002 38.6673 36.0002C40.134 36.0002 41.334 34.8002 41.334 33.3335C41.334 31.8668 40.134 30.6668 38.6673 30.6668ZM30.6673 28.0002C30.6673 26.5335 31.8673 25.3335 33.334 25.3335C34.8007 25.3335 36.0007 26.5335 36.0007 28.0002C36.0007 29.4668 34.8007 30.6668 33.334 30.6668C31.8673 30.6668 30.6673 29.4668 30.6673 28.0002Z" fill="#132A73"/>
</svg>
