<svg width="156" height="24" viewBox="0 0 156 24" fill="none" xmlns="http://www.w3.org/2000/svg">
<path d="M110.457 6.01226C109.688 6.3536 108.86 6.58429 107.992 6.68801C108.878 6.15688 109.559 5.31587 109.879 4.31369C109.05 4.80554 108.132 5.16267 107.154 5.35509C106.371 4.52103 105.256 3.99992 104.022 3.99992C101.652 3.99992 99.7299 5.92135 99.7299 8.29138C99.7299 8.62772 99.7679 8.95528 99.8411 9.26941C96.2744 9.09041 93.1121 7.38188 90.9955 4.78541C90.6261 5.41924 90.4144 6.15643 90.4144 6.94295C90.4144 8.43187 91.172 9.74543 92.3236 10.5151C91.6202 10.4927 90.9584 10.2997 90.3798 9.97826C90.3794 9.99619 90.3794 10.0141 90.3794 10.0322C90.3794 12.1116 91.8587 13.846 93.8219 14.2403C93.4618 14.3384 93.0827 14.3909 92.6913 14.3909C92.4148 14.3909 92.1459 14.3639 91.8838 14.3139C92.43 16.0188 94.0149 17.2596 95.8928 17.2941C94.4241 18.4453 92.5736 19.1314 90.5629 19.1314C90.2165 19.1314 89.8749 19.111 89.5392 19.0713C91.4384 20.289 93.6942 20.9996 96.1178 20.9996C104.012 20.9996 108.328 14.4602 108.328 8.789C108.328 8.60296 108.324 8.41788 108.316 8.23378C109.154 7.6287 109.882 6.87288 110.457 6.01226Z" fill="#202D3B"/>
<path d="M55.9998 2.0024C50.4779 2.0024 46.001 6.47931 46.001 12.0012C46.001 16.9911 49.6569 21.127 54.4378 21.88V14.8921H51.8979V12.0012H54.4378V9.79824C54.4378 7.29029 55.9308 5.90732 58.2138 5.90732C59.3077 5.90732 60.4537 6.10232 60.4537 6.10232V8.56127H59.1897C57.9498 8.56127 57.5618 9.33325 57.5618 10.1242V11.9992H60.3327L59.8897 14.8901H57.5618V21.878C62.3427 21.129 65.9986 16.9921 65.9986 12.0012C65.9986 6.47931 61.5217 2.0024 55.9998 2.0024Z" fill="#202D3B"/>
<path d="M20.2821 10.3562H11.9552V13.8071H16.7471C16.3012 16 14.4342 17.26 11.9552 17.26C9.0323 17.26 6.67635 14.9041 6.67635 11.9801C6.67635 9.05718 9.0323 6.70123 11.9552 6.70123C13.2142 6.70123 14.3522 7.14822 15.2452 7.8792L17.8451 5.28026C16.2612 3.89928 14.2302 3.0473 11.9552 3.0473C7.00134 3.0473 3.02142 7.02622 3.02142 11.9811C3.02142 16.936 7.00034 20.9149 11.9552 20.9149C16.4222 20.9149 20.4841 17.666 20.4841 11.9811C20.4841 11.4531 20.4031 10.8841 20.2821 10.3562Z" fill="#202D3B"/>
<path d="M143.996 7.37673C141.442 7.37673 139.373 9.44669 139.373 11.9996C139.373 14.5536 141.442 16.6235 143.996 16.6235C146.548 16.6235 148.619 14.5536 148.619 11.9996C148.619 9.44669 146.548 7.37673 143.996 7.37673ZM143.996 15.0036C142.337 15.0036 140.992 13.6586 140.992 12.0006C140.992 10.3417 142.337 8.9977 143.996 8.9977C145.655 8.9977 146.998 10.3417 146.998 12.0006C146.998 13.6586 145.655 15.0036 143.996 15.0036Z" fill="#202D3B"/>
<path d="M148.803 8.28471C149.398 8.28471 149.881 7.80209 149.881 7.20674C149.881 6.61139 149.398 6.12876 148.803 6.12876C148.208 6.12876 147.725 6.61139 147.725 7.20674C147.725 7.80209 148.208 8.28471 148.803 8.28471Z" fill="#202D3B"/>
<path d="M152.53 6.11076C152.061 4.90178 151.106 3.9458 149.897 3.47881C149.198 3.21582 148.459 3.07482 147.711 3.05882C146.748 3.01682 146.443 3.00482 144.001 3.00482C141.559 3.00482 141.246 3.00482 140.291 3.05882C139.545 3.07382 138.806 3.21482 138.107 3.47881C136.897 3.9458 135.942 4.90178 135.474 6.11076C135.211 6.81074 135.07 7.54873 135.055 8.29671C135.012 9.25869 134.999 9.56369 134.999 12.0066C134.999 14.4486 134.999 14.7596 135.055 15.7166C135.07 16.4645 135.211 17.2025 135.474 17.9035C135.943 19.1115 136.898 20.0675 138.108 20.5355C138.804 20.8075 139.543 20.9615 140.293 20.9855C141.256 21.0275 141.561 21.0405 144.003 21.0405C146.445 21.0405 146.758 21.0405 147.713 20.9855C148.46 20.9705 149.199 20.8285 149.899 20.5665C151.108 20.0975 152.063 19.1425 152.532 17.9335C152.795 17.2335 152.936 16.4955 152.951 15.7476C152.994 14.7856 153.007 14.4806 153.007 12.0376C153.007 9.59469 153.007 9.28469 152.951 8.32771C152.938 7.56973 152.798 6.81874 152.53 6.11076ZM151.312 15.6426C151.305 16.2186 151.201 16.7895 151.001 17.3305C150.696 18.1175 150.075 18.7395 149.289 19.0415C148.754 19.2405 148.19 19.3445 147.619 19.3525C146.669 19.3965 146.401 19.4075 143.965 19.4075C141.527 19.4075 141.278 19.4075 140.31 19.3525C139.741 19.3455 139.175 19.2405 138.641 19.0415C137.852 18.7405 137.227 18.1185 136.922 17.3305C136.726 16.7965 136.62 16.2316 136.611 15.6616C136.568 14.7116 136.558 14.4436 136.558 12.0076C136.558 9.57069 136.558 9.32169 136.611 8.35271C136.618 7.77672 136.722 7.20674 136.922 6.66575C137.227 5.87676 137.852 5.25578 138.641 4.95378C139.175 4.75579 139.741 4.65079 140.31 4.64279C141.261 4.59979 141.528 4.58779 143.965 4.58779C146.402 4.58779 146.652 4.58779 147.619 4.64279C148.19 4.64979 148.754 4.75479 149.289 4.95378C150.075 5.25678 150.696 5.87876 151.001 6.66575C151.197 7.19974 151.303 7.76472 151.312 8.33471C151.355 9.28569 151.366 9.55269 151.366 11.9896C151.366 14.4256 151.366 14.6876 151.323 15.6436H151.312V15.6426Z" fill="#202D3B"/>
</svg>
