<svg width="136" height="24" viewBox="0 0 136 24" fill="none" xmlns="http://www.w3.org/2000/svg">
<path d="M13.7891 17.1499C17.6551 17.1499 20.7891 14.0159 20.7891 10.1499C20.7891 6.28391 17.6551 3.1499 13.7891 3.1499C9.92307 3.1499 6.78906 6.28391 6.78906 10.1499C6.78906 14.0159 9.92307 17.1499 13.7891 17.1499Z" stroke="black" stroke-width="1.5" stroke-linecap="round" stroke-linejoin="bevel"/>
<path d="M8.9093 15.1699L4.0293 20.0499" stroke="black" stroke-width="1.5" stroke-linecap="round" stroke-linejoin="bevel"/>
<path d="M59 22.0001L59.79 19.1201C62.4 9.62012 73.6 9.62012 76.21 19.1201L77 22.0001" stroke="black" stroke-width="1.5" stroke-linecap="round" stroke-linejoin="round"/>
<path d="M68 11.98C70.7614 11.98 73 9.7414 73 6.97998C73 4.21856 70.7614 1.97998 68 1.97998C65.2386 1.97998 63 4.21856 63 6.97998C63 9.7414 65.2386 11.98 68 11.98Z" stroke="black" stroke-width="1.5" stroke-linecap="round" stroke-linejoin="bevel"/>
<path fill-rule="evenodd" clip-rule="evenodd" d="M123 3.18976C123.069 2.97072 123.206 2.7794 123.392 2.6436C123.577 2.50779 123.8 2.43457 124.03 2.43457C124.26 2.43457 124.484 2.50779 124.669 2.6436C124.854 2.7794 124.991 2.97072 125.06 3.18976L126.92 8.90976H132.92C133.158 8.90077 133.392 8.9699 133.587 9.1066C133.782 9.2433 133.927 9.44004 133.999 9.66678C134.072 9.89351 134.068 10.1378 133.989 10.3622C133.91 10.5867 133.759 10.779 133.56 10.9098L128.69 14.4398L130.55 20.1698C130.624 20.388 130.626 20.6241 130.555 20.8435C130.485 21.0629 130.347 21.2541 130.16 21.3893C129.974 21.5244 129.749 21.5964 129.519 21.5947C129.288 21.5929 129.065 21.5177 128.88 21.3798L124 17.8098L119.13 21.3498C118.946 21.4877 118.722 21.5629 118.492 21.5647C118.261 21.5664 118.036 21.4944 117.85 21.3593C117.663 21.2241 117.525 21.0329 117.455 20.8135C117.385 20.5941 117.387 20.358 117.46 20.1398L119.32 14.4098L114.45 10.8798C114.251 10.749 114.101 10.5567 114.021 10.3322C113.942 10.1078 113.938 9.86351 114.011 9.63678C114.083 9.41005 114.228 9.2133 114.423 9.0766C114.618 8.9399 114.852 8.87077 115.09 8.87976H121.09L123 3.18976Z" stroke="black" stroke-width="1.5" stroke-linecap="round" stroke-linejoin="round"/>
</svg>
