<svg width="670" height="870" viewBox="0 0 670 870" fill="none" xmlns="http://www.w3.org/2000/svg">
<rect y="15" width="670" height="855" rx="5" fill="#055FFE"/>
<path fill-rule="evenodd" clip-rule="evenodd" d="M320.553 584.189C82.7359 519.051 140.706 261.928 208.508 237.282C276.31 212.635 279.649 301.122 389.932 331.328C500.214 361.535 535.46 224.124 599.552 278.977C663.644 333.738 558.37 649.327 320.553 584.189Z" fill="#0B58E0"/>
<path d="M93.0576 555.154C84.7772 543.559 86.638 545.785 86.638 545.785L89.4291 545.6C89.4291 545.6 120.69 582.612 138.368 618.232C156.045 653.667 166 682.701 166 682.701L163.209 684C163.209 684 148.416 630.013 115.294 585.487C108.967 576.953 102.641 568.419 96.314 559.792C94.6393 557.566 93.1507 555.154 91.476 553.021C90.5456 551.907 89.6152 550.887 88.4987 549.867C87.8475 549.217 87.1032 548.661 86.4519 548.011C85.6145 547.177 84.7772 546.156 84.1259 545.229C80.2183 539.941 77.055 534.19 74.636 528.068C73.6125 525.47 72.7752 522.688 73.0543 519.997C73.1473 518.977 73.6125 517.864 74.4499 517.307C75.1012 516.936 75.7524 516.936 76.4037 517.122C76.9619 517.307 77.4271 517.493 77.8923 517.771C78.5436 518.328 79.0088 518.977 79.474 519.626C81.8 523.337 84.1259 527.047 85.8006 531.036C86.638 533.077 87.2892 535.396 87.9405 537.529C89.6152 543.095 91.2899 548.754 92.9646 554.319" fill="#57FCC2"/>
<path d="M96.0875 542.773C96.0875 541.747 96.1853 540.72 96.381 539.6C96.7722 537.919 97.457 536.426 98.2395 534.932C98.8264 533.812 99.5112 532.505 100.783 532.132C102.446 531.572 104.109 532.879 104.696 534.466C105.283 536.052 104.891 537.639 104.598 539.32C104.207 541.187 103.913 542.96 103.522 544.734C103.228 546.134 102.935 547.534 102.544 548.934C101.859 551.268 100.587 553.415 99.4134 555.749C99.0221 556.402 98.2395 558.829 97.0657 557.709C96.2831 557.055 96.381 553.882 96.2831 552.948C95.8919 549.494 95.9897 546.134 96.0875 542.773Z" fill="#57FCC2"/>
<path d="M105.004 567.712C104.915 562.193 106.251 556.858 107.498 551.523C107.677 550.695 107.944 549.867 108.122 549.039C108.656 547.107 109.102 545.084 110.438 543.52C111.774 542.048 114.179 541.404 115.694 542.692C117.119 543.888 117.208 546.096 116.762 548.027C116.317 549.867 115.515 551.707 114.714 553.454C112.22 558.79 109.547 563.941 106.697 569" fill="#57FCC2"/>
<path d="M112.795 572.228C113.179 571.109 113.466 570.083 113.85 568.964C114.616 566.632 115.479 564.394 116.629 562.156C117.779 560.01 119.504 558.052 121.613 556.839C122.475 556.28 123.529 556 124.584 556C124.775 556 125.063 556 125.254 556.093C125.638 556.28 125.829 556.746 125.925 557.119C126.404 560.197 124.488 562.995 122.763 565.513C121.996 566.632 121.133 567.845 120.175 568.777C118.833 570.083 117.204 571.109 115.671 572.321C115 572.881 114.329 573.441 113.85 574.187C113.562 574.56 113.083 575.772 112.699 575.959C111.166 576.425 112.604 572.788 112.795 572.228Z" fill="#57FCC2"/>
<path d="M138 618.662C139.345 614.84 141.677 611.496 143.92 608.057C144.278 607.483 144.548 607.006 144.906 606.528C145.714 605.286 146.7 604.044 147.956 603.375C149.211 602.706 151.005 602.897 151.723 604.235C152.351 605.477 151.813 607.101 151.095 608.248C150.377 609.394 149.301 610.445 148.225 611.496C145.175 614.554 142.036 617.325 138.718 620" fill="#57FCC2"/>
<path d="M141.468 623.602C142.027 622.98 142.492 622.359 143.05 621.826C144.167 620.494 145.284 619.25 146.68 618.185C148.076 617.119 149.658 616.32 151.333 616.053C151.985 615.964 152.822 615.964 153.474 616.231C153.66 616.32 153.753 616.32 153.846 616.497C154.032 616.764 154.032 617.119 153.939 617.296C153.38 619.339 151.519 620.671 149.565 621.826C148.727 622.359 147.89 622.892 146.959 623.336C145.749 623.869 144.446 624.046 143.143 624.49C142.492 624.668 142.027 624.934 141.468 625.201C141.189 625.378 140.538 626 140.258 626C139.328 625.911 141.189 623.869 141.468 623.602Z" fill="#57FCC2"/>
<path d="M120 587.684C120.366 586.48 120.641 585.368 121.007 584.164C121.282 583.145 121.648 582.126 122.014 581.107C122.563 579.996 123.295 578.977 123.845 577.865C125.126 575.642 125.95 573.141 127.506 571.011C129.246 568.602 131.809 566.935 134.28 565.453C134.921 565.082 135.654 564.804 136.203 565.175C136.386 565.36 136.569 565.545 136.66 565.823C137.301 567.213 136.935 568.88 136.386 570.177C134.555 574.623 130.893 578.051 127.14 581.015C126.316 581.663 125.401 582.404 124.669 583.145C122.838 585.091 121.556 587.592 120.275 590" fill="#57FCC2"/>
<path d="M127.295 599C128.22 596.75 129.7 594.688 131.55 593.094C133.771 591.219 136.453 590 138.859 588.406C141.264 586.719 143.484 584.469 143.947 581.562C144.132 580.25 143.854 578.75 142.836 578C140.801 579.781 138.026 580.438 135.898 582.219C134.696 583.156 133.863 584.281 132.846 585.5C129.885 589.25 127.11 593.281 126 597.875" fill="#57FCC2"/>
<path d="M131 605.663C132.386 603.848 133.864 602.129 135.25 600.315C137.005 598.213 138.668 596.017 140.054 593.725C140.978 592.197 141.902 590.478 143.564 590.096C144.211 589.904 144.765 590 145.32 590.382C145.874 590.86 145.967 591.433 145.967 592.197C146.244 595.157 144.765 597.927 142.825 600.028C140.885 602.034 138.391 603.562 135.896 604.994C134.695 605.663 133.494 606.427 132.293 607" fill="#57FCC2"/>
<path d="M131.484 607C130.915 607 130.536 607.191 130.157 607.573C129.778 607.859 129.494 608.241 129.209 608.527C128.641 608.909 128.072 609.004 127.409 609.1C126.177 609.291 124.945 609.577 123.618 609.768C121.249 610.15 118.879 610.531 116.7 611.772C114.615 613.013 112.909 615.113 113.004 617.499C113.004 617.69 113.004 617.785 113.099 617.881C113.288 618.072 113.478 617.976 113.762 617.976C114.425 617.881 114.899 617.69 115.563 617.594C121.817 616.163 127.788 613.299 133 609.386" fill="#57FCC2"/>
<path d="M140.797 625C140.426 625 140.056 625.095 139.778 625.378C139.501 625.568 139.316 625.851 139.131 626.041C138.76 626.23 138.297 626.324 137.835 626.419C136.909 626.608 135.983 626.703 134.965 626.797C133.114 627.081 131.355 627.365 129.782 628.027C128.208 628.689 126.912 630.108 127.005 631.622C127.005 631.716 127.005 631.811 127.097 631.905C127.19 632 127.375 632 127.56 632C128.023 631.905 128.393 631.811 128.856 631.716C133.577 630.865 138.205 629.068 142 626.608" fill="#57FCC2"/>
<path d="M126 597.986C125.535 597.892 125.257 598.27 124.885 598.554C123.585 599.973 121.912 601.014 120.147 601.77C119.311 602.149 118.382 602.432 117.546 602.811C115.966 603.473 114.573 604.703 113.179 605.554C111.6 606.5 109.928 607.446 108.255 608.203C107.048 608.865 105.933 609.338 104.725 610C103.982 609.811 103.146 609.622 102.31 609.432C101.938 609.338 101.659 609.243 101.38 608.959C101.195 608.77 101.102 608.392 101.009 608.108C100.916 606.878 101.566 605.649 102.31 604.703C104.168 602.243 106.583 600.257 109.277 598.932C112.25 597.514 115.409 596.946 118.568 596.473C120.426 596.189 122.377 596 124.235 596" fill="#57FCC2"/>
<path d="M138 618.712C137.631 618.622 137.355 618.892 137.17 619.162C136.156 620.153 134.866 620.874 133.575 621.414C132.93 621.685 132.192 621.865 131.639 622.135C130.441 622.676 129.427 623.396 128.321 624.027C127.122 624.658 125.832 625.288 124.541 625.829C123.619 626.279 122.697 626.55 121.776 627C121.13 626.82 120.577 626.73 119.932 626.55C119.655 626.459 119.379 626.459 119.287 626.279C119.102 626.099 119.01 625.919 119.01 625.649C118.918 624.838 119.471 623.937 120.024 623.216C121.407 621.505 123.251 620.153 125.463 619.162C127.675 618.171 130.164 617.721 132.653 617.36C134.128 617.18 135.603 617 136.986 617" fill="#57FCC2"/>
<path d="M118 585.691C117.349 585.597 116.605 585.973 116.047 586.255C111.025 588.792 106.654 592.55 101.818 595.274C98.7488 596.965 95.4937 598.281 92.1457 598.938C91.8667 599.032 91.4947 599.032 91.3087 598.844C91.1227 598.656 91.1227 598.469 91.1227 598.281C90.8437 595.838 90.9367 593.207 92.5177 591.328C93.7267 589.825 95.6797 589.073 97.3538 588.228C99.5858 587.382 101.911 586.349 104.236 585.785C108.142 584.752 112.234 584.376 116.233 584" fill="#57FCC2"/>
<path d="M109 573.625C106.374 575.781 102.81 576.531 99.7153 578.031C98.6837 578.594 97.652 579.156 96.6204 579.812C95.0261 580.75 93.5255 581.688 92.0249 582.625C90.1492 583.75 88.3673 584.781 86.3978 585.438C85.1786 585.812 83.9594 586 82.6464 586C82.0837 586 81.6148 585.906 81.3335 585.531C81.1459 585.25 81.1459 584.875 81.0521 584.594C80.9583 583.469 80.9583 582.344 81.3335 581.219C81.8024 579.812 82.834 578.781 83.9594 578.031C85.1786 577.281 86.4916 576.719 87.8046 576.156C90.8057 575.031 93.8068 573.812 96.9955 573.062C97.7458 572.875 98.5899 572.688 99.2464 572.594C101.966 572.031 104.78 571.562 107.406 571" fill="#57FCC2"/>
<path d="M103 564.685C101.241 566.326 99.2959 567.773 97.2587 568.834C95.777 569.606 94.2028 570.281 92.8138 570.86C88.2762 572.79 83.4609 574.527 78.553 573.851C78.09 573.755 77.8122 573.658 77.4418 573.369C77.2566 573.176 77.164 572.79 77.0714 572.597C76.701 570.378 77.8122 568.062 79.479 566.615C81.1459 565.168 83.2757 564.396 85.313 563.72C90.3135 562.273 95.5918 561.791 100.778 562.08" fill="#57FCC2"/>
<path d="M90.5117 557.143C83.6075 557.796 76.7966 558.076 69.8923 557.983C69.5191 557.983 69.1459 557.983 68.7727 557.796C68.1196 557.516 67.933 556.863 67.7464 556.21C67.4665 555.463 67.2799 554.53 67.0933 553.784C67 553.131 66.9067 552.478 67.1866 551.918C67.6531 550.985 68.7727 550.518 69.7057 550.332C71.2918 549.959 72.8779 549.959 74.5573 550.052C78.1961 550.145 81.8348 550.705 85.3802 551.451C87.1529 551.918 88.9256 552.291 90.6983 552.944C91.8179 553.317 93.7773 553.597 93.9639 555.09C94.3371 556.863 91.7246 557.049 90.5117 557.143Z" fill="#57FCC2"/>
<path fill-rule="evenodd" clip-rule="evenodd" d="M33.9734 314.944C36.1911 314.944 37.9468 316.7 37.9468 318.918C37.9468 321.135 36.1911 322.891 33.9734 322.891C31.7557 322.891 30 321.135 30 318.918C30 316.792 31.7557 314.944 33.9734 314.944ZM49.9595 314.944C52.1772 314.944 53.9329 316.7 53.9329 318.918C53.9329 321.135 52.1772 322.891 49.9595 322.891C47.7418 322.891 45.9861 321.135 45.9861 318.918C45.9861 316.792 47.7418 314.944 49.9595 314.944ZM66.038 314.944C68.2557 314.944 70.0114 316.7 70.0114 318.918C70.0114 321.135 68.2557 322.891 66.038 322.891C63.8203 322.891 62.0646 321.135 62.0646 318.918C61.9722 316.792 63.8203 314.944 66.038 314.944ZM82.024 314.944C84.2418 314.944 85.9975 316.7 85.9975 318.918C85.9975 321.135 84.2418 322.891 82.024 322.891C79.8063 322.891 78.0506 321.135 78.0506 318.918C77.9582 316.792 79.8063 314.944 82.024 314.944ZM98.0101 314.944C100.228 314.944 101.984 316.7 101.984 318.918C101.984 321.135 100.228 322.891 98.0101 322.891C95.7924 322.891 94.0367 321.135 94.0367 318.918C94.0367 316.792 95.7924 314.944 98.0101 314.944ZM33.9734 298.958C36.1911 298.958 37.9468 300.714 37.9468 302.932C37.9468 305.149 36.1911 306.905 33.9734 306.905C31.7557 306.905 30 305.149 30 302.932C30 300.806 31.7557 298.958 33.9734 298.958ZM49.9595 298.958C52.1772 298.958 53.9329 300.714 53.9329 302.932C53.9329 305.149 52.1772 306.905 49.9595 306.905C47.7418 306.905 45.9861 305.149 45.9861 302.932C45.9861 300.806 47.7418 298.958 49.9595 298.958ZM66.038 298.958C68.2557 298.958 70.0114 300.714 70.0114 302.932C70.0114 305.149 68.2557 306.905 66.038 306.905C63.8203 306.905 62.0646 305.149 62.0646 302.932C61.9722 300.806 63.8203 298.958 66.038 298.958ZM82.024 298.958C84.2418 298.958 85.9975 300.714 85.9975 302.932C85.9975 305.149 84.2418 306.905 82.024 306.905C79.8063 306.905 78.0506 305.149 78.0506 302.932C77.9582 300.806 79.8063 298.958 82.024 298.958ZM98.0101 298.958C100.228 298.958 101.984 300.714 101.984 302.932C101.984 305.149 100.228 306.905 98.0101 306.905C95.7924 306.905 94.0367 305.149 94.0367 302.932C94.0367 300.806 95.7924 298.958 98.0101 298.958ZM33.9734 282.972C36.1911 282.972 37.9468 284.728 37.9468 286.946C37.9468 289.163 36.1911 290.919 33.9734 290.919C31.7557 290.919 30 289.163 30 286.946C30 284.728 31.7557 282.972 33.9734 282.972ZM49.9595 282.972C52.1772 282.972 53.9329 284.728 53.9329 286.946C53.9329 289.163 52.1772 290.919 49.9595 290.919C47.7418 290.919 45.9861 289.163 45.9861 286.946C45.9861 284.728 47.7418 282.972 49.9595 282.972ZM66.038 282.972C68.2557 282.972 70.0114 284.728 70.0114 286.946C70.0114 289.163 68.2557 290.919 66.038 290.919C63.8203 290.919 62.0646 289.163 62.0646 286.946C61.9722 284.728 63.8203 282.972 66.038 282.972ZM82.024 282.972C84.2418 282.972 85.9975 284.728 85.9975 286.946C85.9975 289.163 84.2418 290.919 82.024 290.919C79.8063 290.919 78.0506 289.163 78.0506 286.946C77.9582 284.728 79.8063 282.972 82.024 282.972ZM98.0101 282.972C100.228 282.972 101.984 284.728 101.984 286.946C101.984 289.163 100.228 290.919 98.0101 290.919C95.7924 290.919 94.0367 289.163 94.0367 286.946C94.0367 284.728 95.7924 282.972 98.0101 282.972ZM33.9734 266.986C36.1911 266.986 37.9468 268.742 37.9468 270.959C37.9468 273.177 36.1911 274.933 33.9734 274.933C31.7557 274.933 30 273.177 30 270.959C30 268.742 31.7557 266.986 33.9734 266.986ZM49.9595 266.986C52.1772 266.986 53.9329 268.742 53.9329 270.959C53.9329 273.177 52.1772 274.933 49.9595 274.933C47.7418 274.933 45.9861 273.177 45.9861 270.959C45.9861 268.742 47.7418 266.986 49.9595 266.986ZM66.038 266.986C68.2557 266.986 70.0114 268.742 70.0114 270.959C70.0114 273.177 68.2557 274.933 66.038 274.933C63.8203 274.933 62.0646 273.177 62.0646 270.959C61.9722 268.742 63.8203 266.986 66.038 266.986ZM82.024 266.986C84.2418 266.986 85.9975 268.742 85.9975 270.959C85.9975 273.177 84.2418 274.933 82.024 274.933C79.8063 274.933 78.0506 273.177 78.0506 270.959C77.9582 268.742 79.8063 266.986 82.024 266.986ZM98.0101 266.986C100.228 266.986 101.984 268.742 101.984 270.959C101.984 273.177 100.228 274.933 98.0101 274.933C95.7924 274.933 94.0367 273.177 94.0367 270.959C94.0367 268.742 95.7924 266.986 98.0101 266.986ZM33.9734 251C36.1911 251 37.9468 252.756 37.9468 254.973C37.9468 257.191 36.1911 258.947 33.9734 258.947C31.7557 258.947 30 257.191 30 254.973C30 252.756 31.7557 251 33.9734 251ZM49.9595 251C52.1772 251 53.9329 252.756 53.9329 254.973C53.9329 257.191 52.1772 258.947 49.9595 258.947C47.7418 258.947 45.9861 257.191 45.9861 254.973C45.9861 252.756 47.7418 251 49.9595 251ZM66.038 251C68.2557 251 70.0114 252.756 70.0114 254.973C70.0114 257.191 68.2557 258.947 66.038 258.947C63.8203 258.947 62.0646 257.191 62.0646 254.973C61.9722 252.756 63.8203 251 66.038 251ZM82.024 251C84.2418 251 85.9975 252.756 85.9975 254.973C85.9975 257.191 84.2418 258.947 82.024 258.947C79.8063 258.947 78.0506 257.191 78.0506 254.973C77.9582 252.756 79.8063 251 82.024 251ZM98.0101 251C100.228 251 101.984 252.756 101.984 254.973C101.984 257.191 100.228 258.947 98.0101 258.947C95.7924 258.947 94.0367 257.191 94.0367 254.973C94.0367 252.756 95.7924 251 98.0101 251Z" fill="#0B58E0"/>
<path fill-rule="evenodd" clip-rule="evenodd" d="M442.973 63.9443C445.191 63.9443 446.947 65.7 446.947 67.9177C446.947 70.1354 445.191 71.8911 442.973 71.8911C440.756 71.8911 439 70.1354 439 67.9177C439 65.7924 440.756 63.9443 442.973 63.9443ZM458.959 63.9443C461.177 63.9443 462.933 65.7 462.933 67.9177C462.933 70.1354 461.177 71.8911 458.959 71.8911C456.742 71.8911 454.986 70.1354 454.986 67.9177C454.986 65.7924 456.742 63.9443 458.959 63.9443ZM475.038 63.9443C477.256 63.9443 479.011 65.7 479.011 67.9177C479.011 70.1354 477.256 71.8911 475.038 71.8911C472.82 71.8911 471.065 70.1354 471.065 67.9177C470.972 65.7924 472.82 63.9443 475.038 63.9443ZM491.024 63.9443C493.242 63.9443 494.997 65.7 494.997 67.9177C494.997 70.1354 493.242 71.8911 491.024 71.8911C488.806 71.8911 487.051 70.1354 487.051 67.9177C486.958 65.7924 488.806 63.9443 491.024 63.9443ZM507.01 63.9443C509.228 63.9443 510.984 65.7 510.984 67.9177C510.984 70.1354 509.228 71.8911 507.01 71.8911C504.792 71.8911 503.037 70.1354 503.037 67.9177C503.037 65.7924 504.792 63.9443 507.01 63.9443ZM442.973 47.9582C445.191 47.9582 446.947 49.7139 446.947 51.9316C446.947 54.1494 445.191 55.9051 442.973 55.9051C440.756 55.9051 439 54.1494 439 51.9316C439 49.8063 440.756 47.9582 442.973 47.9582ZM458.959 47.9582C461.177 47.9582 462.933 49.7139 462.933 51.9316C462.933 54.1494 461.177 55.9051 458.959 55.9051C456.742 55.9051 454.986 54.1494 454.986 51.9316C454.986 49.8063 456.742 47.9582 458.959 47.9582ZM475.038 47.9582C477.256 47.9582 479.011 49.7139 479.011 51.9316C479.011 54.1494 477.256 55.9051 475.038 55.9051C472.82 55.9051 471.065 54.1494 471.065 51.9316C470.972 49.8063 472.82 47.9582 475.038 47.9582ZM491.024 47.9582C493.242 47.9582 494.997 49.7139 494.997 51.9316C494.997 54.1494 493.242 55.9051 491.024 55.9051C488.806 55.9051 487.051 54.1494 487.051 51.9316C486.958 49.8063 488.806 47.9582 491.024 47.9582ZM507.01 47.9582C509.228 47.9582 510.984 49.7139 510.984 51.9316C510.984 54.1494 509.228 55.9051 507.01 55.9051C504.792 55.9051 503.037 54.1494 503.037 51.9316C503.037 49.8063 504.792 47.9582 507.01 47.9582ZM442.973 31.9722C445.191 31.9722 446.947 33.7278 446.947 35.9456C446.947 38.1633 445.191 39.919 442.973 39.919C440.756 39.919 439 38.1633 439 35.9456C439 33.7278 440.756 31.9722 442.973 31.9722ZM458.959 31.9722C461.177 31.9722 462.933 33.7278 462.933 35.9456C462.933 38.1633 461.177 39.919 458.959 39.919C456.742 39.919 454.986 38.1633 454.986 35.9456C454.986 33.7278 456.742 31.9722 458.959 31.9722ZM475.038 31.9722C477.256 31.9722 479.011 33.7278 479.011 35.9456C479.011 38.1633 477.256 39.919 475.038 39.919C472.82 39.919 471.065 38.1633 471.065 35.9456C470.972 33.7278 472.82 31.9722 475.038 31.9722ZM491.024 31.9722C493.242 31.9722 494.997 33.7278 494.997 35.9456C494.997 38.1633 493.242 39.919 491.024 39.919C488.806 39.919 487.051 38.1633 487.051 35.9456C486.958 33.7278 488.806 31.9722 491.024 31.9722ZM507.01 31.9722C509.228 31.9722 510.984 33.7278 510.984 35.9456C510.984 38.1633 509.228 39.919 507.01 39.919C504.792 39.919 503.037 38.1633 503.037 35.9456C503.037 33.7278 504.792 31.9722 507.01 31.9722ZM442.973 15.9861C445.191 15.9861 446.947 17.7418 446.947 19.9595C446.947 22.1772 445.191 23.9329 442.973 23.9329C440.756 23.9329 439 22.1772 439 19.9595C439 17.7418 440.756 15.9861 442.973 15.9861ZM458.959 15.9861C461.177 15.9861 462.933 17.7418 462.933 19.9595C462.933 22.1772 461.177 23.9329 458.959 23.9329C456.742 23.9329 454.986 22.1772 454.986 19.9595C454.986 17.7418 456.742 15.9861 458.959 15.9861ZM475.038 15.9861C477.256 15.9861 479.011 17.7418 479.011 19.9595C479.011 22.1772 477.256 23.9329 475.038 23.9329C472.82 23.9329 471.065 22.1772 471.065 19.9595C470.972 17.7418 472.82 15.9861 475.038 15.9861ZM491.024 15.9861C493.242 15.9861 494.997 17.7418 494.997 19.9595C494.997 22.1772 493.242 23.9329 491.024 23.9329C488.806 23.9329 487.051 22.1772 487.051 19.9595C486.958 17.7418 488.806 15.9861 491.024 15.9861ZM507.01 15.9861C509.228 15.9861 510.984 17.7418 510.984 19.9595C510.984 22.1772 509.228 23.9329 507.01 23.9329C504.792 23.9329 503.037 22.1772 503.037 19.9595C503.037 17.7418 504.792 15.9861 507.01 15.9861ZM442.973 0C445.191 0 446.947 1.7557 446.947 3.97342C446.947 6.19114 445.191 7.94684 442.973 7.94684C440.756 7.94684 439 6.19114 439 3.97342C439 1.7557 440.756 0 442.973 0ZM458.959 0C461.177 0 462.933 1.7557 462.933 3.97342C462.933 6.19114 461.177 7.94684 458.959 7.94684C456.742 7.94684 454.986 6.19114 454.986 3.97342C454.986 1.7557 456.742 0 458.959 0ZM475.038 0C477.256 0 479.011 1.7557 479.011 3.97342C479.011 6.19114 477.256 7.94684 475.038 7.94684C472.82 7.94684 471.065 6.19114 471.065 3.97342C470.972 1.7557 472.82 0 475.038 0ZM491.024 0C493.242 0 494.997 1.7557 494.997 3.97342C494.997 6.19114 493.242 7.94684 491.024 7.94684C488.806 7.94684 487.051 6.19114 487.051 3.97342C486.958 1.7557 488.806 0 491.024 0ZM507.01 0C509.228 0 510.984 1.7557 510.984 3.97342C510.984 6.19114 509.228 7.94684 507.01 7.94684C504.792 7.94684 503.037 6.19114 503.037 3.97342C503.037 1.7557 504.792 0 507.01 0Z" fill="#0B58E0"/>
<path fill-rule="evenodd" clip-rule="evenodd" d="M572.973 830.944C575.191 830.944 576.947 832.7 576.947 834.918C576.947 837.135 575.191 838.891 572.973 838.891C570.756 838.891 569 837.135 569 834.918C569 832.792 570.756 830.944 572.973 830.944ZM588.959 830.944C591.177 830.944 592.933 832.7 592.933 834.918C592.933 837.135 591.177 838.891 588.959 838.891C586.742 838.891 584.986 837.135 584.986 834.918C584.986 832.792 586.742 830.944 588.959 830.944ZM605.038 830.944C607.256 830.944 609.011 832.7 609.011 834.918C609.011 837.135 607.256 838.891 605.038 838.891C602.82 838.891 601.065 837.135 601.065 834.918C600.972 832.792 602.82 830.944 605.038 830.944ZM621.024 830.944C623.242 830.944 624.997 832.7 624.997 834.918C624.997 837.135 623.242 838.891 621.024 838.891C618.806 838.891 617.051 837.135 617.051 834.918C616.958 832.792 618.806 830.944 621.024 830.944ZM637.01 830.944C639.228 830.944 640.984 832.7 640.984 834.918C640.984 837.135 639.228 838.891 637.01 838.891C634.792 838.891 633.037 837.135 633.037 834.918C633.037 832.792 634.792 830.944 637.01 830.944ZM572.973 814.958C575.191 814.958 576.947 816.714 576.947 818.932C576.947 821.149 575.191 822.905 572.973 822.905C570.756 822.905 569 821.149 569 818.932C569 816.806 570.756 814.958 572.973 814.958ZM588.959 814.958C591.177 814.958 592.933 816.714 592.933 818.932C592.933 821.149 591.177 822.905 588.959 822.905C586.742 822.905 584.986 821.149 584.986 818.932C584.986 816.806 586.742 814.958 588.959 814.958ZM605.038 814.958C607.256 814.958 609.011 816.714 609.011 818.932C609.011 821.149 607.256 822.905 605.038 822.905C602.82 822.905 601.065 821.149 601.065 818.932C600.972 816.806 602.82 814.958 605.038 814.958ZM621.024 814.958C623.242 814.958 624.997 816.714 624.997 818.932C624.997 821.149 623.242 822.905 621.024 822.905C618.806 822.905 617.051 821.149 617.051 818.932C616.958 816.806 618.806 814.958 621.024 814.958ZM637.01 814.958C639.228 814.958 640.984 816.714 640.984 818.932C640.984 821.149 639.228 822.905 637.01 822.905C634.792 822.905 633.037 821.149 633.037 818.932C633.037 816.806 634.792 814.958 637.01 814.958ZM572.973 798.972C575.191 798.972 576.947 800.728 576.947 802.946C576.947 805.163 575.191 806.919 572.973 806.919C570.756 806.919 569 805.163 569 802.946C569 800.728 570.756 798.972 572.973 798.972ZM588.959 798.972C591.177 798.972 592.933 800.728 592.933 802.946C592.933 805.163 591.177 806.919 588.959 806.919C586.742 806.919 584.986 805.163 584.986 802.946C584.986 800.728 586.742 798.972 588.959 798.972ZM605.038 798.972C607.256 798.972 609.011 800.728 609.011 802.946C609.011 805.163 607.256 806.919 605.038 806.919C602.82 806.919 601.065 805.163 601.065 802.946C600.972 800.728 602.82 798.972 605.038 798.972ZM621.024 798.972C623.242 798.972 624.997 800.728 624.997 802.946C624.997 805.163 623.242 806.919 621.024 806.919C618.806 806.919 617.051 805.163 617.051 802.946C616.958 800.728 618.806 798.972 621.024 798.972ZM637.01 798.972C639.228 798.972 640.984 800.728 640.984 802.946C640.984 805.163 639.228 806.919 637.01 806.919C634.792 806.919 633.037 805.163 633.037 802.946C633.037 800.728 634.792 798.972 637.01 798.972ZM572.973 782.986C575.191 782.986 576.947 784.742 576.947 786.959C576.947 789.177 575.191 790.933 572.973 790.933C570.756 790.933 569 789.177 569 786.959C569 784.742 570.756 782.986 572.973 782.986ZM588.959 782.986C591.177 782.986 592.933 784.742 592.933 786.959C592.933 789.177 591.177 790.933 588.959 790.933C586.742 790.933 584.986 789.177 584.986 786.959C584.986 784.742 586.742 782.986 588.959 782.986ZM605.038 782.986C607.256 782.986 609.011 784.742 609.011 786.959C609.011 789.177 607.256 790.933 605.038 790.933C602.82 790.933 601.065 789.177 601.065 786.959C600.972 784.742 602.82 782.986 605.038 782.986ZM621.024 782.986C623.242 782.986 624.997 784.742 624.997 786.959C624.997 789.177 623.242 790.933 621.024 790.933C618.806 790.933 617.051 789.177 617.051 786.959C616.958 784.742 618.806 782.986 621.024 782.986ZM637.01 782.986C639.228 782.986 640.984 784.742 640.984 786.959C640.984 789.177 639.228 790.933 637.01 790.933C634.792 790.933 633.037 789.177 633.037 786.959C633.037 784.742 634.792 782.986 637.01 782.986ZM572.973 767C575.191 767 576.947 768.756 576.947 770.973C576.947 773.191 575.191 774.947 572.973 774.947C570.756 774.947 569 773.191 569 770.973C569 768.756 570.756 767 572.973 767ZM588.959 767C591.177 767 592.933 768.756 592.933 770.973C592.933 773.191 591.177 774.947 588.959 774.947C586.742 774.947 584.986 773.191 584.986 770.973C584.986 768.756 586.742 767 588.959 767ZM605.038 767C607.256 767 609.011 768.756 609.011 770.973C609.011 773.191 607.256 774.947 605.038 774.947C602.82 774.947 601.065 773.191 601.065 770.973C600.972 768.756 602.82 767 605.038 767ZM621.024 767C623.242 767 624.997 768.756 624.997 770.973C624.997 773.191 623.242 774.947 621.024 774.947C618.806 774.947 617.051 773.191 617.051 770.973C616.958 768.756 618.806 767 621.024 767ZM637.01 767C639.228 767 640.984 768.756 640.984 770.973C640.984 773.191 639.228 774.947 637.01 774.947C634.792 774.947 633.037 773.191 633.037 770.973C633.037 768.756 634.792 767 637.01 767Z" fill="#0B58E0"/>
<path fill-rule="evenodd" clip-rule="evenodd" d="M140.157 632.814C137.65 600.456 137 584.091 138.114 583.254C139.693 582.138 198.379 579.163 199.957 580.372C200.979 581.208 201.629 597.759 201.629 629.931L140.157 632.814Z" fill="#FFCC57"/>
<path d="M388.612 584.048C395.847 573.946 394.156 575.892 394.156 575.892L391.713 575.707C391.713 575.707 364.464 607.866 349.054 638.819C333.644 669.68 325 694.888 325 694.888L327.443 696C327.443 696 340.316 649.106 369.162 610.368C374.706 602.954 380.156 595.54 385.699 588.033C387.109 586.087 388.424 583.955 389.928 582.194C390.773 581.175 391.619 580.341 392.465 579.414C393.028 578.858 393.686 578.395 394.25 577.839C395.002 577.097 395.659 576.263 396.317 575.429C399.7 570.888 402.519 565.791 404.586 560.508C405.525 558.284 406.277 555.875 405.901 553.558C405.807 552.631 405.431 551.704 404.68 551.241C404.116 550.963 403.552 550.963 402.988 551.055C402.519 551.241 402.049 551.333 401.673 551.611C401.109 552.075 400.733 552.631 400.357 553.28C398.29 556.523 396.317 559.767 394.814 563.196C394.062 564.957 393.498 566.903 392.934 568.849C391.525 573.761 390.022 578.58 388.518 583.399" fill="#57FCC2"/>
<path d="M385.897 573.132C385.897 572.22 385.809 571.399 385.72 570.488C385.453 569.12 384.832 567.843 384.299 566.476C383.855 565.473 383.322 564.379 382.345 564.105C381.102 563.649 379.681 564.743 379.237 566.111C378.793 567.479 379.06 568.846 379.326 570.214C379.593 571.764 379.859 573.314 380.214 574.773C380.392 575.958 380.658 577.143 381.013 578.329C381.546 580.335 382.523 582.158 383.411 584.073C383.677 584.62 384.299 586.626 385.276 585.805C385.897 585.258 385.809 582.523 385.897 581.702C386.075 578.876 385.986 575.958 385.897 573.132Z" fill="#57FCC2"/>
<path d="M377.995 594.868C378.09 589.963 376.851 585.152 375.706 580.436C375.516 579.681 375.325 579.021 375.134 578.267C374.657 576.474 374.181 574.776 373.036 573.362C371.797 572.041 369.603 571.475 368.173 572.607C366.838 573.645 366.838 575.625 367.219 577.323C367.601 579.021 368.364 580.625 369.127 582.134C371.415 586.85 373.894 591.472 376.564 596" fill="#57FCC2"/>
<path d="M371.369 598.714C371.084 597.715 370.799 596.897 370.419 595.898C369.753 593.9 369.088 591.993 368.042 590.177C367.091 588.36 365.57 586.726 363.764 585.727C363.003 585.272 362.148 585 361.197 585C361.007 585 360.817 585 360.627 585.091C360.342 585.272 360.151 585.636 360.056 585.999C359.676 588.542 361.292 590.994 362.718 593.174C363.384 594.173 364.049 595.172 364.905 595.989C366.046 597.079 367.472 597.987 368.707 598.986C369.278 599.44 369.848 599.985 370.228 600.53C370.419 600.802 370.894 601.892 371.179 601.983C372.795 602.255 371.559 599.168 371.369 598.714Z" fill="#57FCC2"/>
<path d="M350 638.82C348.745 635.644 346.622 632.831 344.498 630.109C344.208 629.655 343.919 629.201 343.533 628.838C342.76 627.84 341.892 626.751 340.733 626.297C339.575 625.753 337.838 625.934 337.258 627.023C336.679 628.021 337.162 629.383 337.838 630.29C338.513 631.288 339.575 632.105 340.444 632.922C343.34 635.463 346.139 637.731 349.324 640" fill="#57FCC2"/>
<path d="M345.778 643.901C345.312 643.353 344.846 642.805 344.473 642.258C343.541 641.071 342.516 639.976 341.305 638.971C340.093 637.967 338.789 637.237 337.298 637.055C336.739 636.963 335.993 636.963 335.434 637.237C335.248 637.328 335.248 637.328 335.154 637.42C334.968 637.602 334.968 637.967 335.061 638.15C335.527 639.976 337.111 641.162 338.789 642.258C339.534 642.714 340.186 643.262 341.025 643.627C342.05 644.083 343.168 644.266 344.287 644.631C344.846 644.813 345.219 644.996 345.685 645.27C345.871 645.452 346.523 646 346.71 646C347.641 645.909 346.057 644.174 345.778 643.901Z" fill="#57FCC2"/>
<path d="M365 612.855C364.721 611.83 364.441 610.804 364.069 609.778C363.882 608.846 363.51 608.006 363.137 607.167C362.672 606.141 362.02 605.302 361.461 604.276C360.343 602.318 359.598 600.08 358.201 598.308C356.711 596.164 354.476 594.765 352.334 593.366C351.775 593.087 351.123 592.807 350.657 593.18C350.471 593.366 350.378 593.46 350.285 593.739C349.726 594.952 350.099 596.35 350.471 597.562C352.054 601.479 355.221 604.463 358.574 607.074C359.319 607.633 360.064 608.286 360.716 608.939C362.392 610.711 363.51 612.855 364.627 615" fill="#57FCC2"/>
<path d="M358.847 622C357.983 620.062 356.735 618.308 355.102 616.923C353.085 615.262 350.684 614.338 348.571 612.862C346.458 611.477 344.441 609.538 344.057 607.046C343.865 605.938 344.153 604.646 345.017 604C346.842 605.477 349.339 606.123 351.26 607.6C352.317 608.431 353.085 609.354 353.949 610.462C356.542 613.692 359.136 617.108 360 621.077" fill="#57FCC2"/>
<path d="M356 628C354.786 626.546 353.478 625.092 352.358 623.547C350.864 621.82 349.369 620.002 348.155 618.094C347.315 616.821 346.474 615.458 345.073 615.095C344.513 614.913 344.046 615.004 343.579 615.276C343.112 615.64 343.019 616.185 343.019 616.731C342.832 619.184 344.046 621.547 345.821 623.183C347.502 624.91 349.743 626.092 351.891 627.273C352.918 627.818 353.945 628.455 355.066 629" fill="#57FCC2"/>
<path d="M356.214 629C356.681 629 357.054 629.178 357.335 629.444C357.615 629.622 357.895 629.978 358.175 630.244C358.642 630.511 359.109 630.6 359.669 630.689C360.696 630.867 361.724 631.044 362.938 631.222C364.992 631.489 366.953 631.844 368.821 632.911C370.595 633.889 372.089 635.667 371.996 637.622C371.996 637.8 371.996 637.8 371.902 637.889C371.716 638.067 371.622 637.978 371.342 637.978C370.782 637.889 370.408 637.8 369.848 637.711C364.525 636.556 359.389 634.244 355 631.044" fill="#57FCC2"/>
<path d="M347.021 644C347.299 644 347.671 644.097 347.949 644.29C348.135 644.484 348.321 644.677 348.506 644.871C348.785 645.065 349.249 645.065 349.62 645.161C350.455 645.355 351.291 645.355 352.126 645.452C353.704 645.645 355.282 645.935 356.582 646.516C357.881 647.097 359.088 648.355 358.995 649.71C358.995 649.806 358.995 649.903 358.902 649.903C358.809 650 358.717 650 358.531 650C358.16 649.903 357.788 649.806 357.417 649.806C353.333 649.032 349.342 647.484 346 645.258" fill="#57FCC2"/>
<path d="M360 620.86C360.381 620.767 360.666 621.047 360.952 621.326C362.094 622.535 363.522 623.465 365.14 624.023C365.902 624.302 366.664 624.581 367.425 624.953C368.758 625.512 369.995 626.535 371.233 627.279C372.565 628.116 374.184 628.86 375.612 629.512C376.659 630.07 377.706 630.535 378.753 631C379.419 630.814 380.086 630.721 380.847 630.535C381.133 630.442 381.418 630.349 381.704 630.163C381.894 629.977 381.894 629.698 381.99 629.419C382.085 628.395 381.514 627.279 380.847 626.442C379.229 624.302 377.135 622.628 374.66 621.512C372.09 620.302 369.234 619.744 366.473 619.372C364.76 619.186 363.141 619 361.428 619" fill="#57FCC2"/>
<path d="M349 639.245C349.286 639.149 349.573 639.436 349.763 639.628C350.718 640.585 351.863 641.16 353.008 641.734C353.581 641.926 354.249 642.117 354.726 642.404C355.776 642.883 356.73 643.553 357.685 644.223C358.735 644.798 359.88 645.372 361.025 645.947C361.884 646.33 362.647 646.617 363.506 647C364.079 646.809 364.556 646.809 365.224 646.617C365.415 646.521 365.701 646.521 365.797 646.426C365.988 646.234 365.988 646.138 365.988 645.851C366.083 645.085 365.606 644.319 365.033 643.649C363.793 642.117 362.075 640.777 360.166 639.915C358.162 638.957 355.967 638.574 353.772 638.287C352.436 638.096 351.195 638 349.859 638" fill="#57FCC2"/>
<path d="M367 610.5C367.55 610.406 368.192 610.688 368.65 610.969C372.958 613.125 376.624 616.407 380.749 618.751C383.316 620.157 386.157 621.376 388.998 621.938C389.182 622.032 389.548 622.032 389.732 621.845C389.915 621.657 389.915 621.563 389.915 621.376C390.098 619.219 390.098 616.969 388.723 615.282C387.715 613.969 386.065 613.313 384.599 612.657C382.674 611.906 380.657 611.063 378.733 610.5C375.433 609.563 371.95 609.281 368.467 609" fill="#57FCC2"/>
<path d="M375 600.432C377.236 602.302 380.311 602.957 382.919 604.173C383.851 604.64 384.69 605.201 385.528 605.669C386.832 606.511 388.137 607.353 389.534 608.101C391.118 609.129 392.702 609.971 394.379 610.532C395.404 610.813 396.429 611 397.64 611C398.106 611 398.572 610.906 398.758 610.626C398.944 610.439 398.944 610.065 398.944 609.784C399.037 608.755 399.037 607.82 398.758 606.791C398.385 605.576 397.454 604.64 396.522 603.986C395.497 603.331 394.379 602.863 393.261 602.396C390.745 601.367 388.137 600.338 385.435 599.777C384.783 599.59 384.131 599.496 383.478 599.403C381.149 598.935 378.727 598.468 376.398 598" fill="#57FCC2"/>
<path d="M380 592.205C381.517 593.592 383.319 594.795 385.121 595.627C386.449 596.274 387.776 596.829 389.104 597.384C393.182 598.956 397.449 600.436 401.717 599.881C402.096 599.789 402.381 599.696 402.665 599.511C402.855 599.326 402.855 599.049 402.95 598.864C403.234 597.014 402.286 595.072 400.863 593.87C399.441 592.668 397.544 592.02 395.647 591.465C391.19 590.263 386.543 589.801 381.991 590.078" fill="#57FCC2"/>
<path d="M391.045 585.244C396.839 585.798 402.724 586.075 408.517 585.982C408.793 585.982 409.161 585.982 409.437 585.798C409.988 585.613 410.172 584.966 410.356 584.412C410.54 583.766 410.724 583.027 410.908 582.288C411 581.734 411.092 581.18 410.816 580.625C410.448 579.794 409.529 579.425 408.701 579.24C407.414 578.963 405.942 578.963 404.563 579.055C401.437 579.148 398.402 579.609 395.367 580.256C393.896 580.625 392.333 580.995 390.861 581.549C389.942 581.826 388.287 582.103 388.011 583.396C387.827 585.059 390.034 585.151 391.045 585.244Z" fill="#57FCC2"/>
<path d="M322.484 643.225C322.018 651.579 327.149 658.431 332.188 663.875C334.8 666.691 337.506 669.413 339.839 672.417C342.171 675.326 344.038 678.705 345.251 682.366C346.65 686.684 347.21 691.283 346.93 695.789C346.93 696.07 346.557 696.07 346.557 695.789C346.837 691.659 346.463 687.529 345.251 683.586C344.038 679.55 342.078 675.983 339.652 672.792C334.987 666.785 329.016 662.091 325.19 655.239C323.137 651.579 321.831 647.449 322.018 643.131C322.111 642.943 322.484 642.943 322.484 643.225V643.225Z" fill="#BABAE2"/>
<path d="M323.544 647.492C324.888 646.762 326.04 645.667 327 644.39C326.616 644.664 326.04 644.664 325.56 644.481C324.984 644.39 324.504 644.207 323.928 644.025C324.888 642.565 325.848 641.014 325.848 639.19C324.696 640.102 323.544 641.014 322.296 641.835C322.2 640.193 322.296 638.642 322.584 637C321.144 638.277 319.992 639.919 319.416 641.835C318.936 641.197 318.36 640.741 317.88 640.193C317.4 639.646 316.92 639.007 316.92 638.186C316.728 640.102 317.208 642.018 318.168 643.66C317.688 643.934 317.016 643.843 316.536 643.66C315.96 643.478 315.48 643.204 315 642.839C315.288 643.021 315.48 643.569 315.672 643.843C315.96 644.207 316.152 644.572 316.44 644.846C317.016 645.485 317.592 646.032 318.264 646.488C319.224 647.127 320.28 647.492 321.336 647.766C322.104 648.222 322.776 647.948 323.544 647.492Z" fill="#BABAE2"/>
<path fill-rule="evenodd" clip-rule="evenodd" d="M120.839 633.315C122.05 632.196 209.942 627.534 211.526 628.28C213.111 629.119 217.305 688.701 215.348 690.38C213.297 691.965 127.083 697.28 125.126 696.161C122.983 694.855 119.627 634.434 120.839 633.315Z" fill="#DDAA35"/>
<path fill-rule="evenodd" clip-rule="evenodd" d="M91.6928 697.817C89.1857 666.07 88.5357 650.013 89.65 649.192C91.2286 648.098 149.914 645.178 151.493 646.364C152.514 647.185 153.164 663.424 153.164 694.989L91.6928 697.817Z" fill="#FFCC57"/>
<path d="M209.101 695H325.742C337.508 695 351.775 677.542 348.532 665.749L263.206 394.693C259.871 382.9 247.642 373.243 235.783 373.243L115.715 366C108.674 371.107 100.429 382.9 103.764 394.879L181.679 673.642C184.921 685.343 197.243 695 209.101 695Z" fill="#8686B7"/>
<path d="M216.115 684H332.734C344.498 684 351.445 674.363 348.203 662.594L270.303 384.406C266.968 372.637 254.741 363 242.885 363H126.266C114.502 363 107.555 372.637 110.797 384.406L188.697 662.594C192.032 674.363 204.351 684 216.115 684Z" fill="#E9E9FF"/>
<path d="M332 643H190.43L122 398H263.478L332 643Z" fill="#CCCAF4"/>
<path d="M205.817 383H181.108C180.275 383 179.35 382.382 179.072 381.5V381.5C178.795 380.706 179.35 380 180.183 380H204.892C205.725 380 206.65 380.618 206.928 381.5V381.5C207.205 382.294 206.65 383 205.817 383Z" fill="#8686B7"/>
<path d="M175.878 382.78C176.381 382.2 176.194 381.212 175.462 380.574C174.73 379.935 173.729 379.887 173.226 380.467C172.723 381.047 172.909 382.035 173.642 382.673C174.374 383.312 175.375 383.36 175.878 382.78Z" fill="#8686B7"/>
<path d="M284.844 670.788C288.195 666.922 286.788 660.191 281.701 655.754C276.613 651.316 269.772 650.853 266.42 654.719C263.068 658.584 264.476 665.315 269.563 669.753C274.651 674.19 281.492 674.653 284.844 670.788Z" fill="#CCCAF4"/>
<path fill-rule="evenodd" clip-rule="evenodd" d="M231.959 680.869C233.355 684.434 235.403 686.629 238.01 687.543C241.734 688.914 248.252 686.537 251.138 690.469C254.21 694.4 251.138 700.983 248.531 702.171C245.924 703.36 235.124 704.183 229.259 700.434C223.393 696.777 203.003 690.834 200.024 686.994C197.976 684.434 199.838 679.497 205.89 672C208.59 674.011 212.5 676.389 217.807 678.217C223.486 680.229 228.514 680.686 231.959 680.869Z" fill="#FFE5E3"/>
<path fill-rule="evenodd" clip-rule="evenodd" d="M257.788 355.317C258.353 359.21 260.141 372.093 258.541 373.669C257.506 383.03 260.141 387.571 266.259 387.571C272.376 387.571 278.024 387.293 283.294 386.552C281.976 384.698 280.941 382.566 280.376 380.342C279.812 378.025 279.906 363.288 280.188 361.713C266.165 351.888 257.035 351.425 257.788 355.317Z" fill="#E5A7BC"/>
<path fill-rule="evenodd" clip-rule="evenodd" d="M256.604 520.525C263.391 547.28 255.488 584.81 251.118 597.908C246.84 611.006 233.172 626.241 201.372 674.269C205.37 676.312 210.577 678.449 216.807 680.028C223.874 681.886 230.011 682.443 234.939 682.629C261.811 645.378 256.046 656.711 283.568 614.443C296.772 594.192 306.721 545.329 306.349 513.094L256.604 520.525Z" fill="#DDAA35"/>
<path fill-rule="evenodd" clip-rule="evenodd" d="M256.279 520.508L305.531 513.092C324.431 549.99 334.766 574.187 336.628 585.868C338.49 597.456 332.159 629.812 317.448 682.841L291.472 690.906C293.055 684.046 295.197 673.848 297.338 661.611C303.39 627.772 307.021 620.819 305.438 605.337C304.6 594.212 267.545 553.327 256.279 520.508Z" fill="#FFCC57"/>
<path fill-rule="evenodd" clip-rule="evenodd" d="M324.914 410.813C321.839 370.055 321 349.304 322.491 348.28C324.541 346.884 398.62 343.255 400.67 344.837C401.975 345.861 402.72 366.705 402.72 407.37L324.914 410.813Z" fill="#FFCC57"/>
<path fill-rule="evenodd" clip-rule="evenodd" d="M300.372 411.289C301.953 409.902 412.372 404.261 414.419 405.278C416.465 406.295 421.488 480.829 419.07 482.863C416.465 484.898 308.093 491.278 305.581 489.891C302.884 488.319 298.884 412.769 300.372 411.289Z" fill="#FFE5E3"/>
<path fill-rule="evenodd" clip-rule="evenodd" d="M251.725 523.259C241.458 460.636 236.37 422.191 236.833 407.554C237.295 393.102 244.603 381.43 258.755 373C267.173 377.91 273.093 381.337 276.238 383.005C280.215 385.321 284.285 386.155 285.303 388.193C286.043 389.582 294.183 431.084 309.63 512.235C300.935 515.385 291.593 517.793 281.695 519.646C271.798 521.684 261.808 522.796 251.725 523.259Z" fill="white"/>
<path fill-rule="evenodd" clip-rule="evenodd" d="M253.28 440.645C255.332 454.03 258.317 462.676 262.421 466.673C268.484 472.715 309.619 480.523 324.917 487.123C340.214 493.723 339.188 497.628 350.195 497.628C357.377 497.628 362.041 494.188 363.72 487.123C359.523 486.566 355.512 485.264 351.594 483.126C345.811 479.966 345.065 476.061 341.52 474.667C338.069 473.273 328.368 476.061 324.917 474.667C321.466 473.273 281.636 450.684 279.024 448.174C277.252 446.408 276.879 442.132 277.625 435.253C273.334 432.557 268.671 431.814 264.1 432.836C259.063 433.673 255.612 436.276 253.28 440.645Z" fill="#FFBBD2"/>
<path fill-rule="evenodd" clip-rule="evenodd" d="M317.734 682.461C324.836 686.877 330.162 689.821 333.807 691.293C339.133 693.409 345.207 689.177 348.851 693.409C352.495 697.549 349.318 703.529 344.926 704.357C340.628 705.185 298.952 705.185 295.589 704.357C293.252 703.805 295.121 698.193 294.561 689.821L317.734 682.461Z" fill="#FFF8F7"/>
<path d="M259.518 367.719C259.518 367.719 254.197 369.121 252.704 365.663C251.304 362.205 249.624 355.851 246.637 351.178C243.557 346.506 242.344 338.75 247.664 335.666C244.957 325.667 253.917 321.368 260.638 319.499C267.451 317.63 271.651 319.219 271.651 319.219C271.651 319.219 276.412 315.294 280.425 315.013C284.438 314.826 286.492 316.602 286.959 319.966C289.852 319.966 291.905 322.583 291.999 324.732C292.092 326.881 286.959 334.451 286.959 334.451L269.038 354.823L259.518 367.719Z" fill="#080973"/>
<path d="M267.379 361.257C267.379 361.257 269.139 370.628 272.103 372.924C275.16 375.037 286.274 375.497 289.609 374.486C292.943 373.384 293.869 368.79 294.332 364.564C294.795 360.338 294.332 356.572 295.907 355.285C297.481 353.999 297.481 351.886 295.073 349.038C292.665 346.19 293.499 342.515 292.943 339.392C292.387 336.268 286.737 328 286.737 328C286.737 328 284.607 330.297 282.106 330.94C279.605 331.583 270.529 329.194 270.529 329.194C270.529 329.194 273.215 337.187 268.12 340.862C271.455 346.374 269.51 350.692 269.51 350.692L266.175 351.794C266.175 351.794 261.452 346.925 259.321 347.109C257.191 347.293 255.431 350.416 256.172 353.264C256.913 356.112 260.155 360.522 263.212 360.981C266.268 361.441 266.916 360.43 266.916 360.43L267.379 361.257Z" fill="#FFBBD2"/>
<path d="M515 523.535C515 523.535 519.049 518.57 520.705 519.03C522.27 519.49 525.951 520.961 529.724 527.304C533.497 533.739 538.006 537.233 541.411 543.024C544.724 548.816 551.718 556.446 551.994 561.779C552.27 567.203 543.527 564.261 539.478 563.709C535.429 563.158 515 535.486 515 535.486V523.535H515Z" fill="#FFE5E3"/>
<path d="M505.46 524.371C508.507 522.895 514.325 520.035 515.71 521.326C517.095 522.618 522.266 537.104 521.989 538.857C521.712 540.61 470 561 470 561L505.46 524.371Z" fill="#3FD49F"/>
<path d="M461 473.023L463.978 492C463.978 492 484.915 487.442 491.243 488.279C497.571 489.116 506.598 491.07 506.97 487.721C507.528 484.465 500.177 468 500.177 468L461 473.023Z" fill="#E5A7BC"/>
<path d="M463 351.923C459.665 345.397 453.736 331.973 453.643 324.608C453.458 317.243 449.289 307.362 443.823 293.005C438.357 278.741 438.357 273.241 436.505 268.86C434.559 264.478 428.445 262.241 428.723 256.927C429.186 251.799 429.093 244.062 428.63 240.333C428.167 236.604 420.385 241.358 418.347 246.486C416.402 251.613 415.383 258.325 416.402 263.826C417.421 269.326 424.461 270.724 426.685 274.546C428.908 278.369 434.467 313.608 436.968 325.447C439.469 337.1 449.752 366 449.752 366L463 351.923Z" fill="#FFBBD2"/>
<path d="M477.622 380.127C477.622 380.127 469.735 383.187 465.189 382.631C460.642 382.074 459.343 378.644 455.818 379.293C452.292 379.849 442.92 382.631 441.9 381.24C440.879 379.942 445.147 376.975 444.405 375.12C443.662 373.358 438.559 375.306 433.363 373.173C428.167 371.04 429.652 369.835 433.363 367.702C437.075 365.663 433.178 362.974 433.178 360.47C433.178 357.967 445.24 357.967 447.56 353.609C449.879 349.065 448.766 340.72 453.034 335.899C457.395 331.077 452.756 324.865 460.364 322.362C467.973 319.858 471.684 321.064 477.715 318.653C483.746 316.149 494.695 314.944 497.107 317.169C499.613 319.395 502.211 322.454 507.407 325.7C512.696 328.945 522.067 337.846 524.387 347.118C526.706 356.205 533.016 365.477 534.964 378.551C536.727 391.625 538.49 389.214 534.964 398.671C531.438 408.222 531.253 408.5 530.418 413.321C529.583 418.143 531.902 426.21 523.644 419.348C515.386 412.58 508.056 402.937 499.984 398.949C492.004 394.962 477.622 380.127 477.622 380.127Z" fill="#5731EB"/>
<path d="M456.369 378.677C456.369 378.677 458.705 385.02 459.359 388.378C459.92 391.736 455.808 395.187 454.032 398.265C452.257 401.529 445.622 406.193 448.893 416.826C452.257 427.272 454.78 425.5 455.06 432.869C455.341 440.237 454.593 468.592 457.303 474.654C459.826 480.717 460.387 476.706 462.443 476.613C464.498 476.52 488.047 475.774 494.775 475.121C501.597 474.561 504.12 475.68 505.148 474.841C506.175 473.815 498.232 457.026 498.98 449.658C499.728 442.289 516.735 402.182 519.632 397.239C522.622 392.388 524.024 383.621 522.155 378.677C520.192 373.641 511.408 368.324 509.166 369.07C506.923 369.817 505.895 370.563 503.372 372.895C501.036 375.226 495.803 378.025 494.682 378.771C493.093 379.797 493.373 377.558 492.065 378.304C490.757 379.051 482.44 385.207 479.543 382.875C476.553 380.543 474.684 375.506 468.143 375.32C461.602 375.133 456.369 378.677 456.369 378.677Z" fill="white"/>
<path d="M475.647 369.4C475.647 369.4 475.094 380.005 472.88 383.075C470.574 386.145 465.41 387.169 466.055 389.588C466.609 391.913 474.079 393.588 479.889 389.588C485.7 385.587 494 378.889 494 378.889C494 378.889 491.418 377.4 491.51 373.865C491.879 370.144 477.676 365.679 475.647 369.4Z" fill="#E5A7BC"/>
<path d="M485.721 335C482.244 336.586 479.424 339.852 477.075 344.237C473.222 351.048 472 358.978 472 364.296C472 369.614 474.068 373.999 477.827 375.958C481.586 377.918 485.439 379.504 489.01 378.851C493.333 378.011 501.039 373.346 504.987 363.736C505.178 356.996 504.963 349.268 501.5 344C498.157 338.914 491.676 336.192 485.721 335Z" fill="#FF99BB"/>
<path d="M550.308 341.495C567.795 326.296 575.887 306.527 592.165 292.54C596.816 287.878 606.117 290.209 609.652 286.666C614.954 283.122 618.954 277.527 621 271C619.326 271.093 615.698 273.145 612.908 276.315C609.187 280.418 598.49 284.428 593.932 286.759C589.375 289.09 580.538 295.897 568.818 308.765C557.191 321.633 541.75 338.604 538.03 344.293C534.309 349.887 506.125 371.614 505.381 373.386C504.637 375.158 505.102 382.711 505.753 387C513.195 384.109 519.892 379.633 525.938 374.225C536.356 366.019 541.006 352.032 550.308 341.495Z" fill="#FFBBD2"/>
<path d="M621 271C618.862 277.595 615.201 282.076 609.904 285.606C606.372 289.135 597.078 286.813 592.432 291.458C576.168 305.391 566.379 326.452 549 341.5C539.706 351.997 536.669 365.655 526.167 373.737C520.219 379.217 513.435 383.583 506 386.463C506 386.556 506 386.649 506 386.742C506.558 389.993 509.346 393.987 514.271 392.779C519.29 391.479 543.64 362.033 550.145 353.115C556.651 344.012 554.978 341.318 565.852 332.958C576.725 324.598 588.157 302.676 590.666 298.588C593.175 294.501 603.77 295.802 610.833 292.736C617.896 289.485 622.172 272.858 621.986 271.464C622.079 271.093 621.465 271 621 271Z" fill="#E5A7BC"/>
<path d="M468.221 488.347C468.221 488.347 502.718 485.376 504.938 486.119C507.157 486.862 510.949 488.44 512.522 498.745C514.279 509.051 516.776 521.213 502.256 533.282C487.735 545.351 480.429 554.542 480.429 554.542C480.429 554.542 508.545 543.494 512.337 541.173C516.129 538.852 518.626 539.223 520.938 544.701C523.25 550.179 523.25 564.383 522.695 567.168C522.14 569.953 509.562 570.975 496.614 576.452C483.574 581.93 447.319 596.691 431.227 592.142C415.134 587.779 416.891 571.903 432.984 546.929C449.076 522.141 459.435 516.385 460.36 510.258C461.285 504.13 460.082 492.896 460.822 491.318C461.747 489.461 466.556 488.44 468.221 488.347Z" fill="#57FCC2"/>
<path d="M517 541.301C517 541.301 523.886 537 527.887 537C531.981 537 533.749 540.833 534.959 544.292C536.169 547.751 544.544 562.616 547.149 572.526C549.755 582.436 549.475 587.578 547.149 588.607C544.823 589.635 540.822 588.607 538.495 585.989C536.169 583.371 529.841 571.311 527.422 569.909C525.096 568.6 519.14 564.86 519.14 564.86L517 541.301Z" fill="#FFF8F7"/>
<path d="M483.5 708C536.795 708 580 703.523 580 698C580 692.477 536.795 688 483.5 688C430.205 688 387 692.477 387 698C387 703.523 430.205 708 483.5 708Z" fill="#0B58E0"/>
</svg>
