<svg width="16" height="16" viewBox="0 0 16 16" fill="none" xmlns="http://www.w3.org/2000/svg">
<path d="M8.01782 3.88419C5.73719 3.88419 3.91982 5.73719 3.91982 7.98218C3.91982 10.2628 5.73719 12.0802 8.01782 12.0802C10.2628 12.0802 12.1158 10.2628 12.1158 7.98218C12.1158 5.73719 10.2628 3.88419 8.01782 3.88419ZM8.01782 10.6548C6.55679 10.6548 5.34521 9.47884 5.34521 7.98218C5.34521 6.52116 6.52116 5.34521 8.01782 5.34521C9.47884 5.34521 10.6548 6.52116 10.6548 7.98218C10.6548 9.47884 9.47884 10.6548 8.01782 10.6548ZM13.2205 3.74165C13.2205 3.20713 12.7929 2.77951 12.2584 2.77951C11.7238 2.77951 11.2962 3.20713 11.2962 3.74165C11.2962 4.27617 11.7238 4.70379 12.2584 4.70379C12.7929 4.70379 13.2205 4.27617 13.2205 3.74165ZM15.9287 4.70379C15.8575 3.42094 15.5724 2.28062 14.6459 1.35412C13.7194 0.427617 12.5791 0.142539 11.2962 0.0712695C9.97773 0 6.02227 0 4.70379 0.0712695C3.42094 0.142539 2.31626 0.427617 1.35412 1.35412C0.427617 2.28062 0.142539 3.42094 0.0712695 4.70379C0 6.02227 0 9.97773 0.0712695 11.2962C0.142539 12.5791 0.427617 13.6837 1.35412 14.6459C2.31626 15.5724 3.42094 15.8575 4.70379 15.9287C6.02227 16 9.97773 16 11.2962 15.9287C12.5791 15.8575 13.7194 15.5724 14.6459 14.6459C15.5724 13.6837 15.8575 12.5791 15.9287 11.2962C16 9.97773 16 6.02227 15.9287 4.70379ZM14.2183 12.686C13.9688 13.3987 13.3987 13.9332 12.7216 14.2183C11.6526 14.6459 9.15813 14.539 8.01782 14.539C6.84187 14.539 4.34744 14.6459 3.31403 14.2183C2.60134 13.9332 2.06682 13.3987 1.78174 12.686C1.35412 11.6526 1.46102 9.15813 1.46102 7.98218C1.46102 6.84187 1.35412 4.34744 1.78174 3.2784C2.06682 2.60134 2.60134 2.06682 3.31403 1.78174C4.34744 1.35412 6.84187 1.46102 8.01782 1.46102C9.15813 1.46102 11.6526 1.35412 12.7216 1.78174C13.3987 2.03118 13.9332 2.60134 14.2183 3.2784C14.6459 4.34744 14.539 6.84187 14.539 7.98218C14.539 9.15813 14.6459 11.6526 14.2183 12.686Z" fill="#000C21"/>
</svg>
