<svg width="80" height="80" viewBox="0 0 80 80" fill="none" xmlns="http://www.w3.org/2000/svg">
<rect opacity="0.1" width="80" height="80" rx="40" fill="#B3BAC5"/>
<path d="M30.9694 39.3068C30.6589 39.6211 30.1524 39.6243 29.838 39.3139C29.5237 39.0034 29.5205 38.4969 29.8309 38.1825C33.594 34.3718 35.8427 29.7165 36.5856 24.1914C36.6271 23.8832 36.8433 23.627 37.1401 23.5343C40.7417 22.41 42.7445 24.1576 42.7105 28.2591C42.7037 29.075 42.6663 29.8012 42.5866 30.9135C42.4038 33.4655 42.4181 34.151 42.7273 34.6625C43.0497 35.196 43.9918 35.3599 46.1077 34.9546C46.7551 34.8307 47.4041 34.6902 48.1227 34.5216C48.441 34.4469 50.7153 33.8871 51.2941 33.761C52.3876 33.5228 53.1686 33.4225 53.8462 33.4644C55.6336 33.575 56.5701 34.7212 56.7373 36.9903C57.0419 41.1235 56.098 49.4505 55.1608 52.5032C54.2218 55.5615 52.616 56.6936 48.6599 56.7638C46.0645 56.8098 42.0708 56.8098 36.664 56.7637C33.7337 56.6949 31.4079 55.5406 29.7583 53.3232C29.4946 52.9687 29.5681 52.4676 29.9226 52.2039C30.2771 51.9401 30.7783 52.0137 31.042 52.3682C32.3916 54.1822 34.2542 55.1067 36.6895 55.1639C42.0715 55.2098 46.0532 55.2098 48.6316 55.164C51.9147 55.1058 52.9017 54.41 53.6313 52.0336C54.5103 49.1705 55.4316 41.0426 55.1417 37.1079C55.0287 35.575 54.6549 35.1175 53.7474 35.0613C53.2522 35.0307 52.5951 35.1151 51.6346 35.3243C51.0809 35.4449 48.8251 36.0002 48.4882 36.0793C47.7496 36.2526 47.0796 36.3976 46.4087 36.5261C43.7032 37.0442 42.1321 36.7709 41.3579 35.4901C40.7893 34.5493 40.7741 33.8224 40.9907 30.7991C41.0682 29.7179 41.1041 29.0202 41.1105 28.2459C41.1344 25.3743 40.2484 24.4089 38.0963 24.9282C37.2375 30.567 34.8592 35.3677 30.9694 39.3068Z" fill="#184D47"/>
<path fill-rule="evenodd" clip-rule="evenodd" d="M28.8002 34.4004H25.6002C24.2747 34.4004 23.2002 35.4749 23.2002 36.8004V54.4004C23.2002 55.7259 24.2747 56.8004 25.6002 56.8004H28.8002C30.1257 56.8004 31.2002 55.7259 31.2002 54.4004V36.8004C31.2002 35.4749 30.1257 34.4004 28.8002 34.4004ZM24.8002 36.8004C24.8002 36.3586 25.1584 36.0004 25.6002 36.0004H28.8002C29.242 36.0004 29.6002 36.3586 29.6002 36.8004V54.4004C29.6002 54.8422 29.242 55.2004 28.8002 55.2004H25.6002C25.1584 55.2004 24.8002 54.8422 24.8002 54.4004V36.8004Z" fill="#184D47"/>
</svg>
