<svg width="16" height="16" viewBox="0 0 16 16" fill="none" xmlns="http://www.w3.org/2000/svg">
<path d="M0.571429 6.28571H15.4286C15.7143 6.28571 16 6.03571 16 5.71429V5.14286C16 4.85714 15.7143 4.57143 15.4286 4.57143H0.571429C0.25 4.57143 0 4.85714 0 5.14286V5.71429C0 6.03571 0.25 6.28571 0.571429 6.28571ZM15.4286 13.7143H0.571429C0.25 13.7143 0 14 0 14.2857V14.8571C0 15.1786 0.25 15.4286 0.571429 15.4286H15.4286C15.7143 15.4286 16 15.1786 16 14.8571V14.2857C16 14 15.7143 13.7143 15.4286 13.7143ZM15.5357 0H6.14286C5.89286 0 5.71429 0.214286 5.71429 0.464286V1.28571C5.71429 1.53571 5.89286 1.71429 6.14286 1.71429H15.5357C15.7857 1.71429 16 1.53571 16 1.28571V0.464286C16 0.214286 15.7857 0 15.5357 0ZM15.5357 9.14286H6.14286C5.89286 9.14286 5.71429 9.35714 5.71429 9.60714V10.4286C5.71429 10.6786 5.89286 10.8571 6.14286 10.8571H15.5357C15.7857 10.8571 16 10.6786 16 10.4286V9.60714C16 9.35714 15.7857 9.14286 15.5357 9.14286Z" fill="white"/>
</svg>
