<svg width="1194" height="41" viewBox="0 0 1194 41" fill="none" xmlns="http://www.w3.org/2000/svg">
<path fill-rule="evenodd" clip-rule="evenodd" d="M850.411 0L839.15 20.4088L850.411 40.8165H872.929L884.189 20.4088L872.929 0H850.411ZM851.435 20.4077L856.552 11.1337H866.783L871.9 20.4077L866.783 29.6808H856.552L851.435 20.4077ZM801.483 11.9037V14.1962H804.176V28.9096H806.505V14.1962H809.199V11.9037H801.483ZM817.394 28.9106H810.454V11.9037H817.394V14.1962H812.782V19.1891H816.799V21.4816H812.782V26.4745H817.394V28.9106ZM826.707 11.9037H824.24L822.46 16.9434L820.703 11.9037H818.238L821.274 20.0008L817.985 28.9106H820.453L822.46 23.1778L824.492 28.9106H826.957L823.601 20.0008L826.707 11.9037ZM829.763 14.1962H827.069V11.9037H834.786V14.1962H832.092V28.9106H829.763V14.1962ZM891.916 11.9037H889.587V28.9106H896.527V26.4745H891.916V11.9037ZM913.387 12.0237C913.85 12.1996 914.272 12.4535 914.653 12.7875C915.018 13.1382 915.315 13.5763 915.543 14.1019C915.772 14.6274 915.886 15.233 915.886 15.9167V16.7773H913.557V15.9167C913.557 15.3277 913.402 14.8938 913.09 14.6149C912.776 14.336 912.408 14.1966 911.982 14.1966C911.557 14.1966 911.188 14.336 910.875 14.6149C910.563 14.8938 910.407 15.3277 910.407 15.9167V24.8984C910.407 25.4874 910.563 25.9213 910.875 26.2002C911.188 26.4791 911.557 26.6185 911.982 26.6185C912.408 26.6185 912.776 26.4791 913.09 26.2002C913.402 25.9213 913.557 25.4874 913.557 24.8984V21.6984H911.708V19.5475H915.886V24.8984C915.886 25.6143 915.772 26.2283 915.543 26.7372C915.315 27.2481 915.018 27.6696 914.653 28.0036C914.272 28.3543 913.85 28.6165 913.387 28.7914C912.923 28.9672 912.454 29.0546 911.982 29.0546C911.511 29.0546 911.042 28.9672 910.578 28.7914C910.114 28.6165 909.701 28.3543 909.335 28.0036C908.955 27.6696 908.65 27.2481 908.422 26.7372C908.193 26.2283 908.079 25.6143 908.079 24.8984V15.9167C908.079 15.233 908.193 14.6274 908.422 14.1019C908.65 13.5763 908.955 13.1382 909.335 12.7875C909.701 12.4535 910.114 12.1996 910.578 12.0237C911.042 11.8489 911.511 11.7615 911.982 11.7615C912.454 11.7615 912.923 11.8489 913.387 12.0237ZM903.603 24.8968C903.603 25.4858 903.448 25.9198 903.135 26.1987C902.823 26.4786 902.454 26.617 902.028 26.617C901.603 26.617 901.234 26.4786 900.921 26.1987C900.608 25.9198 900.453 25.4858 900.453 24.8968V15.9152C900.453 15.3272 900.608 14.8933 900.921 14.6134C901.234 14.3355 901.603 14.1961 902.028 14.1961C902.454 14.1961 902.823 14.3355 903.135 14.6134C903.448 14.8933 903.603 15.3272 903.603 15.9152V24.8968ZM904.699 12.7875C904.318 12.4535 903.896 12.1996 903.432 12.0237C902.967 11.8489 902.5 11.7615 902.028 11.7615C901.555 11.7615 901.088 11.8489 900.624 12.0237C900.159 12.1996 899.746 12.4535 899.381 12.7875C899 13.1382 898.694 13.5763 898.468 14.1019C898.238 14.6274 898.124 15.233 898.124 15.9167V24.8984C898.124 25.6143 898.238 26.2283 898.468 26.7382C898.694 27.2481 899 27.6696 899.381 28.0036C899.746 28.3543 900.159 28.6165 900.624 28.7914C901.088 28.9672 901.555 29.0546 902.028 29.0546C902.5 29.0546 902.967 28.9672 903.432 28.7914C903.896 28.6165 904.318 28.3543 904.699 28.0036C905.064 27.6696 905.361 27.2481 905.588 26.7382C905.817 26.2283 905.932 25.6143 905.932 24.8984V15.9167C905.932 15.233 905.817 14.6274 905.588 14.1019C905.361 13.5763 905.064 13.1382 904.699 12.7875ZM923.042 26.1987C923.355 25.9198 923.51 25.4858 923.51 24.8968V15.9152C923.51 15.3272 923.355 14.8933 923.042 14.6134C922.729 14.3355 922.36 14.1961 921.935 14.1961C921.509 14.1961 921.14 14.3355 920.828 14.6134C920.515 14.8933 920.36 15.3272 920.36 15.9152V24.8968C920.36 25.4858 920.515 25.9198 920.828 26.1987C921.14 26.4786 921.509 26.617 921.935 26.617C922.36 26.617 922.729 26.4786 923.042 26.1987ZM924.605 12.7875C924.97 13.1382 925.268 13.5763 925.494 14.1019C925.724 14.6274 925.838 15.233 925.838 15.9167V24.8984C925.838 25.6143 925.724 26.2283 925.494 26.7382C925.268 27.2481 924.97 27.6696 924.605 28.0036C924.224 28.3543 923.803 28.6165 923.338 28.7914C922.874 28.9672 922.407 29.0546 921.934 29.0546C921.462 29.0546 920.995 28.9672 920.53 28.7914C920.066 28.6165 919.652 28.3543 919.287 28.0036C918.906 27.6696 918.601 27.2481 918.374 26.7382C918.144 26.2283 918.03 25.6143 918.03 24.8984V15.9167C918.03 15.233 918.144 14.6274 918.374 14.1019C918.601 13.5763 918.906 13.1382 919.287 12.7875C919.652 12.4535 920.066 12.1996 920.53 12.0237C920.995 11.8489 921.462 11.7615 921.934 11.7615C922.407 11.7615 922.874 11.8489 923.338 12.0237C923.803 12.1996 924.224 12.4535 924.605 12.7875Z" fill="#455387"/>
<path fill-rule="evenodd" clip-rule="evenodd" d="M1118.57 0L1107.31 20.4088L1118.57 40.8165H1141.09L1152.35 20.4088L1141.09 0H1118.57ZM1119.6 20.4077L1124.71 11.1337H1134.94L1140.06 20.4077L1134.94 29.6808H1124.71L1119.6 20.4077ZM1069.64 11.9037V14.1962H1072.34V28.9096H1074.67V14.1962H1077.36V11.9037H1069.64ZM1085.56 28.9106H1078.62V11.9037H1085.56V14.1962H1080.94V19.1891H1084.96V21.4816H1080.94V26.4745H1085.56V28.9106ZM1094.87 11.9037H1092.4L1090.62 16.9434L1088.86 11.9037H1086.4L1089.44 20.0008L1086.15 28.9106H1088.61L1090.62 23.1778L1092.65 28.9106H1095.12L1091.76 20.0008L1094.87 11.9037ZM1097.92 14.1962H1095.23V11.9037H1102.95V14.1962H1100.25V28.9106H1097.92V14.1962ZM1160.08 11.9037H1157.75V28.9106H1164.69V26.4745H1160.08V11.9037ZM1181.55 12.0237C1182.01 12.1996 1182.43 12.4535 1182.81 12.7875C1183.18 13.1382 1183.48 13.5763 1183.7 14.1019C1183.93 14.6274 1184.05 15.233 1184.05 15.9167V16.7773H1181.72V15.9167C1181.72 15.3277 1181.56 14.8938 1181.25 14.6149C1180.94 14.336 1180.57 14.1966 1180.14 14.1966C1179.72 14.1966 1179.35 14.336 1179.04 14.6149C1178.72 14.8938 1178.57 15.3277 1178.57 15.9167V24.8984C1178.57 25.4874 1178.72 25.9213 1179.04 26.2002C1179.35 26.4791 1179.72 26.6185 1180.14 26.6185C1180.57 26.6185 1180.94 26.4791 1181.25 26.2002C1181.56 25.9213 1181.72 25.4874 1181.72 24.8984V21.6984H1179.87V19.5475H1184.05V24.8984C1184.05 25.6143 1183.93 26.2283 1183.7 26.7372C1183.48 27.2481 1183.18 27.6696 1182.81 28.0036C1182.43 28.3543 1182.01 28.6165 1181.55 28.7914C1181.08 28.9672 1180.62 29.0546 1180.14 29.0546C1179.67 29.0546 1179.2 28.9672 1178.74 28.7914C1178.28 28.6165 1177.86 28.3543 1177.5 28.0036C1177.12 27.6696 1176.81 27.2481 1176.58 26.7372C1176.35 26.2283 1176.24 25.6143 1176.24 24.8984V15.9167C1176.24 15.233 1176.35 14.6274 1176.58 14.1019C1176.81 13.5763 1177.12 13.1382 1177.5 12.7875C1177.86 12.4535 1178.28 12.1996 1178.74 12.0237C1179.2 11.8489 1179.67 11.7615 1180.14 11.7615C1180.62 11.7615 1181.08 11.8489 1181.55 12.0237ZM1171.77 24.8968C1171.77 25.4858 1171.61 25.9198 1171.3 26.1987C1170.98 26.4786 1170.62 26.617 1170.19 26.617C1169.76 26.617 1169.4 26.4786 1169.08 26.1987C1168.77 25.9198 1168.61 25.4858 1168.61 24.8968V15.9152C1168.61 15.3272 1168.77 14.8933 1169.08 14.6134C1169.4 14.3355 1169.76 14.1961 1170.19 14.1961C1170.62 14.1961 1170.98 14.3355 1171.3 14.6134C1171.61 14.8933 1171.77 15.3272 1171.77 15.9152V24.8968ZM1172.86 12.7875C1172.48 12.4535 1172.06 12.1996 1171.59 12.0237C1171.13 11.8489 1170.66 11.7615 1170.19 11.7615C1169.72 11.7615 1169.25 11.8489 1168.79 12.0237C1168.32 12.1996 1167.91 12.4535 1167.54 12.7875C1167.16 13.1382 1166.86 13.5763 1166.63 14.1019C1166.4 14.6274 1166.29 15.233 1166.29 15.9167V24.8984C1166.29 25.6143 1166.4 26.2283 1166.63 26.7382C1166.86 27.2481 1167.16 27.6696 1167.54 28.0036C1167.91 28.3543 1168.32 28.6165 1168.79 28.7914C1169.25 28.9672 1169.72 29.0546 1170.19 29.0546C1170.66 29.0546 1171.13 28.9672 1171.59 28.7914C1172.06 28.6165 1172.48 28.3543 1172.86 28.0036C1173.23 27.6696 1173.52 27.2481 1173.75 26.7382C1173.98 26.2283 1174.09 25.6143 1174.09 24.8984V15.9167C1174.09 15.233 1173.98 14.6274 1173.75 14.1019C1173.52 13.5763 1173.23 13.1382 1172.86 12.7875ZM1191.2 26.1987C1191.52 25.9198 1191.67 25.4858 1191.67 24.8968V15.9152C1191.67 15.3272 1191.52 14.8933 1191.2 14.6134C1190.89 14.3355 1190.52 14.1961 1190.1 14.1961C1189.67 14.1961 1189.3 14.3355 1188.99 14.6134C1188.68 14.8933 1188.52 15.3272 1188.52 15.9152V24.8968C1188.52 25.4858 1188.68 25.9198 1188.99 26.1987C1189.3 26.4786 1189.67 26.617 1190.1 26.617C1190.52 26.617 1190.89 26.4786 1191.2 26.1987ZM1192.77 12.7875C1193.13 13.1382 1193.43 13.5763 1193.66 14.1019C1193.89 14.6274 1194 15.233 1194 15.9167V24.8984C1194 25.6143 1193.89 26.2283 1193.66 26.7382C1193.43 27.2481 1193.13 27.6696 1192.77 28.0036C1192.39 28.3543 1191.96 28.6165 1191.5 28.7914C1191.04 28.9672 1190.57 29.0546 1190.1 29.0546C1189.62 29.0546 1189.16 28.9672 1188.69 28.7914C1188.23 28.6165 1187.81 28.3543 1187.45 28.0036C1187.07 27.6696 1186.76 27.2481 1186.54 26.7382C1186.31 26.2283 1186.19 25.6143 1186.19 24.8984V15.9167C1186.19 15.233 1186.31 14.6274 1186.54 14.1019C1186.76 13.5763 1187.07 13.1382 1187.45 12.7875C1187.81 12.4535 1188.23 12.1996 1188.69 12.0237C1189.16 11.8489 1189.62 11.7615 1190.1 11.7615C1190.57 11.7615 1191.04 11.8489 1191.5 12.0237C1191.96 12.1996 1192.39 12.4535 1192.77 12.7875Z" fill="#455387"/>
<path fill-rule="evenodd" clip-rule="evenodd" d="M583.25 0L571.989 20.4088L583.25 40.8165H605.768L617.028 20.4088L605.768 0H583.25ZM584.274 20.4077L589.391 11.1337H599.622L604.739 20.4077L599.622 29.6808H589.391L584.274 20.4077ZM534.322 11.9037V14.1962H537.015V28.9096H539.344V14.1962H542.038V11.9037H534.322ZM550.233 28.9106H543.292V11.9037H550.233V14.1962H545.621V19.1891H549.638V21.4816H545.621V26.4745H550.233V28.9106ZM559.545 11.9037H557.079L555.299 16.9434L553.542 11.9037H551.077L554.113 20.0008L550.824 28.9106H553.292L555.299 23.1778L557.331 28.9106H559.796L556.44 20.0008L559.545 11.9037ZM562.602 14.1962H559.908V11.9037H567.625V14.1962H564.931V28.9106H562.602V14.1962ZM624.755 11.9037H622.426V28.9106H629.366V26.4745H624.755V11.9037ZM646.226 12.0237C646.689 12.1996 647.111 12.4535 647.492 12.7875C647.857 13.1382 648.154 13.5763 648.382 14.1019C648.611 14.6274 648.725 15.233 648.725 15.9167V16.7773H646.396V15.9167C646.396 15.3277 646.241 14.8938 645.929 14.6149C645.615 14.336 645.246 14.1966 644.821 14.1966C644.396 14.1966 644.027 14.336 643.714 14.6149C643.402 14.8938 643.246 15.3277 643.246 15.9167V24.8984C643.246 25.4874 643.402 25.9213 643.714 26.2002C644.027 26.4791 644.396 26.6185 644.821 26.6185C645.246 26.6185 645.615 26.4791 645.929 26.2002C646.241 25.9213 646.396 25.4874 646.396 24.8984V21.6984H644.547V19.5475H648.725V24.8984C648.725 25.6143 648.611 26.2283 648.382 26.7372C648.154 27.2481 647.857 27.6696 647.492 28.0036C647.111 28.3543 646.689 28.6165 646.226 28.7914C645.762 28.9672 645.293 29.0546 644.821 29.0546C644.349 29.0546 643.881 28.9672 643.417 28.7914C642.953 28.6165 642.54 28.3543 642.174 28.0036C641.794 27.6696 641.489 27.2481 641.261 26.7372C641.032 26.2283 640.918 25.6143 640.918 24.8984V15.9167C640.918 15.233 641.032 14.6274 641.261 14.1019C641.489 13.5763 641.794 13.1382 642.174 12.7875C642.54 12.4535 642.953 12.1996 643.417 12.0237C643.881 11.8489 644.349 11.7615 644.821 11.7615C645.293 11.7615 645.762 11.8489 646.226 12.0237ZM636.442 24.8968C636.442 25.4858 636.287 25.9198 635.974 26.1987C635.662 26.4786 635.293 26.617 634.867 26.617C634.442 26.617 634.073 26.4786 633.76 26.1987C633.447 25.9198 633.292 25.4858 633.292 24.8968V15.9152C633.292 15.3272 633.447 14.8933 633.76 14.6134C634.073 14.3355 634.442 14.1961 634.867 14.1961C635.293 14.1961 635.662 14.3355 635.974 14.6134C636.287 14.8933 636.442 15.3272 636.442 15.9152V24.8968ZM637.538 12.7875C637.157 12.4535 636.735 12.1996 636.271 12.0237C635.806 11.8489 635.339 11.7615 634.867 11.7615C634.394 11.7615 633.927 11.8489 633.462 12.0237C632.998 12.1996 632.584 12.4535 632.219 12.7875C631.839 13.1382 631.533 13.5763 631.307 14.1019C631.077 14.6274 630.962 15.233 630.962 15.9167V24.8984C630.962 25.6143 631.077 26.2283 631.307 26.7382C631.533 27.2481 631.839 27.6696 632.219 28.0036C632.584 28.3543 632.998 28.6165 633.462 28.7914C633.927 28.9672 634.394 29.0546 634.867 29.0546C635.339 29.0546 635.806 28.9672 636.271 28.7914C636.735 28.6165 637.157 28.3543 637.538 28.0036C637.903 27.6696 638.2 27.2481 638.427 26.7382C638.656 26.2283 638.771 25.6143 638.771 24.8984V15.9167C638.771 15.233 638.656 14.6274 638.427 14.1019C638.2 13.5763 637.903 13.1382 637.538 12.7875ZM655.881 26.1987C656.194 25.9198 656.349 25.4858 656.349 24.8968V15.9152C656.349 15.3272 656.194 14.8933 655.881 14.6134C655.568 14.3355 655.199 14.1961 654.774 14.1961C654.348 14.1961 653.979 14.3355 653.667 14.6134C653.354 14.8933 653.199 15.3272 653.199 15.9152V24.8968C653.199 25.4858 653.354 25.9198 653.667 26.1987C653.979 26.4786 654.348 26.617 654.774 26.617C655.199 26.617 655.568 26.4786 655.881 26.1987ZM657.444 12.7875C657.809 13.1382 658.106 13.5763 658.333 14.1019C658.563 14.6274 658.677 15.233 658.677 15.9167V24.8984C658.677 25.6143 658.563 26.2283 658.333 26.7382C658.106 27.2481 657.809 27.6696 657.444 28.0036C657.063 28.3543 656.642 28.6165 656.177 28.7914C655.713 28.9672 655.246 29.0546 654.773 29.0546C654.301 29.0546 653.833 28.9672 653.369 28.7914C652.905 28.6165 652.491 28.3543 652.126 28.0036C651.745 27.6696 651.44 27.2481 651.213 26.7382C650.983 26.2283 650.869 25.6143 650.869 24.8984V15.9167C650.869 15.233 650.983 14.6274 651.213 14.1019C651.44 13.5763 651.745 13.1382 652.126 12.7875C652.491 12.4535 652.905 12.1996 653.369 12.0237C653.833 11.8489 654.301 11.7615 654.773 11.7615C655.246 11.7615 655.713 11.8489 656.177 12.0237C656.642 12.1996 657.063 12.4535 657.444 12.7875Z" fill="#455387"/>
<path fill-rule="evenodd" clip-rule="evenodd" d="M316.089 0L304.828 20.4088L316.089 40.8165H338.606L349.867 20.4088L338.606 0H316.089ZM317.112 20.4077L322.23 11.1337H332.46L337.578 20.4077L332.46 29.6808H322.23L317.112 20.4077ZM267.161 11.9037V14.1962H269.854V28.9096H272.183V14.1962H274.877V11.9037H267.161ZM283.071 28.9106H276.131V11.9037H283.071V14.1962H278.46V19.1891H282.477V21.4816H278.46V26.4745H283.071V28.9106ZM292.384 11.9037H289.918L288.138 16.9434L286.381 11.9037H283.916L286.952 20.0008L283.663 28.9106H286.13L288.138 23.1778L290.17 28.9106H292.635L289.279 20.0008L292.384 11.9037ZM295.441 14.1962H292.747V11.9037H300.464V14.1962H297.77V28.9106H295.441V14.1962ZM357.594 11.9037H355.265V28.9106H362.205V26.4745H357.594V11.9037ZM379.065 12.0237C379.528 12.1996 379.95 12.4535 380.331 12.7875C380.696 13.1382 380.993 13.5763 381.221 14.1019C381.45 14.6274 381.564 15.233 381.564 15.9167V16.7773H379.235V15.9167C379.235 15.3277 379.08 14.8938 378.768 14.6149C378.454 14.336 378.085 14.1966 377.66 14.1966C377.235 14.1966 376.866 14.336 376.553 14.6149C376.241 14.8938 376.085 15.3277 376.085 15.9167V24.8984C376.085 25.4874 376.241 25.9213 376.553 26.2002C376.866 26.4791 377.235 26.6185 377.66 26.6185C378.085 26.6185 378.454 26.4791 378.768 26.2002C379.08 25.9213 379.235 25.4874 379.235 24.8984V21.6984H377.386V19.5475H381.564V24.8984C381.564 25.6143 381.45 26.2283 381.221 26.7372C380.993 27.2481 380.696 27.6696 380.331 28.0036C379.95 28.3543 379.528 28.6165 379.065 28.7914C378.6 28.9672 378.132 29.0546 377.66 29.0546C377.188 29.0546 376.72 28.9672 376.256 28.7914C375.792 28.6165 375.379 28.3543 375.013 28.0036C374.633 27.6696 374.327 27.2481 374.1 26.7372C373.871 26.2283 373.757 25.6143 373.757 24.8984V15.9167C373.757 15.233 373.871 14.6274 374.1 14.1019C374.327 13.5763 374.633 13.1382 375.013 12.7875C375.379 12.4535 375.792 12.1996 376.256 12.0237C376.72 11.8489 377.188 11.7615 377.66 11.7615C378.132 11.7615 378.6 11.8489 379.065 12.0237ZM369.281 24.8968C369.281 25.4858 369.126 25.9198 368.813 26.1987C368.501 26.4786 368.132 26.617 367.706 26.617C367.28 26.617 366.912 26.4786 366.599 26.1987C366.286 25.9198 366.131 25.4858 366.131 24.8968V15.9152C366.131 15.3272 366.286 14.8933 366.599 14.6134C366.912 14.3355 367.28 14.1961 367.706 14.1961C368.132 14.1961 368.501 14.3355 368.813 14.6134C369.126 14.8933 369.281 15.3272 369.281 15.9152V24.8968ZM370.377 12.7875C369.996 12.4535 369.574 12.1996 369.11 12.0237C368.645 11.8489 368.178 11.7615 367.706 11.7615C367.233 11.7615 366.766 11.8489 366.301 12.0237C365.837 12.1996 365.423 12.4535 365.058 12.7875C364.677 13.1382 364.372 13.5763 364.145 14.1019C363.916 14.6274 363.801 15.233 363.801 15.9167V24.8984C363.801 25.6143 363.916 26.2283 364.145 26.7382C364.372 27.2481 364.677 27.6696 365.058 28.0036C365.423 28.3543 365.837 28.6165 366.301 28.7914C366.766 28.9672 367.233 29.0546 367.706 29.0546C368.178 29.0546 368.645 28.9672 369.11 28.7914C369.574 28.6165 369.996 28.3543 370.377 28.0036C370.742 27.6696 371.039 27.2481 371.266 26.7382C371.495 26.2283 371.61 25.6143 371.61 24.8984V15.9167C371.61 15.233 371.495 14.6274 371.266 14.1019C371.039 13.5763 370.742 13.1382 370.377 12.7875ZM388.719 26.1987C389.033 25.9198 389.188 25.4858 389.188 24.8968V15.9152C389.188 15.3272 389.033 14.8933 388.719 14.6134C388.407 14.3355 388.038 14.1961 387.613 14.1961C387.187 14.1961 386.818 14.3355 386.506 14.6134C386.193 14.8933 386.037 15.3272 386.037 15.9152V24.8968C386.037 25.4858 386.193 25.9198 386.506 26.1987C386.818 26.4786 387.187 26.617 387.613 26.617C388.038 26.617 388.407 26.4786 388.719 26.1987ZM390.283 12.7875C390.648 13.1382 390.945 13.5763 391.172 14.1019C391.402 14.6274 391.516 15.233 391.516 15.9167V24.8984C391.516 25.6143 391.402 26.2283 391.172 26.7382C390.945 27.2481 390.648 27.6696 390.283 28.0036C389.902 28.3543 389.481 28.6165 389.016 28.7914C388.552 28.9672 388.084 29.0546 387.612 29.0546C387.14 29.0546 386.672 28.9672 386.208 28.7914C385.744 28.6165 385.33 28.3543 384.965 28.0036C384.584 27.6696 384.279 27.2481 384.052 26.7382C383.822 26.2283 383.708 25.6143 383.708 24.8984V15.9167C383.708 15.233 383.822 14.6274 384.052 14.1019C384.279 13.5763 384.584 13.1382 384.965 12.7875C385.33 12.4535 385.744 12.1996 386.208 12.0237C386.672 11.8489 387.14 11.7615 387.612 11.7615C388.084 11.7615 388.552 11.8489 389.016 12.0237C389.481 12.1996 389.902 12.4535 390.283 12.7875Z" fill="#455387"/>
<path fill-rule="evenodd" clip-rule="evenodd" d="M48.9275 0L37.6666 20.4088L48.9275 40.8165H71.4453L82.7062 20.4088L71.4453 0H48.9275ZM49.9514 20.4077L55.0687 11.1337H65.2994L70.4167 20.4077L65.2994 29.6808H55.0687L49.9514 20.4077ZM0 11.9037V14.1962H2.69291V28.9096H5.02186V14.1962H7.71576V11.9037H0ZM15.9104 28.9106H8.97025V11.9037H15.9104V14.1962H11.2992V19.1891H15.3157V21.4816H11.2992V26.4745H15.9104V28.9106ZM25.2233 11.9037H22.7571L20.9771 16.9434L19.2199 11.9037H16.7547L19.7907 20.0008L16.5021 28.9106H18.9693L20.9771 23.1778L23.0087 28.9106H25.4739L22.1177 20.0008L25.2233 11.9037ZM28.2796 14.1962H25.5857V11.9037H33.3025V14.1962H30.6086V28.9106H28.2796V14.1962ZM90.4329 11.9037H88.1039V28.9106H95.044V26.4745H90.4329V11.9037ZM111.904 12.0237C112.367 12.1996 112.789 12.4535 113.17 12.7875C113.535 13.1382 113.832 13.5763 114.06 14.1019C114.288 14.6274 114.403 15.233 114.403 15.9167V16.7773H112.074V15.9167C112.074 15.3277 111.919 14.8938 111.606 14.6149C111.293 14.336 110.924 14.1966 110.499 14.1966C110.074 14.1966 109.705 14.336 109.392 14.6149C109.08 14.8938 108.923 15.3277 108.923 15.9167V24.8984C108.923 25.4874 109.08 25.9213 109.392 26.2002C109.705 26.4791 110.074 26.6185 110.499 26.6185C110.924 26.6185 111.293 26.4791 111.606 26.2002C111.919 25.9213 112.074 25.4874 112.074 24.8984V21.6984H110.225V19.5475H114.403V24.8984C114.403 25.6143 114.288 26.2283 114.06 26.7372C113.832 27.2481 113.535 27.6696 113.17 28.0036C112.789 28.3543 112.367 28.6165 111.904 28.7914C111.439 28.9672 110.971 29.0546 110.499 29.0546C110.027 29.0546 109.559 28.9672 109.095 28.7914C108.631 28.6165 108.217 28.3543 107.851 28.0036C107.472 27.6696 107.166 27.2481 106.939 26.7372C106.71 26.2283 106.596 25.6143 106.596 24.8984V15.9167C106.596 15.233 106.71 14.6274 106.939 14.1019C107.166 13.5763 107.472 13.1382 107.851 12.7875C108.217 12.4535 108.631 12.1996 109.095 12.0237C109.559 11.8489 110.027 11.7615 110.499 11.7615C110.971 11.7615 111.439 11.8489 111.904 12.0237ZM102.12 24.8968C102.12 25.4858 101.965 25.9198 101.652 26.1987C101.34 26.4786 100.971 26.617 100.545 26.617C100.119 26.617 99.7505 26.4786 99.4382 26.1987C99.125 25.9198 98.9698 25.4858 98.9698 24.8968V15.9152C98.9698 15.3272 99.125 14.8933 99.4382 14.6134C99.7505 14.3355 100.119 14.1961 100.545 14.1961C100.971 14.1961 101.34 14.3355 101.652 14.6134C101.965 14.8933 102.12 15.3272 102.12 15.9152V24.8968ZM103.215 12.7875C102.835 12.4535 102.413 12.1996 101.949 12.0237C101.484 11.8489 101.017 11.7615 100.544 11.7615C100.072 11.7615 99.6047 11.8489 99.1403 12.0237C98.6759 12.1996 98.2622 12.4535 97.8973 12.7875C97.5164 13.1382 97.2111 13.5763 96.9844 14.1019C96.7547 14.6274 96.6403 15.233 96.6403 15.9167V24.8984C96.6403 25.6143 96.7547 26.2283 96.9844 26.7382C97.2111 27.2481 97.5164 27.6696 97.8973 28.0036C98.2622 28.3543 98.6759 28.6165 99.1403 28.7914C99.6047 28.9672 100.072 29.0546 100.544 29.0546C101.017 29.0546 101.484 28.9672 101.949 28.7914C102.413 28.6165 102.835 28.3543 103.215 28.0036C103.58 27.6696 103.878 27.2481 104.104 26.7382C104.334 26.2283 104.449 25.6143 104.449 24.8984V15.9167C104.449 15.233 104.334 14.6274 104.104 14.1019C103.878 13.5763 103.58 13.1382 103.215 12.7875ZM121.558 26.1987C121.872 25.9198 122.027 25.4858 122.027 24.8968V15.9152C122.027 15.3272 121.872 14.8933 121.558 14.6134C121.246 14.3355 120.877 14.1961 120.452 14.1961C120.026 14.1961 119.657 14.3355 119.345 14.6134C119.031 14.8933 118.876 15.3272 118.876 15.9152V24.8968C118.876 25.4858 119.031 25.9198 119.345 26.1987C119.657 26.4786 120.026 26.617 120.452 26.617C120.877 26.617 121.246 26.4786 121.558 26.1987ZM123.122 12.7875C123.487 13.1382 123.784 13.5763 124.011 14.1019C124.241 14.6274 124.355 15.233 124.355 15.9167V24.8984C124.355 25.6143 124.241 26.2283 124.011 26.7382C123.784 27.2481 123.487 27.6696 123.122 28.0036C122.741 28.3543 122.319 28.6165 121.855 28.7914C121.391 28.9672 120.923 29.0546 120.451 29.0546C119.979 29.0546 119.511 28.9672 119.047 28.7914C118.582 28.6165 118.169 28.3543 117.804 28.0036C117.423 27.6696 117.118 27.2481 116.891 26.7382C116.661 26.2283 116.547 25.6143 116.547 24.8984V15.9167C116.547 15.233 116.661 14.6274 116.891 14.1019C117.118 13.5763 117.423 13.1382 117.804 12.7875C118.169 12.4535 118.582 12.1996 119.047 12.0237C119.511 11.8489 119.979 11.7615 120.451 11.7615C120.923 11.7615 121.391 11.8489 121.855 12.0237C122.319 12.1996 122.741 12.4535 123.122 12.7875Z" fill="#455387"/>
</svg>
