<svg width="28" height="28" viewBox="0 0 28 28" fill="none" xmlns="http://www.w3.org/2000/svg">
<path d="M22.1673 5.83301H21.0007V3.49967C21.0007 3.19026 20.8777 2.89351 20.6589 2.67472C20.4402 2.45592 20.1434 2.33301 19.834 2.33301C19.5246 2.33301 19.2278 2.45592 19.009 2.67472C18.7902 2.89351 18.6673 3.19026 18.6673 3.49967V5.83301H9.33398V3.49967C9.33398 3.19026 9.21107 2.89351 8.99228 2.67472C8.77348 2.45592 8.47674 2.33301 8.16732 2.33301C7.8579 2.33301 7.56115 2.45592 7.34236 2.67472C7.12357 2.89351 7.00065 3.19026 7.00065 3.49967V5.83301H5.83398C4.90573 5.83301 4.01549 6.20176 3.35911 6.85813C2.70273 7.51451 2.33398 8.40475 2.33398 9.33301V10.4997H25.6673V9.33301C25.6673 8.40475 25.2986 7.51451 24.6422 6.85813C23.9858 6.20176 23.0956 5.83301 22.1673 5.83301Z" fill="white"/>
<path d="M2.33398 22.1663C2.33398 23.0946 2.70273 23.9848 3.35911 24.6412C4.01549 25.2976 4.90573 25.6663 5.83398 25.6663H22.1673C23.0956 25.6663 23.9858 25.2976 24.6422 24.6412C25.2986 23.9848 25.6673 23.0946 25.6673 22.1663V12.833H2.33398V22.1663Z" fill="white"/>
</svg>
