<svg width="51" height="51" viewBox="0 0 51 51" fill="none" xmlns="http://www.w3.org/2000/svg">
<path d="M3.1875 1.59375C3.1875 2.47395 2.47395 3.1875 1.59375 3.1875C0.713546 3.1875 0 2.47395 0 1.59375C0 0.713546 0.713546 0 1.59375 0C2.47395 0 3.1875 0.713546 3.1875 1.59375Z" fill="white" fill-opacity="0.39"/>
<path d="M19.125 1.59375C19.125 2.47395 18.4115 3.1875 17.5312 3.1875C16.651 3.1875 15.9375 2.47395 15.9375 1.59375C15.9375 0.713546 16.651 0 17.5312 0C18.4115 0 19.125 0.713546 19.125 1.59375Z" fill="white" fill-opacity="0.39"/>
<path d="M35.0625 1.59375C35.0625 2.47395 34.349 3.1875 33.4687 3.1875C32.5885 3.1875 31.875 2.47395 31.875 1.59375C31.875 0.713546 32.5885 0 33.4687 0C34.349 0 35.0625 0.713546 35.0625 1.59375Z" fill="white" fill-opacity="0.39"/>
<path d="M51 1.59375C51 2.47395 50.2865 3.1875 49.4062 3.1875C48.526 3.1875 47.8125 2.47395 47.8125 1.59375C47.8125 0.713546 48.526 0 49.4062 0C50.2865 0 51 0.713546 51 1.59375Z" fill="white" fill-opacity="0.39"/>
<path d="M3.1875 17.5312C3.1875 18.4115 2.47395 19.125 1.59375 19.125C0.713546 19.125 0 18.4115 0 17.5312C0 16.651 0.713546 15.9375 1.59375 15.9375C2.47395 15.9375 3.1875 16.651 3.1875 17.5312Z" fill="white" fill-opacity="0.39"/>
<path d="M19.125 17.5312C19.125 18.4115 18.4115 19.125 17.5312 19.125C16.651 19.125 15.9375 18.4115 15.9375 17.5312C15.9375 16.651 16.651 15.9375 17.5312 15.9375C18.4115 15.9375 19.125 16.651 19.125 17.5312Z" fill="white" fill-opacity="0.39"/>
<path d="M35.0625 17.5312C35.0625 18.4115 34.349 19.125 33.4687 19.125C32.5885 19.125 31.875 18.4115 31.875 17.5312C31.875 16.651 32.5885 15.9375 33.4687 15.9375C34.349 15.9375 35.0625 16.651 35.0625 17.5312Z" fill="white" fill-opacity="0.39"/>
<path d="M51 17.5312C51 18.4115 50.2865 19.125 49.4062 19.125C48.526 19.125 47.8125 18.4115 47.8125 17.5312C47.8125 16.651 48.526 15.9375 49.4062 15.9375C50.2865 15.9375 51 16.651 51 17.5312Z" fill="white" fill-opacity="0.39"/>
<path d="M3.1875 33.4687C3.1875 34.349 2.47395 35.0625 1.59375 35.0625C0.713546 35.0625 0 34.349 0 33.4687C0 32.5885 0.713546 31.875 1.59375 31.875C2.47395 31.875 3.1875 32.5885 3.1875 33.4687Z" fill="white" fill-opacity="0.39"/>
<path d="M19.125 33.4687C19.125 34.349 18.4115 35.0625 17.5312 35.0625C16.651 35.0625 15.9375 34.349 15.9375 33.4687C15.9375 32.5885 16.651 31.875 17.5312 31.875C18.4115 31.875 19.125 32.5885 19.125 33.4687Z" fill="white" fill-opacity="0.39"/>
<path d="M35.0625 33.4687C35.0625 34.349 34.349 35.0625 33.4687 35.0625C32.5885 35.0625 31.875 34.349 31.875 33.4687C31.875 32.5885 32.5885 31.875 33.4687 31.875C34.349 31.875 35.0625 32.5885 35.0625 33.4687Z" fill="white" fill-opacity="0.39"/>
<path d="M51 33.4687C51 34.349 50.2865 35.0625 49.4062 35.0625C48.526 35.0625 47.8125 34.349 47.8125 33.4687C47.8125 32.5885 48.526 31.875 49.4062 31.875C50.2865 31.875 51 32.5885 51 33.4687Z" fill="white" fill-opacity="0.39"/>
<path d="M3.1875 49.4062C3.1875 50.2865 2.47395 51 1.59375 51C0.713546 51 0 50.2865 0 49.4062C0 48.526 0.713546 47.8125 1.59375 47.8125C2.47395 47.8125 3.1875 48.526 3.1875 49.4062Z" fill="white" fill-opacity="0.39"/>
<path d="M19.125 49.4062C19.125 50.2865 18.4115 51 17.5312 51C16.651 51 15.9375 50.2865 15.9375 49.4062C15.9375 48.526 16.651 47.8125 17.5312 47.8125C18.4115 47.8125 19.125 48.526 19.125 49.4062Z" fill="white" fill-opacity="0.39"/>
<path d="M35.0625 49.4062C35.0625 50.2865 34.349 51 33.4687 51C32.5885 51 31.875 50.2865 31.875 49.4062C31.875 48.526 32.5885 47.8125 33.4687 47.8125C34.349 47.8125 35.0625 48.526 35.0625 49.4062Z" fill="white" fill-opacity="0.39"/>
<path d="M51 49.4062C51 50.2865 50.2865 51 49.4062 51C48.526 51 47.8125 50.2865 47.8125 49.4062C47.8125 48.526 48.526 47.8125 49.4062 47.8125C50.2865 47.8125 51 48.526 51 49.4062Z" fill="white" fill-opacity="0.39"/>
</svg>
