<svg width="16" height="22" viewBox="0 0 16 22" fill="none" xmlns="http://www.w3.org/2000/svg">
<path fill-rule="evenodd" clip-rule="evenodd" d="M16 8.37313C16 3.74878 12.4183 0 8 0C3.58172 0 0 3.74878 0 8.37313V13.6269C0 18.2512 3.58172 22 8 22C12.4183 22 16 18.2512 16 13.6269V8.37313ZM1.8 8.37313C1.8 4.725 4.59465 1.8 8 1.8C11.4053 1.8 14.2 4.725 14.2 8.37313V13.6269C14.2 17.275 11.4053 20.2 8 20.2C4.59465 20.2 1.8 17.275 1.8 13.6269V8.37313ZM6.58824 15.9608V13.0952C6.58824 12.3038 7.2203 11.6623 8 11.6623C8.7797 11.6623 9.41177 12.3038 9.41177 13.0952V15.9608C9.41177 16.7522 8.7797 17.3937 8 17.3937C7.2203 17.3937 6.58824 16.7522 6.58824 15.9608Z" fill="#23272B"/>
</svg>
