<svg width="72" height="72" viewBox="0 0 72 72" fill="none" xmlns="http://www.w3.org/2000/svg">
<circle cx="36" cy="36" r="36" fill="white"/>
<path fill-rule="evenodd" clip-rule="evenodd" d="M36.0793 22.6665C38.906 25.4932 40.4127 29.1198 40.6527 32.8398C38.946 33.7598 37.3727 34.9332 35.9993 36.3465C34.626 34.9198 33.0527 33.7465 31.346 32.8398C31.6527 29.1465 33.226 25.5198 36.0793 22.6665ZM37.7993 31.4265C37.4927 29.8265 36.906 28.2932 36.066 26.9198C35.186 28.3065 34.5727 29.8398 34.2393 31.4398C34.8527 31.8398 35.4527 32.2798 36.0127 32.7332C36.586 32.2665 37.1727 31.8265 37.7993 31.4265ZM35.9993 40.5998C34.906 38.9332 33.5193 37.4798 31.9193 36.3332C31.8466 36.2828 31.7716 36.2372 31.6961 36.1913L31.6961 36.1913L31.6961 36.1913C31.5917 36.1278 31.4866 36.0639 31.386 35.9865C31.4841 36.0544 31.5865 36.1181 31.6859 36.1799L31.6859 36.1799C31.7621 36.2273 31.8366 36.2736 31.906 36.3198C29.306 34.4398 26.1193 33.3332 22.666 33.3332C22.666 40.4265 27.146 46.4265 33.3727 48.6532C34.2127 48.9598 35.0927 49.1865 35.9993 49.3332C36.906 49.1732 37.7727 48.9465 38.626 48.6532C44.8527 46.4265 49.3327 40.4265 49.3327 33.3332C43.7593 33.3332 38.866 36.2265 35.9993 40.5998ZM35.986 46.6265C36.586 46.4932 37.1727 46.3332 37.7593 46.1332C42.1193 44.5732 45.3193 40.8265 46.3193 36.3332C44.7993 36.6932 43.346 37.3332 42.0393 38.1998L42.0527 38.2265C41.9327 38.3065 41.8127 38.3865 41.6927 38.4532L41.5993 38.5198C40.2927 39.4665 39.146 40.6665 38.226 42.0665L35.9993 45.4665L33.7727 42.0532C32.8793 40.6665 31.746 39.4798 30.426 38.5198L30.3327 38.4665C30.1593 38.3732 29.986 38.2532 29.8127 38.1332L29.8393 38.1198C28.546 37.2932 27.146 36.6932 25.6793 36.3465C26.6793 40.8265 29.8927 44.5732 34.2793 46.1465C34.826 46.3465 35.3993 46.5065 35.986 46.6265Z" fill="#132A73"/>
</svg>
