<svg width="24" height="24" viewBox="0 0 24 24" fill="none" xmlns="http://www.w3.org/2000/svg">
<path d="M11.9997 14.9999C11.8681 15.0007 11.7376 14.9755 11.6158 14.9257C11.494 14.8759 11.3831 14.8026 11.2897 14.7099L7.2897 10.7099C7.10139 10.5216 6.99561 10.2662 6.99561 9.99994C6.99561 9.73364 7.10139 9.47824 7.2897 9.28994C7.478 9.10164 7.7334 8.99585 7.9997 8.99585C8.266 8.99585 8.52139 9.10164 8.7097 9.28994L11.9997 12.5899L15.2897 9.29994C15.481 9.13611 15.7271 9.05051 15.9788 9.06023C16.2304 9.06995 16.4692 9.17428 16.6473 9.35238C16.8254 9.53047 16.9297 9.76921 16.9394 10.0209C16.9491 10.2726 16.8635 10.5186 16.6997 10.7099L12.6997 14.7099C12.5134 14.8947 12.262 14.9988 11.9997 14.9999Z" fill="#9F9F9F"/>
</svg>
