<svg width="20" height="20" viewBox="0 0 20 20" fill="none" xmlns="http://www.w3.org/2000/svg">
<path d="M10 0C4.47581 0 0 4.47581 0 10C0 15.5242 4.47581 20 10 20C15.5242 20 20 15.5242 20 10C20 4.47581 15.5242 0 10 0ZM13.7097 12.621L12.9032 13.629C12.7823 13.7903 12.621 13.9113 12.379 13.9113C12.2581 13.9113 12.0968 13.8306 12.0161 13.75L9.31452 11.7339C8.91129 11.4516 8.70968 11.0081 8.70968 10.4839V4.19355C8.70968 3.87097 8.99194 3.54839 9.35484 3.54839H10.6452C10.9677 3.54839 11.2903 3.87097 11.2903 4.19355V10L13.629 11.7339C13.75 11.8548 13.871 12.0161 13.871 12.2177C13.871 12.379 13.7903 12.5403 13.7097 12.621Z" fill="#03C4A1"/>
</svg>
