<svg width="28" height="28" viewBox="0 0 28 28" fill="none" xmlns="http://www.w3.org/2000/svg">
<path d="M14.8203 7.35156V13.5392L20.1754 16.6387C20.52 15.8316 20.7109 14.9439 20.7109 14.0123C20.7109 10.5895 18.1352 7.7574 14.8203 7.35156Z" fill="#96A0AF"/>
<path d="M19.3512 18.0572L14.0006 14.9603L8.6543 18.0643C9.88099 19.6787 11.8207 20.7231 14 20.7231C16.1825 20.7231 18.1248 19.6756 19.3512 18.0572V18.0572Z" fill="#96A0AF"/>
<path d="M7.22768 9.13157C8.74591 7.03064 11.216 5.66072 14.0004 5.66072C16.7888 5.66072 19.262 7.03458 20.7797 9.14065L25.6888 6.29936C25.1728 5.52089 24.5754 4.78824 23.8999 4.11274C21.2556 1.46849 17.7399 0.0122681 14.0004 0.0122681C10.2609 0.0122681 6.74517 1.46849 4.10087 4.11274C3.42991 4.7837 2.83584 5.51104 2.32227 6.28361L7.22768 9.13157Z" fill="#96A0AF"/>
<path d="M26.513 7.71771L21.6036 10.5592C22.0837 11.6121 22.3515 12.7814 22.3515 14.0122C22.3515 18.3405 19.0418 21.91 14.8203 22.3235V27.9878C18.2514 27.7909 21.4495 26.3617 23.8995 23.9118C26.5438 21.2675 28 17.7518 28 14.0122C28 11.7896 27.4855 9.64621 26.513 7.71771V7.71771Z" fill="#96A0AF"/>
<path d="M13.1797 22.3235C8.9582 21.91 5.64845 18.3406 5.64845 14.0123C5.64845 12.7775 5.91806 11.6047 6.40106 10.5491L1.49559 7.70111C0.517672 9.63393 0 11.7833 0 14.0123C0 17.7519 1.45627 21.2675 4.10047 23.9119C6.55041 26.3618 9.74865 27.7909 13.1797 27.9879V22.3235Z" fill="#96A0AF"/>
<path d="M7.28906 14.0123C7.28906 14.947 7.4814 15.8376 7.82817 16.6469L13.1797 13.5399V7.3515C9.86479 7.75739 7.28906 10.5895 7.28906 14.0123Z" fill="#96A0AF"/>
</svg>
