<svg width="48" height="36" viewBox="0 0 48 36" fill="none" xmlns="http://www.w3.org/2000/svg">
<path d="M18.281 13.8711C18.281 12.8355 19.1204 11.9961 20.156 11.9961H35.3438C36.3794 11.9961 37.2188 12.8355 37.2188 13.8711C37.2188 14.9066 36.3794 15.7461 35.3438 15.7461H20.156C19.1204 15.7461 18.281 14.9066 18.281 13.8711V13.8711ZM44.25 13.8711C44.25 14.9049 45.0911 15.7461 46.125 15.7461C47.1606 15.7461 48 16.5855 48 17.6211V25.8671C48 26.9027 47.1606 27.7421 46.125 27.7421H32.2766L25.3258 34.693C24.5935 35.4253 23.4063 35.4251 22.6742 34.693L15.7234 27.7421H1.875C0.839438 27.7421 0 26.9027 0 25.8671V17.6211C0 16.5855 0.839438 15.7461 1.875 15.7461C2.90887 15.7461 3.75 14.9049 3.75 13.8711C3.75 12.8372 2.90887 11.9961 1.875 11.9961C0.839438 11.9961 0 11.1566 0 10.1211V1.875C0 0.839438 0.839438 0 1.875 0H46.125C47.1606 0 48 0.839438 48 1.875V10.1211C48 11.1566 47.1606 11.9961 46.125 11.9961C45.0911 11.9961 44.25 12.8372 44.25 13.8711V13.8711ZM11.2498 3.75H3.75V8.56734C5.93259 9.34125 7.5 11.4265 7.5 13.8711C7.5 16.3156 5.93259 18.4009 3.75 19.1748V23.9921H11.2498V3.75ZM44.25 3.75H14.9998V23.9921H16.5C16.9972 23.9921 17.4742 24.1897 17.8258 24.5412L24 30.7155L30.1742 24.5413C30.5258 24.1898 31.0028 23.9922 31.5 23.9922H44.25V19.1749C42.0674 18.401 40.5 16.3157 40.5 13.8712C40.5 11.4266 42.0674 9.34134 44.25 8.56744V3.75Z" fill="white"/>
</svg>
