<svg width="211" height="87" viewBox="0 0 211 87" fill="none" xmlns="http://www.w3.org/2000/svg">
<path d="M21.9805 38.061V44.101C24.0662 44.0995 26.1317 44.5051 28.0589 45.2944C29.986 46.0838 31.737 47.2414 33.2115 48.7011C34.6857 50.1602 35.8549 51.8926 36.6521 53.7992C37.4492 55.7058 37.8589 57.7491 37.8575 59.8125H43.9567C43.9512 54.046 41.6342 48.5173 37.5142 44.4394C33.3942 40.3615 27.8076 38.0676 21.9805 38.061H21.9805Z" fill="black"/>
<path d="M52.4823 27.1875H42.8164C47.7062 30.2539 51.8495 34.3534 54.9489 39.1918V29.6266C54.9484 28.9796 54.6884 28.3592 54.2259 27.9018C53.7633 27.4444 53.1362 27.1875 52.4823 27.1875V27.1875Z" fill="black"/>
<path d="M28.0537 27.1875H21.9805V32.6256C29.2646 32.6331 36.2483 35.4998 41.399 40.5967C46.5498 45.6936 49.4469 52.6043 49.4547 59.8125H54.9492V53.8026C53.7069 47.1974 50.4724 41.1193 45.6716 36.3684C40.8707 31.6176 34.7285 28.4168 28.0537 27.1875V27.1875Z" fill="black"/>
<path d="M69.8986 30.7788H66.0273V50.0877H69.8986V30.7788Z" fill="black"/>
<path d="M84.1319 39.1446C83.4875 38.5649 82.7331 38.1175 81.9126 37.8285C80.1501 37.216 78.2292 37.216 76.4667 37.8285C75.6458 38.1173 74.8912 38.5647 74.2465 39.1446C73.6143 39.7214 73.1092 40.4211 72.7629 41.2C72.405 42.0497 72.2207 42.9611 72.2207 43.8817C72.2207 44.8023 72.405 45.7137 72.7629 46.5634C73.1079 47.3445 73.6131 48.0462 74.2465 48.6239C74.89 49.2043 75.6443 49.6515 76.465 49.9392C78.2273 50.5528 80.1485 50.5528 81.9109 49.9392C82.7318 49.6515 83.4863 49.2043 84.1302 48.6239C84.7633 48.0459 85.2685 47.3443 85.6138 46.5634C85.9717 45.7137 86.156 44.8023 86.156 43.8817C86.156 42.9611 85.9717 42.0497 85.6138 41.2C85.2678 40.4214 84.7633 39.7217 84.1319 39.1446ZM81.4736 46.1556C80.8467 46.7144 80.0329 47.0236 79.1892 47.0236C78.3455 47.0236 77.5317 46.7144 76.9048 46.1556C76.3779 45.5119 76.0904 44.7087 76.0904 43.8804C76.0904 43.0521 76.3779 42.2489 76.9048 41.6053C77.5317 41.0465 78.3455 40.7372 79.1892 40.7372C80.0329 40.7372 80.8467 41.0465 81.4736 41.6053C82.0005 42.2489 82.288 43.0521 82.288 43.8804C82.288 44.7087 82.0005 45.5119 81.4736 46.1556V46.1556Z" fill="black"/>
<path d="M98.0316 39.3101H97.983C97.804 39.0614 97.5961 38.8343 97.3636 38.6336C97.0819 38.387 96.77 38.1764 96.4352 38.0068C95.5891 37.5772 94.6498 37.3582 93.6988 37.3689C92.8655 37.3545 92.0413 37.5432 91.2991 37.9184C90.6074 38.2728 89.9967 38.764 89.5049 39.3616C89.0033 39.9776 88.6185 40.6783 88.3692 41.4299C88.104 42.2042 87.9689 43.0163 87.9692 43.8338C87.9594 44.7114 88.1081 45.5836 88.4082 46.4095C88.6801 47.1631 89.104 47.8542 89.6541 48.4408C90.2021 49.0149 90.8672 49.467 91.6053 49.7673C92.4078 50.091 93.2679 50.2515 94.1344 50.2395C94.7753 50.2285 95.409 50.1032 96.0049 49.8695C96.6732 49.6186 97.2522 49.1788 97.6698 48.6048H97.7219V49.8068C97.7364 50.2077 97.6696 50.6074 97.5255 50.9824C97.3815 51.3574 97.163 51.7 96.8829 51.9901C96.5276 52.3012 96.1122 52.5377 95.6618 52.6852C95.2114 52.8328 94.7355 52.8884 94.2628 52.8486C93.5132 52.8569 92.7704 52.7089 92.0825 52.4142C91.3981 52.1116 90.7595 51.7163 90.1851 51.2397L88.0429 54.4035C88.9185 55.1014 89.942 55.5947 91.037 55.8467C92.1206 56.0933 93.229 56.2174 94.3408 56.2167C96.784 56.2167 98.6034 55.608 99.7989 54.3906C100.994 53.1732 101.593 51.3897 101.593 49.0401V37.6754H98.036L98.0316 39.3101ZM97.7991 44.9671C97.6464 45.3306 97.4226 45.6606 97.1406 45.9381C96.8535 46.2212 96.5169 46.4505 96.1472 46.6147C95.7633 46.7834 95.3479 46.8706 94.9278 46.8706C94.5077 46.8706 94.0923 46.7834 93.7084 46.6147C93.3436 46.4481 93.0114 46.2191 92.7271 45.9381C92.4439 45.6582 92.2192 45.3257 92.0659 44.9598C91.9127 44.5939 91.8338 44.2016 91.8338 43.8055C91.8338 43.4094 91.9127 43.0171 92.0659 42.6512C92.2192 42.2853 92.4439 41.9528 92.7271 41.6729C93.0116 41.3919 93.3437 41.1626 93.7084 40.9955C94.0924 40.8273 94.5078 40.7405 94.9278 40.7405C95.3478 40.7405 95.7631 40.8273 96.1472 40.9955C96.5168 41.1603 96.8533 41.3898 97.1406 41.6729C97.5665 42.0965 97.8562 42.6352 97.9734 43.2214C98.0906 43.8076 98.0299 44.415 97.7991 44.9671V44.9671Z" fill="black"/>
<path d="M116.136 39.1446C115.491 38.5649 114.737 38.1175 113.917 37.8285C112.154 37.216 110.233 37.216 108.471 37.8285C107.65 38.1173 106.895 38.5647 106.25 39.1446C105.618 39.7214 105.113 40.4211 104.767 41.2C104.409 42.0497 104.225 42.9611 104.225 43.8817C104.225 44.8023 104.409 45.7137 104.767 46.5634C105.112 47.3445 105.617 48.0462 106.25 48.6239C106.894 49.2045 107.649 49.6517 108.471 49.9392C110.233 50.5528 112.154 50.5528 113.917 49.9392C114.737 49.6515 115.492 49.2043 116.136 48.6239C116.769 48.0462 117.274 47.3445 117.619 46.5634C117.977 45.7137 118.162 44.8023 118.162 43.8817C118.162 42.9611 117.977 42.0497 117.619 41.2C117.273 40.4211 116.768 39.7214 116.136 39.1446V39.1446ZM113.478 46.1556C112.851 46.7144 112.037 47.0236 111.193 47.0236C110.349 47.0236 109.536 46.7144 108.909 46.1556C108.382 45.5119 108.094 44.7087 108.094 43.8804C108.094 43.0521 108.382 42.2489 108.909 41.6053C109.536 41.0465 110.349 40.7372 111.193 40.7372C112.037 40.7372 112.851 41.0465 113.478 41.6053C114.004 42.2489 114.292 43.0521 114.292 43.8804C114.292 44.7087 114.004 45.5119 113.478 46.1556Z" fill="black"/>
<path d="M123.297 37.7612H121.221V50.0875H123.297V37.7612Z" fill="black"/>
<path d="M122.261 31.4407C122.06 31.4369 121.86 31.4747 121.674 31.5518C121.488 31.6288 121.321 31.7433 121.182 31.888C120.971 32.0986 120.828 32.3663 120.77 32.6575C120.713 32.9486 120.744 33.25 120.859 33.5239C120.974 33.7977 121.169 34.0316 121.418 34.1962C121.668 34.3607 121.961 34.4485 122.26 34.4485C122.56 34.4485 122.853 34.3607 123.103 34.1962C123.352 34.0316 123.547 33.7977 123.662 33.5239C123.777 33.25 123.808 32.9486 123.751 32.6575C123.693 32.3663 123.55 32.0986 123.338 31.888C123.2 31.7432 123.033 31.6287 122.847 31.5516C122.662 31.4746 122.462 31.4368 122.261 31.4407V31.4407Z" fill="black"/>
<path d="M138.653 39.2929C138.069 38.7028 137.367 38.2404 136.591 37.9355C135.739 37.6034 134.831 37.4381 133.916 37.4487C133.054 37.4389 132.202 37.6286 131.427 38.0025C130.664 38.378 129.988 38.907 129.444 39.5556H129.388V37.7612H127.314V56.0931H129.388V47.9025H129.441C129.882 48.6536 130.524 49.2694 131.297 49.6814C132.194 50.1784 133.209 50.4286 134.237 50.406C135.079 50.4113 135.912 50.2453 136.686 49.9183C137.434 49.6046 138.108 49.143 138.669 48.5618C139.238 47.9679 139.685 47.2705 139.987 46.5082C140.625 44.8451 140.625 43.0079 139.987 41.3448C139.683 40.5808 139.23 39.8835 138.653 39.2929V39.2929ZM137.921 45.732C137.727 46.2687 137.425 46.7604 137.031 47.1767C136.638 47.593 136.163 47.9251 135.635 48.1523C134.467 48.6255 133.158 48.6255 131.991 48.1523C131.462 47.9251 130.986 47.5928 130.592 47.176C130.199 46.7592 129.896 46.2669 129.702 45.7295C129.295 44.5613 129.295 43.2917 129.702 42.1235C129.896 41.5861 130.199 41.0938 130.592 40.677C130.986 40.2602 131.462 39.9279 131.991 39.7007C133.158 39.2275 134.467 39.2275 135.635 39.7007C136.164 39.9279 136.64 40.2602 137.033 40.677C137.427 41.0938 137.73 41.5861 137.923 42.1235C138.331 43.2917 138.331 44.5613 137.923 45.7295L137.921 45.732Z" fill="black"/>
<path d="M150.925 43.9294C150.531 43.6375 150.091 43.4108 149.624 43.2581C149.11 43.0866 148.585 42.9501 148.053 42.8494C147.654 42.7819 147.259 42.6942 146.869 42.5867C146.521 42.4932 146.183 42.3697 145.857 42.2175C145.597 42.1004 145.361 41.9349 145.163 41.7298C144.995 41.5464 144.905 41.306 144.911 41.0584C144.907 40.7913 144.986 40.5293 145.137 40.3081C145.286 40.0895 145.481 39.9054 145.709 39.768C145.952 39.6224 146.218 39.5157 146.495 39.4521C146.779 39.3826 147.07 39.3471 147.363 39.3465C147.919 39.3294 148.469 39.4712 148.946 39.7552C149.377 40.0234 149.737 40.3888 149.997 40.8215L151.727 39.6891C151.344 38.9406 150.722 38.3384 149.957 37.9762C149.186 37.622 148.345 37.4422 147.495 37.4499C146.919 37.4486 146.346 37.5284 145.792 37.6869C145.262 37.8366 144.758 38.0684 144.301 38.3738C143.863 38.666 143.499 39.0533 143.236 39.5062C142.964 39.9884 142.826 40.5336 142.837 41.0859C142.815 41.6265 142.939 42.1632 143.196 42.6408C143.431 43.0402 143.758 43.3787 144.151 43.6281C144.584 43.8988 145.055 44.1072 145.548 44.2471C146.08 44.4051 146.639 44.5456 147.225 44.6687C147.562 44.7391 147.891 44.818 148.209 44.9056C148.508 44.985 148.795 45.1046 149.061 45.2611C149.296 45.3988 149.5 45.5826 149.66 45.8011C149.82 46.0431 149.899 46.3287 149.886 46.6176C149.896 46.9211 149.812 47.2204 149.647 47.4761C149.482 47.7185 149.263 47.921 149.008 48.0685C148.732 48.2313 148.431 48.3474 148.117 48.4119C147.797 48.4813 147.472 48.5167 147.145 48.5176C146.498 48.5423 145.857 48.3871 145.295 48.0694C144.778 47.7438 144.323 47.3305 143.951 46.8485L142.303 48.1132C142.813 48.8974 143.537 49.5225 144.392 49.9161C145.268 50.2601 146.205 50.426 147.147 50.4038C147.76 50.4043 148.372 50.3337 148.968 50.1934C149.536 50.0635 150.077 49.8363 150.566 49.5221C151.033 49.2154 151.419 48.8034 151.694 48.3201C151.992 47.7715 152.139 47.1551 152.12 46.5326C152.137 45.9974 152.028 45.4656 151.801 44.9795C151.595 44.5673 151.295 44.2079 150.925 43.9294V43.9294Z" fill="black"/>
<path d="M165.882 47.1641V37.7612H163.806V43.7711C163.812 44.419 163.736 45.0652 163.579 45.6943C163.446 46.2335 163.211 46.7428 162.885 47.195C162.576 47.6154 162.164 47.9508 161.687 48.1695C161.139 48.4104 160.544 48.5277 159.944 48.5129C159.539 48.5453 159.131 48.4809 158.756 48.3251C158.381 48.1693 158.049 47.9266 157.788 47.6174C157.289 46.8993 157.045 46.0379 157.094 45.168V37.7612H155.018V45.3732C155.012 46.0632 155.106 46.7505 155.297 47.4139C155.464 48.0021 155.761 48.5465 156.165 49.0083C156.57 49.4597 157.074 49.8123 157.64 50.0385C158.314 50.2988 159.033 50.4242 159.756 50.4077C160.242 50.4116 160.727 50.3448 161.193 50.2094C161.615 50.088 162.017 49.9109 162.391 49.6831C162.73 49.4761 163.039 49.2236 163.309 48.9327C163.551 48.6739 163.753 48.3808 163.908 48.063H163.961C163.961 48.415 163.97 48.7584 163.988 49.0933C164.006 49.4281 164.015 49.7618 164.014 50.0943H165.984C165.984 49.6897 165.966 49.2418 165.931 48.7507C165.895 48.2596 165.878 47.7307 165.882 47.1641Z" fill="black"/>
<path d="M188.321 40.4617C188.182 39.8653 187.909 39.3076 187.522 38.8304C187.131 38.3688 186.627 38.014 186.058 37.8002C185.342 37.5444 184.584 37.4238 183.822 37.4447C182.996 37.409 182.178 37.6251 181.48 38.0637C180.833 38.5233 180.289 39.111 179.884 39.7894C179.777 39.5782 179.639 39.3367 179.471 39.0648C179.282 38.7713 179.044 38.5126 178.765 38.3007C178.423 38.0434 178.043 37.8407 177.637 37.6997C177.093 37.5186 176.521 37.4337 175.946 37.449C175.46 37.4451 174.976 37.5119 174.51 37.6473C174.088 37.7688 173.685 37.9458 173.311 38.1736C172.972 38.3809 172.663 38.6334 172.394 38.924C172.151 39.1828 171.95 39.4759 171.795 39.7937H171.741C171.741 39.4417 171.732 39.1 171.715 38.7635C171.698 38.4269 171.688 38.0964 171.688 37.7624H169.719C169.719 38.1671 169.736 38.6149 169.772 39.106C169.807 39.5971 169.825 40.124 169.825 40.6866V50.0886H171.902V44.0839C171.896 43.4357 171.972 42.7893 172.129 42.1599C172.261 41.6204 172.497 41.111 172.823 40.6592C173.132 40.2386 173.544 39.9032 174.02 39.6847C174.569 39.4436 175.164 39.3263 175.764 39.3413C176.12 39.3112 176.477 39.3749 176.799 39.5257C177.122 39.6765 177.398 39.9091 177.6 40.1998C178.046 41.1032 178.239 42.1081 178.16 43.1103V50.0904H180.231V42.9764C180.225 42.4694 180.311 41.9655 180.485 41.4885C180.639 41.0657 180.874 40.6766 181.179 40.3432C181.466 40.0311 181.815 39.7801 182.203 39.6057C182.596 39.4297 183.023 39.3398 183.455 39.3421C183.967 39.3237 184.477 39.4227 184.945 39.6315C185.314 39.8077 185.633 40.0703 185.876 40.3964C186.11 40.7193 186.273 41.0868 186.356 41.4756C186.445 41.8824 186.489 42.2975 186.489 42.7137V50.0886H188.56V42.6081C188.568 41.8857 188.488 41.165 188.321 40.4617Z" fill="black"/>
</svg>
