<svg width="17" height="17" viewBox="0 0 17 17" fill="none" xmlns="http://www.w3.org/2000/svg">
<path fill-rule="evenodd" clip-rule="evenodd" d="M8.0174 7.77131L9.00342 4.11997C9.00479 4.09294 9.00899 4.06612 9.01595 4.03995L10.0294 0.287626C10.0564 0.188087 10.1221 0.10326 10.2121 0.0518245C10.3022 0.000388853 10.4091 -0.0134382 10.5095 0.0133879L15.048 1.21988C15.2569 1.27526 15.381 1.4881 15.3252 1.69533L14.3118 5.44766C14.285 5.54734 14.2193 5.63236 14.1293 5.68395C14.0392 5.73554 13.9321 5.74948 13.8317 5.72268L10.0576 4.71895L9.21801 7.82802C13.2905 8.31512 16.4468 11.7551 16.4468 15.9262C16.4468 16.1407 16.2714 16.3147 16.0552 16.3147H0.391589C0.175321 16.3147 0 16.1407 0 15.9262C0 11.4902 3.57129 7.88007 8.0174 7.77131ZM10.9645 13.984C11.8296 13.984 12.5309 13.2884 12.5309 12.4303C12.5309 11.5721 11.8296 10.8765 10.9645 10.8765C10.0994 10.8765 9.39814 11.5721 9.39814 12.4303C9.39814 13.2884 10.0994 13.984 10.9645 13.984ZM4.69907 14.3725C4.69907 15.016 4.17311 15.5378 3.5243 15.5378C2.8755 15.5378 2.34954 15.016 2.34954 14.3725C2.34954 13.7289 2.8755 13.2071 3.5243 13.2071C4.17311 13.2071 4.69907 13.7289 4.69907 14.3725ZM6.43947 11.0491C6.87201 11.0491 7.22265 10.7013 7.22265 10.2723C7.22265 9.8432 6.87201 9.49538 6.43947 9.49538C6.00693 9.49538 5.65629 9.8432 5.65629 10.2723C5.65629 10.7013 6.00693 11.0491 6.43947 11.0491ZM16.7099 4.07414L15.5751 3.77271V3.77193L15.0684 5.6481C14.988 5.94697 14.791 6.20187 14.521 6.35663C14.251 6.51139 13.9301 6.5533 13.6289 6.47314L10.9817 5.76851L10.6779 6.89499C10.622 7.10198 10.7457 7.31472 10.9543 7.37044L15.4936 8.57693C15.7023 8.6323 15.9168 8.50959 15.9729 8.30269L16.9864 4.55036C17.0134 4.45084 16.9995 4.34474 16.9476 4.25542C16.8958 4.1661 16.8102 4.10089 16.7099 4.07414Z" fill="#005B33"/>
</svg>
