<svg width="64" height="62" viewBox="0 0 64 62" fill="none" xmlns="http://www.w3.org/2000/svg">
<rect y="6" width="56" height="56" rx="28" fill="#ECEEFF"/>
<path d="M36.75 35.8385V33.0463C36.7471 30.8855 35.9385 28.8035 34.4821 27.2073C33.0258 25.6112 31.0264 24.6156 28.875 24.4152V22.625C28.875 22.3929 28.7828 22.1704 28.6187 22.0063C28.4546 21.8422 28.2321 21.75 28 21.75C27.7679 21.75 27.5454 21.8422 27.3813 22.0063C27.2172 22.1704 27.125 22.3929 27.125 22.625V24.4153C24.9736 24.6157 22.9743 25.6113 21.5179 27.2075C20.0616 28.8036 19.2529 30.8855 19.25 33.0463V35.8383C18.2626 36.0412 17.3753 36.5784 16.7377 37.3593C16.1002 38.1401 15.7513 39.1169 15.75 40.125C15.7508 40.821 16.0276 41.4882 16.5197 41.9803C17.0118 42.4724 17.679 42.7492 18.375 42.75H23.7135C23.9152 43.738 24.452 44.6259 25.2331 45.2636C26.0142 45.9013 26.9916 46.2497 28 46.2497C29.0084 46.2497 29.9858 45.9013 30.7669 45.2636C31.548 44.6259 32.0848 43.738 32.2865 42.75H37.625C38.321 42.7492 38.9882 42.4724 39.4803 41.9803C39.9724 41.4882 40.2492 40.821 40.25 40.125C40.2486 39.117 39.8998 38.1402 39.2622 37.3594C38.6247 36.5786 37.7374 36.0414 36.75 35.8385ZM21 33.0463C21.0023 31.2113 21.7323 29.4522 23.0297 28.1547C24.3272 26.8573 26.0863 26.1273 27.9212 26.125H28.0788C29.9137 26.1273 31.6728 26.8573 32.9703 28.1547C34.2677 29.4522 34.9977 31.2113 35 33.0463V35.75H21V33.0463ZM28 44.5C27.4589 44.4983 26.9316 44.3292 26.4905 44.0159C26.0493 43.7026 25.716 43.2604 25.5363 42.75H30.4637C30.284 43.2604 29.9507 43.7026 29.5095 44.0159C29.0684 44.3292 28.5411 44.4983 28 44.5V44.5ZM37.625 41H18.375C18.143 40.9999 17.9205 40.9076 17.7564 40.7436C17.5924 40.5795 17.5001 40.357 17.5 40.125C17.5008 39.429 17.7776 38.7618 18.2697 38.2697C18.7618 37.7776 19.429 37.5008 20.125 37.5H35.875C36.571 37.5008 37.2382 37.7776 37.7303 38.2697C38.2224 38.7618 38.4992 39.429 38.5 40.125C38.4999 40.357 38.4076 40.5795 38.2436 40.7436C38.0795 40.9076 37.857 40.9999 37.625 41V41Z" fill="#2130B8"/>
<circle cx="51" cy="13" r="11.5" fill="#FFE600" stroke="white" stroke-width="3"/>
</svg>
