<svg width="7" height="10" viewBox="0 0 7 10" fill="none" xmlns="http://www.w3.org/2000/svg">
<path d="M6.21875 5.53125C6.34375 5.40625 6.4375 5.21875 6.4375 5C6.4375 4.8125 6.34375 4.625 6.21875 4.46875L1.96875 0.21875C1.8125 0.09375 1.625 0 1.4375 0C1.21875 0 1.03125 0.09375 0.90625 0.21875L0.21875 0.9375C0.0625 1.09375 0 1.28125 0 1.46875C0 1.6875 0.0625 1.875 0.21875 2L3.21875 5L0.21875 8C0.0625 8.15625 0 8.34375 0 8.53125C0 8.75 0.0625 8.9375 0.21875 9.0625L0.90625 9.78125C1.03125 9.9375 1.21875 10 1.4375 10C1.625 10 1.8125 9.9375 1.96875 9.78125L6.21875 5.53125Z" fill="#1DA599"/>
</svg>
