<svg width="35" height="35" viewBox="0 0 35 35" fill="none" xmlns="http://www.w3.org/2000/svg">
<path d="M17.5 0.546875C8.13477 0.546875 0.546875 8.13477 0.546875 17.5C0.546875 26.8652 8.13477 34.4531 17.5 34.4531C26.8652 34.4531 34.4531 26.8652 34.4531 17.5C34.4531 8.13477 26.8652 0.546875 17.5 0.546875ZM23.8226 21.9434L22.4554 23.6523C22.3656 23.7645 22.2547 23.8579 22.1289 23.9272C22.0031 23.9965 21.8648 24.0404 21.7221 24.0562C21.5793 24.0721 21.4348 24.0597 21.2968 24.0197C21.1589 23.9797 21.0301 23.913 20.918 23.8232L16.3379 20.4244C16.0179 20.1682 15.7596 19.8433 15.5821 19.4738C15.4046 19.1042 15.3124 18.6995 15.3125 18.2895V7.65625C15.3125 7.36617 15.4277 7.08797 15.6329 6.88285C15.838 6.67773 16.1162 6.5625 16.4062 6.5625H18.5938C18.8838 6.5625 19.162 6.67773 19.3671 6.88285C19.5723 7.08797 19.6875 7.36617 19.6875 7.65625V17.5L23.6523 20.4053C23.7646 20.4951 23.858 20.6061 23.9273 20.732C23.9966 20.8579 24.0404 20.9962 24.0562 21.139C24.072 21.2819 24.0595 21.4264 24.0194 21.5645C23.9793 21.7025 23.9124 21.8312 23.8226 21.9434Z" fill="#FEA400"/>
</svg>
