<svg width="453" height="123" viewBox="0 0 453 123" fill="none" xmlns="http://www.w3.org/2000/svg">
<g opacity="0.1">
<path d="M44.4387 46C39.7419 46 36.1892 44.0529 33.7806 40.1587C31.7333 36.873 30.7097 32.8571 30.7097 28.1111C30.7097 22.0265 32.2151 16.5503 35.2258 11.6825C38.357 6.81482 43.0538 2.92064 49.3161 0L50.9419 3.28572C47.2086 4.86773 43.957 7.36244 41.1871 10.7698C38.5376 14.1773 37.2129 17.6455 37.2129 21.1746C37.2129 22.6349 37.3935 23.9127 37.7548 25.0079C39.6817 23.4259 41.9097 22.6349 44.4387 22.6349C47.6903 22.6349 50.4 23.7302 52.5677 25.9206C54.8559 27.9894 56 30.7884 56 34.3175C56 37.6032 54.8559 40.4021 52.5677 42.7143C50.4 44.9048 47.6903 46 44.4387 46ZM13.729 46C9.03226 46 5.47957 44.0529 3.07097 40.1587C1.02366 36.873 0 32.8571 0 28.1111C0 22.0265 1.50538 16.5503 4.51613 11.6825C7.64731 6.81482 12.3441 2.92064 18.6065 0L20.2323 3.28572C16.4989 4.86773 13.2473 7.36244 10.4774 10.7698C7.82796 14.1773 6.50323 17.6455 6.50323 21.1746C6.50323 22.6349 6.68387 23.9127 7.04516 25.0079C8.97204 23.4259 11.2 22.6349 13.729 22.6349C16.9806 22.6349 19.6903 23.7302 21.8581 25.9206C24.1462 27.9894 25.2903 30.7884 25.2903 34.3175C25.2903 37.6032 24.1462 40.4021 21.8581 42.7143C19.6903 44.9048 16.9806 46 13.729 46Z" fill="#010101"/>
<path d="M408.561 77C413.258 77 416.811 78.9471 419.219 82.8413C421.267 86.127 422.29 90.1429 422.29 94.8889C422.29 100.974 420.725 106.45 417.594 111.317C414.583 116.185 409.946 120.079 403.684 123L402.058 119.714C405.791 118.132 408.983 115.638 411.632 112.23C414.402 108.823 415.787 105.354 415.787 101.825C415.787 100.365 415.606 99.0873 415.245 97.9921C413.318 99.5741 411.09 100.365 408.561 100.365C405.31 100.365 402.54 99.3307 400.252 97.2619C398.084 95.0714 397 92.2116 397 88.6825C397 85.3968 398.084 82.6587 400.252 80.4683C402.54 78.1561 405.31 77 408.561 77ZM439.271 77C443.968 77 447.52 78.9471 449.929 82.8413C451.976 86.127 453 90.1429 453 94.8889C453 100.974 451.434 106.45 448.303 111.317C445.292 116.185 440.656 120.079 434.394 123L432.768 119.714C436.501 118.132 439.692 115.638 442.342 112.23C445.112 108.823 446.497 105.354 446.497 101.825C446.497 100.365 446.316 99.0873 445.955 97.9921C444.028 99.5741 441.8 100.365 439.271 100.365C436.019 100.365 433.249 99.3307 430.961 97.2619C428.794 95.0714 427.71 92.2116 427.71 88.6825C427.71 85.3968 428.794 82.6587 430.961 80.4683C433.249 78.1561 436.019 77 439.271 77Z" fill="#010101"/>
</g>
</svg>
