<svg width="184" height="184" viewBox="0 0 184 184" fill="none" xmlns="http://www.w3.org/2000/svg">
<circle cx="92" cy="92" r="92" fill="#070506" fill-opacity="0.3"/>
<circle cx="92" cy="92" r="60" fill="#070506" fill-opacity="0.3"/>
<path d="M91.9994 58.6665C85.8131 58.6736 79.8823 61.1342 75.508 65.5085C71.1337 69.8828 68.6731 75.8136 68.666 81.9998C68.666 99.8432 88.786 120.167 89.6427 121.023L91.9994 123.38L94.356 121.023C95.2127 120.167 115.333 99.8432 115.333 81.9998C115.326 75.8136 112.865 69.8828 108.491 65.5085C104.116 61.1342 98.1856 58.6736 91.9994 58.6665V58.6665ZM91.9994 113.777C86.9027 108.083 75.3327 93.8432 75.3327 81.9998C75.3327 77.5796 77.0886 73.3403 80.2142 70.2147C83.3398 67.0891 87.5791 65.3332 91.9994 65.3332C96.4196 65.3332 100.659 67.0891 103.784 70.2147C106.91 73.3403 108.666 77.5796 108.666 81.9998C108.666 93.8198 97.0894 108.077 91.9994 113.777Z" fill="white"/>
<path d="M92 72C90.0222 72 88.0888 72.5865 86.4443 73.6853C84.7998 74.7841 83.5181 76.3459 82.7612 78.1732C82.0043 80.0004 81.8063 82.0111 82.1922 83.9509C82.578 85.8907 83.5304 87.6725 84.9289 89.0711C86.3275 90.4696 88.1093 91.422 90.0491 91.8079C91.9889 92.1937 93.9996 91.9957 95.8268 91.2388C97.6541 90.4819 99.2159 89.2002 100.315 87.5557C101.414 85.9112 102 83.9778 102 82C102 79.3478 100.946 76.8043 99.0711 74.9289C97.1957 73.0536 94.6522 72 92 72ZM92 85.3333C91.3407 85.3333 90.6963 85.1378 90.1481 84.7716C89.5999 84.4053 89.1727 83.8847 88.9204 83.2756C88.6681 82.6665 88.6021 81.9963 88.7307 81.3497C88.8593 80.7031 89.1768 80.1092 89.643 79.643C90.1092 79.1768 90.7031 78.8593 91.3497 78.7307C91.9963 78.6021 92.6665 78.6681 93.2756 78.9204C93.8847 79.1727 94.4053 79.5999 94.7716 80.1481C95.1378 80.6963 95.3333 81.3407 95.3333 82C95.3333 82.8841 94.9822 83.7319 94.357 84.357C93.7319 84.9821 92.8841 85.3333 92 85.3333Z" fill="white"/>
</svg>
