<svg width="17" height="175" viewBox="0 0 17 175" fill="none" xmlns="http://www.w3.org/2000/svg">
<path fill-rule="evenodd" clip-rule="evenodd" d="M7.00737 0L0.0094845 0.00190012L0.00732438 7.99969H7.00737V0ZM16.0052 0.00190012L9.00748 0V6.00016H16.0077L16.0052 0.00190012ZM0.00732438 9.99986H7.00737V16L0.0094845 15.9978L0.00732438 9.99986ZM16.0077 7.99969H9.00748V16L16.0052 15.9978L16.0077 7.99969Z" fill="#AAAAAA"/>
<path fill-rule="evenodd" clip-rule="evenodd" d="M0.00732438 55.0009H16.0077L16.0078 59.0007H0.00743834L0.00732438 55.0009ZM11.0076 60.0015H16.0078V65.0009H11.0076V60.0015ZM10.0076 60.0015H5.00747V65.0009H10.0076V60.0015ZM0.00743834 60.0015H4.00746V65.0009H0.00743834V60.0015ZM16.0077 66.0779L12.0076 66.0009V71.001H16.0077V66.0779ZM6.00748 66.0009H11.0076V71.001H6.00748V66.0009ZM4.93044 66.0779H0.00732438V71.001H4.93044V66.0779Z" fill="#AAAAAA"/>
<path fill-rule="evenodd" clip-rule="evenodd" d="M16.0078 110.085L8.0076 115.502L0.00743119 110.085L0.00537121 109H16.0099L16.0078 110.085ZM0.00743119 112.252L8.0076 117.669L16.0078 112.252L16.0099 122.005H0.00537121L0.00743119 112.252Z" fill="#AAAAAA"/>
<path fill-rule="evenodd" clip-rule="evenodd" d="M14.0576 170.492L15.9486 164.819C16.0434 164.547 15.9717 164.383 15.8954 164.274C15.6993 163.997 15.2965 163.994 15.2181 163.994L4.53196 163.993L4.24687 162.637C4.17009 162.316 3.94223 162.011 3.48354 162.011L1.00722 162.003C0.696035 162.003 0 162.157 0 162.449L0.00720016 163.003C0.0384409 163.941 0.684135 164.003 1.00722 164.003H3.00722L4.96765 171.847C4.65944 172.175 4.49156 172.652 4.49156 173.096C4.49156 174.076 5.26965 174.979 6.26326 174.979C7.20158 174.979 7.90495 174.098 8.01915 173.572H11.7987C11.9128 174.098 12.4825 175 13.554 175C14.5307 175 15.3247 174.152 15.3247 173.175C15.3247 172.202 14.7349 171.339 13.5636 171.339C13.0768 171.339 12.4989 171.602 12.2307 171.996H7.58656C7.24976 171.471 6.78959 171.307 6.32368 171.289L6.26016 170.945H13.3261C13.8585 170.945 13.9635 170.75 14.0576 170.492ZM5.57534 173.152C5.57534 172.78 5.87781 172.477 6.24941 172.477C6.62008 172.477 6.92211 172.78 6.92211 173.152C6.92211 173.525 6.62008 173.828 6.24941 173.828C5.87781 173.827 5.57534 173.525 5.57534 173.152ZM13.5677 173.819C13.2007 173.819 12.9018 173.521 12.9018 173.152C12.9018 172.784 13.2002 172.485 13.5677 172.485C13.9353 172.485 14.2332 172.784 14.2332 173.152C14.2332 173.521 13.9347 173.819 13.5677 173.819Z" fill="#AAAAAA"/>
</svg>
