<svg width="449" height="412" viewBox="0 0 449 412" fill="none" xmlns="http://www.w3.org/2000/svg">
<path d="M411.258 118.474C440.44 192.667 416.408 303.603 343.626 362.251C270.5 420.899 148.623 427.259 82.7069 373.557C16.4473 319.855 6.49115 205.739 38.076 128.013C69.6609 50.6399 143.13 10.0103 221.062 8.24384C299.338 6.83064 382.077 44.6338 411.258 118.474Z" stroke="#FABB3D"/>
<path d="M439.654 124.933C469.885 202.158 419.248 325.015 339.136 378.448C259.402 431.881 149.815 415.89 85.1966 361.287C20.5781 307.074 0.172215 214.249 24.7348 144.825C49.2974 75.7906 118.451 30.548 208.387 23.5276C298.324 16.5072 409.423 47.709 439.654 124.933Z" stroke="#FABB3D"/>
<ellipse cx="424.934" cy="275.411" rx="9.73192" ry="9.74452" fill="#53B004"/>
<ellipse cx="409.568" cy="118.472" rx="6.65868" ry="6.6673" fill="#53B004"/>
<ellipse cx="14.854" cy="241.506" rx="14.854" ry="14.8732" fill="#53B004"/>
<ellipse cx="214.418" cy="8.20591" rx="8.1953" ry="8.20591" fill="#53B004"/>
</svg>
