<svg width="20" height="14" viewBox="0 0 20 14" fill="none" xmlns="http://www.w3.org/2000/svg">
<path d="M19.5052 2.22396C19.2865 1.34896 18.5938 0.65625 17.7552 0.4375C16.1875 0 9.98958 0 9.98958 0C9.98958 0 3.75521 0 2.1875 0.4375C1.34896 0.65625 0.65625 1.34896 0.4375 2.22396C0 3.75521 0 7.03646 0 7.03646C0 7.03646 0 10.2812 0.4375 11.849C0.65625 12.724 1.34896 13.3802 2.1875 13.599C3.75521 14 9.98958 14 9.98958 14C9.98958 14 16.1875 14 17.7552 13.599C18.5938 13.3802 19.2865 12.724 19.5052 11.849C19.9427 10.2812 19.9427 7.03646 19.9427 7.03646C19.9427 7.03646 19.9427 3.75521 19.5052 2.22396ZM7.94792 9.98958V4.08333L13.125 7.03646L7.94792 9.98958Z" fill="#000C21"/>
</svg>
