<svg width="40" height="35" viewBox="0 0 40 35" fill="none" xmlns="http://www.w3.org/2000/svg">
<g clip-path="url(#clip0_2_1554)">
<path d="M10.9375 30.625C9.1875 30.625 7.4375 29.0938 6.5625 28.4375C2.1875 25.375 0.875 24.2813 0 23.625V32.8125C0 34.0204 0.97959 35 2.1875 35H19.6875C20.8954 35 21.875 34.0204 21.875 32.8125V23.625C21 24.2813 19.6875 25.375 15.3125 28.4375C14.4375 29.0938 12.6875 30.625 10.9375 30.625ZM19.6875 17.5H2.1875C0.97959 17.5 0 18.4796 0 19.6875V20.7812C1.75 22.0938 1.53125 22.0937 7.875 26.6875C8.53125 27.125 9.84375 28.4375 10.9375 28.4375C12.0312 28.4375 13.3438 27.125 14 26.9063C20.3438 22.3125 20.125 22.3125 21.875 21V19.6875C21.875 18.4796 20.8954 17.5 19.6875 17.5ZM37.1875 10.9375H15.3125C14.1046 10.9375 13.125 11.9171 13.125 13.125V15.3125H19.6875C21.9577 15.3125 23.8294 17.0502 24.0427 19.265L24.0625 19.25V28.4375H37.1875C38.3954 28.4375 39.375 27.4579 39.375 26.25V13.125C39.375 11.9171 38.3954 10.9375 37.1875 10.9375ZM35 19.6875H30.625V15.3125H35V19.6875ZM10.9375 13.125C10.9375 10.7126 12.9001 8.75 15.3125 8.75H30.625V2.1875C30.625 0.97959 29.6454 0 28.4375 0H6.5625C5.35459 0 4.375 0.97959 4.375 2.1875V15.3125H10.9375V13.125Z" fill="#FEA400"/>
</g>
<defs>
<clipPath id="clip0_2_1554">
<rect width="39.375" height="35" fill="white"/>
</clipPath>
</defs>
</svg>
