<svg width="13" height="13" viewBox="0 0 13 13" fill="none" xmlns="http://www.w3.org/2000/svg">
<path d="M5.48889 0.895556C5.2 1.18444 5.22889 1.61778 5.48889 1.90667L8.98444 5.2H0.693333C0.288889 5.2 0 5.51778 0 5.89333V6.81778C0 7.22222 0.288889 7.51111 0.693333 7.51111H8.98444L5.48889 10.8333C5.22889 11.1222 5.22889 11.5556 5.48889 11.8444L6.12444 12.48C6.41333 12.74 6.84667 12.74 7.10667 12.48L12.74 6.84667C13 6.58667 13 6.15333 12.74 5.86444L7.10667 0.26C6.84667 0 6.41333 0 6.12444 0.26L5.48889 0.895556Z" fill="#1565D8"/>
</svg>
