<svg width="212" height="24" viewBox="0 0 212 24" fill="none" xmlns="http://www.w3.org/2000/svg">
<path d="M211.937 9.20579C211.779 8.71979 211.348 8.37575 210.84 8.32979L203.912 7.70081L201.174 1.29054C200.972 0.819587 200.512 0.515625 200 0.515625C199.488 0.515625 199.028 0.819587 198.827 1.29054L196.089 7.70081L189.16 8.32979C188.652 8.37665 188.222 8.72069 188.063 9.20579C187.905 9.69173 188.051 10.2248 188.435 10.5617L193.672 15.1539L192.128 21.9549C192.015 22.4549 192.209 22.9721 192.624 23.272C192.847 23.434 193.109 23.515 193.372 23.515C193.598 23.515 193.824 23.4549 194.026 23.3341L200 19.762L205.973 23.3341C206.411 23.5959 206.962 23.5719 207.376 23.272C207.791 22.9721 207.985 22.4549 207.872 21.9549L206.328 15.1539L211.565 10.5617C211.949 10.2248 212.095 9.69281 211.937 9.20579Z" fill="black" fill-opacity="0.1"/>
<mask id="mask0_16_18573" style="mask-type:alpha" maskUnits="userSpaceOnUse" x="140" y="0" width="24" height="24">
<path d="M163.937 9.20579C163.779 8.71979 163.348 8.37575 162.84 8.32979L155.912 7.70081L153.174 1.29054C152.972 0.819587 152.512 0.515625 152 0.515625C151.488 0.515625 151.028 0.819587 150.827 1.29054L148.089 7.70081L141.16 8.32979C140.652 8.37665 140.222 8.72069 140.063 9.20579C139.905 9.69173 140.051 10.2248 140.435 10.5617L145.672 15.1539L144.128 21.9549C144.015 22.4549 144.209 22.9721 144.624 23.272C144.847 23.434 145.109 23.515 145.372 23.515C145.598 23.515 145.824 23.4549 146.026 23.3341L152 19.762L157.973 23.3341C158.411 23.5959 158.962 23.5719 159.376 23.272C159.791 22.9721 159.985 22.4549 159.872 21.9549L158.328 15.1539L163.565 10.5617C163.949 10.2248 164.095 9.69281 163.937 9.20579Z" fill="white"/>
</mask>
<g mask="url(#mask0_16_18573)">
<rect x="140" width="24" height="24" fill="#FF4545"/>
</g>
<mask id="mask1_16_18573" style="mask-type:alpha" maskUnits="userSpaceOnUse" x="92" y="0" width="24" height="24">
<path d="M115.937 9.20579C115.779 8.71979 115.348 8.37575 114.84 8.32979L107.912 7.70081L105.174 1.29054C104.972 0.819587 104.512 0.515625 104 0.515625C103.488 0.515625 103.028 0.819587 102.827 1.29054L100.089 7.70081L93.1598 8.32979C92.6519 8.37665 92.2218 8.72069 92.0628 9.20579C91.9048 9.69173 92.0507 10.2248 92.4349 10.5617L97.672 15.1539L96.1278 21.9549C96.0149 22.4549 96.2089 22.9721 96.6239 23.272C96.8469 23.434 97.1089 23.515 97.3719 23.515C97.5978 23.515 97.824 23.4549 98.0259 23.3341L104 19.762L109.973 23.3341C110.411 23.5959 110.962 23.5719 111.376 23.272C111.791 22.9721 111.985 22.4549 111.872 21.9549L110.328 15.1539L115.565 10.5617C115.949 10.2248 116.095 9.69281 115.937 9.20579Z" fill="white"/>
</mask>
<g mask="url(#mask1_16_18573)">
<rect x="92" width="24" height="24" fill="#FF4545"/>
</g>
<mask id="mask2_16_18573" style="mask-type:alpha" maskUnits="userSpaceOnUse" x="44" y="0" width="24" height="24">
<path d="M67.9372 9.20579C67.7792 8.71979 67.3482 8.37575 66.8403 8.32979L59.9121 7.70081L57.1741 1.29054C56.972 0.819587 56.512 0.515625 56.0001 0.515625C55.4881 0.515625 55.0279 0.819587 54.8271 1.29054L52.089 7.70081L45.1598 8.32979C44.6519 8.37665 44.2218 8.72069 44.0628 9.20579C43.9048 9.69173 44.0507 10.2248 44.4349 10.5617L49.672 15.1539L48.1278 21.9549C48.0149 22.4549 48.2089 22.9721 48.6239 23.272C48.8469 23.434 49.1089 23.515 49.3719 23.515C49.5978 23.515 49.824 23.4549 50.0259 23.3341L56.0001 19.762L61.9731 23.3341C62.4112 23.5959 62.9622 23.5719 63.3762 23.272C63.7911 22.9721 63.9852 22.4549 63.8722 21.9549L62.3281 15.1539L67.5652 10.5617C67.9491 10.2248 68.0953 9.69281 67.9372 9.20579Z" fill="white"/>
</mask>
<g mask="url(#mask2_16_18573)">
<rect x="44" width="24" height="24" fill="#FF4545"/>
</g>
<mask id="mask3_16_18573" style="mask-type:alpha" maskUnits="userSpaceOnUse" x="0" y="0" width="24" height="24">
<path d="M23.9372 9.20579C23.7792 8.71979 23.3482 8.37575 22.8403 8.32979L15.9121 7.70081L13.1741 1.29054C12.972 0.819587 12.512 0.515625 12.0001 0.515625C11.4881 0.515625 11.0279 0.819587 10.8271 1.29054L8.08902 7.70081L1.15982 8.32979C0.651882 8.37665 0.221759 8.72069 0.0628207 9.20579C-0.0952019 9.69173 0.0507356 10.2248 0.434897 10.5617L5.67198 15.1539L4.12783 21.9549C4.01485 22.4549 4.20894 22.9721 4.62387 23.272C4.84689 23.434 5.10893 23.515 5.37187 23.515C5.59782 23.515 5.82396 23.4549 6.02592 23.3341L12.0001 19.762L17.9731 23.3341C18.4112 23.5959 18.9622 23.5719 19.3762 23.272C19.7911 22.9721 19.9852 22.4549 19.8722 21.9549L18.3281 15.1539L23.5652 10.5617C23.9491 10.2248 24.0953 9.69281 23.9372 9.20579Z" fill="white"/>
</mask>
<g mask="url(#mask3_16_18573)">
<rect width="24" height="24" fill="#FF4545"/>
</g>
</svg>
