<svg width="48" height="48" viewBox="0 0 48 48" fill="none" xmlns="http://www.w3.org/2000/svg">
<path d="M27.2813 12.2718C27.2813 12.975 27.2813 13.6781 27.2813 14.3812C27.2813 16.0687 27.2813 17.7562 27.2813 19.4484C27.2813 21.4828 27.2813 23.5171 27.2813 25.5515C27.2813 27.314 27.2813 29.0812 27.2813 30.8437C27.2813 31.6968 27.2626 32.5546 27.2813 33.4078C27.2813 33.4218 27.2813 33.4312 27.2813 33.4453C27.9048 32.8218 28.5329 32.1937 29.1563 31.5703C27.5813 31.5703 26.0063 31.5703 24.4313 31.5703C21.9141 31.5703 19.3923 31.5703 16.8751 31.5703C16.2985 31.5703 15.722 31.5703 15.1501 31.5703C15.7735 32.1937 16.4016 32.8218 17.0251 33.4453C17.0157 32.3437 16.7016 31.1812 16.0548 30.2812C15.6329 29.6953 15.211 29.2687 14.6391 28.8375C14.1938 28.5 13.6923 28.2703 13.1673 28.0781C11.0907 27.3093 8.50789 28.0171 7.08758 29.7093C6.19695 30.7734 5.68601 32.0484 5.67195 33.45C6.29539 32.8265 6.92351 32.1984 7.54695 31.575C6.97039 31.575 6.39851 31.575 5.82195 31.575C5.23601 31.575 4.62664 31.6265 4.0407 31.5609C4.20476 31.5843 4.37351 31.6078 4.53758 31.6265C4.41101 31.6078 4.28914 31.575 4.17195 31.5328C4.32195 31.5937 4.47195 31.6593 4.62195 31.7203C4.48601 31.664 4.36414 31.5937 4.24695 31.5046C4.37351 31.6031 4.50008 31.7015 4.62664 31.8C4.5282 31.7203 4.44383 31.6359 4.36883 31.5421C4.46726 31.6687 4.5657 31.7953 4.66414 31.9218C4.57508 31.8046 4.50476 31.6828 4.44851 31.5468C4.50945 31.6968 4.57508 31.8468 4.63601 31.9968C4.58914 31.875 4.56101 31.7578 4.54226 31.6312C4.5657 31.7953 4.58914 31.964 4.60789 32.1281C4.58445 31.9031 4.59383 31.6734 4.59383 31.4484C4.59383 30.9796 4.59383 30.5062 4.59383 30.0375C4.59383 28.4625 4.59383 26.8828 4.59383 25.3078C4.59383 23.4 4.59383 21.4921 4.59383 19.5843C4.59383 17.939 4.59383 16.2937 4.59383 14.6484C4.59383 13.8656 4.58445 13.0828 4.59383 12.3046C4.59383 12.2296 4.59851 12.1593 4.60789 12.0843C4.58445 12.2484 4.56101 12.4171 4.54226 12.5812C4.56101 12.4546 4.59383 12.3328 4.63601 12.2156C4.57508 12.3656 4.50945 12.5156 4.44851 12.6656C4.50476 12.5296 4.57508 12.4078 4.66414 12.2906C4.5657 12.4171 4.46726 12.5437 4.36883 12.6703C4.44851 12.5718 4.53289 12.4875 4.62664 12.4125C4.50008 12.5109 4.37351 12.6093 4.24695 12.7078C4.36414 12.6187 4.48601 12.5484 4.62195 12.4921C4.47195 12.5531 4.32195 12.6187 4.17195 12.6796C4.29383 12.6328 4.41101 12.6046 4.53758 12.5859C4.37351 12.6093 4.20476 12.6328 4.0407 12.6515C4.29851 12.6234 4.5657 12.6375 4.8282 12.6375C5.3907 12.6375 5.9532 12.6375 6.5157 12.6375C8.3907 12.6375 10.261 12.6375 12.136 12.6375C14.4001 12.6375 16.6641 12.6375 18.9329 12.6375C20.8923 12.6375 22.8516 12.6375 24.811 12.6375C25.7438 12.6375 26.6767 12.6234 27.6095 12.6375C27.6845 12.6375 27.7595 12.6421 27.8345 12.6515C27.6704 12.6281 27.5017 12.6046 27.3376 12.5859C27.4642 12.6046 27.586 12.6375 27.7032 12.6796C27.5532 12.6187 27.4032 12.5531 27.2532 12.4921C27.3892 12.5484 27.511 12.6187 27.6282 12.7078C27.5017 12.6093 27.3751 12.5109 27.2485 12.4125C27.347 12.4921 27.4313 12.5765 27.5063 12.6703C27.4079 12.5437 27.3095 12.4171 27.211 12.2906C27.3001 12.4078 27.3704 12.5296 27.4267 12.6656C27.3657 12.5156 27.3001 12.3656 27.2392 12.2156C27.286 12.3375 27.3142 12.4546 27.3329 12.5812C27.3095 12.4171 27.286 12.2484 27.2673 12.0843C27.2767 12.1406 27.2813 12.2062 27.2813 12.2718C27.2907 12.7593 27.4829 13.2515 27.8298 13.5984C28.1532 13.9218 28.6876 14.1703 29.1563 14.1468C30.1548 14.1 31.0548 13.3218 31.0313 12.2718C31.0126 11.3953 30.6938 10.6171 30.122 9.9609C29.686 9.46402 28.9876 9.0609 28.3313 8.95777C28.0501 8.9109 27.7735 8.87808 27.4876 8.87808C27.0517 8.87808 26.611 8.87808 26.1751 8.87808C24.3235 8.87808 22.472 8.87808 20.6204 8.87808C18.197 8.87808 15.7782 8.87808 13.3548 8.87808C11.2407 8.87808 9.12664 8.87808 7.01726 8.87808C6.09383 8.87808 5.1657 8.85933 4.24226 8.87808C2.73289 8.90621 1.42039 9.88121 0.979761 11.3296C0.871948 11.6765 0.848511 12.0468 0.848511 12.4125C0.848511 12.8953 0.848511 13.3781 0.848511 13.8609C0.848511 15.8812 0.848511 17.8968 0.848511 19.9171C0.848511 22.3031 0.848511 24.6937 0.848511 27.0796C0.848511 28.5984 0.848511 30.1125 0.848511 31.6312C0.848511 31.7296 0.848511 31.8281 0.848511 31.9218C0.857886 32.5125 1.0032 33.0234 1.26101 33.5531C1.55164 34.1437 2.13289 34.6968 2.73289 34.9593C3.24851 35.189 3.73133 35.3203 4.3032 35.325C4.47195 35.325 4.64539 35.325 4.81414 35.325C5.40476 35.325 5.9907 35.325 6.58133 35.325C6.90476 35.325 7.2282 35.325 7.55164 35.325C8.57352 35.325 9.41727 34.4671 9.42664 33.45C9.42664 33.2765 9.4407 33.1031 9.46414 32.9296C9.4407 33.0937 9.41727 33.2625 9.39852 33.4265C9.44539 33.089 9.53914 32.7656 9.6657 32.4562C9.60477 32.6062 9.53914 32.7562 9.4782 32.9062C9.60945 32.6015 9.7782 32.3203 9.97977 32.0578C9.88133 32.1843 9.78289 32.3109 9.68445 32.4375C9.87664 32.1937 10.0923 31.9781 10.336 31.7859C10.2095 31.8843 10.0829 31.9828 9.95633 32.0812C10.2188 31.8796 10.5001 31.7109 10.8048 31.5796C10.6548 31.6406 10.5048 31.7062 10.3548 31.7671C10.6688 31.6359 10.9923 31.5468 11.3251 31.5C11.161 31.5234 10.9923 31.5468 10.8282 31.5656C11.1751 31.5187 11.522 31.5187 11.8688 31.5656C11.7048 31.5421 11.536 31.5187 11.372 31.5C11.7095 31.5468 12.0329 31.6406 12.3423 31.7671C12.1923 31.7062 12.0423 31.6406 11.8923 31.5796C12.197 31.7109 12.4782 31.8796 12.7407 32.0812C12.6141 31.9828 12.4876 31.8843 12.361 31.7859C12.6048 31.9781 12.8204 32.1937 13.0126 32.4375C12.9141 32.3109 12.8157 32.1843 12.7173 32.0578C12.9188 32.3203 13.0876 32.6015 13.2188 32.9062C13.1579 32.7562 13.0923 32.6062 13.0313 32.4562C13.1626 32.7703 13.2516 33.0937 13.2985 33.4265C13.2751 33.2625 13.2516 33.0937 13.2329 32.9296C13.2563 33.1031 13.2657 33.2765 13.2704 33.45C13.2798 34.4625 14.1235 35.325 15.1454 35.325C16.7204 35.325 18.2954 35.325 19.8704 35.325C22.3876 35.325 24.9095 35.325 27.4267 35.325C28.0032 35.325 28.5798 35.325 29.1517 35.325C30.1642 35.325 31.0267 34.4671 31.0267 33.45C31.0267 32.7468 31.0267 32.0437 31.0267 31.3406C31.0267 29.6531 31.0267 27.9656 31.0267 26.2734C31.0267 24.239 31.0267 22.2046 31.0267 20.1703C31.0267 18.4078 31.0267 16.6406 31.0267 14.8781C31.0267 14.025 31.0407 13.1671 31.0267 12.314C31.0267 12.3 31.0267 12.2906 31.0267 12.2765C31.0267 11.2968 30.1642 10.3546 29.1517 10.4015C28.1392 10.4437 27.2813 11.2218 27.2813 12.2718Z" fill="#393D46"/>
<path d="M43.4016 25.7765C43.4016 27.5999 43.4016 29.4187 43.4016 31.2421C43.4016 31.5327 43.4203 31.8327 43.3875 32.1281C43.4109 31.964 43.4344 31.7952 43.4531 31.6312C43.4344 31.7577 43.4016 31.8796 43.3594 31.9968C43.4203 31.8468 43.4859 31.6968 43.5469 31.5468C43.4906 31.6827 43.4203 31.8046 43.3312 31.9218C43.4297 31.7952 43.5281 31.6687 43.6266 31.5421C43.5469 31.6406 43.4625 31.7249 43.3687 31.7999C43.4953 31.7015 43.6219 31.6031 43.7484 31.5046C43.6312 31.5937 43.5094 31.664 43.3734 31.7202C43.5234 31.6593 43.6734 31.5937 43.8234 31.5327C43.7016 31.5796 43.5844 31.6077 43.4578 31.6265C43.6219 31.6031 43.7906 31.5796 43.9547 31.5609C43.4719 31.6124 42.9703 31.5749 42.4828 31.5749C42.0094 31.5749 41.5406 31.5749 41.0672 31.5749C41.6906 32.1984 42.3187 32.8265 42.9422 33.4499C42.9328 32.3484 42.6187 31.1859 41.9719 30.2859C41.55 29.6999 41.1281 29.2734 40.5562 28.8421C40.1109 28.5046 39.6094 28.2749 39.0844 28.0827C37.0031 27.314 34.425 28.0218 33.0047 29.714C32.1141 30.7781 31.6031 32.0531 31.5891 33.4546C32.2125 32.8312 32.8406 32.2031 33.4641 31.5796C32.2078 31.5796 30.9562 31.5796 29.7 31.5796C29.5172 31.5796 29.3344 31.5796 29.1516 31.5796C29.775 32.2031 30.4031 32.8312 31.0266 33.4546C31.0266 32.9015 31.0266 32.3531 31.0266 31.7999C31.0266 30.4781 31.0266 29.1515 31.0266 27.8296C31.0266 26.2265 31.0266 24.6281 31.0266 23.0249C31.0266 21.6421 31.0266 20.2546 31.0266 18.8718C31.0266 18.1968 31.0406 17.5218 31.0266 16.8468C31.0266 16.8374 31.0266 16.8281 31.0266 16.8187C30.4031 17.4421 29.775 18.0702 29.1516 18.6937C30.1078 18.6937 31.0641 18.6937 32.0203 18.6937C33.5156 18.6937 35.0109 18.6937 36.5062 18.6937C36.9047 18.6937 37.3219 18.6656 37.7156 18.7124C37.5516 18.689 37.3828 18.6656 37.2187 18.6468C37.3875 18.6749 37.5422 18.7171 37.7016 18.7781C37.5516 18.7171 37.4016 18.6515 37.2516 18.5906C37.4297 18.6656 37.5937 18.7593 37.7437 18.8765C37.6172 18.7781 37.4906 18.6796 37.3641 18.5812C37.6734 18.8296 37.9172 19.1718 38.1703 19.4718C38.625 20.0156 39.0797 20.5593 39.5391 21.1031C40.6031 22.3734 41.6672 23.6484 42.7359 24.9187C42.9937 25.2281 43.2562 25.5327 43.5094 25.8421C43.4109 25.7156 43.3125 25.589 43.2141 25.4624C43.3219 25.6077 43.4062 25.7531 43.4812 25.9171C43.4203 25.7671 43.3547 25.6171 43.2937 25.4671C43.3594 25.6312 43.4062 25.7952 43.4344 25.9734C43.4109 25.8093 43.3875 25.6406 43.3687 25.4765C43.3922 25.5749 43.4016 25.6734 43.4016 25.7765C43.4109 26.264 43.6031 26.7562 43.95 27.1031C44.2734 27.4265 44.8078 27.6749 45.2766 27.6515C46.275 27.6046 47.1703 26.8265 47.1516 25.7765C47.1375 25.1015 46.9734 24.4827 46.6641 23.8827C46.5187 23.6015 46.3078 23.3531 46.1062 23.1093C46.0219 23.0109 45.9422 22.9124 45.8578 22.814C45.45 22.3265 45.0375 21.8343 44.6297 21.3468C43.5234 20.0249 42.4125 18.6984 41.3062 17.3765C41.0016 17.0109 40.6969 16.6452 40.3922 16.2843C39.6469 15.3984 38.5078 14.939 37.3641 14.939C36.0094 14.9343 34.65 14.939 33.2953 14.939C31.9406 14.939 30.5812 14.9249 29.2266 14.939C29.2031 14.939 29.1797 14.939 29.1562 14.939C28.1437 14.939 27.2812 15.7968 27.2812 16.814C27.2812 17.3671 27.2812 17.9156 27.2812 18.4687C27.2812 19.7906 27.2812 21.1171 27.2812 22.439C27.2812 24.0421 27.2812 25.6406 27.2812 27.2437C27.2812 28.6265 27.2812 30.014 27.2812 31.3968C27.2812 32.0718 27.2719 32.7468 27.2812 33.4218C27.2812 33.4312 27.2812 33.4406 27.2812 33.4499C27.2812 34.4624 28.1391 35.3249 29.1562 35.3249C30.4125 35.3249 31.6641 35.3249 32.9203 35.3249C33.1031 35.3249 33.2859 35.3249 33.4687 35.3249C34.4906 35.3249 35.3344 34.4671 35.3437 33.4499C35.3437 33.2765 35.3578 33.1031 35.3812 32.9296C35.3578 33.0937 35.3344 33.2624 35.3156 33.4265C35.3625 33.089 35.4562 32.7656 35.5828 32.4562C35.5219 32.6062 35.4562 32.7562 35.3953 32.9062C35.5266 32.6015 35.6953 32.3202 35.8969 32.0577C35.7984 32.1843 35.7 32.3109 35.6016 32.4374C35.7937 32.1937 36.0094 31.9781 36.2531 31.7859C36.1266 31.8843 36 31.9827 35.8734 32.0812C36.1359 31.8796 36.4172 31.7109 36.7219 31.5796C36.5719 31.6406 36.4219 31.7062 36.2719 31.7671C36.5859 31.6359 36.9094 31.5468 37.2422 31.4999C37.0781 31.5234 36.9094 31.5468 36.7453 31.5656C37.0922 31.5187 37.4391 31.5187 37.7859 31.5656C37.6219 31.5421 37.4531 31.5187 37.2891 31.4999C37.6266 31.5468 37.95 31.6406 38.2594 31.7671C38.1094 31.7062 37.9594 31.6406 37.8094 31.5796C38.1141 31.7109 38.3953 31.8796 38.6578 32.0812C38.5312 31.9827 38.4047 31.8843 38.2781 31.7859C38.5219 31.9781 38.7375 32.1937 38.9297 32.4374C38.8312 32.3109 38.7328 32.1843 38.6344 32.0577C38.8359 32.3202 39.0047 32.6015 39.1359 32.9062C39.075 32.7562 39.0094 32.6062 38.9484 32.4562C39.0797 32.7702 39.1687 33.0937 39.2156 33.4265C39.1922 33.2624 39.1687 33.0937 39.15 32.9296C39.1734 33.1031 39.1828 33.2765 39.1875 33.4499C39.1969 34.4624 40.0406 35.3249 41.0625 35.3249C41.8031 35.3249 42.5484 35.3249 43.2891 35.3249C43.7812 35.3249 44.2828 35.3343 44.7562 35.1702C45.3281 34.9781 45.8859 34.6593 46.275 34.1906C46.4719 33.9515 46.6594 33.7171 46.7812 33.4359C46.9875 32.9718 47.0812 32.6296 47.1328 32.1234C47.1844 31.5984 47.1469 31.0499 47.1469 30.5249C47.1469 29.564 47.1469 28.6031 47.1469 27.6421C47.1469 27.0187 47.1469 26.3999 47.1469 25.7765C47.1469 24.7968 46.2844 23.8546 45.2719 23.9015C44.2641 23.9484 43.4016 24.7265 43.4016 25.7765ZM13.2703 33.4452C13.2703 33.6187 13.2562 33.7921 13.2328 33.9656C13.2562 33.8015 13.2797 33.6327 13.2984 33.4687C13.2516 33.8062 13.1578 34.1296 13.0312 34.439C13.0922 34.289 13.1578 34.139 13.2187 33.989C13.0875 34.2937 12.9187 34.5749 12.7172 34.8374C12.8156 34.7109 12.9141 34.5843 13.0125 34.4577C12.8203 34.7015 12.6047 34.9171 12.3609 35.1093C12.4875 35.0109 12.6141 34.9124 12.7406 34.814C12.4781 35.0156 12.1969 35.1843 11.8922 35.3156C12.0422 35.2546 12.1922 35.189 12.3422 35.1281C12.0281 35.2593 11.7047 35.3484 11.3719 35.3952C11.5359 35.3718 11.7047 35.3484 11.8687 35.3296C11.5219 35.3765 11.175 35.3765 10.8281 35.3296C10.9922 35.3531 11.1609 35.3765 11.325 35.3952C10.9875 35.3484 10.6641 35.2546 10.3547 35.1281C10.5047 35.189 10.6547 35.2546 10.8047 35.3156C10.5 35.1843 10.2187 35.0156 9.95625 34.814C10.0828 34.9124 10.2094 35.0109 10.3359 35.1093C10.0922 34.9171 9.87656 34.7015 9.68438 34.4577C9.78281 34.5843 9.88125 34.7109 9.97969 34.8374C9.77812 34.5749 9.60937 34.2937 9.47812 33.989C9.53906 34.139 9.60469 34.289 9.66562 34.439C9.53437 34.1249 9.44531 33.8015 9.39844 33.4687C9.42187 33.6327 9.44531 33.8015 9.46406 33.9656C9.41719 33.6187 9.41719 33.2718 9.46406 32.9249C9.44062 33.089 9.41719 33.2577 9.39844 33.4218C9.44531 33.0843 9.53906 32.7609 9.66562 32.4515C9.60469 32.6015 9.53906 32.7515 9.47812 32.9015C9.60937 32.5968 9.77812 32.3156 9.97969 32.0531C9.88125 32.1796 9.78281 32.3062 9.68438 32.4327C9.87656 32.189 10.0922 31.9734 10.3359 31.7812C10.2094 31.8796 10.0828 31.9781 9.95625 32.0765C10.2187 31.8749 10.5 31.7062 10.8047 31.5749C10.6547 31.6359 10.5047 31.7015 10.3547 31.7624C10.6687 31.6312 10.9922 31.5421 11.325 31.4952C11.1609 31.5187 10.9922 31.5421 10.8281 31.5609C11.175 31.514 11.5219 31.514 11.8687 31.5609C11.7047 31.5374 11.5359 31.514 11.3719 31.4952C11.7094 31.5421 12.0328 31.6359 12.3422 31.7624C12.1922 31.7015 12.0422 31.6359 11.8922 31.5749C12.1969 31.7062 12.4781 31.8749 12.7406 32.0765C12.6141 31.9781 12.4875 31.8796 12.3609 31.7812C12.6047 31.9734 12.8203 32.189 13.0125 32.4327C12.9141 32.3062 12.8156 32.1796 12.7172 32.0531C12.9187 32.3156 13.0875 32.5968 13.2187 32.9015C13.1578 32.7515 13.0922 32.6015 13.0312 32.4515C13.1625 32.7656 13.2516 33.089 13.2984 33.4218C13.275 33.2577 13.2516 33.089 13.2328 32.9249C13.2609 33.0984 13.2703 33.2718 13.2703 33.4452C13.275 33.9281 13.4766 34.4296 13.8187 34.7718C14.1422 35.0952 14.6766 35.3437 15.1453 35.3202C16.1531 35.2734 17.0297 34.4952 17.0203 33.4452C17.0109 32.3343 16.6922 31.1577 16.0312 30.2531C15.6094 29.6812 15.1969 29.2593 14.6344 28.8327C14.1891 28.4906 13.6875 28.2656 13.1625 28.0734C12.6328 27.8765 12.0422 27.7921 11.475 27.7734C10.9172 27.7546 10.3312 27.8296 9.79219 27.9843C8.75625 28.2796 7.74844 28.8937 7.05938 29.7281C6.6 30.2859 6.29531 30.8109 6.02344 31.4812C5.8125 32.0062 5.72813 32.5546 5.67656 33.1171C5.58281 34.2187 5.89688 35.4093 6.46406 36.3515C7.01719 37.2702 7.86094 38.0859 8.84063 38.5312C9.525 38.8406 10.1344 39.0093 10.8797 39.089C11.4375 39.1499 11.9953 39.089 12.5437 38.9812C13.6922 38.7656 14.8453 38.0765 15.5953 37.1812C16.4859 36.1171 16.9969 34.8421 17.0109 33.4406C17.0203 32.4609 16.1437 31.5187 15.1359 31.5656C14.1234 31.6171 13.2797 32.3952 13.2703 33.4452Z" fill="#393D46"/>
<path d="M39.1922 33.4453C39.1922 33.6188 39.1781 33.7922 39.1547 33.9656C39.1781 33.8016 39.2016 33.6328 39.2203 33.4688C39.1734 33.8063 39.0797 34.1297 38.9531 34.4391C39.0141 34.2891 39.0797 34.1391 39.1406 33.9891C39.0094 34.2938 38.8406 34.575 38.6391 34.8375C38.7375 34.7109 38.8359 34.5844 38.9344 34.4578C38.7422 34.7016 38.5266 34.9172 38.2828 35.1094C38.4094 35.0109 38.5359 34.9125 38.6625 34.8141C38.4 35.0156 38.1187 35.1844 37.8141 35.3156C37.9641 35.2547 38.1141 35.1891 38.2641 35.1281C37.95 35.2594 37.6266 35.3484 37.2937 35.3953C37.4578 35.3719 37.6266 35.3484 37.7906 35.3297C37.4437 35.3766 37.0969 35.3766 36.75 35.3297C36.9141 35.3531 37.0828 35.3766 37.2469 35.3953C36.9094 35.3484 36.5859 35.2547 36.2766 35.1281C36.4266 35.1891 36.5766 35.2547 36.7266 35.3156C36.4219 35.1844 36.1406 35.0156 35.8781 34.8141C36.0047 34.9125 36.1312 35.0109 36.2578 35.1094C36.0141 34.9172 35.7984 34.7016 35.6062 34.4578C35.7047 34.5844 35.8031 34.7109 35.9016 34.8375C35.7 34.575 35.5312 34.2938 35.4 33.9891C35.4609 34.1391 35.5266 34.2891 35.5875 34.4391C35.4562 34.125 35.3672 33.8016 35.3203 33.4688C35.3437 33.6328 35.3672 33.8016 35.3859 33.9656C35.3391 33.6188 35.3391 33.2719 35.3859 32.925C35.3625 33.0891 35.3391 33.2578 35.3203 33.4219C35.3672 33.0844 35.4609 32.7609 35.5875 32.4516C35.5266 32.6016 35.4609 32.7516 35.4 32.9016C35.5312 32.5969 35.7 32.3156 35.9016 32.0531C35.8031 32.1797 35.7047 32.3063 35.6062 32.4328C35.7984 32.1891 36.0141 31.9735 36.2578 31.7813C36.1312 31.8797 36.0047 31.9781 35.8781 32.0766C36.1406 31.875 36.4219 31.7063 36.7266 31.575C36.5766 31.636 36.4266 31.7016 36.2766 31.7625C36.5906 31.6313 36.9141 31.5422 37.2469 31.4953C37.0828 31.5188 36.9141 31.5422 36.75 31.561C37.0969 31.5141 37.4437 31.5141 37.7906 31.561C37.6266 31.5375 37.4578 31.5141 37.2937 31.4953C37.6312 31.5422 37.9547 31.636 38.2641 31.7625C38.1141 31.7016 37.9641 31.636 37.8141 31.575C38.1187 31.7063 38.4 31.875 38.6625 32.0766C38.5359 31.9781 38.4094 31.8797 38.2828 31.7813C38.5266 31.9735 38.7422 32.1891 38.9344 32.4328C38.8359 32.3063 38.7375 32.1797 38.6391 32.0531C38.8406 32.3156 39.0094 32.5969 39.1406 32.9016C39.0797 32.7516 39.0141 32.6016 38.9531 32.4516C39.0844 32.7656 39.1734 33.0891 39.2203 33.4219C39.1969 33.2578 39.1734 33.0891 39.1547 32.925C39.1781 33.0985 39.1922 33.2719 39.1922 33.4453C39.1969 33.9281 39.3984 34.4297 39.7406 34.7719C40.064 35.0953 40.5984 35.3438 41.0672 35.3203C42.075 35.2734 42.9515 34.4953 42.9422 33.4453C42.9328 32.3344 42.614 31.1578 41.9531 30.2531C41.5312 29.6813 41.1187 29.2594 40.5562 28.8328C40.1109 28.4906 39.6094 28.2656 39.0844 28.0735C38.5547 27.8766 37.9641 27.7922 37.3969 27.7735C36.8391 27.7547 36.2531 27.8297 35.7141 27.9844C34.6781 28.2797 33.6703 28.8938 32.9812 29.7281C32.5219 30.286 32.2172 30.811 31.9453 31.4813C31.7344 32.0063 31.65 32.5547 31.5984 33.1172C31.5047 34.2188 31.8188 35.4094 32.3859 36.3516C32.9391 37.2703 33.7828 38.0859 34.7625 38.5313C35.4469 38.8406 36.0562 39.0094 36.8016 39.0891C37.3594 39.15 37.9172 39.0891 38.4656 38.9813C39.614 38.7656 40.7672 38.0766 41.5172 37.1813C42.4078 36.1172 42.9187 34.8422 42.9328 33.4406C42.9422 32.461 42.0656 31.5188 41.0578 31.5656C40.0453 31.6172 39.2015 32.3953 39.1922 33.4453Z" fill="#393D46"/>
</svg>
