<svg width="44" height="35" viewBox="0 0 44 35" fill="none" xmlns="http://www.w3.org/2000/svg">
<g clip-path="url(#clip0_2_1546)">
<path d="M42.6562 14.2188H38.2812V9.84375C38.2812 9.24219 37.7891 8.75 37.1875 8.75H35C34.3984 8.75 33.9062 9.24219 33.9062 9.84375V14.2188H29.5312C28.9297 14.2188 28.4375 14.7109 28.4375 15.3125V17.5C28.4375 18.1016 28.9297 18.5938 29.5312 18.5938H33.9062V22.9688C33.9062 23.5703 34.3984 24.0625 35 24.0625H37.1875C37.7891 24.0625 38.2812 23.5703 38.2812 22.9688V18.5938H42.6562C43.2578 18.5938 43.75 18.1016 43.75 17.5V15.3125C43.75 14.7109 43.2578 14.2188 42.6562 14.2188ZM15.3125 17.5C20.1455 17.5 24.0625 13.583 24.0625 8.75C24.0625 3.91699 20.1455 0 15.3125 0C10.4795 0 6.5625 3.91699 6.5625 8.75C6.5625 13.583 10.4795 17.5 15.3125 17.5ZM21.4375 19.6875H20.2959C18.7783 20.3848 17.0898 20.7812 15.3125 20.7812C13.5352 20.7812 11.8535 20.3848 10.3291 19.6875H9.1875C4.11523 19.6875 0 23.8027 0 28.875V31.7188C0 33.5303 1.46973 35 3.28125 35H27.3438C29.1553 35 30.625 33.5303 30.625 31.7188V28.875C30.625 23.8027 26.5098 19.6875 21.4375 19.6875Z" fill="#FEA400"/>
</g>
<defs>
<clipPath id="clip0_2_1546">
<rect width="43.75" height="35" fill="white"/>
</clipPath>
</defs>
</svg>
