<svg width="32" height="32" viewBox="0 0 32 32" fill="none" xmlns="http://www.w3.org/2000/svg">
<path d="M15.9987 15.9998C17.3172 15.9998 18.6062 15.6088 19.7025 14.8763C20.7988 14.1438 21.6533 13.1026 22.1579 11.8844C22.6625 10.6662 22.7945 9.32578 22.5373 8.03257C22.28 6.73937 21.6451 5.55148 20.7127 4.61913C19.7804 3.68678 18.5925 3.05184 17.2993 2.79461C16.0061 2.53737 14.6656 2.66939 13.4475 3.17398C12.2293 3.67856 11.1881 4.53304 10.4556 5.62937C9.72302 6.7257 9.33203 8.01463 9.33203 9.33317C9.33415 11.1006 10.0372 12.7951 11.287 14.0449C12.5368 15.2947 14.2312 15.9977 15.9987 15.9998V15.9998ZM15.9987 5.33317C16.7898 5.33317 17.5632 5.56777 18.221 6.0073C18.8788 6.44682 19.3915 7.07154 19.6942 7.80244C19.997 8.53334 20.0762 9.33761 19.9218 10.1135C19.7675 10.8895 19.3865 11.6022 18.8271 12.1616C18.2677 12.721 17.555 13.102 16.7791 13.2563C16.0031 13.4107 15.1989 13.3314 14.468 13.0287C13.7371 12.7259 13.1123 12.2133 12.6728 11.5555C12.2333 10.8977 11.9987 10.1243 11.9987 9.33317C11.9987 8.27231 12.4201 7.25489 13.1703 6.50475C13.9204 5.7546 14.9378 5.33317 15.9987 5.33317V5.33317Z" fill="black"/>
<path d="M27.9805 26.4465C27.3999 23.7474 25.8729 21.3451 23.6755 19.6737C21.4781 18.0023 18.7553 17.1721 15.9991 17.3332C13.243 17.1721 10.5202 18.0023 8.32283 19.6737C6.12544 21.3451 4.59844 23.7474 4.01781 26.4465L3.75781 27.9998H28.2405L27.9805 26.4465ZM7.12981 25.3332C7.98981 23.2998 10.2658 19.9998 15.9991 19.9998C21.6805 19.9998 23.9765 23.2972 24.8538 25.3332H7.12981Z" fill="black"/>
</svg>
