<svg width="132" height="19" viewBox="0 0 132 19" fill="none" xmlns="http://www.w3.org/2000/svg">
<path d="M0 0.287672H5.20426L10.5131 11.01L15.7959 0.287672H21.0001V18.6203H16.7635L16.7373 7.00876L12.0561 16.7896H8.97016L4.26279 7.00876V18.6203H0V0.287672Z" fill="#F50D32"/>
<path d="M33.3034 0C35.169 0 36.8514 0.409716 38.3508 1.22915C39.8676 2.04858 41.0532 3.17312 41.9075 4.60276C42.7792 6.03241 43.2151 7.63641 43.2151 9.41475C43.2151 11.2105 42.7792 12.832 41.9075 14.279C41.0532 15.7261 39.8676 16.8681 38.3508 17.705C36.8514 18.5418 35.169 18.9603 33.3034 18.9603C31.4379 18.9603 29.7468 18.5505 28.2299 17.7311C26.7306 16.8942 25.545 15.7523 24.6733 14.3052C23.819 12.8407 23.3918 11.2105 23.3918 9.41475C23.3918 7.63641 23.819 6.03241 24.6733 4.60276C25.545 3.17312 26.7306 2.04858 28.2299 1.22915C29.7468 0.409716 31.4379 0 33.3034 0ZM33.3557 4.05357C32.4491 4.05357 31.6036 4.28894 30.819 4.75968C30.0519 5.23041 29.4417 5.88422 28.9883 6.72108C28.535 7.54051 28.3084 8.44712 28.3084 9.4409C28.3084 10.4521 28.535 11.3762 28.9883 12.213C29.4591 13.0324 30.078 13.6863 30.8451 14.1744C31.6123 14.6452 32.4491 14.8805 33.3557 14.8805C34.2624 14.8805 35.0905 14.6452 35.8402 14.1744C36.6073 13.6863 37.2088 13.0324 37.6447 12.213C38.0806 11.3762 38.2985 10.4521 38.2985 9.4409C38.2985 8.44712 38.0806 7.54051 37.6447 6.72108C37.2088 5.88422 36.6073 5.23041 35.8402 4.75968C35.0905 4.28894 34.2624 4.05357 33.3557 4.05357Z" fill="#F50D32"/>
<path d="M54.296 0.287672C55.6733 0.287672 56.8676 0.479454 57.8788 0.863018C58.9075 1.22915 59.7008 1.76091 60.2587 2.45829C60.8166 3.15568 61.0955 3.97511 61.0955 4.91659C61.0955 5.8755 60.8079 6.71236 60.2325 7.42719C59.6746 8.14201 58.9075 8.63018 57.9311 8.89171C59.0993 9.11836 60.0146 9.65011 60.6771 10.487C61.3571 11.3238 61.697 12.3351 61.697 13.5206C61.697 14.5493 61.4094 15.4559 60.834 16.2404C60.2587 17.0076 59.4392 17.6003 58.3757 18.0188C57.3122 18.4198 56.0656 18.6203 54.636 18.6203H45.5874V0.287672H54.296ZM54.0345 7.5841C54.697 7.5841 55.22 7.42719 55.6036 7.11336C55.9872 6.7821 56.1789 6.3288 56.1789 5.75346C56.1789 5.19554 55.9872 4.76839 55.6036 4.472C55.22 4.15818 54.697 4.00998 54.0345 4.02742H50.3732V7.5841H54.0345ZM54.0345 14.9067C54.8713 14.9067 55.5339 14.7323 56.022 14.3836C56.5102 14.0349 56.7543 13.5468 56.7543 12.9191C56.7543 12.3438 56.5102 11.8905 56.022 11.5592C55.5339 11.2105 54.8713 11.0449 54.0345 11.0623H50.3732V14.9067H54.0345Z" fill="#F50D32"/>
<path d="M72.2055 0.287672C74.1233 0.287672 75.8145 0.671236 77.279 1.43836C78.7609 2.20549 79.9116 3.28644 80.731 4.68122C81.5505 6.05856 81.9602 7.64512 81.9602 9.4409C81.9602 11.2367 81.5418 12.832 80.7049 14.2267C79.8855 15.6215 78.7173 16.7025 77.2005 17.4696C75.7011 18.2367 73.9751 18.6203 72.0224 18.6203H64.3075V0.287672H72.2055ZM72.3362 14.7498C73.2603 14.7498 74.0797 14.5318 74.7945 14.096C75.5093 13.6601 76.0673 13.0412 76.4683 12.2392C76.8693 11.4372 77.0698 10.5219 77.0698 9.4932C77.0698 8.44712 76.8518 7.52308 76.416 6.72108C75.9975 5.91909 75.4135 5.30015 74.6638 4.86429C73.9141 4.41098 73.0598 4.18433 72.1009 4.18433H69.0934V14.7498H72.3362Z" fill="#F50D32"/>
<path d="M84.3302 0.287672H98.7923V4.10588H89.1161V7.5318H97.8508V11.3238L89.1161 11.35V14.8021H99.0538V18.6203H84.3302V0.287672Z" fill="#F50D32"/>
<path d="M100.147 0.287672H105.299L109.876 13.5468L114.478 0.287672H119.395L112.229 18.6203H107.26L100.147 0.287672Z" fill="#F50D32"/>
<path d="M123.953 10.5734H132V18.6202H123.953V10.5734Z" fill="white"/>
</svg>
