<svg width="24" height="24" viewBox="0 0 24 24" fill="none" xmlns="http://www.w3.org/2000/svg">
<path d="M21.7072 20.2932L17.1682 15.7542C18.5151 14.0467 19.1586 11.889 18.9672 9.72265C18.7757 7.55628 17.7638 5.54494 16.1383 4.10009C14.5128 2.65524 12.3967 1.88608 10.2228 1.94997C8.04892 2.01386 5.98162 2.90597 4.44379 4.44379C2.90597 5.98162 2.01386 8.04892 1.94997 10.2228C1.88608 12.3967 2.65524 14.5128 4.10009 16.1383C5.54494 17.7638 7.55628 18.7757 9.72265 18.9672C11.889 19.1586 14.0467 18.5151 15.7542 17.1682L20.2932 21.7072L21.7072 20.2932ZM10.5002 17.0002C9.21462 17.0002 7.95791 16.619 6.88899 15.9048C5.82007 15.1905 4.98695 14.1754 4.49498 12.9876C4.00301 11.7999 3.87429 10.493 4.12509 9.23211C4.3759 7.97123 4.99496 6.81305 5.904 5.904C6.81305 4.99496 7.97123 4.3759 9.23211 4.12509C10.493 3.87429 11.7999 4.00301 12.9876 4.49498C14.1754 4.98695 15.1905 5.82007 15.9048 6.88899C16.619 7.95791 17.0002 9.21462 17.0002 10.5002C16.9981 12.2235 16.3126 13.8755 15.0941 15.0941C13.8755 16.3126 12.2235 16.9981 10.5002 17.0002V17.0002Z" fill="white"/>
</svg>
