<svg width="217" height="21" viewBox="0 0 217 21" fill="none" xmlns="http://www.w3.org/2000/svg">
<g clip-path="url(#clip0_0_511)">
<path d="M56.75 7.00781C54.25 7.00781 52.2578 9.03906 52.2578 11.5C52.2578 14 54.25 15.9922 56.75 15.9922C59.2109 15.9922 61.2422 14 61.2422 11.5C61.2422 9.03906 59.2109 7.00781 56.75 7.00781ZM56.75 14.4297C55.1484 14.4297 53.8203 13.1406 53.8203 11.5C53.8203 9.89844 55.1094 8.60938 56.75 8.60938C58.3516 8.60938 59.6406 9.89844 59.6406 11.5C59.6406 13.1406 58.3516 14.4297 56.75 14.4297ZM62.4531 6.85156C62.4531 6.26562 61.9844 5.79688 61.3984 5.79688C60.8125 5.79688 60.3438 6.26562 60.3438 6.85156C60.3438 7.4375 60.8125 7.90625 61.3984 7.90625C61.9844 7.90625 62.4531 7.4375 62.4531 6.85156ZM65.4219 7.90625C65.3438 6.5 65.0312 5.25 64.0156 4.23438C63 3.21875 61.75 2.90625 60.3438 2.82812C58.8984 2.75 54.5625 2.75 53.1172 2.82812C51.7109 2.90625 50.5 3.21875 49.4453 4.23438C48.4297 5.25 48.1172 6.5 48.0391 7.90625C47.9609 9.35156 47.9609 13.6875 48.0391 15.1328C48.1172 16.5391 48.4297 17.75 49.4453 18.8047C50.5 19.8203 51.7109 20.1328 53.1172 20.2109C54.5625 20.2891 58.8984 20.2891 60.3438 20.2109C61.75 20.1328 63 19.8203 64.0156 18.8047C65.0312 17.75 65.3438 16.5391 65.4219 15.1328C65.5 13.6875 65.5 9.35156 65.4219 7.90625ZM63.5469 16.6562C63.2734 17.4375 62.6484 18.0234 61.9062 18.3359C60.7344 18.8047 58 18.6875 56.75 18.6875C55.4609 18.6875 52.7266 18.8047 51.5938 18.3359C50.8125 18.0234 50.2266 17.4375 49.9141 16.6562C49.4453 15.5234 49.5625 12.7891 49.5625 11.5C49.5625 10.25 49.4453 7.51562 49.9141 6.34375C50.2266 5.60156 50.8125 5.01562 51.5938 4.70312C52.7266 4.23438 55.4609 4.35156 56.75 4.35156C58 4.35156 60.7344 4.23438 61.9062 4.70312C62.6484 4.97656 63.2344 5.60156 63.5469 6.34375C64.0156 7.51562 63.8984 10.25 63.8984 11.5C63.8984 12.7891 64.0156 15.5234 63.5469 16.6562Z" fill="#264653"/>
<path d="M110.844 5.32812C109.242 3.6875 107.055 2.75 104.711 2.75C99.9453 2.75 96.0391 6.65625 96.0391 11.4219C96.0391 12.9844 96.4688 14.4688 97.2109 15.7578L96 20.25L100.57 19.0781C101.859 19.7422 103.266 20.1328 104.711 20.1328C109.516 20.1328 113.5 16.2266 113.5 11.4609C113.5 9.11719 112.484 6.96875 110.844 5.32812ZM104.711 18.6484C103.422 18.6484 102.172 18.2969 101.039 17.6328L100.805 17.4766L98.0703 18.2188L98.8125 15.5625L98.6172 15.2891C97.9141 14.1172 97.5234 12.7891 97.5234 11.4219C97.5234 7.47656 100.766 4.23438 104.75 4.23438C106.664 4.23438 108.461 4.97656 109.828 6.34375C111.195 7.71094 112.016 9.50781 112.016 11.4609C112.016 15.4062 108.695 18.6484 104.711 18.6484ZM108.695 13.2578C108.461 13.1406 107.406 12.6328 107.211 12.5547C107.016 12.4766 106.859 12.4375 106.703 12.6719C106.586 12.8672 106.156 13.375 106.039 13.5312C105.883 13.6484 105.766 13.6875 105.57 13.5703C104.281 12.9453 103.461 12.4375 102.602 10.9922C102.367 10.6016 102.836 10.6406 103.227 9.82031C103.305 9.66406 103.266 9.54688 103.227 9.42969C103.188 9.3125 102.719 8.25781 102.562 7.82812C102.367 7.39844 102.211 7.4375 102.055 7.4375C101.938 7.4375 101.781 7.4375 101.664 7.4375C101.508 7.4375 101.273 7.47656 101.078 7.71094C100.883 7.94531 100.336 8.45312 100.336 9.50781C100.336 10.6016 101.078 11.6172 101.195 11.7734C101.312 11.8906 102.719 14.0781 104.906 15.0156C106.273 15.6406 106.82 15.6797 107.523 15.5625C107.914 15.5234 108.773 15.0547 108.969 14.5469C109.164 14.0391 109.164 13.6094 109.086 13.5312C109.047 13.4141 108.891 13.375 108.695 13.2578Z" fill="#264653"/>
<path d="M166.445 6.38281C166.211 5.44531 165.469 4.70312 164.57 4.46875C162.891 4 156.25 4 156.25 4C156.25 4 149.57 4 147.891 4.46875C146.992 4.70312 146.25 5.44531 146.016 6.38281C145.547 8.02344 145.547 11.5391 145.547 11.5391C145.547 11.5391 145.547 15.0156 146.016 16.6953C146.25 17.6328 146.992 18.3359 147.891 18.5703C149.57 19 156.25 19 156.25 19C156.25 19 162.891 19 164.57 18.5703C165.469 18.3359 166.211 17.6328 166.445 16.6953C166.914 15.0156 166.914 11.5391 166.914 11.5391C166.914 11.5391 166.914 8.02344 166.445 6.38281ZM154.062 14.7031V8.375L159.609 11.5391L154.062 14.7031Z" fill="#264653"/>
<path d="M215.25 2.75H200.211C199.547 2.75 199 3.33594 199 4.03906V19C199 19.7031 199.547 20.25 200.211 20.25H215.25C215.914 20.25 216.5 19.7031 216.5 19V4.03906C216.5 3.33594 215.914 2.75 215.25 2.75ZM204.273 17.75H201.695V9.42969H204.273V17.75ZM202.984 8.25781C202.125 8.25781 201.461 7.59375 201.461 6.77344C201.461 5.95312 202.125 5.25 202.984 5.25C203.805 5.25 204.469 5.95312 204.469 6.77344C204.469 7.59375 203.805 8.25781 202.984 8.25781ZM214 17.75H211.383V13.6875C211.383 12.75 211.383 11.5 210.055 11.5C208.688 11.5 208.492 12.5547 208.492 13.6484V17.75H205.914V9.42969H208.375V10.5625H208.414C208.766 9.89844 209.625 9.19531 210.875 9.19531C213.492 9.19531 214 10.9531 214 13.1797V17.75Z" fill="#264653"/>
<path d="M19.6875 11.5C19.6875 6.14844 15.3516 1.8125 10 1.8125C4.64844 1.8125 0.3125 6.14844 0.3125 11.5C0.3125 16.3438 3.82812 20.3672 8.47656 21.0703V14.3125H6.01562V11.5H8.47656V9.39062C8.47656 6.96875 9.92188 5.60156 12.1094 5.60156C13.2031 5.60156 14.2969 5.79688 14.2969 5.79688V8.17969H13.0859C11.875 8.17969 11.4844 8.92188 11.4844 9.70312V11.5H14.1797L13.75 14.3125H11.4844V21.0703C16.1328 20.3672 19.6875 16.3438 19.6875 11.5Z" fill="#264653"/>
</g>
<defs>
<clipPath id="clip0_0_511">
<rect width="217" height="21" fill="white"/>
</clipPath>
</defs>
</svg>
