<svg width="120" height="120" viewBox="0 0 120 120" fill="none" xmlns="http://www.w3.org/2000/svg">
<circle cx="60" cy="60" r="59" stroke="#9F9F9F" stroke-width="2"/>
<path d="M78.5528 78.0513C80.1714 78.0513 81.8028 77.7085 83.1358 76.7374C84.6719 75.6202 85.9033 74.0142 86.2461 72.1036C86.4873 70.7452 86.4112 69.3614 86.4112 67.9903C86.4112 64.8545 86.4302 61.7124 86.4112 58.5704C86.4048 57.085 85.9795 55.5298 85.0972 54.3238C83.9863 52.8003 82.3994 51.5752 80.5078 51.2261C79.7779 51.0865 79.0288 51.0166 78.2862 51.0547C77.169 51.1119 76.1978 51.3848 75.1948 51.8545C73.4429 52.6734 72.2051 54.2603 71.5132 56.0186C70.9546 57.4341 71.0625 59.0083 71.0625 60.5C71.0625 62.379 71.0625 64.2642 71.0625 66.1431C71.0625 67.5523 71.0625 68.9615 71.0625 70.3707C71.0625 71.6338 71.3355 72.7764 71.8687 73.9126C72.6812 75.6646 74.2744 76.9024 76.0327 77.5943C76.8262 77.9117 77.7022 78.045 78.5528 78.0513C79.8794 78.064 81.1553 76.877 81.0918 75.5123C81.0283 74.1285 79.9746 72.9859 78.5528 72.9732C78.3179 72.9732 78.0894 72.9541 77.8545 72.9224C78.0767 72.9541 78.3052 72.9859 78.5274 73.0113C78.1021 72.9478 77.6958 72.8335 77.3023 72.6685C77.5054 72.751 77.7085 72.8399 77.9116 72.9224C77.5244 72.7574 77.169 72.5479 76.8325 72.294C77.0039 72.4273 77.1753 72.5606 77.3467 72.6939C76.9976 72.4209 76.6865 72.1099 76.4136 71.7608C76.5469 71.9322 76.6802 72.1036 76.8135 72.2749C76.5596 71.9385 76.3501 71.5831 76.1851 71.1958C76.2676 71.399 76.3565 71.6021 76.439 71.8052C76.2739 71.4117 76.1597 71.0054 76.0962 70.5801C76.1279 70.8023 76.1597 71.0308 76.1851 71.253C76.1089 70.688 76.1343 70.1104 76.1343 69.5391C76.1343 68.5552 76.1343 67.5777 76.1343 66.5938C76.1343 64.334 76.1343 62.0806 76.1343 59.8208C76.1343 59.1607 76.0962 58.4878 76.1851 57.834C76.1533 58.0562 76.1216 58.2847 76.0962 58.5069C76.1597 58.0816 76.2739 57.6753 76.439 57.2818C76.3565 57.4849 76.2676 57.688 76.1851 57.8912C76.3501 57.504 76.5596 57.1485 76.8135 56.8121C76.6802 56.9834 76.5469 57.1548 76.4136 57.3262C76.6865 56.9771 76.9976 56.6661 77.3467 56.3931C77.1753 56.5264 77.0039 56.6597 76.8325 56.793C77.169 56.5391 77.5244 56.3296 77.9116 56.1646C77.7085 56.2471 77.5054 56.336 77.3023 56.4185C77.6958 56.2535 78.1021 56.1392 78.5274 56.0757C78.3052 56.1075 78.0767 56.1392 77.8545 56.1646C78.4321 56.0884 79.0415 56.0884 79.6192 56.1646C79.397 56.1329 79.1685 56.1011 78.9463 56.0757C79.3716 56.1392 79.7779 56.2535 80.1714 56.4185C79.9683 56.336 79.7652 56.2471 79.562 56.1646C79.9492 56.3296 80.3047 56.5391 80.6411 56.793C80.4697 56.6597 80.2984 56.5264 80.127 56.3931C80.4761 56.6661 80.7871 56.9771 81.0601 57.3262C80.9268 57.1548 80.7935 56.9834 80.6602 56.8121C80.9141 57.1485 81.1236 57.504 81.2886 57.8912C81.2061 57.688 81.1172 57.4849 81.0347 57.2818C81.1997 57.6753 81.314 58.0816 81.3775 58.5069C81.3457 58.2847 81.314 58.0562 81.2886 57.834C81.3648 58.399 81.3394 58.9766 81.3394 59.5479C81.3394 60.5318 81.3394 61.5093 81.3394 62.4932C81.3394 64.753 81.3394 67.0064 81.3394 69.2662C81.3394 69.9263 81.3775 70.5992 81.2886 71.253C81.3203 71.0308 81.3521 70.8023 81.3775 70.5801C81.314 71.0054 81.1997 71.4117 81.0347 71.8052C81.1172 71.6021 81.2061 71.399 81.2886 71.1958C81.1236 71.5831 80.9141 71.9385 80.6602 72.2749C80.7935 72.1036 80.9268 71.9322 81.0601 71.7608C80.7871 72.1099 80.4761 72.4209 80.127 72.6939C80.2984 72.5606 80.4697 72.4273 80.6411 72.294C80.3047 72.5479 79.9492 72.7574 79.562 72.9224C79.7652 72.8399 79.9683 72.751 80.1714 72.6685C79.7779 72.8335 79.3716 72.9478 78.9463 73.0113C79.1685 72.9795 79.397 72.9478 79.6192 72.9224C79.2637 72.9668 78.9082 72.9732 78.5528 72.9732C77.2261 72.9732 75.9502 74.1412 76.0137 75.5123C76.0772 76.8897 77.1309 78.0513 78.5528 78.0513ZM42.0791 78.0513C43.6978 78.0513 45.3291 77.7085 46.6621 76.7374C48.1983 75.6202 49.4297 74.0142 49.7725 72.1036C50.0137 70.7452 49.9375 69.3614 49.9375 67.9903C49.9375 64.8545 49.9566 61.7124 49.9375 58.5704C49.9312 57.085 49.5059 55.5298 48.6236 54.3238C47.5127 52.8003 45.9258 51.5752 44.0342 51.2261C43.3042 51.0865 42.5552 51.0166 41.8125 51.0547C40.6953 51.1119 39.7241 51.3848 38.7212 51.8545C36.9693 52.6734 35.7315 54.2603 35.0396 56.0186C34.481 57.4341 34.5889 59.0083 34.5889 60.5C34.5889 62.379 34.5889 64.2642 34.5889 66.1431C34.5889 67.5523 34.5889 68.9615 34.5889 70.3707C34.5889 71.6338 34.8618 72.7764 35.395 73.9126C36.2075 75.6646 37.8008 76.9024 39.5591 77.5943C40.3526 77.9117 41.2285 78.045 42.0791 78.0513C43.4058 78.064 44.6817 76.877 44.6182 75.5123C44.5547 74.1285 43.501 72.9859 42.0791 72.9732C41.8443 72.9732 41.6157 72.9541 41.3809 72.9224C41.603 72.9541 41.8316 72.9859 42.0537 73.0113C41.6284 72.9478 41.2222 72.8335 40.8286 72.6685C41.0318 72.751 41.2349 72.8399 41.438 72.9224C41.0508 72.7574 40.6953 72.5479 40.3589 72.294C40.5303 72.4273 40.7017 72.5606 40.8731 72.6939C40.5239 72.4209 40.2129 72.1099 39.94 71.7608C40.0733 71.9322 40.2066 72.1036 40.3399 72.2749C40.086 71.9385 39.8765 71.5831 39.7114 71.1958C39.794 71.399 39.8828 71.6021 39.9654 71.8052C39.8003 71.4117 39.6861 71.0054 39.6226 70.5801C39.6543 70.8023 39.6861 71.0308 39.7114 71.253C39.6353 70.688 39.6607 70.1104 39.6607 69.5391C39.6607 68.5552 39.6607 67.5777 39.6607 66.5938C39.6607 64.334 39.6607 62.0806 39.6607 59.8208C39.6607 59.1607 39.6226 58.4878 39.7114 57.834C39.6797 58.0562 39.648 58.2847 39.6226 58.5069C39.6861 58.0816 39.8003 57.6753 39.9654 57.2818C39.8828 57.4849 39.794 57.688 39.7114 57.8912C39.8765 57.504 40.086 57.1485 40.3399 56.8121C40.2066 56.9834 40.0733 57.1548 39.94 57.3262C40.2129 56.9771 40.5239 56.6661 40.8731 56.3931C40.7017 56.5264 40.5303 56.6597 40.3589 56.793C40.6953 56.5391 41.0508 56.3296 41.438 56.1646C41.2349 56.2471 41.0318 56.336 40.8286 56.4185C41.2222 56.2535 41.6284 56.1392 42.0537 56.0757C41.8316 56.1075 41.603 56.1392 41.3809 56.1646C41.9585 56.0884 42.5679 56.0884 43.1455 56.1646C42.9234 56.1329 42.6948 56.1011 42.4727 56.0757C42.898 56.1392 43.3042 56.2535 43.6978 56.4185C43.4946 56.336 43.2915 56.2471 43.0884 56.1646C43.4756 56.3296 43.8311 56.5391 44.1675 56.793C43.9961 56.6597 43.8247 56.5264 43.6533 56.3931C44.0025 56.6661 44.3135 56.9771 44.5864 57.3262C44.4531 57.1548 44.3198 56.9834 44.1865 56.8121C44.4404 57.1485 44.6499 57.504 44.815 57.8912C44.7324 57.688 44.6436 57.4849 44.5611 57.2818C44.7261 57.6753 44.8404 58.0816 44.9038 58.5069C44.8721 58.2847 44.8404 58.0562 44.815 57.834C44.8911 58.399 44.8657 58.9766 44.8657 59.5479C44.8657 60.5318 44.8657 61.5093 44.8657 62.4932C44.8657 64.753 44.8657 67.0064 44.8657 69.2662C44.8657 69.9263 44.9038 70.5992 44.815 71.253C44.8467 71.0308 44.8784 70.8023 44.9038 70.5801C44.8404 71.0054 44.7261 71.4117 44.5611 71.8052C44.6436 71.6021 44.7324 71.399 44.815 71.1958C44.6499 71.5831 44.4404 71.9385 44.1865 72.2749C44.3198 72.1036 44.4531 71.9322 44.5864 71.7608C44.3135 72.1099 44.0025 72.4209 43.6533 72.6939C43.8247 72.5606 43.9961 72.4273 44.1675 72.294C43.8311 72.5479 43.4756 72.7574 43.0884 72.9224C43.2915 72.8399 43.4946 72.751 43.6978 72.6685C43.3042 72.8335 42.898 72.9478 42.4727 73.0113C42.6948 72.9795 42.9234 72.9478 43.1455 72.9224C42.7901 72.9668 42.4346 72.9732 42.0791 72.9732C40.7525 72.9732 39.4766 74.1412 39.5401 75.5123C39.5972 76.8897 40.6572 78.0513 42.0791 78.0513Z" fill="#393D46"/>
<path d="M39.667 70.3769C39.667 68.4218 39.667 66.4667 39.667 64.5117C39.667 61.8012 39.667 59.0908 39.667 56.3803C39.667 55.0727 39.6987 53.7714 39.8701 52.4765C39.8384 52.6987 39.8066 52.9272 39.7813 53.1493C40.0605 51.1054 40.6064 49.1059 41.4063 47.2016C41.3237 47.4047 41.2349 47.6078 41.1523 47.811C41.9458 45.9511 42.9678 44.1991 44.2056 42.5995C44.0723 42.7709 43.939 42.9423 43.8057 43.1137C45.0371 41.5268 46.4653 40.0986 48.0522 38.8671C47.8809 39.0004 47.7095 39.1337 47.5381 39.267C49.1377 38.0356 50.8897 37.0073 52.7495 36.2138C52.5464 36.2963 52.3433 36.3852 52.1401 36.4677C54.0444 35.6679 56.044 35.122 58.0879 34.8427C57.8657 34.8744 57.6372 34.9062 57.415 34.9316C59.4653 34.665 61.541 34.665 63.5913 34.9316C63.3691 34.8998 63.1406 34.8681 62.9185 34.8427C64.9624 35.122 66.9619 35.6679 68.8662 36.4677C68.6631 36.3852 68.46 36.2963 68.2568 36.2138C70.1167 37.0073 71.8687 38.0292 73.4683 39.267C73.2969 39.1337 73.1255 39.0004 72.9541 38.8671C74.541 40.0986 75.9692 41.5268 77.2007 43.1137C77.0674 42.9423 76.9341 42.7709 76.8008 42.5995C78.0322 44.1991 79.0606 45.9511 79.854 47.811C79.7715 47.6078 79.6826 47.4047 79.6001 47.2016C80.3999 49.1059 80.9458 51.1054 81.2251 53.1493C81.1934 52.9272 81.1616 52.6987 81.1362 52.4765C81.314 53.8222 81.3394 55.1679 81.3394 56.5199C81.3394 57.9863 81.3394 59.4462 81.3394 60.9125C81.3394 64.5624 81.3394 68.2123 81.3394 71.8622C81.3394 73.0366 81.3901 74.2299 81.2378 75.3979C81.2695 75.1757 81.3013 74.9472 81.3267 74.725C81.1934 75.6899 80.9395 76.6293 80.565 77.5243C80.6475 77.3212 80.7363 77.1181 80.8189 76.915C80.438 77.8163 79.9429 78.6606 79.3399 79.4413C79.4732 79.27 79.6065 79.0986 79.7398 78.9272C79.1558 79.6762 78.4893 80.3427 77.7402 80.9267C77.9116 80.7934 78.083 80.6601 78.2544 80.5268C77.48 81.1235 76.6294 81.6186 75.728 82.0058C75.9312 81.9233 76.1343 81.8344 76.3374 81.7519C75.436 82.1264 74.5029 82.3803 73.5381 82.5136C73.7603 82.4819 73.9888 82.4501 74.2109 82.4247C73.2271 82.5517 72.2368 82.5263 71.2466 82.5263C70.0151 82.5263 68.7837 82.5263 67.5523 82.5263C67.2412 82.5263 66.9365 82.5263 66.6255 82.5263C65.2988 82.5263 64.023 83.6943 64.0864 85.0654C64.1499 86.4428 65.2036 87.6044 66.6255 87.6044C68.187 87.6044 69.7422 87.6044 71.3037 87.6044C71.8941 87.6044 72.4844 87.6171 73.0747 87.5981C74.9092 87.5409 76.6167 87.1093 78.2925 86.392C81.1172 85.1796 83.5674 82.85 84.9258 80.0951C85.7383 78.4448 86.2017 76.7563 86.3731 74.9218C86.4175 74.4521 86.4175 73.9824 86.4175 73.5063C86.4175 70.2245 86.4175 66.9428 86.4175 63.6611C86.4175 60.9633 86.4238 58.2656 86.4175 55.5678C86.4111 52.6288 85.9224 49.6391 84.9068 46.8779C83.815 43.9072 82.2534 41.2284 80.2222 38.8036C76.4326 34.2841 70.9356 31.0722 65.1275 30.0756C61.8965 29.517 58.6719 29.5361 55.4536 30.1518C52.5273 30.7104 49.6582 31.8466 47.1128 33.3954C41.9014 36.5756 37.9531 41.5204 35.96 47.2778C35.0396 49.9311 34.5952 52.7812 34.5889 55.5868C34.5889 56.6786 34.5889 57.7641 34.5889 58.8559C34.5889 62.4423 34.5889 66.0351 34.5889 69.6215C34.5889 69.8754 34.5889 70.123 34.5889 70.3769C34.5889 71.7035 35.7568 72.9794 37.1279 72.9159C38.499 72.8525 39.667 71.7988 39.667 70.3769Z" fill="#393D46"/>
<path d="M64.0864 85.0591C64.0864 85.2368 64.0737 85.4146 64.0483 85.5859C64.0801 85.3638 64.1118 85.1353 64.1372 84.9131C64.0864 85.2241 64.0039 85.5288 63.8896 85.8208C63.9722 85.6177 64.061 85.4146 64.1435 85.2114C64.0102 85.5225 63.8389 85.8081 63.6357 86.0811C63.769 85.9097 63.9023 85.7383 64.0356 85.5669C63.8452 85.8081 63.6294 86.0239 63.3882 86.2144C63.5596 86.0811 63.7309 85.9478 63.9023 85.8145C63.6357 86.0176 63.3437 86.189 63.0327 86.3223C63.2358 86.2397 63.439 86.1509 63.6421 86.0684C63.3501 86.189 63.0454 86.2715 62.7344 86.3159C62.9565 86.2842 63.185 86.2524 63.4072 86.2271C62.5757 86.335 61.706 86.2651 60.8682 86.2651C60.0176 86.2651 59.1353 86.335 58.291 86.2334C58.5132 86.2651 58.7417 86.2969 58.9639 86.3223C58.6338 86.2715 58.3228 86.189 58.0117 86.062C58.2148 86.1445 58.418 86.2334 58.6211 86.3159C58.3228 86.1826 58.0498 86.0239 57.7896 85.8271C57.9609 85.9604 58.1323 86.0937 58.3037 86.2271C58.0498 86.0239 57.8276 85.8018 57.6245 85.5479C57.7578 85.7192 57.8911 85.8906 58.0244 86.062C57.8276 85.8018 57.6689 85.5288 57.5356 85.2305C57.6182 85.4336 57.707 85.6367 57.7896 85.8398C57.6626 85.5352 57.5801 85.2178 57.5293 84.8877C57.561 85.1099 57.5928 85.3384 57.6182 85.5605C57.5737 85.2114 57.5737 84.8687 57.6182 84.5259C57.5864 84.748 57.5547 84.9766 57.5293 85.1987C57.5801 84.8877 57.6626 84.583 57.7769 84.291C57.6943 84.4941 57.6055 84.6973 57.523 84.9004C57.6563 84.5894 57.8276 84.3037 58.0308 84.0308C57.8975 84.2021 57.7642 84.3735 57.6309 84.5449C57.8213 84.3037 58.0371 84.0879 58.2783 83.8975C58.1069 84.0308 57.9355 84.1641 57.7642 84.2974C58.0308 84.0942 58.3228 83.9229 58.6338 83.7896C58.4307 83.8721 58.2275 83.9609 58.0244 84.0435C58.3164 83.9229 58.6211 83.8403 58.9321 83.7959C58.71 83.8276 58.4814 83.8594 58.2593 83.8848C59.0908 83.7769 59.9604 83.8467 60.7983 83.8467C61.6489 83.8467 62.5312 83.7769 63.3755 83.8784C63.1533 83.8467 62.9248 83.8149 62.7026 83.7896C63.0327 83.8403 63.3437 83.9229 63.6548 84.0498C63.4517 83.9673 63.2485 83.8784 63.0454 83.7959C63.3437 83.9292 63.6167 84.0879 63.8769 84.2847C63.7056 84.1514 63.5342 84.0181 63.3628 83.8848C63.6167 84.0879 63.8389 84.3101 64.042 84.564C63.9087 84.3926 63.7754 84.2212 63.6421 84.0498C63.8389 84.3101 63.9975 84.583 64.1309 84.8813C64.0483 84.6782 63.9595 84.4751 63.8769 84.272C64.0039 84.5767 64.0864 84.894 64.1372 85.2241C64.1055 85.002 64.0737 84.7734 64.0483 84.5513C64.0737 84.7227 64.0801 84.8877 64.0864 85.0591C64.0928 85.7129 64.3657 86.3857 64.8291 86.8555C65.2671 87.2935 65.9907 87.6299 66.6255 87.5981C67.9839 87.5347 69.1836 86.481 69.1645 85.0591C69.1518 83.9038 68.8408 82.6978 68.1997 81.7202C67.5967 80.8062 66.7778 79.9746 65.7876 79.4858C64.8545 79.0288 63.9023 78.7749 62.8486 78.7622C62.5947 78.7622 62.3472 78.7622 62.0933 78.7622C61.1855 78.7622 60.2715 78.7622 59.3638 78.7622C59.1733 78.7622 58.9766 78.7622 58.7861 78.7622C57.7197 78.7749 56.7041 79.0415 55.7583 79.543C54.8442 80.0254 54.1333 80.7681 53.5366 81.5996C52.9209 82.4629 52.6607 83.4849 52.5274 84.5259C52.3877 85.6812 52.6797 86.8428 53.1748 87.8838C53.6509 88.8994 54.457 89.6992 55.3711 90.334C56.5264 91.1338 57.9102 91.3496 59.2812 91.3496C60.189 91.3496 61.0903 91.3496 61.998 91.3496C62.2837 91.3496 62.5757 91.3496 62.8613 91.3496C63.9341 91.3369 64.9497 91.0703 65.8955 90.5688C67.9077 89.5024 69.1391 87.2998 69.1645 85.0527C69.1772 83.7261 67.9839 82.4502 66.6255 82.5137C65.2353 82.5835 64.0991 83.6372 64.0864 85.0591Z" fill="#393D46"/>
</svg>
