<svg width="30" height="30" viewBox="0 0 30 30" fill="none" xmlns="http://www.w3.org/2000/svg">
<rect width="30" height="30" rx="5" fill="#055FFE"/>
<path d="M21.5264 16.1544H16.1538V21.527C16.1538 22.1617 15.6346 22.6809 15 22.6809C14.6827 22.6809 14.3942 22.5511 14.1851 22.3419C13.976 22.1328 13.8461 21.8444 13.8461 21.527V16.1544H8.47355C8.15624 16.1544 7.86778 16.0246 7.65864 15.8155C7.44951 15.6064 7.3197 15.3179 7.3197 15.0006C7.3197 14.366 7.83893 13.8468 8.47355 13.8468H13.8461V8.47416C13.8461 7.83954 14.3654 7.32031 15 7.32031C15.6346 7.32031 16.1538 7.83954 16.1538 8.47416V13.8468H21.5264C22.161 13.8468 22.6803 14.366 22.6803 15.0006C22.6803 15.6352 22.161 16.1544 21.5264 16.1544Z" fill="white"/>
</svg>
