<svg width="25" height="25" viewBox="0 0 25 25" fill="none" xmlns="http://www.w3.org/2000/svg">
<g clip-path="url(#clip0_16_15457)">
<path d="M8.4082 11.0744C7.69531 10.9328 7.03125 11.509 7.03125 12.2365V14.6975C7.03125 15.1955 7.37793 15.5959 7.84668 15.7717C8.73535 16.1037 9.375 16.9631 9.375 17.969C9.375 19.2629 8.3252 20.3127 7.03125 20.3127C5.7373 20.3127 4.6875 19.2629 4.6875 17.969V5.85958C4.6875 5.21017 4.16504 4.68771 3.51562 4.68771H1.17188C0.522461 4.68771 0 5.21017 0 5.85958V17.969C0 22.3391 4.00879 25.7912 8.54492 24.8391C11.2012 24.2824 13.3447 22.134 13.9014 19.4826C14.751 15.4348 12.0947 11.8068 8.4082 11.0744ZM10.2051 0.000206853C9.75586 -0.0242072 9.375 0.332238 9.375 0.781457V2.32443C9.375 2.73946 9.69727 3.08126 10.1074 3.10079C16.4258 3.44259 21.5039 8.56954 21.8701 14.8928C21.8945 15.3029 22.2363 15.6252 22.6465 15.6252H24.2139C24.6631 15.6252 25.0195 15.2443 24.9951 14.7951C24.5801 6.82638 18.1738 0.420129 10.2051 0.000206853ZM10.2197 4.68771C9.76563 4.65353 9.375 5.01486 9.375 5.47384V7.04122C9.375 7.45138 9.69238 7.78829 10.0977 7.81759C13.8477 8.12521 16.8359 11.1477 17.1729 14.9074C17.2119 15.3127 17.5439 15.6252 17.9492 15.6252H19.5215C19.9756 15.6252 20.3418 15.2346 20.3076 14.7805C19.8975 9.4045 15.5957 5.10275 10.2197 4.68771V4.68771Z" fill="#12908D"/>
</g>
<defs>
<clipPath id="clip0_16_15457">
<rect width="25" height="25" fill="white"/>
</clipPath>
</defs>
</svg>
