<svg width="18" height="18" viewBox="0 0 18 18" fill="none" xmlns="http://www.w3.org/2000/svg">
<path fill-rule="evenodd" clip-rule="evenodd" d="M8.48909 8.22852L9.53313 4.36237C9.53457 4.33374 9.53902 4.30535 9.5464 4.27764L10.6195 0.304549C10.648 0.199153 10.7176 0.109335 10.813 0.0548735C10.9083 0.000411735 11.0216 -0.0142288 11.1278 0.0141755L15.9333 1.29165C16.1545 1.35028 16.2859 1.57565 16.2269 1.79508L15.1538 5.76817C15.1254 5.87371 15.0559 5.96373 14.9605 6.01836C14.8652 6.07299 14.7518 6.08774 14.6455 6.05936L10.6493 4.99658L9.76034 8.28857C14.0725 8.80433 17.4144 12.4467 17.4144 16.8632C17.4144 17.0904 17.2287 17.2745 16.9997 17.2745H0.414628C0.185635 17.2745 0 17.0904 0 16.8632C0 12.1662 3.78141 8.34369 8.48909 8.22852ZM11.6096 14.8067C12.5256 14.8067 13.2681 14.0702 13.2681 13.1616C13.2681 12.253 12.5256 11.5164 11.6096 11.5164C10.6936 11.5164 9.95107 12.253 9.95107 13.1616C9.95107 14.0702 10.6936 14.8067 11.6096 14.8067ZM4.97554 15.218C4.97554 15.8995 4.41863 16.4519 3.73165 16.4519C3.04467 16.4519 2.48777 15.8995 2.48777 15.218C2.48777 14.5366 3.04467 13.9842 3.73165 13.9842C4.41863 13.9842 4.97554 14.5366 4.97554 15.218ZM6.81833 11.6992C7.27631 11.6992 7.64758 11.3309 7.64758 10.8766C7.64758 10.4223 7.27631 10.054 6.81833 10.054C6.36034 10.054 5.98907 10.4223 5.98907 10.8766C5.98907 11.3309 6.36034 11.6992 6.81833 11.6992ZM17.693 4.31383L16.4914 3.99467V3.99385L15.9549 5.98039C15.8698 6.29685 15.6613 6.56675 15.3754 6.73061C15.0895 6.89448 14.7496 6.93886 14.4307 6.85398L11.6278 6.1079L11.3061 7.30065C11.247 7.51982 11.378 7.74507 11.5988 7.80407L16.4052 9.08154C16.6261 9.14017 16.8532 9.01025 16.9127 8.79117L17.9857 4.81808C18.0144 4.71271 17.9996 4.60036 17.9447 4.50579C17.8898 4.41121 17.7993 4.34216 17.693 4.31383Z" fill="#13C0DD"/>
</svg>
