<svg width="80" height="80" viewBox="0 0 80 80" fill="none" xmlns="http://www.w3.org/2000/svg">
<rect opacity="0.1" width="80" height="80" rx="40" fill="#B3BAC5"/>
<path fill-rule="evenodd" clip-rule="evenodd" d="M28.7992 23.2002H51.1992C54.292 23.2002 56.7992 25.7074 56.7992 28.8002V40.0002C56.7992 43.093 54.292 45.6002 51.1992 45.6002H28.7992C25.7064 45.6002 23.1992 43.093 23.1992 40.0002V28.8002C23.1992 25.7074 25.7064 23.2002 28.7992 23.2002ZM56.7992 44.8002V44.0002C56.7992 44.0002 55.5903 46.9289 51.1992 47.2002H28.7992C24.3141 46.869 23.1992 44.0002 23.1992 44.0002V44.8002C23.1992 47.893 25.7064 50.4002 28.7992 50.4002H51.1992C54.292 50.4002 56.7992 47.893 56.7992 44.8002ZM56.7992 49.6002V48.8002C56.7992 48.8002 55.5903 51.7289 51.1992 52.0002H28.7992C24.3141 51.669 23.1992 48.8002 23.1992 48.8002V49.6002C23.1992 52.693 25.7064 55.2002 28.7992 55.2002H51.1992C54.292 55.2002 56.7992 52.693 56.7992 49.6002ZM43.1992 29.6002H40.7992V28.8002C40.7992 28.3584 40.441 28.0002 39.9992 28.0002C39.5574 28.0002 39.1992 28.3584 39.1992 28.8002V29.6002H38.4215C37.096 29.6002 36.0215 30.6747 36.0215 32.0002V32.8014C36.0215 34.1269 37.096 35.2014 38.4215 35.2014H41.5992C42.0411 35.2014 42.3992 35.5596 42.3992 36.0014V36.8002C42.3992 37.242 42.0411 37.6002 41.5992 37.6002H37.6188C37.5859 37.1999 37.2568 36.8797 36.8458 36.8672C36.4042 36.8537 36.0353 37.2009 36.0219 37.6425L35.9996 38.3759C35.9859 38.827 36.3479 39.2002 36.7992 39.2002H39.1992V39.9862C39.1992 40.428 39.5574 40.7862 39.9992 40.7862C40.441 40.7862 40.7992 40.428 40.7992 39.9862V39.2002H41.5992C42.9247 39.2002 43.9992 38.1257 43.9992 36.8002V36.0014C43.9992 34.6759 42.9247 33.6014 41.5992 33.6014H38.4215C37.9797 33.6014 37.6215 33.2432 37.6215 32.8014V32.0002C37.6215 31.5584 37.9797 31.2002 38.4215 31.2002H42.423C42.5098 31.5481 42.8244 31.8059 43.1992 31.8059C43.6411 31.8059 43.9992 31.4477 43.9992 31.0059V30.4002C43.9992 29.9584 43.6411 29.6002 43.1992 29.6002Z" fill="#1DA599"/>
</svg>
