<svg width="63" height="50" viewBox="0 0 63 50" fill="none" xmlns="http://www.w3.org/2000/svg">
<g clip-path="url(#clip0_12_5787)">
<path d="M60.9375 40.625H37.2598C37.1875 42.5596 35.8232 43.75 34.0625 43.75H28.125C26.2998 43.75 24.9004 42.0439 24.9248 40.625H1.5625C0.703125 40.625 0 41.3281 0 42.1875V43.75C0 47.1875 2.8125 50 6.25 50H56.25C59.6875 50 62.5 47.1875 62.5 43.75V42.1875C62.5 41.3281 61.7969 40.625 60.9375 40.625ZM56.25 4.6875C56.25 2.10938 54.1406 0 51.5625 0H10.9375C8.35938 0 6.25 2.10938 6.25 4.6875V37.5H56.25V4.6875ZM50 31.25H12.5V6.25H50V31.25Z" fill="#FEFEFE"/>
</g>
<defs>
<clipPath id="clip0_12_5787">
<rect width="62.5" height="50" fill="white"/>
</clipPath>
</defs>
</svg>
