<svg width="13" height="11" viewBox="0 0 13 11" fill="none" xmlns="http://www.w3.org/2000/svg">
<path d="M0.44898 2.02041H12.1224C12.3469 2.02041 12.5714 1.82398 12.5714 1.57143V0.44898C12.5714 0.22449 12.3469 0 12.1224 0H0.44898C0.196429 0 0 0.22449 0 0.44898V1.57143C0 1.82398 0.196429 2.02041 0.44898 2.02041ZM0.44898 6.5102H12.1224C12.3469 6.5102 12.5714 6.31378 12.5714 6.06122V4.93878C12.5714 4.71429 12.3469 4.4898 12.1224 4.4898H0.44898C0.196429 4.4898 0 4.71429 0 4.93878V6.06122C0 6.31378 0.196429 6.5102 0.44898 6.5102ZM0.44898 11H12.1224C12.3469 11 12.5714 10.8036 12.5714 10.551V9.42857C12.5714 9.20408 12.3469 8.97959 12.1224 8.97959H0.44898C0.196429 8.97959 0 9.20408 0 9.42857V10.551C0 10.8036 0.196429 11 0.44898 11Z" fill="#1B1D21"/>
</svg>
