<svg width="223" height="125" viewBox="0 0 223 125" fill="none" xmlns="http://www.w3.org/2000/svg">
<g filter="url(#filter0_d_168_4776)">
<path d="M21 19C21 11.8203 26.8203 6 34 6L189 6C196.18 6 202 11.8203 202 19V67C202 74.1797 196.091 80 188.911 80V80C184.344 80 180.062 82.3959 177.713 86.3116L177.215 87.1417C176.438 88.4364 174.562 88.4364 173.785 87.1417L173.287 86.3116C170.938 82.3959 166.706 80 162.14 80H34C26.8203 80 21 74.1797 21 67V19Z" fill="white"/>
</g>
<defs>
<filter id="filter0_d_168_4776" x="0" y="0" width="223" height="124.113" filterUnits="userSpaceOnUse" color-interpolation-filters="sRGB">
<feFlood flood-opacity="0" result="BackgroundImageFix"/>
<feColorMatrix in="SourceAlpha" type="matrix" values="0 0 0 0 0 0 0 0 0 0 0 0 0 0 0 0 0 0 127 0" result="hardAlpha"/>
<feOffset dy="15"/>
<feGaussianBlur stdDeviation="10.5"/>
<feColorMatrix type="matrix" values="0 0 0 0 0 0 0 0 0 0 0 0 0 0 0 0 0 0 0.3 0"/>
<feBlend mode="normal" in2="BackgroundImageFix" result="effect1_dropShadow_168_4776"/>
<feBlend mode="normal" in="SourceGraphic" in2="effect1_dropShadow_168_4776" result="shape"/>
</filter>
</defs>
</svg>
