<svg width="52" height="52" viewBox="0 0 52 52" fill="none" xmlns="http://www.w3.org/2000/svg">
<g clip-path="url(#clip0_2_1893)">
<g filter="url(#filter0_d_2_1893)">
<circle cx="26" cy="26" r="26" fill="white"/>
</g>
<path d="M26.5 17.5C22.3203 17.5 19 20.8984 19 25C19 27.8125 19.8984 28.6719 24.8984 36.6406C25.6406 37.8125 27.3203 37.8125 28.0625 36.6406C33.0625 28.6719 34 27.8125 34 25C34 20.8594 30.6016 17.5 26.5 17.5ZM26.5 35.625C21.5 27.6562 20.875 27.1484 20.875 25C20.875 21.9141 23.375 19.375 26.5 19.375C29.5859 19.375 32.125 21.9141 32.125 25C32.125 27.1484 31.5 27.5781 26.5 35.625ZM23.375 25C23.375 26.7578 24.7422 28.125 26.5 28.125C28.2188 28.125 29.625 26.7578 29.625 25C29.625 23.2812 28.2188 21.875 26.5 21.875C24.7422 21.875 23.375 23.2812 23.375 25Z" fill="#7EB23D"/>
</g>
<defs>
<filter id="filter0_d_2_1893" x="-15" y="-13" width="82" height="82" filterUnits="userSpaceOnUse" color-interpolation-filters="sRGB">
<feFlood flood-opacity="0" result="BackgroundImageFix"/>
<feColorMatrix in="SourceAlpha" type="matrix" values="0 0 0 0 0 0 0 0 0 0 0 0 0 0 0 0 0 0 127 0" result="hardAlpha"/>
<feOffset dy="2"/>
<feGaussianBlur stdDeviation="7.5"/>
<feColorMatrix type="matrix" values="0 0 0 0 0.717647 0 0 0 0 0.741176 0 0 0 0 0.768627 0 0 0 0.570852 0"/>
<feBlend mode="normal" in2="BackgroundImageFix" result="effect1_dropShadow_2_1893"/>
<feBlend mode="normal" in="SourceGraphic" in2="effect1_dropShadow_2_1893" result="shape"/>
</filter>
<clipPath id="clip0_2_1893">
<rect width="52" height="52" fill="white"/>
</clipPath>
</defs>
</svg>
