<svg width="346" height="58" viewBox="0 0 346 58" fill="none" xmlns="http://www.w3.org/2000/svg">
<rect x="0.5" y="0.5" width="57" height="57" stroke="#5E5E5E"/>
<path d="M41.4776 23.0156C41.1901 21.907 40.3429 21.0339 39.2673 20.7376C37.3177 20.1992 29.5 20.1992 29.5 20.1992C29.5 20.1992 21.6823 20.1992 19.7327 20.7376C18.6571 21.034 17.8099 21.907 17.5224 23.0156C17 25.025 17 29.2174 17 29.2174C17 29.2174 17 33.4098 17.5224 35.4192C17.8099 36.5278 18.6571 37.3645 19.7327 37.6608C21.6823 38.1992 29.5 38.1992 29.5 38.1992C29.5 38.1992 37.3177 38.1992 39.2673 37.6608C40.3429 37.3645 41.1901 36.5278 41.4776 35.4192C42 33.4098 42 29.2174 42 29.2174C42 29.2174 42 25.025 41.4776 23.0156V23.0156ZM26.9432 33.0238V25.411L33.4772 29.2175L26.9432 33.0238V33.0238Z" fill="white"/>
<path d="M108.829 19.8008H92.3671C91.6129 19.8008 91 20.3963 91 21.1274V36.8742C91 37.6052 91.6129 38.2008 92.3671 38.2008H108.829C109.583 38.2008 110.2 37.6052 110.2 36.8742V21.1274C110.2 20.3963 109.583 19.8008 108.829 19.8008ZM96.8029 35.5722H93.9571V26.7911H96.8071V35.5722H96.8029ZM95.38 25.5919C94.4671 25.5919 93.73 24.8813 93.73 24.0106C93.73 23.1399 94.4671 22.4294 95.38 22.4294C96.2886 22.4294 97.03 23.1399 97.03 24.0106C97.03 24.8854 96.2929 25.5919 95.38 25.5919V25.5919ZM107.47 35.5722H104.624V31.3008C104.624 30.2822 104.603 28.972 103.146 28.972C101.663 28.972 101.436 30.081 101.436 31.2269V35.5722H98.59V26.7911H101.32V27.9904H101.359C101.74 27.3004 102.67 26.5735 104.054 26.5735C106.934 26.5735 107.47 28.3929 107.47 30.7586V35.5722V35.5722Z" fill="white" fill-opacity="0.3"/>
<rect x="72.5" y="0.5" width="57" height="57" stroke="#5E5E5E"/>
<path d="M179.791 25.0894C179.802 25.26 179.802 25.4305 179.802 25.6011C179.802 30.8031 176.173 36.797 169.539 36.797C167.495 36.797 165.597 36.1513 164 35.0305C164.29 35.0671 164.57 35.0793 164.871 35.0793C166.557 35.0793 168.11 34.458 169.349 33.3981C167.763 33.3615 166.435 32.2285 165.977 30.6691C166.2 30.7056 166.423 30.73 166.658 30.73C166.982 30.73 167.306 30.6813 167.607 30.596C165.954 30.2305 164.715 28.6468 164.715 26.7341V26.6854C165.195 26.9778 165.753 27.1605 166.345 27.1848C165.374 26.4782 164.737 25.2721 164.737 23.9077C164.737 23.1767 164.916 22.5067 165.228 21.9219C167.004 24.3097 169.673 25.8691 172.666 26.0397C172.61 25.7473 172.577 25.4427 172.577 25.1382C172.577 22.9696 174.185 21.2031 176.184 21.2031C177.222 21.2031 178.16 21.6783 178.819 22.4458C179.634 22.2752 180.416 21.9463 181.109 21.4955C180.841 22.4092 180.271 23.1768 179.523 23.664C180.249 23.5788 180.952 23.3595 181.6 23.0549C181.109 23.8346 180.494 24.529 179.791 25.0894V25.0894Z" fill="white" fill-opacity="0.3"/>
<rect x="144.5" y="0.5" width="57" height="57" stroke="#5E5E5E"/>
<path d="M248.971 30.0992L249.469 26.914H246.356V24.8471C246.356 23.9757 246.791 23.1263 248.185 23.1263H249.6V20.4144C249.6 20.4144 248.316 20.1992 247.088 20.1992C244.525 20.1992 242.849 21.7248 242.849 24.4865V26.914H240V30.0992H242.849V37.7992H246.356V30.0992H248.971Z" fill="white" fill-opacity="0.3"/>
<rect x="216.5" y="0.5" width="57" height="57" stroke="#5E5E5E"/>
<path d="M316.802 24.4868C314.305 24.4868 312.291 26.5015 312.291 28.9992C312.291 31.497 314.305 33.5116 316.802 33.5116C319.299 33.5116 321.313 31.497 321.313 28.9992C321.313 26.5015 319.299 24.4868 316.802 24.4868ZM316.802 31.9329C315.188 31.9329 313.869 30.6172 313.869 28.9992C313.869 27.3812 315.184 26.0656 316.802 26.0656C318.42 26.0656 319.735 27.3812 319.735 28.9992C319.735 30.6172 318.416 31.9329 316.802 31.9329V31.9329ZM322.55 24.3022C322.55 24.8874 322.079 25.3547 321.498 25.3547C320.913 25.3547 320.446 24.8835 320.446 24.3022C320.446 23.721 320.917 23.2497 321.498 23.2497C322.079 23.2497 322.55 23.721 322.55 24.3022ZM325.538 25.3704C325.471 23.9605 325.149 22.7117 324.117 21.6827C323.088 20.6538 321.84 20.3318 320.43 20.2611C318.977 20.1786 314.623 20.1786 313.17 20.2611C311.764 20.3278 310.516 20.6499 309.483 21.6788C308.451 22.7078 308.133 23.9566 308.062 25.3665C307.979 26.8196 307.979 31.1749 308.062 32.628C308.129 34.0379 308.451 35.2868 309.483 36.3157C310.516 37.3446 311.76 37.6667 313.17 37.7374C314.623 37.8198 318.977 37.8198 320.43 37.7374C321.84 37.6706 323.088 37.3486 324.117 36.3157C325.146 35.2868 325.467 34.0379 325.538 32.628C325.621 31.1749 325.621 26.8235 325.538 25.3704V25.3704ZM323.661 34.1871C323.355 34.9569 322.762 35.5499 321.989 35.8601C320.83 36.3196 318.082 36.2136 316.802 36.2136C315.522 36.2136 312.77 36.3157 311.615 35.8601C310.846 35.5538 310.253 34.9608 309.943 34.1871C309.483 33.0286 309.589 30.2795 309.589 28.9992C309.589 27.7189 309.487 24.9659 309.943 23.8113C310.249 23.0416 310.842 22.4486 311.615 22.1383C312.773 21.6788 315.522 21.7848 316.802 21.7848C318.082 21.7848 320.834 21.6827 321.989 22.1383C322.758 22.4446 323.351 23.0376 323.661 23.8113C324.121 24.9699 324.015 27.7189 324.015 28.9992C324.015 30.2795 324.121 33.0325 323.661 34.1871Z" fill="white" fill-opacity="0.3"/>
<rect x="288.5" y="0.5" width="57" height="57" stroke="#5E5E5E"/>
</svg>
