<svg width="24" height="24" viewBox="0 0 24 24" fill="none" xmlns="http://www.w3.org/2000/svg">
<path fill-rule="evenodd" clip-rule="evenodd" d="M1.84615 0H9.23077C10.2489 0 11.0769 0.828 11.0769 1.84615V9.23077C11.0769 10.2489 10.2489 11.0769 9.23077 11.0769H1.84615C0.828 11.0769 0 10.2489 0 9.23077V1.84615C0 0.828 0.828 0 1.84615 0ZM1.84615 1.84615H9.23077V9.23077H1.84615V1.84615Z" fill="#4C4C4C"/>
<path fill-rule="evenodd" clip-rule="evenodd" d="M0 22.1538V14.7692C0 13.7511 0.828 12.9231 1.84615 12.9231H9.23077C10.2489 12.9231 11.0769 13.7511 11.0769 14.7692V22.1538C11.0769 23.172 10.2489 24 9.23077 24H1.84615C0.828 24 0 23.172 0 22.1538ZM1.84615 22.1538H9.23077V14.7692H1.84615V22.1538Z" fill="#4C4C4C"/>
<path fill-rule="evenodd" clip-rule="evenodd" d="M24 1.84615C24 0.828 23.172 0 22.1538 0H14.7692C13.7511 0 12.9231 0.828 12.9231 1.84615V9.23077C12.9231 10.2489 13.7511 11.0769 14.7692 11.0769H22.1538C23.172 11.0769 24 10.2489 24 9.23077V1.84615ZM22.1538 9.23077V1.84615H14.7692V9.23077H22.1538Z" fill="#4C4C4C"/>
<path fill-rule="evenodd" clip-rule="evenodd" d="M22.1538 24H14.7692C13.7511 24 12.9231 23.172 12.9231 22.1538V14.7692C12.9231 13.7511 13.7511 12.9231 14.7692 12.9231H22.1538C23.172 12.9231 24 13.7511 24 14.7692V22.1538C24 23.172 23.172 24 22.1538 24ZM22.1538 22.1538H14.7692V14.7692H22.1538V22.1538Z" fill="#4C4C4C"/>
</svg>
