<svg width="31" height="35" viewBox="0 0 31 35" fill="none" xmlns="http://www.w3.org/2000/svg">
<g clip-path="url(#clip0_2_1550)">
<path d="M0 31.7188C0 33.5303 1.46973 35 3.28125 35H27.3438C29.1553 35 30.625 33.5303 30.625 31.7188V13.125H0V31.7188ZM21.875 18.3203C21.875 17.8691 22.2441 17.5 22.6953 17.5H25.4297C25.8809 17.5 26.25 17.8691 26.25 18.3203V21.0547C26.25 21.5059 25.8809 21.875 25.4297 21.875H22.6953C22.2441 21.875 21.875 21.5059 21.875 21.0547V18.3203ZM21.875 27.0703C21.875 26.6191 22.2441 26.25 22.6953 26.25H25.4297C25.8809 26.25 26.25 26.6191 26.25 27.0703V29.8047C26.25 30.2559 25.8809 30.625 25.4297 30.625H22.6953C22.2441 30.625 21.875 30.2559 21.875 29.8047V27.0703ZM13.125 18.3203C13.125 17.8691 13.4941 17.5 13.9453 17.5H16.6797C17.1309 17.5 17.5 17.8691 17.5 18.3203V21.0547C17.5 21.5059 17.1309 21.875 16.6797 21.875H13.9453C13.4941 21.875 13.125 21.5059 13.125 21.0547V18.3203ZM13.125 27.0703C13.125 26.6191 13.4941 26.25 13.9453 26.25H16.6797C17.1309 26.25 17.5 26.6191 17.5 27.0703V29.8047C17.5 30.2559 17.1309 30.625 16.6797 30.625H13.9453C13.4941 30.625 13.125 30.2559 13.125 29.8047V27.0703ZM4.375 18.3203C4.375 17.8691 4.74414 17.5 5.19531 17.5H7.92969C8.38086 17.5 8.75 17.8691 8.75 18.3203V21.0547C8.75 21.5059 8.38086 21.875 7.92969 21.875H5.19531C4.74414 21.875 4.375 21.5059 4.375 21.0547V18.3203ZM4.375 27.0703C4.375 26.6191 4.74414 26.25 5.19531 26.25H7.92969C8.38086 26.25 8.75 26.6191 8.75 27.0703V29.8047C8.75 30.2559 8.38086 30.625 7.92969 30.625H5.19531C4.74414 30.625 4.375 30.2559 4.375 29.8047V27.0703ZM27.3438 4.375H24.0625V1.09375C24.0625 0.492187 23.5703 0 22.9688 0H20.7812C20.1797 0 19.6875 0.492187 19.6875 1.09375V4.375H10.9375V1.09375C10.9375 0.492187 10.4453 0 9.84375 0H7.65625C7.05469 0 6.5625 0.492187 6.5625 1.09375V4.375H3.28125C1.46973 4.375 0 5.84473 0 7.65625V10.9375H30.625V7.65625C30.625 5.84473 29.1553 4.375 27.3438 4.375Z" fill="#FEA400"/>
</g>
<defs>
<clipPath id="clip0_2_1550">
<rect width="30.625" height="35" fill="white"/>
</clipPath>
</defs>
</svg>
