<svg width="60" height="60" viewBox="0 0 60 60" fill="none" xmlns="http://www.w3.org/2000/svg">
<rect width="60" height="60" fill="white"/>
<path d="M21.0001 29.4999C21.0001 29.2347 21.1055 28.9804 21.293 28.7928C21.4805 28.6053 21.7349 28.4999 22.0001 28.4999L35.5901 28.4999L34.2901 27.2099C34.1018 27.0216 33.996 26.7662 33.996 26.4999C33.996 26.2336 34.1018 25.9782 34.2901 25.7899C34.4784 25.6016 34.7338 25.4958 35.0001 25.4958C35.2664 25.4958 35.5218 25.6016 35.7101 25.7899L38.7101 28.7899C38.8489 28.9306 38.9429 29.1091 38.9802 29.3031C39.0176 29.4971 38.9967 29.6978 38.9201 29.8799C38.8451 30.0626 38.7177 30.2189 38.554 30.3292C38.3902 30.4396 38.1975 30.499 38.0001 30.4999L22.0001 30.4999C21.7349 30.4999 21.4805 30.3946 21.293 30.207C21.1055 30.0195 21.0001 29.7652 21.0001 29.4999Z" fill="#393D46"/>
<path d="M34.0001 32.4999C33.9993 32.3683 34.0245 32.2379 34.0743 32.116C34.1241 31.9942 34.1974 31.8834 34.2901 31.7899L37.2901 28.7899C37.4784 28.6016 37.7338 28.4958 38.0001 28.4958C38.1319 28.4958 38.2625 28.5218 38.3843 28.5723C38.5061 28.6227 38.6168 28.6967 38.7101 28.7899C38.8033 28.8832 38.8773 28.9939 38.9277 29.1157C38.9782 29.2375 39.0042 29.3681 39.0042 29.4999C39.0042 29.7662 38.8984 30.0216 38.7101 30.2099L35.7101 33.2099C35.6171 33.3037 35.5065 33.3781 35.3846 33.4288C35.2628 33.4796 35.1321 33.5057 35.0001 33.5057C34.868 33.5057 34.7373 33.4796 34.6155 33.4288C34.4936 33.3781 34.383 33.3037 34.2901 33.2099C34.1974 33.1165 34.1241 33.0057 34.0743 32.8838C34.0245 32.762 33.9993 32.6315 34.0001 32.4999Z" fill="#393D46"/>
</svg>
