<svg width="135" height="56" viewBox="0 0 135 56" fill="none" xmlns="http://www.w3.org/2000/svg">
<g clip-path="url(#clip0_12_4583)">
<path d="M0 24.3354V29.2599C1.69031 29.2588 3.36427 29.5894 4.92608 30.233C6.4879 30.8766 7.90692 31.8204 9.10195 33.0106C10.2967 34.2002 11.2442 35.6127 11.8902 37.1672C12.5363 38.7217 12.8683 40.3877 12.8672 42.0699H17.8102C17.8057 37.3684 15.9279 32.8607 12.589 29.5359C9.24998 26.2111 4.7225 24.3408 0 24.3354H0Z" fill="white"/>
<path d="M24.7202 15.4697H16.8867C20.8495 17.9699 24.2073 21.3123 26.7192 25.2571V17.4584C26.7188 16.9309 26.5081 16.425 26.1332 16.0521C25.7584 15.6792 25.2502 15.4697 24.7202 15.4697V15.4697Z" fill="white"/>
<path d="M4.92188 15.4697H0V19.9035C5.90327 19.9096 11.563 22.2469 15.7373 26.4026C19.9116 30.5582 22.2595 36.1927 22.2659 42.0697H26.7188V37.1697C25.712 31.7843 23.0906 26.8286 19.1999 22.9552C15.3091 19.0817 10.3313 16.472 4.92188 15.4697V15.4697Z" fill="white"/>
<path d="M38.8346 18.3979H35.6973V34.1409H38.8346V18.3979Z" fill="white"/>
<path d="M50.37 25.2186C49.8477 24.7459 49.2363 24.3812 48.5714 24.1455C47.143 23.6462 45.5863 23.6462 44.1579 24.1455C43.4926 24.381 42.881 24.7458 42.3586 25.2186C41.8462 25.6889 41.4369 26.2594 41.1562 26.8944C40.8661 27.5872 40.7168 28.3303 40.7168 29.0809C40.7168 29.8314 40.8661 30.5745 41.1562 31.2673C41.4358 31.9042 41.8452 32.4762 42.3586 32.9473C42.8801 33.4205 43.4914 33.7851 44.1565 34.0197C45.5847 34.52 47.1417 34.52 48.57 34.0197C49.2353 33.7851 49.8468 33.4205 50.3686 32.9473C50.8817 32.4761 51.2911 31.904 51.5709 31.2673C51.861 30.5745 52.0103 29.8314 52.0103 29.0809C52.0103 28.3303 51.861 27.5872 51.5709 26.8944C51.2905 26.2596 50.8817 25.6891 50.37 25.2186ZM48.2156 30.9348C47.7076 31.3904 47.048 31.6425 46.3643 31.6425C45.6805 31.6425 45.021 31.3904 44.5129 30.9348C44.0859 30.41 43.8529 29.7552 43.8529 29.0798C43.8529 28.4045 44.0859 27.7496 44.5129 27.2248C45.021 26.7692 45.6805 26.5171 46.3643 26.5171C47.048 26.5171 47.7076 26.7692 48.2156 27.2248C48.6426 27.7496 48.8756 28.4045 48.8756 29.0798C48.8756 29.7552 48.6426 30.41 48.2156 30.9348V30.9348Z" fill="white"/>
<path d="M61.6337 25.3538H61.5943C61.4493 25.1511 61.2808 24.9659 61.0923 24.8022C60.864 24.6012 60.6113 24.4295 60.34 24.2912C59.6542 23.9409 58.893 23.7624 58.1223 23.7711C57.4469 23.7594 56.779 23.9132 56.1775 24.2191C55.617 24.5081 55.122 24.9086 54.7234 25.3958C54.3169 25.898 54.0051 26.4693 53.803 27.0821C53.5881 27.7135 53.4786 28.3756 53.4789 29.0421C53.471 29.7576 53.5914 30.4688 53.8347 31.1421C54.055 31.7566 54.3986 32.3201 54.8444 32.7983C55.2885 33.2664 55.8275 33.635 56.4257 33.8798C57.076 34.1437 57.7731 34.2747 58.4753 34.2648C58.9947 34.2559 59.5083 34.1537 59.9912 33.9631C60.5328 33.7586 61.0021 33.4 61.3405 32.932H61.3827V33.912C61.3945 34.2389 61.3404 34.5648 61.2236 34.8705C61.1068 35.1763 60.9297 35.4556 60.7028 35.6921C60.4148 35.9458 60.0782 36.1386 59.7132 36.2589C59.3482 36.3792 58.9624 36.4246 58.5793 36.3921C57.9719 36.3989 57.3699 36.2782 56.8124 36.0379C56.2577 35.7912 55.7402 35.4689 55.2747 35.0803L53.5386 37.6598C54.2482 38.2288 55.0777 38.6311 55.9651 38.8365C56.8433 39.0376 57.7415 39.1388 58.6426 39.1382C60.6226 39.1382 62.0971 38.6419 63.066 37.6493C64.0349 36.6567 64.5196 35.2026 64.5201 33.2869V24.021H61.6372L61.6337 25.3538ZM61.4453 29.9661C61.3215 30.2625 61.1401 30.5315 60.9116 30.7578C60.679 30.9887 60.4062 31.1755 60.1065 31.3094C59.7954 31.447 59.4587 31.5181 59.1183 31.5181C58.7779 31.5181 58.4412 31.447 58.1301 31.3094C57.8344 31.1736 57.5652 30.9869 57.3348 30.7578C57.1053 30.5296 56.9232 30.2585 56.799 29.9602C56.6748 29.6618 56.6108 29.342 56.6108 29.019C56.6108 28.6961 56.6748 28.3763 56.799 28.0779C56.9232 27.7795 57.1053 27.5085 57.3348 27.2802C57.5653 27.0512 57.8345 26.8642 58.1301 26.7279C58.4413 26.5908 58.7779 26.52 59.1183 26.52C59.4587 26.52 59.7953 26.5908 60.1065 26.7279C60.4061 26.8623 60.6788 27.0494 60.9116 27.2802C61.2568 27.6256 61.4916 28.0649 61.5865 28.5428C61.6815 29.0207 61.6324 29.516 61.4453 29.9661V29.9661Z" fill="white"/>
<path d="M76.3075 25.2186C75.7852 24.7459 75.1738 24.3812 74.5089 24.1455C73.0805 23.6462 71.5238 23.6462 70.0954 24.1455C69.4301 24.381 68.8185 24.7458 68.2961 25.2186C67.7837 25.6889 67.3744 26.2594 67.0937 26.8944C66.8036 27.5872 66.6543 28.3303 66.6543 29.0809C66.6543 29.8314 66.8036 30.5745 67.0937 31.2673C67.3733 31.9042 67.7827 32.4762 68.2961 32.9473C68.818 33.4206 69.4298 33.7853 70.0954 34.0197C71.5236 34.52 73.0806 34.52 74.5089 34.0197C75.1742 33.7851 75.7857 33.4205 76.3075 32.9473C76.8208 32.4762 77.2302 31.9042 77.5098 31.2673C77.7999 30.5745 77.9492 29.8314 77.9492 29.0809C77.9492 28.3303 77.7999 27.5872 77.5098 26.8944C77.2292 26.2594 76.8198 25.6889 76.3075 25.2186V25.2186ZM74.1531 30.9348C73.6451 31.3904 72.9855 31.6425 72.3018 31.6425C71.618 31.6425 70.9585 31.3904 70.4504 30.9348C70.0234 30.41 69.7904 29.7552 69.7904 29.0798C69.7904 28.4045 70.0234 27.7496 70.4504 27.2248C70.9585 26.7692 71.618 26.5171 72.3018 26.5171C72.9855 26.5171 73.6451 26.7692 74.1531 27.2248C74.5801 27.7496 74.8131 28.4045 74.8131 29.0798C74.8131 29.7552 74.5801 30.41 74.1531 30.9348Z" fill="white"/>
<path d="M82.1084 24.0908H80.4258V34.1407H82.1084V24.0908Z" fill="white"/>
<path d="M81.2679 18.9377C81.1048 18.9346 80.9428 18.9655 80.7923 19.0283C80.6418 19.0911 80.5061 19.1844 80.3939 19.3024C80.2229 19.4741 80.1067 19.6924 80.06 19.9298C80.0134 20.1671 80.0383 20.4129 80.1317 20.6362C80.2252 20.8594 80.3829 21.0502 80.585 21.1843C80.7871 21.3185 81.0246 21.3901 81.2676 21.3901C81.5105 21.3901 81.748 21.3185 81.9501 21.1843C82.1523 21.0502 82.31 20.8594 82.4034 20.6362C82.4968 20.4129 82.5218 20.1671 82.4751 19.9298C82.4285 19.6924 82.3123 19.4741 82.1412 19.3024C82.0292 19.1844 81.8937 19.091 81.7433 19.0282C81.5929 18.9654 81.431 18.9346 81.2679 18.9377V18.9377Z" fill="white"/>
<path d="M94.5563 25.3394C94.083 24.8583 93.5137 24.4813 92.885 24.2327C92.195 23.962 91.4588 23.8272 90.7173 23.8358C90.0187 23.8279 89.3279 23.9825 88.7 24.2873C88.0816 24.5935 87.5341 25.0248 87.0927 25.5536H87.0477V24.0906H85.3672V39.037H87.0477V32.359H87.0905C87.4477 32.9715 87.9683 33.4735 88.5945 33.8094C89.3216 34.2147 90.1444 34.4187 90.9774 34.4002C91.6594 34.4045 92.3351 34.2692 92.9623 34.0026C93.568 33.7469 94.1148 33.3705 94.569 32.8966C95.0302 32.4124 95.3929 31.8438 95.637 31.2222C96.1546 29.8663 96.1546 28.3684 95.637 27.0124C95.3908 26.3895 95.0235 25.821 94.5563 25.3394V25.3394ZM93.9629 30.5894C93.8061 31.027 93.5607 31.4279 93.242 31.7673C92.9234 32.1068 92.5381 32.3775 92.1102 32.5627C91.1639 32.9485 90.1033 32.9485 89.157 32.5627C88.7285 32.3775 88.3427 32.1065 88.0236 31.7667C87.7046 31.4269 87.459 31.0255 87.3022 30.5873C86.9719 29.6349 86.9719 28.5998 87.3022 27.6473C87.459 27.2092 87.7046 26.8077 88.0236 26.4679C88.3427 26.1281 88.7285 25.8572 89.157 25.6719C90.1033 25.2861 91.1639 25.2861 92.1102 25.6719C92.5387 25.8572 92.9245 26.1281 93.2436 26.4679C93.5626 26.8077 93.8082 27.2092 93.965 27.6473C94.2953 28.5998 94.2953 29.6349 93.965 30.5873L93.9629 30.5894Z" fill="white"/>
<path d="M104.499 29.1195C104.18 28.8815 103.824 28.6966 103.445 28.5721C103.029 28.4324 102.603 28.321 102.172 28.2389C101.849 28.1839 101.528 28.1124 101.212 28.0247C100.931 27.9486 100.656 27.8478 100.392 27.7237C100.181 27.6283 99.9901 27.4933 99.8299 27.3261C99.6936 27.1766 99.6204 26.9806 99.6253 26.7787C99.622 26.5609 99.6861 26.3473 99.8088 26.1669C99.9297 25.9887 100.088 25.8386 100.272 25.7266C100.47 25.6078 100.685 25.5209 100.909 25.469C101.139 25.4123 101.375 25.3834 101.612 25.3829C102.063 25.369 102.509 25.4846 102.896 25.7161C103.245 25.9348 103.537 26.2327 103.748 26.5855L105.15 25.6622C104.839 25.052 104.335 24.561 103.715 24.2657C103.09 23.9769 102.409 23.8303 101.72 23.8366C101.253 23.8355 100.788 23.9006 100.34 24.0298C99.9097 24.1519 99.5017 24.3409 99.131 24.5898C98.7765 24.8281 98.4814 25.1439 98.2683 25.5131C98.0476 25.9063 97.936 26.3508 97.9448 26.8011C97.9273 27.2419 98.0277 27.6794 98.2359 28.0688C98.4259 28.3945 98.691 28.6705 99.0094 28.8738C99.3608 29.0945 99.742 29.2644 100.141 29.3785C100.573 29.5073 101.026 29.6219 101.501 29.7222C101.774 29.7796 102.04 29.844 102.299 29.9154C102.541 29.9802 102.773 30.0777 102.989 30.2052C103.179 30.3175 103.344 30.4674 103.474 30.6455C103.604 30.8428 103.668 31.0757 103.658 31.3112C103.665 31.5587 103.598 31.8027 103.464 32.0112C103.33 32.2088 103.153 32.3739 102.946 32.4942C102.723 32.6269 102.478 32.7216 102.223 32.7742C101.965 32.8308 101.701 32.8597 101.436 32.8603C100.912 32.8805 100.392 32.7539 99.9368 32.4949C99.5178 32.2295 99.1491 31.8925 98.8477 31.4995L97.5117 32.5306C97.9253 33.17 98.5123 33.6797 99.2048 34.0006C99.9146 34.2811 100.674 34.4163 101.437 34.3982C101.934 34.3986 102.43 34.3411 102.914 34.2267C103.374 34.1208 103.812 33.9355 104.208 33.6793C104.587 33.4293 104.9 33.0934 105.122 32.6993C105.364 32.2521 105.483 31.7495 105.468 31.2419C105.482 30.8055 105.393 30.372 105.21 29.9756C105.042 29.6396 104.799 29.3466 104.499 29.1195V29.1195Z" fill="white"/>
<path d="M116.623 31.7572V24.0908H114.941V28.9908C114.946 29.5191 114.884 30.0459 114.757 30.5588C114.649 30.9985 114.458 31.4137 114.195 31.7824C113.944 32.1252 113.61 32.3986 113.224 32.5769C112.779 32.7733 112.297 32.869 111.811 32.8569C111.482 32.8834 111.152 32.8309 110.848 32.7038C110.544 32.5768 110.275 32.3789 110.064 32.1268C109.66 31.5414 109.462 30.839 109.501 30.1297V24.0908H107.819V30.297C107.813 30.8596 107.89 31.42 108.045 31.9609C108.18 32.4405 108.42 32.8844 108.748 33.2608C109.076 33.6288 109.485 33.9163 109.943 34.1008C110.489 34.313 111.072 34.4153 111.658 34.4018C112.053 34.405 112.445 34.3505 112.823 34.2401C113.165 34.1411 113.491 33.9968 113.794 33.811C114.069 33.6423 114.319 33.4364 114.538 33.1992C114.734 32.9882 114.898 32.7492 115.024 32.4901H115.066C115.066 32.7771 115.074 33.0571 115.088 33.3301C115.103 33.6031 115.11 33.8752 115.109 34.1463H116.706C116.706 33.8164 116.692 33.4512 116.663 33.0508C116.633 32.6504 116.62 32.2192 116.623 31.7572Z" fill="white"/>
<path d="M134.806 26.2925C134.694 25.8062 134.472 25.3515 134.159 24.9625C133.842 24.5861 133.433 24.2969 132.972 24.1225C132.392 23.9139 131.777 23.8156 131.16 23.8327C130.491 23.8036 129.828 23.9797 129.262 24.3374C128.738 24.7121 128.297 25.1912 127.968 25.7444C127.882 25.5722 127.77 25.3753 127.634 25.1536C127.481 24.9142 127.288 24.7034 127.062 24.5306C126.785 24.3208 126.476 24.1555 126.148 24.0406C125.707 23.8929 125.243 23.8237 124.777 23.8362C124.384 23.833 123.991 23.8874 123.613 23.9979C123.272 24.0969 122.945 24.2412 122.642 24.427C122.367 24.596 122.117 24.8018 121.898 25.0388C121.702 25.2498 121.538 25.4888 121.413 25.7479H121.369C121.369 25.4609 121.362 25.1823 121.348 24.9079C121.334 24.6335 121.327 24.364 121.327 24.0917H119.73C119.73 24.4216 119.745 24.7868 119.773 25.1872C119.802 25.5876 119.816 26.0172 119.816 26.4759V34.1416H121.5V29.2458C121.495 28.7173 121.557 28.1902 121.684 27.6771C121.791 27.2372 121.982 26.8219 122.246 26.4535C122.496 26.1106 122.83 25.8371 123.217 25.659C123.661 25.4625 124.144 25.3668 124.63 25.379C124.918 25.3545 125.207 25.4064 125.469 25.5293C125.73 25.6523 125.954 25.8419 126.118 26.079C126.479 26.8155 126.635 27.6349 126.571 28.452V34.143H128.25V28.3428C128.245 27.9295 128.315 27.5186 128.456 27.1297C128.58 26.7849 128.771 26.4677 129.018 26.1959C129.251 25.9414 129.534 25.7368 129.848 25.5946C130.167 25.4511 130.513 25.3778 130.862 25.3797C131.278 25.3647 131.691 25.4454 132.07 25.6156C132.369 25.7593 132.628 25.9734 132.825 26.2393C133.014 26.5025 133.147 26.8022 133.214 27.1192C133.286 27.4509 133.322 27.7893 133.321 28.1286V34.1416H135V28.0425C135.006 27.4535 134.941 26.8659 134.806 26.2925Z" fill="white"/>
</g>
<defs>
<clipPath id="clip0_12_4583">
<rect width="135" height="56" fill="white"/>
</clipPath>
</defs>
</svg>
