<svg width="18" height="18" viewBox="0 0 18 18" fill="none" xmlns="http://www.w3.org/2000/svg">
<path d="M9 0C4.02823 0 0 4.02823 0 9C0 13.9718 4.02823 18 9 18C13.9718 18 18 13.9718 18 9C18 4.02823 13.9718 0 9 0ZM12.3387 11.3589L11.6129 12.2661C11.504 12.4113 11.3226 12.5202 11.1411 12.5202C11.0323 12.5202 10.8871 12.4476 10.8145 12.375L8.38306 10.5605C8.05645 10.3427 7.83871 9.83468 7.83871 9.43548V3.77419C7.83871 3.48387 8.09274 3.19355 8.41935 3.19355H9.58065C9.87097 3.19355 10.1613 3.48387 10.1613 3.77419V9L12.2661 10.5605C12.375 10.6694 12.4839 10.8508 12.4839 10.996C12.4839 11.1411 12.4113 11.2863 12.3387 11.3589Z" fill="white"/>
</svg>
