<svg width="35" height="40" viewBox="0 0 35 40" fill="none" xmlns="http://www.w3.org/2000/svg">
<path d="M7.5 22.5H2.5C1.11953 22.5 0 23.6195 0 25V30C0 31.3805 1.11953 32.5 2.5 32.5H7.5C8.88047 32.5 10 31.3805 10 30V25C10 23.6195 8.88047 22.5 7.5 22.5ZM20 22.5H15C13.6195 22.5 12.5 23.6195 12.5 25V30C12.5 31.3805 13.6195 32.5 15 32.5H20C21.3805 32.5 22.5 31.3805 22.5 30V25C22.5 23.6195 21.3805 22.5 20 22.5ZM32.5 22.5H27.5C26.1195 22.5 25 23.6195 25 25V30C25 31.3805 26.1195 32.5 27.5 32.5H32.5C33.8805 32.5 35 31.3805 35 30V25C35 23.6195 33.8805 22.5 32.5 22.5ZM7.5 7.5H2.5C1.11953 7.5 0 8.61953 0 10V15C0 16.3805 1.11953 17.5 2.5 17.5H7.5C8.88047 17.5 10 16.3805 10 15V10C10 8.61953 8.88047 7.5 7.5 7.5ZM20 7.5H15C13.6195 7.5 12.5 8.61953 12.5 10V15C12.5 16.3805 13.6195 17.5 15 17.5H20C21.3805 17.5 22.5 16.3805 22.5 15V10C22.5 8.61953 21.3805 7.5 20 7.5ZM32.5 7.5H27.5C26.1195 7.5 25 8.61953 25 10V15C25 16.3805 26.1195 17.5 27.5 17.5H32.5C33.8805 17.5 35 16.3805 35 15V10C35 8.61953 33.8805 7.5 32.5 7.5Z" fill="#FEA400"/>
</svg>
