<svg width="346" height="58" viewBox="0 0 346 58" fill="none" xmlns="http://www.w3.org/2000/svg">
<rect width="58" height="58" rx="12" fill="#FF7020" fill-opacity="0.23"/>
<path d="M41.4776 23.0164C41.1901 21.9078 40.3429 21.0347 39.2673 20.7384C37.3177 20.2 29.5 20.2 29.5 20.2C29.5 20.2 21.6823 20.2 19.7327 20.7384C18.6571 21.0348 17.8099 21.9078 17.5224 23.0164C17 25.0258 17 29.2182 17 29.2182C17 29.2182 17 33.4106 17.5224 35.42C17.8099 36.5286 18.6571 37.3653 19.7327 37.6616C21.6823 38.2 29.5 38.2 29.5 38.2C29.5 38.2 37.3177 38.2 39.2673 37.6616C40.3429 37.3653 41.1901 36.5286 41.4776 35.42C42 33.4106 42 29.2182 42 29.2182C42 29.2182 42 25.0258 41.4776 23.0164V23.0164ZM26.9432 33.0246V25.4118L33.4772 29.2183L26.9432 33.0246V33.0246Z" fill="#FF7020"/>
<rect x="72" width="58" height="58" rx="12" fill="#CBCBCB" fill-opacity="0.23"/>
<path d="M108.829 19.8H92.3671C91.6129 19.8 91 20.3956 91 21.1267V36.8734C91 37.6045 91.6129 38.2 92.3671 38.2H108.829C109.583 38.2 110.2 37.6045 110.2 36.8734V21.1267C110.2 20.3956 109.583 19.8 108.829 19.8ZM96.8029 35.5715H93.9571V26.7904H96.8071V35.5715H96.8029ZM95.38 25.5911C94.4671 25.5911 93.73 24.8806 93.73 24.0099C93.73 23.1392 94.4671 22.4286 95.38 22.4286C96.2886 22.4286 97.03 23.1392 97.03 24.0099C97.03 24.8847 96.2929 25.5911 95.38 25.5911V25.5911ZM107.47 35.5715H104.624V31.3C104.624 30.2815 104.603 28.9713 103.146 28.9713C101.663 28.9713 101.436 30.0802 101.436 31.2261V35.5715H98.59V26.7904H101.32V27.9897H101.359C101.74 27.2997 102.67 26.5727 104.054 26.5727C106.934 26.5727 107.47 28.3922 107.47 30.7579V35.5715V35.5715Z" fill="#4E4E4E" fill-opacity="0.45"/>
<rect x="144" width="58" height="58" rx="12" fill="#CBCBCB" fill-opacity="0.23"/>
<path d="M179.791 25.0894C179.802 25.26 179.802 25.4305 179.802 25.6011C179.802 30.8031 176.173 36.797 169.539 36.797C167.495 36.797 165.597 36.1513 164 35.0305C164.29 35.0671 164.57 35.0793 164.871 35.0793C166.557 35.0793 168.11 34.458 169.349 33.3981C167.763 33.3615 166.435 32.2285 165.977 30.6691C166.2 30.7056 166.423 30.73 166.658 30.73C166.982 30.73 167.306 30.6813 167.607 30.596C165.954 30.2305 164.715 28.6468 164.715 26.7341V26.6854C165.195 26.9778 165.753 27.1605 166.345 27.1848C165.374 26.4782 164.737 25.2721 164.737 23.9077C164.737 23.1767 164.916 22.5067 165.228 21.9219C167.004 24.3097 169.673 25.8691 172.666 26.0397C172.61 25.7473 172.577 25.4427 172.577 25.1382C172.577 22.9696 174.185 21.2031 176.184 21.2031C177.222 21.2031 178.16 21.6783 178.819 22.4458C179.634 22.2752 180.416 21.9463 181.109 21.4955C180.841 22.4092 180.271 23.1768 179.523 23.664C180.249 23.5788 180.952 23.3595 181.6 23.0549C181.109 23.8346 180.494 24.529 179.791 25.0894V25.0894Z" fill="#4E4E4E" fill-opacity="0.45"/>
<rect x="216" width="58" height="58" rx="12" fill="#CBCBCB" fill-opacity="0.23"/>
<path d="M248.971 30.1L249.469 26.9148H246.356V24.8478C246.356 23.9764 246.791 23.127 248.185 23.127H249.6V20.4151C249.6 20.4151 248.316 20.2 247.088 20.2C244.525 20.2 242.849 21.7255 242.849 24.4872V26.9148H240V30.1H242.849V37.8H246.356V30.1H248.971Z" fill="#4E4E4E" fill-opacity="0.45"/>
<rect x="288" width="58" height="58" rx="12" fill="#CBCBCB" fill-opacity="0.23"/>
<path d="M316.802 24.4875C314.305 24.4875 312.291 26.5022 312.291 29C312.291 31.4977 314.305 33.5124 316.802 33.5124C319.299 33.5124 321.313 31.4977 321.313 29C321.313 26.5022 319.299 24.4875 316.802 24.4875ZM316.802 31.9336C315.188 31.9336 313.869 30.618 313.869 29C313.869 27.3819 315.184 26.0663 316.802 26.0663C318.42 26.0663 319.735 27.3819 319.735 29C319.735 30.618 318.416 31.9336 316.802 31.9336V31.9336ZM322.55 24.303C322.55 24.8881 322.079 25.3555 321.498 25.3555C320.913 25.3555 320.446 24.8842 320.446 24.303C320.446 23.7217 320.917 23.2504 321.498 23.2504C322.079 23.2504 322.55 23.7217 322.55 24.303ZM325.538 25.3712C325.471 23.9613 325.149 22.7124 324.117 21.6835C323.088 20.6545 321.84 20.3325 320.43 20.2618C318.977 20.1793 314.623 20.1793 313.17 20.2618C311.764 20.3286 310.516 20.6506 309.483 21.6795C308.451 22.7085 308.133 23.9574 308.062 25.3672C307.979 26.8203 307.979 31.1757 308.062 32.6287C308.129 34.0386 308.451 35.2875 309.483 36.3164C310.516 37.3454 311.76 37.6674 313.17 37.7381C314.623 37.8206 318.977 37.8206 320.43 37.7381C321.84 37.6713 323.088 37.3493 324.117 36.3164C325.146 35.2875 325.467 34.0386 325.538 32.6287C325.621 31.1757 325.621 26.8243 325.538 25.3712V25.3712ZM323.661 34.1879C323.355 34.9576 322.762 35.5506 321.989 35.8609C320.83 36.3204 318.082 36.2143 316.802 36.2143C315.522 36.2143 312.77 36.3164 311.615 35.8609C310.846 35.5545 310.253 34.9615 309.943 34.1879C309.483 33.0293 309.589 30.2802 309.589 29C309.589 27.7197 309.487 24.9667 309.943 23.812C310.249 23.0423 310.842 22.4493 311.615 22.139C312.773 21.6795 315.522 21.7856 316.802 21.7856C318.082 21.7856 320.834 21.6835 321.989 22.139C322.758 22.4454 323.351 23.0384 323.661 23.812C324.121 24.9706 324.015 27.7197 324.015 29C324.015 30.2802 324.121 33.0332 323.661 34.1879Z" fill="#4E4E4E" fill-opacity="0.45"/>
</svg>
