<svg width="25" height="25" viewBox="0 0 25 25" fill="none" xmlns="http://www.w3.org/2000/svg">
<g clip-path="url(#clip0_211_4637)">
<path d="M8.4082 11.0739C7.69531 10.9323 7.03125 11.5085 7.03125 12.236V14.697C7.03125 15.195 7.37793 15.5954 7.84668 15.7712C8.73535 16.1032 9.375 16.9626 9.375 17.9685C9.375 19.2624 8.3252 20.3122 7.03125 20.3122C5.7373 20.3122 4.6875 19.2624 4.6875 17.9685V5.85909C4.6875 5.20968 4.16504 4.68722 3.51562 4.68722H1.17188C0.522461 4.68722 0 5.20968 0 5.85909V17.9685C0 22.3386 4.00879 25.7907 8.54492 24.8386C11.2012 24.2819 13.3447 22.1335 13.9014 19.4821C14.751 15.4343 12.0947 11.8064 8.4082 11.0739ZM10.2051 -0.000281429C9.75586 -0.0246955 9.375 0.33175 9.375 0.780969V2.32394C9.375 2.73898 9.69727 3.08077 10.1074 3.1003C16.4258 3.4421 21.5039 8.56905 21.8701 14.8923C21.8945 15.3025 22.2363 15.6247 22.6465 15.6247H24.2139C24.6631 15.6247 25.0195 15.2439 24.9951 14.7946C24.5801 6.82589 18.1738 0.41964 10.2051 -0.000281429ZM10.2197 4.68722C9.76563 4.65304 9.375 5.01437 9.375 5.47335V7.04073C9.375 7.45089 9.69238 7.7878 10.0977 7.8171C13.8477 8.12472 16.8359 11.1472 17.1729 14.9069C17.2119 15.3122 17.5439 15.6247 17.9492 15.6247H19.5215C19.9756 15.6247 20.3418 15.2341 20.3076 14.78C19.8975 9.40402 15.5957 5.10226 10.2197 4.68722V4.68722Z" fill="#12908D"/>
</g>
<defs>
<clipPath id="clip0_211_4637">
<rect width="25" height="25" fill="white"/>
</clipPath>
</defs>
</svg>
