<svg width="1618" height="42" viewBox="0 0 1618 42" fill="none" xmlns="http://www.w3.org/2000/svg">
<path d="M155.393 31.0039H151.469V22.9922H144.118V31.0039H140.182V12.441H144.118V19.7164H151.469V12.441H155.393V31.0039Z" fill="#BABABA"/>
<path d="M159.621 13.1394C159.621 11.8781 160.323 11.2475 161.729 11.2475C163.134 11.2475 163.836 11.8781 163.836 13.1394C163.836 13.7403 163.658 14.2101 163.303 14.5487C162.956 14.8788 162.431 15.0439 161.729 15.0439C160.323 15.0439 159.621 14.4091 159.621 13.1394ZM163.658 31.0039H159.786V16.8088H163.658V31.0039Z" fill="#BABABA"/>
<path d="M180.088 16.8088V18.7768L177.866 19.3482C178.273 19.983 178.476 20.694 178.476 21.4812C178.476 23.0049 177.942 24.1941 176.876 25.0491C175.818 25.8955 174.345 26.3188 172.457 26.3188L171.759 26.2807L171.188 26.2172C170.79 26.5219 170.591 26.8605 170.591 27.2329C170.591 27.7916 171.302 28.0709 172.724 28.0709H175.136C176.694 28.0709 177.879 28.4053 178.692 29.074C179.513 29.7427 179.923 30.7246 179.923 32.0197C179.923 33.6787 179.229 34.9654 177.841 35.8795C176.461 36.7937 174.476 37.2508 171.886 37.2508C169.905 37.2508 168.39 36.9038 167.341 36.2097C166.299 35.524 165.779 34.5591 165.779 33.3148C165.779 32.4598 166.045 31.7446 166.579 31.169C167.112 30.5934 167.895 30.1829 168.928 29.9374C168.53 29.7681 168.183 29.493 167.887 29.1121C167.59 28.7227 167.442 28.3122 167.442 27.8805C167.442 27.3388 167.599 26.8901 167.912 26.5346C168.225 26.1706 168.678 25.8151 169.27 25.4681C168.526 25.1464 167.933 24.6301 167.493 23.919C167.061 23.208 166.845 22.37 166.845 21.4051C166.845 19.856 167.349 18.6583 168.356 17.8118C169.364 16.9654 170.803 16.5421 172.673 16.5421C173.071 16.5421 173.541 16.5802 174.083 16.6564C174.633 16.7241 174.984 16.7749 175.136 16.8088H180.088ZM169.131 33.01C169.131 33.5433 169.385 33.9623 169.893 34.267C170.409 34.5718 171.128 34.7241 172.051 34.7241C173.439 34.7241 174.527 34.5337 175.314 34.1528C176.101 33.7719 176.495 33.2513 176.495 32.591C176.495 32.0578 176.262 31.6896 175.797 31.4864C175.331 31.2833 174.612 31.1817 173.638 31.1817H171.632C170.921 31.1817 170.324 31.3467 169.842 31.6769C169.368 32.0155 169.131 32.4598 169.131 33.01ZM170.54 21.4558C170.54 22.2261 170.714 22.8356 171.061 23.2842C171.416 23.7328 171.954 23.9571 172.673 23.9571C173.401 23.9571 173.934 23.7328 174.273 23.2842C174.612 22.8356 174.781 22.2261 174.781 21.4558C174.781 19.746 174.078 18.8911 172.673 18.8911C171.251 18.8911 170.54 19.746 170.54 21.4558Z" fill="#BABABA"/>
<path d="M195.54 31.0039H191.668V22.7128C191.668 20.6644 190.906 19.6402 189.382 19.6402C188.299 19.6402 187.516 20.0084 187.033 20.7448C186.551 21.4812 186.31 22.6747 186.31 24.3253V31.0039H182.437V11.2475H186.31V15.2724C186.31 15.5856 186.28 16.3221 186.221 17.4817L186.132 18.6244H186.335C187.199 17.2362 188.57 16.5421 190.449 16.5421C192.116 16.5421 193.382 16.9908 194.245 17.888C195.109 18.7853 195.54 20.0719 195.54 21.7479V31.0039Z" fill="#BABABA"/>
<path d="M203.4 31.0039H199.527V11.2475H203.4V31.0039Z" fill="#BABABA"/>
<path d="M210.561 23.881C210.561 25.2861 210.789 26.3484 211.247 27.0679C211.712 27.7874 212.465 28.1471 213.507 28.1471C214.539 28.1471 215.28 27.7916 215.729 27.0806C216.186 26.3611 216.414 25.2945 216.414 23.881C216.414 22.4758 216.186 21.422 215.729 20.7194C215.271 20.0169 214.522 19.6656 213.481 19.6656C212.448 19.6656 211.704 20.0169 211.247 20.7194C210.789 21.4135 210.561 22.4674 210.561 23.881ZM220.376 23.881C220.376 26.1918 219.766 27.999 218.547 29.3025C217.328 30.6061 215.631 31.2579 213.456 31.2579C212.093 31.2579 210.891 30.9616 209.85 30.3691C208.809 29.7681 208.009 28.9089 207.45 27.7916C206.891 26.6743 206.612 25.3707 206.612 23.881C206.612 21.5617 207.217 19.7587 208.428 18.4721C209.638 17.1854 211.34 16.5421 213.532 16.5421C214.895 16.5421 216.097 16.8384 217.138 17.4309C218.179 18.0234 218.979 18.8741 219.538 19.983C220.096 21.0919 220.376 22.3912 220.376 23.881Z" fill="#BABABA"/>
<path d="M235.244 31.0039L234.152 26.0394L232.679 19.7672H232.59L230 31.0039H225.835L221.798 16.8088H225.658L227.295 23.0937C227.558 24.2195 227.824 25.7728 228.095 27.7535H228.171C228.205 27.1102 228.353 26.0902 228.616 24.6936L228.819 23.6143L230.571 16.8088H234.837L236.501 23.6143C236.535 23.8005 236.585 24.0756 236.653 24.4396C236.729 24.8036 236.801 25.193 236.869 25.6077C236.937 26.014 236.996 26.4161 237.047 26.8139C237.106 27.2033 237.14 27.5165 237.148 27.7535H237.224C237.301 27.1441 237.436 26.3103 237.631 25.2522C237.825 24.1857 237.965 23.4662 238.05 23.0937L239.751 16.8088H243.547L239.459 31.0039H235.244Z" fill="#BABABA"/>
<path d="M112.342 34.0043C119.799 34.0043 125.844 28.1833 125.844 21.0027C125.844 13.822 119.799 8.00101 112.342 8.00101C104.886 8.00101 98.8407 13.8221 98.8407 21.0027C98.8407 28.1832 104.886 34.0043 112.342 34.0043ZM122.36 21.0027L102.325 21.0027C102.325 15.6707 106.806 11.3563 112.342 11.3563C117.879 11.3563 122.36 15.6715 122.36 21.0027Z" fill="#BABABA"/>
<path d="M1227.86 22.8447C1227.86 24.5246 1227.56 25.9343 1226.96 27.0737C1226.37 28.2067 1225.5 29.0369 1224.34 29.5643L1227.78 33.4027H1223.91L1221.29 30.1991H1221.06C1218.88 30.1991 1217.2 29.5643 1216.02 28.2946C1214.85 27.0249 1214.27 25.2018 1214.27 22.8252C1214.27 20.4486 1214.85 18.6352 1216.02 17.385C1217.2 16.1283 1218.89 15.5 1221.08 15.5C1223.28 15.5 1224.95 16.1316 1226.11 17.3948C1227.28 18.658 1227.86 20.4746 1227.86 22.8447ZM1217.44 22.8447C1217.44 24.4399 1217.74 25.6413 1218.35 26.4487C1218.95 27.2561 1219.86 27.6598 1221.06 27.6598C1223.48 27.6598 1224.69 26.0547 1224.69 22.8447C1224.69 19.6281 1223.49 18.0199 1221.08 18.0199C1219.88 18.0199 1218.97 18.4268 1218.36 19.2407C1217.75 20.0481 1217.44 21.2494 1217.44 22.8447Z" fill="#BABABA"/>
<path d="M1238.32 30.0038L1237.92 28.6071H1237.76C1237.45 29.115 1236.99 29.5089 1236.41 29.7889C1235.82 30.0624 1235.15 30.1991 1234.4 30.1991C1233.12 30.1991 1232.15 29.8573 1231.5 29.1736C1230.85 28.4834 1230.53 27.4937 1230.53 26.2045V19.0845H1233.51V25.4622C1233.51 26.2501 1233.65 26.8426 1233.93 27.2398C1234.21 27.6305 1234.65 27.8258 1235.26 27.8258C1236.1 27.8258 1236.7 27.5491 1237.07 26.9956C1237.44 26.4356 1237.63 25.511 1237.63 24.2218V19.0845H1240.61V30.0038H1238.32Z" fill="#BABABA"/>
<path d="M1248.25 20.9988C1247.62 20.9988 1247.13 21.2006 1246.77 21.6043C1246.41 22.0015 1246.21 22.568 1246.15 23.3037H1250.33C1250.32 22.568 1250.13 22.0015 1249.76 21.6043C1249.39 21.2006 1248.89 20.9988 1248.25 20.9988ZM1248.67 30.1991C1246.92 30.1991 1245.54 29.7141 1244.55 28.7439C1243.56 27.7737 1243.07 26.3998 1243.07 24.6223C1243.07 22.7926 1243.52 21.3797 1244.44 20.3834C1245.35 19.3807 1246.62 18.8793 1248.23 18.8793C1249.78 18.8793 1250.98 19.3189 1251.84 20.1979C1252.7 21.0769 1253.13 22.2912 1253.13 23.8409V25.2864H1246.09C1246.12 26.1329 1246.37 26.7938 1246.84 27.2691C1247.31 27.7444 1247.96 27.9821 1248.81 27.9821C1249.47 27.9821 1250.09 27.9137 1250.68 27.777C1251.26 27.6402 1251.87 27.4221 1252.51 27.1226V29.4276C1251.99 29.688 1251.43 29.8801 1250.84 30.0038C1250.25 30.134 1249.53 30.1991 1248.67 30.1991Z" fill="#BABABA"/>
<path d="M1265.63 30.0038H1262.65V23.626C1262.65 22.8382 1262.51 22.2489 1262.23 21.8582C1261.95 21.4611 1261.5 21.2625 1260.89 21.2625C1260.06 21.2625 1259.46 21.5424 1259.09 22.1024C1258.71 22.6559 1258.53 23.5772 1258.53 24.8664V30.0038H1255.55V19.0845H1257.83L1258.23 20.4811H1258.39C1258.72 19.9537 1259.18 19.5565 1259.76 19.2896C1260.35 19.0161 1261.01 18.8793 1261.75 18.8793C1263.02 18.8793 1263.99 19.2244 1264.64 19.9146C1265.3 20.5983 1265.63 21.588 1265.63 22.8838V30.0038Z" fill="#BABABA"/>
<path d="M1275.63 30.0038L1275.05 28.5192H1274.98C1274.47 29.1508 1273.96 29.5903 1273.42 29.8378C1272.9 30.0787 1272.21 30.1991 1271.35 30.1991C1270.3 30.1991 1269.48 29.8996 1268.87 29.3006C1268.27 28.7016 1267.97 27.8486 1267.97 26.7417C1267.97 25.5827 1268.38 24.7297 1269.18 24.1828C1270 23.6293 1271.22 23.3233 1272.86 23.2647L1274.75 23.2061V22.7275C1274.75 21.6206 1274.18 21.0671 1273.05 21.0671C1272.18 21.0671 1271.15 21.3308 1269.98 21.8582L1268.99 19.8463C1270.25 19.1886 1271.64 18.8598 1273.17 18.8598C1274.63 18.8598 1275.76 19.1789 1276.54 19.817C1277.32 20.4551 1277.71 21.4252 1277.71 22.7275V30.0038H1275.63ZM1274.75 24.9446L1273.6 24.9836C1272.73 25.0097 1272.09 25.166 1271.67 25.4524C1271.24 25.7389 1271.03 26.1752 1271.03 26.7612C1271.03 27.6012 1271.51 28.0211 1272.48 28.0211C1273.17 28.0211 1273.72 27.8225 1274.13 27.4254C1274.54 27.0282 1274.75 26.5008 1274.75 25.8431V24.9446Z" fill="#BABABA"/>
<path d="M1280.37 28.6071C1280.37 28.0602 1280.51 27.6467 1280.81 27.3667C1281.1 27.0868 1281.53 26.9468 1282.09 26.9468C1282.63 26.9468 1283.04 27.09 1283.34 27.3765C1283.64 27.663 1283.79 28.0732 1283.79 28.6071C1283.79 29.1215 1283.64 29.5285 1283.34 29.828C1283.04 30.121 1282.62 30.2675 1282.09 30.2675C1281.54 30.2675 1281.12 30.1243 1280.82 29.8378C1280.52 29.5448 1280.37 29.1346 1280.37 28.6071Z" fill="#BABABA"/>
<path d="M1286.36 16.2618C1286.36 15.2917 1286.9 14.8066 1287.99 14.8066C1289.07 14.8066 1289.61 15.2917 1289.61 16.2618C1289.61 16.7241 1289.47 17.0855 1289.2 17.3459C1288.93 17.5999 1288.53 17.7269 1287.99 17.7269C1286.9 17.7269 1286.36 17.2385 1286.36 16.2618ZM1289.47 30.0038H1286.49V19.0845H1289.47V30.0038Z" fill="#BABABA"/>
<path d="M1294.98 24.5246C1294.98 25.6055 1295.15 26.4226 1295.51 26.9761C1295.86 27.5295 1296.44 27.8063 1297.24 27.8063C1298.04 27.8063 1298.61 27.5328 1298.95 26.9858C1299.31 26.4324 1299.48 25.612 1299.48 24.5246C1299.48 23.4437 1299.31 22.6331 1298.95 22.0926C1298.6 21.5522 1298.03 21.282 1297.22 21.282C1296.43 21.282 1295.86 21.5522 1295.51 22.0926C1295.15 22.6266 1294.98 23.4372 1294.98 24.5246ZM1302.53 24.5246C1302.53 26.3022 1302.06 27.6923 1301.12 28.695C1300.18 29.6978 1298.88 30.1991 1297.21 30.1991C1296.16 30.1991 1295.23 29.9712 1294.43 29.5155C1293.63 29.0532 1293.02 28.3923 1292.59 27.5328C1292.16 26.6733 1291.94 25.6706 1291.94 24.5246C1291.94 22.7405 1292.41 21.3536 1293.34 20.3639C1294.27 19.3742 1295.58 18.8793 1297.26 18.8793C1298.31 18.8793 1299.24 19.1072 1300.04 19.563C1300.84 20.0188 1301.45 20.6732 1301.88 21.5262C1302.31 22.3791 1302.53 23.3786 1302.53 24.5246Z" fill="#BABABA"/>
<path d="M1202.1 22.0028C1202.1 32.4975 1193.59 41.0052 1183.1 41.0052C1172.6 41.0052 1164.1 32.4975 1164.1 22.0028C1164.1 11.508 1172.6 3.00038 1183.1 3.00038C1193.59 3.00038 1202.1 11.508 1202.1 22.0028Z" fill="#BABABA"/>
<path d="M1192.1 27.0034C1190.97 27.0034 1190.84 25.7533 1189.11 25.7533C1187.36 25.7533 1187.23 27.0034 1186.1 27.0034C1184.99 27.0034 1184.84 25.7533 1183.1 25.7533C1181.38 25.7533 1181.2 27.0034 1180.11 27.0034C1178.97 27.0034 1178.85 25.7533 1177.1 25.7533C1175.35 25.7533 1175.23 27.0034 1174.1 27.0034V23.878C1174.1 22.8427 1174.96 22.0028 1176.03 22.0028H1176.67V16.3771H1179.24V22.0028H1181.81V16.3771H1184.39V22.0028H1186.96V16.3771H1189.53V22.0028H1190.17C1191.24 22.0028 1192.1 22.8427 1192.1 23.878V27.0034ZM1192.1 32.0041H1174.1V28.2536C1175.84 28.2536 1175.98 27.0034 1177.1 27.0034C1178.22 27.0034 1178.36 28.2536 1180.11 28.2536C1181.83 28.2536 1182 27.0034 1183.1 27.0034C1184.23 27.0034 1184.35 28.2536 1186.1 28.2536C1187.85 28.2536 1187.98 27.0034 1189.11 27.0034C1190.21 27.0034 1190.36 28.2536 1192.1 28.2536V32.0041ZM1177.96 15.752C1177.24 15.752 1176.67 15.1953 1176.67 14.5018C1176.67 13.2907 1177.96 13.6033 1177.96 12.0015C1178.44 12.0015 1179.24 13.154 1179.24 14.1893C1179.24 15.2246 1178.67 15.752 1177.96 15.752ZM1183.1 15.752C1182.39 15.752 1181.81 15.1953 1181.81 14.5018C1181.81 13.2907 1183.1 13.6033 1183.1 12.0015C1183.58 12.0015 1184.39 13.154 1184.39 14.1893C1184.39 15.2246 1183.81 15.752 1183.1 15.752ZM1188.24 15.752C1187.53 15.752 1186.96 15.1953 1186.96 14.5018C1186.96 13.2907 1188.24 13.6033 1188.24 12.0015C1188.72 12.0015 1189.53 13.154 1189.53 14.1893C1189.53 15.2246 1188.96 15.752 1188.24 15.752Z" fill="white"/>
<path d="M338.324 32.1174C337.469 32.7971 336.355 33.3245 334.984 33.6996C333.613 34.0746 331.925 34.2622 329.921 34.2622C327.928 34.2622 325.807 34.0805 323.557 33.7172V10.5463C325.83 10.1829 327.799 10.0013 329.464 10.0013C331.14 10.0013 332.511 10.1595 333.577 10.4759C334.656 10.7924 335.535 11.2202 336.214 11.7593C337.551 12.8024 338.219 14.1561 338.219 15.8204C338.219 17.4729 337.615 18.8442 336.408 19.9342C337.838 20.3795 338.945 21.2234 339.731 22.4657C340.445 23.5792 340.803 24.8156 340.803 26.1752C340.803 27.523 340.604 28.6775 340.205 29.6385C339.818 30.5996 339.191 31.4259 338.324 32.1174ZM328.215 19.2837C328.708 19.3657 329.323 19.4068 330.061 19.4068C330.8 19.4068 331.403 19.313 331.872 19.1255C332.353 18.9262 332.722 18.6801 332.98 18.3871C333.402 17.9066 333.613 17.2385 333.613 16.3829C333.613 14.5897 332.558 13.6931 330.448 13.6931C329.557 13.6931 328.813 13.7283 328.215 13.7986V19.2837ZM330.817 23.0459C329.833 23.0459 328.966 23.1104 328.215 23.2393V30.1484C329.036 30.3593 329.897 30.4648 330.8 30.4648C331.702 30.4648 332.493 30.3593 333.173 30.1484C333.865 29.9257 334.445 29.6268 334.914 29.2518C335.863 28.4782 336.338 27.4937 336.338 26.2983C336.338 24.13 334.497 23.0459 330.817 23.0459Z" fill="#BABABA"/>
<path d="M342.842 24.7336C342.842 23.4444 343.059 22.2138 343.493 21.0417C343.938 19.858 344.571 18.8266 345.391 17.9476C347.185 16.0489 349.511 15.0996 352.371 15.0996C355.219 15.0996 357.481 15.9962 359.157 17.7894C360.763 19.5005 361.565 21.7215 361.565 24.4523C361.565 27.1831 360.739 29.4451 359.087 31.2383C357.34 33.137 355.025 34.0864 352.142 34.0864C349.165 34.0864 346.833 33.1546 345.145 31.2911C343.61 29.5916 342.842 27.4058 342.842 24.7336ZM347.114 24.6281C347.114 25.3665 347.237 26.0814 347.483 26.7729C347.73 27.4644 348.081 28.0563 348.538 28.5485C349.511 29.6151 350.789 30.1484 352.371 30.1484C353.836 30.1484 354.99 29.6268 355.834 28.5837C356.655 27.5758 357.065 26.2631 357.065 24.6457C357.065 23.0049 356.643 21.6805 355.799 20.6725C354.897 19.5943 353.66 19.0551 352.09 19.0551C350.496 19.0551 349.247 19.6294 348.345 20.778C347.525 21.8328 347.114 23.1162 347.114 24.6281Z" fill="#BABABA"/>
<path d="M363.904 24.7336C363.904 23.4444 364.12 22.2138 364.554 21.0417C364.999 19.858 365.632 18.8266 366.453 17.9476C368.246 16.0489 370.572 15.0996 373.432 15.0996C376.28 15.0996 378.542 15.9962 380.218 17.7894C381.824 19.5005 382.627 21.7215 382.627 24.4523C382.627 27.1831 381.8 29.4451 380.148 31.2383C378.401 33.137 376.087 34.0864 373.204 34.0864C370.227 34.0864 367.894 33.1546 366.207 31.2911C364.671 29.5916 363.904 27.4058 363.904 24.7336ZM368.176 24.6281C368.176 25.3665 368.299 26.0814 368.545 26.7729C368.791 27.4644 369.142 28.0563 369.6 28.5485C370.572 29.6151 371.85 30.1484 373.432 30.1484C374.897 30.1484 376.052 29.6268 376.895 28.5837C377.716 27.5758 378.126 26.2631 378.126 24.6457C378.126 23.0049 377.704 21.6805 376.86 20.6725C375.958 19.5943 374.721 19.0551 373.151 19.0551C371.557 19.0551 370.309 19.6294 369.406 20.778C368.586 21.8328 368.176 23.1162 368.176 24.6281Z" fill="#BABABA"/>
<path d="M392.489 34.0864C389.184 34.0864 386.694 33.4828 385.018 32.2756C385.041 31.924 385.076 31.5255 385.123 31.0801L385.281 29.8143C385.375 28.9822 385.434 28.4665 385.457 28.2673C385.48 28.0563 385.498 27.9449 385.51 27.9332C385.522 27.9098 385.615 28.0035 385.791 28.2145C385.967 28.4138 386.301 28.6599 386.793 28.9529C387.285 29.2459 387.854 29.5037 388.498 29.7264C389.893 30.207 391.346 30.4472 392.858 30.4472C394.886 30.4472 395.9 29.7733 395.9 28.4255C395.9 27.9918 395.706 27.6695 395.32 27.4586C394.628 27.107 393.608 26.8432 392.261 26.6674C390.925 26.4799 389.829 26.2104 388.973 25.8587C388.118 25.5071 387.42 25.0852 386.881 24.593C385.885 23.6671 385.387 22.454 385.387 20.9538C385.387 19.1255 386.09 17.6897 387.496 16.6466C388.891 15.6153 390.819 15.0996 393.28 15.0996C395.718 15.0996 397.798 15.7911 399.521 17.1741C399.439 17.4788 399.351 17.7718 399.258 18.0531C398.988 18.8266 398.789 19.3833 398.66 19.7232L398.256 20.7604C398.232 20.8542 398.215 20.9011 398.203 20.9011C398.179 20.9011 398.086 20.778 397.922 20.5319C397.183 19.6763 396.035 19.1138 394.476 18.8442C393.995 18.7504 393.503 18.7035 392.999 18.7035C390.866 18.7035 389.799 19.3482 389.799 20.6374C389.799 21.0828 390.022 21.4226 390.467 21.657C391.3 22.1024 392.436 22.4306 393.878 22.6415C395.331 22.8525 396.433 23.1397 397.183 23.503C397.933 23.8546 398.537 24.2824 398.994 24.7863C399.838 25.7005 400.26 26.9136 400.26 28.4255C400.26 30.078 399.598 31.42 398.273 32.4514C396.89 33.5414 394.962 34.0864 392.489 34.0864Z" fill="#BABABA"/>
<path d="M410.527 34.0864C407.222 34.0864 404.731 33.4828 403.055 32.2756C403.078 31.924 403.114 31.5255 403.16 31.0801L403.319 29.8143C403.412 28.9822 403.471 28.4665 403.495 28.2673C403.518 28.0563 403.536 27.9449 403.547 27.9332C403.559 27.9098 403.653 28.0035 403.829 28.2145C404.004 28.4138 404.338 28.6599 404.831 28.9529C405.323 29.2459 405.891 29.5037 406.536 29.7264C407.931 30.207 409.384 30.4472 410.896 30.4472C412.923 30.4472 413.937 29.7733 413.937 28.4255C413.937 27.9918 413.744 27.6695 413.357 27.4586C412.666 27.107 411.646 26.8432 410.298 26.6674C408.962 26.4799 407.866 26.2104 407.011 25.8587C406.155 25.5071 405.458 25.0852 404.919 24.593C403.922 23.6671 403.424 22.454 403.424 20.9538C403.424 19.1255 404.127 17.6897 405.534 16.6466C406.929 15.6153 408.857 15.0996 411.318 15.0996C413.756 15.0996 415.836 15.7911 417.559 17.1741C417.477 17.4788 417.389 17.7718 417.295 18.0531C417.026 18.8266 416.826 19.3833 416.697 19.7232L416.293 20.7604C416.27 20.8542 416.252 20.9011 416.24 20.9011C416.217 20.9011 416.123 20.778 415.959 20.5319C415.221 19.6763 414.072 19.1138 412.513 18.8442C412.033 18.7504 411.54 18.7035 411.036 18.7035C408.903 18.7035 407.837 19.3482 407.837 20.6374C407.837 21.0828 408.06 21.4226 408.505 21.657C409.337 22.1024 410.474 22.4306 411.915 22.6415C413.369 22.8525 414.471 23.1397 415.221 23.503C415.971 23.8546 416.574 24.2824 417.031 24.7863C417.875 25.7005 418.297 26.9136 418.297 28.4255C418.297 30.078 417.635 31.42 416.311 32.4514C414.928 33.5414 413 34.0864 410.527 34.0864Z" fill="#BABABA"/>
<path d="M430.533 29.955C432.045 29.955 433.082 29.5623 433.645 28.7771H433.785L433.838 32.8557C433.264 33.43 432.197 33.8109 430.639 33.9984C430.217 34.0571 429.689 34.0864 429.056 34.0864C428.435 34.0864 427.755 33.9691 427.017 33.7347C426.29 33.5003 425.669 33.1194 425.153 32.592C424.087 31.502 423.554 29.7967 423.554 27.4761V19.4947H420.899C420.887 19.1548 420.881 18.809 420.881 18.4574V15.75C420.881 15.5508 420.887 15.4512 420.899 15.4512H423.554V10.4408H427.861V15.4512H432.695V19.4947H427.861V26.6674C427.861 28.5075 428.371 29.5565 429.39 29.8143C429.719 29.9081 430.099 29.955 430.533 29.955Z" fill="#BABABA"/>
<path d="M1442.88 27.0035H1439.91V20.6258C1439.91 19.8379 1439.77 19.2487 1439.5 18.858C1439.24 18.4608 1438.83 18.2622 1438.26 18.2622C1437.5 18.2622 1436.95 18.5422 1436.6 19.1022C1436.26 19.6621 1436.09 20.5835 1436.09 21.8662V27.0035H1433.11V16.0842H1435.38L1435.78 17.4809H1435.95C1436.24 16.9795 1436.67 16.5888 1437.22 16.3088C1437.77 16.0223 1438.41 15.8791 1439.12 15.8791C1440.76 15.8791 1441.87 16.413 1442.44 17.4809H1442.71C1443 16.973 1443.43 16.579 1444 16.2991C1444.57 16.0191 1445.22 15.8791 1445.93 15.8791C1447.17 15.8791 1448.1 16.1981 1448.73 16.8362C1449.37 17.4678 1449.69 18.4836 1449.69 19.8835V27.0035H1446.7V20.6258C1446.7 19.8379 1446.57 19.2487 1446.3 18.858C1446.04 18.4608 1445.63 18.2622 1445.06 18.2622C1444.33 18.2622 1443.79 18.5227 1443.42 19.0436C1443.06 19.5645 1442.88 20.3914 1442.88 21.5243V27.0035Z" fill="#BABABA"/>
<path d="M1459.69 27.0035L1459.12 25.519H1459.04C1458.54 26.1506 1458.02 26.5901 1457.49 26.8375C1456.96 27.0784 1456.27 27.1989 1455.41 27.1989C1454.37 27.1989 1453.54 26.8994 1452.93 26.3003C1452.34 25.7013 1452.04 24.8483 1452.04 23.7414C1452.04 22.5824 1452.44 21.7294 1453.25 21.1825C1454.06 20.629 1455.28 20.323 1456.92 20.2644L1458.81 20.2058V19.7272C1458.81 18.6203 1458.25 18.0669 1457.11 18.0669C1456.24 18.0669 1455.22 18.3306 1454.04 18.858L1453.05 16.846C1454.31 16.1884 1455.7 15.8596 1457.23 15.8596C1458.7 15.8596 1459.82 16.1786 1460.6 16.8167C1461.38 17.4548 1461.77 18.425 1461.77 19.7272V27.0035H1459.69ZM1458.81 21.9443L1457.66 21.9834C1456.8 22.0094 1456.15 22.1657 1455.73 22.4522C1455.3 22.7387 1455.09 23.1749 1455.09 23.7609C1455.09 24.6009 1455.57 25.0209 1456.54 25.0209C1457.23 25.0209 1457.78 24.8223 1458.19 24.4251C1458.61 24.0279 1458.81 23.5005 1458.81 22.8429V21.9443Z" fill="#BABABA"/>
<path d="M1474.93 27.0035H1471.95V20.6258C1471.95 19.8379 1471.81 19.2487 1471.53 18.858C1471.25 18.4608 1470.8 18.2622 1470.19 18.2622C1469.36 18.2622 1468.76 18.5422 1468.39 19.1022C1468.01 19.6556 1467.83 20.5769 1467.83 21.8662V27.0035H1464.85V16.0842H1467.13L1467.53 17.4809H1467.69C1468.02 16.9534 1468.48 16.5563 1469.06 16.2893C1469.65 16.0158 1470.31 15.8791 1471.05 15.8791C1472.32 15.8791 1473.29 16.2242 1473.94 16.9144C1474.6 17.5981 1474.93 18.5878 1474.93 19.8835V27.0035Z" fill="#BABABA"/>
<path d="M1482.6 24.8255C1483.12 24.8255 1483.74 24.7116 1484.47 24.4837V26.7008C1483.73 27.0328 1482.82 27.1989 1481.74 27.1989C1480.55 27.1989 1479.68 26.8994 1479.13 26.3003C1478.59 25.6948 1478.32 24.7897 1478.32 23.5851V18.3208H1476.89V17.0609L1478.53 16.0647L1479.39 13.7597H1481.3V16.0842H1484.35V18.3208H1481.3V23.5851C1481.3 24.0084 1481.41 24.3209 1481.65 24.5228C1481.89 24.7246 1482.21 24.8255 1482.6 24.8255Z" fill="#BABABA"/>
<path d="M1496.77 27.0035H1493.79V20.6258C1493.79 19.0501 1493.2 18.2622 1492.03 18.2622C1491.2 18.2622 1490.6 18.5454 1490.22 19.1119C1489.85 19.6784 1489.67 20.5965 1489.67 21.8662V27.0035H1486.69V11.8063H1489.67V14.9024C1489.67 15.1433 1489.64 15.7098 1489.6 16.6018L1489.53 17.4809H1489.69C1490.35 16.413 1491.41 15.8791 1492.85 15.8791C1494.13 15.8791 1495.11 16.2242 1495.77 16.9144C1496.44 17.6046 1496.77 18.5943 1496.77 19.8835V27.0035Z" fill="#BABABA"/>
<path d="M1507.57 27.0035L1507.17 25.6069H1507.01C1506.69 26.1148 1506.24 26.5087 1505.66 26.7887C1505.07 27.0621 1504.4 27.1989 1503.65 27.1989C1502.37 27.1989 1501.4 26.857 1500.75 26.1734C1500.1 25.4832 1499.78 24.4935 1499.78 23.2042V16.0842H1502.75V22.462C1502.75 23.2498 1502.89 23.8423 1503.17 24.2395C1503.45 24.6302 1503.9 24.8255 1504.51 24.8255C1505.35 24.8255 1505.95 24.5488 1506.32 23.9954C1506.69 23.4354 1506.88 22.5108 1506.88 21.2216V16.0842H1509.86V27.0035H1507.57Z" fill="#BABABA"/>
<path d="M1515.96 27.0035H1512.98V11.8063H1515.96V27.0035Z" fill="#BABABA"/>
<path d="M1382.54 19.0024C1382.54 16.507 1383.03 14.036 1383.98 11.7305C1384.94 9.42502 1386.34 7.33021 1388.1 5.56567C1389.87 3.80114 1391.96 2.40143 1394.27 1.44647C1396.57 0.491508 1399.05 -3.89607e-06 1401.54 -3.56883e-06C1404.04 -3.2416e-06 1406.51 0.491509 1408.81 1.44647C1411.12 2.40143 1413.21 3.80114 1414.98 5.56567C1416.74 7.33021 1418.14 9.42502 1419.1 11.7305C1420.05 14.036 1420.54 16.507 1420.54 19.0024L1411.04 19.0024C1411.04 17.7547 1410.8 16.5192 1410.32 15.3665C1409.84 14.2137 1409.14 13.1663 1408.26 12.284C1407.38 11.4018 1406.33 10.7019 1405.18 10.2244C1404.02 9.74696 1402.79 9.5012 1401.54 9.5012C1400.29 9.5012 1399.06 9.74696 1397.9 10.2244C1396.75 10.7019 1395.7 11.4018 1394.82 12.284C1393.94 13.1663 1393.24 14.2137 1392.76 15.3665C1392.29 16.5192 1392.04 17.7547 1392.04 19.0024L1382.54 19.0024Z" fill="#BABABA"/>
<path fill-rule="evenodd" clip-rule="evenodd" d="M1395.03 34.7104C1393.59 34.1123 1392.24 33.3192 1391.02 32.3557L1394.95 28.4256C1395.63 28.9039 1396.37 29.3076 1397.14 29.6284C1398.53 30.2064 1400.03 30.5039 1401.54 30.5039C1403.05 30.5039 1404.55 30.2064 1405.94 29.6284C1406.72 29.3076 1407.45 28.9039 1408.14 28.4256L1412.07 32.3557C1410.84 33.3192 1409.49 34.1123 1408.05 34.7104C1405.98 35.5648 1403.77 36.0046 1401.54 36.0046C1399.31 36.0046 1397.1 35.5648 1395.03 34.7104ZM1413.49 33.7789C1414.01 33.3596 1414.5 32.9125 1414.98 32.4391L1408.26 25.7208C1407.38 26.603 1406.33 27.3029 1405.18 27.7804C1404.02 28.2579 1402.79 28.5036 1401.54 28.5036C1400.29 28.5036 1399.06 28.2579 1397.9 27.7804C1396.75 27.3029 1395.7 26.603 1394.82 25.7208L1388.1 32.4391C1388.58 32.9125 1389.07 33.3596 1389.59 33.7789C1391.01 34.9226 1392.58 35.8596 1394.27 36.5583C1396.57 37.5133 1399.05 38.0048 1401.54 38.0048C1404.04 38.0048 1406.51 37.5133 1408.81 36.5583C1410.5 35.8596 1412.07 34.9226 1413.49 33.7789Z" fill="#BABABA"/>
<path d="M731.858 7.09752C731.196 5.95014 729.678 5.62785 728.694 6.4916C725.442 9.34716 723.373 13.6079 723.373 18.3779H738.375L731.858 7.09752ZM752.439 12.1898H749.626C747.558 12.1898 745.876 14.0398 745.876 16.3152V20.4406H723.373C723.373 23.7023 724.721 26.6545 726.907 28.8655C724.879 29.4392 723.373 31.4439 723.373 33.8482C723.373 36.6973 725.471 39.0049 728.061 39.0049C730.651 39.0049 732.749 36.6973 732.749 33.8482C732.749 33.2745 732.644 32.7395 732.491 32.2238C733.757 32.6041 735.105 32.8168 736.5 32.8168C737.894 32.8168 739.248 32.6041 740.508 32.2238C740.35 32.7395 740.25 33.2745 740.25 33.8482C740.25 36.6973 742.348 39.0049 744.938 39.0049C747.528 39.0049 749.626 36.6973 749.626 33.8482C749.626 31.4439 748.12 29.4392 746.093 28.8655C748.278 26.6545 749.626 23.7023 749.626 20.4406V16.3152H752.439C752.955 16.3152 753.377 15.8511 753.377 15.2839V13.2212C753.377 12.6539 752.955 12.1898 752.439 12.1898ZM728.061 35.9109C727.03 35.9109 726.186 34.9827 726.186 33.8482C726.186 32.7137 727.03 31.7855 728.061 31.7855C729.092 31.7855 729.936 32.7137 729.936 33.8482C729.936 34.9827 729.092 35.9109 728.061 35.9109ZM746.813 33.8482C746.813 34.9827 745.97 35.9109 744.938 35.9109C743.907 35.9109 743.063 34.9827 743.063 33.8482C743.063 32.7137 743.907 31.7855 744.938 31.7855C745.97 31.7855 746.813 32.7137 746.813 33.8482Z" fill="#BABABA"/>
<path d="M770.715 13.4412H776.492C779.124 13.4412 781.033 13.8178 782.218 14.5712C783.412 15.3161 784.009 16.5053 784.009 18.139C784.009 19.2479 783.746 20.1578 783.221 20.8689C782.705 21.5799 782.015 22.0073 781.152 22.1512V22.2782C782.328 22.5406 783.175 23.0316 783.691 23.7511C784.216 24.4705 784.478 25.4271 784.478 26.6206C784.478 28.3135 783.865 29.634 782.637 30.582C781.418 31.53 779.759 32.0041 777.66 32.0041H770.715V13.4412ZM774.651 20.7927H776.936C778.003 20.7927 778.773 20.6276 779.247 20.2975C779.73 19.9674 779.971 19.4214 779.971 18.6596C779.971 17.9486 779.709 17.4407 779.184 17.136C778.667 16.8228 777.846 16.6662 776.721 16.6662H774.651V20.7927ZM774.651 23.9161V28.7536H777.216C778.299 28.7536 779.099 28.5463 779.615 28.1315C780.132 27.7167 780.39 27.0819 780.39 26.227C780.39 24.6864 779.29 23.9161 777.089 23.9161H774.651Z" fill="#BABABA"/>
<path d="M798.877 32.0041H788.186V13.4412H798.877V16.6662H792.122V20.7419H798.407V23.9669H792.122V28.7536H798.877V32.0041Z" fill="#BABABA"/>
<path d="M802.762 13.4412H808.539C811.171 13.4412 813.08 13.8178 814.265 14.5712C815.459 15.3161 816.056 16.5053 816.056 18.139C816.056 19.2479 815.793 20.1578 815.268 20.8689C814.752 21.5799 814.062 22.0073 813.199 22.1512V22.2782C814.375 22.5406 815.222 23.0316 815.738 23.7511C816.263 24.4705 816.525 25.4271 816.525 26.6206C816.525 28.3135 815.912 29.634 814.684 30.582C813.465 31.53 811.806 32.0041 809.707 32.0041H802.762V13.4412ZM806.698 20.7927H808.983C810.05 20.7927 810.82 20.6276 811.294 20.2975C811.777 19.9674 812.018 19.4214 812.018 18.6596C812.018 17.9486 811.756 17.4407 811.231 17.136C810.714 16.8228 809.893 16.6662 808.768 16.6662H806.698V20.7927ZM806.698 23.9161V28.7536H809.263C810.346 28.7536 811.146 28.5463 811.662 28.1315C812.179 27.7167 812.437 27.0819 812.437 26.227C812.437 24.6864 811.337 23.9161 809.136 23.9161H806.698Z" fill="#BABABA"/>
<path d="M826.01 21.0847L829.883 13.4412H834.123L827.965 24.7795V32.0041H824.055V24.9065L817.897 13.4412H822.163L826.01 21.0847Z" fill="#BABABA"/>
<path d="M835.609 30.1884C835.609 29.4774 835.799 28.9399 836.18 28.5759C836.561 28.2119 837.116 28.0299 837.843 28.0299C838.546 28.0299 839.088 28.2161 839.469 28.5886C839.858 28.961 840.053 29.4943 840.053 30.1884C840.053 30.8571 839.858 31.3861 839.469 31.7755C839.079 32.1564 838.538 32.3469 837.843 32.3469C837.132 32.3469 836.582 32.1607 836.193 31.7882C835.804 31.4073 835.609 30.874 835.609 30.1884Z" fill="#BABABA"/>
<path d="M852.039 15.1045C849.999 15.1045 848.386 15.7859 847.201 17.1487C846.025 18.503 845.436 20.361 845.436 22.7226C845.436 25.152 846.003 27.0311 847.138 28.36C848.28 29.6805 849.906 30.3408 852.013 30.3408C853.308 30.3408 854.785 30.108 856.444 29.6424V31.5343C855.158 32.0168 853.571 32.258 851.683 32.258C848.949 32.258 846.837 31.4285 845.347 29.7694C843.866 28.1103 843.125 25.7529 843.125 22.6972C843.125 20.7842 843.481 19.1082 844.192 17.6692C844.911 16.2302 845.944 15.1214 847.29 14.3426C848.644 13.5639 850.236 13.1745 852.064 13.1745C854.011 13.1745 855.712 13.53 857.168 14.2411L856.254 16.0948C854.849 15.4346 853.444 15.1045 852.039 15.1045Z" fill="#BABABA"/>
<path d="M876.607 22.6972C876.607 25.6683 875.854 28.0045 874.347 29.7059C872.849 31.4073 870.762 32.258 868.088 32.258C865.353 32.258 863.242 31.4242 861.752 29.7567C860.27 28.0807 859.53 25.7191 859.53 22.6718C859.53 19.65 860.275 17.3095 861.765 15.6504C863.254 13.9829 865.37 13.1491 868.113 13.1491C870.779 13.1491 872.862 13.9956 874.36 15.6885C875.858 17.3814 876.607 19.7177 876.607 22.6972ZM861.815 22.6972C861.815 25.2112 862.349 27.12 863.415 28.4235C864.49 29.7186 866.048 30.3662 868.088 30.3662C870.144 30.3662 871.698 29.7186 872.747 28.4235C873.797 27.1284 874.322 25.2197 874.322 22.6972C874.322 20.2002 873.797 18.3083 872.747 17.0217C871.706 15.7266 870.161 15.0791 868.113 15.0791C866.056 15.0791 864.49 15.7308 863.415 17.0344C862.349 18.3295 861.815 20.2171 861.815 22.6972Z" fill="#BABABA"/>
<path d="M540.695 24.3976C540.695 27.0347 540.742 28.7283 540.836 29.4783H536.248V11.1069H540.695V12.6891C542.301 11.3999 543.948 10.7553 545.636 10.7553C547.628 10.7553 549.075 11.6167 549.978 13.3396C550.88 12.4137 551.63 11.8042 552.228 11.5112C553.224 11.0073 554.221 10.7553 555.217 10.7553C556.225 10.7553 557.08 10.9252 557.784 11.2651C558.487 11.605 559.067 12.0855 559.524 12.7067C560.45 13.9608 560.913 15.6836 560.913 17.8753V24.8723C560.913 26.853 560.942 28.0426 561.001 28.4411C561.059 28.8396 561.136 29.0974 561.229 29.2146C561.335 29.3318 561.423 29.4373 561.493 29.5311L561.458 29.6014C560.52 29.5194 559.829 29.4783 559.383 29.4783H558.065C557.631 29.4783 557.098 29.4959 556.465 29.5311V20.0201C556.465 17.2776 556.043 15.6485 555.199 15.1328C554.918 14.9687 554.584 14.8867 554.197 14.8867C553.822 14.8867 553.488 14.9335 553.195 15.0273C552.902 15.1093 552.627 15.25 552.369 15.4492C551.935 15.7657 551.443 16.3868 550.892 17.3127C550.904 17.4065 550.91 17.5003 550.91 17.594C550.91 17.6878 550.91 19.2349 550.91 22.2352C550.91 25.2356 550.98 27.65 551.121 29.4783C550.124 29.4783 549.275 29.4783 548.571 29.4783C547.88 29.4783 547.218 29.4959 546.585 29.5311V20.0025C546.585 18.0921 546.468 16.8498 546.233 16.2755C546.011 15.7012 545.77 15.3262 545.513 15.1504C545.255 14.9746 544.938 14.8867 544.563 14.8867C543.016 14.8867 541.727 15.6309 540.695 17.1194V24.3976Z" fill="#BABABA"/>
<path d="M578.142 28.3884C576.477 29.2908 574.971 29.7421 573.623 29.7421C572.276 29.7421 571.121 29.619 570.16 29.3729C569.199 29.115 568.385 28.74 567.716 28.2477C566.357 27.2515 565.677 25.8099 565.677 23.923C565.677 22.2352 566.509 20.8288 568.174 19.7037C569.978 18.4848 572.428 17.8753 575.522 17.8753L576.225 17.8929C576.366 17.9046 576.524 17.9163 576.7 17.9281C576.876 17.9281 577.034 17.9398 577.175 17.9632C577.081 16.088 576.272 14.9921 574.749 14.6757C574.245 14.5702 573.706 14.5175 573.131 14.5175C572.569 14.5175 572.012 14.5702 571.461 14.6757C570.922 14.7695 570.395 14.8984 569.879 15.0625C568.742 15.4258 567.927 15.8419 567.435 16.3107L567.382 16.2755L566.855 12.3902C568.93 11.3003 571.197 10.7553 573.659 10.7553C577.479 10.7553 579.923 12.1324 580.99 14.8867C581.33 15.7657 581.499 16.756 581.499 17.8577V24.2218C581.499 25.5814 581.98 26.5073 582.941 26.9995L579.759 29.9179C579.091 29.5662 578.552 29.0564 578.142 28.3884ZM577.192 21.1277C576.876 21.0691 576.548 21.0398 576.208 21.0398H575.505C572.914 21.0398 571.268 21.6141 570.565 22.7627C570.354 23.1025 570.248 23.46 570.248 23.8351C570.248 24.2101 570.313 24.5441 570.441 24.8371C570.582 25.1184 570.811 25.3528 571.127 25.5403C571.737 25.892 572.639 26.0678 573.834 26.0678C575.042 26.0678 576.167 25.7806 577.21 25.2063C577.198 25.0774 577.192 24.9426 577.192 24.802V21.1277Z" fill="#BABABA"/>
<path d="M586.088 5.99099C586.85 4.77209 587.723 3.62351 588.707 2.54524L592.065 5.19988C591.479 5.94997 591.081 6.46566 590.87 6.74695L590.255 7.60839C590.055 7.87795 589.844 8.18268 589.622 8.52256L586.088 5.99099ZM584.137 32.2033C585.871 32.2033 586.738 30.9141 586.738 28.3356V11.1069H591.01V27.0698C591.01 31.9923 589.61 34.9048 586.809 35.8073C585.895 36.1003 584.857 36.2468 583.697 36.2468L581.869 31.6231L581.904 31.5352C582.572 31.9806 583.316 32.2033 584.137 32.2033Z" fill="#BABABA"/>
<path d="M595.476 5.86793C596.413 4.4029 597.392 3.11368 598.412 2.00025L602.192 4.97133C601.688 5.59251 601.219 6.20196 600.785 6.79969C600.785 6.79969 600.334 7.43844 599.431 8.71595L595.476 5.86793ZM600.099 27.5093C600.099 28.5173 600.123 29.1736 600.17 29.4783H595.704V11.1069H600.099V27.5093Z" fill="#BABABA"/>
<path d="M609.698 27.2281C609.698 28.2594 609.745 29.0095 609.839 29.4783H605.426V11.1069H609.698V12.6715C611.245 11.394 612.898 10.7553 614.656 10.7553C616.578 10.7553 618.114 11.4116 619.262 12.7243C620.411 14.0252 620.985 15.7422 620.985 17.8753V24.8723C620.985 26.853 621.014 28.0426 621.073 28.4411C621.131 28.8396 621.208 29.0974 621.301 29.2146C621.407 29.3318 621.495 29.4373 621.565 29.5311L621.53 29.6014C620.581 29.5194 619.889 29.4783 619.455 29.4783H618.225C617.85 29.4783 617.346 29.4959 616.713 29.5311V19.9498C616.713 16.5158 615.67 14.7988 613.584 14.7988C612.037 14.7988 610.741 15.5957 609.698 17.1897V27.2281Z" fill="#BABABA"/>
<path d="M625.257 20.442C625.257 19.0708 625.491 17.7991 625.96 16.6271C626.429 15.4551 627.091 14.4296 627.947 13.5505C629.775 11.687 632.166 10.7553 635.12 10.7553C637.616 10.7553 639.62 11.5815 641.132 13.2341C642.621 14.8281 643.365 16.8322 643.365 19.2466C643.365 20.1725 643.294 20.8054 643.154 21.1453C641.982 21.4734 639.597 21.6375 635.999 21.6375H629.81C630.115 22.8916 630.824 23.8702 631.938 24.5734C633.051 25.2649 634.498 25.6107 636.28 25.6107C638.143 25.6107 639.743 25.2766 641.079 24.6086C641.431 24.4328 641.695 24.2687 641.87 24.1163C641.847 24.6086 641.818 25.1126 641.783 25.6282L641.589 28.3708C640.698 28.9802 639.257 29.4022 637.264 29.6366C636.678 29.7069 636.116 29.7421 635.577 29.7421C632.6 29.7421 630.138 28.8748 628.193 27.1402C626.236 25.3938 625.257 23.1611 625.257 20.442ZM638.688 18.2269C638.208 15.7071 636.837 14.4471 634.575 14.4471C632.793 14.4471 631.439 15.2148 630.514 16.7502C630.232 17.219 630.015 17.7347 629.863 18.2972C630.144 18.309 630.49 18.3207 630.9 18.3324H632.201C632.635 18.3441 633.051 18.35 633.449 18.35H634.452C635.049 18.35 635.635 18.3441 636.21 18.3324L637.651 18.2797C638.038 18.2679 638.384 18.2504 638.688 18.2269Z" fill="#BABABA"/>
<path d="M518.65 11.5659C520.314 10.6635 521.82 10.2122 523.168 10.2122C524.516 10.2122 525.67 10.3353 526.631 10.5814C527.592 10.8393 528.407 11.2143 529.075 11.7066C530.434 12.7028 531.114 14.1444 531.114 16.0313C531.114 17.719 530.282 19.1255 528.618 20.2506C526.813 21.4695 524.363 22.079 521.269 22.079L520.566 22.0614C520.425 22.0497 520.267 22.0379 520.091 22.0262C519.916 22.0262 519.757 22.0145 519.617 21.9911C519.71 23.8663 520.519 24.9621 522.043 25.2786C522.547 25.3841 523.086 25.4368 523.66 25.4368C524.223 25.4368 524.779 25.3841 525.33 25.2786C525.869 25.1848 526.397 25.0559 526.912 24.8918C528.049 24.5285 528.864 24.1124 529.356 23.6436L529.409 23.6788L529.936 27.564C527.862 28.654 525.594 29.199 523.133 29.199C519.312 29.199 516.868 27.8219 515.802 25.0676C515.462 24.1886 515.292 23.1983 515.292 22.0966V15.7325C515.292 14.3729 514.811 13.447 513.85 12.9548L517.032 10.0364C517.7 10.388 518.24 10.8979 518.65 11.5659ZM519.599 18.8266C519.916 18.8852 520.244 18.9145 520.584 18.9145H521.287C523.877 18.9145 525.524 18.3402 526.227 17.1916C526.438 16.8517 526.543 16.4943 526.543 16.1192C526.543 15.7442 526.479 15.4102 526.35 15.1172C526.209 14.8359 525.981 14.6015 525.664 14.4139C525.055 14.0623 524.152 13.8865 522.957 13.8865C521.75 13.8865 520.625 14.1737 519.581 14.748C519.593 14.8769 519.599 15.0117 519.599 15.1523V18.8266Z" fill="#BABABA"/>
<path d="M519.242 39.3583C518.461 38.5771 518.461 37.3107 519.242 36.5295L520.949 34.8222C521.73 34.041 522.997 34.041 523.778 34.8222L525.485 36.5295C526.266 37.3107 526.266 38.5771 525.485 39.3583L523.778 41.0656C522.997 41.8468 521.73 41.8468 520.949 41.0656L519.242 39.3583Z" fill="#BABABA"/>
<path d="M999.196 22.1481H1006.34L1004.29 31.8231C1003.15 32.2125 1002.1 32.4749 1001.13 32.6103C1000.16 32.7542 999.137 32.8262 998.053 32.8262C995.861 32.8262 994.168 32.204 992.974 30.9597C991.781 29.7154 991.184 27.9294 991.184 25.6016C991.184 23.3331 991.637 21.2847 992.543 19.4563C993.449 17.6195 994.722 16.2059 996.365 15.2156C998.007 14.2167 999.903 13.7173 1002.05 13.7173C1003.9 13.7173 1005.63 14.1363 1007.26 14.9743L1005.8 18.1612C1005.17 17.8227 1004.55 17.5518 1003.92 17.3486C1003.29 17.1455 1002.61 17.0439 1001.88 17.0439C1000.58 17.0439 999.42 17.3952 998.396 18.0978C997.38 18.8003 996.58 19.8034 995.996 21.1069C995.421 22.402 995.133 23.7987 995.133 25.2969C995.133 26.7528 995.438 27.8236 996.047 28.5092C996.665 29.1864 997.609 29.525 998.879 29.525C999.522 29.525 1000.24 29.4234 1001.04 29.2203L1001.88 25.4239H998.485L999.196 22.1481Z" fill="#BABABA"/>
<path d="M1011.87 32.5722H1008.05L1012.24 12.8158H1016.06L1011.87 32.5722Z" fill="#BABABA"/>
<path d="M1025.52 23.7352C1025.52 22.0677 1024.91 21.2339 1023.7 21.2339C1023.07 21.2339 1022.49 21.4921 1021.99 22.0084C1021.49 22.5247 1021.08 23.2823 1020.76 24.2812C1020.44 25.28 1020.29 26.3084 1020.29 27.3665C1020.29 28.9325 1020.92 29.7154 1022.19 29.7154C1022.82 29.7154 1023.4 29.4573 1023.9 28.9409C1024.41 28.4161 1024.81 27.6924 1025.09 26.7698C1025.37 25.8386 1025.52 24.8271 1025.52 23.7352ZM1029.36 23.7352C1029.36 25.5212 1029.06 27.1041 1028.46 28.4838C1027.87 29.8636 1027.01 30.9343 1025.88 31.6962C1024.76 32.4495 1023.42 32.8262 1021.87 32.8262C1020.22 32.8262 1018.9 32.331 1017.91 31.3406C1016.93 30.3418 1016.44 29.0171 1016.44 27.3665C1016.44 25.5635 1016.74 23.9595 1017.34 22.5544C1017.95 21.1408 1018.83 20.0488 1019.97 19.2786C1021.11 18.4998 1022.45 18.1104 1023.98 18.1104C1025.64 18.1104 1026.95 18.6099 1027.92 19.6087C1028.88 20.6075 1029.36 21.983 1029.36 23.7352Z" fill="#BABABA"/>
<path d="M1041.38 21.6529C1040.85 23.1596 1040.33 24.5097 1039.81 25.7032L1036.86 32.5722H1032.74L1032.09 18.3771H1035.66L1035.71 24.6621L1035.66 26.7824L1035.57 28.9536H1035.62C1035.67 28.7843 1035.73 28.6108 1035.8 28.433C1035.87 28.2468 1036.08 27.667 1036.45 26.6936C1036.81 25.7201 1037.01 25.2165 1037.03 25.1826L1039.97 18.3771H1044.13V25.1826C1044.13 26.3846 1044.09 27.6416 1044 28.9536H1044.08L1044.44 27.9379C1045.05 26.1772 1045.46 25.0853 1045.64 24.6621L1048.42 18.3771H1052.32L1045.59 32.5722H1041.4L1041.32 25.9698C1041.32 24.6578 1041.37 23.2188 1041.45 21.6529H1041.38Z" fill="#BABABA"/>
<path d="M1069.21 14.0093L1066.65 26.0206C1066.17 28.2722 1065.25 29.9694 1063.89 31.1121C1062.52 32.2548 1060.75 32.8262 1058.57 32.8262C1056.77 32.8262 1055.36 32.3479 1054.33 31.3914C1053.3 30.4265 1052.79 29.1229 1052.79 27.4808C1052.79 26.8713 1052.85 26.2873 1052.98 25.7286L1055.47 14.0093H1059.34L1056.88 25.6778C1056.73 26.3042 1056.66 26.8332 1056.66 27.2649C1056.66 28.7716 1057.46 29.525 1059.06 29.525C1060.1 29.525 1060.93 29.2033 1061.54 28.56C1062.15 27.9082 1062.59 26.939 1062.86 25.6524L1065.32 14.0093H1069.21Z" fill="#BABABA"/>
<path d="M1075.61 22.7448H1076.32C1077.52 22.7448 1078.46 22.4528 1079.15 21.8687C1079.84 21.2847 1080.19 20.5017 1080.19 19.5198C1080.19 17.9962 1079.36 17.2344 1077.71 17.2344H1076.77L1075.61 22.7448ZM1084.09 19.4182C1084.09 21.4582 1083.37 23.0622 1081.93 24.2304C1080.5 25.39 1078.52 25.9698 1076 25.9698H1074.91L1073.52 32.5722H1069.65L1073.57 14.0093H1077.87C1079.91 14.0093 1081.46 14.4622 1082.51 15.3679C1083.56 16.2652 1084.09 17.6153 1084.09 19.4182Z" fill="#BABABA"/>
<path d="M976.971 17.5022H969.036L971.965 11.4171C972.24 10.7045 971.449 10.0013 970.37 10.0013H960.469C959.643 10.0013 958.942 10.4185 958.832 10.9764L956.632 22.2278C956.501 22.9029 957.271 23.503 958.268 23.503H966.43L963.26 32.6213C963.013 33.3339 963.81 34.0043 964.862 34.0043C965.44 34.0043 965.99 33.798 966.292 33.4417L978.394 19.1899C979.033 18.4445 978.243 17.5022 976.971 17.5022Z" fill="#BABABA"/>
<path d="M11.3988 31.1427L2.82824 22.5722L11.3988 14.0017" stroke="black" stroke-opacity="0.18" stroke-width="4"/>
<path d="M1606.6 31.1427L1615.17 22.5722L1606.6 14.0017" stroke="black" stroke-width="4"/>
</svg>
