<svg width="50" height="50" viewBox="0 0 50 50" fill="none" xmlns="http://www.w3.org/2000/svg">
<path d="M3.125 43.75C3.125 45.4785 4.52148 46.875 6.25 46.875H43.75C45.4785 46.875 46.875 45.4785 46.875 43.75V15.625H3.125V43.75ZM18.75 23.0469C18.75 22.4023 19.2773 21.875 19.9219 21.875H30.0781C30.7227 21.875 31.25 22.4023 31.25 23.0469V23.8281C31.25 24.4727 30.7227 25 30.0781 25H19.9219C19.2773 25 18.75 24.4727 18.75 23.8281V23.0469ZM46.875 3.125H3.125C1.39648 3.125 0 4.52148 0 6.25V10.9375C0 11.7969 0.703125 12.5 1.5625 12.5H48.4375C49.2969 12.5 50 11.7969 50 10.9375V6.25C50 4.52148 48.6035 3.125 46.875 3.125Z" fill="#FEFEFE"/>
</svg>
