<svg width="76" height="14" viewBox="0 0 76 14" fill="none" xmlns="http://www.w3.org/2000/svg">
<path d="M6.66345 0.472097L4.84133 3.98115L0.764578 4.54567C0.0334979 4.64639 -0.259492 5.50245 0.27068 5.99276L3.22011 8.72261L2.52252 12.5789C2.39695 13.2759 3.16989 13.798 3.81726 13.472L7.46429 11.6512L11.1113 13.472C11.7587 13.7954 12.5316 13.2759 12.4061 12.5789L11.7085 8.72261L14.6579 5.99276C15.1881 5.50245 14.8951 4.64639 14.164 4.54567L10.0872 3.98115L8.26513 0.472097C7.93865 -0.153384 6.99271 -0.161335 6.66345 0.472097Z" fill="#FF7020"/>
<path d="M27.0209 0.472097L25.1987 3.98115L21.122 4.54567C20.3909 4.64639 20.0979 5.50245 20.6281 5.99276L23.5775 8.72261L22.8799 12.5789C22.7544 13.2759 23.5273 13.798 24.1747 13.472L27.8217 11.6512L31.4687 13.472C32.1161 13.7954 32.889 13.2759 32.7635 12.5789L32.0659 8.72261L35.0153 5.99276C35.5455 5.50245 35.2525 4.64639 34.5214 4.54567L30.4447 3.98115L28.6225 0.472097C28.2961 -0.153384 27.3501 -0.161335 27.0209 0.472097Z" fill="#FF7020"/>
<path d="M47.3783 0.472097L45.5562 3.98115L41.4794 4.54567C40.7483 4.64639 40.4554 5.50245 40.9855 5.99276L43.935 8.72261L43.2374 12.5789C43.1118 13.2759 43.8847 13.798 44.5321 13.472L48.1791 11.6512L51.8262 13.472C52.4735 13.7954 53.2465 13.2759 53.1209 12.5789L52.4233 8.72261L55.3727 5.99276C55.9029 5.50245 55.6099 4.64639 54.8788 4.54567L50.8021 3.98115L48.98 0.472097C48.6535 -0.153384 47.7076 -0.161335 47.3783 0.472097Z" fill="#FF7020"/>
<path d="M67.7357 0.472097L65.9136 3.98115L61.8368 4.54567C61.1058 4.64639 60.8128 5.50245 61.3429 5.99276L64.2924 8.72261L63.5948 12.5789C63.4692 13.2759 64.2422 13.798 64.8895 13.472L68.5366 11.6512L72.1836 13.472C72.831 13.7954 73.6039 13.2759 73.4783 12.5789L72.7807 8.72261L75.7302 5.99276C76.2603 5.50245 75.9673 4.64639 75.2363 4.54567L71.1595 3.98115L69.3374 0.472097C69.0109 -0.153384 68.065 -0.161335 67.7357 0.472097Z" fill="#FF7020"/>
</svg>
