<svg width="56" height="56" viewBox="0 0 56 56" fill="none" xmlns="http://www.w3.org/2000/svg">
<g clip-path="url(#clip0_13_8235)">
<g filter="url(#filter0_d_13_8235)">
<rect width="56" height="56" rx="28" fill="white"/>
<rect width="56" height="56" rx="28" stroke="#F0F0F0"/>
</g>
<path fill-rule="evenodd" clip-rule="evenodd" d="M26.1085 16.0008C25.4714 16.0033 24.8344 16.005 24.1973 16C24.1938 16.3026 24.1925 16.6053 24.1911 16.9079L24.1911 16.9081C24.1905 17.0379 24.1899 17.1676 24.1892 17.2973C24.5329 17.2915 24.8763 17.2919 25.2198 17.2922H25.2199C25.5237 17.2925 25.8276 17.2929 26.1316 17.2889C26.1378 16.8598 26.1391 16.4291 26.1085 16.0008ZM23.3653 17.3129L23.2226 17.3137C23.2117 19.5399 23.213 21.7658 23.2143 23.9916V23.9917V23.9917V23.9917V23.9918C23.2149 24.9377 23.2155 25.8835 23.2151 26.8294C23.0997 26.8313 22.9844 26.8321 22.8691 26.8328C22.6631 26.8341 22.4572 26.8354 22.2516 26.8437C22.2392 27.1994 22.2417 27.5557 22.2522 27.9114L22.2924 27.9112H22.2924C22.6004 27.9099 22.9084 27.9085 23.2163 27.9216C23.212 28.2704 23.212 28.6193 23.2182 28.9675C23.5414 28.975 23.8647 28.975 24.1879 28.9668C24.1904 26.4299 24.1888 23.893 24.1873 21.3562C24.1865 20.0032 24.1857 18.6503 24.1854 17.2973C23.9122 17.3101 23.6386 17.3115 23.3653 17.3129H23.3653ZM26.1436 17.3002C26.5077 17.2953 26.8718 17.2974 27.2359 17.3009C27.2378 17.8289 27.2376 18.357 27.2374 18.8851V18.8851V18.8851V18.8851C27.2371 19.7905 27.2367 20.6959 27.2465 21.6011C27.7398 21.6138 28.2331 21.6131 28.7264 21.6124C28.9613 21.6121 29.1963 21.6118 29.4312 21.6129C29.4305 21.9705 29.4312 22.3281 29.4524 22.6857C29.8651 22.6922 30.2781 22.6902 30.6911 22.6881H30.6911H30.6911H30.6912C31.3748 22.6848 32.0586 22.6814 32.7413 22.7169C32.7371 23.0662 32.7392 23.4155 32.747 23.7647C33.2282 23.7734 33.7097 23.7728 34.1914 23.7721C34.44 23.7718 34.6886 23.7714 34.9373 23.7724C34.9388 23.8845 34.9376 23.9968 34.9364 24.1092V24.1092V24.1093V24.1093C34.9337 24.3566 34.931 24.6041 34.9578 24.85C35.1868 24.8697 35.4165 24.8695 35.6461 24.8693C35.7801 24.8692 35.9141 24.8691 36.048 24.8729C36.0423 25.2229 36.0451 25.5728 36.0543 25.9228C36.4135 25.9291 36.7733 25.9318 37.1339 25.9291C37.1407 26.4821 37.1404 27.0352 37.14 27.5883C37.1395 28.4134 37.1389 29.2385 37.1622 30.0633C37.1388 30.8217 37.1402 31.5801 37.1415 32.3386C37.1422 32.7272 37.1429 33.1159 37.1403 33.5046C36.7783 33.5018 36.4163 33.5004 36.0572 33.5442L36.0569 33.7322V33.7324V33.7326V33.7328C36.0556 34.7359 36.0543 35.7395 36.043 36.7424L36.0187 36.7432C35.6662 36.7541 35.3131 36.765 34.9613 36.748C34.9254 35.7975 34.9356 34.8459 34.9458 33.8947L34.95 33.4921C35.3127 33.4956 35.6761 33.4956 36.0395 33.4928C36.04 31.8116 36.0411 30.1308 36.0422 28.4498V28.4493V28.4488V28.4482L36.0437 25.9318C35.681 25.927 35.3183 25.9277 34.9557 25.9318C34.9463 25.772 34.9461 25.6117 34.9458 25.4514C34.9455 25.2601 34.9453 25.0689 34.9295 24.8785C34.671 24.8296 34.4085 24.8373 34.1464 24.845H34.1464H34.1464H34.1464C34.0436 24.8481 33.9409 24.8511 33.8386 24.8507C33.8355 25.2831 33.8369 25.7156 33.8383 26.148C33.8404 26.7968 33.8426 27.4457 33.8294 28.0948C33.6498 28.0951 33.4701 28.0953 33.2903 28.0955C33.1106 28.0957 32.9308 28.0958 32.7512 28.0962C32.7366 27.2429 32.7395 26.3896 32.7425 25.5363C32.7445 24.9474 32.7465 24.3585 32.7428 23.7696C32.0068 23.7654 31.2708 23.7675 30.5355 23.7696C30.5355 24.1151 30.5367 24.4606 30.5378 24.806L30.5378 24.8068V24.8069V24.807V24.807C30.5403 25.5416 30.5427 26.2761 30.5341 27.0102C30.1693 27.0178 29.8052 27.0178 29.4411 27.0109C29.434 25.5701 29.4326 24.1286 29.4503 22.6878C28.7136 22.6843 27.9776 22.6836 27.2409 22.6919C27.2368 23.4494 27.2386 24.2069 27.2404 24.9643V24.9647C27.242 25.6465 27.2436 26.3284 27.2409 27.0102C26.8725 27.0206 26.5035 27.0213 26.1351 27.0109C26.1351 23.7744 26.1373 20.5373 26.1436 17.3002ZM22.2343 25.7381C21.1569 25.7292 20.0787 25.7236 19.0013 25.7416C19.0019 26.2462 19.0014 26.7506 19.0008 27.255C19.0001 27.8225 18.9995 28.3899 19.0006 28.9576C19.0837 28.9592 19.1669 28.9618 19.2501 28.9645C19.5281 28.9735 19.8066 28.9826 20.0836 28.9506C20.1104 28.557 20.1026 28.1626 20.0948 27.7681C20.0885 27.451 20.0822 27.1339 20.094 26.8173C20.367 26.8152 20.6401 26.8157 20.9133 26.8162H20.9133H20.9134C21.3547 26.817 21.7962 26.8178 22.2378 26.8076C22.2482 26.4509 22.2419 26.0949 22.2343 25.7381ZM20.6084 28.9806H20.6084L20.7368 28.9844C20.7444 29.3281 20.7451 29.6725 20.7416 30.0169C20.8609 30.0175 20.98 30.0179 21.0991 30.0183H21.0992H21.0994C21.3377 30.019 21.5759 30.0198 21.8145 30.0228C21.8192 30.4145 21.8185 30.8063 21.8179 31.198C21.8174 31.4917 21.8168 31.7855 21.8186 32.0793C22.1716 32.0773 22.5254 32.078 22.8791 32.0826C22.8776 32.2959 22.8814 32.5097 22.8853 32.7236C22.8939 33.1991 22.9025 33.6751 22.8522 34.147C22.5925 34.1697 22.3325 34.1622 22.0729 34.1548L22.0725 34.1547C21.9841 34.1522 21.8958 34.1497 21.8076 34.1483C21.8008 33.7265 21.7987 33.3048 21.7966 32.883C21.7954 32.6252 21.7941 32.3675 21.7918 32.1098C21.4381 32.1078 21.0844 32.1018 20.7306 32.0879C20.7269 31.8719 20.7279 31.6558 20.7288 31.4398C20.7309 30.9786 20.7329 30.5175 20.6893 30.0579C20.3473 30.0593 20.0046 30.0533 19.6633 30.0361C19.6629 29.9463 19.6595 29.8562 19.656 29.766C19.6462 29.5114 19.6364 29.2563 19.6963 29.0069C19.998 28.9622 20.3039 28.9714 20.6084 28.9806ZM23.7557 34.8142C23.4804 34.8101 23.205 34.806 22.9309 34.826C22.8796 35.2861 22.89 35.7502 22.9005 36.2141C22.9055 36.4375 22.9105 36.6608 22.9087 36.8836C23.2713 36.8902 23.634 36.8955 23.9966 36.8962C24.0051 37.4246 24.0071 37.9533 24.0091 38.482C24.0111 38.9796 24.013 39.4773 24.0203 39.9749C25.8579 39.9994 27.6962 40.0014 29.5345 39.9994C29.9842 39.9988 30.4339 39.9992 30.8836 39.9996C32.3159 40.0008 33.7482 40.002 35.1806 39.9703C35.1663 39.5042 35.1809 39.0383 35.1955 38.5724C35.2131 38.0117 35.2307 37.4512 35.1978 36.8909C34.8179 36.871 34.4381 36.8756 34.0582 36.8803C34.0546 37.1972 34.0557 37.514 34.0568 37.8308C34.0581 38.1985 34.0594 38.5662 34.0532 38.9339C31.0854 38.9352 28.1176 38.9365 25.1498 38.9299C25.144 38.561 25.1453 38.1918 25.1466 37.8227C25.1477 37.5078 25.1488 37.193 25.1455 36.8783C24.7735 36.8664 24.4008 36.8664 24.0296 36.8677C24.0288 36.6136 24.0296 36.3594 24.0304 36.1051C24.0317 35.676 24.033 35.2467 24.0267 34.8174C23.9364 34.8169 23.8461 34.8155 23.7557 34.8142Z" fill="#1C1C1C"/>
</g>
<defs>
<filter id="filter0_d_13_8235" x="-24.5" y="-12.5" width="105" height="105" filterUnits="userSpaceOnUse" color-interpolation-filters="sRGB">
<feFlood flood-opacity="0" result="BackgroundImageFix"/>
<feColorMatrix in="SourceAlpha" type="matrix" values="0 0 0 0 0 0 0 0 0 0 0 0 0 0 0 0 0 0 127 0" result="hardAlpha"/>
<feOffset dy="12"/>
<feGaussianBlur stdDeviation="12"/>
<feColorMatrix type="matrix" values="0 0 0 0 0.105882 0 0 0 0 0.113725 0 0 0 0 0.129412 0 0 0 0.06 0"/>
<feBlend mode="normal" in2="BackgroundImageFix" result="effect1_dropShadow_13_8235"/>
<feBlend mode="normal" in="SourceGraphic" in2="effect1_dropShadow_13_8235" result="shape"/>
</filter>
<clipPath id="clip0_13_8235">
<rect width="56" height="56" fill="white"/>
</clipPath>
</defs>
</svg>
