<svg width="24" height="12" viewBox="0 0 24 12" fill="none" xmlns="http://www.w3.org/2000/svg">
<path d="M23.707 5.07082L18.929 0.292816C18.643 0.00690776 18.213 -0.0786062 17.8393 0.0761377C17.4657 0.230882 17.2221 0.59542 17.222 0.999816V4.02782C17.222 4.16589 17.1101 4.27782 16.972 4.27782H1.5C0.671573 4.27782 0 4.94939 0 5.77782C0 6.60624 0.671573 7.27782 1.5 7.27782H16.972C17.1101 7.27782 17.222 7.38974 17.222 7.52782V10.5558C17.2221 10.9602 17.4657 11.3248 17.8393 11.4795C18.213 11.6342 18.643 11.5487 18.929 11.2628L23.707 6.48482C24.0974 6.09432 24.0974 5.46132 23.707 5.07082Z" fill="#FFAC12"/>
</svg>
