<svg width="56" height="56" viewBox="0 0 56 56" fill="none" xmlns="http://www.w3.org/2000/svg">
<path d="M14 39.1838C14.0727 41.7795 14.8076 44.3136 16.135 46.5454C16.329 46.9325 16.6269 47.258 16.9953 47.4855C17.3637 47.7129 17.7881 47.8334 18.221 47.8334H28.2544C28.7753 47.8338 29.2813 47.6599 29.6919 47.3394C30.1025 47.0188 30.394 46.5702 30.52 46.0648L31.5 42.1448L32.48 46.0648C32.6061 46.5702 32.8976 47.0188 33.3082 47.3394C33.7188 47.6599 34.2248 47.8338 34.7457 47.8334H37.779C38.2129 47.8334 38.6382 47.7124 39.007 47.4841C39.3759 47.2557 39.6739 46.9291 39.8674 46.5408C41.1955 44.3111 41.9298 41.7781 42 39.1838C42 32.3191 37.3334 30.1724 37.3334 27.5404C37.3334 24.2738 42 23.7161 42 19.1264C42 14.1587 37.3334 14.6627 37.3334 11.5757V10.5001C37.3334 9.88124 37.0875 9.28775 36.65 8.85017C36.2124 8.41258 35.6189 8.16675 35 8.16675H32.6667C32.0479 8.16675 31.4544 8.41258 31.0168 8.85017C30.5792 9.28775 30.3334 9.88124 30.3334 10.5001V11.9001C30.3338 12.3549 30.2217 12.8027 30.0072 13.2037C29.7927 13.6047 29.4823 13.9464 29.1037 14.1984C28.6894 14.4742 28.3176 14.8091 28 15.1924C27.6825 14.8091 27.3107 14.4742 26.8964 14.1984C26.5178 13.9464 26.2074 13.6047 25.9929 13.2037C25.7783 12.8027 25.6663 12.3549 25.6667 11.9001V10.5001C25.6667 9.88124 25.4209 9.28775 24.9833 8.85017C24.5457 8.41258 23.9522 8.16675 23.3334 8.16675H21C20.3812 8.16675 19.7877 8.41258 19.3501 8.85017C18.9125 9.28775 18.6667 9.88124 18.6667 10.5001V11.5757C18.6683 12.0878 18.5266 12.5901 18.2578 13.0259C17.989 13.4617 17.6037 13.8137 17.1454 14.0421C16.1976 14.5119 15.4005 15.238 14.8445 16.1379C14.2886 17.0378 13.996 18.0756 14 19.1334C14 23.6694 18.6667 24.3274 18.6667 27.5871C18.6667 30.0791 14 32.3728 14 39.1838ZM16.3334 19.1171C16.3334 15.4444 21 16.4197 21 11.5664V10.5001H23.3334V11.9001C23.3321 12.7393 23.5388 13.5658 23.935 14.3056C24.3312 15.0455 24.9045 15.6756 25.6037 16.1397C25.9816 16.3913 26.2916 16.7323 26.5061 17.1324C26.7206 17.5325 26.833 17.9794 26.8334 18.4334C26.8334 18.7428 26.9563 19.0396 27.1751 19.2584C27.3939 19.4772 27.6906 19.6001 28 19.6001C28.3095 19.6001 28.6062 19.4772 28.825 19.2584C29.0438 19.0396 29.1667 18.7428 29.1667 18.4334C29.1663 17.9786 29.2783 17.5308 29.4929 17.1298C29.7074 16.7288 30.0178 16.3871 30.3964 16.1351C31.0949 15.6714 31.6678 15.042 32.064 14.303C32.4601 13.5641 32.6672 12.7385 32.6667 11.9001V10.5001H35V11.5757C35 16.4757 39.6667 15.4211 39.6667 19.1264C39.6667 22.4211 35 22.9484 35 27.5801C35 31.6751 39.6667 32.7624 39.6667 39.1838C39.5869 41.4155 38.9379 43.5898 37.7814 45.5001H34.748L32.634 37.0511C32.5467 36.8217 32.3917 36.6243 32.1896 36.485C31.9875 36.3458 31.7478 36.2712 31.5024 36.2712C31.2569 36.2712 31.0173 36.3458 30.8152 36.485C30.6131 36.6243 30.4581 36.8217 30.3707 37.0511L28.2544 45.5001H18.221C17.0641 43.5898 16.4144 41.4156 16.3334 39.1838C16.3334 32.8278 21 31.6961 21 27.5404C21 22.9111 16.3334 22.4584 16.3334 19.1334V19.1171Z" fill="#393D46"/>
</svg>
