<svg width="32" height="32" viewBox="0 0 32 32" fill="none" xmlns="http://www.w3.org/2000/svg">
<path d="M16.0006 28.7614L4.68729 17.4481C3.18687 15.9478 2.34388 13.913 2.34375 11.7912C2.34362 9.66942 3.18638 7.63449 4.68662 6.13407C6.18686 4.63365 8.2217 3.79065 10.3435 3.79053C12.4653 3.7904 14.5002 4.63316 16.0006 6.1334C17.5018 4.63485 19.5362 3.7932 21.6573 3.7932C23.7784 3.7932 25.8128 4.63485 27.314 6.1334V6.1334C28.8119 7.63489 29.6531 9.66918 29.6531 11.7901C29.6531 13.911 28.8119 15.9452 27.314 17.4467L16.0006 28.7614ZM10.3433 6.4574C9.28835 6.45736 8.25709 6.77018 7.37995 7.3563C6.50281 7.94241 5.8192 8.77549 5.41557 9.75016C5.01194 10.7248 4.90643 11.7973 5.11239 12.832C5.31835 13.8666 5.82651 14.8169 6.57262 15.5627L16.0006 24.9907L25.4286 15.5627C25.9701 15.0333 26.3927 14.3946 26.6681 13.6891C26.9436 12.9836 27.0657 12.2276 27.0262 11.4713C26.9867 10.715 26.7866 9.97573 26.4392 9.30277C26.0918 8.62981 25.6051 8.03856 25.0114 7.56835C24.4177 7.09815 23.7306 6.75978 22.996 6.57576C22.2613 6.39174 21.4959 6.3663 20.7507 6.50111C20.0054 6.63593 19.2975 6.92792 18.6738 7.35765C18.0502 7.78738 17.5253 8.345 17.134 8.9934L16.0006 10.8227L14.8673 8.9934C14.3994 8.21344 13.7358 7.56934 12.9423 7.12496C12.1487 6.68058 11.2528 6.45138 10.3433 6.46007V6.4574Z" fill="black"/>
</svg>
