<svg width="19" height="19" viewBox="0 0 19 19" fill="none" xmlns="http://www.w3.org/2000/svg">
<path d="M18.6311 16.3437L14.9417 12.6544C14.7573 12.5068 14.5359 12.3961 14.3146 12.3961H13.7243C14.7204 11.1049 15.3476 9.48155 15.3476 7.67379C15.3476 3.46796 11.8796 0 7.67379 0C3.43107 0 0 3.46796 0 7.67379C0 11.9165 3.43107 15.3476 7.67379 15.3476C9.44466 15.3476 11.068 14.7573 12.3961 13.7243V14.3515C12.3961 14.5728 12.4699 14.7942 12.6544 14.9786L16.3068 18.6311C16.6757 19 17.2291 19 17.5612 18.6311L18.5942 17.5981C18.9631 17.266 18.9631 16.7126 18.6311 16.3437ZM7.67379 12.3961C5.05437 12.3961 2.95146 10.2932 2.95146 7.67379C2.95146 5.09126 5.05437 2.95146 7.67379 2.95146C10.2563 2.95146 12.3961 5.09126 12.3961 7.67379C12.3961 10.2932 10.2563 12.3961 7.67379 12.3961Z" fill="#6E7684"/>
</svg>
