<svg width="57" height="57" viewBox="0 0 57 57" fill="none" xmlns="http://www.w3.org/2000/svg">
<path d="M50.8929 0H6.10714C2.67188 0 0 2.79911 0 6.10714V50.8929C0 54.3281 2.67188 57 6.10714 57H50.8929C54.2009 57 57 54.3281 57 50.8929V6.10714C57 2.79911 54.2009 0 50.8929 0ZM48.7299 39.1875L46.8214 47.4576C46.6942 48.3482 45.9308 48.8571 45.0402 48.8571C24.683 48.8571 8.14286 32.4442 8.14286 11.9598C8.14286 11.0692 8.77902 10.433 9.54241 10.1786L17.8125 8.27009C17.9397 8.27009 18.067 8.27009 18.3214 8.14286C19.0848 8.27009 19.721 8.65179 19.9754 9.41518L23.7924 18.3214C23.9196 18.4487 23.9196 18.7031 24.0469 18.9576C23.9196 19.5938 23.6652 20.1027 23.2835 20.4844L18.4487 24.4286C21.375 30.6629 26.3371 35.625 32.5714 38.5513L36.5156 33.7165C36.8973 33.3348 37.4062 33.0804 38.0424 32.9531C38.2969 33.0804 38.5513 33.0804 38.6786 33.2076L47.5848 37.0246C48.3482 37.279 48.7299 37.9152 48.8571 38.6786C48.7299 38.933 48.7299 39.0603 48.7299 39.1875Z" fill="#03C4A1"/>
</svg>
