<svg width="141" height="359" viewBox="0 0 141 359" fill="none" xmlns="http://www.w3.org/2000/svg">
<g opacity="0.6">
<path fill-rule="evenodd" clip-rule="evenodd" d="M4.5 209C6.98528 209 9 206.985 9 204.5C9 202.015 6.98528 200 4.5 200C2.01472 200 0 202.015 0 204.5C0 206.985 2.01472 209 4.5 209Z" fill="white"/>
<mask id="mask0_16_18598" style="mask-type:alpha" maskUnits="userSpaceOnUse" x="0" y="200" width="9" height="9">
<path fill-rule="evenodd" clip-rule="evenodd" d="M4.5 209C6.98528 209 9 206.985 9 204.5C9 202.015 6.98528 200 4.5 200C2.01472 200 0 202.015 0 204.5C0 206.985 2.01472 209 4.5 209Z" fill="white"/>
</mask>
<g mask="url(#mask0_16_18598)">
<rect x="-35" y="164" width="80" height="80" fill="#FF4545"/>
</g>
<path fill-rule="evenodd" clip-rule="evenodd" d="M37.5 209C39.9853 209 42 206.985 42 204.5C42 202.015 39.9853 200 37.5 200C35.0147 200 33 202.015 33 204.5C33 206.985 35.0147 209 37.5 209Z" fill="white"/>
<mask id="mask1_16_18598" style="mask-type:alpha" maskUnits="userSpaceOnUse" x="33" y="200" width="9" height="9">
<path fill-rule="evenodd" clip-rule="evenodd" d="M37.5 209C39.9853 209 42 206.985 42 204.5C42 202.015 39.9853 200 37.5 200C35.0147 200 33 202.015 33 204.5C33 206.985 35.0147 209 37.5 209Z" fill="white"/>
</mask>
<g mask="url(#mask1_16_18598)">
<rect x="-2" y="164" width="80" height="80" fill="#FF4545"/>
</g>
<path fill-rule="evenodd" clip-rule="evenodd" d="M70.5 209C72.9853 209 75 206.985 75 204.5C75 202.015 72.9853 200 70.5 200C68.0147 200 66 202.015 66 204.5C66 206.985 68.0147 209 70.5 209Z" fill="white"/>
<mask id="mask2_16_18598" style="mask-type:alpha" maskUnits="userSpaceOnUse" x="66" y="200" width="9" height="9">
<path fill-rule="evenodd" clip-rule="evenodd" d="M70.5 209C72.9853 209 75 206.985 75 204.5C75 202.015 72.9853 200 70.5 200C68.0147 200 66 202.015 66 204.5C66 206.985 68.0147 209 70.5 209Z" fill="white"/>
</mask>
<g mask="url(#mask2_16_18598)">
<rect x="31" y="164" width="80" height="80" fill="#FF4545"/>
</g>
<path fill-rule="evenodd" clip-rule="evenodd" d="M103.5 209C105.985 209 108 206.985 108 204.5C108 202.015 105.985 200 103.5 200C101.015 200 99 202.015 99 204.5C99 206.985 101.015 209 103.5 209Z" fill="white"/>
<mask id="mask3_16_18598" style="mask-type:alpha" maskUnits="userSpaceOnUse" x="99" y="200" width="9" height="9">
<path fill-rule="evenodd" clip-rule="evenodd" d="M103.5 209C105.985 209 108 206.985 108 204.5C108 202.015 105.985 200 103.5 200C101.015 200 99 202.015 99 204.5C99 206.985 101.015 209 103.5 209Z" fill="white"/>
</mask>
<g mask="url(#mask3_16_18598)">
<rect x="64" y="164" width="80" height="80" fill="#FF4545"/>
</g>
<path fill-rule="evenodd" clip-rule="evenodd" d="M136.5 209C138.985 209 141 206.985 141 204.5C141 202.015 138.985 200 136.5 200C134.015 200 132 202.015 132 204.5C132 206.985 134.015 209 136.5 209Z" fill="white"/>
<mask id="mask4_16_18598" style="mask-type:alpha" maskUnits="userSpaceOnUse" x="132" y="200" width="9" height="9">
<path fill-rule="evenodd" clip-rule="evenodd" d="M136.5 209C138.985 209 141 206.985 141 204.5C141 202.015 138.985 200 136.5 200C134.015 200 132 202.015 132 204.5C132 206.985 134.015 209 136.5 209Z" fill="white"/>
</mask>
<g mask="url(#mask4_16_18598)">
<rect x="97" y="164" width="80" height="80" fill="#FF4545"/>
</g>
<path fill-rule="evenodd" clip-rule="evenodd" d="M4.5 309C6.98528 309 9 306.985 9 304.5C9 302.015 6.98528 300 4.5 300C2.01472 300 0 302.015 0 304.5C0 306.985 2.01472 309 4.5 309Z" fill="white"/>
<mask id="mask5_16_18598" style="mask-type:alpha" maskUnits="userSpaceOnUse" x="0" y="300" width="9" height="9">
<path fill-rule="evenodd" clip-rule="evenodd" d="M4.5 309C6.98528 309 9 306.985 9 304.5C9 302.015 6.98528 300 4.5 300C2.01472 300 0 302.015 0 304.5C0 306.985 2.01472 309 4.5 309Z" fill="white"/>
</mask>
<g mask="url(#mask5_16_18598)">
<rect x="-35" y="264" width="80" height="80" fill="#FF4545"/>
</g>
<path fill-rule="evenodd" clip-rule="evenodd" d="M37.5 309C39.9853 309 42 306.985 42 304.5C42 302.015 39.9853 300 37.5 300C35.0147 300 33 302.015 33 304.5C33 306.985 35.0147 309 37.5 309Z" fill="white"/>
<mask id="mask6_16_18598" style="mask-type:alpha" maskUnits="userSpaceOnUse" x="33" y="300" width="9" height="9">
<path fill-rule="evenodd" clip-rule="evenodd" d="M37.5 309C39.9853 309 42 306.985 42 304.5C42 302.015 39.9853 300 37.5 300C35.0147 300 33 302.015 33 304.5C33 306.985 35.0147 309 37.5 309Z" fill="white"/>
</mask>
<g mask="url(#mask6_16_18598)">
<rect x="-2" y="264" width="80" height="80" fill="#FF4545"/>
</g>
<path fill-rule="evenodd" clip-rule="evenodd" d="M70.5 309C72.9853 309 75 306.985 75 304.5C75 302.015 72.9853 300 70.5 300C68.0147 300 66 302.015 66 304.5C66 306.985 68.0147 309 70.5 309Z" fill="white"/>
<mask id="mask7_16_18598" style="mask-type:alpha" maskUnits="userSpaceOnUse" x="66" y="300" width="9" height="9">
<path fill-rule="evenodd" clip-rule="evenodd" d="M70.5 309C72.9853 309 75 306.985 75 304.5C75 302.015 72.9853 300 70.5 300C68.0147 300 66 302.015 66 304.5C66 306.985 68.0147 309 70.5 309Z" fill="white"/>
</mask>
<g mask="url(#mask7_16_18598)">
<rect x="31" y="264" width="80" height="80" fill="#FF4545"/>
</g>
<path fill-rule="evenodd" clip-rule="evenodd" d="M103.5 309C105.985 309 108 306.985 108 304.5C108 302.015 105.985 300 103.5 300C101.015 300 99 302.015 99 304.5C99 306.985 101.015 309 103.5 309Z" fill="white"/>
<mask id="mask8_16_18598" style="mask-type:alpha" maskUnits="userSpaceOnUse" x="99" y="300" width="9" height="9">
<path fill-rule="evenodd" clip-rule="evenodd" d="M103.5 309C105.985 309 108 306.985 108 304.5C108 302.015 105.985 300 103.5 300C101.015 300 99 302.015 99 304.5C99 306.985 101.015 309 103.5 309Z" fill="white"/>
</mask>
<g mask="url(#mask8_16_18598)">
<rect x="64" y="264" width="80" height="80" fill="#FF4545"/>
</g>
<path fill-rule="evenodd" clip-rule="evenodd" d="M136.5 309C138.985 309 141 306.985 141 304.5C141 302.015 138.985 300 136.5 300C134.015 300 132 302.015 132 304.5C132 306.985 134.015 309 136.5 309Z" fill="white"/>
<mask id="mask9_16_18598" style="mask-type:alpha" maskUnits="userSpaceOnUse" x="132" y="300" width="9" height="9">
<path fill-rule="evenodd" clip-rule="evenodd" d="M136.5 309C138.985 309 141 306.985 141 304.5C141 302.015 138.985 300 136.5 300C134.015 300 132 302.015 132 304.5C132 306.985 134.015 309 136.5 309Z" fill="white"/>
</mask>
<g mask="url(#mask9_16_18598)">
<rect x="97" y="264" width="80" height="80" fill="#FF4545"/>
</g>
<path fill-rule="evenodd" clip-rule="evenodd" d="M4.5 259C6.98528 259 9 256.985 9 254.5C9 252.015 6.98528 250 4.5 250C2.01472 250 0 252.015 0 254.5C0 256.985 2.01472 259 4.5 259Z" fill="white"/>
<mask id="mask10_16_18598" style="mask-type:alpha" maskUnits="userSpaceOnUse" x="0" y="250" width="9" height="9">
<path fill-rule="evenodd" clip-rule="evenodd" d="M4.5 259C6.98528 259 9 256.985 9 254.5C9 252.015 6.98528 250 4.5 250C2.01472 250 0 252.015 0 254.5C0 256.985 2.01472 259 4.5 259Z" fill="white"/>
</mask>
<g mask="url(#mask10_16_18598)">
<rect x="-35" y="214" width="80" height="80" fill="#FF4545"/>
</g>
<path fill-rule="evenodd" clip-rule="evenodd" d="M37.5 259C39.9853 259 42 256.985 42 254.5C42 252.015 39.9853 250 37.5 250C35.0147 250 33 252.015 33 254.5C33 256.985 35.0147 259 37.5 259Z" fill="white"/>
<mask id="mask11_16_18598" style="mask-type:alpha" maskUnits="userSpaceOnUse" x="33" y="250" width="9" height="9">
<path fill-rule="evenodd" clip-rule="evenodd" d="M37.5 259C39.9853 259 42 256.985 42 254.5C42 252.015 39.9853 250 37.5 250C35.0147 250 33 252.015 33 254.5C33 256.985 35.0147 259 37.5 259Z" fill="white"/>
</mask>
<g mask="url(#mask11_16_18598)">
<rect x="-2" y="214" width="80" height="80" fill="#FF4545"/>
</g>
<path fill-rule="evenodd" clip-rule="evenodd" d="M70.5 259C72.9853 259 75 256.985 75 254.5C75 252.015 72.9853 250 70.5 250C68.0147 250 66 252.015 66 254.5C66 256.985 68.0147 259 70.5 259Z" fill="white"/>
<mask id="mask12_16_18598" style="mask-type:alpha" maskUnits="userSpaceOnUse" x="66" y="250" width="9" height="9">
<path fill-rule="evenodd" clip-rule="evenodd" d="M70.5 259C72.9853 259 75 256.985 75 254.5C75 252.015 72.9853 250 70.5 250C68.0147 250 66 252.015 66 254.5C66 256.985 68.0147 259 70.5 259Z" fill="white"/>
</mask>
<g mask="url(#mask12_16_18598)">
<rect x="31" y="214" width="80" height="80" fill="#FF4545"/>
</g>
<path fill-rule="evenodd" clip-rule="evenodd" d="M103.5 259C105.985 259 108 256.985 108 254.5C108 252.015 105.985 250 103.5 250C101.015 250 99 252.015 99 254.5C99 256.985 101.015 259 103.5 259Z" fill="white"/>
<mask id="mask13_16_18598" style="mask-type:alpha" maskUnits="userSpaceOnUse" x="99" y="250" width="9" height="9">
<path fill-rule="evenodd" clip-rule="evenodd" d="M103.5 259C105.985 259 108 256.985 108 254.5C108 252.015 105.985 250 103.5 250C101.015 250 99 252.015 99 254.5C99 256.985 101.015 259 103.5 259Z" fill="white"/>
</mask>
<g mask="url(#mask13_16_18598)">
<rect x="64" y="214" width="80" height="80" fill="#FF4545"/>
</g>
<path fill-rule="evenodd" clip-rule="evenodd" d="M136.5 259C138.985 259 141 256.985 141 254.5C141 252.015 138.985 250 136.5 250C134.015 250 132 252.015 132 254.5C132 256.985 134.015 259 136.5 259Z" fill="white"/>
<mask id="mask14_16_18598" style="mask-type:alpha" maskUnits="userSpaceOnUse" x="132" y="250" width="9" height="9">
<path fill-rule="evenodd" clip-rule="evenodd" d="M136.5 259C138.985 259 141 256.985 141 254.5C141 252.015 138.985 250 136.5 250C134.015 250 132 252.015 132 254.5C132 256.985 134.015 259 136.5 259Z" fill="white"/>
</mask>
<g mask="url(#mask14_16_18598)">
<rect x="97" y="214" width="80" height="80" fill="#FF4545"/>
</g>
<path fill-rule="evenodd" clip-rule="evenodd" d="M4.5 359C6.98528 359 9 356.985 9 354.5C9 352.015 6.98528 350 4.5 350C2.01472 350 0 352.015 0 354.5C0 356.985 2.01472 359 4.5 359Z" fill="white"/>
<mask id="mask15_16_18598" style="mask-type:alpha" maskUnits="userSpaceOnUse" x="0" y="350" width="9" height="9">
<path fill-rule="evenodd" clip-rule="evenodd" d="M4.5 359C6.98528 359 9 356.985 9 354.5C9 352.015 6.98528 350 4.5 350C2.01472 350 0 352.015 0 354.5C0 356.985 2.01472 359 4.5 359Z" fill="white"/>
</mask>
<g mask="url(#mask15_16_18598)">
<rect x="-35" y="314" width="80" height="80" fill="#FF4545"/>
</g>
<path fill-rule="evenodd" clip-rule="evenodd" d="M37.5 359C39.9853 359 42 356.985 42 354.5C42 352.015 39.9853 350 37.5 350C35.0147 350 33 352.015 33 354.5C33 356.985 35.0147 359 37.5 359Z" fill="white"/>
<mask id="mask16_16_18598" style="mask-type:alpha" maskUnits="userSpaceOnUse" x="33" y="350" width="9" height="9">
<path fill-rule="evenodd" clip-rule="evenodd" d="M37.5 359C39.9853 359 42 356.985 42 354.5C42 352.015 39.9853 350 37.5 350C35.0147 350 33 352.015 33 354.5C33 356.985 35.0147 359 37.5 359Z" fill="white"/>
</mask>
<g mask="url(#mask16_16_18598)">
<rect x="-2" y="314" width="80" height="80" fill="#FF4545"/>
</g>
<path fill-rule="evenodd" clip-rule="evenodd" d="M70.5 359C72.9853 359 75 356.985 75 354.5C75 352.015 72.9853 350 70.5 350C68.0147 350 66 352.015 66 354.5C66 356.985 68.0147 359 70.5 359Z" fill="white"/>
<mask id="mask17_16_18598" style="mask-type:alpha" maskUnits="userSpaceOnUse" x="66" y="350" width="9" height="9">
<path fill-rule="evenodd" clip-rule="evenodd" d="M70.5 359C72.9853 359 75 356.985 75 354.5C75 352.015 72.9853 350 70.5 350C68.0147 350 66 352.015 66 354.5C66 356.985 68.0147 359 70.5 359Z" fill="white"/>
</mask>
<g mask="url(#mask17_16_18598)">
<rect x="31" y="314" width="80" height="80" fill="#FF4545"/>
</g>
<path fill-rule="evenodd" clip-rule="evenodd" d="M103.5 359C105.985 359 108 356.985 108 354.5C108 352.015 105.985 350 103.5 350C101.015 350 99 352.015 99 354.5C99 356.985 101.015 359 103.5 359Z" fill="white"/>
<mask id="mask18_16_18598" style="mask-type:alpha" maskUnits="userSpaceOnUse" x="99" y="350" width="9" height="9">
<path fill-rule="evenodd" clip-rule="evenodd" d="M103.5 359C105.985 359 108 356.985 108 354.5C108 352.015 105.985 350 103.5 350C101.015 350 99 352.015 99 354.5C99 356.985 101.015 359 103.5 359Z" fill="white"/>
</mask>
<g mask="url(#mask18_16_18598)">
<rect x="64" y="314" width="80" height="80" fill="#FF4545"/>
</g>
<path fill-rule="evenodd" clip-rule="evenodd" d="M136.5 359C138.985 359 141 356.985 141 354.5C141 352.015 138.985 350 136.5 350C134.015 350 132 352.015 132 354.5C132 356.985 134.015 359 136.5 359Z" fill="white"/>
<mask id="mask19_16_18598" style="mask-type:alpha" maskUnits="userSpaceOnUse" x="132" y="350" width="9" height="9">
<path fill-rule="evenodd" clip-rule="evenodd" d="M136.5 359C138.985 359 141 356.985 141 354.5C141 352.015 138.985 350 136.5 350C134.015 350 132 352.015 132 354.5C132 356.985 134.015 359 136.5 359Z" fill="white"/>
</mask>
<g mask="url(#mask19_16_18598)">
<rect x="97" y="314" width="80" height="80" fill="#FF4545"/>
</g>
<path fill-rule="evenodd" clip-rule="evenodd" d="M4.5 9C6.98528 9 9 6.98528 9 4.5C9 2.01472 6.98528 0 4.5 0C2.01472 0 0 2.01472 0 4.5C0 6.98528 2.01472 9 4.5 9Z" fill="white"/>
<mask id="mask20_16_18598" style="mask-type:alpha" maskUnits="userSpaceOnUse" x="0" y="0" width="9" height="9">
<path fill-rule="evenodd" clip-rule="evenodd" d="M4.5 9C6.98528 9 9 6.98528 9 4.5C9 2.01472 6.98528 0 4.5 0C2.01472 0 0 2.01472 0 4.5C0 6.98528 2.01472 9 4.5 9Z" fill="white"/>
</mask>
<g mask="url(#mask20_16_18598)">
<rect x="-35" y="-36" width="80" height="80" fill="#FF4545"/>
</g>
<path fill-rule="evenodd" clip-rule="evenodd" d="M37.5 9C39.9853 9 42 6.98528 42 4.5C42 2.01472 39.9853 0 37.5 0C35.0147 0 33 2.01472 33 4.5C33 6.98528 35.0147 9 37.5 9Z" fill="white"/>
<mask id="mask21_16_18598" style="mask-type:alpha" maskUnits="userSpaceOnUse" x="33" y="0" width="9" height="9">
<path fill-rule="evenodd" clip-rule="evenodd" d="M37.5 9C39.9853 9 42 6.98528 42 4.5C42 2.01472 39.9853 0 37.5 0C35.0147 0 33 2.01472 33 4.5C33 6.98528 35.0147 9 37.5 9Z" fill="white"/>
</mask>
<g mask="url(#mask21_16_18598)">
<rect x="-2" y="-36" width="80" height="80" fill="#FF4545"/>
</g>
<path fill-rule="evenodd" clip-rule="evenodd" d="M70.5 9C72.9853 9 75 6.98528 75 4.5C75 2.01472 72.9853 0 70.5 0C68.0147 0 66 2.01472 66 4.5C66 6.98528 68.0147 9 70.5 9Z" fill="white"/>
<mask id="mask22_16_18598" style="mask-type:alpha" maskUnits="userSpaceOnUse" x="66" y="0" width="9" height="9">
<path fill-rule="evenodd" clip-rule="evenodd" d="M70.5 9C72.9853 9 75 6.98528 75 4.5C75 2.01472 72.9853 0 70.5 0C68.0147 0 66 2.01472 66 4.5C66 6.98528 68.0147 9 70.5 9Z" fill="white"/>
</mask>
<g mask="url(#mask22_16_18598)">
<rect x="31" y="-36" width="80" height="80" fill="#FF4545"/>
</g>
<path fill-rule="evenodd" clip-rule="evenodd" d="M103.5 9C105.985 9 108 6.98528 108 4.5C108 2.01472 105.985 0 103.5 0C101.015 0 99 2.01472 99 4.5C99 6.98528 101.015 9 103.5 9Z" fill="white"/>
<mask id="mask23_16_18598" style="mask-type:alpha" maskUnits="userSpaceOnUse" x="99" y="0" width="9" height="9">
<path fill-rule="evenodd" clip-rule="evenodd" d="M103.5 9C105.985 9 108 6.98528 108 4.5C108 2.01472 105.985 0 103.5 0C101.015 0 99 2.01472 99 4.5C99 6.98528 101.015 9 103.5 9Z" fill="white"/>
</mask>
<g mask="url(#mask23_16_18598)">
<rect x="64" y="-36" width="80" height="80" fill="#FF4545"/>
</g>
<path fill-rule="evenodd" clip-rule="evenodd" d="M136.5 9C138.985 9 141 6.98528 141 4.5C141 2.01472 138.985 0 136.5 0C134.015 0 132 2.01472 132 4.5C132 6.98528 134.015 9 136.5 9Z" fill="white"/>
<mask id="mask24_16_18598" style="mask-type:alpha" maskUnits="userSpaceOnUse" x="132" y="0" width="9" height="9">
<path fill-rule="evenodd" clip-rule="evenodd" d="M136.5 9C138.985 9 141 6.98528 141 4.5C141 2.01472 138.985 0 136.5 0C134.015 0 132 2.01472 132 4.5C132 6.98528 134.015 9 136.5 9Z" fill="white"/>
</mask>
<g mask="url(#mask24_16_18598)">
<rect x="97" y="-36" width="80" height="80" fill="#FF4545"/>
</g>
<path fill-rule="evenodd" clip-rule="evenodd" d="M4.5 109C6.98528 109 9 106.985 9 104.5C9 102.015 6.98528 100 4.5 100C2.01472 100 0 102.015 0 104.5C0 106.985 2.01472 109 4.5 109Z" fill="white"/>
<mask id="mask25_16_18598" style="mask-type:alpha" maskUnits="userSpaceOnUse" x="0" y="100" width="9" height="9">
<path fill-rule="evenodd" clip-rule="evenodd" d="M4.5 109C6.98528 109 9 106.985 9 104.5C9 102.015 6.98528 100 4.5 100C2.01472 100 0 102.015 0 104.5C0 106.985 2.01472 109 4.5 109Z" fill="white"/>
</mask>
<g mask="url(#mask25_16_18598)">
<rect x="-35" y="64" width="80" height="80" fill="#FF4545"/>
</g>
<path fill-rule="evenodd" clip-rule="evenodd" d="M37.5 109C39.9853 109 42 106.985 42 104.5C42 102.015 39.9853 100 37.5 100C35.0147 100 33 102.015 33 104.5C33 106.985 35.0147 109 37.5 109Z" fill="white"/>
<mask id="mask26_16_18598" style="mask-type:alpha" maskUnits="userSpaceOnUse" x="33" y="100" width="9" height="9">
<path fill-rule="evenodd" clip-rule="evenodd" d="M37.5 109C39.9853 109 42 106.985 42 104.5C42 102.015 39.9853 100 37.5 100C35.0147 100 33 102.015 33 104.5C33 106.985 35.0147 109 37.5 109Z" fill="white"/>
</mask>
<g mask="url(#mask26_16_18598)">
<rect x="-2" y="64" width="80" height="80" fill="#FF4545"/>
</g>
<path fill-rule="evenodd" clip-rule="evenodd" d="M70.5 109C72.9853 109 75 106.985 75 104.5C75 102.015 72.9853 100 70.5 100C68.0147 100 66 102.015 66 104.5C66 106.985 68.0147 109 70.5 109Z" fill="white"/>
<mask id="mask27_16_18598" style="mask-type:alpha" maskUnits="userSpaceOnUse" x="66" y="100" width="9" height="9">
<path fill-rule="evenodd" clip-rule="evenodd" d="M70.5 109C72.9853 109 75 106.985 75 104.5C75 102.015 72.9853 100 70.5 100C68.0147 100 66 102.015 66 104.5C66 106.985 68.0147 109 70.5 109Z" fill="white"/>
</mask>
<g mask="url(#mask27_16_18598)">
<rect x="31" y="64" width="80" height="80" fill="#FF4545"/>
</g>
<path fill-rule="evenodd" clip-rule="evenodd" d="M103.5 109C105.985 109 108 106.985 108 104.5C108 102.015 105.985 100 103.5 100C101.015 100 99 102.015 99 104.5C99 106.985 101.015 109 103.5 109Z" fill="white"/>
<mask id="mask28_16_18598" style="mask-type:alpha" maskUnits="userSpaceOnUse" x="99" y="100" width="9" height="9">
<path fill-rule="evenodd" clip-rule="evenodd" d="M103.5 109C105.985 109 108 106.985 108 104.5C108 102.015 105.985 100 103.5 100C101.015 100 99 102.015 99 104.5C99 106.985 101.015 109 103.5 109Z" fill="white"/>
</mask>
<g mask="url(#mask28_16_18598)">
<rect x="64" y="64" width="80" height="80" fill="#FF4545"/>
</g>
<path fill-rule="evenodd" clip-rule="evenodd" d="M136.5 109C138.985 109 141 106.985 141 104.5C141 102.015 138.985 100 136.5 100C134.015 100 132 102.015 132 104.5C132 106.985 134.015 109 136.5 109Z" fill="white"/>
<mask id="mask29_16_18598" style="mask-type:alpha" maskUnits="userSpaceOnUse" x="132" y="100" width="9" height="9">
<path fill-rule="evenodd" clip-rule="evenodd" d="M136.5 109C138.985 109 141 106.985 141 104.5C141 102.015 138.985 100 136.5 100C134.015 100 132 102.015 132 104.5C132 106.985 134.015 109 136.5 109Z" fill="white"/>
</mask>
<g mask="url(#mask29_16_18598)">
<rect x="97" y="64" width="80" height="80" fill="#FF4545"/>
</g>
<path fill-rule="evenodd" clip-rule="evenodd" d="M4.5 59C6.98528 59 9 56.9853 9 54.5C9 52.0147 6.98528 50 4.5 50C2.01472 50 0 52.0147 0 54.5C0 56.9853 2.01472 59 4.5 59Z" fill="white"/>
<mask id="mask30_16_18598" style="mask-type:alpha" maskUnits="userSpaceOnUse" x="0" y="50" width="9" height="9">
<path fill-rule="evenodd" clip-rule="evenodd" d="M4.5 59C6.98528 59 9 56.9853 9 54.5C9 52.0147 6.98528 50 4.5 50C2.01472 50 0 52.0147 0 54.5C0 56.9853 2.01472 59 4.5 59Z" fill="white"/>
</mask>
<g mask="url(#mask30_16_18598)">
<rect x="-35" y="14" width="80" height="80" fill="#FF4545"/>
</g>
<path fill-rule="evenodd" clip-rule="evenodd" d="M37.5 59C39.9853 59 42 56.9853 42 54.5C42 52.0147 39.9853 50 37.5 50C35.0147 50 33 52.0147 33 54.5C33 56.9853 35.0147 59 37.5 59Z" fill="white"/>
<mask id="mask31_16_18598" style="mask-type:alpha" maskUnits="userSpaceOnUse" x="33" y="50" width="9" height="9">
<path fill-rule="evenodd" clip-rule="evenodd" d="M37.5 59C39.9853 59 42 56.9853 42 54.5C42 52.0147 39.9853 50 37.5 50C35.0147 50 33 52.0147 33 54.5C33 56.9853 35.0147 59 37.5 59Z" fill="white"/>
</mask>
<g mask="url(#mask31_16_18598)">
<rect x="-2" y="14" width="80" height="80" fill="#FF4545"/>
</g>
<path fill-rule="evenodd" clip-rule="evenodd" d="M70.5 59C72.9853 59 75 56.9853 75 54.5C75 52.0147 72.9853 50 70.5 50C68.0147 50 66 52.0147 66 54.5C66 56.9853 68.0147 59 70.5 59Z" fill="white"/>
<mask id="mask32_16_18598" style="mask-type:alpha" maskUnits="userSpaceOnUse" x="66" y="50" width="9" height="9">
<path fill-rule="evenodd" clip-rule="evenodd" d="M70.5 59C72.9853 59 75 56.9853 75 54.5C75 52.0147 72.9853 50 70.5 50C68.0147 50 66 52.0147 66 54.5C66 56.9853 68.0147 59 70.5 59Z" fill="white"/>
</mask>
<g mask="url(#mask32_16_18598)">
<rect x="31" y="14" width="80" height="80" fill="#FF4545"/>
</g>
<path fill-rule="evenodd" clip-rule="evenodd" d="M103.5 59C105.985 59 108 56.9853 108 54.5C108 52.0147 105.985 50 103.5 50C101.015 50 99 52.0147 99 54.5C99 56.9853 101.015 59 103.5 59Z" fill="white"/>
<mask id="mask33_16_18598" style="mask-type:alpha" maskUnits="userSpaceOnUse" x="99" y="50" width="9" height="9">
<path fill-rule="evenodd" clip-rule="evenodd" d="M103.5 59C105.985 59 108 56.9853 108 54.5C108 52.0147 105.985 50 103.5 50C101.015 50 99 52.0147 99 54.5C99 56.9853 101.015 59 103.5 59Z" fill="white"/>
</mask>
<g mask="url(#mask33_16_18598)">
<rect x="64" y="14" width="80" height="80" fill="#FF4545"/>
</g>
<path fill-rule="evenodd" clip-rule="evenodd" d="M136.5 59C138.985 59 141 56.9853 141 54.5C141 52.0147 138.985 50 136.5 50C134.015 50 132 52.0147 132 54.5C132 56.9853 134.015 59 136.5 59Z" fill="white"/>
<mask id="mask34_16_18598" style="mask-type:alpha" maskUnits="userSpaceOnUse" x="132" y="50" width="9" height="9">
<path fill-rule="evenodd" clip-rule="evenodd" d="M136.5 59C138.985 59 141 56.9853 141 54.5C141 52.0147 138.985 50 136.5 50C134.015 50 132 52.0147 132 54.5C132 56.9853 134.015 59 136.5 59Z" fill="white"/>
</mask>
<g mask="url(#mask34_16_18598)">
<rect x="97" y="14" width="80" height="80" fill="#FF4545"/>
</g>
<path fill-rule="evenodd" clip-rule="evenodd" d="M4.5 159C6.98528 159 9 156.985 9 154.5C9 152.015 6.98528 150 4.5 150C2.01472 150 0 152.015 0 154.5C0 156.985 2.01472 159 4.5 159Z" fill="white"/>
<mask id="mask35_16_18598" style="mask-type:alpha" maskUnits="userSpaceOnUse" x="0" y="150" width="9" height="9">
<path fill-rule="evenodd" clip-rule="evenodd" d="M4.5 159C6.98528 159 9 156.985 9 154.5C9 152.015 6.98528 150 4.5 150C2.01472 150 0 152.015 0 154.5C0 156.985 2.01472 159 4.5 159Z" fill="white"/>
</mask>
<g mask="url(#mask35_16_18598)">
<rect x="-35" y="114" width="80" height="80" fill="#FF4545"/>
</g>
<path fill-rule="evenodd" clip-rule="evenodd" d="M37.5 159C39.9853 159 42 156.985 42 154.5C42 152.015 39.9853 150 37.5 150C35.0147 150 33 152.015 33 154.5C33 156.985 35.0147 159 37.5 159Z" fill="white"/>
<mask id="mask36_16_18598" style="mask-type:alpha" maskUnits="userSpaceOnUse" x="33" y="150" width="9" height="9">
<path fill-rule="evenodd" clip-rule="evenodd" d="M37.5 159C39.9853 159 42 156.985 42 154.5C42 152.015 39.9853 150 37.5 150C35.0147 150 33 152.015 33 154.5C33 156.985 35.0147 159 37.5 159Z" fill="white"/>
</mask>
<g mask="url(#mask36_16_18598)">
<rect x="-2" y="114" width="80" height="80" fill="#FF4545"/>
</g>
<path fill-rule="evenodd" clip-rule="evenodd" d="M70.5 159C72.9853 159 75 156.985 75 154.5C75 152.015 72.9853 150 70.5 150C68.0147 150 66 152.015 66 154.5C66 156.985 68.0147 159 70.5 159Z" fill="white"/>
<mask id="mask37_16_18598" style="mask-type:alpha" maskUnits="userSpaceOnUse" x="66" y="150" width="9" height="9">
<path fill-rule="evenodd" clip-rule="evenodd" d="M70.5 159C72.9853 159 75 156.985 75 154.5C75 152.015 72.9853 150 70.5 150C68.0147 150 66 152.015 66 154.5C66 156.985 68.0147 159 70.5 159Z" fill="white"/>
</mask>
<g mask="url(#mask37_16_18598)">
<rect x="31" y="114" width="80" height="80" fill="#FF4545"/>
</g>
<path fill-rule="evenodd" clip-rule="evenodd" d="M103.5 159C105.985 159 108 156.985 108 154.5C108 152.015 105.985 150 103.5 150C101.015 150 99 152.015 99 154.5C99 156.985 101.015 159 103.5 159Z" fill="white"/>
<mask id="mask38_16_18598" style="mask-type:alpha" maskUnits="userSpaceOnUse" x="99" y="150" width="9" height="9">
<path fill-rule="evenodd" clip-rule="evenodd" d="M103.5 159C105.985 159 108 156.985 108 154.5C108 152.015 105.985 150 103.5 150C101.015 150 99 152.015 99 154.5C99 156.985 101.015 159 103.5 159Z" fill="white"/>
</mask>
<g mask="url(#mask38_16_18598)">
<rect x="64" y="114" width="80" height="80" fill="#FF4545"/>
</g>
<path fill-rule="evenodd" clip-rule="evenodd" d="M136.5 159C138.985 159 141 156.985 141 154.5C141 152.015 138.985 150 136.5 150C134.015 150 132 152.015 132 154.5C132 156.985 134.015 159 136.5 159Z" fill="white"/>
<mask id="mask39_16_18598" style="mask-type:alpha" maskUnits="userSpaceOnUse" x="132" y="150" width="9" height="9">
<path fill-rule="evenodd" clip-rule="evenodd" d="M136.5 159C138.985 159 141 156.985 141 154.5C141 152.015 138.985 150 136.5 150C134.015 150 132 152.015 132 154.5C132 156.985 134.015 159 136.5 159Z" fill="white"/>
</mask>
<g mask="url(#mask39_16_18598)">
<rect x="97" y="114" width="80" height="80" fill="#FF4545"/>
</g>
</g>
</svg>
