<svg width="20" height="14" viewBox="0 0 20 14" fill="none" xmlns="http://www.w3.org/2000/svg">
<g opacity="0.4">
<path d="M13.1246 6.87507C13.1246 7.70388 12.7954 8.49876 12.2093 9.08482C11.6233 9.67088 10.8284 10.0001 9.99958 10.0001C9.17076 10.0001 8.37589 9.67088 7.78982 9.08482C7.20376 8.49876 6.87451 7.70388 6.87451 6.87507C6.87451 6.04625 7.20376 5.25137 7.78982 4.66531C8.37589 4.07925 9.17076 3.75 9.99958 3.75C10.8284 3.75 11.6233 4.07925 12.2093 4.66531C12.7954 5.25137 13.1246 6.04625 13.1246 6.87507V6.87507Z" fill="#03014C"/>
<path fill-rule="evenodd" clip-rule="evenodd" d="M0 6.87514C0 6.87514 3.75008 0 10.0002 0C16.2503 0 20.0004 6.87514 20.0004 6.87514C20.0004 6.87514 16.2503 13.7503 10.0002 13.7503C3.75008 13.7503 0 6.87514 0 6.87514ZM10.0002 11.2502C11.1606 11.2502 12.2734 10.7893 13.0939 9.9688C13.9144 9.14831 14.3753 8.03549 14.3753 6.87514C14.3753 5.7148 13.9144 4.60198 13.0939 3.78149C12.2734 2.961 11.1606 2.50005 10.0002 2.50005C8.83986 2.50005 7.72704 2.961 6.90655 3.78149C6.08606 4.60198 5.62512 5.7148 5.62512 6.87514C5.62512 8.03549 6.08606 9.14831 6.90655 9.9688C7.72704 10.7893 8.83986 11.2502 10.0002 11.2502V11.2502Z" fill="#03014C"/>
</g>
</svg>
