<svg width="64" height="64" viewBox="0 0 64 64" fill="none" xmlns="http://www.w3.org/2000/svg">
<circle cx="32" cy="32" r="32" fill="#DF5518"/>
<path d="M36.9526 24.0519C35.6336 22.7509 33.8553 22.0215 32.0026 22.0215C30.1499 22.0215 28.3717 22.7509 27.0526 24.0519C24.0206 27.0869 25.3526 30.7379 26.6206 33.2209C26.7966 33.5639 26.9936 33.8989 27.1996 34.2259L31.1576 40.5309C31.2476 40.6743 31.3725 40.7925 31.5207 40.8744C31.6688 40.9564 31.8353 40.9993 32.0046 40.9993C32.1739 40.9993 32.3404 40.9564 32.4885 40.8744C32.6367 40.7925 32.7616 40.6743 32.8516 40.5309L36.8516 34.1609C37.0276 33.8779 37.1986 33.5879 37.3516 33.2919C38.6386 30.7879 40.0006 27.0999 36.9526 24.0519ZM35.5686 32.3769C35.4426 32.6239 35.2996 32.8649 35.1526 33.0989L32.0006 38.1199L28.8886 33.1639C28.7146 32.8869 28.5466 32.6039 28.3976 32.3119C26.7926 29.1669 26.8126 27.1189 28.4636 25.4659C29.4078 24.5391 30.678 24.0199 32.0011 24.0199C33.3242 24.0199 34.5944 24.5391 35.5386 25.4659C37.2006 27.1289 37.2096 29.1999 35.5686 32.3769V32.3769Z" fill="white"/>
<path d="M32 26C31.4067 26 30.8266 26.1759 30.3333 26.5056C29.8399 26.8352 29.4554 27.3038 29.2284 27.8519C29.0013 28.4001 28.9419 29.0033 29.0576 29.5853C29.1734 30.1672 29.4591 30.7018 29.8787 31.1213C30.2982 31.5409 30.8328 31.8266 31.4147 31.9424C31.9967 32.0581 32.5999 31.9987 33.1481 31.7716C33.6962 31.5446 34.1648 31.1601 34.4944 30.6667C34.8241 30.1734 35 29.5933 35 29C35 28.2044 34.6839 27.4413 34.1213 26.8787C33.5587 26.3161 32.7957 26 32 26ZM32 30C31.8022 30 31.6089 29.9414 31.4444 29.8315C31.28 29.7216 31.1518 29.5654 31.0761 29.3827C31.0004 29.2 30.9806 28.9989 31.0192 28.8049C31.0578 28.6109 31.153 28.4327 31.2929 28.2929C31.4327 28.153 31.6109 28.0578 31.8049 28.0192C31.9989 27.9806 32.2 28.0004 32.3827 28.0761C32.5654 28.1518 32.7216 28.28 32.8315 28.4444C32.9414 28.6089 33 28.8022 33 29C33 29.2652 32.8946 29.5196 32.7071 29.7071C32.5196 29.8946 32.2652 30 32 30Z" fill="white"/>
</svg>
