<svg width="20" height="20" viewBox="0 0 20 20" fill="none" xmlns="http://www.w3.org/2000/svg">
<path d="M8.75 13.125V7.53906C8.75 6.83594 8.16406 6.28906 7.5 6.28906H5.625C4.21875 6.28906 3.125 7.42188 3.125 8.78906V11.875C3.125 13.2812 4.21875 14.375 5.625 14.375H7.5C8.16406 14.375 8.75 13.8281 8.75 13.125ZM6.875 12.5H5.625C5.27344 12.5 5 12.2266 5 11.875V8.78906C5 8.4375 5.27344 8.16406 5.625 8.16406H6.875V12.5ZM10 0C4.41406 0 0.15625 4.64844 0 10V10.625C0 10.9766 0.273438 11.25 0.625 11.25H1.25C1.5625 11.25 1.875 10.9766 1.875 10.625V10C1.875 5.54688 5.50781 1.875 10 1.875C14.4531 1.875 18.125 5.54688 18.125 10H18.0859C18.0859 10.1172 18.125 16.4844 18.125 16.4844C18.125 17.4219 17.3828 18.125 16.4453 18.125H12.5C12.5 17.1094 11.6406 16.25 10.625 16.25H9.375C8.32031 16.25 7.5 17.1094 7.5 18.125C7.5 19.1797 8.32031 20 9.375 20H16.4453C18.3984 20 20 18.4375 20 16.4844V10C19.8047 4.64844 15.5469 0 10 0ZM14.375 14.375C15.7422 14.375 16.875 13.2812 16.875 11.875V8.78906C16.875 7.42188 15.7422 6.28906 14.375 6.28906H12.5C11.7969 6.28906 11.25 6.83594 11.25 7.53906V13.125C11.25 13.8281 11.7969 14.375 12.5 14.375H14.375ZM13.125 8.16406H14.375C14.6875 8.16406 15 8.4375 15 8.78906V11.875C15 12.2266 14.6875 12.5 14.375 12.5H13.125V8.16406Z" fill="#7EB23D"/>
</svg>
