<svg width="18" height="22" viewBox="0 0 18 22" fill="none" xmlns="http://www.w3.org/2000/svg">
<path d="M17.3571 1.37501H12.5357L12.158 0.571492C12.078 0.399709 11.9548 0.255209 11.8022 0.154247C11.6496 0.0532863 11.4736 -0.000130108 11.2942 7.53359e-06H6.70179C6.52274 -0.000728544 6.34712 0.0524887 6.19506 0.153562C6.04299 0.254636 5.92062 0.399477 5.84196 0.571492L5.46429 1.37501H0.642857C0.472361 1.37501 0.308848 1.44744 0.188289 1.57637C0.0677294 1.7053 0 1.88017 0 2.06251L0 3.43751C0 3.61984 0.0677294 3.79471 0.188289 3.92364C0.308848 4.05257 0.472361 4.12501 0.642857 4.12501H17.3571C17.5276 4.12501 17.6912 4.05257 17.8117 3.92364C17.9323 3.79471 18 3.61984 18 3.43751V2.06251C18 1.88017 17.9323 1.7053 17.8117 1.57637C17.6912 1.44744 17.5276 1.37501 17.3571 1.37501V1.37501ZM2.1375 20.0664C2.16816 20.59 2.38426 21.0815 2.74181 21.4407C3.09936 21.7999 3.57147 21.9999 4.06205 22H13.9379C14.4285 21.9999 14.9006 21.7999 15.2582 21.4407C15.6157 21.0815 15.8318 20.59 15.8625 20.0664L16.7143 5.50001H1.28571L2.1375 20.0664Z" fill="#A4A4A4"/>
</svg>
