<svg width="18" height="20" viewBox="0 0 18 20" fill="none" xmlns="http://www.w3.org/2000/svg">
<path d="M0 18.125C0 19.1797 0.820312 20 1.875 20H15.625C16.6406 20 17.5 19.1797 17.5 18.125V7.5H0V18.125ZM2.5 10.625C2.5 10.3125 2.77344 10 3.125 10H6.875C7.1875 10 7.5 10.3125 7.5 10.625V14.375C7.5 14.7266 7.1875 15 6.875 15H3.125C2.77344 15 2.5 14.7266 2.5 14.375V10.625ZM15.625 2.5H13.75V0.625C13.75 0.3125 13.4375 0 13.125 0H11.875C11.5234 0 11.25 0.3125 11.25 0.625V2.5H6.25V0.625C6.25 0.3125 5.9375 0 5.625 0H4.375C4.02344 0 3.75 0.3125 3.75 0.625V2.5H1.875C0.820312 2.5 0 3.35938 0 4.375V6.25H17.5V4.375C17.5 3.35938 16.6406 2.5 15.625 2.5Z" fill="#03C4A1"/>
</svg>
