<svg width="49" height="40" viewBox="0 0 49 40" fill="none" xmlns="http://www.w3.org/2000/svg">
<g clip-path="url(#clip0_2_1410)">
<path d="M47.0317 9.26562L41.9614 1.17188C41.5083 0.445312 40.7036 0 39.8442 0H8.28174C7.42236 0 6.61767 0.445312 6.16455 1.17188L1.09424 9.26562C-1.52295 13.4453 0.797361 19.2578 5.68799 19.9219C6.03955 19.9688 6.39892 19.9922 6.7583 19.9922C9.0708 19.9922 11.1177 18.9766 12.5239 17.4063C13.9302 18.9766 15.9849 19.9922 18.2895 19.9922C20.6021 19.9922 22.6489 18.9766 24.0552 17.4063C25.4614 18.9766 27.5161 19.9922 29.8208 19.9922C32.1333 19.9922 34.1802 18.9766 35.5864 17.4063C37.0005 18.9766 39.0474 19.9922 41.3521 19.9922C41.7192 19.9922 42.0708 19.9688 42.4224 19.9219C47.3286 19.2656 49.6567 13.4531 47.0317 9.26562V9.26562ZM41.3677 22.5C40.5864 22.5 39.813 22.3828 39.063 22.2031V30H9.06299V22.2031C8.31299 22.375 7.53955 22.5 6.7583 22.5C6.28955 22.5 5.81299 22.4687 5.35205 22.4062C4.91455 22.3437 4.48486 22.2422 4.0708 22.125V37.5C4.0708 38.8828 5.18799 40 6.5708 40H41.5708C42.9536 40 44.0708 38.8828 44.0708 37.5V22.125C43.6489 22.25 43.2271 22.3516 42.7896 22.4062C42.313 22.4687 41.8442 22.5 41.3677 22.5Z" fill="#FEFEFE"/>
</g>
<defs>
<clipPath id="clip0_2_1410">
<rect width="48.125" height="40" fill="white"/>
</clipPath>
</defs>
</svg>
