<svg width="160" height="48" viewBox="0 0 160 48" fill="none" xmlns="http://www.w3.org/2000/svg">
<rect x="80" width="80" height="48" fill="white"/>
<path d="M106.5 24.1999C106.5 23.7892 106.658 23.3954 106.939 23.105C107.221 22.8146 107.602 22.6515 108 22.6515L128.385 22.6515L126.435 20.6541C126.153 20.3625 125.994 19.9671 125.994 19.5547C125.994 19.1424 126.153 18.7469 126.435 18.4554C126.717 18.1638 127.101 18 127.5 18C127.899 18 128.283 18.1638 128.565 18.4554L133.065 23.1005C133.273 23.3183 133.414 23.5948 133.47 23.8951C133.526 24.1955 133.495 24.5063 133.38 24.7883C133.268 25.071 133.076 25.3131 132.831 25.4839C132.585 25.6548 132.296 25.7467 132 25.7483L108 25.7483C107.602 25.7483 107.221 25.5851 106.939 25.2948C106.658 25.0044 106.5 24.6105 106.5 24.1999Z" fill="#393D46"/>
<path d="M126 28.8449C125.999 28.6411 126.037 28.4391 126.111 28.2505C126.186 28.0618 126.296 27.8902 126.435 27.7455L130.935 23.1004C131.217 22.8088 131.601 22.645 132 22.645C132.198 22.645 132.394 22.6852 132.576 22.7634C132.759 22.8415 132.925 22.956 133.065 23.1004C133.205 23.2448 133.316 23.4161 133.391 23.6048C133.467 23.7934 133.506 23.9956 133.506 24.1997C133.506 24.6121 133.347 25.0075 133.065 25.2991L128.565 29.9443C128.426 30.0894 128.26 30.2046 128.077 30.2832C127.894 30.3618 127.698 30.4023 127.5 30.4023C127.302 30.4023 127.106 30.3618 126.923 30.2832C126.74 30.2046 126.574 30.0894 126.435 29.9443C126.296 29.7996 126.186 29.628 126.111 29.4393C126.037 29.2507 125.999 29.0487 126 28.8449Z" fill="#393D46"/>
<rect width="80" height="48" fill="white"/>
<path d="M53.5 24.1999C53.5 23.7892 53.3419 23.3954 53.0606 23.105C52.7793 22.8146 52.3978 22.6515 52 22.6515L31.615 22.6515L33.565 20.6541C33.8474 20.3625 34.0061 19.9671 34.0061 19.5547C34.0061 19.1424 33.8474 18.7469 33.565 18.4554C33.2825 18.1638 32.8994 18 32.5 18C32.1005 18 31.7174 18.1638 31.435 18.4554L26.935 23.1005C26.7268 23.3183 26.5858 23.5948 26.5298 23.8951C26.4737 24.1955 26.5051 24.5063 26.62 24.7883C26.7325 25.071 26.9236 25.3131 27.1692 25.4839C27.4148 25.6548 27.7038 25.7467 28 25.7483L52 25.7483C52.3978 25.7483 52.7793 25.5851 53.0606 25.2948C53.3419 25.0044 53.5 24.6105 53.5 24.1999Z" fill="#CDCFD1"/>
<path d="M34 28.8451C34.0012 28.6414 33.9633 28.4394 33.8887 28.2507C33.814 28.0621 33.7041 27.8905 33.565 27.7458L29.065 23.1006C28.7826 22.8091 28.3995 22.6453 28 22.6453C27.8022 22.6453 27.6064 22.6855 27.4237 22.7636C27.2409 22.8417 27.0749 22.9563 26.935 23.1006C26.7952 23.245 26.6842 23.4164 26.6085 23.605C26.5329 23.7936 26.4939 23.9958 26.4939 24.2C26.4939 24.6123 26.6526 25.0078 26.935 25.2993L31.435 29.9445C31.5745 30.0896 31.7404 30.2048 31.9232 30.2834C32.106 30.362 32.302 30.4025 32.5 30.4025C32.6981 30.4025 32.8941 30.362 33.0769 30.2834C33.2597 30.2048 33.4256 30.0896 33.565 29.9445C33.7041 29.7998 33.814 29.6282 33.8887 29.4396C33.9633 29.2509 34.0012 29.0489 34 28.8451Z" fill="#CDCFD1"/>
</svg>
