<svg width="15" height="21" viewBox="0 0 15 21" fill="none" xmlns="http://www.w3.org/2000/svg">
<path d="M7.5 0C3.32031 0 0 3.39844 0 7.5C0 10.3125 0.898438 11.1719 5.89844 19.1406C6.64062 20.3125 8.32031 20.3125 9.0625 19.1406C14.0625 11.1719 15 10.3125 15 7.5C15 3.35938 11.6016 0 7.5 0ZM7.5 18.125C2.5 10.1562 1.875 9.64844 1.875 7.5C1.875 4.41406 4.375 1.875 7.5 1.875C10.5859 1.875 13.125 4.41406 13.125 7.5C13.125 9.64844 12.5 10.0781 7.5 18.125ZM4.375 7.5C4.375 9.25781 5.74219 10.625 7.5 10.625C9.21875 10.625 10.625 9.25781 10.625 7.5C10.625 5.78125 9.21875 4.375 7.5 4.375C5.74219 4.375 4.375 5.78125 4.375 7.5Z" fill="#7EB23D"/>
</svg>
