<svg width="135" height="56" viewBox="0 0 135 56" fill="none" xmlns="http://www.w3.org/2000/svg">
<g clip-path="url(#clip0_13_10045)">
<path d="M0 24.3359V29.2604C1.69031 29.2593 3.36427 29.5899 4.92608 30.2335C6.4879 30.8771 7.90692 31.8209 9.10195 33.011C10.2967 34.2007 11.2442 35.6132 11.8902 37.1677C12.5363 38.7221 12.8683 40.3881 12.8672 42.0704H17.8102C17.8057 37.3689 15.9279 32.8612 12.589 29.5364C9.24998 26.2116 4.7225 24.3413 0 24.3359H0Z" fill="#333333"/>
<path d="M24.7193 15.4697H16.8857C20.8486 17.9699 24.2064 21.3123 26.7182 25.2571V17.4584C26.7179 16.9309 26.5071 16.425 26.1323 16.0521C25.7574 15.6792 25.2492 15.4697 24.7193 15.4697V15.4697Z" fill="#333333"/>
<path d="M4.92188 15.4697H0V19.9035C5.90327 19.9096 11.563 22.2469 15.7373 26.4026C19.9116 30.5582 22.2595 36.1927 22.2659 42.0697H26.7188V37.1697C25.712 31.7843 23.0906 26.8286 19.1999 22.9552C15.3091 19.0817 10.3313 16.472 4.92188 15.4697V15.4697Z" fill="#333333"/>
<path d="M38.8346 18.3975H35.6973V34.1405H38.8346V18.3975Z" fill="#333333"/>
<path d="M50.37 25.2191C49.8477 24.7464 49.2363 24.3817 48.5714 24.146C47.143 23.6466 45.5863 23.6466 44.1579 24.146C43.4926 24.3815 42.881 24.7463 42.3586 25.2191C41.8462 25.6894 41.4369 26.2599 41.1562 26.8949C40.8661 27.5877 40.7168 28.3308 40.7168 29.0813C40.7168 29.8319 40.8661 30.575 41.1562 31.2678C41.4358 31.9046 41.8452 32.4767 42.3586 32.9478C42.8801 33.421 43.4914 33.7856 44.1565 34.0202C45.5847 34.5204 47.1417 34.5204 48.57 34.0202C49.2353 33.7856 49.8468 33.421 50.3686 32.9478C50.8817 32.4765 51.2911 31.9045 51.5709 31.2678C51.861 30.575 52.0103 29.8319 52.0103 29.0813C52.0103 28.3308 51.861 27.5877 51.5709 26.8949C51.2905 26.2601 50.8817 25.6896 50.37 25.2191ZM48.2156 30.9353C47.7076 31.3909 47.048 31.643 46.3643 31.643C45.6805 31.643 45.021 31.3909 44.5129 30.9353C44.0859 30.4105 43.8529 29.7557 43.8529 29.0803C43.8529 28.4049 44.0859 27.7501 44.5129 27.2253C45.021 26.7697 45.6805 26.5176 46.3643 26.5176C47.048 26.5176 47.7076 26.7697 48.2156 27.2253C48.6426 27.7501 48.8756 28.4049 48.8756 29.0803C48.8756 29.7557 48.6426 30.4105 48.2156 30.9353V30.9353Z" fill="#333333"/>
<path d="M61.6327 25.3548H61.5934C61.4483 25.152 61.2798 24.9669 61.0913 24.8032C60.8631 24.6022 60.6103 24.4305 60.339 24.2922C59.6533 23.9419 58.892 23.7634 58.1213 23.7721C57.446 23.7603 56.778 23.9142 56.1765 24.2201C55.616 24.5091 55.1211 24.9096 54.7224 25.3968C54.3159 25.899 54.0041 26.4703 53.802 27.0831C53.5872 27.7144 53.4777 28.3765 53.4779 29.0431C53.47 29.7586 53.5905 30.4698 53.8337 31.1431C54.0541 31.7576 54.3976 32.321 54.8434 32.7993C55.2875 33.2673 55.8265 33.636 56.4247 33.8808C57.0751 34.1447 57.7721 34.2756 58.4743 34.2658C58.9937 34.2569 59.5073 34.1547 59.9902 33.9641C60.5319 33.7596 61.0011 33.401 61.3395 32.933H61.3817V33.913C61.3935 34.2399 61.3394 34.5658 61.2226 34.8715C61.1058 35.1773 60.9288 35.4566 60.7018 35.6931C60.4139 35.9468 60.0772 36.1396 59.7122 36.2599C59.3472 36.3802 58.9615 36.4255 58.5784 36.3931C57.9709 36.3999 57.3689 36.2792 56.8114 36.0389C56.2568 35.7922 55.7392 35.4699 55.2737 35.0813L53.5377 37.6608C54.2473 38.2298 55.0767 38.632 55.9642 38.8375C56.8423 39.0385 57.7406 39.1398 58.6417 39.1392C60.6217 39.1392 62.0961 38.6429 63.065 37.6503C64.0339 36.6577 64.5186 35.2036 64.5191 33.2879V24.022H61.6363L61.6327 25.3548ZM61.4443 29.9671C61.3205 30.2634 61.1392 30.5325 60.9106 30.7588C60.678 30.9896 60.4052 31.1765 60.1056 31.3104C59.7944 31.448 59.4578 31.519 59.1173 31.519C58.7769 31.519 58.4402 31.448 58.1291 31.3104C57.8334 31.1746 57.5642 30.9879 57.3338 30.7588C57.1043 30.5306 56.9222 30.2595 56.798 29.9612C56.6738 29.6628 56.6098 29.343 56.6098 29.02C56.6098 28.697 56.6738 28.3772 56.798 28.0789C56.9222 27.7805 57.1043 27.5095 57.3338 27.2812C57.5644 27.0521 57.8335 26.8652 58.1291 26.7289C58.4403 26.5918 58.777 26.521 59.1173 26.521C59.4577 26.521 59.7943 26.5918 60.1056 26.7289C60.4051 26.8633 60.6778 27.0504 60.9106 27.2812C61.2558 27.6266 61.4906 28.0659 61.5856 28.5438C61.6805 29.0217 61.6314 29.5169 61.4443 29.9671V29.9671Z" fill="#333333"/>
<path d="M76.3055 25.2191C75.7832 24.7464 75.1719 24.3817 74.5069 24.146C73.0785 23.6466 71.5218 23.6466 70.0934 24.146C69.4282 24.3815 68.8166 24.7463 68.2941 25.2191C67.7817 25.6894 67.3724 26.2599 67.0918 26.8949C66.8017 27.5877 66.6523 28.3308 66.6523 29.0813C66.6523 29.8319 66.8017 30.575 67.0918 31.2678C67.3714 31.9046 67.7808 32.4767 68.2941 32.9478C68.8161 33.4211 69.4278 33.7857 70.0934 34.0202C71.5217 34.5204 73.0787 34.5204 74.5069 34.0202C75.1722 33.7856 75.7837 33.421 76.3055 32.9478C76.8188 32.4767 77.2283 31.9046 77.5079 31.2678C77.7979 30.575 77.9473 29.8319 77.9473 29.0813C77.9473 28.3308 77.7979 27.5877 77.5079 26.8949C77.2272 26.2599 76.8179 25.6894 76.3055 25.2191V25.2191ZM74.1511 30.9353C73.6431 31.3909 72.9836 31.643 72.2998 31.643C71.6161 31.643 70.9565 31.3909 70.4485 30.9353C70.0215 30.4105 69.7885 29.7557 69.7885 29.0803C69.7885 28.4049 70.0215 27.7501 70.4485 27.2253C70.9565 26.7697 71.6161 26.5176 72.2998 26.5176C72.9836 26.5176 73.6431 26.7697 74.1511 27.2253C74.5781 27.7501 74.8111 28.4049 74.8111 29.0803C74.8111 29.7557 74.5781 30.4105 74.1511 30.9353Z" fill="#333333"/>
<path d="M82.1093 24.0908H80.4268V34.1407H82.1093V24.0908Z" fill="#333333"/>
<path d="M81.2689 18.9377C81.1058 18.9346 80.9438 18.9655 80.7933 19.0283C80.6428 19.0911 80.5071 19.1844 80.3949 19.3024C80.2238 19.4741 80.1077 19.6924 80.061 19.9298C80.0143 20.1671 80.0393 20.4129 80.1327 20.6362C80.2261 20.8594 80.3839 21.0502 80.586 21.1843C80.7881 21.3185 81.0256 21.3901 81.2686 21.3901C81.5115 21.3901 81.749 21.3185 81.9511 21.1843C82.1533 21.0502 82.311 20.8594 82.4044 20.6362C82.4978 20.4129 82.5228 20.1671 82.4761 19.9298C82.4295 19.6924 82.3133 19.4741 82.1422 19.3024C82.0302 19.1844 81.8947 19.091 81.7443 19.0282C81.5939 18.9654 81.432 18.9346 81.2689 18.9377V18.9377Z" fill="#333333"/>
<path d="M94.5554 25.3399C94.082 24.8588 93.5127 24.4818 92.884 24.2332C92.1941 23.9625 91.4579 23.8277 90.7163 23.8363C90.0177 23.8283 89.3269 23.983 88.699 24.2878C88.0806 24.594 87.5331 25.0253 87.0917 25.5541H87.0467V24.0911H85.3662V39.0375H87.0467V32.3595H87.0896C87.4467 32.972 87.9673 33.474 88.5936 33.8099C89.3206 34.2152 90.1434 34.4192 90.9764 34.4007C91.6585 34.405 92.3341 34.2697 92.9614 34.0031C93.5671 33.7474 94.1138 33.371 94.568 32.8971C95.0292 32.4129 95.3919 31.8443 95.6361 31.2227C96.1536 29.8668 96.1536 28.3689 95.6361 27.0129C95.3898 26.39 95.0226 25.8214 94.5554 25.3399V25.3399ZM93.9619 30.5899C93.8051 31.0275 93.5597 31.4284 93.2411 31.7678C92.9224 32.1072 92.5371 32.378 92.1092 32.5632C91.1629 32.949 90.1023 32.949 89.1561 32.5632C88.7275 32.378 88.3417 32.107 88.0226 31.7672C87.7036 31.4274 87.458 31.026 87.3012 30.5878C86.9709 29.6354 86.9709 28.6003 87.3012 27.6478C87.458 27.2097 87.7036 26.8082 88.0226 26.4684C88.3417 26.1286 88.7275 25.8577 89.1561 25.6724C90.1023 25.2866 91.1629 25.2866 92.1092 25.6724C92.5377 25.8577 92.9235 26.1286 93.2426 26.4684C93.5616 26.8082 93.8072 27.2097 93.964 27.6478C94.2943 28.6003 94.2943 29.6354 93.964 30.5878L93.9619 30.5899Z" fill="#333333"/>
<path d="M104.499 29.12C104.18 28.882 103.824 28.6971 103.445 28.5726C103.029 28.4328 102.603 28.3215 102.172 28.2394C101.849 28.1844 101.528 28.1129 101.212 28.0252C100.931 27.949 100.656 27.8483 100.392 27.7242C100.181 27.6288 99.9901 27.4938 99.8299 27.3266C99.6936 27.1771 99.6204 26.9811 99.6253 26.7792C99.622 26.5614 99.6861 26.3478 99.8088 26.1674C99.9297 25.9892 100.088 25.8391 100.272 25.7271C100.47 25.6083 100.685 25.5214 100.909 25.4695C101.139 25.4128 101.375 25.3839 101.612 25.3834C102.063 25.3694 102.509 25.4851 102.896 25.7166C103.245 25.9353 103.537 26.2332 103.748 26.586L105.15 25.6627C104.839 25.0524 104.335 24.5615 103.715 24.2662C103.09 23.9774 102.409 23.8308 101.72 23.8371C101.253 23.836 100.788 23.9011 100.34 24.0303C99.9097 24.1524 99.5017 24.3414 99.131 24.5903C98.7765 24.8286 98.4814 25.1444 98.2683 25.5136C98.0476 25.9068 97.936 26.3513 97.9448 26.8016C97.9273 27.2424 98.0277 27.6799 98.2359 28.0693C98.4259 28.395 98.691 28.6709 99.0094 28.8743C99.3608 29.095 99.742 29.2649 100.141 29.379C100.573 29.5078 101.026 29.6224 101.501 29.7227C101.774 29.7801 102.04 29.8445 102.299 29.9159C102.541 29.9806 102.773 30.0782 102.989 30.2057C103.179 30.318 103.344 30.4679 103.474 30.646C103.604 30.8433 103.668 31.0762 103.658 31.3117C103.665 31.5592 103.598 31.8032 103.464 32.0117C103.33 32.2093 103.153 32.3744 102.946 32.4947C102.723 32.6274 102.478 32.7221 102.223 32.7747C101.965 32.8313 101.701 32.8601 101.436 32.8608C100.912 32.881 100.392 32.7544 99.9368 32.4954C99.5178 32.2299 99.1491 31.893 98.8477 31.5L97.5117 32.5311C97.9253 33.1705 98.5123 33.6802 99.2048 34.0011C99.9146 34.2816 100.674 34.4168 101.437 34.3987C101.934 34.3991 102.43 34.3416 102.914 34.2272C103.374 34.1213 103.812 33.936 104.208 33.6798C104.587 33.4298 104.9 33.0939 105.122 32.6998C105.364 32.2525 105.483 31.75 105.468 31.2424C105.482 30.806 105.393 30.3725 105.21 29.9761C105.042 29.6401 104.799 29.3471 104.499 29.12V29.12Z" fill="#333333"/>
<path d="M116.621 31.7572V24.0908H114.939V28.9908C114.944 29.5191 114.882 30.0459 114.755 30.5588C114.647 30.9985 114.456 31.4137 114.193 31.7824C113.942 32.1252 113.608 32.3986 113.222 32.5769C112.777 32.7733 112.295 32.869 111.809 32.8569C111.48 32.8834 111.15 32.8309 110.846 32.7038C110.542 32.5768 110.273 32.3789 110.062 32.1268C109.658 31.5414 109.46 30.839 109.499 30.1297V24.0908H107.817V30.297C107.811 30.8596 107.888 31.42 108.043 31.9609C108.178 32.4405 108.419 32.8844 108.746 33.2608C109.074 33.6288 109.483 33.9163 109.941 34.1008C110.488 34.313 111.07 34.4153 111.656 34.4018C112.051 34.405 112.443 34.3505 112.821 34.2401C113.163 34.1411 113.489 33.9968 113.792 33.811C114.067 33.6423 114.317 33.4364 114.536 33.1992C114.732 32.9882 114.896 32.7492 115.022 32.4901H115.064C115.064 32.7771 115.072 33.0571 115.086 33.3301C115.101 33.6031 115.108 33.8752 115.107 34.1463H116.704C116.704 33.8164 116.69 33.4512 116.661 33.0508C116.631 32.6504 116.618 32.2192 116.621 31.7572Z" fill="#333333"/>
<path d="M134.806 26.293C134.694 25.8067 134.472 25.352 134.159 24.963C133.842 24.5866 133.433 24.2974 132.972 24.123C132.392 23.9144 131.777 23.8161 131.16 23.8332C130.491 23.8041 129.828 23.9802 129.262 24.3379C128.738 24.7126 128.297 25.1917 127.968 25.7449C127.882 25.5727 127.77 25.3758 127.634 25.1541C127.481 24.9147 127.288 24.7039 127.062 24.5311C126.785 24.3213 126.476 24.156 126.148 24.0411C125.707 23.8934 125.243 23.8242 124.777 23.8367C124.384 23.8335 123.991 23.8879 123.613 23.9984C123.272 24.0974 122.945 24.2417 122.642 24.4275C122.367 24.5965 122.117 24.8023 121.898 25.0393C121.702 25.2503 121.538 25.4893 121.413 25.7484H121.369C121.369 25.4614 121.362 25.1828 121.348 24.9084C121.334 24.634 121.327 24.3645 121.327 24.0922H119.73C119.73 24.4221 119.745 24.7873 119.773 25.1877C119.802 25.5881 119.816 26.0177 119.816 26.4764V34.1421H121.5V29.2463C121.495 28.7178 121.557 28.1907 121.684 27.6776C121.791 27.2377 121.982 26.8224 122.246 26.454C122.496 26.1111 122.83 25.8376 123.217 25.6595C123.661 25.4629 124.144 25.3673 124.63 25.3795C124.918 25.355 125.207 25.4069 125.469 25.5298C125.73 25.6528 125.954 25.8424 126.118 26.0795C126.479 26.816 126.635 27.6354 126.571 28.4525V34.1435H128.25V28.3433C128.245 27.93 128.315 27.5191 128.456 27.1302C128.58 26.7854 128.771 26.4682 129.018 26.1964C129.251 25.9419 129.534 25.7373 129.848 25.5951C130.167 25.4516 130.513 25.3783 130.862 25.3802C131.278 25.3652 131.691 25.4459 132.07 25.6161C132.369 25.7598 132.628 25.9739 132.825 26.2398C133.014 26.503 133.147 26.8027 133.214 27.1197C133.286 27.4514 133.322 27.7898 133.321 28.1291V34.1421H135V28.043C135.006 27.454 134.941 26.8664 134.806 26.293Z" fill="#333333"/>
</g>
<defs>
<clipPath id="clip0_13_10045">
<rect width="135" height="56" fill="white"/>
</clipPath>
</defs>
</svg>
