<svg width="376" height="748" viewBox="0 0 376 748" fill="none" xmlns="http://www.w3.org/2000/svg">
<path d="M309.4 7.28901H66.1216C34.5579 7.28901 8.98244 32.8826 8.99346 64.4498L9.00622 101.016C7.92286 102.599 7.28816 104.515 7.28888 106.583L7.29638 128.08C7.29711 130.148 7.93314 132.064 9.01761 133.646L9.02273 148.309C7.93936 149.891 7.30466 151.807 7.30539 153.875L7.31979 195.149C7.32051 197.217 7.95655 199.133 9.04102 200.715L9.04434 210.219C7.96097 211.801 7.32627 213.717 7.32699 215.785L7.3414 257.059C7.34212 259.127 7.97816 261.043 9.06263 262.625L9.20953 683.55C9.22055 715.117 34.8139 740.711 66.3776 740.711H309.656C341.22 740.711 366.796 715.117 366.785 683.55L366.634 251.447C367.717 249.865 368.352 247.949 368.351 245.88L368.326 174.512C368.325 172.444 367.689 170.528 366.605 168.945L366.568 64.4498C366.557 32.8826 340.964 7.28901 309.4 7.28901ZM33.8869 64.4498C33.8807 46.6288 48.3183 32.1851 66.1303 32.1851H88.9291C88.9896 46.677 100.756 58.4108 115.262 58.4108H259.436C273.942 58.4108 285.7 46.677 285.751 32.1851H309.409C327.221 32.1851 341.669 46.6288 341.675 64.4498L341.891 683.55C341.897 701.371 327.46 715.815 309.648 715.815H66.3689C48.5569 715.815 34.1092 701.371 34.103 683.55L33.8869 64.4498Z" fill="white" stroke="white" stroke-width="14.5741"/>
</svg>
