<svg width="204" height="48" viewBox="0 0 204 48" fill="none" xmlns="http://www.w3.org/2000/svg">
<path d="M25.9769 33.0833C30.4936 32.3739 33.9485 28.4652 33.9485 23.7497C33.9485 18.5305 29.7198 14.3018 24.5006 14.3018C19.2814 14.3018 15.0527 18.5305 15.0527 23.7497C15.0527 28.4652 18.5077 32.3739 23.0244 33.0833V26.4808H20.6243V23.7497H23.0244V21.6681C23.0244 19.3004 24.434 17.9925 26.5929 17.9925C27.6268 17.9925 28.708 18.1769 28.708 18.1769V20.5008H27.5163C26.343 20.5008 25.9769 21.2292 25.9769 21.9763V23.7497H28.5971L28.1781 26.4808H25.9769V33.0833Z" fill="#132A73"/>
<path d="M72.9186 31.1006C80.2054 31.1006 84.1923 25.0651 84.1923 19.8269C84.1923 19.6552 84.1923 19.4834 84.18 19.3117C84.9528 18.7474 85.6276 18.0482 86.1672 17.2631C85.4558 17.5697 84.6829 17.7906 83.8855 17.8764C84.7074 17.3858 85.333 16.6129 85.6275 15.6929C84.8669 16.1467 84.0082 16.478 83.1127 16.6497C82.3889 15.8769 81.3585 15.3984 80.2176 15.3984C78.0218 15.3984 76.2552 17.1772 76.2552 19.3608C76.2552 19.6675 76.292 19.9741 76.3534 20.2685C73.0658 20.0968 70.1339 18.5266 68.1834 16.1222C67.8398 16.711 67.6436 17.3857 67.6436 18.1218C67.6436 19.4957 68.3428 20.7102 69.4101 21.4217C68.7599 21.3972 68.1465 21.2132 67.6191 20.9188V20.9678C67.6191 22.8938 68.9808 24.4885 70.7963 24.8565C70.4651 24.9424 70.1094 24.9915 69.7536 24.9915C69.496 24.9915 69.2506 24.9669 69.0053 24.9301C69.5083 26.5004 70.9681 27.6412 72.71 27.6781C71.3483 28.7453 69.6432 29.3709 67.7908 29.3709C67.4596 29.3709 67.153 29.3586 66.834 29.3219C68.5882 30.4504 70.6736 31.1006 72.9186 31.1006Z" fill="#132A73"/>
<path d="M126.169 32.2489L126.168 32.0699C126.167 31.8266 126.164 31.4074 126.161 30.9668L126.159 30.5248C126.159 30.4518 126.159 30.3797 126.158 30.3091L126.158 29.9098V29.9098C126.158 29.9098 123.491 30.4813 122.931 28.7746C122.931 28.7746 122.497 27.666 121.872 27.3802C121.872 27.3802 120.999 26.7821 121.933 26.7936C121.933 26.7936 122.881 26.8698 123.403 27.7765C124.238 29.247 125.636 28.8241 126.181 28.5726C126.268 27.9631 126.516 27.5402 126.79 27.2888L126.403 27.2444V27.2444L126.019 27.1939C124.171 26.9285 122.512 26.2998 122.512 23.0792C122.512 22.0315 122.801 21.5058 123.411 20.8353C123.312 20.5877 122.988 19.5667 123.51 18.2485C124.306 18.0009 126.139 19.2771 126.139 19.2771C126.901 19.0638 127.72 18.9533 128.531 18.9533C129.343 18.9533 130.162 19.0638 130.924 19.2771C130.924 19.2771 132.756 17.9971 133.552 18.2485C134.074 19.5705 133.75 20.5877 133.651 20.8353C134.261 21.5096 134.634 22.0353 134.634 23.0792C134.634 26.4213 132.78 26.9675 130.843 27.2195L130.455 27.2668C130.39 27.2742 130.325 27.2816 130.261 27.2888C130.611 27.5898 130.908 28.1612 130.908 29.0565C130.908 30.0836 130.901 31.3057 130.898 31.9134L130.897 32.1623C130.897 32.194 130.897 32.2205 130.897 32.2414C130.897 32.489 131.072 32.7899 131.556 32.7023C135.366 31.4375 137.949 27.8222 137.949 23.5973C137.949 18.3133 133.663 14.3018 128.379 14.3018C123.095 14.3018 119.053 18.3133 119.053 23.5973C119.053 27.8222 121.712 31.4375 125.51 32.7099C125.998 32.7975 126.169 32.4966 126.169 32.2489Z" fill="#132A73"/>
<path fill-rule="evenodd" clip-rule="evenodd" d="M184.13 32.4776C185.539 32.4108 186.787 32.089 187.815 31.057C188.843 30.0289 189.165 28.781 189.235 27.3722C189.318 25.9202 189.318 21.5722 189.235 20.1203C189.169 18.7115 188.847 17.4636 187.815 16.4355C186.787 15.4074 185.539 15.0856 184.13 15.0149C182.678 14.9325 178.326 14.9325 176.874 15.0149C175.469 15.0816 174.221 15.4034 173.189 16.4316C172.157 17.4597 171.839 18.7076 171.769 20.1164C171.686 21.5683 171.686 25.9202 171.769 27.3722C171.836 28.781 172.157 30.0289 173.189 31.057C174.221 32.0851 175.465 32.4069 176.874 32.4776C178.326 32.5599 182.678 32.5599 184.13 32.4776ZM179.891 30.9591H179.891H179.891C178.488 30.9726 176.313 30.9934 175.32 30.6018C174.551 30.2957 173.959 29.7032 173.649 28.9301C173.255 27.9372 173.277 25.7752 173.291 24.3728L173.291 24.3727C173.293 24.1401 173.295 23.9283 173.295 23.7463C173.295 23.5677 173.293 23.3604 173.291 23.1328C173.278 21.73 173.257 19.5551 173.649 18.5624C173.955 17.7933 174.547 17.2007 175.32 16.8907C176.313 16.4969 178.475 16.5188 179.878 16.533L179.878 16.533C180.11 16.5354 180.322 16.5375 180.504 16.5375C180.683 16.5375 180.89 16.5355 181.117 16.5334C182.52 16.5199 184.695 16.499 185.688 16.8907C186.457 17.1968 187.05 17.7893 187.36 18.5624C187.753 19.5553 187.731 21.7173 187.717 23.1197V23.1198V23.1198V23.1199C187.715 23.3525 187.713 23.5642 187.713 23.7463C187.713 23.9281 187.715 24.1398 187.717 24.3723V24.3725V24.3726V24.3728C187.731 25.776 187.753 27.9405 187.36 28.9301C187.054 29.6992 186.461 30.2918 185.688 30.6018C184.695 30.9956 182.533 30.9737 181.131 30.9594H181.131H181.13H181.13C180.898 30.9571 180.686 30.9549 180.504 30.9549C180.326 30.9549 180.119 30.9569 179.891 30.9591H179.891H179.891ZM186.249 19.0529C186.249 19.6376 185.778 20.1046 185.197 20.1046C184.613 20.1046 184.146 19.6337 184.146 19.0529C184.146 18.4721 184.617 18.0012 185.197 18.0012C185.778 18.0012 186.249 18.4721 186.249 19.0529ZM180.504 28.2551C183 28.2551 185.013 26.242 185.013 23.7463C185.013 21.2504 183 19.2374 180.504 19.2374C178.008 19.2374 175.995 21.2504 175.995 23.7463C175.995 26.242 178.008 28.2551 180.504 28.2551ZM177.573 23.7463C177.573 25.363 178.891 26.6776 180.504 26.6776C182.117 26.6776 183.435 25.363 183.435 23.7463C183.435 22.1295 182.121 20.8149 180.504 20.8149C178.887 20.8149 177.573 22.1295 177.573 23.7463Z" fill="#132A73"/>
</svg>
