<svg width="28" height="25" viewBox="0 0 28 25" fill="none" xmlns="http://www.w3.org/2000/svg">
<path opacity="0.3" d="M13.6164 16.0032C14.5528 16.0032 15.4507 15.6281 16.1128 14.9605C16.7749 14.2928 17.1468 13.3873 17.1468 12.4431C17.1468 12.3389 17.1421 12.2356 17.1333 12.1335L13.3094 15.9895C13.4106 15.9984 13.5127 16.0032 13.6164 16.0032ZM25.3021 1.43106L23.9555 0.0744209C23.9082 0.0267682 23.8441 0 23.7772 0C23.7104 0 23.6462 0.0267682 23.599 0.0744209L20.153 3.55026C18.2521 2.5706 16.1153 2.08077 13.7425 2.08077C7.68412 2.08077 3.16395 5.26259 0.182021 11.6262C0.0621623 11.8821 0 12.1617 0 12.4447C0 12.7277 0.0621623 13.0073 0.182021 13.2632C1.37353 15.794 2.80828 17.8225 4.48627 19.3487L1.15162 22.7101C1.10436 22.7578 1.07782 22.8224 1.07782 22.8899C1.07782 22.9573 1.10436 23.0219 1.15162 23.0696L2.49727 24.4266C2.54455 24.4742 2.60867 24.501 2.67552 24.501C2.74237 24.501 2.80649 24.4742 2.85378 24.4266L25.3021 1.79088C25.3255 1.76727 25.3441 1.73922 25.3568 1.70835C25.3695 1.67748 25.376 1.64439 25.376 1.61097C25.376 1.57755 25.3695 1.54446 25.3568 1.51359C25.3441 1.48272 25.3255 1.45468 25.3021 1.43106ZM8.06868 12.4431C8.06859 11.4768 8.3167 10.527 8.78884 9.68615C9.26098 8.8453 9.94105 8.1421 10.7628 7.64506C11.5845 7.14803 12.5199 6.8741 13.4779 6.84996C14.4358 6.82582 15.3836 7.0523 16.2289 7.50734L14.6964 9.05279C14.0783 8.85322 13.4177 8.82918 12.7869 8.98332C12.1562 9.13746 11.5798 9.46381 11.1209 9.92656C10.662 10.3893 10.3383 10.9706 10.1855 11.6066C10.0326 12.2427 10.0565 12.9089 10.2544 13.5321L8.7218 15.0776C8.29172 14.2673 8.06734 13.3622 8.06868 12.4431V12.4431Z" fill="#03014C"/>
<path opacity="0.3" d="M27.8148 11.7803C26.6818 9.46849 25.3332 7.58343 23.769 6.12506L19.1292 10.6202C19.5203 11.6107 19.607 12.6896 19.3788 13.7268C19.1506 14.7639 18.6173 15.7149 17.8433 16.4647C17.0693 17.2145 16.0877 17.7312 15.0171 17.9523C13.9465 18.1734 12.8328 18.0894 11.8104 17.7105L7.87494 21.523C9.70071 22.3415 11.7314 22.7507 13.9671 22.7507C20.1538 22.7507 24.7697 19.6292 27.8148 13.3862C27.9373 13.1351 28.0007 12.8609 28.0007 12.5832C28.0007 12.3056 27.9373 12.0313 27.8148 11.7803V11.7803Z" fill="#03014C"/>
</svg>
