<svg width="16" height="16" viewBox="0 0 16 16" fill="none" xmlns="http://www.w3.org/2000/svg">
<path fill-rule="evenodd" clip-rule="evenodd" d="M7.21806 8.78269C4.43054 5.99517 4.82867 5.59704 4.82867 5.59704L6.02365 4.40263C6.46345 3.96282 6.46345 3.24932 6.02365 2.81008L3.54585 0.331721C3.12631 -0.0872521 2.4528 -0.114283 2.00905 0.278786C1.27867 0.925265 0.293744 1.99241 0.0504693 3.20822C-0.347667 5.1989 1.64358 7.98642 4.82867 11.1721C8.01433 14.3572 10.8018 16.3484 12.7925 15.9503C14.0083 15.707 15.0755 14.7221 15.722 13.9917C16.115 13.5479 16.088 12.8744 15.669 12.4549L13.1907 9.9771C12.7514 9.53729 12.0379 9.53729 11.5981 9.9771L10.4037 11.1721C10.4037 11.1721 10.0056 11.5702 7.21806 8.78269" fill="#3A55E6"/>
</svg>
