<svg width="17" height="286" viewBox="0 0 17 286" fill="none" xmlns="http://www.w3.org/2000/svg">
<path fill-rule="evenodd" clip-rule="evenodd" d="M7.86064 0H1.83963C1.10178 0 0.501748 0.649816 0.501748 1.44947V11.5959C0.501748 12.395 1.10178 13.0453 1.83963 13.0453H7.86064V7.67191L8.92166 6.52266L7.86064 5.37341V0ZM3.17764 2.89906H5.85367C6.22358 2.89906 6.52263 3.22363 6.52263 3.62289C6.52263 4.02383 6.22358 4.3484 5.85367 4.3484H3.17764C2.80775 4.3484 2.5087 4.02383 2.5087 3.62358C2.5087 3.22363 2.80775 2.89906 3.17764 2.89906ZM5.85367 10.1464H3.17764C2.80775 10.1464 2.5087 9.82183 2.5087 9.42173C2.5087 9.02149 2.80775 8.69694 3.17764 8.69694H5.85367C6.22358 8.69694 6.52263 9.02149 6.52263 9.42173C6.52263 9.82183 6.22358 10.1464 5.85367 10.1464ZM6.52263 7.24747H3.84671C3.47669 7.24747 3.17764 6.92276 3.17764 6.52266C3.17764 6.12256 3.47669 5.79799 3.84671 5.79799H6.52263C6.89265 5.79799 7.1917 6.12256 7.1917 6.52266C7.1917 6.92276 6.89265 7.24747 6.52263 7.24747ZM15.2197 0H9.19865V4.77298L10.8137 6.52266L9.19865 8.27179V13.0453H15.2197C15.9575 13.0453 16.5577 12.395 16.5577 11.5959V1.44947C16.5577 0.649816 15.9575 0 15.2197 0ZM10.5367 4.3484C10.1666 4.3484 9.86772 4.02383 9.86772 3.62358C9.86772 3.22363 10.1666 2.89906 10.5367 2.89906H13.2126C13.5826 2.89906 13.8816 3.22363 13.8816 3.62358C13.8816 4.02383 13.5826 4.3484 13.2126 4.3484H10.5367ZM13.2126 10.1464H10.5367C10.1666 10.1464 9.86772 9.82183 9.86772 9.42173C9.86772 9.02149 10.1666 8.69694 10.5367 8.69694H13.2126C13.5826 8.69694 13.8816 9.02149 13.8816 9.42173C13.8816 9.82183 13.5826 10.1464 13.2126 10.1464ZM13.8816 7.24747H11.8747C11.5047 7.24747 11.2056 6.92276 11.2056 6.52266C11.2056 6.12256 11.5047 5.79799 11.8747 5.79799H13.8816C14.2515 5.79799 14.5506 6.12256 14.5506 6.52266C14.5506 6.92276 14.2515 7.24747 13.8816 7.24747Z" fill="#7F63F4"/>
<path fill-rule="evenodd" clip-rule="evenodd" d="M12.5437 57.6004C11.1384 57.6004 10.035 58.4035 9.935 58.5034L11.1384 60.1092C11.1384 60.1092 11.8411 59.6074 12.5437 59.6074C13.949 59.6074 14.049 60.8113 14.049 61.2132C13.6472 61.1128 12.9456 60.9119 12.042 61.1128C10.6367 61.4137 9.2324 63.1201 9.935 65.0262C10.6367 66.8322 13.0455 67.1344 14.049 65.629V66.6327H16.056V61.3127C16.056 58.6034 14.149 57.6004 12.5437 57.6004ZM11.5403 64.1235C11.4404 62.2169 13.0455 62.2169 14.049 62.3168V63.3198C14.049 64.5244 11.7411 65.629 11.5403 64.1235ZM6.92411 66.7326H9.03155L5.82014 54.6899H3.11103L0 66.7326H2.10745L3.11103 62.7186H5.82014L6.92411 66.7326ZM3.61278 60.7117L4.41529 57.4998L5.31839 60.7117H3.61278Z" fill="#AAAAAA"/>
<path fill-rule="evenodd" clip-rule="evenodd" d="M11.6123 112.545H7.80058L6.79652 111.633H5.08561C4.95469 111.633 4.84825 111.74 4.84825 111.871V117.699C4.84825 117.83 4.95469 117.936 5.08561 117.936H5.26592L6.21256 113.064H11.8493V112.782C11.8493 112.651 11.7428 112.545 11.6123 112.545ZM8.52947 106.37C4.09593 106.37 0.501748 109.965 0.501748 114.398C0.501748 118.832 4.09593 122.427 8.52947 122.427C12.963 122.427 16.5577 118.832 16.5577 114.398C16.5577 109.965 12.963 106.37 8.52947 106.37ZM12.6636 117.755C12.6346 118.308 12.1847 118.751 11.6283 118.767C11.6229 118.768 11.6178 118.769 11.6123 118.769H11.1182H5.0854C4.49544 118.769 4.01553 118.289 4.01553 117.699V111.871C4.01553 111.281 4.49557 110.8 5.08574 110.8H7.1182L8.12214 111.712H11.6123C12.2022 111.712 12.6821 112.192 12.6821 112.783V113.064L13.6404 113.064L12.6636 117.755Z" fill="#AAAAAA"/>
<path fill-rule="evenodd" clip-rule="evenodd" d="M0.501748 161.563V176.615H16.5577V161.563H0.501748ZM5.51914 175.612H1.50522V173.605H5.51914V175.612ZM5.51914 172.601H1.50522V170.594H5.51914V172.601ZM5.51914 169.591H1.50522V167.584H5.51914V169.591ZM5.51914 166.58H1.50522V164.573H5.51914V166.58ZM10.5367 175.612H6.52263V173.605H10.5367V175.612ZM10.5367 172.601H6.52263V170.594H10.5367V172.601ZM10.5367 169.591H6.52263V167.584H10.5367V169.591ZM10.5367 166.58H6.52263V164.573H10.5367V166.58ZM15.5542 175.612H11.5401V173.605H15.5542V175.612ZM15.5542 172.601H11.5401V170.594H15.5542V172.601ZM15.5542 169.591H11.5401V167.584H15.5542V169.591ZM15.5542 166.58H11.5401V164.573H15.5542V166.58Z" fill="#AAAAAA"/>
<path fill-rule="evenodd" clip-rule="evenodd" d="M5.89861 274.109C5.78433 274.186 5.63734 274.194 5.51618 274.128C5.39504 274.062 5.31935 273.934 5.31935 273.794V271.232C5.31935 271.106 5.38159 270.988 5.48529 270.917L8.32302 268.997C8.44819 268.911 8.61126 268.911 8.73634 268.997L11.574 270.917C11.6777 270.988 11.74 271.106 11.74 271.232V273.794C11.74 273.934 11.6643 274.062 11.5433 274.128C11.422 274.194 11.275 274.186 11.1607 274.109L9.84821 273.22V278.597C9.84821 279.336 9.25679 279.936 8.52974 279.936C7.80266 279.936 7.21112 279.336 7.21112 278.597V273.22L5.89861 274.109ZM15.0372 273.053C16.0365 274.452 16.5647 276.107 16.5647 277.84C16.5647 282.339 12.9602 286 8.52974 286C4.09916 286 0.494643 282.339 0.494643 277.84C0.494643 276.107 1.0228 274.452 2.02214 273.053C2.13676 272.893 2.35336 272.849 2.51942 272.953L4.61835 274.267C4.70656 274.323 4.76823 274.412 4.78832 274.516C4.80853 274.619 4.78533 274.726 4.72436 274.812C4.14028 275.629 3.83147 276.597 3.83147 277.61C3.83147 280.241 5.93915 282.382 8.52974 282.382C11.1203 282.382 13.228 280.241 13.228 277.61C13.228 276.597 12.9192 275.629 12.3351 274.812C12.2742 274.726 12.2512 274.619 12.2711 274.516C12.2912 274.412 12.3529 274.323 12.4412 274.267L14.5401 272.953C14.706 272.849 14.9227 272.893 15.0372 273.053Z" fill="#AAAAAA"/>
</svg>
