<svg width="16" height="15" viewBox="0 0 16 15" fill="none" xmlns="http://www.w3.org/2000/svg">
<path d="M15.8 3.36166L8.13333 0.0283231C8.04846 -0.00944105 7.95154 -0.00944105 7.86667 0.0283231L0.2 3.36166C0.0785815 3.41465 6.82525e-05 3.53451 0 3.66699V4.66699C0 4.85108 0.149238 5.00032 0.333333 5.00032H15.6667C15.8508 5.00032 16 4.85108 16 4.66699V3.66699C15.9999 3.53451 15.9214 3.41465 15.8 3.36166Z" fill="black"/>
<path d="M11.4997 9.00031H4.83301C4.55687 9.00031 4.33301 9.22416 4.33301 9.50031C4.33301 9.77645 4.55687 10.0003 4.83301 10.0003H11.4997C11.7758 10.0003 11.9997 9.77645 11.9997 9.50031C11.9997 9.22416 11.7758 9.00031 11.4997 9.00031V9.00031Z" fill="black"/>
<path d="M11.4997 11.3337H4.83301C4.55687 11.3337 4.33301 11.5575 4.33301 11.8337C4.33301 12.1098 4.55687 12.3337 4.83301 12.3337H11.4997C11.7758 12.3337 11.9997 12.1098 11.9997 11.8337C11.9997 11.5575 11.7758 11.3337 11.4997 11.3337Z" fill="black"/>
<path fill-rule="evenodd" clip-rule="evenodd" d="M15.3333 13.5003C15.7015 13.5003 16 13.7988 16 14.167C16 14.5352 15.7015 14.8336 15.3333 14.8336H0.666667C0.298477 14.8336 0 14.5352 0 14.167C0 13.7988 0.298477 13.5003 0.666667 13.5003H1C1.18409 13.5003 1.33333 13.3511 1.33333 13.167V6.33364C1.33333 6.14954 1.48257 6.00031 1.66667 6.00031H14.3333C14.5174 6.00031 14.6667 6.14954 14.6667 6.33364V13.167C14.6667 13.3511 14.8159 13.5003 15 13.5003H15.3333ZM4 7.66697C3.63181 7.66697 3.33333 7.96545 3.33333 8.33364V13.167C3.33333 13.3511 3.48257 13.5003 3.66667 13.5003H12.6667C12.8508 13.5003 13 13.3511 13 13.167V8.33364C13 7.96545 12.7015 7.66697 12.3333 7.66697H4Z" fill="black"/>
</svg>
