<svg width="22" height="16" viewBox="0 0 22 16" fill="none" xmlns="http://www.w3.org/2000/svg">
<path fill-rule="evenodd" clip-rule="evenodd" d="M0.985262 1.99776H20.9934C21.5115 1.99776 21.9784 1.45886 21.9784 0.940862C21.9784 0.423351 21.5545 0 21.0364 0H0.941877C0.423939 0 0 0.423351 0 0.940862C0 1.45886 0.467325 1.99776 0.985262 1.99776ZM0.985262 9.00058H20.9934C21.5115 9.00058 21.9784 8.51746 21.9784 7.99995C21.9784 7.48244 21.5115 6.99979 20.9934 6.99979H0.985262C0.467325 6.99979 0 7.48244 0 7.99995C0 8.51746 0.467325 9.00058 0.985262 9.00058ZM21.0364 16H0.941877C0.423939 16 0 15.5764 0 15.0586C0 14.5412 0.467325 14.0028 0.985262 14.0028H20.9934C21.5115 14.0028 21.9784 14.5412 21.9784 15.0586C21.9784 15.5764 21.5545 16 21.0364 16Z" fill="#242E3A"/>
</svg>
