<svg width="14" height="14" viewBox="0 0 14 14" fill="none" xmlns="http://www.w3.org/2000/svg">
<path d="M7 0C3.13306 0 0 3.13306 0 7C0 10.8669 3.13306 14 7 14C10.8669 14 14 10.8669 14 7C14 3.13306 10.8669 0 7 0ZM9.59677 8.83468L9.03226 9.54032C8.94758 9.65323 8.80645 9.7379 8.66532 9.7379C8.58065 9.7379 8.46774 9.68145 8.41129 9.625L6.52016 8.21371C6.26613 8.04435 6.09677 7.64919 6.09677 7.33871V2.93548C6.09677 2.70968 6.29435 2.48387 6.54839 2.48387H7.45161C7.67742 2.48387 7.90323 2.70968 7.90323 2.93548V7L9.54032 8.21371C9.625 8.29839 9.70968 8.43952 9.70968 8.55242C9.70968 8.66532 9.65323 8.77823 9.59677 8.83468Z" fill="#000C21"/>
</svg>
