<svg width="80" height="80" viewBox="0 0 80 80" fill="none" xmlns="http://www.w3.org/2000/svg">
<rect opacity="0.1" width="80" height="80" rx="40" fill="#B3BAC5"/>
<path fill-rule="evenodd" clip-rule="evenodd" d="M56.7992 43.0742C56.1501 42.272 55.332 41.6121 54.3992 41.1485V38.0001C54.3992 29.8263 48.173 23.6485 39.9992 23.6485C31.8254 23.6485 25.5992 29.8263 25.5992 38.0001V41.1485C24.6664 41.6121 23.8484 42.272 23.1992 43.0742V38.0001C23.1992 28.5008 30.4999 21.2485 39.9992 21.2485C49.4985 21.2485 56.7992 28.5008 56.7992 38.0001V43.0742ZM28.07 42.0471C28.0235 42.291 27.9992 42.5427 27.9992 42.8001V52.4001C27.9992 52.6575 28.0235 52.9092 28.07 53.153C25.3217 52.7957 23.1992 50.4457 23.1992 47.6001C23.1992 44.7544 25.3217 42.4045 28.07 42.0471ZM51.9992 52.4001C51.9992 52.6575 51.9749 52.9092 51.9285 53.153C54.6767 52.7957 56.7992 50.4457 56.7992 47.6001C56.7992 44.7544 54.6767 42.4045 51.9285 42.0471C51.9749 42.291 51.9992 42.5427 51.9992 42.8001V52.4001ZM31.9992 40.4001H33.5992C34.9247 40.4001 35.9992 41.4746 35.9992 42.8001V52.4001C35.9992 53.7256 34.9247 54.8001 33.5992 54.8001H31.9992C30.6737 54.8001 29.5992 53.7256 29.5992 52.4001V42.8001C29.5992 41.4746 30.6737 40.4001 31.9992 40.4001ZM47.9992 40.4001H46.3992C45.0737 40.4001 43.9992 41.4746 43.9992 42.8001V52.4001C43.9992 53.7256 45.0737 54.8001 46.3992 54.8001H47.9992C49.3247 54.8001 50.3992 53.7256 50.3992 52.4001V42.8001C50.3992 41.4746 49.3247 40.4001 47.9992 40.4001Z" fill="#1DA599"/>
</svg>
