<svg width="38" height="31" viewBox="0 0 38 31" fill="none" xmlns="http://www.w3.org/2000/svg">
<path d="M2.94351 4.267L2.94316 4.26752C1.28784 6.74216 0.5 10.5244 0.5 15.5289C0.5 20.3126 1.31707 24.0241 3.01915 26.5956C4.74315 29.2002 7.29068 30.5 10.5897 30.5C13.9778 30.5 16.5578 29.2493 18.2371 26.7119C19.9036 24.2133 20.6987 20.459 20.6987 15.5289C20.6987 10.7324 19.8816 7.00862 18.1802 4.42469C16.4563 1.80655 13.9019 0.5 10.5897 0.5C7.21437 0.5 4.63564 1.74418 2.94351 4.267ZM13.9488 23.4996L13.9475 23.5024C13.5786 24.2733 13.1159 24.8217 12.5722 25.1793C12.0304 25.5356 11.3766 25.7233 10.5897 25.7233C9.80123 25.7233 9.14643 25.5381 8.60421 25.187C8.06086 24.8351 7.59921 24.2962 7.23127 23.5397C6.4972 22.0033 6.1015 19.3589 6.1015 15.5289C6.1015 11.6994 6.49705 9.04748 7.23194 7.49748C7.60029 6.73417 8.06235 6.19077 8.6057 5.83616C9.14773 5.48242 9.80198 5.29601 10.5897 5.29601C11.3751 5.29601 12.0278 5.48609 12.5693 5.8477C13.113 6.21083 13.5766 6.76833 13.9462 7.55269L13.9462 7.5527L13.9482 7.55683C14.7085 9.13244 15.1165 11.7658 15.1165 15.5289C15.1165 19.3057 14.7083 21.9378 13.9488 23.4996ZM37 30.1146H37.5V29.6146V1.44319V0.943189H37H33.2105H33.038L32.9022 1.04959L24.5885 7.56255L24.1922 7.87303L24.5054 8.26721L26.7868 11.1383L27.1006 11.5332L27.4927 11.216C29.9448 9.2328 31.3975 8.04379 31.8357 7.66035C31.9031 7.60302 31.9691 7.54631 32.0334 7.49025C31.982 8.58329 31.9565 9.89537 31.9565 11.4246V29.6146V30.1146H32.4565H37Z" stroke="white" stroke-opacity="0.6"/>
</svg>
