<svg width="127" height="33" viewBox="0 0 127 33" fill="none" xmlns="http://www.w3.org/2000/svg">
<path fill-rule="evenodd" clip-rule="evenodd" d="M104.735 21.753C107.231 21.753 109.205 19.0564 109.205 15.7384V7.71893H111.21V15.7384C111.21 20.1491 108.323 23.7077 104.775 23.7077C101.226 23.7077 98.3391 20.1491 98.3391 15.7384V7.71893H100.344V15.7384C100.264 19.1066 102.239 21.8031 104.725 21.8031L104.735 21.753ZM56.4474 23.828H54.4426V22.3945C53.1496 23.2995 51.6101 23.7859 50.0319 23.7879C46.3231 23.8127 43.0811 21.2911 42.1924 17.6903C41.3037 14.0895 43 10.349 46.2944 8.64533C49.5888 6.94165 53.6217 7.71927 56.0465 10.5257L54.5729 11.8389C52.7294 9.77779 49.718 9.23928 47.2743 10.5338C44.8307 11.8283 43.5847 14.6222 44.2543 17.3052C44.924 19.9882 47.3367 21.8688 50.102 21.8632C51.7878 21.8667 53.3912 21.1346 54.4927 19.8584H49.0796V17.8535H56.4675L56.4474 23.828ZM22.5352 7.84924H20.5303V23.808H28.5497V21.8031H22.5352V7.84924ZM34.7949 19.8784C38.1167 19.8784 40.8095 17.1856 40.8095 13.8638C40.8095 10.5421 38.1167 7.84924 34.7949 7.84924C33.1997 7.84924 31.6699 8.48292 30.5419 9.61088C29.414 10.7388 28.7803 12.2687 28.7803 13.8638C28.7803 17.1856 31.4731 19.8784 34.7949 19.8784ZM34.7949 17.8736C37.0094 17.8736 38.8046 16.0784 38.8046 13.8638C38.8046 11.6493 37.0094 9.85411 34.7949 9.85411C32.5804 9.85411 30.7852 11.6493 30.7852 13.8638C30.7962 16.0705 32.5882 17.8535 34.7949 17.8535V17.8736ZM38.8046 23.828V21.8232H30.7852V23.828H38.8046ZM69.8399 13.9039C69.8399 10.5822 67.1471 7.88934 63.8253 7.88934L63.8454 7.84924C62.2398 7.84385 60.6987 8.48067 59.5652 9.6179C58.4317 10.7551 57.8 12.2983 57.8108 13.9039C57.8108 17.2257 60.5036 19.9185 63.8253 19.9185C67.1471 19.9185 69.8399 17.2257 69.8399 13.9039ZM63.8253 17.9137C66.0399 17.9137 67.8351 16.1184 67.8351 13.9039C67.8351 11.6894 66.0399 9.8942 63.8253 9.8942C61.6108 9.8942 59.8156 11.6894 59.8156 13.9039C59.8486 16.1028 61.6464 17.8648 63.8454 17.8535L63.8253 17.9137ZM67.8351 23.8681V21.8632H59.8156V23.8681H67.8351ZM71.9751 7.84924H73.98V23.7879H71.9751V7.84924ZM78.7616 7.84924H76.7567V23.818H78.7616V19.8083H79.0723C81.3633 20.0568 83.5948 18.9746 84.8182 17.0217C86.0415 15.0688 86.0415 12.5887 84.8182 10.6358C83.5948 8.68295 81.3633 7.6007 79.0723 7.84924C78.9691 7.83829 78.8649 7.83829 78.7616 7.84924ZM78.7616 9.85411V9.90087L78.7516 9.90423L78.7616 9.85411ZM78.7616 9.90087C78.8625 9.86746 78.9666 9.84506 79.0723 9.83406C80.6184 9.62818 82.1436 10.3375 82.9823 11.6526C83.821 12.9677 83.821 14.6497 82.9823 15.9648C82.1436 17.2799 80.6184 17.9892 79.0723 17.7833H78.7616V9.90087ZM93.1735 9.02825L93.2066 9.00204L93.1966 9.05216L93.1735 9.02825ZM90.3798 7.89936C91.4284 7.8684 92.4415 8.27819 93.1735 9.02825L91.723 10.1749C91.2005 9.62887 90.4089 9.43507 89.6932 9.67794C88.9775 9.9208 88.4673 10.5563 88.3849 11.3076V11.468C88.3849 12.3502 88.9964 12.9416 90.1893 13.0218C94.7805 13.3025 96.8856 15.4577 96.8856 18.3046V18.4851C96.6435 20.7861 95.0819 22.7347 92.8888 23.4721C90.6958 24.2096 88.2741 23.6006 86.6908 21.9134L88.2246 20.7305C88.9471 21.5048 89.9734 21.9227 91.0314 21.8733C93.0374 21.979 94.7703 20.4848 94.9609 18.4851V18.3447C94.9609 15.6682 92.3345 15.177 90.059 14.9565C87.9539 14.756 86.4402 13.4428 86.4402 11.5482V11.468C86.5944 9.41958 88.3261 7.85089 90.3798 7.89936ZM124.593 23.7578H126.598L126.578 7.84924L119.962 16.5604L113.346 7.84924V23.7879H115.35V13.8338L119.972 19.8484L124.593 13.8338V23.7578Z" fill="white"/>
<path fill-rule="evenodd" clip-rule="evenodd" d="M10.9065 5.45323C10.9065 2.4415 8.46497 0 5.45323 0C2.4415 0 0 2.4415 0 5.45323V21.9432L4.4909 25.1611V33.0001H6.41557V25.1611L10.9065 21.9432V5.45323ZM8.9818 14.6756L6.41557 17.2418V14.836L8.9818 12.2698V14.6756ZM4.53099 14.836L1.96477 12.2698V14.6756L4.53099 17.2418V14.836ZM8.9818 9.54316L5.45323 13.0717L1.92467 9.46296V7.05712L5.45323 10.5857L8.9818 7.05712V9.54316ZM8.8615 4.54102C8.4425 3.00205 7.0482 1.93173 5.45323 1.92467V1.88457C3.84682 1.89652 2.4488 2.98615 2.04496 4.54102L5.45323 7.93927L8.8615 4.54102ZM1.92467 20.9709V17.3621L4.4909 19.9284V22.7953L1.92467 20.9709ZM6.41557 19.9284V22.8053L8.9818 20.9609V17.3621L6.41557 19.9284Z" fill="#FFAC12"/>
</svg>
