<svg width="48" height="48" viewBox="0 0 48 48" fill="none" xmlns="http://www.w3.org/2000/svg">
<path d="M37.3312 36.961C38.5265 36.961 39.7312 36.7079 40.7156 35.9907C41.8499 35.1657 42.7593 33.9797 43.0124 32.5688C43.1906 31.5657 43.1343 30.5438 43.1343 29.5313C43.1343 27.2157 43.1484 24.8954 43.1343 22.5751C43.1296 21.4782 42.8156 20.3298 42.164 19.4391C41.3437 18.3141 40.1718 17.4094 38.7749 17.1516C38.2359 17.0485 37.6827 16.9969 37.1343 17.0251C36.3093 17.0673 35.5921 17.2688 34.8515 17.6157C33.5577 18.2204 32.6437 19.3922 32.1327 20.6907C31.7202 21.736 31.7999 22.8985 31.7999 24.0001C31.7999 25.3876 31.7999 26.7798 31.7999 28.1672C31.7999 29.2079 31.7999 30.2485 31.7999 31.2891C31.7999 32.2219 32.0015 33.0657 32.3952 33.9047C32.9952 35.1985 34.1718 36.1126 35.4702 36.6235C36.0562 36.8579 36.7031 36.9563 37.3312 36.961C38.3109 36.9704 39.2531 36.0938 39.2062 35.086C39.1593 34.0641 38.3812 33.2204 37.3312 33.211C37.1577 33.211 36.989 33.1969 36.8156 33.1735C36.9796 33.1969 37.1484 33.2204 37.3124 33.2391C36.9984 33.1922 36.6984 33.1079 36.4077 32.986C36.5577 33.0469 36.7077 33.1126 36.8577 33.1735C36.5718 33.0516 36.3093 32.8969 36.0609 32.7094C36.1874 32.8079 36.314 32.9063 36.4406 33.0047C36.1827 32.8032 35.9531 32.5735 35.7515 32.3157C35.8499 32.4422 35.9484 32.5688 36.0468 32.6954C35.8593 32.4469 35.7046 32.1844 35.5827 31.8985C35.6437 32.0485 35.7093 32.1985 35.7702 32.3485C35.6484 32.0579 35.564 31.7579 35.5171 31.4438C35.5406 31.6079 35.564 31.7766 35.5827 31.9407C35.5265 31.5235 35.5452 31.0969 35.5452 30.6751C35.5452 29.9485 35.5452 29.2266 35.5452 28.5001C35.5452 26.8313 35.5452 25.1672 35.5452 23.4985C35.5452 23.011 35.5171 22.5141 35.5827 22.0313C35.5593 22.1954 35.5359 22.3641 35.5171 22.5282C35.564 22.2141 35.6484 21.9141 35.7702 21.6235C35.7093 21.7735 35.6437 21.9235 35.5827 22.0735C35.7046 21.7876 35.8593 21.5251 36.0468 21.2766C35.9484 21.4032 35.8499 21.5297 35.7515 21.6563C35.9531 21.3985 36.1827 21.1688 36.4406 20.9672C36.314 21.0657 36.1874 21.1641 36.0609 21.2626C36.3093 21.0751 36.5718 20.9204 36.8577 20.7985C36.7077 20.8594 36.5577 20.9251 36.4077 20.986C36.6984 20.8641 36.9984 20.7797 37.3124 20.7329C37.1484 20.7563 36.9796 20.7798 36.8156 20.7985C37.2421 20.7423 37.6921 20.7423 38.1187 20.7985C37.9546 20.7751 37.7859 20.7516 37.6218 20.7329C37.9359 20.7797 38.2359 20.8641 38.5265 20.986C38.3765 20.9251 38.2265 20.8594 38.0765 20.7985C38.3624 20.9204 38.6249 21.0751 38.8734 21.2626C38.7468 21.1641 38.6202 21.0657 38.4937 20.9672C38.7515 21.1688 38.9812 21.3985 39.1827 21.6563C39.0843 21.5297 38.9859 21.4032 38.8874 21.2766C39.0749 21.5251 39.2296 21.7876 39.3515 22.0735C39.2906 21.9235 39.2249 21.7735 39.164 21.6235C39.2859 21.9141 39.3702 22.2141 39.4171 22.5282C39.3937 22.3641 39.3702 22.1954 39.3515 22.0313C39.4077 22.4485 39.389 22.8751 39.389 23.2969C39.389 24.0235 39.389 24.7454 39.389 25.4719C39.389 27.1407 39.389 28.8047 39.389 30.4735C39.389 30.961 39.4171 31.4579 39.3515 31.9407C39.3749 31.7766 39.3984 31.6079 39.4171 31.4438C39.3702 31.7579 39.2859 32.0579 39.164 32.3485C39.2249 32.1985 39.2906 32.0485 39.3515 31.8985C39.2296 32.1844 39.0749 32.4469 38.8874 32.6954C38.9859 32.5688 39.0843 32.4422 39.1827 32.3157C38.9812 32.5735 38.7515 32.8032 38.4937 33.0047C38.6202 32.9063 38.7468 32.8079 38.8734 32.7094C38.6249 32.8969 38.3624 33.0516 38.0765 33.1735C38.2265 33.1126 38.3765 33.0469 38.5265 32.986C38.2359 33.1079 37.9359 33.1922 37.6218 33.2391C37.7859 33.2157 37.9546 33.1922 38.1187 33.1735C37.8562 33.2063 37.5937 33.211 37.3312 33.211C36.3515 33.211 35.4093 34.0735 35.4562 35.086C35.5031 36.1032 36.2812 36.961 37.3312 36.961ZM10.3968 36.961C11.5921 36.961 12.7968 36.7079 13.7812 35.9907C14.9156 35.1657 15.8249 33.9797 16.0781 32.5688C16.2562 31.5657 16.1999 30.5438 16.1999 29.5313C16.1999 27.2157 16.214 24.8954 16.1999 22.5751C16.1952 21.4782 15.8812 20.3298 15.2296 19.4391C14.4093 18.3141 13.2374 17.4094 11.8406 17.1516C11.3015 17.0485 10.7484 16.9969 10.1999 17.0251C9.37494 17.0673 8.65775 17.2688 7.91713 17.6157C6.62338 18.2204 5.70931 19.3922 5.19838 20.6907C4.78588 21.736 4.86556 22.8985 4.86556 24.0001C4.86556 25.3876 4.86556 26.7798 4.86556 28.1672C4.86556 29.2079 4.86556 30.2485 4.86556 31.2891C4.86556 32.2219 5.06713 33.0657 5.46088 33.9047C6.06088 35.1985 7.23744 36.1126 8.53588 36.6235C9.12181 36.8579 9.76869 36.9563 10.3968 36.961C11.3765 36.9704 12.3187 36.0938 12.2718 35.086C12.2249 34.0641 11.4468 33.2204 10.3968 33.211C10.2234 33.211 10.0546 33.1969 9.88119 33.1735C10.0453 33.1969 10.214 33.2204 10.3781 33.2391C10.064 33.1922 9.764 33.1079 9.47338 32.986C9.62338 33.0469 9.77338 33.1126 9.92338 33.1735C9.63744 33.0516 9.37494 32.8969 9.1265 32.7094C9.25306 32.8079 9.37963 32.9063 9.50619 33.0047C9.24838 32.8032 9.01869 32.5735 8.81713 32.3157C8.91556 32.4422 9.014 32.5688 9.11244 32.6954C8.92494 32.4469 8.77025 32.1844 8.64838 31.8985C8.70931 32.0485 8.77494 32.1985 8.83588 32.3485C8.714 32.0579 8.62963 31.7579 8.58275 31.4438C8.60619 31.6079 8.62963 31.7766 8.64838 31.9407C8.59213 31.5235 8.61088 31.0969 8.61088 30.6751C8.61088 29.9485 8.61088 29.2266 8.61088 28.5001C8.61088 26.8313 8.61088 25.1672 8.61088 23.4985C8.61088 23.011 8.58275 22.5141 8.64838 22.0313C8.62494 22.1954 8.6015 22.3641 8.58275 22.5282C8.62963 22.2141 8.714 21.9141 8.83588 21.6235C8.77494 21.7735 8.70931 21.9235 8.64838 22.0735C8.77025 21.7876 8.92494 21.5251 9.11244 21.2766C9.014 21.4032 8.91556 21.5297 8.81713 21.6563C9.01869 21.3985 9.24838 21.1688 9.50619 20.9672C9.37963 21.0657 9.25306 21.1641 9.1265 21.2626C9.37494 21.0751 9.63744 20.9204 9.92338 20.7985C9.77338 20.8594 9.62338 20.9251 9.47338 20.986C9.764 20.8641 10.064 20.7797 10.3781 20.7329C10.214 20.7563 10.0453 20.7798 9.88119 20.7985C10.3078 20.7423 10.7578 20.7423 11.1843 20.7985C11.0203 20.7751 10.8515 20.7516 10.6874 20.7329C11.0015 20.7797 11.3015 20.8641 11.5921 20.986C11.4421 20.9251 11.2921 20.8594 11.1421 20.7985C11.4281 20.9204 11.6906 21.0751 11.939 21.2626C11.8124 21.1641 11.6859 21.0657 11.5593 20.9672C11.8171 21.1688 12.0468 21.3985 12.2484 21.6563C12.1499 21.5297 12.0515 21.4032 11.9531 21.2766C12.1406 21.5251 12.2953 21.7876 12.4171 22.0735C12.3562 21.9235 12.2906 21.7735 12.2296 21.6235C12.3515 21.9141 12.4359 22.2141 12.4827 22.5282C12.4593 22.3641 12.4359 22.1954 12.4171 22.0313C12.4734 22.4485 12.4546 22.8751 12.4546 23.2969C12.4546 24.0235 12.4546 24.7454 12.4546 25.4719C12.4546 27.1407 12.4546 28.8047 12.4546 30.4735C12.4546 30.961 12.4827 31.4579 12.4171 31.9407C12.4406 31.7766 12.464 31.6079 12.4827 31.4438C12.4359 31.7579 12.3515 32.0579 12.2296 32.3485C12.2906 32.1985 12.3562 32.0485 12.4171 31.8985C12.2953 32.1844 12.1406 32.4469 11.9531 32.6954C12.0515 32.5688 12.1499 32.4422 12.2484 32.3157C12.0468 32.5735 11.8171 32.8032 11.5593 33.0047C11.6859 32.9063 11.8124 32.8079 11.939 32.7094C11.6906 32.8969 11.4281 33.0516 11.1421 33.1735C11.2921 33.1126 11.4421 33.0469 11.5921 32.986C11.3015 33.1079 11.0015 33.1922 10.6874 33.2391C10.8515 33.2157 11.0203 33.1922 11.1843 33.1735C10.9218 33.2063 10.6593 33.211 10.3968 33.211C9.41713 33.211 8.47494 34.0735 8.52181 35.086C8.564 36.1032 9.34681 36.961 10.3968 36.961Z" fill="#393D46"/>
<path d="M8.61572 31.2938C8.61572 29.85 8.61572 28.4063 8.61572 26.9625C8.61572 24.961 8.61572 22.9594 8.61572 20.9578C8.61572 19.9922 8.63916 19.0313 8.76572 18.075C8.74229 18.2391 8.71885 18.4078 8.7001 18.5719C8.90635 17.0625 9.30947 15.586 9.9001 14.1797C9.83916 14.3297 9.77354 14.4797 9.7126 14.6297C10.2985 13.2563 11.0532 11.9625 11.9673 10.7813C11.8688 10.9078 11.7704 11.0344 11.672 11.161C12.5813 9.98909 13.636 8.9344 14.8079 8.02502C14.6813 8.12346 14.5548 8.2219 14.4282 8.32034C15.6095 7.41096 16.9032 6.65158 18.2767 6.06565C18.1267 6.12658 17.9767 6.19221 17.8267 6.25315C19.2329 5.66252 20.7095 5.2594 22.2189 5.05315C22.0548 5.07658 21.886 5.10002 21.722 5.11877C23.236 4.9219 24.7689 4.9219 26.2829 5.11877C26.1189 5.09533 25.9501 5.0719 25.786 5.05315C27.2954 5.2594 28.772 5.66252 30.1782 6.25315C30.0282 6.19221 29.8782 6.12658 29.7282 6.06565C31.1017 6.65158 32.3954 7.40627 33.5767 8.32034C33.4501 8.2219 33.3235 8.12346 33.197 8.02502C34.3689 8.9344 35.4235 9.98909 36.3329 11.161C36.2345 11.0344 36.136 10.9078 36.0376 10.7813C36.947 11.9625 37.7064 13.2563 38.2923 14.6297C38.2314 14.4797 38.1657 14.3297 38.1048 14.1797C38.6954 15.586 39.0985 17.0625 39.3048 18.5719C39.2814 18.4078 39.2579 18.2391 39.2392 18.075C39.3704 19.0688 39.3892 20.0625 39.3892 21.061C39.3892 22.1438 39.3892 23.2219 39.3892 24.3047C39.3892 27 39.3892 29.6953 39.3892 32.3907C39.3892 33.2578 39.4267 34.1391 39.3142 35.0016C39.3376 34.8375 39.361 34.6688 39.3798 34.5047C39.2814 35.2172 39.0939 35.911 38.8173 36.5719C38.8782 36.4219 38.9439 36.2719 39.0048 36.1219C38.7235 36.7875 38.3579 37.411 37.9126 37.9875C38.011 37.861 38.1095 37.7344 38.2079 37.6078C37.7767 38.161 37.2845 38.6532 36.7314 39.0844C36.8579 38.986 36.9845 38.8875 37.111 38.7891C36.5392 39.2297 35.911 39.5953 35.2454 39.8813C35.3954 39.8203 35.5454 39.7547 35.6954 39.6938C35.0298 39.9703 34.3407 40.1578 33.6282 40.2563C33.7923 40.2328 33.961 40.2094 34.1251 40.1907C33.3985 40.2844 32.6673 40.2657 31.936 40.2657C31.0267 40.2657 30.1173 40.2657 29.2079 40.2657C28.9782 40.2657 28.7532 40.2657 28.5235 40.2657C27.5439 40.2657 26.6017 41.1282 26.6485 42.1407C26.6954 43.1578 27.4735 44.0157 28.5235 44.0157C29.6767 44.0157 30.8251 44.0157 31.9782 44.0157C32.4142 44.0157 32.8501 44.025 33.286 44.011C34.6407 43.9688 35.9017 43.65 37.1392 43.1203C39.2251 42.225 41.0345 40.5047 42.0376 38.4703C42.6376 37.2516 42.9798 36.0047 43.1064 34.65C43.1392 34.3032 43.1392 33.9563 43.1392 33.6047C43.1392 31.1813 43.1392 28.7578 43.1392 26.3344C43.1392 24.3422 43.1439 22.35 43.1392 20.3578C43.1345 18.1875 42.7735 15.9797 42.0235 13.9406C41.2173 11.7469 40.0642 9.76877 38.5642 7.97815C35.7657 4.64065 31.7064 2.26877 27.4173 1.53283C25.0314 1.12033 22.6501 1.1344 20.2735 1.58908C18.1126 2.00158 15.9939 2.84065 14.1142 3.9844C10.2657 6.33283 7.3501 9.9844 5.87822 14.236C5.19854 16.1953 4.87041 18.3 4.86572 20.3719C4.86572 21.1781 4.86572 21.9797 4.86572 22.786C4.86572 25.4344 4.86572 28.0875 4.86572 30.736C4.86572 30.9235 4.86572 31.1063 4.86572 31.2938C4.86572 32.2735 5.72822 33.2156 6.74072 33.1688C7.75322 33.1219 8.61572 32.3438 8.61572 31.2938Z" fill="#393D46"/>
<path d="M26.6484 42.136C26.6484 42.2672 26.639 42.3985 26.6203 42.525C26.6437 42.361 26.6671 42.1922 26.6859 42.0281C26.6484 42.2578 26.5874 42.4828 26.5031 42.6985C26.564 42.5485 26.6296 42.3985 26.6906 42.2485C26.5921 42.4781 26.4656 42.6891 26.3156 42.8906C26.414 42.7641 26.5124 42.6375 26.6109 42.511C26.4703 42.6891 26.3109 42.8485 26.1328 42.9891C26.2593 42.8906 26.3859 42.7922 26.5124 42.6938C26.3156 42.8438 26.0999 42.9703 25.8703 43.0688C26.0203 43.0078 26.1703 42.9422 26.3203 42.8813C26.1046 42.9703 25.8796 43.0313 25.6499 43.0641C25.814 43.0406 25.9828 43.0172 26.1468 42.9985C25.5328 43.0781 24.8906 43.0266 24.2718 43.0266C23.6437 43.0266 22.9921 43.0781 22.3687 43.0031C22.5328 43.0266 22.7015 43.05 22.8656 43.0688C22.6218 43.0313 22.3921 42.9703 22.1624 42.8766C22.3124 42.9375 22.4624 43.0031 22.6124 43.0641C22.3921 42.9656 22.1906 42.8485 21.9984 42.7031C22.125 42.8016 22.2515 42.9 22.3781 42.9985C22.1906 42.8485 22.0265 42.6844 21.8765 42.4969C21.975 42.6235 22.0734 42.75 22.1718 42.8766C22.0265 42.6844 21.9093 42.4828 21.8109 42.2625C21.8718 42.4125 21.9375 42.5625 21.9984 42.7125C21.9046 42.4875 21.8437 42.2531 21.8062 42.0094C21.8296 42.1735 21.8531 42.3422 21.8718 42.5063C21.839 42.2485 21.839 41.9953 21.8718 41.7422C21.8484 41.9063 21.825 42.075 21.8062 42.2391C21.8437 42.0094 21.9046 41.7844 21.989 41.5688C21.9281 41.7188 21.8625 41.8688 21.8015 42.0188C21.9 41.7891 22.0265 41.5781 22.1765 41.3766C22.0781 41.5031 21.9796 41.6297 21.8812 41.7563C22.0218 41.5781 22.1812 41.4188 22.3593 41.2781C22.2328 41.3766 22.1062 41.475 21.9796 41.5735C22.1765 41.4235 22.3921 41.2969 22.6218 41.1985C22.4718 41.2594 22.3218 41.325 22.1718 41.386C22.3875 41.2969 22.6124 41.236 22.8421 41.2031C22.6781 41.2266 22.5093 41.25 22.3453 41.2688C22.9593 41.1891 23.6015 41.2406 24.2203 41.2406C24.8484 41.2406 25.4999 41.1891 26.1234 41.2641C25.9593 41.2406 25.7906 41.2172 25.6265 41.1985C25.8703 41.236 26.0999 41.2969 26.3296 41.3906C26.1796 41.3297 26.0296 41.2641 25.8796 41.2031C26.0999 41.3016 26.3015 41.4188 26.4937 41.5641C26.3671 41.4656 26.2406 41.3672 26.114 41.2688C26.3015 41.4188 26.4656 41.5828 26.6156 41.7703C26.5171 41.6438 26.4187 41.5172 26.3203 41.3906C26.4656 41.5828 26.5828 41.7844 26.6812 42.0047C26.6203 41.8547 26.5546 41.7047 26.4937 41.5547C26.5874 41.7797 26.6484 42.0141 26.6859 42.2578C26.6624 42.0938 26.639 41.925 26.6203 41.761C26.639 41.8875 26.6437 42.0094 26.6484 42.136C26.6531 42.6188 26.8546 43.1156 27.1968 43.4625C27.5203 43.786 28.0546 44.0344 28.5234 44.011C29.5265 43.9641 30.4124 43.186 30.3984 42.136C30.389 41.2828 30.1593 40.3922 29.6859 39.6703C29.2406 38.9953 28.6359 38.3813 27.9046 38.0203C27.2156 37.6828 26.5124 37.4953 25.7343 37.486C25.5468 37.486 25.364 37.486 25.1765 37.486C24.5062 37.486 23.8312 37.486 23.1609 37.486C23.0203 37.486 22.8749 37.486 22.7343 37.486C21.9468 37.4953 21.1968 37.6922 20.4984 38.0625C19.8234 38.4188 19.2984 38.9672 18.8578 39.5813C18.4031 40.2188 18.2109 40.9735 18.1125 41.7422C18.0093 42.5953 18.225 43.4531 18.5906 44.2219C18.9421 44.9719 19.5375 45.5625 20.2125 46.0313C21.0656 46.6219 22.0875 46.7813 23.0999 46.7813C23.7703 46.7813 24.4359 46.7813 25.1062 46.7813C25.3171 46.7813 25.5328 46.7813 25.7437 46.7813C26.5359 46.7719 27.2859 46.575 27.9843 46.2047C29.4703 45.4172 30.3796 43.7906 30.3984 42.1313C30.4077 41.1516 29.5265 40.2094 28.5234 40.2563C27.4968 40.3078 26.6578 41.086 26.6484 42.136Z" fill="#393D46"/>
</svg>
