<svg width="177" height="45" viewBox="0 0 177 45" fill="none" xmlns="http://www.w3.org/2000/svg">
<path d="M62.0668 24.9796C62.0668 34.1926 68.8113 40.6727 77.6717 40.6727C84.5044 40.6727 90.0587 37.058 92.1305 30.7102H85.0334C83.5787 33.7077 80.9338 35.1624 77.6276 35.1624C72.2497 35.1624 68.4146 31.1951 68.4146 24.9796C68.4146 18.72 72.2497 14.7967 77.6276 14.7967C80.9338 14.7967 83.5787 16.2514 85.0334 19.2049H92.1305C90.0587 12.9012 84.5044 9.2424 77.6717 9.2424C68.8113 9.2424 62.0668 15.7665 62.0668 24.9796Z" fill="black"/>
<path d="M97.4017 40.4082H103.573V7.7877H97.4017V40.4082Z" fill="black"/>
<path d="M120.162 20.6596C123.336 20.6596 125.893 22.6873 125.981 25.9053H114.387C114.872 22.5551 117.209 20.6596 120.162 20.6596ZM131.756 32.7379H125.099C124.306 34.369 122.851 35.6914 120.206 35.6914C117.12 35.6914 114.652 33.6637 114.343 30.049H132.196C132.329 29.2555 132.373 28.462 132.373 27.6685C132.373 20.3951 127.391 15.5902 120.338 15.5902C113.109 15.5902 108.084 20.4832 108.084 28.1975C108.084 35.8677 113.241 40.8049 120.338 40.8049C126.378 40.8049 130.433 37.2343 131.756 32.7379Z" fill="black"/>
<path d="M134.276 15.9869L143.269 40.4082H150.763L159.8 15.9869H153.232L147.06 34.7216L140.889 15.9869H134.276Z" fill="black"/>
<path d="M169.437 28.2416C169.437 23.5249 171.642 22.1143 175.3 22.1143H176.931V15.6342C173.537 15.6342 170.98 17.2653 169.437 19.7779V15.9869H163.266V40.4082H169.437V28.2416Z" fill="black"/>
<path d="M21.3567 38.932C21.3567 38.932 17.5431 35.8476 1.52614 34.3222V41.9493H16.7804C17.6385 40.1814 19.394 39.024 21.3567 38.932Z" fill="#CEF0FF"/>
<path d="M22.8823 38.932C22.8823 38.932 26.6958 35.8476 42.7128 34.3222V41.9493H27.4585C26.6005 40.1814 24.8449 39.024 22.8823 38.932Z" fill="#CEF0FF"/>
<path d="M1.52614 38.1356H11.4414V39.661H1.52614V38.1356Z" fill="#58B1CC"/>
<path d="M32.7963 38.1356H42.7116V39.661H32.7963V38.1356Z" fill="#58B1CC"/>
<path d="M29.746 38.1356H31.2714V39.661H29.746V38.1356Z" fill="#58B1CC"/>
<path d="M21.3558 28.983C21.3558 28.983 31.2711 22.8813 23.644 16.0168C16.0168 9.15242 14.7294 4.57615 16.0168 0.762579C16.0168 0.762579 6.39837 10.3345 15.2541 18.305C22.8812 25.1694 21.3558 28.983 21.3558 28.983Z" fill="#DCD0F7"/>
<path d="M27.4583 15.2541C27.4583 15.2541 21.6541 11.7288 25.9328 8.38971C30.2116 5.05061 30.4685 2.6176 29.7464 0.762579C29.7464 0.762579 36.2403 6.03751 31.2718 9.91514C26.9931 13.2542 27.4583 15.2541 27.4583 15.2541Z" fill="#DCD0F7"/>
<path d="M22.1192 20.5933H23.6446V22.1187H22.1192V20.5933Z" fill="#D9176C"/>
<path d="M19.83 18.3051H21.3554V19.8305H19.83V18.3051Z" fill="#D9176C"/>
<path d="M40.4238 19.8305C39.1602 19.8305 38.1356 18.806 38.1356 17.5424C38.1356 17.1212 37.7941 16.7797 37.3729 16.7797C36.9517 16.7797 36.6102 17.1212 36.6102 17.5424C36.6102 18.806 35.5857 19.8305 34.3221 19.8305C33.9009 19.8305 33.5594 20.172 33.5594 20.5932C33.5594 21.0144 33.9009 21.356 34.3221 21.356C35.5857 21.356 36.6102 22.3805 36.6102 23.6441C36.6102 24.0653 36.9517 24.4068 37.3729 24.4068C37.7941 24.4068 38.1356 24.0653 38.1356 23.6441C38.1356 22.3805 39.1602 21.356 40.4238 21.356C40.845 21.356 41.1865 21.0144 41.1865 20.5932C41.1865 20.172 40.845 19.8305 40.4238 19.8305ZM37.3729 21.3794C37.1506 21.0804 36.8858 20.8156 36.5867 20.5932C36.8858 20.3709 37.1506 20.1061 37.3729 19.8071C37.5953 20.1061 37.86 20.3709 38.1591 20.5932C37.86 20.8156 37.5953 21.0804 37.3729 21.3794Z" fill="#FFA451"/>
<path d="M15.2543 27.4578C13.9906 27.4578 12.9661 26.4333 12.9661 25.1697C12.9661 24.7484 12.6246 24.4069 12.2034 24.4069C11.7822 24.4069 11.4407 24.7484 11.4407 25.1697C11.4407 26.4333 10.4162 27.4578 9.15255 27.4578C8.73135 27.4578 8.38984 27.7993 8.38984 28.2205C8.38984 28.6417 8.73135 28.9832 9.15255 28.9832C10.4162 28.9832 11.4407 30.0077 11.4407 31.2714C11.4407 31.6926 11.7822 32.0341 12.2034 32.0341C12.6246 32.0341 12.9661 31.6926 12.9661 31.2714C12.9661 30.0077 13.9906 28.9832 15.2543 28.9832C15.6755 28.9832 16.017 28.6417 16.017 28.2205C16.017 27.7993 15.6755 27.4578 15.2543 27.4578ZM12.2034 29.0067C11.9811 28.7076 11.7163 28.4428 11.4172 28.2205C11.7163 27.9982 11.9811 27.7334 12.2034 27.4343C12.4257 27.7334 12.6905 27.9982 12.9896 28.2205C12.6905 28.4428 12.4257 28.7076 12.2034 29.0067Z" fill="#FFA451"/>
<path d="M25.1702 3.05085C23.9066 3.05085 22.8821 2.02633 22.8821 0.762713C22.8821 0.341508 22.5406 0 22.1194 0C21.6982 0 21.3567 0.341508 21.3567 0.762713C21.3567 2.02633 20.3321 3.05085 19.0685 3.05085C18.6473 3.05085 18.3058 3.39236 18.3058 3.81357C18.3058 4.23477 18.6473 4.57628 19.0685 4.57628C20.3321 4.57628 21.3567 5.6008 21.3567 6.86442C21.3567 7.28563 21.6982 7.62713 22.1194 7.62713C22.5406 7.62713 22.8821 7.28563 22.8821 6.86442C22.8821 5.6008 23.9066 4.57628 25.1702 4.57628C25.5914 4.57628 25.9329 4.23477 25.9329 3.81357C25.9329 3.39236 25.5914 3.05085 25.1702 3.05085ZM22.1194 4.59974C21.897 4.30069 21.6323 4.0359 21.3332 3.81357C21.6323 3.59123 21.897 3.32644 22.1194 3.02739C22.3417 3.32644 22.6065 3.59123 22.9056 3.81357C22.6065 4.0359 22.3417 4.30069 22.1194 4.59974Z" fill="#FFA451"/>
<path d="M30.509 14.4915H32.0345V16.0169H30.509V14.4915Z" fill="#D9176C"/>
<path d="M30.509 24.4067H32.0345V25.9321H30.509V24.4067Z" fill="#D9176C"/>
<path d="M10.6771 20.5931H12.2025V22.1185H10.6771V20.5931Z" fill="#D9176C"/>
<path d="M18.3058 32.034H19.8312V33.5594H18.3058V32.034Z" fill="#D9176C"/>
<path d="M3.81339 28.2203H5.33881V29.7457H3.81339V28.2203Z" fill="#D9176C"/>
<path d="M28.9834 30.5086C28.9834 31.351 28.3004 32.034 27.458 32.034C26.6156 32.034 25.9326 31.351 25.9326 30.5086C25.9326 29.6662 26.6156 28.9831 27.458 28.9831C28.3004 28.9831 28.9834 29.6662 28.9834 30.5086Z" fill="#87CEE9"/>
<path d="M8.39037 17.5425C8.39037 18.3849 7.70736 19.068 6.86495 19.068C6.02254 19.068 5.33952 18.3849 5.33952 17.5425C5.33952 16.7001 6.02254 16.0171 6.86495 16.0171C7.70736 16.0171 8.39037 16.7001 8.39037 17.5425Z" fill="#87CEE9"/>
<path d="M39.6605 9.91527C39.6605 10.7577 38.9775 11.4407 38.1351 11.4407C37.2927 11.4407 36.6097 10.7577 36.6097 9.91527C36.6097 9.07285 37.2927 8.38984 38.1351 8.38984C38.9775 8.38984 39.6605 9.07285 39.6605 9.91527Z" fill="#87CEE9"/>
<path d="M25.1695 45.0001C25.1695 43.3153 23.8035 41.9492 22.1187 41.9492C20.4339 41.9492 19.0678 43.3153 19.0678 45.0001H0V41.9492H16.7797C17.5424 40.4238 19.0678 38.8984 22.1187 38.8984C25.1695 38.8984 26.695 40.4238 27.4577 41.9492H44.2374V45.0001H25.1695Z" fill="#8D28AD"/>
<path d="M0 41.9492H6.1017V45H0V41.9492Z" fill="#5C067C"/>
<path d="M38.1358 41.9492H44.2375V45H38.1358V41.9492Z" fill="#5C067C"/>
</svg>
