<svg width="50" height="45" viewBox="0 0 50 45" fill="none" xmlns="http://www.w3.org/2000/svg">
<path fill-rule="evenodd" clip-rule="evenodd" d="M44.9053 22.4302H37.2494V16.1647C37.2494 12.709 39.996 9.8993 43.3741 9.8993H44.1397C45.4125 9.8993 46.4365 8.85176 46.4365 7.54974V2.85066C46.4365 1.54864 45.4125 0.501113 44.1397 0.501113H43.3741C34.9143 0.501113 28.0623 7.51054 28.0623 16.1647V39.6602C28.0623 42.2544 30.1199 44.3592 32.6559 44.3592H44.9053C47.4413 44.3592 49.4989 42.2544 49.4989 39.6602V27.1293C49.4989 24.535 47.4413 22.4302 44.9053 22.4302ZM17.3441 22.4302C19.8801 22.4302 21.9376 24.535 21.9376 27.1293V39.6602C21.9376 42.2544 19.8801 44.3592 17.3441 44.3592H5.09466C2.55864 44.3592 0.501113 42.2544 0.501113 39.6602V16.1647C0.501113 7.51054 7.3531 0.501113 15.8129 0.501113H16.5785C17.8513 0.501113 18.8753 1.54864 18.8753 2.85066V7.54974C18.8753 8.85176 17.8513 9.8993 16.5785 9.8993H15.8129C12.4348 9.8993 9.68821 12.709 9.68821 16.1647V22.4302H17.3441Z" fill="white"/>
<path d="M37.2494 22.4302H36.7483V22.9313H37.2494V22.4302ZM9.68821 22.4302H9.1871V22.9313H9.68821V22.4302ZM44.9053 21.9291H37.2494V22.9313H44.9053V21.9291ZM37.7506 22.4302V16.1647H36.7483V22.4302H37.7506ZM37.7506 16.1647C37.7506 12.9749 40.2834 10.4004 43.3741 10.4004V9.39819C39.7086 9.39819 36.7483 12.443 36.7483 16.1647H37.7506ZM43.3741 10.4004H44.1397V9.39819H43.3741V10.4004ZM44.1397 10.4004C45.6999 10.4004 46.9376 9.11772 46.9376 7.54974H45.9354C45.9354 8.5858 45.1251 9.39819 44.1397 9.39819V10.4004ZM46.9376 7.54974V2.85066H45.9354V7.54974H46.9376ZM46.9376 2.85066C46.9376 1.28267 45.6999 0 44.1397 0V1.00223C45.1251 1.00223 45.9354 1.8146 45.9354 2.85066H46.9376ZM44.1397 0H43.3741V1.00223H44.1397V0ZM43.3741 0C34.6269 0 27.5612 7.24458 27.5612 16.1647H28.5635C28.5635 7.77651 35.2018 1.00223 43.3741 1.00223V0ZM27.5612 16.1647V39.6602H28.5635V16.1647H27.5612ZM27.5612 39.6602C27.5612 42.5204 29.8324 44.8604 32.6559 44.8604V43.8581C30.4073 43.8581 28.5635 41.9885 28.5635 39.6602H27.5612ZM32.6559 44.8604H44.9053V43.8581H32.6559V44.8604ZM44.9053 44.8604C47.7288 44.8604 50 42.5204 50 39.6602H48.9977C48.9977 41.9885 47.1539 43.8581 44.9053 43.8581V44.8604ZM50 39.6602V27.1293H48.9977V39.6602H50ZM50 27.1293C50 24.269 47.7288 21.9291 44.9053 21.9291V22.9313C47.1539 22.9313 48.9977 24.8009 48.9977 27.1293H50ZM17.3441 22.9313C19.5927 22.9313 21.4365 24.8009 21.4365 27.1293H22.4387C22.4387 24.269 20.1675 21.9291 17.3441 21.9291V22.9313ZM21.4365 27.1293V39.6602H22.4387V27.1293H21.4365ZM21.4365 39.6602C21.4365 41.9885 19.5927 43.8581 17.3441 43.8581V44.8604C20.1675 44.8604 22.4387 42.5204 22.4387 39.6602H21.4365ZM17.3441 43.8581H5.09466V44.8604H17.3441V43.8581ZM5.09466 43.8581C2.84606 43.8581 1.00223 41.9885 1.00223 39.6602H0C0 42.5204 2.27121 44.8604 5.09466 44.8604V43.8581ZM1.00223 39.6602V16.1647H0V39.6602H1.00223ZM1.00223 16.1647C1.00223 7.77651 7.64053 1.00223 15.8129 1.00223V0C7.06568 0 0 7.24458 0 16.1647H1.00223ZM15.8129 1.00223H16.5785V0H15.8129V1.00223ZM16.5785 1.00223C17.5638 1.00223 18.3742 1.8146 18.3742 2.85066H19.3764C19.3764 1.28267 18.1387 0 16.5785 0V1.00223ZM18.3742 2.85066V7.54974H19.3764V2.85066H18.3742ZM18.3742 7.54974C18.3742 8.5858 17.5638 9.39819 16.5785 9.39819V10.4004C18.1387 10.4004 19.3764 9.11772 19.3764 7.54974H18.3742ZM16.5785 9.39819H15.8129V10.4004H16.5785V9.39819ZM15.8129 9.39819C12.1473 9.39819 9.1871 12.443 9.1871 16.1647H10.1893C10.1893 12.9749 12.7222 10.4004 15.8129 10.4004V9.39819ZM9.1871 16.1647V22.4302H10.1893V16.1647H9.1871ZM9.68821 22.9313H17.3441V21.9291H9.68821V22.9313Z" fill="#AA471B"/>
</svg>
