<svg width="12" height="8" viewBox="0 0 12 8" fill="none" xmlns="http://www.w3.org/2000/svg">
<path d="M5.98581 7.51507C5.65498 7.51548 5.33999 7.37339 5.12135 7.12509L0.216066 1.54934C-0.106384 1.16506 -0.0630863 0.593643 0.313586 0.26234C0.690259 -0.0689638 1.26253 -0.0389714 1.6025 0.329891L5.89182 5.20568C5.91555 5.23275 5.94981 5.24828 5.98581 5.24828C6.02182 5.24828 6.05607 5.23275 6.07981 5.20568L10.3691 0.329891C10.5845 0.0732343 10.922 -0.046642 11.251 0.0166498C11.58 0.0799415 11.8489 0.316472 11.9537 0.634712C12.0584 0.952953 11.9826 1.30298 11.7556 1.54934L6.85177 7.12309C6.63276 7.37199 6.31735 7.51476 5.98581 7.51507Z" fill="black"/>
</svg>
