<svg width="175" height="30" viewBox="0 0 175 30" fill="none" xmlns="http://www.w3.org/2000/svg">
<path d="M0 22.804V0H4.43232V18.9177H16.0591V22.804H0Z" fill="white"/>
<path d="M25.9862 23.1252C24.1448 23.1252 22.5603 22.729 21.2327 21.9368C19.9266 21.1231 18.9202 20.0525 18.2136 18.725C17.507 17.3974 17.1537 15.9628 17.1537 14.4211C17.1537 12.858 17.507 11.4127 18.2136 10.0851C18.9416 8.75759 19.9587 7.69768 21.2648 6.90543C22.5924 6.09177 24.1662 5.68494 25.9862 5.68494C27.8062 5.68494 29.3693 6.09177 30.6755 6.90543C32.003 7.69768 33.0201 8.75759 33.7267 10.0851C34.4333 11.4127 34.7866 12.858 34.7866 14.4211C34.7866 15.9628 34.4333 17.3974 33.7267 18.725C33.0201 20.0525 32.003 21.1231 30.6755 21.9368C29.3693 22.729 27.8062 23.1252 25.9862 23.1252ZM21.586 14.4211C21.586 15.4061 21.7787 16.284 22.1641 17.0548C22.5496 17.8042 23.0742 18.3931 23.7379 18.8213C24.4017 19.2496 25.1511 19.4637 25.9862 19.4637C26.7999 19.4637 27.5386 19.2496 28.2024 18.8213C28.8661 18.3717 29.3907 17.7721 29.7762 17.0227C30.183 16.2519 30.3864 15.374 30.3864 14.389C30.3864 13.4254 30.183 12.569 29.7762 11.8195C29.3907 11.0487 28.8661 10.4492 28.2024 10.0209C27.5386 9.57125 26.7999 9.34642 25.9862 9.34642C25.1511 9.34642 24.4017 9.57125 23.7379 10.0209C23.0742 10.4492 22.5496 11.0487 22.1641 11.8195C21.7787 12.569 21.586 13.4362 21.586 14.4211Z" fill="white"/>
<path d="M44.2758 22.9003C42.777 22.9003 41.4601 22.5149 40.3253 21.7441C39.1904 20.9732 38.3018 19.9455 37.6595 18.6607C37.0171 17.3546 36.6959 15.9307 36.6959 14.389C36.6959 12.7617 37.0278 11.2949 37.6916 9.98879C38.3553 8.66123 39.2761 7.61204 40.4537 6.8412C41.6314 6.07036 42.9911 5.68494 44.5328 5.68494C45.8389 5.68494 46.9845 5.98471 47.9694 6.58425C48.9544 7.16238 49.768 7.94393 50.4104 8.92889V5.974H54.1683V22.001C54.1683 23.6712 53.7614 25.0951 52.9478 26.2728C52.1555 27.4718 51.0528 28.3819 49.6396 29.0028C48.2264 29.6452 46.6205 29.9664 44.8218 29.9664C42.9804 29.9664 41.428 29.6559 40.1647 29.0349C38.9228 28.4354 37.8522 27.5789 36.9528 26.4655L39.2975 24.1851C39.9399 24.9773 40.7428 25.5983 41.7064 26.0479C42.6913 26.4976 43.7298 26.7224 44.8218 26.7224C45.7211 26.7224 46.5455 26.5511 47.2949 26.2085C48.0658 25.8873 48.6867 25.3735 49.1578 24.6669C49.6289 23.9817 49.8644 23.0931 49.8644 22.001V19.8812C49.3077 20.8448 48.5154 21.5942 47.4877 22.1295C46.4813 22.6434 45.4107 22.9003 44.2758 22.9003ZM45.7211 19.4637C46.6633 19.4637 47.5091 19.1853 48.2585 18.6286C49.0293 18.0719 49.5646 17.4081 49.8644 16.6373V12.6225C49.479 11.6375 48.8687 10.8453 48.0337 10.2457C47.22 9.64619 46.3635 9.34642 45.4642 9.34642C44.5863 9.34642 43.8155 9.59266 43.1517 10.0851C42.5093 10.5776 42.0061 11.22 41.6421 12.0122C41.2781 12.7831 41.0961 13.6182 41.0961 14.5175C41.0961 15.4382 41.2995 16.2733 41.7064 17.0227C42.1132 17.7721 42.6592 18.3717 43.3444 18.8213C44.051 19.2496 44.8432 19.4637 45.7211 19.4637Z" fill="white"/>
<path d="M74.2996 18.9177V22.804H58.4653V0H74.0106V3.88631H62.8977V9.37854H72.501V12.9758H62.8977V18.9177H74.2996Z" fill="white"/>
<path d="M80.0998 5.974L83.6328 11.2414L83.8897 11.8195L84.2109 11.2414L87.7118 5.974H92.2405L86.3949 14.3569L92.3368 22.804H87.8081L84.1788 17.5687L83.8897 17.0227L83.6328 17.5687L80.0355 22.804H75.5068L81.4487 14.4532L75.6032 5.974H80.0998Z" fill="white"/>
<path d="M104.486 23.1252C103.158 23.1252 102.002 22.8254 101.017 22.2259C100.032 21.6263 99.261 20.8341 98.7043 19.8491V29.6452H94.4004V5.974H98.1583V8.86465C98.7792 7.87969 99.5822 7.10885 100.567 6.55213C101.574 5.974 102.708 5.68494 103.972 5.68494C105.492 5.68494 106.841 6.08106 108.019 6.87332C109.196 7.64415 110.128 8.69335 110.813 10.0209C111.498 11.3271 111.841 12.7724 111.841 14.3569C111.841 16.0056 111.519 17.4938 110.877 18.8213C110.256 20.1275 109.389 21.1767 108.276 21.9689C107.184 22.7398 105.92 23.1252 104.486 23.1252ZM103.04 19.4637C103.918 19.4637 104.678 19.2282 105.321 18.7571C105.984 18.2646 106.498 17.6329 106.862 16.8621C107.248 16.0699 107.44 15.2348 107.44 14.3569C107.44 13.4147 107.237 12.569 106.83 11.8195C106.423 11.0487 105.867 10.4492 105.16 10.0209C104.475 9.57125 103.683 9.34642 102.783 9.34642C101.97 9.34642 101.156 9.61408 100.342 10.1494C99.5286 10.6847 98.9826 11.3592 98.7043 12.1728V16.1234C99.0897 17.0655 99.6785 17.8578 100.471 18.5001C101.263 19.1425 102.12 19.4637 103.04 19.4637Z" fill="white"/>
<path d="M124.778 9.69972C123.471 9.69972 122.304 9.95667 121.277 10.4706C120.249 10.963 119.51 11.6804 119.061 12.6225V22.804H114.757V5.974H118.707V9.57125C119.285 8.41499 120.035 7.50498 120.955 6.8412C121.898 6.17742 122.883 5.81341 123.91 5.74918C124.36 5.74918 124.649 5.75988 124.778 5.78129V9.69972Z" fill="white"/>
<path d="M134.763 23.1252C132.943 23.1252 131.369 22.729 130.041 21.9368C128.735 21.1445 127.718 20.0953 126.99 18.7892C126.262 17.4616 125.898 16.027 125.898 14.4854C125.898 12.9008 126.251 11.4448 126.958 10.1173C127.686 8.76829 128.714 7.69768 130.041 6.90543C131.369 6.09177 132.953 5.68494 134.795 5.68494C136.636 5.68494 138.21 6.09177 139.516 6.90543C140.822 7.69768 141.818 8.75759 142.503 10.0851C143.21 11.3913 143.563 12.8045 143.563 14.3248C143.563 14.8815 143.531 15.3633 143.467 15.7701H130.459C130.566 17.0762 131.048 18.104 131.904 18.8534C132.782 19.6029 133.788 19.9776 134.923 19.9776C135.78 19.9776 136.583 19.7742 137.332 19.3673C138.103 18.9391 138.627 18.3824 138.906 17.6972L142.599 18.725C141.978 20.0097 140.983 21.0696 139.612 21.9047C138.242 22.7183 136.625 23.1252 134.763 23.1252ZM130.362 13.04H139.163C139.034 11.7767 138.553 10.7596 137.717 9.98879C136.904 9.19654 135.908 8.80041 134.73 8.80041C133.574 8.80041 132.579 9.19654 131.743 9.98879C130.93 10.7596 130.469 11.7767 130.362 13.04Z" fill="white"/>
<path d="M152.384 23.1252C150.949 23.1252 149.579 22.8896 148.273 22.4186C146.966 21.9475 145.842 21.2516 144.9 20.3309L146.442 17.5366C147.448 18.3503 148.433 18.9498 149.397 19.3352C150.36 19.7206 151.302 19.9133 152.223 19.9133C153.058 19.9133 153.722 19.7635 154.214 19.4637C154.728 19.1639 154.985 18.7143 154.985 18.1147C154.985 17.4938 154.675 17.0762 154.054 16.8621C153.433 16.6266 152.566 16.3375 151.452 15.9949C150.21 15.6095 149.172 15.2134 148.337 14.8065C147.502 14.3997 146.87 13.9072 146.442 13.3291C146.035 12.751 145.832 12.0015 145.832 11.0808C145.832 9.43207 146.453 8.11522 147.694 7.13026C148.936 6.1453 150.585 5.65282 152.641 5.65282C153.84 5.65282 154.975 5.84553 156.045 6.23095C157.116 6.59496 158.09 7.1945 158.968 8.02957L157.234 10.7596C155.585 9.4749 153.99 8.83253 152.448 8.83253C151.763 8.83253 151.153 8.961 150.617 9.21795C150.103 9.4749 149.846 9.92455 149.846 10.5669C149.846 11.1665 150.093 11.5947 150.585 11.8517C151.099 12.1086 151.87 12.387 152.898 12.6867C154.225 13.0936 155.349 13.4897 156.27 13.8751C157.212 14.2605 157.919 14.753 158.39 15.3525C158.882 15.9521 159.129 16.7657 159.129 17.7935C159.129 19.4637 158.518 20.7698 157.298 21.712C156.077 22.6541 154.439 23.1252 152.384 23.1252Z" fill="white"/>
<path d="M168.255 23.1252C166.82 23.1252 165.45 22.8896 164.144 22.4186C162.837 21.9475 161.713 21.2516 160.771 20.3309L162.313 17.5366C163.319 18.3503 164.304 18.9498 165.268 19.3352C166.231 19.7206 167.173 19.9133 168.094 19.9133C168.929 19.9133 169.593 19.7635 170.085 19.4637C170.599 19.1639 170.856 18.7143 170.856 18.1147C170.856 17.4938 170.546 17.0762 169.925 16.8621C169.304 16.6266 168.437 16.3375 167.323 15.9949C166.081 15.6095 165.043 15.2134 164.208 14.8065C163.373 14.3997 162.741 13.9072 162.313 13.3291C161.906 12.751 161.703 12.0015 161.703 11.0808C161.703 9.43207 162.324 8.11522 163.565 7.13026C164.807 6.1453 166.456 5.65282 168.512 5.65282C169.711 5.65282 170.846 5.84553 171.916 6.23095C172.987 6.59496 173.961 7.1945 174.839 8.02957L173.105 10.7596C171.456 9.4749 169.861 8.83253 168.319 8.83253C167.634 8.83253 167.023 8.961 166.488 9.21795C165.974 9.4749 165.717 9.92455 165.717 10.5669C165.717 11.1665 165.964 11.5947 166.456 11.8517C166.97 12.1086 167.741 12.387 168.769 12.6867C170.096 13.0936 171.22 13.4897 172.141 13.8751C173.083 14.2605 173.79 14.753 174.261 15.3525C174.753 15.9521 175 16.7657 175 17.7935C175 19.4637 174.389 20.7698 173.169 21.712C171.948 22.6541 170.31 23.1252 168.255 23.1252Z" fill="white"/>
</svg>
