<svg width="16" height="11" viewBox="0 0 16 11" fill="none" xmlns="http://www.w3.org/2000/svg">
<path fill-rule="evenodd" clip-rule="evenodd" d="M14.0714 2.63388L8.35714 7.04975C8.25257 7.1302 8.12629 7.17043 8 7.17043C7.87314 7.17043 7.74686 7.1302 7.64229 7.04975L1.928 2.63388C1.68171 2.44378 1.64229 2.09663 1.83943 1.85914C2.03714 1.6222 2.39714 1.58418 2.64286 1.77373L8 5.91355L13.3566 1.77373C13.6029 1.58363 13.9623 1.62165 14.16 1.85914C14.3571 2.09663 14.3177 2.44378 14.0714 2.63388M14.8571 0H1.14286C0.511429 0 0 0.493163 0 1.10204V9.36735C0 9.97567 0.511429 10.4694 1.14286 10.4694H14.8571C15.488 10.4694 16 9.97567 16 9.36735V1.10204C16 0.493163 15.488 0 14.8571 0" fill="#F25146"/>
</svg>
