<svg width="270" height="270" viewBox="0 0 270 270" fill="none" xmlns="http://www.w3.org/2000/svg">
<rect width="270" height="270" rx="135" fill="#FEFEFE"/>
<g clip-path="url(#clip0_12_6119)">
<path d="M189.925 132.638L169.283 101.675C168.427 100.39 167.267 99.3376 165.906 98.6093C164.546 97.8811 163.026 97.5 161.483 97.5H109.017C107.474 97.5 105.955 97.881 104.594 98.6093C103.233 99.3375 102.073 100.39 101.217 101.675L80.5746 132.638C79.5479 134.178 79 135.988 79 137.838V163.125C79 168.303 83.1973 172.5 88.375 172.5H182.125C187.303 172.5 191.5 168.303 191.5 163.125V137.838C191.5 135.988 190.952 134.178 189.925 132.638V132.638ZM110.69 110H159.81L176.477 135H152.438L146.188 147.5H124.312L118.062 135H94.023L110.69 110Z" fill="#00272B"/>
</g>
<defs>
<clipPath id="clip0_12_6119">
<rect width="112.5" height="100" fill="white" transform="translate(79 85)"/>
</clipPath>
</defs>
</svg>
