<svg width="28" height="28" viewBox="0 0 28 28" fill="none" xmlns="http://www.w3.org/2000/svg">
<path d="M10.4512 25.668C11.0593 27.0355 12.4078 27.9998 13.9993 27.9998C15.5908 27.9998 16.9393 27.0355 17.5475 25.668C16.4252 25.7229 15.2582 25.7598 13.9993 25.7598C12.7405 25.7598 11.5734 25.7228 10.4512 25.668Z" fill="#737B8B"/>
<path d="M26.3522 19.74C24.876 17.8785 22.3986 14.2195 22.3986 10.64C22.3986 7.09073 20.1183 3.89758 16.7986 2.72382C16.7583 1.21406 15.5174 0 13.9997 0C12.481 0 11.2412 1.21406 11.2008 2.72382C7.88003 3.89758 5.59972 7.09073 5.59972 10.64C5.59972 14.2207 3.12342 17.8785 1.64615 19.74C1.15336 20.3616 1.001 21.1825 1.2396 21.9363C1.47257 22.6721 2.05269 23.2422 2.7919 23.4595C4.08663 23.8415 6.209 24.2715 9.44584 24.491C10.8469 24.5851 12.3534 24.64 13.9998 24.64C15.6451 24.64 17.1515 24.5851 18.5526 24.491C21.7905 24.2715 23.9118 23.8415 25.2076 23.4595C25.9468 23.2422 26.5258 22.6722 26.7588 21.9363C26.9974 21.1825 26.8439 20.3616 26.3522 19.74Z" fill="#737B8B"/>
</svg>
