<svg width="160" height="25" viewBox="0 0 160 25" fill="none" xmlns="http://www.w3.org/2000/svg">
<path d="M24.3708 12.1854C24.3708 5.45394 18.9168 0 12.1854 0C5.45394 0 0 5.45394 0 12.1854C0 18.2781 4.42212 23.3389 10.2691 24.2234V15.7231H7.17365V12.1854H10.2691V9.53212C10.2691 6.48577 12.0871 4.76606 14.8387 4.76606C16.2144 4.76606 17.5902 5.01173 17.5902 5.01173V8.00894H16.067C14.5438 8.00894 14.0525 8.9425 14.0525 9.92519V12.1854H17.4428L16.9023 15.7231H14.0525V24.2234C19.8995 23.3389 24.3708 18.2781 24.3708 12.1854Z" fill="#03C4A1"/>
<path d="M67.4422 7.07538C68.4249 6.33837 69.3093 5.45394 69.9972 4.42212C69.1128 4.81519 68.0809 5.11 67.0491 5.20827C68.1301 4.56952 68.9162 3.58683 69.3093 2.35846C68.3266 2.94808 67.1965 3.39029 66.0664 3.63596C65.0837 2.60413 63.7571 2.01452 62.283 2.01452C59.4332 2.01452 57.1239 4.32385 57.1239 7.17365C57.1239 7.56673 57.173 7.95981 57.2713 8.35288C52.9966 8.10721 49.1641 6.04356 46.6091 2.94808C46.1669 3.6851 45.9212 4.56952 45.9212 5.55221C45.9212 7.32106 46.8056 8.89337 48.2305 9.82692C47.3953 9.77779 46.56 9.58125 45.8721 9.18817V9.23731C45.8721 11.7432 47.6409 13.8068 49.9994 14.2982C49.6063 14.3964 49.115 14.4947 48.6728 14.4947C48.3288 14.4947 48.034 14.4456 47.6901 14.3964C48.3288 16.4601 50.2451 17.9341 52.5053 17.9833C50.7364 19.359 48.5253 20.1943 46.1178 20.1943C45.6755 20.1943 45.2825 20.1452 44.8894 20.0961C47.1496 21.5701 49.852 22.4054 52.8001 22.4054C62.283 22.4054 67.4422 14.593 67.4422 7.76327C67.4422 7.5176 67.4422 7.32106 67.4422 7.07538Z" fill="#03C4A1"/>
<path d="M101.178 6.5349C98.0334 6.5349 95.5275 9.0899 95.5275 12.1854C95.5275 15.33 98.0334 17.8359 101.178 17.8359C104.273 17.8359 106.828 15.33 106.828 12.1854C106.828 9.0899 104.273 6.5349 101.178 6.5349ZM101.178 15.8705C99.1635 15.8705 97.4929 14.249 97.4929 12.1854C97.4929 10.1709 99.1143 8.54942 101.178 8.54942C103.193 8.54942 104.814 10.1709 104.814 12.1854C104.814 14.249 103.193 15.8705 101.178 15.8705ZM108.352 6.33837C108.352 5.60135 107.762 5.01173 107.025 5.01173C106.288 5.01173 105.698 5.60135 105.698 6.33837C105.698 7.07538 106.288 7.665 107.025 7.665C107.762 7.665 108.352 7.07538 108.352 6.33837ZM112.086 7.665C111.988 5.89615 111.595 4.32385 110.317 3.04635C109.04 1.76885 107.467 1.37577 105.698 1.2775C103.88 1.17923 98.4265 1.17923 96.6085 1.2775C94.8396 1.37577 93.3165 1.76885 91.9898 3.04635C90.7123 4.32385 90.3193 5.89615 90.221 7.665C90.1227 9.48298 90.1227 14.9369 90.221 16.7549C90.3193 18.5238 90.7123 20.0469 91.9898 21.3736C93.3165 22.6511 94.8396 23.0441 96.6085 23.1424C98.4265 23.2407 103.88 23.2407 105.698 23.1424C107.467 23.0441 109.04 22.6511 110.317 21.3736C111.595 20.0469 111.988 18.5238 112.086 16.7549C112.184 14.9369 112.184 9.48298 112.086 7.665ZM109.727 18.6712C109.383 19.6538 108.597 20.3909 107.664 20.7839C106.19 21.3736 102.75 21.2262 101.178 21.2262C99.5566 21.2262 96.1171 21.3736 94.6922 20.7839C93.7095 20.3909 92.9725 19.6538 92.5794 18.6712C91.9898 17.2463 92.1372 13.8068 92.1372 12.1854C92.1372 10.6131 91.9898 7.17365 92.5794 5.69962C92.9725 4.76606 93.7095 4.02904 94.6922 3.63596C96.1171 3.04635 99.5566 3.19375 101.178 3.19375C102.75 3.19375 106.19 3.04635 107.664 3.63596C108.597 3.9799 109.334 4.76606 109.727 5.69962C110.317 7.17365 110.17 10.6131 110.17 12.1854C110.17 13.8068 110.317 17.2463 109.727 18.6712Z" fill="#03C4A1"/>
<path d="M159.41 5.74875C159.116 4.56952 158.182 3.63596 157.052 3.34115C154.939 2.75154 146.586 2.75154 146.586 2.75154C146.586 2.75154 138.184 2.75154 136.071 3.34115C134.941 3.63596 134.008 4.56952 133.713 5.74875C133.123 7.8124 133.123 12.2345 133.123 12.2345C133.123 12.2345 133.123 16.6075 133.713 18.7203C134.008 19.8995 134.941 20.7839 136.071 21.0788C138.184 21.6192 146.586 21.6192 146.586 21.6192C146.586 21.6192 154.939 21.6192 157.052 21.0788C158.182 20.7839 159.116 19.8995 159.41 18.7203C160 16.6075 160 12.2345 160 12.2345C160 12.2345 160 7.8124 159.41 5.74875ZM143.835 16.2144V8.25462L150.812 12.2345L143.835 16.2144Z" fill="#03C4A1"/>
</svg>
