<svg width="120" height="120" viewBox="0 0 120 120" fill="none" xmlns="http://www.w3.org/2000/svg">
<circle cx="60" cy="60" r="59" stroke="#9F9F9F" stroke-width="2"/>
<path d="M40.8688 29.5811C40.475 31.3436 40.0875 33.1061 39.6938 34.8686C39.0563 37.7498 38.4188 40.6248 37.7813 43.5061C37.625 44.2186 37.4625 44.9311 37.3063 45.6436C36.8625 47.6623 36.6438 49.7498 36.7625 51.8186C37.0688 57.0436 39.1625 62.0186 42.725 65.8686C44.4688 67.7498 46.5938 69.3561 48.8875 70.5061C51.5188 71.8248 54.3063 72.5998 57.2313 72.8623C62.5438 73.3373 68.1 71.7311 72.3313 68.4873C74.5 66.8248 76.35 64.8811 77.8188 62.5686C79.15 60.4811 80.1438 58.1123 80.6875 55.6998C81.2438 53.2373 81.4188 50.6686 81.1063 48.1561C80.9625 47.0373 80.7563 45.9436 80.5125 44.8498C79.9375 42.2561 79.3625 39.6623 78.7875 37.0686C78.2625 34.6998 77.7375 32.3373 77.2125 29.9686C77.1813 29.8373 77.1563 29.7061 77.125 29.5748C77.0063 29.0498 76.6375 28.5936 76.2313 28.2748C75.7938 27.9373 75.2813 27.7373 74.7188 27.7373C73.675 27.7373 72.6313 27.7373 71.5875 27.7373C69.0813 27.7373 66.575 27.7373 64.0688 27.7373C61.05 27.7373 58.0313 27.7373 55.0063 27.7373C52.3875 27.7373 49.7688 27.7373 47.1438 27.7373C45.875 27.7373 44.6 27.7186 43.325 27.7373C43.3063 27.7373 43.2875 27.7373 43.275 27.7373C41.9688 27.7373 40.7125 28.8873 40.775 30.2373C40.8375 31.5936 41.875 32.7373 43.275 32.7373C44.3188 32.7373 45.3625 32.7373 46.4063 32.7373C48.9125 32.7373 51.4188 32.7373 53.925 32.7373C56.9438 32.7373 59.9625 32.7373 62.9875 32.7373C65.6063 32.7373 68.225 32.7373 70.85 32.7373C72.1188 32.7373 73.3938 32.7623 74.6688 32.7373C74.6875 32.7373 74.7063 32.7373 74.7188 32.7373C73.9125 32.1248 73.1125 31.5123 72.3063 30.8998C72.7375 32.8561 73.175 34.8123 73.6063 36.7748C74.2625 39.7186 74.9125 42.6686 75.5688 45.6123C75.8 46.6436 76.0438 47.6748 76.1813 48.7248C76.15 48.5061 76.1188 48.2811 76.0938 48.0623C76.325 49.8123 76.3188 51.5748 76.0875 53.3248C76.1188 53.1061 76.15 52.8811 76.175 52.6623C75.9375 54.3811 75.4813 56.0623 74.8125 57.6623C74.8938 57.4623 74.9813 57.2623 75.0625 57.0623C74.4 58.6311 73.5375 60.1123 72.5 61.4686C72.6313 61.2998 72.7625 61.1311 72.8938 60.9623C71.85 62.3123 70.6438 63.5186 69.3 64.5561C69.4688 64.4248 69.6375 64.2936 69.8063 64.1623C68.4625 65.1936 67 66.0436 65.45 66.7061C65.65 66.6248 65.85 66.5373 66.05 66.4561C64.4313 67.1373 62.7313 67.6061 60.9875 67.8436C61.2063 67.8123 61.4313 67.7811 61.65 67.7561C59.8875 67.9873 58.1063 67.9873 56.35 67.7561C56.5688 67.7873 56.7938 67.8186 57.0125 67.8436C55.2688 67.6061 53.5688 67.1373 51.95 66.4561C52.15 66.5373 52.35 66.6248 52.55 66.7061C50.9938 66.0436 49.5313 65.1873 48.1938 64.1623C48.3625 64.2936 48.5313 64.4248 48.7 64.5561C47.3563 63.5123 46.1438 62.3061 45.1063 60.9623C45.2375 61.1311 45.3688 61.2998 45.5 61.4686C44.4625 60.1123 43.6063 58.6373 42.9375 57.0623C43.0188 57.2623 43.1063 57.4623 43.1875 57.6623C42.5188 56.0623 42.0625 54.3811 41.825 52.6623C41.8563 52.8811 41.8875 53.1061 41.9125 53.3248C41.6813 51.5748 41.675 49.8123 41.9063 48.0623C41.875 48.2811 41.8438 48.5061 41.8188 48.7248C41.9438 47.7936 42.1563 46.8748 42.3563 45.9561C42.6313 44.7061 42.9063 43.4623 43.1875 42.2123C43.8625 39.1623 44.5438 36.1061 45.2188 33.0561C45.3813 32.3373 45.5375 31.6186 45.7 30.8998C45.8438 30.2436 45.7938 29.5623 45.45 28.9748C45.1438 28.4561 44.55 27.9623 43.9563 27.8248C43.3188 27.6811 42.6 27.7123 42.0313 28.0748C41.4875 28.4311 41.0125 28.9436 40.8688 29.5811Z" fill="#393D46"/>
<path d="M56.5 70.4688C56.5 72.4188 56.5 74.3688 56.5 76.3125C56.5 79.4188 56.5 82.5188 56.5 85.625C56.5 86.3375 56.5 87.0438 56.5 87.7563C56.5 89.0625 57.65 90.3188 59 90.2563C60.3563 90.1938 61.5 89.1563 61.5 87.7563C61.5 85.8063 61.5 83.8563 61.5 81.9125C61.5 78.8063 61.5 75.7063 61.5 72.6C61.5 71.8875 61.5 71.1813 61.5 70.4688C61.5 69.1625 60.35 67.9063 59 67.9688C57.6437 68.0313 56.5 69.0688 56.5 70.4688Z" fill="#393D46"/>
<path d="M47.3437 90.2561C48.1187 90.2561 48.8937 90.2561 49.6687 90.2561C51.5187 90.2561 53.3687 90.2561 55.2187 90.2561C57.4687 90.2561 59.7187 90.2561 61.9625 90.2561C63.9 90.2561 65.8375 90.2561 67.7687 90.2561C68.7125 90.2561 69.6625 90.2748 70.6062 90.2561C70.6187 90.2561 70.6312 90.2561 70.6437 90.2561C71.95 90.2561 73.2062 89.1061 73.1437 87.7561C73.0812 86.3998 72.0437 85.2561 70.6437 85.2561C69.8687 85.2561 69.0937 85.2561 68.3187 85.2561C66.4687 85.2561 64.6187 85.2561 62.7687 85.2561C60.5187 85.2561 58.2687 85.2561 56.025 85.2561C54.0875 85.2561 52.15 85.2561 50.2187 85.2561C49.275 85.2561 48.325 85.2373 47.3812 85.2561C47.3687 85.2561 47.3562 85.2561 47.3437 85.2561C46.0375 85.2561 44.7812 86.4061 44.8437 87.7561C44.9062 89.1123 45.9437 90.2561 47.3437 90.2561ZM62.8625 52.6373C62.3937 51.3061 61.925 49.9686 61.4562 48.6373C60.7125 46.5123 59.9687 44.3873 59.2187 42.2623C59.05 41.7748 58.875 41.2936 58.7062 40.8061C57.6812 41.8311 56.6562 42.8561 55.6312 43.8811C57.2062 44.1061 58.775 44.3248 60.35 44.5498C60.575 44.5811 60.8 44.6123 61.025 44.6436C61.4687 44.7623 61.9125 44.7623 62.3562 44.6436C62.7812 44.5248 63.15 44.3123 63.4625 43.9998C64.125 43.3373 64.2875 42.4561 64.1062 41.5686C63.825 40.2248 63.55 38.8748 63.2687 37.5311C62.8187 35.3748 62.375 33.2186 61.925 31.0623C61.825 30.5686 61.7187 30.0748 61.6187 29.5873C61.4937 28.9936 60.9812 28.3936 60.4687 28.0936C59.9312 27.7811 59.1437 27.6498 58.5437 27.8436C57.9375 28.0373 57.3562 28.4123 57.05 28.9936C56.725 29.6123 56.6562 30.2311 56.8 30.9186C57.0812 32.2623 57.3562 33.6123 57.6375 34.9561C58.0875 37.1123 58.5312 39.2686 58.9812 41.4248C59.0812 41.9186 59.1875 42.4123 59.2875 42.8998C60.3125 41.8748 61.3375 40.8498 62.3625 39.8248C60.7875 39.5998 59.2187 39.3811 57.6437 39.1561C57.4187 39.1248 57.1937 39.0936 56.9687 39.0623C56.525 38.9436 56.0812 38.9436 55.6375 39.0623C55.2125 39.1811 54.8437 39.3936 54.5312 39.7061C53.9312 40.3061 53.6 41.3123 53.8875 42.1373C54.3562 43.4686 54.825 44.8061 55.2937 46.1373C56.0375 48.2623 56.7812 50.3873 57.5312 52.5123C57.7 52.9998 57.875 53.4811 58.0437 53.9686C58.2625 54.5873 58.6125 55.1248 59.1937 55.4623C59.7312 55.7748 60.5187 55.9061 61.1187 55.7123C61.725 55.5186 62.3062 55.1436 62.6125 54.5623C62.9125 53.9936 63.0875 53.2686 62.8625 52.6373Z" fill="#393D46"/>
</svg>
