<svg width="28" height="28" viewBox="0 0 28 28" fill="none" xmlns="http://www.w3.org/2000/svg">
<path d="M26.1804 15.2074C26.1147 15.3672 26.0033 15.504 25.86 15.6006C25.7167 15.6971 25.5481 15.7491 25.3754 15.7499H22.7504V24.4999C22.7504 25.1961 22.4738 25.8638 21.9815 26.3561C21.4892 26.8484 20.8216 27.1249 20.1254 27.1249H16.6254C16.3933 27.1249 16.1707 27.0328 16.0066 26.8687C15.8426 26.7046 15.7504 26.482 15.7504 26.2499V20.9999C15.7504 20.7679 15.6582 20.5453 15.4941 20.3812C15.33 20.2171 15.1074 20.1249 14.8754 20.1249H13.1254C12.8933 20.1249 12.6707 20.2171 12.5066 20.3812C12.3426 20.5453 12.2504 20.7679 12.2504 20.9999V26.2499C12.2504 26.482 12.1582 26.7046 11.9941 26.8687C11.83 27.0328 11.6074 27.1249 11.3754 27.1249H7.87537C7.17917 27.1249 6.51149 26.8484 6.01921 26.3561C5.52693 25.8638 5.25037 25.1961 5.25037 24.4999V15.7499H2.62537C2.45262 15.7491 2.28399 15.6971 2.14074 15.6006C1.99748 15.504 1.88601 15.3672 1.82037 15.2074C1.75336 15.0481 1.73505 14.8725 1.76775 14.7027C1.80046 14.533 1.8827 14.3767 2.00412 14.2537L13.3791 2.8787C13.4605 2.79668 13.5572 2.73159 13.6639 2.68717C13.7705 2.64274 13.8849 2.61987 14.0004 2.61987C14.1159 2.61987 14.2302 2.64274 14.3369 2.68717C14.4435 2.73159 14.5403 2.79668 14.6216 2.8787L25.9966 14.2537C26.118 14.3767 26.2003 14.533 26.233 14.7027C26.2657 14.8725 26.2474 15.0481 26.1804 15.2074Z" fill="#96A0AF"/>
</svg>
