<svg width="137" height="14" viewBox="0 0 137 14" fill="none" xmlns="http://www.w3.org/2000/svg">
<g clip-path="url(#clip0_0_1497)">
<path d="M13.7812 7.75C13.7812 4.00391 10.7461 0.96875 7 0.96875C3.25391 0.96875 0.21875 4.00391 0.21875 7.75C0.21875 11.1406 2.67969 13.957 5.93359 14.4492V9.71875H4.21094V7.75H5.93359V6.27344C5.93359 4.57812 6.94531 3.62109 8.47656 3.62109C9.24219 3.62109 10.0078 3.75781 10.0078 3.75781V5.42578H9.16016C8.3125 5.42578 8.03906 5.94531 8.03906 6.49219V7.75H9.92578L9.625 9.71875H8.03906V14.4492C11.293 13.957 13.7812 11.1406 13.7812 7.75Z" fill="#F2F2F2"/>
<path d="M47.125 4.60547C45.375 4.60547 43.9805 6.02734 43.9805 7.75C43.9805 9.5 45.375 10.8945 47.125 10.8945C48.8477 10.8945 50.2695 9.5 50.2695 7.75C50.2695 6.02734 48.8477 4.60547 47.125 4.60547ZM47.125 9.80078C46.0039 9.80078 45.0742 8.89844 45.0742 7.75C45.0742 6.62891 45.9766 5.72656 47.125 5.72656C48.2461 5.72656 49.1484 6.62891 49.1484 7.75C49.1484 8.89844 48.2461 9.80078 47.125 9.80078ZM51.1172 4.49609C51.1172 4.08594 50.7891 3.75781 50.3789 3.75781C49.9688 3.75781 49.6406 4.08594 49.6406 4.49609C49.6406 4.90625 49.9688 5.23438 50.3789 5.23438C50.7891 5.23438 51.1172 4.90625 51.1172 4.49609ZM53.1953 5.23438C53.1406 4.25 52.9219 3.375 52.2109 2.66406C51.5 1.95312 50.625 1.73438 49.6406 1.67969C48.6289 1.625 45.5938 1.625 44.582 1.67969C43.5977 1.73438 42.75 1.95312 42.0117 2.66406C41.3008 3.375 41.082 4.25 41.0273 5.23438C40.9727 6.24609 40.9727 9.28125 41.0273 10.293C41.082 11.2773 41.3008 12.125 42.0117 12.8633C42.75 13.5742 43.5977 13.793 44.582 13.8477C45.5938 13.9023 48.6289 13.9023 49.6406 13.8477C50.625 13.793 51.5 13.5742 52.2109 12.8633C52.9219 12.125 53.1406 11.2773 53.1953 10.293C53.25 9.28125 53.25 6.24609 53.1953 5.23438ZM51.8828 11.3594C51.6914 11.9062 51.2539 12.3164 50.7344 12.5352C49.9141 12.8633 48 12.7812 47.125 12.7812C46.2227 12.7812 44.3086 12.8633 43.5156 12.5352C42.9688 12.3164 42.5586 11.9062 42.3398 11.3594C42.0117 10.5664 42.0938 8.65234 42.0938 7.75C42.0938 6.875 42.0117 4.96094 42.3398 4.14062C42.5586 3.62109 42.9688 3.21094 43.5156 2.99219C44.3086 2.66406 46.2227 2.74609 47.125 2.74609C48 2.74609 49.9141 2.66406 50.7344 2.99219C51.2539 3.18359 51.6641 3.62109 51.8828 4.14062C52.2109 4.96094 52.1289 6.875 52.1289 7.75C52.1289 8.65234 52.2109 10.5664 51.8828 11.3594Z" fill="#F2F2F2"/>
<path d="M92.5508 4.90625C93.0977 4.49609 93.5898 4.00391 93.9727 3.42969C93.4805 3.64844 92.9062 3.8125 92.332 3.86719C92.9336 3.51172 93.3711 2.96484 93.5898 2.28125C93.043 2.60938 92.4141 2.85547 91.7852 2.99219C91.2383 2.41797 90.5 2.08984 89.6797 2.08984C88.0938 2.08984 86.8086 3.375 86.8086 4.96094C86.8086 5.17969 86.8359 5.39844 86.8906 5.61719C84.5117 5.48047 82.3789 4.33203 80.957 2.60938C80.7109 3.01953 80.5742 3.51172 80.5742 4.05859C80.5742 5.04297 81.0664 5.91797 81.8594 6.4375C81.3945 6.41016 80.9297 6.30078 80.5469 6.08203V6.10938C80.5469 7.50391 81.5312 8.65234 82.8438 8.92578C82.625 8.98047 82.3516 9.03516 82.1055 9.03516C81.9141 9.03516 81.75 9.00781 81.5586 8.98047C81.9141 10.1289 82.9805 10.9492 84.2383 10.9766C83.2539 11.7422 82.0234 12.207 80.6836 12.207C80.4375 12.207 80.2188 12.1797 80 12.1523C81.2578 12.9727 82.7617 13.4375 84.4023 13.4375C89.6797 13.4375 92.5508 9.08984 92.5508 5.28906C92.5508 5.15234 92.5508 5.04297 92.5508 4.90625Z" fill="#F2F2F2"/>
<path d="M136.012 4.16797C135.848 3.51172 135.328 2.99219 134.699 2.82812C133.523 2.5 128.875 2.5 128.875 2.5C128.875 2.5 124.199 2.5 123.023 2.82812C122.395 2.99219 121.875 3.51172 121.711 4.16797C121.383 5.31641 121.383 7.77734 121.383 7.77734C121.383 7.77734 121.383 10.2109 121.711 11.3867C121.875 12.043 122.395 12.5352 123.023 12.6992C124.199 13 128.875 13 128.875 13C128.875 13 133.523 13 134.699 12.6992C135.328 12.5352 135.848 12.043 136.012 11.3867C136.34 10.2109 136.34 7.77734 136.34 7.77734C136.34 7.77734 136.34 5.31641 136.012 4.16797ZM127.344 9.99219V5.5625L131.227 7.77734L127.344 9.99219Z" fill="#F2F2F2"/>
</g>
<defs>
<clipPath id="clip0_0_1497">
<rect width="137" height="14" fill="white"/>
</clipPath>
</defs>
</svg>
