<svg width="17" height="286" viewBox="0 0 17 286" fill="none" xmlns="http://www.w3.org/2000/svg">
<path fill-rule="evenodd" clip-rule="evenodd" d="M7.86076 0H1.83976C1.1019 0 0.50187 0.649719 0.50187 1.44958V11.5958C0.50187 12.3949 1.1019 13.0455 1.83976 13.0455H7.86076V7.67186L8.92178 6.52258L7.86076 5.37341V0ZM3.17777 2.89887H5.85379C6.2237 2.89887 6.52275 3.22358 6.52275 3.62313C6.52275 4.02394 6.2237 4.34836 5.85379 4.34836H3.17777C2.80787 4.34836 2.50882 4.02394 2.50882 3.62352C2.50882 3.22358 2.80787 2.89887 3.17777 2.89887ZM5.85379 10.1463H3.17777C2.80787 10.1463 2.50882 9.82196 2.50882 9.42175C2.50882 9.02133 2.80787 8.6971 3.17777 8.6971H5.85379C6.2237 8.6971 6.52275 9.02133 6.52275 9.42175C6.52275 9.82196 6.2237 10.1463 5.85379 10.1463ZM6.52275 7.24752H3.84684C3.47682 7.24752 3.17777 6.92281 3.17777 6.52258C3.17777 6.12266 3.47682 5.79804 3.84684 5.79804H6.52275C6.89277 5.79804 7.19182 6.12266 7.19182 6.52258C7.19182 6.92281 6.89277 7.24752 6.52275 7.24752ZM15.2198 0H9.19877V4.77269L10.8138 6.52258L9.19877 8.27181V13.0455H15.2198C15.9576 13.0455 16.5578 12.3949 16.5578 11.5958V1.44958C16.5578 0.649719 15.9576 0 15.2198 0ZM10.5368 4.34836C10.1668 4.34836 9.86784 4.02394 9.86784 3.62352C9.86784 3.22358 10.1668 2.89887 10.5368 2.89887H13.2127C13.5827 2.89887 13.8817 3.22358 13.8817 3.62352C13.8817 4.02394 13.5827 4.34836 13.2127 4.34836H10.5368ZM13.2127 10.1463H10.5368C10.1668 10.1463 9.86784 9.82196 9.86784 9.42175C9.86784 9.02133 10.1668 8.6971 10.5368 8.6971H13.2127C13.5827 8.6971 13.8817 9.02133 13.8817 9.42175C13.8817 9.82196 13.5827 10.1463 13.2127 10.1463ZM13.8817 7.24752H11.8748C11.5048 7.24752 11.2057 6.92281 11.2057 6.52258C11.2057 6.12266 11.5048 5.79804 11.8748 5.79804H13.8817C14.2517 5.79804 14.5507 6.12266 14.5507 6.52258C14.5507 6.92281 14.2517 7.24752 13.8817 7.24752Z" fill="#7F63F4"/>
<path fill-rule="evenodd" clip-rule="evenodd" d="M12.5437 57.6005C11.1384 57.6005 10.035 58.4036 9.935 58.5035L11.1384 60.1094C11.1384 60.1094 11.8411 59.6075 12.5437 59.6075C13.949 59.6075 14.049 60.8115 14.049 61.2134C13.6472 61.1129 12.9456 60.9119 12.042 61.1129C10.6367 61.4136 9.2324 63.1201 9.935 65.0261C10.6367 66.8324 13.0455 67.1343 14.049 65.629V66.6325H16.056V61.3127C16.056 58.6033 14.149 57.6005 12.5437 57.6005ZM11.5403 64.1235C11.4403 62.2168 13.0455 62.2168 14.049 62.3169V63.3199C14.049 64.5245 11.7411 65.629 11.5403 64.1235ZM6.9241 66.7326H9.03155L5.82014 54.6901H3.11103L0 66.7326H2.10745L3.11103 62.7189H5.82014L6.9241 66.7326ZM3.61278 60.7117L4.41529 57.4999L5.31839 60.7117H3.61278Z" fill="#AAAAAA"/>
<path fill-rule="evenodd" clip-rule="evenodd" d="M11.6124 112.545H7.8007L6.79664 111.633H5.08574C4.95482 111.633 4.84837 111.74 4.84837 111.871V117.699C4.84837 117.83 4.95482 117.936 5.08574 117.936H5.26604L6.21268 113.064H11.8494V112.782C11.8494 112.651 11.743 112.545 11.6124 112.545ZM8.52959 106.371C4.09605 106.371 0.50187 109.965 0.50187 114.398C0.50187 118.832 4.09605 122.427 8.52959 122.427C12.9631 122.427 16.5578 118.832 16.5578 114.398C16.5578 109.965 12.9631 106.371 8.52959 106.371ZM12.6637 117.756C12.6347 118.308 12.1849 118.751 11.6285 118.767C11.6231 118.768 11.6179 118.769 11.6124 118.769H11.1183H5.08552C4.49557 118.769 4.01565 118.289 4.01565 117.699V111.871C4.01565 111.281 4.49569 110.801 5.08586 110.801H7.11832L8.12226 111.712H11.6124C12.2023 111.712 12.6822 112.192 12.6822 112.783V113.064L13.6405 113.065L12.6637 117.756Z" fill="#AAAAAA"/>
<path fill-rule="evenodd" clip-rule="evenodd" d="M0.50187 161.563V176.615H16.5578V161.563H0.50187ZM5.51926 175.612H1.50534V173.605H5.51926V175.612ZM5.51926 172.601H1.50534V170.594H5.51926V172.601ZM5.51926 169.59H1.50534V167.584H5.51926V169.59ZM5.51926 166.58H1.50534V164.573H5.51926V166.58ZM10.5368 175.612H6.52275V173.605H10.5368V175.612ZM10.5368 172.601H6.52275V170.594H10.5368V172.601ZM10.5368 169.59H6.52275V167.584H10.5368V169.59ZM10.5368 166.58H6.52275V164.573H10.5368V166.58ZM15.5543 175.612H11.5403V173.605H15.5543V175.612ZM15.5543 172.601H11.5403V170.594H15.5543V172.601ZM15.5543 169.59H11.5403V167.584H15.5543V169.59ZM15.5543 166.58H11.5403V164.573H15.5543V166.58Z" fill="#AAAAAA"/>
<path fill-rule="evenodd" clip-rule="evenodd" d="M5.89873 274.109C5.78445 274.187 5.63746 274.193 5.5163 274.128C5.39516 274.062 5.31947 273.934 5.31947 273.794V271.232C5.31947 271.106 5.38171 270.988 5.48541 270.917L8.32314 268.997C8.44831 268.911 8.61138 268.911 8.73646 268.997L11.5742 270.917C11.6779 270.988 11.7401 271.106 11.7401 271.232V273.794C11.7401 273.934 11.6644 274.062 11.5434 274.128C11.4221 274.193 11.2751 274.187 11.1609 274.109L9.84833 273.22V278.597C9.84833 279.336 9.25691 279.936 8.52986 279.936C7.80278 279.936 7.21124 279.336 7.21124 278.597V273.22L5.89873 274.109ZM15.0373 273.053C16.0367 274.452 16.5648 276.107 16.5648 277.84C16.5648 282.339 12.9603 286 8.52986 286C4.09928 286 0.494766 282.339 0.494766 277.84C0.494766 276.107 1.02293 274.452 2.02227 273.053C2.13689 272.893 2.35348 272.849 2.51954 272.953L4.61847 274.267C4.70668 274.322 4.76835 274.412 4.78844 274.516C4.80865 274.619 4.78545 274.726 4.72448 274.812C4.14041 275.629 3.83159 276.597 3.83159 277.61C3.83159 280.241 5.93927 282.381 8.52986 282.381C11.1204 282.381 13.2281 280.241 13.2281 277.61C13.2281 276.597 12.9193 275.629 12.3352 274.812C12.2744 274.726 12.2513 274.619 12.2713 274.516C12.2914 274.412 12.353 274.322 12.4413 274.267L14.5402 272.953C14.7061 272.849 14.9228 272.893 15.0373 273.053Z" fill="#AAAAAA"/>
</svg>
