<svg width="208" height="56" viewBox="0 0 208 56" fill="none" xmlns="http://www.w3.org/2000/svg">
<circle opacity="0.2" cx="28" cy="28" r="28" fill="#216FED"/>
<path d="M27.7231 21.4026C24.2271 21.4026 21.4072 24.2232 21.4072 27.72C21.4072 31.2168 24.2271 34.0374 27.7231 34.0374C31.2192 34.0374 34.0391 31.2168 34.0391 27.72C34.0391 24.2232 31.2192 21.4026 27.7231 21.4026ZM27.7231 31.8271C25.4639 31.8271 23.6169 29.9852 23.6169 27.72C23.6169 25.4548 25.4584 23.6129 27.7231 23.6129C29.9879 23.6129 31.8293 25.4548 31.8293 27.72C31.8293 29.9852 29.9824 31.8271 27.7231 31.8271V31.8271ZM35.7707 21.1442C35.7707 21.9634 35.111 22.6177 34.2975 22.6177C33.4784 22.6177 32.8243 21.9579 32.8243 21.1442C32.8243 20.3305 33.4839 19.6707 34.2975 19.6707C35.111 19.6707 35.7707 20.3305 35.7707 21.1442ZM39.9538 22.6397C39.8604 20.6659 39.4096 18.9174 37.9639 17.4769C36.5237 16.0364 34.7757 15.5856 32.8023 15.4866C30.7684 15.3711 24.6723 15.3711 22.6385 15.4866C20.6706 15.5801 18.9226 16.0309 17.4769 17.4714C16.0312 18.9119 15.5859 20.6604 15.487 22.6342C15.3715 24.6685 15.3715 30.766 15.487 32.8003C15.5804 34.7741 16.0312 36.5225 17.4769 37.9631C18.9226 39.4036 20.6651 39.8544 22.6385 39.9534C24.6723 40.0689 30.7684 40.0689 32.8023 39.9534C34.7757 39.8599 36.5237 39.4091 37.9639 37.9631C39.4041 36.5225 39.8549 34.7741 39.9538 32.8003C40.0693 30.766 40.0693 24.674 39.9538 22.6397V22.6397ZM37.3263 34.9831C36.8975 36.0607 36.0675 36.8909 34.9846 37.3253C33.363 37.9686 29.5151 37.8201 27.7231 37.8201C25.9311 37.8201 22.0778 37.9631 20.4617 37.3253C19.3843 36.8964 18.5543 36.0662 18.12 34.9831C17.4769 33.3611 17.6253 29.5124 17.6253 27.72C17.6253 25.9276 17.4824 22.0734 18.12 20.4569C18.5488 19.3793 19.3788 18.5491 20.4617 18.1147C22.0833 17.4714 25.9311 17.6199 27.7231 17.6199C29.5151 17.6199 33.3685 17.4769 34.9846 18.1147C36.062 18.5436 36.892 19.3738 37.3263 20.4569C37.9694 22.0789 37.821 25.9276 37.821 27.72C37.821 29.5124 37.9694 33.3666 37.3263 34.9831Z" fill="#216FED"/>
<circle opacity="0.2" cx="103.6" cy="28" r="28" fill="#216FED"/>
<path d="M109.159 29.26L109.856 24.8007H105.498V21.907C105.498 20.687 106.107 19.4978 108.059 19.4978H110.04V15.7013C110.04 15.7013 108.242 15.4 106.523 15.4C102.934 15.4 100.589 17.5358 100.589 21.4021V24.8007H96.5996V29.26H100.589V40.04H105.498V29.26H109.159Z" fill="#216FED"/>
<circle opacity="0.2" cx="179.2" cy="28" r="28" fill="#216FED"/>
<path d="M188.708 22.2408C188.723 22.4795 188.723 22.7184 188.723 22.9571C188.723 30.2399 183.642 38.6314 174.355 38.6314C171.494 38.6314 168.836 37.7274 166.601 36.1584C167.007 36.2095 167.398 36.2266 167.82 36.2266C170.181 36.2266 172.354 35.3567 174.09 33.8729C171.869 33.8217 170.009 32.2355 169.368 30.0524C169.681 30.1035 169.993 30.1376 170.322 30.1376C170.775 30.1376 171.228 30.0694 171.651 29.95C169.337 29.4383 167.601 27.2211 167.601 24.5433V24.4751C168.273 24.8845 169.055 25.1403 169.884 25.1744C168.524 24.1851 167.632 22.4966 167.632 20.5863C167.632 19.563 167.883 18.6249 168.32 17.8063C170.806 21.1492 174.543 23.3323 178.733 23.5711C178.655 23.1618 178.608 22.7354 178.608 22.309C178.608 19.2731 180.859 16.8 183.658 16.8C185.112 16.8 186.425 17.4652 187.348 18.5397C188.489 18.3009 189.583 17.8404 190.553 17.2093C190.177 18.4885 189.38 19.5631 188.332 20.2452C189.349 20.1259 190.334 19.8188 191.24 19.3925C190.553 20.484 189.693 21.4562 188.708 22.2408V22.2408Z" fill="#216FED"/>
</svg>
