<svg width="17" height="293" viewBox="0 0 17 293" fill="none" xmlns="http://www.w3.org/2000/svg">
<path fill-rule="evenodd" clip-rule="evenodd" d="M15.2432 221.856C15.6172 221.902 15.912 222.196 15.9579 222.57C15.9634 222.615 16.0922 223.68 16.0577 224.922C16.0068 226.748 15.6443 227.974 14.9495 228.669L14.147 229.472L12.8487 230.769L9.79411 233.824L8.94977 234.668L7.78849 235.829L7.20801 235.248L5.46614 233.507L6.62732 232.346L11.4658 227.508L11.4665 227.507C11.4736 227.5 11.4802 227.493 11.487 227.486C11.4934 227.479 11.5 227.472 11.5061 227.465L11.5065 227.465C11.5121 227.458 11.5173 227.452 11.5226 227.445C11.5241 227.443 11.5256 227.441 11.5271 227.439C11.5322 227.433 11.5373 227.427 11.542 227.421C11.5447 227.417 11.5474 227.413 11.55 227.409C11.5516 227.407 11.5532 227.405 11.5548 227.402C11.557 227.399 11.5591 227.396 11.5612 227.393C11.5657 227.387 11.5701 227.381 11.5743 227.374C11.5762 227.371 11.578 227.368 11.5798 227.365C11.5815 227.362 11.5832 227.359 11.585 227.356C11.5864 227.354 11.5878 227.352 11.5892 227.35C11.594 227.342 11.5988 227.334 11.6031 227.326C11.608 227.317 11.6122 227.309 11.6167 227.3C11.6187 227.296 11.6208 227.292 11.6228 227.288C11.6247 227.285 11.6266 227.281 11.6283 227.278C11.6335 227.266 11.638 227.255 11.6427 227.244L11.6436 227.242C11.6447 227.239 11.646 227.236 11.6472 227.233C11.6482 227.231 11.6491 227.229 11.65 227.227C11.7165 227.056 11.724 226.868 11.6723 226.694C11.6716 226.691 11.6707 226.689 11.6698 226.687C11.6691 226.685 11.6684 226.683 11.6678 226.681C11.6613 226.66 11.6543 226.639 11.646 226.619C11.6441 226.614 11.642 226.61 11.6399 226.605C11.6385 226.602 11.6371 226.6 11.6358 226.597C11.6282 226.579 11.6209 226.563 11.6121 226.546C11.6094 226.541 11.6061 226.536 11.603 226.53C11.6017 226.528 11.6004 226.526 11.5991 226.524C11.5901 226.508 11.5811 226.491 11.5709 226.476C11.5652 226.468 11.559 226.459 11.5527 226.451C11.5487 226.446 11.5446 226.44 11.5406 226.435C11.5379 226.431 11.5353 226.427 11.5328 226.424C11.5293 226.419 11.5258 226.414 11.522 226.409C11.5044 226.388 11.4857 226.367 11.4656 226.348C11.145 226.027 10.625 226.027 10.3044 226.348L4.30476 232.346L2.56357 230.605C2.56351 230.605 2.56339 230.605 2.56322 230.605C2.56313 230.605 2.56301 230.604 2.56289 230.604L1.9822 230.024L3.14348 228.863L7.04243 224.964L8.34082 223.666H8.34094L9.14326 222.864C9.83832 222.169 11.0643 221.806 12.8916 221.756C14.1294 221.722 15.1914 221.85 15.2427 221.856L15.2432 221.856ZM4.49836 222.864C4.71826 222.644 5.04347 222.567 5.33857 222.666L6.59885 223.086L0.821015 228.863L0.240544 228.282C-0.0801645 227.962 -0.0801646 227.442 0.240444 227.121L4.49836 222.864ZM2.56289 232.926L4.88533 235.248C5.20594 235.569 5.20594 236.089 4.88533 236.409C4.56472 236.73 4.04478 236.73 3.72417 236.409L1.40173 234.088C1.08112 233.767 1.08112 233.247 1.40173 232.926C1.72243 232.606 2.24228 232.606 2.56289 232.926ZM15.1476 232.473L14.7275 231.213L8.94977 236.99L9.53036 237.571C9.68434 237.725 9.89311 237.811 10.1109 237.811C10.3288 237.811 10.5375 237.725 10.6914 237.571L14.9492 233.313C15.1692 233.094 15.2459 232.769 15.1476 232.473Z" fill="#AAAAAA"/>
<path fill-rule="evenodd" clip-rule="evenodd" d="M7.41941 178.612H6.18454H1.24463C0.439197 178.612 0.0053846 177.103 0.0053846 176.187V164.975C0.0053846 164.745 0.168659 164.559 0.370424 164.559H15.7034C15.9052 164.559 16.0685 164.745 16.0685 164.975V176.187C16.0685 177.103 15.6345 178.612 14.8292 178.612H9.88944H7.41941ZM2.01651 176.605H14.0573V166.571H2.01651V176.605ZM4.77901 175.595H3.27793C3.13968 175.595 3.02772 175.416 3.02772 175.195V171.998C3.02772 171.777 3.13968 171.599 3.27793 171.599H4.77901C4.91738 171.599 5.02922 171.777 5.02922 171.998V175.195C5.02922 175.416 4.91738 175.595 4.77901 175.595ZM7.27564 175.595H8.79819C8.93841 175.595 9.05197 175.427 9.05197 175.219V169.955C9.05197 169.747 8.93841 169.579 8.79819 169.579H7.27564C7.13545 169.579 7.02188 169.747 7.02188 169.955V175.219C7.02188 175.427 7.13545 175.595 7.27564 175.595ZM12.7959 175.596H11.2947C11.1565 175.596 11.0446 175.438 11.0446 175.244V168.916C11.0446 168.722 11.1565 168.565 11.2947 168.565H12.7959C12.9342 168.565 13.046 168.722 13.046 168.916V175.244C13.046 175.438 12.9342 175.596 12.7959 175.596Z" fill="#AAAAAA"/>
<path fill-rule="evenodd" clip-rule="evenodd" d="M9.61296 117.405C9.75685 117.405 9.8749 117.488 9.96711 117.654C10.0592 117.821 10.1055 118.038 10.1055 118.307C10.1055 118.574 10.0592 118.79 9.96711 118.954C9.8749 119.119 9.75685 119.2 9.61296 119.2C9.45989 119.2 9.33738 119.119 9.24516 118.954C9.15296 118.79 9.1069 118.574 9.1069 118.307C9.1069 118.038 9.15296 117.821 9.24516 117.654C9.33738 117.488 9.45989 117.405 9.61296 117.405ZM4.95085 119.18H5.57162V118.347L4.95085 119.18ZM13.0471 119.18H13.6678V118.347L13.0471 119.18ZM16.0643 125.376V114.394H0.00979889V125.376H3.49513V126.827H2.09373V128.441H13.9802V126.827H12.5788V125.376H16.0643ZM5.27604 121.985H4.54526V123.08H2.96761V121.985L1.24469 122.056V120.779L3.46574 116.92H4.54526V120.485H5.27604V121.985ZM10.1585 120.445C10.0478 120.772 9.89419 121.054 9.6977 121.293C9.50112 121.531 9.26871 121.716 9.00023 121.849C8.73164 121.981 8.43973 122.047 8.12418 122.047C7.80864 122.047 7.51651 121.981 7.24814 121.849C6.97955 121.716 6.74703 121.531 6.55067 121.293C6.35407 121.054 6.20042 120.772 6.08974 120.445C5.97892 120.119 5.92368 119.761 5.92368 119.373C5.92368 118.985 5.97892 118.627 6.08974 118.301C6.20042 117.974 6.35407 117.692 6.55067 117.454C6.74703 117.216 6.97955 117.029 7.24814 116.893C7.51651 116.759 7.80864 116.69 8.12418 116.69C8.43973 116.69 8.73164 116.759 9.00023 116.893C9.26858 117.029 9.50112 117.216 9.6977 117.454C9.89419 117.692 10.0478 117.974 10.1585 118.301C10.2693 118.627 10.3247 118.985 10.3247 119.373C10.3247 119.761 10.2692 120.119 10.1585 120.445ZM10.798 121.985V120.485L13.4303 116.92H14.5097V120.485L14.8293 120.779V122.056L14.5097 121.985V123.08H12.932V121.985H10.798Z" fill="#AAAAAA"/>
<path fill-rule="evenodd" clip-rule="evenodd" d="M14.6532 56.1332H14.1829V55.663C14.1829 55.4032 13.9725 55.1928 13.7125 55.1928C13.4526 55.1928 13.2422 55.4032 13.2422 55.663V56.1332H11.3295V55.663C11.3295 55.4032 11.1191 55.1928 10.8591 55.1928C10.5991 55.1928 10.3888 55.4032 10.3888 55.663V56.1332H8.50737V55.663C8.50737 55.4032 8.29701 55.1928 8.03704 55.1928C7.77705 55.1928 7.56669 55.4032 7.56669 55.663V56.1332H5.68529V55.663C5.68529 55.4032 5.47493 55.1928 5.21496 55.1928C4.95497 55.1928 4.74461 55.4032 4.74461 55.663V56.1332H2.83188V55.663C2.83188 55.4032 2.62139 55.1928 2.36153 55.1928C2.10155 55.1928 1.89117 55.4032 1.89117 55.663V56.1332H1.42084C0.642739 56.1332 0.00979889 56.7663 0.00979889 57.5445V58.9868H16.0643V57.5445C16.0643 56.7663 15.4313 56.1332 14.6532 56.1332ZM9.144 64.6041L9.94505 63.8228L8.83809 63.6619C8.68468 63.6399 8.5524 63.5434 8.48395 63.405L7.9888 62.4014L7.49365 63.405C7.42521 63.5434 7.29293 63.6399 7.13952 63.6619L6.03254 63.8228L6.83361 64.6041C6.94419 64.7118 6.99483 64.8681 6.96864 65.0196L6.77941 66.1545L7.77016 65.6338C7.8386 65.5977 7.91348 65.5795 7.9888 65.5795C8.06413 65.5795 8.139 65.5977 8.20745 65.6338L9.1982 66.1545L9.00895 65.0196C8.98278 64.8681 9.0333 64.7118 9.144 64.6041ZM0.00979889 59.9272V68.4255H16.0643V59.9272H0.00979889ZM11.2843 63.8312L9.97756 65.1367L10.2862 66.9344C10.3166 67.111 10.244 67.2889 10.0993 67.3946C9.95367 67.501 9.76018 67.513 9.60413 67.4303L7.98869 66.5812L6.37325 67.4303C6.21662 67.5147 6.02371 67.5004 5.8781 67.3946C5.73341 67.2889 5.66084 67.111 5.69115 66.9344L5.99981 65.1367L4.69304 63.8312C4.5649 63.7066 4.51908 63.5192 4.57409 63.3498C4.62966 63.179 4.77665 63.0553 4.95394 63.0295L6.75954 62.7672L7.56703 61.1304C7.72503 60.8089 8.25235 60.8089 8.41046 61.1304L9.21794 62.7672L11.0235 63.0295C11.2007 63.0553 11.3478 63.179 11.4033 63.3498C11.4585 63.5192 11.4125 63.7066 11.2843 63.8312ZM0.00979889 69.8361V69.3659H16.0643V69.8361C16.0643 70.6142 15.4313 71.2474 14.6532 71.2474H1.42084C0.642739 71.2474 0.00979889 70.6142 0.00979889 69.8361Z" fill="#AAAAAA"/>
<path fill-rule="evenodd" clip-rule="evenodd" d="M4.9478 9.32434C4.9478 8.98209 5.225 8.70321 5.56572 8.70321C5.90642 8.70321 6.1835 8.98209 6.1835 9.32434C6.1835 9.6674 5.90642 9.94559 5.56572 9.94559C5.225 9.94559 4.9478 9.6674 4.9478 9.32434ZM9.89058 14.2979C9.89058 13.955 10.1678 13.6761 10.5085 13.6761C10.8491 13.6761 11.1263 13.955 11.1263 14.2979C11.1263 14.6408 10.8491 14.9197 10.5085 14.9197C10.1678 14.9197 9.89058 14.6408 9.89058 14.2979ZM15.4512 0H0.623062C0.281904 0 0.00514442 0.277494 0.00514442 0.621246V18.4427C0.00514442 18.6578 0.116201 18.8576 0.297978 18.9711C0.480658 19.0848 0.707448 19.0943 0.89934 18.9985L3.09433 17.8941L5.28932 18.9985C5.46317 19.0859 5.66827 19.0859 5.842 18.9985L8.03711 17.8941L10.2321 18.9985C10.3189 19.0425 10.4139 19.064 10.5084 19.064C10.6029 19.064 10.6978 19.0425 10.7848 18.9985L12.9798 17.8941L15.1748 18.9985C15.3666 19.0943 15.5934 19.0848 15.7761 18.9711C15.9579 18.8576 16.0689 18.6578 16.0689 18.4427V0.621246C16.0689 0.277494 15.7922 0 15.4512 0ZM3.09433 2.48602C3.43561 2.48602 3.71223 2.7649 3.71223 3.10782C3.71223 3.45132 3.43561 3.72964 3.09433 3.72964C2.75317 3.72964 2.47653 3.45132 2.47653 3.10782C2.47653 2.7649 2.75317 2.48602 3.09433 2.48602ZM3.09433 6.21663C2.75317 6.21663 2.47653 5.93831 2.47653 5.59454C2.47653 5.25106 2.75317 4.97274 3.09433 4.97274C3.43561 4.97274 3.71223 5.25106 3.71223 5.59454C3.71223 5.93831 3.43561 6.21663 3.09433 6.21663ZM3.71223 9.32434C3.71223 8.29595 4.54361 7.45957 5.56572 7.45957C6.58783 7.45957 7.41919 8.29595 7.41919 9.32434C7.41919 10.353 6.58783 11.1901 5.56572 11.1901C4.54361 11.1901 3.71223 10.353 3.71223 9.32434ZM5.85255 14.8882C5.73188 15.01 5.57375 15.0708 5.41563 15.0708C5.25761 15.0708 5.0995 15.01 4.97881 14.8882C4.73755 14.6464 4.73755 14.2522 4.97881 14.0096L10.2212 8.7349C10.4626 8.49142 10.8535 8.49142 11.0949 8.7349C11.3362 8.97669 11.3362 9.37068 11.0949 9.61344L5.85255 14.8882ZM10.5085 16.1628C9.48639 16.1628 8.65489 15.3264 8.65489 14.2979C8.65489 13.2695 9.48639 12.433 10.5085 12.433C11.5305 12.433 12.362 13.2695 12.362 14.2979C12.362 15.3264 11.5305 16.1628 10.5085 16.1628ZM12.9798 6.21663H5.56572C5.22466 6.21663 4.9478 5.93831 4.9478 5.59454C4.9478 5.25106 5.22466 4.97274 5.56572 4.97274H12.9798C13.3208 4.97274 13.5977 5.25106 13.5977 5.59454C13.5977 5.93831 13.3208 6.21663 12.9798 6.21663ZM12.9798 3.72909H5.56572C5.22466 3.72909 4.9478 3.45132 4.9478 3.10782C4.9478 2.76435 5.22466 2.48602 5.56572 2.48602H12.9798C13.3208 2.48602 13.5977 2.7649 13.5977 3.10782C13.5977 3.45132 13.3208 3.72909 12.9798 3.72909Z" fill="#AAAAAA"/>
<path fill-rule="evenodd" clip-rule="evenodd" d="M10.3635 282.629C15.3266 283.523 15.9752 284.936 16.0538 289.893C16.0589 290.211 16.0615 290.265 16.0628 290.237C16.0627 290.321 16.0626 290.445 16.0626 290.623C16.0626 290.623 14.8809 293 8.03659 293C1.19224 293 0.0106259 290.623 0.0106259 290.623C0.0106259 290.346 0.0102848 290.187 0.0100439 290.101C0.0113082 290.147 0.0147598 290.126 0.0222252 289.732C0.112592 284.905 0.800648 283.514 5.70955 282.629C5.70955 282.629 6.4083 283.518 8.03659 283.518C9.6649 283.518 10.3635 282.629 10.3635 282.629Z" fill="#AAAAAA"/>
</svg>
