<svg width="80" height="80" viewBox="0 0 80 80" fill="none" xmlns="http://www.w3.org/2000/svg">
<rect opacity="0.1" width="80" height="80" rx="40" fill="#B3BAC5"/>
<path fill-rule="evenodd" clip-rule="evenodd" d="M47.2002 56.0002V47.2002H51.2002C54.293 47.2002 56.8002 44.693 56.8002 41.6002V28.8002C56.8002 25.7074 54.293 23.2002 51.2002 23.2002H28.8002C25.7074 23.2002 23.2002 25.7074 23.2002 28.8002V41.6002C23.2002 44.693 25.7074 47.2002 28.8002 47.2002H32.8002V56.0002C32.8002 56.5949 33.426 56.9817 33.958 56.7157L40.0002 53.6946L46.0424 56.7157C46.5743 56.9817 47.2002 56.5949 47.2002 56.0002ZM24.8002 28.8002C24.8002 26.5911 26.5911 24.8002 28.8002 24.8002H51.2002C53.4093 24.8002 55.2002 26.5911 55.2002 28.8002V41.6002C55.2002 43.8093 53.4093 45.6002 51.2002 45.6002H28.8002C26.5911 45.6002 24.8002 43.8093 24.8002 41.6002V28.8002ZM34.4002 47.2002H39.2002V52.3058L34.4002 54.7058V47.2002ZM40.8002 47.2002V52.3058L45.6002 54.7058V47.2002H40.8002Z" fill="#184D47"/>
<path fill-rule="evenodd" clip-rule="evenodd" d="M35.0653 41.4077C35.5217 42.3132 36.6171 42.6684 37.5024 42.1829L39.9997 40.8134L42.4971 42.1829C42.8498 42.3764 43.2561 42.4435 43.6512 42.3728C44.6281 42.198 45.2711 41.2497 45.1087 40.2622L44.6242 37.3156L46.6708 35.2346C46.948 34.9528 47.1268 34.5867 47.1817 34.1926C47.3199 33.2008 46.6531 32.2687 45.6713 32.1199L42.8702 31.6953L41.6114 29.0346C41.4402 28.6729 41.1572 28.3777 40.8044 28.1961C39.9072 27.7342 38.8217 28.1182 38.3881 29.0346L37.1293 31.6953L34.3282 32.1199C33.9336 32.1797 33.5709 32.3724 33.2966 32.666C32.6221 33.3878 32.6361 34.5304 33.3286 35.2346L35.3753 37.3156L34.8908 40.2622C34.8265 40.653 34.8876 41.0549 35.0653 41.4077ZM40.3844 39.1995C40.1448 39.0681 39.8547 39.0681 39.6151 39.1995L36.7331 40.78C36.6497 40.8258 36.547 40.7925 36.4941 40.6876C36.4691 40.6379 36.4602 40.579 36.4696 40.5218L37.02 37.1742C37.0614 36.9222 36.98 36.6656 36.801 36.4835L34.4694 34.1127C34.3783 34.0201 34.3762 33.8541 34.4656 33.7584C34.4955 33.7264 34.5314 33.7074 34.568 33.7018L37.7902 33.2134C38.0534 33.1735 38.2796 33.0053 38.3934 32.7646L39.8344 29.7189C39.8852 29.6116 39.9879 29.5753 40.0721 29.6186C40.11 29.6382 40.1433 29.6729 40.1651 29.7189L41.6061 32.7646C41.7199 33.0053 41.9461 33.1735 42.2093 33.2134L45.4315 33.7018C45.5326 33.7171 45.6162 33.834 45.597 33.9719C45.5893 34.0276 45.565 34.0772 45.5301 34.1127L43.1985 36.4835C43.0194 36.6656 42.9381 36.9222 42.9795 37.1742L43.5299 40.5218C43.5525 40.6595 43.4711 40.7796 43.3694 40.7978C43.3349 40.804 43.2994 40.7981 43.2664 40.78L40.3844 39.1995Z" fill="#184D47"/>
</svg>
