<svg width="16" height="17" viewBox="0 0 16 17" fill="none" xmlns="http://www.w3.org/2000/svg">
<path fill-rule="evenodd" clip-rule="evenodd" d="M15.7793 14.898L14.8948 15.7824C14.6042 16.0762 14.1292 16.0762 13.8354 15.7824L10.7195 12.6666C10.5789 12.5259 10.5008 12.3353 10.5008 12.1353V11.6259C9.39758 12.4884 8.00996 13.001 6.50048 13.001C2.90958 13.001 0 10.0914 0 6.50048C0 2.90958 2.90958 0 6.50048 0C10.0914 0 13.001 2.90958 13.001 6.50048C13.001 8.00996 12.4884 9.39758 11.6259 10.5008H12.1353C12.3353 10.5008 12.5259 10.5789 12.6666 10.7195L15.7824 13.8354C16.0731 14.1292 16.0731 14.6042 15.7793 14.898ZM2.50018 6.50048C2.50018 8.71314 4.29094 10.5008 6.50048 10.5008C8.71314 10.5008 10.5008 8.71002 10.5008 6.50048C10.5008 4.28782 8.71002 2.50018 6.50048 2.50018C4.28782 2.50018 2.50018 4.29094 2.50018 6.50048Z" fill="#959EAD"/>
</svg>
