<svg width="40" height="40" viewBox="0 0 40 40" fill="none" xmlns="http://www.w3.org/2000/svg">
<path d="M20 22.5C26.2109 22.5 31.25 17.4609 31.25 11.25C31.25 5.03906 26.2109 0 20 0C13.7891 0 8.75 5.03906 8.75 11.25C8.75 17.4609 13.7891 22.5 20 22.5ZM30 25H25.6953C23.9609 25.7969 22.0312 26.25 20 26.25C17.9688 26.25 16.0469 25.7969 14.3047 25H10C4.47656 25 0 29.4766 0 35V36.25C0 38.3203 1.67969 40 3.75 40H36.25C38.3203 40 40 38.3203 40 36.25V35C40 29.4766 35.5234 25 30 25Z" fill="#FEA400"/>
</svg>
