<svg width="17" height="17" viewBox="0 0 17 17" fill="none" xmlns="http://www.w3.org/2000/svg">
<path d="M16.8016 15.5117L12.7996 11.5097C12.7004 11.4436 12.6012 11.3774 12.5019 11.3774H12.072C13.0973 10.1868 13.7588 8.59922 13.7588 6.87938C13.7588 3.10895 10.6498 0 6.87938 0C3.07588 0 0 3.10895 0 6.87938C0 10.6829 3.07588 13.7588 6.87938 13.7588C8.59922 13.7588 10.1537 13.1304 11.3774 12.1051V12.535C11.3774 12.6342 11.4105 12.7335 11.4767 12.8327L15.4786 16.8346C15.644 17 15.9086 17 16.0409 16.8346L16.8016 16.0739C16.9669 15.9416 16.9669 15.677 16.8016 15.5117ZM6.87938 12.1712C3.9358 12.1712 1.58755 9.82296 1.58755 6.87938C1.58755 3.96887 3.9358 1.58755 6.87938 1.58755C9.78988 1.58755 12.1712 3.96887 12.1712 6.87938C12.1712 9.82296 9.78988 12.1712 6.87938 12.1712Z" fill="white"/>
</svg>
