<svg width="216" height="145" viewBox="0 0 216 145" fill="none" xmlns="http://www.w3.org/2000/svg">
<g opacity="0.3">
<mask id="mask0_16_17598" style="mask-type:alpha" maskUnits="userSpaceOnUse" x="0" y="4" width="145" height="137">
<path fill-rule="evenodd" clip-rule="evenodd" d="M33.6486 67.2434V78.7238H62.8089V140.501H0V78.7238H0.00151809V67.2434C0.00151809 43.9307 6.8208 26.6199 20.2711 15.7889C29.5755 8.29676 41.3529 4.49805 55.2769 4.49805V37.592C47.7182 37.592 33.6486 37.592 33.6486 67.2434ZM137.468 37.592V4.49805C123.546 4.49805 111.768 8.29676 102.464 15.7889C89.0135 26.6199 82.1934 43.9314 82.1934 67.2434V78.7238V140.501H145V78.7238H115.84V67.2434C115.841 37.592 129.91 37.592 137.468 37.592Z" fill="white"/>
</mask>
<g mask="url(#mask0_16_17598)">
<rect width="145" height="145" fill="white"/>
<rect width="145" height="145" fill="white"/>
</g>
</g>
<mask id="mask1_16_17598" style="mask-type:alpha" maskUnits="userSpaceOnUse" x="0" y="106" width="24" height="23">
<path fill-rule="evenodd" clip-rule="evenodd" d="M23.3262 115.077C23.1789 114.621 22.7745 114.297 22.2962 114.254L15.7981 113.664L13.2285 107.65C13.039 107.209 12.6076 106.924 12.1281 106.924C11.6488 106.924 11.2172 107.209 11.0278 107.651L8.45825 113.664L1.95909 114.254C1.48157 114.298 1.07825 114.621 0.930011 115.077C0.781768 115.533 0.91867 116.033 1.2799 116.348L6.19172 120.656L4.74334 127.036C4.63736 127.505 4.81943 127.99 5.20867 128.271C5.41788 128.422 5.66266 128.499 5.90949 128.499C6.12232 128.499 6.33343 128.442 6.5229 128.329L12.1281 124.979L17.7314 128.329C18.1413 128.575 18.6582 128.553 19.0466 128.271C19.436 127.989 19.6179 127.504 19.5119 127.036L18.0635 120.656L22.9754 116.349C23.3366 116.033 23.4745 115.534 23.3262 115.077Z" fill="white"/>
</mask>
<g mask="url(#mask1_16_17598)">
<rect width="24" height="24" transform="translate(0 106)" fill="white"/>
<rect y="106" width="24" height="24" fill="white"/>
</g>
<mask id="mask2_16_17598" style="mask-type:alpha" maskUnits="userSpaceOnUse" x="48" y="106" width="24" height="23">
<path fill-rule="evenodd" clip-rule="evenodd" d="M71.3262 115.077C71.1789 114.621 70.7745 114.297 70.2962 114.254L63.7981 113.664L61.2285 107.65C61.039 107.209 60.6076 106.924 60.1281 106.924C59.6488 106.924 59.2172 107.209 59.0278 107.651L56.4582 113.664L49.9591 114.254C49.4816 114.298 49.0782 114.621 48.93 115.077C48.7818 115.533 48.9187 116.033 49.2799 116.348L54.1917 120.656L52.7433 127.036C52.6374 127.505 52.8194 127.99 53.2087 128.271C53.4179 128.422 53.6627 128.499 53.9095 128.499C54.1223 128.499 54.3334 128.442 54.5229 128.329L60.1281 124.979L65.7314 128.329C66.1413 128.575 66.6582 128.553 67.0466 128.271C67.436 127.989 67.6179 127.504 67.5119 127.036L66.0635 120.656L70.9754 116.349C71.3366 116.033 71.4745 115.534 71.3262 115.077Z" fill="white"/>
</mask>
<g mask="url(#mask2_16_17598)">
<rect width="24" height="24" transform="translate(48 106)" fill="white"/>
<rect x="48" y="106" width="24" height="24" fill="white"/>
</g>
<mask id="mask3_16_17598" style="mask-type:alpha" maskUnits="userSpaceOnUse" x="96" y="106" width="24" height="23">
<path fill-rule="evenodd" clip-rule="evenodd" d="M119.326 115.077C119.179 114.621 118.775 114.297 118.296 114.254L111.798 113.664L109.229 107.65C109.039 107.209 108.608 106.924 108.128 106.924C107.649 106.924 107.217 107.209 107.028 107.651L104.458 113.664L97.9591 114.254C97.4816 114.298 97.0782 114.621 96.93 115.077C96.7818 115.533 96.9187 116.033 97.2799 116.348L102.192 120.656L100.743 127.036C100.637 127.505 100.819 127.99 101.209 128.271C101.418 128.422 101.663 128.499 101.909 128.499C102.122 128.499 102.333 128.442 102.523 128.329L108.128 124.979L113.731 128.329C114.141 128.575 114.658 128.553 115.047 128.271C115.436 127.989 115.618 127.504 115.512 127.036L114.064 120.656L118.975 116.349C119.337 116.033 119.474 115.534 119.326 115.077Z" fill="white"/>
</mask>
<g mask="url(#mask3_16_17598)">
<rect width="24" height="24" transform="translate(96 106)" fill="white"/>
<rect x="96" y="106" width="24" height="24" fill="white"/>
</g>
<mask id="mask4_16_17598" style="mask-type:alpha" maskUnits="userSpaceOnUse" x="144" y="106" width="24" height="23">
<path fill-rule="evenodd" clip-rule="evenodd" d="M167.326 115.077C167.179 114.621 166.775 114.297 166.296 114.254L159.798 113.664L157.229 107.65C157.039 107.209 156.608 106.924 156.128 106.924C155.649 106.924 155.217 107.209 155.028 107.651L152.458 113.664L145.959 114.254C145.482 114.298 145.078 114.621 144.93 115.077C144.782 115.533 144.919 116.033 145.28 116.348L150.192 120.656L148.743 127.036C148.637 127.505 148.819 127.99 149.209 128.271C149.418 128.422 149.663 128.499 149.909 128.499C150.122 128.499 150.333 128.442 150.523 128.329L156.128 124.979L161.731 128.329C162.141 128.575 162.658 128.553 163.047 128.271C163.436 127.989 163.618 127.504 163.512 127.036L162.064 120.656L166.975 116.349C167.337 116.033 167.474 115.534 167.326 115.077Z" fill="white"/>
</mask>
<g mask="url(#mask4_16_17598)">
<rect width="24" height="24" transform="translate(144 106)" fill="white"/>
<rect x="144" y="106" width="24" height="24" fill="white"/>
</g>
<mask id="mask5_16_17598" style="mask-type:alpha" maskUnits="userSpaceOnUse" x="192" y="106" width="24" height="23">
<path fill-rule="evenodd" clip-rule="evenodd" d="M215.326 115.077C215.179 114.621 214.775 114.297 214.296 114.254L207.798 113.664L205.229 107.65C205.039 107.209 204.608 106.924 204.128 106.924C203.649 106.924 203.217 107.209 203.028 107.651L200.458 113.664L193.959 114.254C193.482 114.298 193.078 114.621 192.93 115.077C192.782 115.533 192.919 116.033 193.28 116.348L198.192 120.656L196.743 127.036C196.637 127.505 196.819 127.99 197.209 128.271C197.418 128.422 197.663 128.499 197.909 128.499C198.122 128.499 198.333 128.442 198.523 128.329L204.128 124.979L209.731 128.329C210.141 128.575 210.658 128.553 211.047 128.271C211.436 127.989 211.618 127.504 211.512 127.036L210.064 120.656L214.975 116.349C215.337 116.033 215.474 115.534 215.326 115.077Z" fill="white"/>
</mask>
<g mask="url(#mask5_16_17598)">
<rect width="24" height="24" transform="translate(192 106)" fill="white"/>
<rect x="192" y="106" width="24" height="24" fill="white"/>
</g>
</svg>
