<svg width="27" height="62" viewBox="0 0 27 62" fill="none" xmlns="http://www.w3.org/2000/svg">
<path d="M6.81716 1.22655V60.7731C6.81716 61.4501 6.26766 61.9996 5.59061 61.9996H1.22655C0.547041 61.9996 0 61.4501 0 60.7731V1.22655C0 0.549494 0.547041 0 1.22655 0H5.59061C6.26766 0 6.81716 0.549494 6.81716 1.22655Z" fill="#D9D9FF"/>
<path d="M16.7032 1.22655V60.773C16.7032 61.4501 16.1537 61.9996 15.4767 61.9996H11.1101C10.4331 61.9996 9.8836 61.4501 9.8836 60.773V1.22655C9.8836 0.549494 10.4331 0 11.1101 0H15.4767C16.1537 0 16.7032 0.549494 16.7032 1.22655Z" fill="#D9D9FF"/>
<path d="M26.5863 1.22655V60.773C26.5863 61.4501 26.0393 61.9996 25.3598 61.9996H20.9957C20.3187 61.9996 19.7692 61.4501 19.7692 60.773V1.22655C19.7692 0.549494 20.3187 0 20.9957 0H25.3598C26.0393 0 26.5863 0.549494 26.5863 1.22655Z" fill="#D9D9FF"/>
</svg>
