<svg width="18" height="18" viewBox="0 0 18 18" fill="none" xmlns="http://www.w3.org/2000/svg">
<path fill-rule="evenodd" clip-rule="evenodd" d="M8.48898 8.22841L9.533 4.36231C9.53444 4.33369 9.53889 4.30529 9.54627 4.27758L10.6193 0.304544C10.6479 0.19915 10.7175 0.109334 10.8128 0.0548728C10.9082 0.000411729 11.0214 -0.0142286 11.1276 0.0141753L15.9331 1.29163C16.1543 1.35027 16.2857 1.57563 16.2267 1.79505L15.1536 5.76809C15.1252 5.87363 15.0557 5.96365 14.9603 6.01828C14.865 6.0729 14.7516 6.08766 14.6453 6.05928L10.6492 4.99651L9.76021 8.28846C14.0723 8.80421 17.4141 12.4466 17.4141 16.863C17.4141 17.0901 17.2285 17.2743 16.9995 17.2743H0.414622C0.185633 17.2743 0 17.0901 0 16.863C0 12.1661 3.78136 8.34357 8.48898 8.22841ZM11.6094 14.8065C12.5254 14.8065 13.2679 14.07 13.2679 13.1614C13.2679 12.2528 12.5254 11.5162 11.6094 11.5162C10.6935 11.5162 9.95094 12.2528 9.95094 13.1614C9.95094 14.07 10.6935 14.8065 11.6094 14.8065ZM4.97547 15.2178C4.97547 15.8993 4.41857 16.4517 3.7316 16.4517C3.04463 16.4517 2.48773 15.8993 2.48773 15.2178C2.48773 14.5364 3.04463 13.984 3.7316 13.984C4.41857 13.984 4.97547 14.5364 4.97547 15.2178ZM6.81823 11.699C7.27621 11.699 7.64748 11.3308 7.64748 10.8765C7.64748 10.4222 7.27621 10.0539 6.81823 10.0539C6.36026 10.0539 5.98899 10.4222 5.98899 10.8765C5.98899 11.3308 6.36026 11.699 6.81823 11.699ZM17.6928 4.31378L16.4912 3.99462V3.99379L15.9547 5.98031C15.8695 6.29677 15.6611 6.56666 15.3752 6.73052C15.0893 6.89438 14.7494 6.93877 14.4305 6.85389L11.6277 6.10781L11.3059 7.30055C11.2468 7.51972 11.3778 7.74497 11.5986 7.80396L16.4049 9.08142C16.6259 9.14005 16.853 9.01012 16.9124 8.79105L17.9855 4.81801C18.0141 4.71264 17.9994 4.6003 17.9445 4.50573C17.8896 4.41115 17.799 4.3421 17.6928 4.31378Z" fill="#FF3B00"/>
</svg>
