<svg width="192" height="36" viewBox="0 0 192 36" fill="none" xmlns="http://www.w3.org/2000/svg">
<rect width="36" height="36" fill="#EFF2FF"/>
<path d="M19.4822 24.8127C22.8697 24.2807 25.4609 21.3492 25.4609 17.8125C25.4609 13.8981 22.2894 10.7266 18.375 10.7266C14.4606 10.7266 11.2891 13.8981 11.2891 17.8125C11.2891 21.3492 13.8803 24.2807 17.2678 24.8127V19.8608H15.4678V17.8125H17.2678V16.2513C17.2678 14.4755 18.325 13.4946 19.9442 13.4946C20.7196 13.4946 21.5305 13.6329 21.5305 13.6329V15.3758H20.6368C19.7568 15.3758 19.4822 15.9221 19.4822 16.4825V17.8125H21.4474L21.1331 19.8608H19.4822V24.8127Z" fill="#5871DD"/>
<rect x="52" width="36" height="36" fill="#EFF2FF"/>
<path d="M67.6884 23.3255C73.1536 23.3255 76.1437 18.7988 76.1437 14.8702C76.1437 14.7414 76.1437 14.6126 76.1345 14.4838C76.7141 14.0605 77.2202 13.5361 77.6249 12.9473C77.0913 13.1773 76.5117 13.3429 75.9137 13.4073C76.5301 13.0393 76.9993 12.4597 77.2201 11.7696C76.6497 12.1101 76.0056 12.3585 75.334 12.4873C74.7912 11.9076 74.0184 11.5488 73.1627 11.5488C71.5158 11.5488 70.1909 12.8829 70.1909 14.5206C70.1909 14.7506 70.2185 14.9806 70.2645 15.2014C67.7988 15.0726 65.5999 13.8949 64.137 12.0916C63.8794 12.5333 63.7322 13.0393 63.7322 13.5913C63.7322 14.6218 64.2566 15.5326 65.0571 16.0662C64.5695 16.0479 64.1094 15.9099 63.7138 15.6891V15.7259C63.7138 17.1703 64.7351 18.3664 66.0968 18.6424C65.8484 18.7068 65.5815 18.7436 65.3147 18.7436C65.1215 18.7436 64.9375 18.7252 64.7535 18.6976C65.1307 19.8753 66.2256 20.7309 67.532 20.7585C66.5108 21.559 65.2319 22.0282 63.8426 22.0282C63.5942 22.0282 63.3642 22.019 63.125 21.9914C64.4407 22.8378 66.0047 23.3255 67.6884 23.3255Z" fill="#5871DD"/>
<rect x="104" width="36" height="36" fill="#EFF2FF"/>
<path d="M120.626 24.187L120.626 24.0527C120.625 23.8702 120.622 23.5558 120.621 23.2254L120.619 22.8938C120.619 22.8391 120.619 22.785 120.618 22.7321L120.618 22.4326V22.4326C120.618 22.4326 118.618 22.8612 118.198 21.5812C118.198 21.5812 117.872 20.7497 117.403 20.5354C117.403 20.5354 116.749 20.0868 117.449 20.0954C117.449 20.0954 118.161 20.1526 118.552 20.8326C119.178 21.9355 120.226 21.6183 120.635 21.4297C120.701 20.9726 120.886 20.6554 121.092 20.4669L120.802 20.4335V20.4335L120.514 20.3957C119.128 20.1966 117.883 19.7251 117.883 17.3096C117.883 16.5239 118.101 16.1296 118.558 15.6267C118.483 15.441 118.241 14.6753 118.632 13.6866C119.229 13.5009 120.604 14.4581 120.604 14.4581C121.175 14.2981 121.789 14.2152 122.398 14.2152C123.006 14.2152 123.621 14.2981 124.192 14.4581C124.192 14.4581 125.567 13.4981 126.164 13.6866C126.555 14.6781 126.312 15.441 126.238 15.6267C126.695 16.1324 126.975 16.5267 126.975 17.3096C126.975 19.8162 125.584 20.2259 124.131 20.4149L123.84 20.4503C123.792 20.4559 123.743 20.4614 123.695 20.4669C123.958 20.6926 124.181 21.1212 124.181 21.7926C124.181 22.5629 124.175 23.4795 124.173 23.9353L124.172 24.122C124.172 24.1458 124.172 24.1656 124.172 24.1813C124.172 24.367 124.304 24.5927 124.666 24.527C127.524 23.5784 129.461 20.8669 129.461 17.6982C129.461 13.7352 126.247 10.7266 122.284 10.7266C118.321 10.7266 115.289 13.7352 115.289 17.6982C115.289 20.8669 117.283 23.5784 120.132 24.5327C120.498 24.5984 120.626 24.3727 120.626 24.187Z" fill="#5871DD"/>
<rect x="156" width="36" height="36" fill="#EFF2FF"/>
<path fill-rule="evenodd" clip-rule="evenodd" d="M177.097 24.3582C178.154 24.3081 179.09 24.0668 179.861 23.2927C180.632 22.5216 180.873 21.5857 180.926 20.5291C180.988 19.4402 180.988 16.1792 180.926 15.0902C180.876 14.0336 180.635 13.0977 179.861 12.3266C179.09 11.5555 178.154 11.3142 177.097 11.2612C176.008 11.1994 172.744 11.1994 171.655 11.2612C170.602 11.3112 169.666 11.5526 168.892 12.3237C168.118 13.0948 167.879 14.0307 167.826 15.0873C167.764 16.1762 167.764 19.4402 167.826 20.5291C167.876 21.5857 168.118 22.5216 168.892 23.2927C169.666 24.0639 170.599 24.3052 171.655 24.3582C172.744 24.42 176.008 24.42 177.097 24.3582ZM173.918 23.2193H173.917C172.865 23.2294 171.234 23.2451 170.49 22.9513C169.913 22.7218 169.468 22.2774 169.236 21.6976C168.941 20.9529 168.957 19.3314 168.968 18.2796V18.2796V18.2796V18.2795C168.969 18.105 168.971 17.9462 168.971 17.8097C168.971 17.6757 168.97 17.5203 168.968 17.3496C168.958 16.2975 168.942 14.6663 169.236 13.9218C169.465 13.3449 169.91 12.9005 170.49 12.668C171.234 12.3727 172.856 12.3891 173.908 12.3998H173.908H173.908H173.908C174.082 12.4015 174.241 12.4031 174.378 12.4031C174.511 12.4031 174.667 12.4017 174.838 12.4C175.89 12.3899 177.521 12.3743 178.265 12.668C178.842 12.8976 179.287 13.342 179.519 13.9218C179.815 14.6665 179.798 16.288 179.787 17.3398L179.787 17.34C179.786 17.5144 179.784 17.6732 179.784 17.8097C179.784 17.9462 179.786 18.1051 179.787 18.2796C179.798 19.332 179.815 20.9554 179.519 21.6976C179.29 22.2744 178.845 22.7188 178.265 22.9513C177.521 23.2467 175.899 23.2302 174.847 23.2196C174.673 23.2178 174.514 23.2162 174.378 23.2162C174.244 23.2162 174.088 23.2177 173.918 23.2193H173.918H173.918ZM178.686 14.2897C178.686 14.7282 178.333 15.0784 177.898 15.0784C177.459 15.0784 177.109 14.7253 177.109 14.2897C177.109 13.8541 177.462 13.5009 177.898 13.5009C178.333 13.5009 178.686 13.8541 178.686 14.2897ZM174.378 21.1913C176.249 21.1913 177.759 19.6815 177.759 17.8097C177.759 15.9378 176.249 14.428 174.378 14.428C172.506 14.428 170.996 15.9378 170.996 17.8097C170.996 19.6815 172.506 21.1913 174.378 21.1913ZM172.179 17.8097C172.179 19.0222 173.168 20.0082 174.378 20.0082C175.587 20.0082 176.576 19.0222 176.576 17.8097C176.576 16.5971 175.59 15.6112 174.378 15.6112C173.165 15.6112 172.179 16.5971 172.179 17.8097Z" fill="#5871DD"/>
</svg>
