<svg width="208" height="56" viewBox="0 0 208 56" fill="none" xmlns="http://www.w3.org/2000/svg">
<circle opacity="0.2" cx="28" cy="28" r="28" fill="#216FED"/>
<path d="M27.7231 21.403C24.2271 21.403 21.4072 24.2236 21.4072 27.7204C21.4072 31.2172 24.2271 34.0378 27.7231 34.0378C31.2192 34.0378 34.0391 31.2172 34.0391 27.7204C34.0391 24.2236 31.2192 21.403 27.7231 21.403ZM27.7231 31.8275C25.4639 31.8275 23.6169 29.9856 23.6169 27.7204C23.6169 25.4551 25.4584 23.6133 27.7231 23.6133C29.9879 23.6133 31.8293 25.4551 31.8293 27.7204C31.8293 29.9856 29.9824 31.8275 27.7231 31.8275V31.8275ZM35.7707 21.1446C35.7707 21.9638 35.111 22.6181 34.2975 22.6181C33.4784 22.6181 32.8243 21.9583 32.8243 21.1446C32.8243 20.3309 33.4839 19.6711 34.2975 19.6711C35.111 19.6711 35.7707 20.3309 35.7707 21.1446ZM39.9538 22.6401C39.8604 20.6663 39.4096 18.9178 37.9639 17.4773C36.5237 16.0368 34.7757 15.586 32.8023 15.487C30.7684 15.3715 24.6723 15.3715 22.6385 15.487C20.6706 15.5805 18.9226 16.0313 17.4769 17.4718C16.0312 18.9123 15.5859 20.6608 15.487 22.6346C15.3715 24.6689 15.3715 30.7664 15.487 32.8007C15.5804 34.7745 16.0312 36.5229 17.4769 37.9635C18.9226 39.404 20.6651 39.8548 22.6385 39.9538C24.6723 40.0693 30.7684 40.0693 32.8023 39.9538C34.7757 39.8603 36.5237 39.4095 37.9639 37.9635C39.4041 36.5229 39.8549 34.7745 39.9538 32.8007C40.0693 30.7664 40.0693 24.6744 39.9538 22.6401V22.6401ZM37.3263 34.9835C36.8975 36.0611 36.0675 36.8913 34.9846 37.3257C33.363 37.969 29.5151 37.8205 27.7231 37.8205C25.9311 37.8205 22.0778 37.9635 20.4617 37.3257C19.3843 36.8968 18.5543 36.0666 18.12 34.9835C17.4769 33.3615 17.6253 29.5128 17.6253 27.7204C17.6253 25.928 17.4824 22.0738 18.12 20.4573C18.5488 19.3797 19.3788 18.5495 20.4617 18.1151C22.0833 17.4718 25.9311 17.6203 27.7231 17.6203C29.5151 17.6203 33.3685 17.4773 34.9846 18.1151C36.062 18.544 36.892 19.3742 37.3263 20.4573C37.9694 22.0793 37.821 25.928 37.821 27.7204C37.821 29.5128 37.9694 33.367 37.3263 34.9835Z" fill="#216FED"/>
<circle opacity="0.2" cx="103.6" cy="28" r="28" fill="#216FED"/>
<path d="M109.159 29.2604L109.856 24.8011H105.498V21.9074C105.498 20.6874 106.107 19.4982 108.059 19.4982H110.04V15.7017C110.04 15.7017 108.242 15.4004 106.523 15.4004C102.934 15.4004 100.589 17.5362 100.589 21.4025V24.8011H96.5996V29.2604H100.589V40.0404H105.498V29.2604H109.159Z" fill="#216FED"/>
<circle opacity="0.2" cx="179.201" cy="28" r="28" fill="#216FED"/>
<path d="M188.709 22.2406C188.724 22.4794 188.724 22.7182 188.724 22.957C188.724 30.2398 183.643 38.6312 174.356 38.6312C171.495 38.6312 168.837 37.7273 166.602 36.1582C167.008 36.2093 167.399 36.2264 167.821 36.2264C170.182 36.2264 172.355 35.3566 174.09 33.8727C171.87 33.8215 170.01 32.2353 169.369 30.0522C169.682 30.1033 169.994 30.1374 170.323 30.1374C170.776 30.1374 171.229 30.0692 171.652 29.9498C169.338 29.4381 167.602 27.2209 167.602 24.5431V24.4749C168.274 24.8843 169.056 25.1401 169.885 25.1742C168.525 24.1849 167.633 22.4964 167.633 20.5862C167.633 19.5628 167.884 18.6248 168.321 17.8061C170.807 21.149 174.544 23.3321 178.734 23.5709C178.656 23.1616 178.609 22.7352 178.609 22.3088C178.609 19.2729 180.86 16.7998 183.659 16.7998C185.113 16.7998 186.426 17.465 187.348 18.5395C188.49 18.3007 189.584 17.8402 190.554 17.2091C190.178 18.4884 189.381 19.5629 188.333 20.2451C189.35 20.1257 190.335 19.8187 191.241 19.3923C190.554 20.4838 189.694 21.456 188.709 22.2406V22.2406Z" fill="#216FED"/>
</svg>
