<svg width="136" height="24" viewBox="0 0 136 24" fill="none" xmlns="http://www.w3.org/2000/svg">
<path d="M133.389 11.6C133.664 11.3192 133.855 10.9676 133.942 10.5844C134.028 10.2013 134.007 9.80159 133.879 9.43C133.76 9.05731 133.538 8.72568 133.239 8.47286C132.941 8.22004 132.577 8.0562 132.189 8L127.899 7.34C127.879 7.3342 127.861 7.32401 127.845 7.31017C127.83 7.29633 127.818 7.27919 127.809 7.26L125.929 3.26C125.765 2.88544 125.494 2.5669 125.152 2.34319C124.809 2.11948 124.409 2.00024 123.999 2C123.595 1.99833 123.199 2.11352 122.858 2.33172C122.517 2.54992 122.247 2.86184 122.079 3.23L120.199 7.23C120.189 7.2495 120.175 7.26667 120.158 7.28044C120.141 7.29421 120.121 7.30427 120.099 7.31L115.819 8C115.432 8.05779 115.067 8.22205 114.767 8.4745C114.467 8.72696 114.243 9.05772 114.119 9.43C113.997 9.80288 113.978 10.2022 114.067 10.5848C114.155 10.9673 114.346 11.3184 114.619 11.6L117.779 14.85C117.789 14.8705 117.793 14.8926 117.793 14.915C117.793 14.9374 117.789 14.9595 117.779 14.98L117.039 19.52C116.971 19.9154 117.016 20.3222 117.169 20.6931C117.322 21.064 117.577 21.3837 117.905 21.6152C118.233 21.8467 118.62 21.9804 119.021 22.0007C119.422 22.021 119.82 21.9271 120.169 21.73L123.899 19.66C123.918 19.6503 123.939 19.6453 123.959 19.6453C123.98 19.6453 124.001 19.6503 124.019 19.66L127.749 21.73C128.099 21.9229 128.497 22.0134 128.896 21.9912C129.295 21.969 129.68 21.835 130.006 21.6045C130.333 21.374 130.588 21.0563 130.742 20.6876C130.896 20.319 130.944 19.9144 130.879 19.52L130.189 15C130.179 14.9818 130.173 14.9611 130.173 14.94C130.173 14.9189 130.179 14.8982 130.189 14.88L133.389 11.6Z" fill="#FF8723"/>
<path d="M105.389 11.6C105.664 11.3192 105.855 10.9676 105.942 10.5844C106.028 10.2013 106.007 9.80159 105.879 9.43C105.76 9.05731 105.538 8.72568 105.239 8.47286C104.941 8.22004 104.577 8.0562 104.189 8L99.8994 7.34C99.8794 7.3342 99.861 7.32401 99.8454 7.31017C99.8298 7.29633 99.8176 7.27919 99.8094 7.26L97.9294 3.26C97.7646 2.88544 97.4944 2.5669 97.1517 2.34319C96.809 2.11948 96.4087 2.00024 95.9994 2C95.5949 1.99833 95.1986 2.11352 94.858 2.33172C94.5174 2.54992 94.247 2.86184 94.0794 3.23L92.1994 7.23C92.1892 7.2495 92.175 7.26667 92.1578 7.28044C92.1406 7.29421 92.1207 7.30427 92.0994 7.31L87.8194 8C87.4315 8.05779 87.0673 8.22205 86.7671 8.4745C86.467 8.72696 86.2428 9.05772 86.1194 9.43C85.9967 9.80288 85.9785 10.2022 86.0666 10.5848C86.1548 10.9673 86.3459 11.3184 86.6194 11.6L89.7794 14.85C89.7885 14.8705 89.7932 14.8926 89.7932 14.915C89.7932 14.9374 89.7885 14.9595 89.7794 14.98L89.0394 19.52C88.9707 19.9154 89.0155 20.3222 89.1688 20.6931C89.322 21.064 89.5774 21.3837 89.9053 21.6152C90.2331 21.8467 90.6199 21.9804 91.0207 22.0007C91.4215 22.021 91.8199 21.9271 92.1694 21.73L95.8994 19.66C95.918 19.6503 95.9386 19.6453 95.9594 19.6453C95.9803 19.6453 96.0009 19.6503 96.0194 19.66L99.7494 21.73C100.099 21.9229 100.497 22.0134 100.896 21.9912C101.295 21.969 101.68 21.835 102.006 21.6045C102.333 21.374 102.588 21.0563 102.742 20.6876C102.896 20.319 102.944 19.9144 102.879 19.52L102.189 15C102.179 14.9818 102.173 14.9611 102.173 14.94C102.173 14.9189 102.179 14.8982 102.189 14.88L105.389 11.6Z" fill="#FF8723"/>
<path d="M77.3894 11.6C77.6641 11.3192 77.8554 10.9676 77.9419 10.5844C78.0285 10.2013 78.0068 9.80159 77.8794 9.43C77.7599 9.05731 77.5381 8.72568 77.2393 8.47286C76.9406 8.22004 76.5768 8.0562 76.1894 8L71.8994 7.34C71.8794 7.3342 71.861 7.32401 71.8454 7.31017C71.8298 7.29633 71.8176 7.27919 71.8094 7.26L69.9294 3.26C69.7646 2.88544 69.4944 2.5669 69.1517 2.34319C68.809 2.11948 68.4087 2.00024 67.9994 2C67.5949 1.99833 67.1986 2.11352 66.858 2.33172C66.5174 2.54992 66.247 2.86184 66.0794 3.23L64.1994 7.23C64.1892 7.2495 64.175 7.26667 64.1578 7.28044C64.1406 7.29421 64.1207 7.30427 64.0994 7.31L59.8194 8C59.4315 8.05779 59.0673 8.22205 58.7671 8.4745C58.467 8.72696 58.2428 9.05772 58.1194 9.43C57.9967 9.80288 57.9785 10.2022 58.0666 10.5848C58.1548 10.9673 58.3459 11.3184 58.6194 11.6L61.7794 14.85C61.7885 14.8705 61.7932 14.8926 61.7932 14.915C61.7932 14.9374 61.7885 14.9595 61.7794 14.98L61.0394 19.52C60.9707 19.9154 61.0155 20.3222 61.1688 20.6931C61.322 21.064 61.5774 21.3837 61.9053 21.6152C62.2331 21.8467 62.6199 21.9804 63.0207 22.0007C63.4215 22.021 63.8199 21.9271 64.1694 21.73L67.8994 19.66C67.918 19.6503 67.9386 19.6453 67.9594 19.6453C67.9803 19.6453 68.0009 19.6503 68.0194 19.66L71.7494 21.73C72.0995 21.9229 72.4967 22.0134 72.8958 21.9912C73.2948 21.969 73.6796 21.835 74.006 21.6045C74.3325 21.374 74.5876 21.0563 74.742 20.6876C74.8965 20.319 74.9441 19.9144 74.8794 19.52L74.1894 15C74.1789 14.9818 74.1734 14.9611 74.1734 14.94C74.1734 14.9189 74.1789 14.8982 74.1894 14.88L77.3894 11.6Z" fill="#FF8723"/>
<path d="M49.3894 11.6C49.6641 11.3192 49.8554 10.9676 49.9419 10.5844C50.0285 10.2013 50.0068 9.80159 49.8794 9.43C49.7599 9.05731 49.5381 8.72568 49.2393 8.47286C48.9406 8.22004 48.5768 8.0562 48.1894 8L43.8994 7.34C43.8794 7.3342 43.861 7.32401 43.8454 7.31017C43.8298 7.29633 43.8176 7.27919 43.8094 7.26L41.9294 3.26C41.7646 2.88544 41.4944 2.5669 41.1517 2.34319C40.809 2.11948 40.4087 2.00024 39.9994 2C39.5949 1.99833 39.1986 2.11352 38.858 2.33172C38.5174 2.54992 38.247 2.86184 38.0794 3.23L36.1994 7.23C36.1892 7.2495 36.175 7.26667 36.1578 7.28044C36.1406 7.29421 36.1207 7.30427 36.0994 7.31L31.8194 8C31.4315 8.05779 31.0673 8.22205 30.7671 8.4745C30.467 8.72696 30.2428 9.05772 30.1194 9.43C29.9967 9.80288 29.9785 10.2022 30.0666 10.5848C30.1548 10.9673 30.3459 11.3184 30.6194 11.6L33.7794 14.85C33.7885 14.8705 33.7932 14.8926 33.7932 14.915C33.7932 14.9374 33.7885 14.9595 33.7794 14.98L33.0394 19.52C32.9707 19.9154 33.0155 20.3222 33.1688 20.6931C33.322 21.064 33.5774 21.3837 33.9053 21.6152C34.2331 21.8467 34.6199 21.9804 35.0207 22.0007C35.4215 22.021 35.8199 21.9271 36.1694 21.73L39.8994 19.66C39.918 19.6503 39.9386 19.6453 39.9594 19.6453C39.9803 19.6453 40.0009 19.6503 40.0194 19.66L43.7494 21.73C44.0995 21.9229 44.4967 22.0134 44.8958 21.9912C45.2948 21.969 45.6796 21.835 46.006 21.6045C46.3325 21.374 46.5876 21.0563 46.742 20.6876C46.8965 20.319 46.9441 19.9144 46.8794 19.52L46.1894 15C46.1789 14.9818 46.1734 14.9611 46.1734 14.94C46.1734 14.9189 46.1789 14.8982 46.1894 14.88L49.3894 11.6Z" fill="#FF8723"/>
<path d="M21.3894 11.6C21.6641 11.3192 21.8554 10.9676 21.9419 10.5844C22.0285 10.2013 22.0068 9.80159 21.8794 9.43C21.7599 9.05731 21.5381 8.72568 21.2393 8.47286C20.9406 8.22004 20.5768 8.0562 20.1894 8L15.8994 7.34C15.8794 7.3342 15.861 7.32401 15.8454 7.31017C15.8298 7.29633 15.8176 7.27919 15.8094 7.26L13.9294 3.26C13.7646 2.88544 13.4944 2.5669 13.1517 2.34319C12.809 2.11948 12.4087 2.00024 11.9994 2C11.5949 1.99833 11.1986 2.11352 10.858 2.33172C10.5174 2.54992 10.247 2.86184 10.0794 3.23L8.19945 7.23C8.18919 7.2495 8.17501 7.26667 8.1578 7.28044C8.14059 7.29421 8.12073 7.30427 8.09945 7.31L3.81945 8C3.43154 8.05779 3.06727 8.22205 2.76715 8.4745C2.46702 8.72696 2.24281 9.05772 2.11945 9.43C1.99675 9.80288 1.97847 10.2022 2.06662 10.5848C2.15476 10.9673 2.34594 11.3184 2.61945 11.6L5.77945 14.85C5.78855 14.8705 5.79325 14.8926 5.79325 14.915C5.79325 14.9374 5.78855 14.9595 5.77945 14.98L5.03945 19.52C4.97066 19.9154 5.0155 20.3222 5.16877 20.6931C5.32205 21.064 5.57745 21.3837 5.90528 21.6152C6.23312 21.8467 6.61993 21.9804 7.02073 22.0007C7.42154 22.021 7.81988 21.9271 8.16945 21.73L11.8994 19.66C11.918 19.6503 11.9386 19.6453 11.9594 19.6453C11.9803 19.6453 12.0009 19.6503 12.0194 19.66L15.7494 21.73C16.0995 21.9229 16.4967 22.0134 16.8958 21.9912C17.2948 21.969 17.6796 21.835 18.006 21.6045C18.3325 21.374 18.5876 21.0563 18.742 20.6876C18.8965 20.319 18.9441 19.9144 18.8794 19.52L18.1894 15C18.1789 14.9818 18.1734 14.9611 18.1734 14.94C18.1734 14.9189 18.1789 14.8982 18.1894 14.88L21.3894 11.6Z" fill="#FF8723"/>
</svg>
