<svg width="425" height="402" viewBox="0 0 425 402" fill="none" xmlns="http://www.w3.org/2000/svg">
<path d="M388.103 115.636C416.623 188.052 393.136 296.331 322.005 353.574C250.538 410.818 131.427 417.025 67.0065 364.609C2.25034 312.194 -7.47986 200.811 23.3884 124.947C54.2566 49.4272 126.059 9.77084 202.223 8.04665C278.722 6.66729 359.584 43.565 388.103 115.636Z" stroke="#FABB3D"/>
<path d="M415.854 121.941C445.399 197.315 395.911 317.23 317.617 369.383C239.692 421.536 132.592 405.928 69.4397 352.633C6.28734 299.718 -13.6555 209.116 10.3498 141.355C34.355 73.975 101.939 29.8161 189.835 22.9638C277.732 16.1116 386.309 46.566 415.854 121.941Z" stroke="#FABB3D"/>
<circle cx="401.469" cy="268.814" r="9.5111" fill="#53B004"/>
<circle cx="386.451" cy="115.635" r="6.5076" fill="#53B004"/>
<circle cx="30.0351" cy="313.866" r="14.5169" fill="#53B004"/>
<circle cx="195.728" cy="8.00935" r="8.00935" fill="#53B004"/>
</svg>
