<svg width="156" height="24" viewBox="0 0 156 24" fill="none" xmlns="http://www.w3.org/2000/svg">
<path d="M110.458 6.01253C109.688 6.35388 108.861 6.58456 107.993 6.68829C108.879 6.15716 109.559 5.31614 109.88 4.31396C109.051 4.80581 108.132 5.16295 107.155 5.35536C106.372 4.52129 105.257 4.00018 104.022 4.00018C101.652 4.00018 99.7304 5.92162 99.7304 8.29167C99.7304 8.62801 99.7684 8.95557 99.8416 9.2697C96.2749 9.09071 93.1126 7.38216 90.9959 4.78568C90.6265 5.41951 90.4149 6.15671 90.4149 6.94323C90.4149 8.43216 91.1725 9.74573 92.3241 10.5154C91.6206 10.493 90.9588 10.3 90.3803 9.97855C90.3798 9.99648 90.3798 10.0144 90.3798 10.0325C90.3798 12.1119 91.8592 13.8463 93.8224 14.2406C93.4623 14.3387 93.0832 14.3912 92.6918 14.3912C92.4152 14.3912 92.1464 14.3642 91.8843 14.3142C92.4304 16.0191 94.0153 17.26 95.8933 17.2945C94.4246 18.4457 92.5741 19.1318 90.5634 19.1318C90.217 19.1318 89.8754 19.1114 89.5396 19.0717C91.4389 20.2893 93.6947 20.9999 96.1183 20.9999C104.012 20.9999 108.329 14.4605 108.329 8.78929C108.329 8.60325 108.325 8.41817 108.316 8.23407C109.155 7.62899 109.882 6.87316 110.458 6.01253Z" fill="#010101"/>
<path d="M56.0001 2.00233C50.4782 2.00233 46.0013 6.47927 46.0013 12.0012C46.0013 16.9911 49.6572 21.127 54.4381 21.88V14.8921H51.8982V12.0012H54.4381V9.79822C54.4381 7.29025 55.9311 5.90727 58.2141 5.90727C59.308 5.90727 60.454 6.10227 60.454 6.10227V8.56123H59.1901C57.9501 8.56123 57.5621 9.33322 57.5621 10.1242V11.9992H60.333L59.89 14.8901H57.5621V21.878C62.343 21.129 65.9989 16.9921 65.9989 12.0012C65.9989 6.47927 61.522 2.00233 56.0001 2.00233Z" fill="#010101"/>
<path d="M20.2827 10.3562H11.9558V13.8072H16.7477C16.3017 16.0001 14.4348 17.2601 11.9558 17.2601C9.03283 17.2601 6.67687 14.9041 6.67687 11.9802C6.67687 9.05723 9.03283 6.70127 11.9558 6.70127C13.2148 6.70127 14.3528 7.14826 15.2457 7.87925L17.8457 5.28029C16.2617 3.89931 14.2308 3.04732 11.9558 3.04732C7.00187 3.04732 3.02193 7.02626 3.02193 11.9812C3.02193 16.9361 7.00087 20.915 11.9558 20.915C16.4227 20.915 20.4847 17.6661 20.4847 11.9812C20.4847 11.4532 20.4037 10.8842 20.2827 10.3562Z" fill="#010101"/>
<path d="M143.997 7.37689C141.443 7.37689 139.374 9.44686 139.374 11.9998C139.374 14.5538 141.443 16.6237 143.997 16.6237C146.549 16.6237 148.62 14.5538 148.62 11.9998C148.62 9.44686 146.549 7.37689 143.997 7.37689ZM143.997 15.0038C142.338 15.0038 140.993 13.6588 140.993 12.0008C140.993 10.3418 142.338 8.99786 143.997 8.99786C145.656 8.99786 146.999 10.3418 146.999 12.0008C146.999 13.6588 145.656 15.0038 143.997 15.0038Z" fill="#010101"/>
<path d="M148.804 8.28487C149.399 8.28487 149.882 7.80224 149.882 7.20689C149.882 6.61154 149.399 6.12891 148.804 6.12891C148.208 6.12891 147.726 6.61154 147.726 7.20689C147.726 7.80224 148.208 8.28487 148.804 8.28487Z" fill="#010101"/>
<path d="M152.531 6.11091C152.062 4.90193 151.107 3.94594 149.898 3.47895C149.199 3.21595 148.46 3.07495 147.712 3.05895C146.749 3.01695 146.444 3.00496 144.002 3.00496C141.56 3.00496 141.247 3.00496 140.292 3.05895C139.546 3.07395 138.807 3.21495 138.108 3.47895C136.898 3.94594 135.943 4.90193 135.475 6.11091C135.212 6.8109 135.071 7.54889 135.056 8.29687C135.013 9.25886 135 9.56385 135 12.0068C135 14.4488 135 14.7598 135.056 15.7168C135.071 16.4647 135.212 17.2027 135.475 17.9037C135.944 19.1117 136.899 20.0677 138.109 20.5357C138.805 20.8077 139.544 20.9617 140.294 20.9857C141.257 21.0277 141.562 21.0407 144.004 21.0407C146.446 21.0407 146.759 21.0407 147.714 20.9857C148.461 20.9707 149.2 20.8287 149.9 20.5667C151.109 20.0977 152.064 19.1427 152.533 17.9337C152.796 17.2337 152.937 16.4957 152.952 15.7478C152.995 14.7858 153.008 14.4808 153.008 12.0378C153.008 9.59485 153.008 9.28486 152.952 8.32787C152.939 7.56989 152.799 6.8189 152.531 6.11091ZM151.313 15.6428C151.306 16.2188 151.202 16.7897 151.002 17.3307C150.697 18.1177 150.076 18.7397 149.29 19.0417C148.755 19.2407 148.191 19.3447 147.62 19.3527C146.67 19.3967 146.402 19.4077 143.966 19.4077C141.528 19.4077 141.279 19.4077 140.311 19.3527C139.742 19.3457 139.176 19.2407 138.642 19.0417C137.853 18.7407 137.228 18.1187 136.923 17.3307C136.727 16.7967 136.621 16.2318 136.612 15.6618C136.569 14.7118 136.559 14.4438 136.559 12.0078C136.559 9.57086 136.559 9.32186 136.612 8.35287C136.619 7.77688 136.723 7.20689 136.923 6.6659C137.228 5.87691 137.853 5.25592 138.642 4.95393C139.176 4.75593 139.742 4.65093 140.311 4.64293C141.262 4.59993 141.529 4.58793 143.966 4.58793C146.403 4.58793 146.653 4.58793 147.62 4.64293C148.191 4.64993 148.755 4.75493 149.29 4.95393C150.076 5.25692 150.697 5.87891 151.002 6.6659C151.198 7.19989 151.304 7.76488 151.313 8.33487C151.356 9.28586 151.367 9.55285 151.367 11.9898C151.367 14.4258 151.367 14.6878 151.324 15.6438H151.313V15.6428Z" fill="#010101"/>
</svg>
