<svg width="164" height="25" viewBox="0 0 164 25" fill="none" xmlns="http://www.w3.org/2000/svg">
<g clip-path="url(#clip0_2_1373)">
<path d="M19.5312 1.5625H2.34375C1.04932 1.5625 0 2.61182 0 3.90625V21.0938C0 22.3882 1.04932 23.4375 2.34375 23.4375H19.5312C20.8257 23.4375 21.875 22.3882 21.875 21.0938V3.90625C21.875 2.61182 20.8257 1.5625 19.5312 1.5625ZM5.46875 20.3125C4.17432 20.3125 3.125 19.2632 3.125 17.9688C3.125 16.6743 4.17432 15.625 5.46875 15.625C6.76318 15.625 7.8125 16.6743 7.8125 17.9688C7.8125 19.2632 6.76318 20.3125 5.46875 20.3125ZM13.1608 20.3125H11.4843C11.1908 20.3125 10.9447 20.0861 10.9256 19.7933C10.671 15.8846 7.54458 12.7659 3.64419 12.5119C3.35137 12.4928 3.125 12.2467 3.125 11.9532V10.2767C3.125 9.95762 3.39199 9.70166 3.71064 9.71885C9.1084 10.0105 13.4273 14.3349 13.7187 19.7269C13.7358 20.0455 13.4799 20.3125 13.1608 20.3125ZM18.1914 20.3125H16.5149C16.2141 20.3125 15.9693 20.0741 15.957 19.7735C15.6836 13.1068 10.3318 7.75395 3.66401 7.48057C3.36338 7.46821 3.125 7.22339 3.125 6.92256V5.24609C3.125 4.93096 3.38564 4.67656 3.70054 4.68789C11.8954 4.98208 18.4569 11.582 18.7496 19.737C18.7609 20.0519 18.5065 20.3125 18.1914 20.3125V20.3125Z" fill="#FEA400"/>
</g>
<g clip-path="url(#clip1_2_1373)">
<path d="M67.6562 21.875H47.3438C46.9141 21.875 46.5625 22.2266 46.5625 22.6562V24.2188C46.5625 24.6484 46.9141 25 47.3438 25H67.6562C68.0859 25 68.4375 24.6484 68.4375 24.2188V22.6562C68.4375 22.2266 68.0859 21.875 67.6562 21.875ZM70.7812 6.25C69.4873 6.25 68.4375 7.2998 68.4375 8.59375C68.4375 8.94043 68.5156 9.2627 68.6523 9.56055L65.1172 11.6797C64.3652 12.1289 63.3936 11.875 62.959 11.1133L58.9795 4.15039C59.502 3.7207 59.8438 3.07617 59.8438 2.34375C59.8438 1.0498 58.7939 0 57.5 0C56.2061 0 55.1562 1.0498 55.1562 2.34375C55.1562 3.07617 55.498 3.7207 56.0205 4.15039L52.041 11.1133C51.6064 11.875 50.6299 12.1289 49.8828 11.6797L46.3525 9.56055C46.4844 9.26758 46.5674 8.94043 46.5674 8.59375C46.5674 7.2998 45.5176 6.25 44.2236 6.25C42.9297 6.25 41.875 7.2998 41.875 8.59375C41.875 9.8877 42.9248 10.9375 44.2188 10.9375C44.3457 10.9375 44.4727 10.918 44.5947 10.8984L48.125 20.3125H66.875L70.4053 10.8984C70.5273 10.918 70.6543 10.9375 70.7812 10.9375C72.0752 10.9375 73.125 9.8877 73.125 8.59375C73.125 7.2998 72.0752 6.25 70.7812 6.25Z" fill="#FEA400"/>
</g>
<g clip-path="url(#clip2_2_1373)">
<path d="M101.533 11.0741C100.82 10.9325 100.156 11.5086 100.156 12.2362V14.6971C100.156 15.1952 100.503 15.5955 100.972 15.7713C101.86 16.1034 102.5 16.9627 102.5 17.9686C102.5 19.2625 101.45 20.3123 100.156 20.3123C98.8623 20.3123 97.8125 19.2625 97.8125 17.9686V5.85922C97.8125 5.2098 97.29 4.68734 96.6406 4.68734H94.2969C93.6475 4.68734 93.125 5.2098 93.125 5.85922V17.9686C93.125 22.3387 97.1338 25.7909 101.67 24.8387C104.326 24.2821 106.47 22.1336 107.026 19.4823C107.876 15.4344 105.22 11.8065 101.533 11.0741ZM103.33 -0.000159358C102.881 -0.0245734 102.5 0.331872 102.5 0.781091V2.32406C102.5 2.7391 102.822 3.0809 103.232 3.10043C109.551 3.44222 114.629 8.56918 114.995 14.8924C115.02 15.3026 115.361 15.6248 115.771 15.6248H117.339C117.788 15.6248 118.145 15.244 118.12 14.7948C117.705 6.82601 111.299 0.419763 103.33 -0.000159358ZM103.345 4.68734C102.891 4.65316 102.5 5.01449 102.5 5.47347V7.04086C102.5 7.45101 102.817 7.78793 103.223 7.81722C106.973 8.12484 109.961 11.1473 110.298 14.9071C110.337 15.3123 110.669 15.6248 111.074 15.6248H112.646C113.101 15.6248 113.467 15.2342 113.433 14.7801C113.022 9.40414 108.721 5.10238 103.345 4.68734V4.68734Z" fill="#FEA400"/>
</g>
<g clip-path="url(#clip3_2_1373)">
<path d="M145.816 13.2812H147.621L146.719 10.6826L145.816 13.2812ZM155.312 12.5C154.667 12.5 154.141 13.0259 154.141 13.6719C154.141 14.3179 154.667 14.8438 155.312 14.8438C155.958 14.8438 156.484 14.3179 156.484 13.6719C156.484 13.0259 155.958 12.5 155.312 12.5ZM160.781 3.125H140.469C139.175 3.125 138.125 4.1748 138.125 5.46875V19.5312C138.125 20.8252 139.175 21.875 140.469 21.875H160.781C162.075 21.875 163.125 20.8252 163.125 19.5312V5.46875C163.125 4.1748 162.075 3.125 160.781 3.125ZM150.36 17.1875H149.533C149.201 17.1875 148.904 16.9766 148.795 16.6626L148.435 15.625H145.003L144.643 16.6626C144.589 16.816 144.49 16.9489 144.357 17.043C144.225 17.137 144.067 17.1876 143.904 17.1875H143.077C142.54 17.1875 142.163 16.6577 142.339 16.1499L144.961 8.59961C145.041 8.36968 145.19 8.17034 145.389 8.02929C145.587 7.88823 145.824 7.81246 146.068 7.8125H147.37C147.613 7.81246 147.851 7.88829 148.049 8.02944C148.247 8.17059 148.397 8.37006 148.477 8.6001L151.098 16.1499C151.274 16.6577 150.897 17.1875 150.36 17.1875V17.1875ZM158.828 16.4062C158.828 16.8379 158.479 17.1875 158.047 17.1875H157.266C157.029 17.1875 156.824 17.0767 156.681 16.9102C156.26 17.0889 155.797 17.1875 155.312 17.1875C153.374 17.1875 151.797 15.6104 151.797 13.6719C151.797 11.7334 153.374 10.1562 155.312 10.1562C155.726 10.1562 156.116 10.2407 156.484 10.3721V8.59375C156.484 8.16211 156.834 7.8125 157.266 7.8125H158.047C158.479 7.8125 158.828 8.16211 158.828 8.59375V16.4062Z" fill="#FEA400"/>
</g>
<defs>
<clipPath id="clip0_2_1373">
<rect width="21.875" height="25" fill="white"/>
</clipPath>
<clipPath id="clip1_2_1373">
<rect width="31.25" height="25" fill="white" transform="translate(41.875)"/>
</clipPath>
<clipPath id="clip2_2_1373">
<rect width="25" height="25" fill="white" transform="translate(93.125)"/>
</clipPath>
<clipPath id="clip3_2_1373">
<rect width="25" height="25" fill="white" transform="translate(138.125)"/>
</clipPath>
</defs>
</svg>
