<svg width="1113" height="176" viewBox="0 0 1113 176" fill="none" xmlns="http://www.w3.org/2000/svg">
<rect width="1113" height="176" fill="white"/>
<path fill-rule="evenodd" clip-rule="evenodd" d="M970.199 86.5658V83.4551H957.266V86.5658H961.768V98.845H957.266V101.955H970.199V98.845H965.288V86.5658H970.199Z" fill="black" fill-opacity="0.25098"/>
<path fill-rule="evenodd" clip-rule="evenodd" d="M991.688 86.6892H986.531V91.7645C986.531 91.7645 989.314 91.6828 991.606 91.6828C993.898 91.6828 994.47 91.1917 994.47 88.8993C994.47 86.2803 991.688 86.6892 991.688 86.6892" fill="black" fill-opacity="0.25098"/>
<path fill-rule="evenodd" clip-rule="evenodd" d="M998.154 97.4936V101.751H994.471V97.7392C994.471 97.7392 994.471 94.6291 992.342 94.6291C990.214 94.6291 986.531 94.7107 986.531 94.7107V101.832H982.928V83.4962H993.57C993.57 83.4962 998.154 83.2506 998.154 88.2436C998.154 93.2373 995.371 93.4829 995.371 93.4829C995.371 93.4829 998.154 93.6462 998.154 97.4936V97.4936ZM976.789 106.416H1003.56V79.1582H976.789V106.416Z" fill="black" fill-opacity="0.25098"/>
<path fill-rule="evenodd" clip-rule="evenodd" d="M1008.47 83.4961V86.5252H1011.01V98.8853H1008.47V101.914H1024.1V95.9385H1020.99V98.8853H1014.36V93.8923H1019.27V90.8632H1014.36V86.5252H1020.75V89.4714H1024.1V83.4961H1008.47Z" fill="black" fill-opacity="0.25098"/>
<path fill-rule="evenodd" clip-rule="evenodd" d="M1045.39 86.6082H1039.82V98.8867H1045.63C1048.42 98.8867 1048.5 95.2848 1048.5 95.2848V90.5373C1048.5 86.362 1045.39 86.6082 1045.39 86.6082" fill="black" fill-opacity="0.25098"/>
<path fill-rule="evenodd" clip-rule="evenodd" d="M1045.8 102.078C1039.08 102.078 1036.05 102.16 1036.05 102.16V83.5785H1043.99C1043.99 83.5785 1052.18 82.6785 1052.18 90.0455V95.2025C1052.18 95.2025 1052.51 102.078 1045.8 102.078V102.078ZM1030.08 106.416H1056.85V79.1582H1030.08V106.416Z" fill="black" fill-opacity="0.25098"/>
<path fill-rule="evenodd" clip-rule="evenodd" d="M944.537 101.915H939.953L937.006 88.5715L933.813 101.996H929.312L925.546 83.5785H929.229L931.767 97.5766L935.041 83.5785L939.052 83.6607L942.327 97.8215L944.782 83.5785H948.302L944.537 101.915ZM923.254 106.416H950.021V79.1582H923.254V106.416Z" fill="black" fill-opacity="0.25098"/>
<mask id="mask0_16_17633" style="mask-type:alpha" maskUnits="userSpaceOnUse" x="909" y="43" width="163" height="100">
<path fill-rule="evenodd" clip-rule="evenodd" d="M909 142.443H1071.1V43.1328H909V142.443Z" fill="white"/>
</mask>
<g mask="url(#mask0_16_17633)">
</g>
<path fill-rule="evenodd" clip-rule="evenodd" d="M745.501 100.306C744.878 100.165 744.379 100.148 743.991 100.042H743.991C743.851 100.004 743.726 99.954 743.614 99.8826C743.443 99.7884 743.301 99.6285 743.209 98.6992L739.141 98.6998C739.064 99.6463 738.949 99.8068 738.798 99.8826C738.673 99.9546 738.542 100.004 738.399 100.042H743.158L738.399 100.043C738.084 100.127 737.711 100.155 737.242 100.235C736.773 100.155 736.4 100.127 736.084 100.042H736.082C735.939 100.004 735.808 99.954 735.686 99.8826C735.573 99.8259 735.481 99.5157 735.409 98.6992C735.325 97.7406 735.27 96.0852 735.243 93.3253C735.235 92.5259 735.229 91.6336 735.227 90.6387L731.314 90.6399C731.335 91.6355 731.349 92.5272 731.356 93.3253H732.312L731.356 93.3259C731.382 96.0973 731.325 97.7431 731.206 98.6979C731.107 99.4807 730.966 99.7954 730.793 99.8826C730.68 99.954 730.59 100.004 730.501 100.042H731.333H730.501C730.254 100.148 730.019 100.165 729.367 100.306C729.059 100.383 729.136 100.769 729.329 100.73C730.446 100.653 731.487 100.614 733.259 100.614C734.645 100.614 735.793 100.635 736.7 100.674C737.212 100.688 737.232 100.688 737.783 100.674C738.691 100.635 739.838 100.614 741.224 100.614C742.996 100.614 744.422 100.653 745.54 100.73C745.732 100.769 745.809 100.383 745.501 100.306" fill="black" fill-opacity="0.25098"/>
<path fill-rule="evenodd" clip-rule="evenodd" d="M812.353 101.078C813.638 101.078 814.931 100.691 816.034 100.044L807.871 100.043C809.097 100.704 810.592 101.078 812.353 101.078" fill="black" fill-opacity="0.25098"/>
<path fill-rule="evenodd" clip-rule="evenodd" d="M752.887 101.078C754.113 101.078 755.215 100.667 756.165 100.043L749.055 100.044C750.129 100.711 751.42 101.078 752.887 101.078" fill="black" fill-opacity="0.25098"/>
<path fill-rule="evenodd" clip-rule="evenodd" d="M796.416 101.078C797.701 101.078 798.994 100.691 800.097 100.044L791.934 100.043C793.159 100.704 794.655 101.078 796.416 101.078" fill="black" fill-opacity="0.25098"/>
<path fill-rule="evenodd" clip-rule="evenodd" d="M838.731 100.306C838.023 100.165 837.71 100.148 837.319 100.042H836.393H837.319C837.178 100.004 837.027 99.9542 836.843 99.8828C836.643 99.8159 836.187 99.3886 835.544 98.6981H835.544C834.441 97.5121 832.785 95.5554 830.915 93.3255C830.192 92.4618 829.435 91.5567 828.666 90.6395L827.297 90.6389H828.666C828.579 90.5357 828.492 90.4319 828.405 90.3274C831.697 87.1389 833.34 85.7503 834.286 85.2663L830.944 85.2656C831.1 85.4382 831.14 85.6077 831.14 85.7421C831.14 86.0892 829.83 87.6688 827.095 90.4427C827.027 90.5108 826.958 90.5758 826.888 90.6389C826.325 91.1478 825.704 91.4828 825.053 91.4828V90.6389H821.229C821.225 91.6395 821.218 92.5312 821.209 93.3255C821.179 96.2064 821.125 97.8032 821.051 98.6987L825.207 98.6994C825.123 97.6752 825.084 95.9427 825.06 93.3255C825.058 93.0306 825.055 92.7249 825.053 92.4083C825.579 92.5058 825.936 92.7166 826.531 93.3261H826.532C826.635 93.4319 826.745 93.5491 826.864 93.6796C828.925 96.0491 830.21 97.73 830.848 98.6994C831.164 99.1796 831.32 99.4854 831.334 99.6128C831.334 99.7949 831.29 99.9338 831.102 100.042H831.101C830.891 100.163 830.502 100.245 829.792 100.306C829.523 100.345 829.599 100.769 829.792 100.731C830.755 100.654 832.451 100.615 834.377 100.615C836.265 100.615 837.768 100.654 838.731 100.731C838.924 100.769 839.078 100.383 838.731 100.306" fill="black" fill-opacity="0.25098"/>
<path fill-rule="evenodd" clip-rule="evenodd" d="M716.5 100.307C715.849 100.166 715.551 100.149 715.255 100.043C715.149 100.005 715.042 99.9548 714.92 99.8835C714.768 99.7892 714.701 99.63 714.658 98.7001C714.616 97.8128 714.597 96.2255 714.549 93.3262L710.642 93.3268C710.635 96.2122 710.587 97.8071 710.51 98.7001H713.753L710.51 98.7007C710.428 99.6472 710.314 99.8077 710.181 99.8835C710.059 99.9548 709.928 100.005 709.786 100.043H712.521H709.786C709.391 100.149 708.906 100.166 708.255 100.307C707.946 100.384 708.023 100.769 708.216 100.731C709.179 100.654 710.681 100.615 712.609 100.615C714.381 100.615 715.421 100.654 716.539 100.731C716.731 100.769 716.808 100.384 716.5 100.307" fill="black" fill-opacity="0.25098"/>
<path fill-rule="evenodd" clip-rule="evenodd" d="M827.175 100.306C826.524 100.165 826.163 100.148 825.835 100.042H823.09H825.835C825.716 100.004 825.602 99.954 825.48 99.8827C825.357 99.8215 825.272 99.4502 825.209 98.6999L821.054 98.6992C820.972 99.6878 820.865 99.8196 820.74 99.8827C820.618 99.954 820.488 100.004 820.345 100.042C819.95 100.148 819.465 100.165 818.814 100.306C818.544 100.383 818.583 100.769 818.775 100.73C819.777 100.653 821.126 100.615 823.052 100.615C824.825 100.615 826.096 100.653 827.214 100.73C827.368 100.769 827.445 100.383 827.175 100.306" fill="black" fill-opacity="0.25098"/>
<path fill-rule="evenodd" clip-rule="evenodd" d="M720.469 99.8827C720.346 99.954 720.248 100.004 720.153 100.042H722.913H720.153C719.891 100.148 719.656 100.165 719.004 100.306C718.696 100.383 718.773 100.769 718.966 100.73C720.083 100.653 721.123 100.615 722.896 100.615C724.822 100.615 726.055 100.653 727.018 100.73C727.211 100.769 727.288 100.383 726.98 100.306C726.328 100.165 725.99 100.148 725.672 100.042H725.671C725.557 100.004 725.445 99.954 725.323 99.8827C725.214 99.8202 725.118 99.5699 725.042 98.6992H720.865C720.768 99.4858 720.629 99.7948 720.469 99.8827" fill="black" fill-opacity="0.25098"/>
<path fill-rule="evenodd" clip-rule="evenodd" d="M757.818 97.8401C757.484 98.1586 757.097 98.458 756.677 98.6987H756.915L756.677 98.6994C756.08 99.0408 755.415 99.2656 754.736 99.2656C753.953 99.2656 753.256 99.0644 752.653 98.7C751.1 97.7618 750.167 95.7472 749.963 93.3255L747.497 93.3249H749.963C749.934 92.9879 749.92 92.6433 749.92 92.2924C749.92 91.7083 749.936 91.1567 749.969 90.6389C750.152 87.751 750.876 85.9083 752.475 85.2656L749.897 85.2669C747.832 86.3975 746.304 88.2962 745.752 90.6389C745.605 91.2631 745.527 91.9198 745.527 92.6007C745.527 92.8459 745.534 93.0873 745.548 93.3255C745.672 95.5038 746.359 97.3529 747.501 98.6994C747.95 99.2287 748.471 99.6803 749.055 100.043L756.164 100.042C756.747 99.6593 757.273 99.1968 757.734 98.6994H757.735C757.844 98.5803 757.948 98.4618 758.05 98.3414C758.088 98.3032 758.359 98.3803 758.359 98.4956C758.364 98.5624 758.371 98.63 758.379 98.6987C758.429 99.1357 758.514 99.6096 758.61 100.042H761.043H758.61C758.69 100.406 758.778 100.741 758.859 101C758.897 101.193 759.09 101.27 759.206 101.193C760.139 100.793 762.053 100.392 763.476 100.042H763.477C763.697 99.9879 763.908 99.9344 764.099 99.8828C764.292 99.844 764.408 99.5357 764.06 99.5357C763.059 99.5357 762.827 99.3051 762.48 98.9191C762.439 98.8644 762.401 98.7987 762.365 98.6994C762.206 98.2535 762.109 97.137 762.131 93.3261L758.309 93.3255L758.242 96.8771C758.242 97.3013 758.127 97.4943 757.818 97.8401" fill="black" fill-opacity="0.25098"/>
<path fill-rule="evenodd" clip-rule="evenodd" d="M739.258 93.3268C739.253 96.2122 739.213 97.8071 739.141 98.7001L743.209 98.6988C743.122 97.8115 743.08 96.2249 743.104 93.3262L739.258 93.3268Z" fill="black" fill-opacity="0.25098"/>
<path fill-rule="evenodd" clip-rule="evenodd" d="M810.161 85.2659H810.161C810.681 84.8519 811.345 84.6251 812.196 84.6251C812.88 84.6251 813.409 84.8684 813.814 85.2665H813.815C814.805 86.2391 815.054 88.1302 814.971 89.6334C814.971 89.7111 812.697 89.6722 812.429 89.6722C809.962 89.7111 809.346 89.7493 808.382 89.7493C808.64 87.7111 809.106 86.1047 810.161 85.2659M818.323 96.9933C817.639 97.8551 816.266 98.4652 814.861 98.699H814.854C814.441 98.7684 814.024 98.8041 813.622 98.8041C813.208 98.8041 812.817 98.7684 812.451 98.6984H812.448C809.925 98.2168 808.544 96.1461 808.25 93.3264H805.466L808.25 93.3258C808.21 92.9436 808.19 92.5468 808.19 92.1385C808.19 91.3984 808.19 91.1742 808.278 90.6404L805.684 90.6398L808.278 90.6391C808.287 90.5901 808.295 90.5372 808.305 90.4812C809.269 90.4423 809.77 90.4423 812.429 90.4423C815.857 90.4423 818.825 90.6353 819.093 90.0194C819.443 89.2455 818.952 86.8525 816.989 85.2652H816.987C815.922 84.4022 814.422 83.7773 812.389 83.7773C810.488 83.7773 808.783 84.3187 807.404 85.2659H807.403C805.63 86.4844 804.393 88.371 803.964 90.6391C803.854 91.2187 803.797 91.8226 803.797 92.4461C803.797 92.7436 803.808 93.0372 803.831 93.3264C803.994 95.4449 804.754 97.3226 806.089 98.699C806.598 99.2251 807.192 99.6767 807.868 100.042H816.031C816.662 99.6722 817.231 99.2168 817.699 98.699H817.699C818.107 98.248 818.438 97.7519 818.669 97.2245C818.785 96.9544 818.401 96.8385 818.323 96.9933" fill="black" fill-opacity="0.25098"/>
<path fill-rule="evenodd" clip-rule="evenodd" d="M758.317 92.7546L758.306 93.3253H762.128C762.129 93.1903 762.13 93.0508 762.131 92.9087L762.15 90.6387H758.285C758.313 91.252 758.325 91.952 758.317 92.7546" fill="black" fill-opacity="0.25098"/>
<path fill-rule="evenodd" clip-rule="evenodd" d="M799.037 89.6334C799.037 89.7105 796.764 89.6722 796.494 89.6722C794.028 89.7105 793.412 89.7493 792.449 89.7493C792.707 87.7111 793.172 86.1041 794.226 85.2659H794.228C794.748 84.8519 795.411 84.6251 796.263 84.6251C796.945 84.6251 797.475 84.8684 797.881 85.2665C798.872 86.2385 799.119 88.1302 799.037 89.6334M801.055 85.2646H801.054C799.987 84.4022 798.489 83.7773 796.456 83.7773C794.554 83.7773 792.849 84.3187 791.47 85.2659H791.469C789.696 86.4837 788.46 88.371 788.03 90.6391C787.921 91.2187 787.863 91.8226 787.863 92.4461C787.863 92.7436 787.875 93.0366 787.897 93.3258C788.06 95.4449 788.82 97.3226 790.155 98.699C790.665 99.2245 791.258 99.6767 791.935 100.042H800.098C800.728 99.6716 801.297 99.2162 801.765 98.699H801.766C802.173 98.248 802.504 97.7519 802.736 97.2238C802.852 96.9544 802.467 96.8385 802.39 96.9926C801.705 97.8551 800.332 98.4652 798.926 98.699H798.92C798.507 98.7678 798.091 98.8041 797.689 98.8041C797.274 98.8041 796.884 98.7678 796.517 98.6984H796.514C793.991 98.2168 792.61 96.1455 792.316 93.3258H789.532L792.316 93.3251C792.276 92.9429 792.256 92.5468 792.256 92.1379C792.256 91.3984 792.256 91.1735 792.344 90.6398L789.751 90.6391H792.344C792.352 90.5894 792.362 90.5372 792.372 90.4812C793.335 90.4423 793.836 90.4423 796.494 90.4423C799.924 90.4423 802.891 90.6353 803.16 90.0187C803.509 89.2449 803.017 86.8525 801.055 85.2646" fill="black" fill-opacity="0.25098"/>
<path fill-rule="evenodd" clip-rule="evenodd" d="M725.246 88.0156C726.17 86.9748 726.903 86.4742 728.482 86.4742C730.563 86.4742 731.218 87.7844 731.295 89.7876C731.302 90.0799 731.308 90.364 731.314 90.6392L735.228 90.6385C735.226 90.0111 735.225 89.343 735.225 88.6315C735.225 87.2697 734.891 86.0946 734.134 85.2659L727.173 85.2666C726.378 85.8653 725.633 86.6315 724.938 87.4761C724.899 87.5143 724.629 87.4761 724.591 87.322C724.403 86.5723 724.013 85.8538 723.462 85.2659H716.611C715.888 85.8589 715.192 86.5946 714.496 87.399C714.457 87.4761 714.149 87.399 714.149 87.2838C714.166 86.6723 714.203 85.9398 714.247 85.2659C714.305 84.3704 714.375 83.5787 714.419 83.3143C714.419 83.1602 714.226 82.9296 713.995 83.122C713.147 83.7844 711.79 84.6283 710.424 85.2659H713.134L710.424 85.2666C709.803 85.557 709.179 85.8048 708.601 85.9729C708.447 86.0118 708.331 86.2818 708.64 86.3201C709.564 86.3971 709.834 86.5513 710.181 86.8602C710.506 87.1525 710.611 87.692 710.636 90.6392C710.641 91.1812 710.643 91.8048 710.643 92.5232C710.643 92.8016 710.642 93.0691 710.641 93.3252L714.548 93.3245C714.543 93.0678 714.539 92.801 714.534 92.5232L714.496 90.6392L714.457 88.7857C714.457 88.3232 714.573 88.1309 714.882 87.7844C715.729 86.7825 716.654 86.3589 718.118 86.3589C720.121 86.3589 720.854 87.4379 720.931 89.8646C720.938 90.129 720.945 90.3869 720.952 90.6392C720.978 91.6353 720.995 92.5271 721.005 93.3252C721.04 96.1092 720.982 97.7506 720.865 98.699L725.041 98.6984C724.961 97.7755 724.903 96.1564 724.877 93.3252C724.869 92.5296 724.864 91.6379 724.862 90.6392C724.861 90.2315 724.861 89.8073 724.861 89.3634V89.0175C724.861 88.5933 724.938 88.3621 725.246 88.0156" fill="black" fill-opacity="0.25098"/>
<path fill-rule="evenodd" clip-rule="evenodd" d="M825.104 85.2655L825.211 73.7209C825.211 73.2967 825.249 71.447 825.403 70.9463C825.441 70.7922 825.249 70.5228 825.018 70.6769C823.476 71.64 820.896 72.8342 818.892 73.3737C818.699 73.4126 818.622 73.6814 818.931 73.7209C819.855 73.8362 820.394 73.9903 820.741 74.2215C821.113 74.4444 821.234 75.5648 821.242 85.2661C821.243 85.619 821.243 85.9827 821.243 86.3584C821.243 87.9712 821.239 89.3897 821.233 90.6381L825.057 90.6387V90.4807L825.104 85.2655Z" fill="black" fill-opacity="0.25098"/>
<path fill-rule="evenodd" clip-rule="evenodd" d="M737.294 86.0497C738.18 86.2045 738.45 86.4351 738.797 86.7822C739.122 87.1077 739.227 87.6809 739.252 90.6389C739.257 91.1815 739.259 91.8058 739.259 92.5229C739.259 92.8013 739.259 93.0688 739.258 93.3249L743.104 93.3242C743.106 93.0675 743.109 92.8007 743.112 92.5229L743.137 90.6389L743.189 86.6663C743.189 86.1835 743.194 85.7058 743.201 85.2656H738.722C738.197 85.4612 737.685 85.6153 737.217 85.7038C737.062 85.7421 736.986 85.9726 737.294 86.0497" fill="black" fill-opacity="0.25098"/>
<path fill-rule="evenodd" clip-rule="evenodd" d="M740.955 79.2697C742.573 79.2697 743.459 78.2296 743.459 76.8417C743.459 75.455 742.457 74.4531 741.148 74.4531C739.645 74.4531 738.527 75.455 738.527 77.0735C738.527 78.3448 739.567 79.2697 740.955 79.2697" fill="black" fill-opacity="0.25098"/>
<path fill-rule="evenodd" clip-rule="evenodd" d="M829.061 84.5479C830.169 84.7129 830.7 84.9938 830.945 85.2658L834.288 85.2664C834.406 85.2065 834.513 85.1607 834.609 85.1263C835.38 84.8568 835.881 84.7409 836.806 84.6256C837.114 84.5868 836.959 84.2021 836.806 84.2021C835.804 84.2791 835.611 84.2791 833.685 84.2791C831.758 84.2791 830.062 84.2403 829.061 84.125C828.869 84.125 828.792 84.5097 829.061 84.5479" fill="black" fill-opacity="0.25098"/>
<path fill-rule="evenodd" clip-rule="evenodd" d="M720.12 83.8164C718.828 83.8164 717.688 84.3826 716.609 85.2667L723.46 85.2661C722.651 84.4024 721.494 83.8164 720.12 83.8164" fill="black" fill-opacity="0.25098"/>
<path fill-rule="evenodd" clip-rule="evenodd" d="M742.843 83.1222C741.923 83.7554 740.27 84.6891 738.723 85.2655H743.202C743.217 84.4394 743.242 83.7439 743.267 83.3917C743.267 83.2375 743.074 82.9681 742.843 83.1222" fill="black" fill-opacity="0.25098"/>
<path fill-rule="evenodd" clip-rule="evenodd" d="M790.065 84.5472C790.374 84.4702 790.258 84.0855 790.065 84.1243C789.063 84.2396 788.948 84.2784 787.021 84.2784C785.133 84.2784 783.824 84.2396 782.822 84.1243C782.629 84.0855 782.552 84.509 782.822 84.5472C784.224 84.7345 785.072 84.9466 785.344 85.2657H785.345C785.409 85.3409 785.441 85.4224 785.441 85.5109C785.441 86.0307 784.933 87.6893 783.858 90.639H784.837L783.858 90.6396C783.567 91.439 783.234 92.3326 782.86 93.3249H782.859C782.565 94.1014 782.244 94.939 781.897 95.837C781.623 94.9441 781.356 94.1071 781.098 93.3256C780.774 92.3415 780.466 91.4466 780.181 90.639C779.153 87.7154 778.443 85.9453 778.432 85.2657C778.43 85.1727 778.442 85.1001 778.468 85.0485C778.661 84.6632 779.932 84.7791 780.741 84.5472C781.011 84.4702 780.933 84.0855 780.741 84.1243C779.739 84.2396 777.736 84.2784 775.809 84.2784C773.844 84.2784 773.112 84.2396 772.072 84.1243C771.918 84.1243 771.764 84.4702 772.072 84.5472C773.074 84.7402 773.267 84.7402 773.806 85.0103C773.876 85.0485 773.958 85.1345 774.051 85.2657H774.051C774.518 85.9211 775.257 87.6925 776.156 90.1345C776.079 90.3046 776.001 90.4714 775.925 90.6383H775.924C775.524 91.5033 775.128 92.3402 774.664 93.3256C774.245 94.2167 773.771 95.2288 773.19 96.4918C772.765 95.374 772.35 94.3148 771.955 93.3256H771.954C771.57 92.36 771.204 91.4619 770.868 90.639C769.737 87.8683 768.947 85.9593 768.892 85.2657H765.386L768.892 85.2651C768.884 85.1695 768.891 85.0969 768.912 85.0485C769.105 84.6632 769.798 84.7791 770.569 84.5472C770.877 84.4702 770.8 84.0855 770.569 84.1243C769.606 84.2396 767.949 84.2784 765.984 84.2784C764.08 84.2784 763.23 84.2402 762.205 84.1281L762.29 73.7205C762.29 73.2969 762.327 71.4472 762.481 70.9466C762.521 70.7925 762.327 70.5224 762.097 70.6772C760.556 71.6402 757.974 72.8345 755.97 73.374C755.777 73.4128 755.7 73.6816 756.009 73.7205C756.933 73.8364 757.473 73.9905 757.819 74.2218C758.205 74.453 758.32 75.1848 758.32 84.702C758.32 84.8562 758.128 84.8944 757.974 84.8562C756.818 84.3549 756.125 84.1243 754.467 84.1243C752.798 84.1243 751.235 84.5339 749.898 85.2657L752.476 85.2651C752.897 85.0963 753.379 85.0103 753.928 85.0103C754.484 85.0103 755.009 85.0963 755.492 85.2657C756.08 85.4708 756.605 85.7988 757.049 86.2428C757.709 86.9026 758.164 87.9218 758.288 90.6383L762.153 90.639L762.197 85.2657L762.202 84.5536C763.183 84.7409 763.718 84.7816 764.289 85.0103C764.363 85.0377 764.453 85.1243 764.558 85.2657C765.069 85.9606 765.919 87.9676 766.963 90.639H769.707L766.963 90.6396C767.291 91.4765 767.637 92.3784 767.998 93.3256L768.774 93.3262H767.998C768.64 95.0103 769.328 96.8377 770.039 98.6988H770.04C770.21 99.1453 770.382 99.5944 770.554 100.042L771.377 100.043L770.554 100.043C770.687 100.388 770.821 100.733 770.954 101.077C771.032 101.308 771.956 101.385 772.111 101.038C772.24 100.714 772.377 100.382 772.518 100.043H772.518C772.702 99.602 772.895 99.1517 773.094 98.6988L771.566 98.6982L773.094 98.6976C773.904 96.8415 774.804 94.9243 775.577 93.3269H775.578C775.933 92.5937 776.261 91.9281 776.541 91.3676C776.758 91.9759 776.984 92.6339 777.216 93.3256L779.324 93.3262L777.216 93.3269C777.772 94.9861 778.365 96.8441 778.977 98.6988H779.339H778.977C779.125 99.1472 779.275 99.5956 779.425 100.042C779.542 100.389 779.66 100.735 779.778 101.077C779.855 101.308 780.818 101.385 780.933 101.038C781.055 100.706 781.177 100.374 781.298 100.043H781.298C781.464 99.5925 781.63 99.1441 781.795 98.6995H781.796C782.502 96.8033 783.198 94.9842 783.859 93.3262C784.24 92.3721 784.609 91.4708 784.96 90.639H784.961C786.103 87.9434 787.075 85.9727 787.714 85.2657H785.882L787.714 85.2651C787.828 85.139 787.931 85.053 788.023 85.0103C788.601 84.7402 789.102 84.7791 790.065 84.5472" fill="black" fill-opacity="0.25098"/>
<path fill-rule="evenodd" clip-rule="evenodd" d="M730.601 83.9707C729.37 83.9707 728.227 84.472 727.172 85.2669L734.133 85.2662C733.39 84.4522 732.241 83.9707 730.601 83.9707" fill="black" fill-opacity="0.25098"/>
<mask id="mask1_16_17633" style="mask-type:alpha" maskUnits="userSpaceOnUse" x="692" y="42" width="164" height="101">
<path fill-rule="evenodd" clip-rule="evenodd" d="M692 142.298H855.134V42.3555H692V142.298Z" fill="white"/>
</mask>
<g mask="url(#mask1_16_17633)">
</g>
<path fill-rule="evenodd" clip-rule="evenodd" d="M494.515 97.1202L501.651 81.4316C493.416 84.7832 491.141 90.0463 494.515 97.1202" fill="black" fill-opacity="0.25098"/>
<path fill-rule="evenodd" clip-rule="evenodd" d="M509.468 79.9589C504.08 85.7596 499.442 91.9902 496.156 98.9908C496.486 99.3882 496.882 99.7411 497.328 100.049C500.249 102.056 505.349 102.06 508.618 99.4437C512.223 96.3819 513.366 89.5755 513.569 81.3424C513.586 80.6819 513.597 80.0137 513.603 79.3354C513.522 77.6035 510.889 78.0602 509.468 79.9589" fill="black" fill-opacity="0.25098"/>
<path fill-rule="evenodd" clip-rule="evenodd" d="M519.429 91.8242C520.964 85.9994 528.55 83.3357 529.297 86.8783C530.225 90.8866 524.918 92.4038 519.429 91.8242M532.929 85.6764C531.014 78.0267 516.404 83.2847 515.63 91.6974C514.173 99.5471 520.097 103.545 529.277 100.115L529.697 96.535C526.317 98.979 520.369 99.6847 519.306 94.7102C526.949 94.4917 534.238 93.3267 532.929 85.6764" fill="black" fill-opacity="0.25098"/>
<path fill-rule="evenodd" clip-rule="evenodd" d="M547.154 81.9711C542.917 81.8647 540.618 83.7577 539.253 86.6086L539.906 82.5914H536.151L532.949 101.238H536.607C537.326 97.0252 537.848 92.6169 540.134 88.9914C541.768 86.5316 544.608 84.78 547.057 85.2035C548.331 85.4972 549.038 86.2418 548.657 88.8927L546.468 101.368H550.193L552.445 89.2851C553.163 83.9303 550.379 82.1762 547.154 81.9711" fill="black" fill-opacity="0.25098"/>
<path fill-rule="evenodd" clip-rule="evenodd" d="M567.405 82.4414L560.214 95.314L557.39 82.542H553.727L558.365 101.632H559.775L571.303 82.4414H567.405Z" fill="black" fill-opacity="0.25098"/>
<path fill-rule="evenodd" clip-rule="evenodd" d="M584.479 85.5671C584.412 87.5448 583.921 89.7773 583.235 92.0212C582.696 94.2722 579.806 98.8435 575.94 98.6747C574.293 98.8492 569.683 96.4384 573.758 89.2308C575.706 86.2734 580.343 83.9543 584.479 85.5671M571.64 86.4754C566.665 92.0543 568.01 100.322 574.194 101.665C578.328 102.137 581.521 99.9518 582.866 96.7926L581.89 101.229H585.452L588.647 83.5512C582.603 80.7187 576.881 81.148 571.64 86.4754" fill="black" fill-opacity="0.25098"/>
<path fill-rule="evenodd" clip-rule="evenodd" d="M592.791 95.4853L594.629 85.5605H600.513L601.753 82.528H595.044L596.192 76.6445L591.918 78.7579L589.115 96.4968C588.931 101.415 593.031 101.892 596.513 101.138L597.203 98.1974C593.541 99.228 592.217 98.0866 592.791 95.4853" fill="black" fill-opacity="0.25098"/>
<path fill-rule="evenodd" clip-rule="evenodd" d="M615.754 91.9307C614.948 95.6128 611.534 98.6026 608.135 98.6084C604.737 98.616 602.633 95.6326 603.438 91.9511C604.244 88.2708 607.657 85.2784 611.057 85.2727C614.455 85.2676 616.559 88.2504 615.754 91.9307M611.238 81.7988C605.7 81.7988 600.464 86.2842 599.554 91.8116C598.643 97.3409 602.398 101.826 607.936 101.826C613.475 101.826 618.71 97.3409 619.621 91.8116C620.533 86.2842 616.775 81.7988 611.238 81.7988" fill="black" fill-opacity="0.25098"/>
<path fill-rule="evenodd" clip-rule="evenodd" d="M623.793 83.332H621.107L620.992 83.9136H622.037L621.482 86.8359L622.113 86.832L622.667 83.9136H623.678L623.793 83.332Z" fill="black" fill-opacity="0.25098"/>
<path fill-rule="evenodd" clip-rule="evenodd" d="M627.585 83.3145L625.748 86.0788L624.914 83.3514L624.359 83.3399L623.555 86.8425L624.085 86.8444L624.668 84.5323L625.356 86.91H625.866L627.449 84.5673L627.26 86.8533H627.814L628.076 83.3164L627.585 83.3145Z" fill="black" fill-opacity="0.25098"/>
<mask id="mask2_16_17633" style="mask-type:alpha" maskUnits="userSpaceOnUse" x="476" y="42" width="164" height="100">
<path fill-rule="evenodd" clip-rule="evenodd" d="M476 141.943H639.134V42H476V141.943Z" fill="white"/>
</mask>
<g mask="url(#mask2_16_17633)">
</g>
<path fill-rule="evenodd" clip-rule="evenodd" d="M322.364 87.2514C322.94 86.7552 323.369 86.0902 323.573 85.3571C323.8 84.5463 323.782 83.6807 323.605 82.8622C323.43 82.0667 322.998 81.3323 322.388 80.7934C321.748 80.2176 320.963 79.8316 320.161 79.5342C319.229 79.196 318.296 78.8546 317.363 78.5157C316.919 78.3456 316.468 78.1597 316.103 77.8482C315.823 77.6138 315.624 77.2845 315.563 76.924C315.493 76.5176 315.516 76.0781 315.717 75.71C315.871 75.4189 316.12 75.189 316.405 75.0278C316.842 74.7788 317.344 74.6711 317.84 74.6291C318.879 74.5533 319.935 74.7208 320.895 75.1227C321.624 75.4183 322.29 75.8456 322.915 76.3189C322.916 75.3928 322.916 74.4667 322.915 73.5399C321.916 72.8896 320.76 72.5004 319.581 72.3393C318.525 72.2004 317.438 72.2081 316.402 72.473C315.581 72.6813 314.788 73.0539 314.161 73.631C313.47 74.2558 313.031 75.1431 312.939 76.0692C312.848 77.0558 312.996 78.0991 313.535 78.9476C313.933 79.5788 314.524 80.0667 315.171 80.4297C316.022 80.917 316.966 81.1985 317.881 81.5374C318.634 81.8176 319.414 82.0488 320.11 82.4597C320.509 82.694 320.872 83.0355 321.02 83.4845C321.167 83.9367 321.17 84.445 320.995 84.8896C320.837 85.2966 320.507 85.6163 320.124 85.8151C319.449 86.1641 318.668 86.2386 317.919 86.2272C316.144 86.2062 314.42 85.5049 313.047 84.3972C313.044 85.3393 313.048 86.2807 313.046 87.2221C314.189 88.0074 315.561 88.4011 316.928 88.5546C318.024 88.6711 319.144 88.6323 320.212 88.3495C320.995 88.1393 321.75 87.7864 322.364 87.2514" fill="black" fill-opacity="0.25098"/>
<path fill-rule="evenodd" clip-rule="evenodd" d="M386.287 87.5292C386.91 87.0987 387.417 86.4948 387.708 85.7942C388.055 84.9738 388.088 84.0547 387.96 83.1834C387.841 82.3847 387.492 81.6159 386.931 81.0311C386.324 80.3834 385.527 79.9515 384.711 79.6235C383.795 79.2783 382.871 78.9528 381.952 78.614C381.393 78.4101 380.81 78.2076 380.358 77.8069C379.773 77.2961 379.664 76.3713 380.011 75.6968C380.343 75.0783 381.048 74.7859 381.71 74.6719C382.946 74.4796 384.232 74.6827 385.372 75.1923C386.031 75.4827 386.635 75.8783 387.209 76.3089C387.213 75.3847 387.208 74.4598 387.211 73.5356C385.88 72.6668 384.279 72.2604 382.697 72.2464C381.428 72.2165 380.117 72.477 379.038 73.1687C378.362 73.6018 377.802 74.2305 377.501 74.9783C377.253 75.5751 377.173 76.2324 377.213 76.8745C377.246 77.5821 377.426 78.2929 377.802 78.8993C378.18 79.5127 378.739 79.9948 379.356 80.3585C380.025 80.7598 380.762 81.0248 381.495 81.284C382.25 81.5655 383.022 81.8101 383.764 82.1273C384.218 82.3331 384.682 82.5636 385.012 82.9496C385.387 83.3847 385.481 84.0031 385.381 84.5554C385.299 85.0267 384.999 85.4452 384.596 85.698C384.076 86.0331 383.452 86.1566 382.843 86.2038C382.244 86.2382 381.639 86.2133 381.048 86.1057C379.684 85.8719 378.406 85.2445 377.331 84.3815C377.326 85.3229 377.332 86.2643 377.328 87.2057C378.171 87.7942 379.155 88.1534 380.153 88.3732C381.357 88.6267 382.608 88.6872 383.824 88.4872C384.697 88.3388 385.558 88.042 386.287 87.5292" fill="black" fill-opacity="0.25098"/>
<path fill-rule="evenodd" clip-rule="evenodd" d="M403.437 81.4391C402.93 80.7264 402.186 80.2187 401.403 79.8506C400.548 79.4614 399.648 79.185 398.771 78.8512C398.023 78.5588 397.209 78.362 396.574 77.8461C395.99 77.378 395.846 76.5098 396.116 75.8346C396.258 75.485 396.536 75.206 396.862 75.0219C397.31 74.7659 397.827 74.6557 398.339 74.6162C399.346 74.5487 400.369 74.7111 401.304 75.0907C402.05 75.3907 402.735 75.8206 403.371 76.3073C403.371 75.4136 403.371 74.5194 403.371 73.6251C403.377 73.5639 403.357 73.5047 403.299 73.4805C401.912 72.6092 400.254 72.2206 398.625 72.2474C397.827 72.2436 397.027 72.376 396.276 72.6442C395.441 72.9467 394.661 73.4499 394.13 74.1697C393.657 74.7977 393.408 75.5773 393.379 76.3601C393.349 77.2009 393.492 78.069 393.918 78.8053C394.309 79.4913 394.93 80.0194 395.61 80.4079C396.457 80.8983 397.4 81.1792 398.313 81.5181C399.081 81.8028 399.877 82.0385 400.586 82.4595C400.974 82.6888 401.324 83.02 401.475 83.455C401.63 83.9149 401.632 84.4334 401.455 84.8881C401.304 85.2716 400.998 85.576 400.643 85.7754C399.958 86.1512 399.155 86.2302 398.386 86.2168C396.607 86.1996 394.878 85.4939 393.502 84.3824C393.509 85.3264 393.485 86.2729 393.514 87.2155C394.269 87.7461 395.147 88.0818 396.037 88.3079C397.005 88.5448 398.007 88.6429 399.002 88.5945C399.894 88.5493 400.788 88.3773 401.606 88.0111C402.369 87.6729 403.064 87.1448 403.53 86.4455C403.994 85.7544 404.213 84.9143 404.197 84.0862C404.207 83.1576 403.989 82.1996 403.437 81.4391" fill="black" fill-opacity="0.25098"/>
<path fill-rule="evenodd" clip-rule="evenodd" d="M354.387 88.6196C354.389 83.2476 354.389 77.8762 354.387 72.5049C353.524 72.5055 352.661 72.5055 351.798 72.5055C351.794 75.875 351.8 79.245 351.795 82.6151C348.173 79.1648 344.557 75.7075 340.938 72.2559C340.939 77.6234 340.936 82.9909 340.939 88.3578C341.801 88.3597 342.663 88.3546 343.524 88.3603C343.536 84.9342 343.523 81.5075 343.531 78.082C344.718 79.2138 345.885 80.3673 347.066 81.5068C349.505 83.8782 351.949 86.2463 354.387 88.6196" fill="black" fill-opacity="0.25098"/>
<path fill-rule="evenodd" clip-rule="evenodd" d="M285.65 84.2236C285.555 84.7644 285.232 85.2605 284.768 85.558C284.224 85.9147 283.557 86.0191 282.917 86.0261C281.79 86.0255 280.664 86.0268 279.536 86.0249C279.536 84.4828 279.537 82.9402 279.536 81.3981C280.663 81.3962 281.79 81.3988 282.916 81.3968C283.362 81.3898 283.811 81.4453 284.234 81.5917C284.696 81.7491 285.122 82.0465 285.378 82.4695C285.695 82.9892 285.758 83.6325 285.65 84.2236M281.881 74.837C282.432 74.8382 282.988 74.83 283.532 74.9421C284.013 75.0402 284.497 75.2446 284.816 75.6312C285.178 76.0631 285.267 76.6561 285.229 77.2019C285.197 77.6988 285.009 78.2032 284.627 78.5376C284.109 78.993 283.395 79.1242 282.727 79.1567C281.665 79.1656 280.603 79.1529 279.542 79.1631C279.53 77.7217 279.54 76.2796 279.536 74.8376C280.318 74.8363 281.099 74.8376 281.881 74.837M288.036 82.3077C287.696 81.4898 287.069 80.7911 286.28 80.386C286.13 80.3039 285.964 80.258 285.821 80.1644C286.687 79.8255 287.33 79.0497 287.613 78.1765C287.878 77.3631 287.877 76.4746 287.688 75.6446C287.515 74.9058 287.113 74.2198 286.535 73.7261C285.826 73.1102 284.913 72.7835 283.998 72.6293C283.034 72.4612 282.053 72.514 281.08 72.5051C279.694 72.5051 278.309 72.5051 276.923 72.5058C276.922 77.7892 276.922 83.0733 276.923 88.3574C278.763 88.358 280.604 88.3574 282.444 88.358C283.281 88.3707 284.127 88.3427 284.943 88.137C285.89 87.9064 286.808 87.4325 287.428 86.6631C287.978 85.9917 288.259 85.1332 288.319 84.2752C288.378 83.6089 288.3 82.9249 288.036 82.3077" fill="black" fill-opacity="0.25098"/>
<path fill-rule="evenodd" clip-rule="evenodd" d="M303.446 88.0224C304.489 87.56 305.376 86.7511 305.917 85.7441C306.544 84.5938 306.765 83.2613 306.744 81.9625C306.744 78.8103 306.744 75.6581 306.744 72.5065C305.849 72.5059 304.954 72.5059 304.06 72.5065C304.058 75.5339 304.06 78.5613 304.059 81.588C304.068 82.3721 304.005 83.167 303.763 83.9167C303.557 84.5473 303.202 85.1498 302.662 85.5504C302.019 86.0409 301.188 86.209 300.394 86.2046C299.612 86.2059 298.801 86.0345 298.166 85.5575C297.523 85.0804 297.139 84.332 296.956 83.5664C296.718 82.6269 296.758 81.6504 296.756 80.6899C296.756 77.9625 296.757 75.2339 296.756 72.5059C295.861 72.5059 294.967 72.5059 294.072 72.5065C294.07 75.6422 294.072 78.7772 294.071 81.9129C294.061 82.8039 294.156 83.702 294.414 84.5562C294.643 85.3046 295.002 86.0186 295.509 86.6167C295.934 87.1262 296.465 87.5447 297.051 87.8568C297.849 88.2842 298.744 88.5071 299.643 88.5842C300.928 88.6874 302.259 88.5517 303.446 88.0224" fill="black" fill-opacity="0.25098"/>
<path fill-rule="evenodd" clip-rule="evenodd" d="M330.622 72.5039C330.613 77.7886 330.62 83.074 330.619 88.3593C331.515 88.3542 332.412 88.3682 333.308 88.3523C333.296 83.0708 333.308 77.788 333.303 72.5065C332.409 72.5045 331.515 72.5096 330.622 72.5039" fill="black" fill-opacity="0.25098"/>
<path fill-rule="evenodd" clip-rule="evenodd" d="M371.11 85.944C368.795 85.9446 366.479 85.9446 364.164 85.944C364.162 84.3115 364.162 82.6784 364.164 81.0453C366.24 81.0446 368.316 81.0453 370.392 81.0453C370.394 80.2593 370.394 79.4746 370.392 78.6892C368.316 78.6886 366.24 78.6905 364.164 78.6886C364.162 77.4249 364.162 76.1612 364.164 74.8969C366.479 74.8962 368.795 74.8975 371.111 74.8969C371.112 74.0994 371.112 73.3026 371.111 72.5058C367.917 72.5032 364.724 72.5115 361.53 72.502C361.516 73.5039 361.529 74.5064 361.524 75.509C361.528 79.7937 361.518 84.0778 361.529 88.3612C364.723 88.3548 367.917 88.3599 371.111 88.3586C371.112 87.5535 371.113 86.7491 371.11 85.944" fill="black" fill-opacity="0.25098"/>
<path fill-rule="evenodd" clip-rule="evenodd" d="M308.606 96.5809C308.604 99.8956 308.608 103.211 308.604 106.526C305.007 103.129 301.414 99.7262 297.82 96.3262C297.813 101.608 297.818 106.891 297.818 112.173C298.677 112.175 299.536 112.173 300.395 112.173C300.397 108.801 300.396 105.428 300.396 102.054C303.99 105.508 307.575 108.973 311.173 112.422C311.172 107.142 311.173 101.861 311.172 96.5809C310.317 96.5803 309.462 96.5803 308.606 96.5809" fill="black" fill-opacity="0.25098"/>
<path fill-rule="evenodd" clip-rule="evenodd" d="M327.184 104.642C326.571 104.121 325.837 103.764 325.087 103.489C324.142 103.146 323.195 102.808 322.251 102.464C321.778 102.282 321.29 102.08 320.926 101.714C320.455 101.261 320.357 100.518 320.562 99.9173C320.688 99.5613 320.957 99.2683 321.28 99.0791C321.709 98.8212 322.208 98.7078 322.703 98.6581C323.743 98.5747 324.804 98.7333 325.77 99.1307C326.502 99.4237 327.173 99.8498 327.801 100.322C327.802 99.4084 327.804 98.495 327.801 97.5804C326.545 96.7759 325.057 96.3804 323.574 96.3237C322.464 96.2734 321.327 96.4237 320.311 96.8887C319.604 97.211 318.96 97.6989 318.521 98.3454C318.083 98.9804 317.867 99.7556 317.872 100.524C317.858 101.336 318.028 102.167 318.462 102.861C318.891 103.552 319.552 104.07 320.264 104.445C321.055 104.87 321.918 105.129 322.757 105.439C323.494 105.709 324.252 105.937 324.941 106.321C325.341 106.545 325.721 106.863 325.892 107.303C326.053 107.724 326.066 108.201 325.936 108.631C325.804 109.063 325.476 109.415 325.085 109.629C324.411 109.996 323.622 110.077 322.867 110.067C321.099 110.053 319.373 109.364 318.004 108.261C318 109.187 318.008 110.115 317.999 111.042C318.365 111.312 318.778 111.512 319.193 111.693C320.164 112.098 321.204 112.319 322.252 112.391C323.262 112.452 324.292 112.398 325.267 112.11C326.049 111.882 326.802 111.507 327.394 110.94C327.958 110.414 328.353 109.714 328.512 108.96C328.677 108.18 328.637 107.361 328.438 106.591C328.237 105.829 327.785 105.146 327.184 104.642" fill="black" fill-opacity="0.25098"/>
<path fill-rule="evenodd" clip-rule="evenodd" d="M287.525 112.173C288.419 112.174 289.314 112.174 290.209 112.173V96.5807C289.314 96.5801 288.419 96.5801 287.525 96.5801C287.523 101.778 287.523 106.976 287.525 112.173" fill="black" fill-opacity="0.25098"/>
<path fill-rule="evenodd" clip-rule="evenodd" d="M335.497 112.173C336.387 112.173 337.279 112.175 338.169 112.173C338.17 106.976 338.17 101.778 338.169 96.5807C337.279 96.5801 336.387 96.5807 335.497 96.5801C335.495 101.778 335.496 106.976 335.497 112.173" fill="black" fill-opacity="0.25098"/>
<path fill-rule="evenodd" clip-rule="evenodd" d="M356.662 106.332C356.438 107.175 356.014 107.981 355.372 108.579C354.647 109.267 353.673 109.643 352.691 109.758C352.175 109.825 351.655 109.803 351.136 109.807C350.292 109.807 349.447 109.808 348.603 109.807C348.603 106.179 348.603 102.552 348.603 98.9251C349.401 98.9232 350.199 98.9245 350.996 98.9239C351.513 98.9283 352.031 98.9067 352.548 98.9602C353.402 99.043 354.256 99.3041 354.956 99.8118C355.566 100.244 356.041 100.853 356.35 101.532C356.672 102.235 356.83 103.004 356.882 103.774C356.938 104.631 356.882 105.5 356.662 106.332M356.66 97.9691C355.353 97.02 353.722 96.6022 352.122 96.5806C350.062 96.5799 348.002 96.5799 345.942 96.5806C345.941 101.779 345.942 106.976 345.942 112.174C348.003 112.175 350.065 112.174 352.126 112.175C353.18 112.16 354.238 111.977 355.217 111.581C356.47 111.08 357.573 110.196 358.307 109.062C359.196 107.714 359.566 106.082 359.58 104.482C359.591 103.363 359.435 102.233 359.051 101.179C358.591 99.9067 357.766 98.757 356.66 97.9691" fill="black" fill-opacity="0.25098"/>
<path fill-rule="evenodd" clip-rule="evenodd" d="M374.714 96.5781C371.539 96.5807 368.363 96.5781 365.188 96.5794C365.187 101.777 365.187 106.974 365.188 112.172C368.363 112.173 371.54 112.172 374.715 112.172C374.716 111.383 374.716 110.595 374.715 109.806C372.415 109.806 370.114 109.806 367.814 109.806V104.977C369.876 104.972 371.939 104.984 374 104.971C373.993 104.204 373.999 103.436 373.997 102.669C371.937 102.669 369.877 102.667 367.817 102.669C367.81 101.421 367.815 100.172 367.815 98.9227C370.114 98.9227 372.415 98.9233 374.715 98.9227C374.715 98.1412 374.718 97.3597 374.714 96.5781" fill="black" fill-opacity="0.25098"/>
<path fill-rule="evenodd" clip-rule="evenodd" d="M385.315 103.635C385.314 102.049 385.314 100.464 385.315 98.8769C386.061 98.8763 386.807 98.8769 387.553 98.8769C388.128 98.8807 388.715 98.8438 389.278 98.9954C389.835 99.1329 390.367 99.4495 390.681 99.9412C391.016 100.457 391.097 101.102 391.008 101.701C390.936 102.176 390.715 102.632 390.358 102.957C389.832 103.44 389.098 103.623 388.4 103.635H385.315ZM391.511 105.328C392.146 105.039 392.7 104.566 393.056 103.963C393.531 103.159 393.686 102.206 393.678 101.285C393.693 100.383 393.501 99.4591 393.021 98.6877C392.619 98.0323 392.01 97.5145 391.318 97.1845C390.444 96.7552 389.46 96.5992 388.493 96.5801C386.547 96.5801 384.6 96.5807 382.654 96.5801C382.651 101.778 382.653 106.976 382.653 112.173C383.539 112.175 384.425 112.171 385.31 112.176C385.321 110.067 385.311 107.958 385.315 105.85C385.938 105.849 386.561 105.85 387.184 105.85C389.009 107.955 390.826 110.067 392.649 112.173C393.661 112.173 394.672 112.175 395.684 112.172C393.809 110.031 391.928 107.894 390.05 105.755C390.552 105.672 391.049 105.545 391.511 105.328V105.328Z" fill="black" fill-opacity="0.25098"/>
<mask id="mask3_16_17633" style="mask-type:alpha" maskUnits="userSpaceOnUse" x="259" y="42" width="164" height="101">
<path fill-rule="evenodd" clip-rule="evenodd" d="M259 142.298H422.134V42.3555H259V142.298Z" fill="white"/>
</mask>
<g mask="url(#mask3_16_17633)">
</g>
<path fill-rule="evenodd" clip-rule="evenodd" d="M117.301 84.5857C117.301 82.808 117.593 81.5303 118.179 80.7538C118.764 79.978 119.708 79.5895 121.014 79.5895C122.163 79.5895 122.961 79.9436 123.412 80.6525C123.861 81.3615 124.086 82.4366 124.086 83.8767V93.7334H128.88V82.999C128.88 81.9188 128.784 80.9347 128.593 80.0449C128.401 79.1564 128.07 78.4029 127.597 77.7831C127.125 77.1646 126.477 76.6812 125.656 76.3322C124.834 75.9831 123.782 75.8086 122.5 75.8086C121.487 75.8086 120.496 76.0398 119.529 76.5003C118.561 76.9621 117.773 77.699 117.166 78.7118H117.065V76.2812H112.508V93.7334H117.301V84.5857Z" fill="black" fill-opacity="0.25098"/>
<path fill-rule="evenodd" clip-rule="evenodd" d="M134.502 81.9863C134.625 81.5595 134.839 81.1538 135.143 80.771C135.447 80.3888 135.852 80.0685 136.358 79.8092C136.865 79.5506 137.5 79.4207 138.266 79.4207C139.435 79.4207 140.307 79.736 140.882 80.3666C141.456 80.9965 141.855 81.9188 142.08 83.1341H134.282C134.304 82.7965 134.378 82.4143 134.502 81.9863M146.57 88.3328H142.35C142.193 88.8736 141.765 89.3857 141.067 89.8685C140.37 90.3532 139.537 90.5946 138.57 90.5946C137.219 90.5946 136.184 90.2462 135.464 89.5481C134.743 88.8513 134.35 87.7252 134.282 86.1723H146.874C146.963 84.822 146.851 83.5283 146.537 82.2901C146.22 81.0532 145.709 79.95 145 78.9818C144.291 78.015 143.385 77.2436 142.283 76.6697C141.179 76.0959 139.886 75.8086 138.4 75.8086C137.072 75.8086 135.863 76.0449 134.772 76.5181C133.68 76.9908 132.741 77.6373 131.953 78.4589C131.165 79.2806 130.557 80.2538 130.13 81.3787C129.702 82.5041 129.488 83.7194 129.488 85.0252C129.488 86.3755 129.697 87.6131 130.112 88.7379C130.53 89.8634 131.119 90.8309 131.886 91.6411C132.65 92.4513 133.585 93.0761 134.688 93.5143C135.79 93.9538 137.028 94.1729 138.4 94.1729C140.381 94.1729 142.069 93.7232 143.464 92.8226C144.859 91.9226 145.895 90.4258 146.57 88.3328" fill="black" fill-opacity="0.25098"/>
<path fill-rule="evenodd" clip-rule="evenodd" d="M172.965 76.2812H168.036L164.829 88.0965H164.761L161.791 76.2812H157.133L154.229 88.1303H154.161L150.954 76.2812H145.891L151.428 93.7335H156.39L159.361 82.0201H159.428L162.533 93.7335H167.462L172.965 76.2812Z" fill="black" fill-opacity="0.25098"/>
<path fill-rule="evenodd" clip-rule="evenodd" d="M172.831 83.3532C173.145 83.8825 173.561 84.3213 174.08 84.6697C174.597 85.0194 175.188 85.3003 175.852 85.5137C176.516 85.7283 177.196 85.9137 177.895 86.071C179.604 86.4309 180.938 86.7914 181.895 87.1513C182.851 87.5111 183.329 88.0513 183.329 88.771C183.329 89.199 183.228 89.5538 183.026 89.8347C182.823 90.1162 182.57 90.3411 182.266 90.5099C181.962 90.6787 181.625 90.8029 181.253 90.8812C180.882 90.9602 180.528 90.999 180.19 90.999C179.717 90.999 179.261 90.9436 178.823 90.8309C178.384 90.7181 177.996 90.5436 177.658 90.3073C177.321 90.071 177.044 89.7672 176.831 89.3959C176.617 89.0245 176.51 88.5806 176.51 88.0627H171.953C171.998 89.2328 172.262 90.206 172.746 90.9825C173.23 91.7589 173.849 92.3831 174.603 92.8564C175.357 93.329 176.217 93.6666 177.186 93.8685C178.152 94.0717 179.143 94.1729 180.156 94.1729C181.147 94.1729 182.119 94.0767 183.077 93.8857C184.033 93.6946 184.882 93.3621 185.624 92.8901C186.367 92.4169 186.969 91.7927 187.431 91.0162C187.892 90.2398 188.123 89.278 188.123 88.1302C188.123 87.3201 187.965 86.6392 187.651 86.0876C187.335 85.5366 186.919 85.0748 186.402 84.7035C185.883 84.3322 185.292 84.0347 184.629 83.8086C183.965 83.5844 183.284 83.3927 182.586 83.2353C181.912 83.078 181.247 82.9315 180.595 82.7965C179.942 82.6615 179.363 82.5092 178.856 82.3404C178.35 82.1723 177.939 81.9525 177.624 81.6825C177.309 81.4124 177.152 81.0634 177.152 80.636C177.152 80.2761 177.242 79.9895 177.422 79.7748C177.602 79.5615 177.821 79.3984 178.08 79.2857C178.338 79.1736 178.626 79.0997 178.941 79.0659C179.256 79.0322 179.549 79.0156 179.819 79.0156C180.674 79.0156 181.416 79.1793 182.047 79.5048C182.677 79.8315 183.026 80.4564 183.093 81.3787H187.651C187.56 80.2984 187.284 79.4035 186.823 78.6946C186.361 77.9857 185.782 77.4175 185.085 76.9901C184.387 76.5627 183.593 76.2589 182.705 76.0787C181.815 75.8984 180.899 75.8086 179.954 75.8086C179.008 75.8086 178.085 75.8933 177.186 76.0615C176.285 76.2302 175.475 76.5232 174.755 76.9392C174.035 77.3564 173.455 77.9245 173.017 78.6443C172.578 79.3646 172.358 80.2876 172.358 81.4124C172.358 82.178 172.516 82.8245 172.831 83.3532" fill="black" fill-opacity="0.25098"/>
<mask id="mask4_16_17633" style="mask-type:alpha" maskUnits="userSpaceOnUse" x="43" y="42" width="164" height="101">
<path fill-rule="evenodd" clip-rule="evenodd" d="M43 142.298H206.134V42.3555H43V142.298Z" fill="white"/>
</mask>
<g mask="url(#mask4_16_17633)">
<path fill-rule="evenodd" clip-rule="evenodd" d="M109.32 112.219H111.728V109.857H109.32V112.219Z" fill="black" fill-opacity="0.25098"/>
<path fill-rule="evenodd" clip-rule="evenodd" d="M120.253 109.401C119.791 109.88 119.132 110.119 118.276 110.119C117.721 110.119 117.251 109.993 116.865 109.741C116.478 109.489 116.172 109.166 115.946 108.771C115.72 108.377 115.555 107.936 115.455 107.449C115.354 106.962 115.304 106.483 115.304 106.013C115.304 105.526 115.354 105.035 115.455 104.539C115.555 104.044 115.728 103.591 115.971 103.179C116.214 102.767 116.529 102.432 116.916 102.171C117.302 101.911 117.78 101.781 118.352 101.781C119.879 101.781 120.761 102.529 120.997 104.023H124.498C124.448 103.183 124.246 102.457 123.893 101.845C123.541 101.231 123.083 100.719 122.521 100.308C121.958 99.8961 121.32 99.5898 120.606 99.3878C119.893 99.1866 119.149 99.0859 118.377 99.0859C117.32 99.0859 116.378 99.2624 115.555 99.6152C114.733 99.9675 114.035 100.459 113.465 101.088C112.893 101.718 112.462 102.466 112.168 103.331C111.874 104.195 111.727 105.131 111.727 106.139C111.727 107.113 111.886 108.007 112.205 108.822C112.524 109.636 112.969 110.338 113.541 110.925C114.111 111.513 114.804 111.969 115.618 112.298C116.433 112.625 117.327 112.788 118.301 112.788C120.03 112.788 121.449 112.335 122.558 111.429C123.666 110.522 124.338 109.204 124.573 107.474H121.122C121.005 108.28 120.715 108.922 120.253 109.401" fill="black" fill-opacity="0.25098"/>
<path fill-rule="evenodd" clip-rule="evenodd" d="M134.295 107.487C134.195 107.981 134.022 108.427 133.779 108.822C133.535 109.217 133.208 109.531 132.797 109.766C132.384 110.001 131.877 110.119 131.273 110.119C130.669 110.119 130.165 110.001 129.762 109.766C129.358 109.531 129.034 109.217 128.791 108.822C128.548 108.427 128.376 107.981 128.276 107.487C128.174 106.992 128.125 106.483 128.125 105.962C128.125 105.442 128.174 104.929 128.276 104.426C128.376 103.922 128.548 103.477 128.791 103.091C129.034 102.704 129.358 102.39 129.762 102.146C130.165 101.902 130.669 101.781 131.273 101.781C131.877 101.781 132.384 101.902 132.797 102.146C133.208 102.39 133.535 102.704 133.779 103.091C134.022 103.477 134.195 103.922 134.295 104.426C134.397 104.929 134.446 105.442 134.446 105.962C134.446 106.483 134.397 106.992 134.295 107.487M136.185 100.962C135.597 100.366 134.888 99.905 134.056 99.577C133.225 99.2496 132.297 99.0859 131.273 99.0859C130.248 99.0859 129.324 99.2496 128.501 99.577C127.679 99.905 126.974 100.366 126.386 100.962C125.797 101.558 125.344 102.281 125.025 103.129C124.706 103.976 124.547 104.922 124.547 105.962C124.547 107.004 124.706 107.944 125.025 108.784C125.344 109.624 125.797 110.341 126.386 110.938C126.974 111.534 127.679 111.992 128.501 112.31C129.324 112.629 130.248 112.788 131.273 112.788C132.297 112.788 133.225 112.629 134.056 112.31C134.888 111.992 135.597 111.534 136.185 110.938C136.772 110.341 137.226 109.624 137.546 108.784C137.864 107.944 138.024 107.004 138.024 105.962C138.024 104.922 137.864 103.976 137.546 103.129C137.226 102.281 136.772 101.558 136.185 100.962" fill="black" fill-opacity="0.25098"/>
<path fill-rule="evenodd" clip-rule="evenodd" d="M157.37 100.144C156.949 99.7745 156.445 99.5057 155.858 99.3375C155.27 99.1707 154.632 99.0859 153.944 99.0859C153.037 99.0859 152.252 99.3044 151.589 99.7407C150.924 100.178 150.401 100.682 150.014 101.252C149.661 100.446 149.145 99.884 148.465 99.5643C147.784 99.2458 147.033 99.0859 146.21 99.0859C145.354 99.0859 144.593 99.2713 143.931 99.6401C143.267 100.01 142.7 100.53 142.23 101.202H142.18V99.4388H138.805V112.461H142.382V104.905C142.382 104.267 142.473 103.75 142.658 103.355C142.843 102.961 143.066 102.659 143.326 102.448C143.586 102.239 143.855 102.095 144.133 102.02C144.409 101.945 144.632 101.908 144.8 101.908C145.37 101.908 145.803 102.004 146.097 102.197C146.391 102.39 146.602 102.646 146.727 102.966C146.852 103.285 146.924 103.633 146.941 104.01C146.957 104.388 146.966 104.771 146.966 105.157V112.461H150.543V105.207C150.543 104.804 150.572 104.405 150.631 104.01C150.69 103.616 150.807 103.263 150.984 102.953C151.16 102.642 151.403 102.39 151.714 102.197C152.024 102.004 152.433 101.908 152.936 101.908C153.44 101.908 153.838 101.991 154.133 102.159C154.426 102.327 154.649 102.554 154.8 102.839C154.951 103.125 155.044 103.46 155.077 103.846C155.11 104.233 155.127 104.645 155.127 105.081V112.461H158.705V103.746C158.705 102.906 158.586 102.188 158.352 101.592C158.116 100.996 157.789 100.513 157.37 100.144" fill="black" fill-opacity="0.25098"/>
<path fill-rule="evenodd" clip-rule="evenodd" d="M159.637 112.46H162.017V110.125H159.637V112.46Z" fill="black" fill-opacity="0.25098"/>
<path fill-rule="evenodd" clip-rule="evenodd" d="M171.27 107.424C171.27 107.625 171.249 107.894 171.207 108.231C171.165 108.566 171.052 108.897 170.867 109.225C170.682 109.552 170.397 109.834 170.011 110.068C169.625 110.304 169.079 110.421 168.374 110.421C168.088 110.421 167.811 110.395 167.542 110.346C167.274 110.295 167.039 110.207 166.837 110.081C166.636 109.955 166.476 109.783 166.358 109.565C166.241 109.347 166.182 109.078 166.182 108.759C166.182 108.423 166.241 108.146 166.358 107.928C166.476 107.71 166.632 107.529 166.825 107.386C167.018 107.244 167.244 107.131 167.505 107.046C167.765 106.962 168.03 106.895 168.298 106.845C168.584 106.794 168.869 106.752 169.155 106.719C169.44 106.685 169.713 106.643 169.973 106.592C170.233 106.542 170.477 106.48 170.703 106.403C170.93 106.328 171.12 106.224 171.27 106.088V107.424ZM174.848 109.565V102.789C174.848 102 174.672 101.366 174.318 100.887C173.965 100.408 173.513 100.035 172.958 99.7662C172.404 99.498 171.79 99.3171 171.12 99.2248C170.448 99.1324 169.784 99.0859 169.129 99.0859C168.407 99.0859 167.69 99.1573 166.976 99.3C166.262 99.4433 165.619 99.6828 165.048 100.018C164.478 100.354 164.007 100.799 163.639 101.353C163.269 101.908 163.058 102.604 163.008 103.444H166.586C166.652 102.739 166.888 102.235 167.29 101.932C167.693 101.63 168.248 101.48 168.953 101.48C169.272 101.48 169.57 101.501 169.848 101.543C170.125 101.584 170.368 101.668 170.577 101.794C170.788 101.92 170.956 102.096 171.081 102.323C171.207 102.55 171.27 102.856 171.27 103.243C171.287 103.612 171.178 103.894 170.943 104.087C170.707 104.279 170.389 104.427 169.986 104.527C169.583 104.628 169.121 104.703 168.6 104.754C168.079 104.804 167.551 104.871 167.013 104.955C166.476 105.039 165.943 105.153 165.414 105.295C164.885 105.439 164.415 105.652 164.004 105.938C163.591 106.224 163.256 106.605 162.996 107.084C162.735 107.562 162.605 108.171 162.605 108.91C162.605 109.582 162.719 110.162 162.946 110.648C163.172 111.135 163.487 111.538 163.89 111.857C164.293 112.176 164.763 112.411 165.3 112.562C165.838 112.714 166.417 112.789 167.039 112.789C167.844 112.789 168.633 112.671 169.406 112.436C170.179 112.202 170.851 111.79 171.421 111.202C171.438 111.42 171.468 111.634 171.51 111.844C171.551 112.055 171.606 112.26 171.674 112.461H175.301C175.132 112.193 175.015 111.79 174.948 111.253C174.881 110.716 174.848 110.152 174.848 109.565V109.565Z" fill="black" fill-opacity="0.25098"/>
<path fill-rule="evenodd" clip-rule="evenodd" d="M184.62 99.4375V106.264C184.62 107.591 184.401 108.544 183.965 109.123C183.528 109.702 182.823 109.992 181.849 109.992C180.993 109.992 180.396 109.727 180.061 109.198C179.724 108.669 179.556 107.867 179.556 106.793V99.4375H175.98V107.448C175.98 108.254 176.051 108.988 176.194 109.652C176.337 110.315 176.584 110.878 176.937 111.34C177.29 111.801 177.772 112.159 178.385 112.41C178.998 112.662 179.783 112.788 180.74 112.788C181.496 112.788 182.235 112.62 182.958 112.284C183.679 111.949 184.267 111.402 184.72 110.647H184.796V112.46H188.196V99.4375H184.62Z" fill="black" fill-opacity="0.25098"/>
<path fill-rule="evenodd" clip-rule="evenodd" d="M84.3081 71.4316H79.3585C78.689 71.4316 78.1406 71.9794 78.1406 72.6488V77.9584C78.1406 78.6278 78.689 79.1756 79.3585 79.1756H84.3081C84.9782 79.1756 85.5253 78.6278 85.5253 77.9584V72.6488C85.5253 71.9794 84.9782 71.4316 84.3081 71.4316" fill="black" fill-opacity="0.25098"/>
<path fill-rule="evenodd" clip-rule="evenodd" d="M84.3081 105.479H79.3585C78.689 105.479 78.1406 106.026 78.1406 106.696V112.005C78.1406 112.675 78.689 113.222 79.3585 113.222H84.3081C84.9782 113.222 85.5253 112.675 85.5253 112.005V106.696C85.5253 106.026 84.9782 105.479 84.3081 105.479" fill="black" fill-opacity="0.25098"/>
<path fill-rule="evenodd" clip-rule="evenodd" d="M68.6814 96.1988V91.2484C68.6814 90.579 68.1337 90.0312 67.4643 90.0312H62.1547C61.4853 90.0312 60.9375 90.579 60.9375 91.2484V96.1988C60.9375 96.8682 61.4853 97.416 62.1547 97.416H67.4643C68.1337 97.416 68.6814 96.8682 68.6814 96.1988" fill="black" fill-opacity="0.25098"/>
<path fill-rule="evenodd" clip-rule="evenodd" d="M101.511 90.0312H96.2022C95.5321 90.0312 94.9844 90.579 94.9844 91.2484V96.1988C94.9844 96.8682 95.5321 97.416 96.2022 97.416H101.511C102.181 97.416 102.728 96.8682 102.728 96.1988V91.2484C102.728 90.579 102.181 90.0312 101.511 90.0312" fill="black" fill-opacity="0.25098"/>
<path fill-rule="evenodd" clip-rule="evenodd" d="M70.7839 100.576C70.3106 100.102 69.5355 100.102 69.0622 100.576L65.3081 104.33C64.8348 104.804 64.8348 105.578 65.3081 106.051L68.8081 109.552C69.2819 110.025 70.0565 110.025 70.5304 109.552L74.2845 105.797C74.7577 105.324 74.7577 104.549 74.2845 104.076L70.7839 100.576Z" fill="black" fill-opacity="0.25098"/>
<path fill-rule="evenodd" clip-rule="evenodd" d="M92.8823 85.4753C93.3555 85.9491 94.1307 85.9491 94.6039 85.4753L98.3581 81.7211C98.832 81.2479 98.832 80.4727 98.3581 79.9995L94.8581 76.4995C94.3842 76.0262 93.6097 76.0262 93.1358 76.4995L89.3823 80.2536C88.909 80.7269 88.909 81.5014 89.3823 81.9753L92.8823 85.4753Z" fill="black" fill-opacity="0.25098"/>
<path fill-rule="evenodd" clip-rule="evenodd" d="M94.6039 100.576C94.1307 100.102 93.3555 100.102 92.8823 100.576L89.3823 104.076C88.909 104.549 88.909 105.324 89.3823 105.797L93.1358 109.552C93.609 110.025 94.3842 110.025 94.8574 109.552L98.3581 106.051C98.832 105.578 98.832 104.804 98.3581 104.33L94.6039 100.576Z" fill="black" fill-opacity="0.25098"/>
<path fill-rule="evenodd" clip-rule="evenodd" d="M70.5297 76.4995C70.0565 76.0262 69.2813 76.0262 68.8081 76.4995L65.3081 80.0001C64.8348 80.4734 64.8348 81.2479 65.3081 81.7211L69.0616 85.4753C69.5348 85.9491 70.31 85.9491 70.7832 85.4753L74.2845 81.9753C74.7577 81.502 74.7577 80.7269 74.2845 80.2536L70.5297 76.4995Z" fill="black" fill-opacity="0.25098"/>
</g>
</svg>
