<svg width="80" height="80" viewBox="0 0 80 80" fill="none" xmlns="http://www.w3.org/2000/svg">
<rect opacity="0.1" width="80" height="80" rx="40" fill="#B3BAC5"/>
<path fill-rule="evenodd" clip-rule="evenodd" d="M23.1992 40.7999H40.7992V30.3999C40.7992 28.8459 41.6854 27.4989 42.98 26.8366C42.5895 26.5615 42.1132 26.3999 41.5992 26.3999H25.5992C24.2737 26.3999 23.1992 27.4744 23.1992 28.7999V40.7999ZM56.7992 44.7999C56.7992 44.1852 56.5681 43.6244 56.188 43.1998C56.5681 42.7751 56.7992 42.2144 56.7992 41.5996V39.1999H51.1992C49.8737 39.1999 48.7992 38.1254 48.7992 36.7999V33.5999C48.7992 32.2744 49.8737 31.1999 51.1992 31.1999H55.4741L55.4333 31.0339C55.2001 30.0849 54.4148 29.3721 53.4478 29.2316L45.1444 28.0249C45.0301 28.0082 44.9147 27.9999 44.7992 27.9999C43.4737 27.9999 42.3992 29.0744 42.3992 30.3999V41.5996C42.3992 41.8802 42.4474 42.1496 42.5359 42.3999H25.5992C24.2737 42.3999 23.1992 43.4744 23.1992 44.7999V46.3999C23.1992 47.7254 24.2737 48.7999 25.5992 48.7999H26.4559C26.8441 46.0861 29.178 43.9999 31.9992 43.9999C34.8204 43.9999 37.1543 46.0861 37.5425 48.7999H44.0559C44.4441 46.0861 46.778 43.9999 49.5992 43.9999C52.3815 43.9999 54.6899 46.029 55.1254 48.6881C56.0959 48.3804 56.7992 47.4723 56.7992 46.3999V44.7999ZM56.7299 36.3099L55.8673 32.7999H51.1992C50.7574 32.7999 50.3992 33.1581 50.3992 33.5999V36.7999C50.3992 37.2417 50.7574 37.5999 51.1992 37.5999H56.7992V36.8826C56.7992 36.6896 56.7759 36.4973 56.7299 36.3099ZM35.9992 49.5999C35.9992 51.809 34.2084 53.5999 31.9992 53.5999C29.7901 53.5999 27.9992 51.809 27.9992 49.5999C27.9992 47.3908 29.7901 45.5999 31.9992 45.5999C34.2084 45.5999 35.9992 47.3908 35.9992 49.5999ZM53.5992 49.5999C53.5992 51.809 51.8084 53.5999 49.5992 53.5999C47.3901 53.5999 45.5992 51.809 45.5992 49.5999C45.5992 47.3908 47.3901 45.5999 49.5992 45.5999C51.8084 45.5999 53.5992 47.3908 53.5992 49.5999Z" fill="#1DA599"/>
</svg>
