<svg width="7" height="7" viewBox="0 0 7 7" fill="none" xmlns="http://www.w3.org/2000/svg">
<path d="M5.65385 2.15385H4.84616V1.34616C4.84616 0.602808 4.24362 0 3.5 0C2.75639 0 2.15385 0.602808 2.15385 1.34616V2.15385H1.34616C0.602539 2.15385 0 2.75666 0 3.5C0 4.24335 0.602539 4.84616 1.34616 4.84616H2.15385V5.65385C2.15385 6.3972 2.75639 7.00001 3.5 7.00001C4.24362 7.00001 4.84616 6.3972 4.84616 5.65385V4.84616H5.65385C6.39747 4.84616 7.00001 4.24335 7.00001 3.5C7.00001 2.75666 6.3972 2.15385 5.65385 2.15385Z" fill="#FFAB66"/>
</svg>
