<svg width="17" height="286" viewBox="0 0 17 286" fill="none" xmlns="http://www.w3.org/2000/svg">
<path fill-rule="evenodd" clip-rule="evenodd" d="M7.86076 0H1.83975C1.1019 0 0.50187 0.649912 0.50187 1.44955V11.596C0.50187 12.3951 1.1019 13.0454 1.83975 13.0454H7.86076V7.67201L8.92178 6.52267L7.86076 5.37355V0ZM3.17777 2.89909H5.85379C6.2237 2.89909 6.52275 3.22366 6.52275 3.6232C6.52275 4.02389 6.2237 4.34846 5.85379 4.34846H3.17777C2.80787 4.34846 2.50882 4.02389 2.50882 3.62378C2.50882 3.22366 2.80787 2.89909 3.17777 2.89909ZM5.85379 10.1465H3.17777C2.80787 10.1465 2.50882 9.82189 2.50882 9.42178C2.50882 9.02167 2.80787 8.6969 3.17777 8.6969H5.85379C6.2237 8.6969 6.52275 9.02167 6.52275 9.42178C6.52275 9.82189 6.2237 10.1465 5.85379 10.1465ZM6.52275 7.24755H3.84683C3.47682 7.24755 3.17777 6.92298 3.17777 6.52267C3.17777 6.12258 3.47682 5.79801 3.84683 5.79801H6.52275C6.89277 5.79801 7.19182 6.12258 7.19182 6.52267C7.19182 6.92298 6.89277 7.24755 6.52275 7.24755ZM15.2198 0H9.19877V4.77309L10.8138 6.52267L9.19877 8.27187V13.0454H15.2198C15.9576 13.0454 16.5578 12.3951 16.5578 11.596V1.44955C16.5578 0.649912 15.9576 0 15.2198 0ZM10.5368 4.34846C10.1668 4.34846 9.86784 4.02389 9.86784 3.62378C9.86784 3.22366 10.1668 2.89909 10.5368 2.89909H13.2127C13.5827 2.89909 13.8817 3.22366 13.8817 3.62378C13.8817 4.02389 13.5827 4.34846 13.2127 4.34846H10.5368ZM13.2127 10.1465H10.5368C10.1668 10.1465 9.86784 9.82189 9.86784 9.42178C9.86784 9.02167 10.1668 8.6969 10.5368 8.6969H13.2127C13.5827 8.6969 13.8817 9.02167 13.8817 9.42178C13.8817 9.82189 13.5827 10.1465 13.2127 10.1465ZM13.8817 7.24755H11.8748C11.5048 7.24755 11.2057 6.92298 11.2057 6.52267C11.2057 6.12258 11.5048 5.79801 11.8748 5.79801H13.8817C14.2517 5.79801 14.5507 6.12258 14.5507 6.52267C14.5507 6.92298 14.2517 7.24755 13.8817 7.24755Z" fill="#7F63F4"/>
<path fill-rule="evenodd" clip-rule="evenodd" d="M12.5437 57.6004C11.1384 57.6004 10.035 58.4035 9.935 58.5036L11.1384 60.1095C11.1384 60.1095 11.8411 59.6075 12.5437 59.6075C13.949 59.6075 14.049 60.8115 14.049 61.2134C13.6472 61.1129 12.9456 60.912 12.042 61.1129C10.6367 61.4137 9.2324 63.1202 9.935 65.0263C10.6367 66.8323 13.0455 67.1345 14.049 65.6291V66.6327H16.056V61.3127C16.056 58.6035 14.149 57.6004 12.5437 57.6004ZM11.5403 64.1237C11.4403 62.217 13.0455 62.217 14.049 62.3169V63.32C14.049 64.5244 11.7411 65.6291 11.5403 64.1237ZM6.9241 66.7326H9.03155L5.82014 54.6901H3.11103L0 66.7326H2.10745L3.11103 62.7188H5.82014L6.9241 66.7326ZM3.61278 60.7117L4.41529 57.5L5.31839 60.7117H3.61278Z" fill="#AAAAAA"/>
<path fill-rule="evenodd" clip-rule="evenodd" d="M11.6124 112.545H7.8007L6.79664 111.633H5.08573C4.95481 111.633 4.84837 111.74 4.84837 111.871V117.699C4.84837 117.83 4.95481 117.936 5.08573 117.936H5.26604L6.21268 113.064H11.8494V112.782C11.8494 112.651 11.743 112.545 11.6124 112.545ZM8.52959 106.371C4.09605 106.371 0.50187 109.964 0.50187 114.398C0.50187 118.832 4.09605 122.427 8.52959 122.427C12.9631 122.427 16.5578 118.832 16.5578 114.398C16.5578 109.964 12.9631 106.371 8.52959 106.371ZM12.6637 117.755C12.6347 118.308 12.1849 118.751 11.6285 118.767C11.6231 118.768 11.6179 118.769 11.6124 118.769H11.1183H5.08552C4.49556 118.769 4.01565 118.289 4.01565 117.699V111.871C4.01565 111.281 4.49569 110.801 5.08586 110.801H7.11832L8.12226 111.712H11.6124C12.2023 111.712 12.6822 112.192 12.6822 112.783V113.064L13.6405 113.064L12.6637 117.755Z" fill="#AAAAAA"/>
<path fill-rule="evenodd" clip-rule="evenodd" d="M0.50187 161.563V176.615H16.5578V161.563H0.50187ZM5.51926 175.612H1.50534V173.605H5.51926V175.612ZM5.51926 172.601H1.50534V170.594H5.51926V172.601ZM5.51926 169.591H1.50534V167.584H5.51926V169.591ZM5.51926 166.58H1.50534V164.573H5.51926V166.58ZM10.5368 175.612H6.52275V173.605H10.5368V175.612ZM10.5368 172.601H6.52275V170.594H10.5368V172.601ZM10.5368 169.591H6.52275V167.584H10.5368V169.591ZM10.5368 166.58H6.52275V164.573H10.5368V166.58ZM15.5543 175.612H11.5403V173.605H15.5543V175.612ZM15.5543 172.601H11.5403V170.594H15.5543V172.601ZM15.5543 169.591H11.5403V167.584H15.5543V169.591ZM15.5543 166.58H11.5403V164.573H15.5543V166.58Z" fill="#AAAAAA"/>
<path fill-rule="evenodd" clip-rule="evenodd" d="M5.89867 274.109C5.78439 274.186 5.6374 274.194 5.51624 274.128C5.3951 274.061 5.31941 273.934 5.31941 273.794V271.232C5.31941 271.106 5.38165 270.988 5.48535 270.917L8.32307 268.997C8.44825 268.911 8.61132 268.911 8.73639 268.997L11.5741 270.917C11.6778 270.988 11.7401 271.106 11.7401 271.232V273.794C11.7401 273.934 11.6644 274.061 11.5433 274.128C11.422 274.194 11.2751 274.186 11.1608 274.109L9.84827 273.22V278.597C9.84827 279.336 9.25685 279.936 8.52979 279.936C7.80272 279.936 7.21118 279.336 7.21118 278.597V273.22L5.89867 274.109ZM15.0372 273.053C16.0366 274.452 16.5647 276.107 16.5647 277.84C16.5647 282.339 12.9602 286 8.52979 286C4.09922 286 0.494704 282.339 0.494704 277.84C0.494704 276.107 1.02286 274.452 2.02221 273.053C2.13682 272.893 2.35342 272.849 2.51948 272.953L4.61841 274.267C4.70662 274.323 4.76829 274.412 4.78838 274.516C4.80859 274.619 4.78539 274.726 4.72442 274.812C4.14034 275.629 3.83153 276.597 3.83153 277.61C3.83153 280.241 5.93921 282.382 8.52979 282.382C11.1204 282.382 13.228 280.241 13.228 277.61C13.228 276.597 12.9192 275.629 12.3352 274.812C12.2743 274.726 12.2512 274.619 12.2712 274.516C12.2913 274.412 12.353 274.323 12.4413 274.267L14.5401 272.953C14.706 272.849 14.9227 272.893 15.0372 273.053Z" fill="#AAAAAA"/>
</svg>
