<svg width="44" height="50" viewBox="0 0 44 50" fill="none" xmlns="http://www.w3.org/2000/svg">
<g clip-path="url(#clip0_12_5799)">
<path d="M0 21.875H18.75V3.125H0V21.875ZM6.25 9.375H12.5V15.625H6.25V9.375ZM25 3.125V21.875H43.75V3.125H25ZM37.5 15.625H31.25V9.375H37.5V15.625ZM0 46.875H18.75V28.125H0V46.875ZM6.25 34.375H12.5V40.625H6.25V34.375ZM40.625 28.125H43.75V40.625H34.375V37.5H31.25V46.875H25V28.125H34.375V31.25H40.625V28.125ZM40.625 43.75H43.75V46.875H40.625V43.75ZM34.375 43.75H37.5V46.875H34.375V43.75Z" fill="#FEFEFE"/>
</g>
<defs>
<clipPath id="clip0_12_5799">
<rect width="43.75" height="50" fill="white"/>
</clipPath>
</defs>
</svg>
