<svg width="27" height="62" viewBox="0 0 27 62" fill="none" xmlns="http://www.w3.org/2000/svg">
<path d="M6.8172 1.22656V60.7734C6.8172 61.4505 6.2677 62 5.59064 62H1.22656C0.547044 62 0 61.4505 0 60.7734V1.22656C0 0.549497 0.547044 0 1.22656 0H5.59064C6.2677 0 6.8172 0.549497 6.8172 1.22656Z" fill="#D9D9FF"/>
<path d="M16.7033 1.22656V60.7734C16.7033 61.4505 16.1538 62 15.4768 62H11.1102C10.4332 62 9.88366 61.4505 9.88366 60.7734V1.22656C9.88366 0.549497 10.4332 0 11.1102 0H15.4768C16.1538 0 16.7033 0.549497 16.7033 1.22656Z" fill="#D9D9FF"/>
<path d="M26.5875 1.22656V60.7734C26.5875 61.4505 26.0404 62 25.3609 62H20.9968C20.3198 62 19.7703 61.4505 19.7703 60.7734V1.22656C19.7703 0.549497 20.3198 0 20.9968 0H25.3609C26.0404 0 26.5875 0.549497 26.5875 1.22656Z" fill="#D9D9FF"/>
</svg>
