<svg width="28" height="28" viewBox="0 0 28 28" fill="none" xmlns="http://www.w3.org/2000/svg">
<path d="M27.9956 14.1202C28.0153 6.3395 21.7613 0.0199841 14.0338 0.000356731C6.30099 -0.019284 0.020191 6.2684 0.000428644 14.0491C-0.0174221 21.0771 5.08476 26.9175 11.7755 27.9899L11.8005 18.1512L8.24603 18.1422L8.25637 14.0709L11.8109 14.08L11.8188 10.9753C11.8277 7.44626 13.9192 5.50265 17.1176 5.51078C18.6495 5.51467 20.2524 5.79338 20.2524 5.79338L20.2436 9.25899L18.4755 9.2545C16.7398 9.2501 16.1947 10.3358 16.1918 11.4494L16.1851 14.0902L20.0668 14.1L19.4327 18.1697L16.1748 18.1614L16.1498 28.0002C22.8407 26.9617 27.9777 21.1474 27.9956 14.1193L27.9956 14.1202Z" fill="#193FF6"/>
</svg>
