<svg width="16" height="16" viewBox="0 0 16 16" fill="none" xmlns="http://www.w3.org/2000/svg">
<path d="M8 0C3.58065 0 0 3.58065 0 8C0 12.4194 3.58065 16 8 16C12.4194 16 16 12.4194 16 8C16 3.58065 12.4194 0 8 0ZM10.9677 10.0968L10.3226 10.9032C10.2258 11.0323 10.0645 11.129 9.90323 11.129C9.80645 11.129 9.67742 11.0645 9.6129 11L7.45161 9.3871C7.16129 9.19355 6.96774 8.74194 6.96774 8.3871V3.35484C6.96774 3.09677 7.19355 2.83871 7.48387 2.83871H8.51613C8.77419 2.83871 9.03226 3.09677 9.03226 3.35484V8L10.9032 9.3871C11 9.48387 11.0968 9.64516 11.0968 9.77419C11.0968 9.90323 11.0323 10.0323 10.9677 10.0968Z" fill="#6E7684"/>
</svg>
