<svg width="17" height="293" viewBox="0 0 17 293" fill="none" xmlns="http://www.w3.org/2000/svg">
<path fill-rule="evenodd" clip-rule="evenodd" d="M15.2432 221.856C15.6172 221.901 15.912 222.196 15.9579 222.57C15.9634 222.615 16.0922 223.68 16.0577 224.921C16.0068 226.748 15.6443 227.974 14.9494 228.669L14.147 229.472L12.8487 230.769L9.79411 233.824L8.94976 234.668L7.78848 235.829L7.20801 235.248L5.46614 233.507L6.62732 232.346L11.4658 227.508L11.4665 227.508C11.4736 227.501 11.4802 227.493 11.487 227.486L11.5061 227.465C11.5119 227.458 11.5172 227.452 11.5226 227.445C11.5291 227.437 11.5359 227.429 11.542 227.421C11.5449 227.417 11.5476 227.413 11.5504 227.409C11.5518 227.407 11.5533 227.405 11.5548 227.402C11.5573 227.399 11.5598 227.395 11.5622 227.392C11.5664 227.386 11.5704 227.38 11.5743 227.374C11.5761 227.372 11.5777 227.369 11.5793 227.366C11.5812 227.363 11.5831 227.36 11.585 227.357C11.5867 227.354 11.5884 227.351 11.5901 227.349C11.5946 227.341 11.599 227.334 11.603 227.326C11.608 227.317 11.6122 227.309 11.6167 227.3C11.6188 227.296 11.6209 227.292 11.623 227.288C11.6248 227.284 11.6266 227.281 11.6283 227.278C11.6328 227.268 11.6368 227.258 11.6408 227.248C11.6417 227.246 11.6427 227.244 11.6436 227.242C11.6447 227.239 11.6458 227.236 11.647 227.234C11.648 227.232 11.6491 227.229 11.65 227.227C11.7165 227.056 11.724 226.868 11.6723 226.694C11.6716 226.691 11.6707 226.689 11.6699 226.687C11.6692 226.685 11.6684 226.683 11.6678 226.681C11.6613 226.66 11.6543 226.639 11.646 226.619C11.644 226.614 11.6417 226.609 11.6394 226.604C11.6382 226.602 11.6369 226.599 11.6358 226.597C11.6282 226.579 11.6208 226.563 11.6121 226.546C11.6094 226.541 11.6063 226.536 11.6032 226.531C11.6018 226.529 11.6005 226.526 11.5991 226.524C11.5901 226.508 11.5811 226.492 11.5709 226.476C11.5653 226.468 11.5592 226.46 11.5529 226.451C11.5488 226.446 11.5446 226.44 11.5406 226.434C11.5383 226.431 11.536 226.428 11.5338 226.425C11.53 226.42 11.5262 226.415 11.522 226.41C11.5044 226.388 11.4857 226.368 11.4656 226.348C11.145 226.027 10.625 226.027 10.3044 226.348L4.30476 232.346L2.56357 230.606C2.56351 230.605 2.56339 230.605 2.56323 230.605C2.56313 230.605 2.56302 230.604 2.56289 230.604L1.9822 230.024L3.14348 228.863L7.04243 224.964L8.34082 223.667H8.34094L9.14326 222.864C9.83832 222.169 11.0643 221.806 12.8916 221.756C14.1335 221.721 15.1984 221.85 15.2432 221.856ZM4.49836 222.864C4.71826 222.644 5.04347 222.567 5.33857 222.666L6.59884 223.086L0.821014 228.863L0.240544 228.282C-0.0801645 227.962 -0.0801646 227.442 0.240444 227.121L4.49836 222.864ZM2.56289 232.926L4.88533 235.248C5.20594 235.57 5.20594 236.089 4.88533 236.409C4.56472 236.731 4.04478 236.731 3.72417 236.409L1.40173 234.088C1.08112 233.767 1.08112 233.247 1.40173 232.926C1.72243 232.606 2.24228 232.606 2.56289 232.926ZM15.1476 232.473L14.7275 231.214L8.94976 236.99L9.53035 237.571C9.68434 237.725 9.8931 237.811 10.1109 237.811C10.3288 237.811 10.5375 237.725 10.6914 237.571L14.9492 233.313C15.1692 233.094 15.2459 232.769 15.1476 232.473Z" fill="#AAAAAA"/>
<path fill-rule="evenodd" clip-rule="evenodd" d="M7.41941 178.611H6.18454H1.24463C0.439197 178.611 0.0053846 177.103 0.0053846 176.186V164.975C0.0053846 164.745 0.168659 164.559 0.370424 164.559H15.7034C15.9052 164.559 16.0685 164.745 16.0685 164.975V176.186C16.0685 177.103 15.6345 178.611 14.8292 178.611H9.88943H7.41941ZM2.01651 176.605H14.0573V166.571H2.01651V176.605ZM4.77901 175.595H3.27793C3.13968 175.595 3.02772 175.416 3.02772 175.195V171.998C3.02772 171.777 3.13968 171.598 3.27793 171.598H4.77901C4.91738 171.598 5.02922 171.777 5.02922 171.998V175.195C5.02922 175.416 4.91738 175.595 4.77901 175.595ZM7.27564 175.595H8.79819C8.9384 175.595 9.05197 175.427 9.05197 175.219V169.955C9.05197 169.747 8.9384 169.579 8.79819 169.579H7.27564C7.13544 169.579 7.02188 169.747 7.02188 169.955V175.219C7.02188 175.427 7.13544 175.595 7.27564 175.595ZM12.7959 175.596H11.2947C11.1565 175.596 11.0446 175.438 11.0446 175.244V168.916C11.0446 168.722 11.1565 168.565 11.2947 168.565H12.7959C12.9342 168.565 13.046 168.722 13.046 168.916V175.244C13.046 175.438 12.9342 175.596 12.7959 175.596Z" fill="#AAAAAA"/>
<path fill-rule="evenodd" clip-rule="evenodd" d="M9.61296 117.405C9.75685 117.405 9.8749 117.488 9.9671 117.654C10.0592 117.821 10.1055 118.038 10.1055 118.307C10.1055 118.574 10.0592 118.791 9.9671 118.954C9.8749 119.119 9.75685 119.2 9.61296 119.2C9.45989 119.2 9.33738 119.119 9.24516 118.954C9.15295 118.791 9.1069 118.574 9.1069 118.307C9.1069 118.038 9.15295 117.821 9.24516 117.654C9.33738 117.488 9.45989 117.405 9.61296 117.405ZM4.95085 119.18H5.57161V118.348L4.95085 119.18ZM13.0471 119.18H13.6678V118.348L13.0471 119.18ZM16.0643 125.376V114.394H0.00979888V125.376H3.49512V126.827H2.09373V128.441H13.9802V126.827H12.5788V125.376H16.0643ZM5.27604 121.985H4.54526V123.08H2.96761V121.985L1.24469 122.056V120.779L3.46574 116.92H4.54526V120.485H5.27604V121.985ZM10.1585 120.445C10.0478 120.772 9.89419 121.055 9.6977 121.293C9.50112 121.531 9.26871 121.716 9.00023 121.849C8.73164 121.981 8.43973 122.047 8.12418 122.047C7.80863 122.047 7.51651 121.981 7.24814 121.849C6.97955 121.716 6.74702 121.531 6.55066 121.293C6.35407 121.055 6.20042 120.772 6.08974 120.445C5.97891 120.119 5.92368 119.761 5.92368 119.373C5.92368 118.985 5.97891 118.628 6.08974 118.301C6.20042 117.975 6.35407 117.693 6.55066 117.454C6.74702 117.216 6.97955 117.029 7.24814 116.893C7.51651 116.759 7.80863 116.69 8.12418 116.69C8.43973 116.69 8.73164 116.759 9.00023 116.893C9.26858 117.029 9.50112 117.216 9.6977 117.454C9.89419 117.693 10.0478 117.975 10.1585 118.301C10.2693 118.628 10.3247 118.985 10.3247 119.373C10.3247 119.761 10.2692 120.119 10.1585 120.445ZM10.798 121.985V120.485L13.4303 116.92H14.5097V120.485L14.8293 120.779V122.056L14.5097 121.985V123.08H12.932V121.985H10.798Z" fill="#AAAAAA"/>
<path fill-rule="evenodd" clip-rule="evenodd" d="M14.6532 56.1334H14.1829V55.6632C14.1829 55.4032 13.9725 55.1928 13.7125 55.1928C13.4526 55.1928 13.2422 55.4032 13.2422 55.6632V56.1334H11.3294V55.6632C11.3294 55.4032 11.1191 55.1928 10.8591 55.1928C10.5991 55.1928 10.3888 55.4032 10.3888 55.6632V56.1334H8.50737V55.6632C8.50737 55.4032 8.29701 55.1928 8.03704 55.1928C7.77704 55.1928 7.56668 55.4032 7.56668 55.6632V56.1334H5.68529V55.6632C5.68529 55.4032 5.47493 55.1928 5.21496 55.1928C4.95496 55.1928 4.7446 55.4032 4.7446 55.6632V56.1334H2.83188V55.6632C2.83188 55.4032 2.62139 55.1928 2.36152 55.1928C2.10155 55.1928 1.89117 55.4032 1.89117 55.6632V56.1334H1.42084C0.642739 56.1334 0.00979888 56.7665 0.00979888 57.5447V58.9869H16.0643V57.5447C16.0643 56.7665 15.4313 56.1334 14.6532 56.1334ZM9.14399 64.6043L9.94505 63.8232L8.83809 63.6618C8.68468 63.64 8.5524 63.5438 8.48394 63.4053L7.98879 62.4016L7.49364 63.4053C7.42521 63.5438 7.29293 63.64 7.13952 63.6618L6.03254 63.8232L6.83361 64.6043C6.94418 64.7119 6.99483 64.8681 6.96864 65.0198L6.77941 66.1545L7.77016 65.6339C7.8386 65.5976 7.91348 65.5797 7.98879 65.5797C8.06413 65.5797 8.13899 65.5976 8.20744 65.6339L9.1982 66.1545L9.00895 65.0198C8.98278 64.8681 9.0333 64.7119 9.14399 64.6043ZM0.00979888 59.9275V68.4257H16.0643V59.9275H0.00979888ZM11.2843 63.8314L9.97756 65.1369L10.2862 66.9346C10.3166 67.111 10.244 67.289 10.0993 67.3947C9.95366 67.5011 9.76017 67.513 9.60412 67.4304L7.98868 66.5816L6.37325 67.4304C6.21662 67.5148 6.02371 67.5006 5.8781 67.3947C5.73341 67.289 5.66084 67.111 5.69114 66.9346L5.99981 65.1369L4.69304 63.8314C4.5649 63.7065 4.51907 63.5194 4.57409 63.3497C4.62966 63.1792 4.77665 63.0555 4.95394 63.0295L6.75954 62.7673L7.56703 61.1305C7.72503 60.809 8.25234 60.809 8.41045 61.1305L9.21794 62.7673L11.0235 63.0295C11.2007 63.0555 11.3478 63.1792 11.4033 63.3497C11.4585 63.5194 11.4125 63.7065 11.2843 63.8314ZM0.00979888 69.8364V69.366H16.0643V69.8364C16.0643 70.6144 15.4313 71.2478 14.6532 71.2478H1.42084C0.642739 71.2478 0.00979888 70.6144 0.00979888 69.8364Z" fill="#AAAAAA"/>
<path fill-rule="evenodd" clip-rule="evenodd" d="M4.94768 9.32464C4.94768 8.98206 5.22488 8.70341 5.56559 8.70341C5.90629 8.70341 6.18337 8.98206 6.18337 9.32464C6.18337 9.6677 5.90629 9.94579 5.56559 9.94579C5.22488 9.94579 4.94768 9.6677 4.94768 9.32464ZM9.89045 14.2981C9.89045 13.955 10.1677 13.6761 10.5084 13.6761C10.8489 13.6761 11.1261 13.955 11.1261 14.2981C11.1261 14.641 10.8489 14.9199 10.5084 14.9199C10.1677 14.9199 9.89045 14.641 9.89045 14.2981ZM15.451 0H0.622939C0.281781 0 0.00502193 0.277517 0.00502193 0.621245V18.4428C0.00502193 18.6581 0.116079 18.8579 0.297856 18.9714C0.480536 19.0849 0.707325 19.0943 0.899217 18.9987L3.09421 17.8941L5.2892 18.9987C5.46305 19.086 5.66814 19.086 5.84187 18.9987L8.03698 17.8941L10.232 18.9987C10.3188 19.0427 10.4137 19.0642 10.5083 19.0642C10.6028 19.0642 10.6977 19.0427 10.7846 18.9987L12.9796 17.8941L15.1746 18.9987C15.3665 19.0943 15.5933 19.0849 15.776 18.9714C15.9578 18.8579 16.0688 18.6581 16.0688 18.4428V0.621245C16.0688 0.277517 15.7921 0 15.451 0ZM3.09421 2.48627C3.43548 2.48627 3.7121 2.76485 3.7121 3.108C3.7121 3.45162 3.43548 3.7299 3.09421 3.7299C2.75305 3.7299 2.47641 3.45162 2.47641 3.108C2.47641 2.76485 2.75305 2.48627 3.09421 2.48627ZM3.09421 6.21647C2.75305 6.21647 2.47641 5.93828 2.47641 5.59474C2.47641 5.25122 2.75305 4.97294 3.09421 4.97294C3.43548 4.97294 3.7121 5.25122 3.7121 5.59474C3.7121 5.93828 3.43548 6.21647 3.09421 6.21647ZM3.7121 9.32464C3.7121 8.29615 4.54349 7.45952 5.56559 7.45952C6.5877 7.45952 7.41907 8.29615 7.41907 9.32464C7.41907 10.3531 6.5877 11.1902 5.56559 11.1902C4.54349 11.1902 3.7121 10.3531 3.7121 9.32464ZM5.85243 14.8884C5.73176 15.0102 5.57362 15.071 5.41551 15.071C5.25749 15.071 5.09937 15.0102 4.97868 14.8884C4.73742 14.6463 4.73742 14.2523 4.97868 14.0098L10.2211 8.73471C10.4624 8.49174 10.8534 8.49174 11.0948 8.73471C11.3361 8.9768 11.3361 9.37105 11.0948 9.61353L5.85243 14.8884ZM10.5084 16.1631C9.48626 16.1631 8.65476 15.3265 8.65476 14.2981C8.65476 13.2695 9.48626 12.4332 10.5084 12.4332C11.5304 12.4332 12.3618 13.2695 12.3618 14.2981C12.3618 15.3265 11.5304 16.1631 10.5084 16.1631ZM12.9796 6.21647H5.56559C5.22454 6.21647 4.94768 5.93828 4.94768 5.59474C4.94768 5.25122 5.22454 4.97294 5.56559 4.97294H12.9796C13.3207 4.97294 13.5975 5.25122 13.5975 5.59474C13.5975 5.93828 13.3207 6.21647 12.9796 6.21647ZM12.9796 3.72932H5.56559C5.22454 3.72932 4.94768 3.45162 4.94768 3.108C4.94768 2.76446 5.22454 2.48627 5.56559 2.48627H12.9796C13.3207 2.48627 13.5975 2.76485 13.5975 3.108C13.5975 3.45162 13.3207 3.72932 12.9796 3.72932Z" fill="#AAAAAA"/>
<path fill-rule="evenodd" clip-rule="evenodd" d="M10.3635 282.629C15.3266 283.523 15.9752 284.936 16.0538 289.893C16.0589 290.211 16.0615 290.265 16.0628 290.237C16.0627 290.321 16.0626 290.445 16.0626 290.623C16.0626 290.623 14.8809 293 8.03659 293C1.19224 293 0.0106259 290.623 0.0106259 290.623C0.0106259 290.345 0.0102848 290.187 0.0100439 290.101C0.0113082 290.147 0.0147598 290.126 0.0222252 289.732C0.112592 284.905 0.800647 283.514 5.70955 282.629C5.70955 282.629 6.4083 283.518 8.03659 283.518C9.66489 283.518 10.3635 282.629 10.3635 282.629Z" fill="#AAAAAA"/>
</svg>
