<svg width="114" height="17" viewBox="0 0 114 17" fill="none" xmlns="http://www.w3.org/2000/svg">
<path fill-rule="evenodd" clip-rule="evenodd" d="M7.84562 0.582311C8.2333 -0.198996 9.34707 -0.189195 9.73147 0.582311L11.8769 4.91067L16.6769 5.607C17.5377 5.73122 17.8826 6.78714 17.2584 7.39194L13.7857 10.7592L14.607 15.5158C14.7549 16.3756 13.8448 17.0163 13.0826 16.6175L8.78855 14.3716L4.49448 16.6175C3.73225 17.0196 2.82221 16.3756 2.97005 15.5158L3.79141 10.7592L0.318702 7.39194C-0.30553 6.78714 0.0394405 5.73122 0.900231 5.607L5.70024 4.91067L7.84562 0.582311Z" fill="#FABB3D"/>
<path fill-rule="evenodd" clip-rule="evenodd" d="M31.9513 0.582311C32.339 -0.198996 33.4528 -0.189195 33.8372 0.582311L35.9826 4.91067L40.7826 5.607C41.6434 5.73122 41.9883 6.78714 41.3641 7.39194L37.8914 10.7592L38.7128 15.5158C38.8606 16.3756 37.9506 17.0163 37.1883 16.6175L32.8943 14.3716L28.6002 16.6175C27.838 17.0196 26.9279 16.3756 27.0758 15.5158L27.8971 10.7592L24.4244 7.39194C23.8002 6.78714 24.1452 5.73122 25.006 5.607L29.806 4.91067L31.9513 0.582311Z" fill="#FF3B00"/>
<path fill-rule="evenodd" clip-rule="evenodd" d="M56.0571 0.582311C56.4447 -0.198996 57.5585 -0.189195 57.9429 0.582311L60.0883 4.91067L64.8883 5.607C65.7491 5.73122 66.0941 6.78714 65.4698 7.39194L61.9971 10.7592L62.8185 15.5158C62.9663 16.3756 62.0563 17.0163 61.2941 16.6175L57 14.3716L52.7059 16.6175C51.9437 17.0196 51.0337 16.3756 51.1815 15.5158L52.0029 10.7592L48.5302 7.39194C47.9059 6.78714 48.2509 5.73122 49.1117 5.607L53.9117 4.91067L56.0571 0.582311Z" fill="#FF3B00"/>
<path fill-rule="evenodd" clip-rule="evenodd" d="M80.1628 0.582311C80.5505 -0.198996 81.6643 -0.189195 82.0487 0.582311L84.194 4.91067L88.994 5.607C89.8548 5.73122 90.1998 6.78714 89.5756 7.39194L86.1029 10.7592L86.9242 15.5158C87.0721 16.3756 86.162 17.0163 85.3998 16.6175L81.1057 14.3716L76.8117 16.6175C76.0494 17.0196 75.1394 16.3756 75.2872 15.5158L76.1086 10.7592L72.6359 7.39194C72.0117 6.78714 72.3566 5.73122 73.2174 5.607L78.0174 4.91067L80.1628 0.582311Z" fill="#FF3B00"/>
<path fill-rule="evenodd" clip-rule="evenodd" d="M104.269 0.582311C104.656 -0.198996 105.77 -0.189195 106.154 0.582311L108.3 4.91067L113.1 5.607C113.961 5.73122 114.306 6.78714 113.681 7.39194L110.209 10.7592L111.03 15.5158C111.178 16.3756 110.268 17.0163 109.506 16.6175L105.211 14.3716L100.917 16.6175C100.155 17.0196 99.2451 16.3756 99.393 15.5158L100.214 10.7592L96.7416 7.39194C96.1174 6.78714 96.4623 5.73122 97.3231 5.607L102.123 4.91067L104.269 0.582311Z" fill="#FF3B00"/>
</svg>
