<svg width="28" height="28" viewBox="0 0 28 28" fill="none" xmlns="http://www.w3.org/2000/svg">
<path d="M22.1663 5.83337H20.9997V3.50004C20.9997 3.19062 20.8768 2.89388 20.658 2.67508C20.4392 2.45629 20.1424 2.33337 19.833 2.33337C19.5236 2.33337 19.2268 2.45629 19.0081 2.67508C18.7893 2.89388 18.6663 3.19062 18.6663 3.50004V5.83337H9.33301V3.50004C9.33301 3.19062 9.21009 2.89388 8.9913 2.67508C8.77251 2.45629 8.47576 2.33337 8.16634 2.33337C7.85692 2.33337 7.56018 2.45629 7.34138 2.67508C7.12259 2.89388 6.99967 3.19062 6.99967 3.50004V5.83337H5.83301C4.90475 5.83337 4.01451 6.20212 3.35813 6.8585C2.70176 7.51488 2.33301 8.40512 2.33301 9.33337V10.5H25.6663V9.33337C25.6663 8.40512 25.2976 7.51488 24.6412 6.8585C23.9848 6.20212 23.0946 5.83337 22.1663 5.83337Z" fill="white"/>
<path d="M2.33301 22.1667C2.33301 23.095 2.70176 23.9852 3.35813 24.6416C4.01451 25.298 4.90475 25.6667 5.83301 25.6667H22.1663C23.0946 25.6667 23.9848 25.298 24.6412 24.6416C25.2976 23.9852 25.6663 23.095 25.6663 22.1667V12.8334H2.33301V22.1667Z" fill="white"/>
</svg>
