<svg width="25" height="25" viewBox="0 0 25 25" fill="none" xmlns="http://www.w3.org/2000/svg">
<path d="M10.687 5.00954V7.29962L12.0706 8.73092C11.7366 7.06107 12.2615 5.39122 13.4542 4.19847C14.4084 3.19656 15.6966 2.71947 17.0324 2.71947H17.0802L14.3607 5.43893L15.0763 9.73282L19.3702 10.4485L22.1374 7.72901C22.1374 9.06489 21.6126 10.4008 20.6107 11.355C20.1813 11.8321 19.6565 12.166 19.1317 12.4046C19.1794 12.4523 19.2748 12.5477 19.3702 12.5954L20.8492 14.0744C21.3263 13.7882 21.8034 13.4065 22.2328 12.9771C24.0458 11.1641 24.8092 8.49237 24.1889 6.01145C24.0458 5.39122 23.6164 4.96183 23.0439 4.77099C22.4237 4.62786 21.8034 4.8187 21.4218 5.20038L18.6069 8.01527L17.0324 7.77672L16.7939 6.20229L19.6088 3.43511C20.0382 3.00573 20.1813 2.3855 20.0382 1.81298C19.8473 1.24046 19.4179 0.763359 18.7977 0.620229C16.2691 0 13.645 0.715649 11.8321 2.57634C11.355 3.05344 10.9256 3.57824 10.5916 4.19847H10.687V5.00954ZM5.05725 22.042C4.43702 22.6622 3.33969 22.6622 2.71947 22.042C2.43321 21.7557 2.24237 21.3263 2.24237 20.8969C2.24237 20.4676 2.43321 20.0859 2.71947 19.7519L9.16031 13.3588L7.53817 11.7366L1.14504 18.1298C0.381679 18.8931 0 19.895 0 20.8969C0 21.9466 0.381679 22.9485 1.14504 23.6641C1.86069 24.4275 2.8626 24.8092 3.91221 24.8092C4.91412 24.8092 5.91603 24.4275 6.67939 23.6641L11.4504 18.8931C11.021 18.1298 10.7347 17.271 10.7347 16.3645L5.05725 22.042ZM23.9027 19.2748L18.3206 13.6927C17.1756 12.5954 15.5534 12.3569 14.2176 13.0248L9.16031 7.96756V4.96183L3.05344 0.381679L0 3.43511L4.58015 9.54198H7.53817L12.5954 14.6469C11.9752 15.9828 12.166 17.605 13.2634 18.7023L18.8454 24.3321C19.5611 25 20.6584 25 21.374 24.3321L23.9027 21.8034C24.5706 21.0878 24.5706 19.9905 23.9027 19.2748Z" fill="#EA001E"/>
</svg>
