<svg width="18" height="14" viewBox="0 0 18 14" fill="none" xmlns="http://www.w3.org/2000/svg">
<path fill-rule="evenodd" clip-rule="evenodd" d="M11.2302 7.81044C10.598 8.29903 9.67587 9.01164 8.99998 8.99998C8.32409 9.01164 7.40196 8.29903 6.76973 7.81043C6.63902 7.70942 6.52069 7.61798 6.4195 7.5445C2.09552 4.40659 1.47421 3.92037 0.549895 3.19702C0.476954 3.13994 0.402126 3.08138 0.323444 3.01993C0.119545 2.85819 0 2.61563 0 2.35546V1.6875C0 0.755858 0.755858 0 1.6875 0H16.3125C17.2441 0 18 0.755858 18 1.6875V2.35546C18 2.61563 17.8804 2.86173 17.6765 3.01993L17.4197 3.22154L17.2362 3.36536C17.1755 3.41293 17.1146 3.46044 17.0525 3.50876L16.9262 3.60676C16.1538 4.20446 15.0794 5.00535 11.5805 7.5445C11.4793 7.61798 11.3609 7.70942 11.2302 7.81044ZM18 11.8125C18 12.7441 17.2441 13.5 16.3125 13.5H1.6875C0.755858 13.5 0 12.7441 0 11.8125V4.62654C0 4.45076 0.200397 4.35233 0.341022 4.46133C1.1285 5.07303 2.17264 5.85 5.75857 8.45506C5.87103 8.53714 5.9952 8.63295 6.1293 8.73642C6.87977 9.31549 7.94114 10.1344 8.99998 10.1285C10.0637 10.1374 11.1426 9.30286 11.8814 8.73141C12.0142 8.62864 12.1361 8.53437 12.2449 8.45506C15.8308 5.85 16.8715 5.06953 17.6589 4.4578C17.7961 4.34882 18 4.45076 18 4.62304V11.8125Z" fill="#171717"/>
</svg>
