<svg width="56" height="56" viewBox="0 0 56 56" fill="none" xmlns="http://www.w3.org/2000/svg">
<path d="M33.701 16.6037L16.5996 33.7051L22.3042 39.4097L39.4056 22.3083L33.701 16.6037Z" fill="#FFDD8F"/>
<path d="M5.1995 33.696L2.34102 36.5545C1.55509 37.3404 1.55509 38.6147 2.34102 39.4006L16.5963 53.6559C17.3822 54.4418 18.6565 54.4418 19.4424 53.6559L22.3009 50.7974C23.0868 50.0115 23.0868 48.7372 22.3009 47.9513L8.04561 33.696C7.25968 32.9101 5.98543 32.9101 5.1995 33.696Z" fill="#EDBB46"/>
<path d="M8.04716 25.1569L5.18868 28.0154C4.40275 28.8014 4.40275 30.0756 5.18868 30.8615L25.1485 50.8214C25.9345 51.6073 27.2087 51.6073 27.9946 50.8214L30.8531 47.9629C31.639 47.177 31.639 45.9027 30.8531 45.1168L10.8933 25.1569C10.1073 24.371 8.83309 24.371 8.04716 25.1569Z" fill="#C2952A"/>
<path d="M50.7985 22.3079L53.657 19.4494C54.443 18.6635 54.443 17.3892 53.657 16.6033L39.4018 2.34804C38.6158 1.56211 37.3416 1.56211 36.5556 2.34804L33.6972 5.20652C32.9112 5.99245 32.9112 7.2667 33.6972 8.05263L47.9524 22.3079C48.7384 23.0938 50.0126 23.0938 50.7985 22.3079Z" fill="#EDBB46"/>
<path d="M47.9528 30.8538L50.8113 27.9953C51.5973 27.2094 51.5973 25.9351 50.8113 25.1492L30.8515 5.18935C30.0655 4.40342 28.7913 4.40342 28.0054 5.18935L25.1469 8.04784C24.3609 8.83377 24.3609 10.108 25.1469 10.8939L45.1067 30.8538C45.8927 31.6397 47.1669 31.6397 47.9528 30.8538Z" fill="#C2952A"/>
<path d="M6.60978 43.6969L3.76367 46.543L9.46825 52.2476L12.3144 49.4014L6.60978 43.6969Z" fill="#FFDD8F"/>
<path d="M49.3902 12.3188L52.2363 9.47266L46.5317 3.76807L43.6856 6.61418L49.3902 12.3188Z" fill="#FFDD8F"/>
</svg>
