<svg width="14" height="18" viewBox="0 0 14 18" fill="none" xmlns="http://www.w3.org/2000/svg">
<path d="M7.59375 8.33203C7.59375 8.08594 7.38281 7.91016 7.17188 7.91016H6.32812C6.08203 7.91016 5.90625 8.08594 5.90625 8.33203V11.2852H4.18359C3.79688 11.2852 3.62109 11.7422 3.86719 11.9883L6.39844 14.5195C6.57422 14.6953 6.89062 14.6953 7.06641 14.5195L9.59766 11.9883C9.84375 11.7422 9.66797 11.2852 9.28125 11.2852H7.59375V8.33203ZM12.9727 3.44531L10.0195 0.527344C9.70312 0.210938 9.28125 0 8.85938 0H1.65234C0.738281 0.0351562 0 0.773438 0 1.72266V16.3477C0 17.2617 0.738281 18 1.65234 18H11.7773C12.7266 18 13.5 17.2617 13.5 16.3477V4.64062C13.5 4.21875 13.2891 3.76172 12.9727 3.44531ZM8.96484 1.82812L11.6719 4.53516H8.96484V1.82812ZM11.8125 16.3477H1.65234V1.72266H7.27734V5.37891C7.27734 5.83594 7.66406 6.22266 8.12109 6.22266H11.8125V16.3477Z" fill="#FC4B4E"/>
</svg>
