<svg width="179" height="40" viewBox="0 0 179 40" fill="none" xmlns="http://www.w3.org/2000/svg">
<path d="M0 31.3955V34.6433C0 37.4271 6.87569 39.5923 15.3503 39.5923C23.825 39.5923 30.7007 37.4271 30.7007 34.6433V31.3955C27.3428 33.638 21.3466 34.6433 15.3503 34.6433C9.27419 34.6433 3.27794 33.638 0 31.3955ZM25.5839 9.89807C34.0585 9.89807 40.9342 7.73286 40.9342 4.94904C40.9342 2.24253 34.0585 0 25.5839 0C17.1093 0 10.2336 2.24253 10.2336 4.94904C10.2336 7.73286 17.1093 9.89807 25.5839 9.89807ZM0 23.2759V27.2197C0 30.0035 6.87569 32.1687 15.3503 32.1687C23.825 32.1687 30.7007 30.0035 30.7007 27.2197V23.2759C27.3428 25.9051 21.3466 27.2197 15.3503 27.2197C9.27419 27.2197 3.27794 25.9051 0 23.2759ZM33.2591 24.1266C37.8162 23.2759 40.9342 21.652 40.9342 19.7961V16.5484C39.0154 17.7856 36.2971 18.6362 33.2591 19.1775V24.1266ZM15.3503 12.3726C6.87569 12.3726 0 15.1564 0 18.5589C0 22.0386 6.87569 24.7452 15.3503 24.7452C23.825 24.7452 30.7007 22.0386 30.7007 18.5589C30.7007 15.1564 23.825 12.3726 15.3503 12.3726ZM32.8593 16.7803C37.6563 15.9297 40.9342 14.3058 40.9342 12.3726V9.1248C38.0561 11.058 33.1791 12.0633 28.0623 12.3726C30.3809 13.4552 32.1398 14.9245 32.8593 16.7803Z" fill="#03C4A1"/>
<path d="M69.9603 31.6308L74.8573 11.2161H81.4131L73.0184 39.3637H66.9022L58.5674 11.2161H65.0835L69.9603 31.6308Z" fill="white"/>
<path d="M91.8545 39.364H86.1779V18.4466H91.8545V39.364ZM85.9184 13.0336C85.9184 12.183 86.198 11.487 86.7579 10.9457C87.3171 10.4044 88.0634 10.1337 88.996 10.1337C89.9287 10.1337 90.675 10.4044 91.2348 10.9457C91.7947 11.487 92.0743 12.183 92.0743 13.0336C92.0743 13.8713 91.7947 14.5673 91.2348 15.1214C90.6888 15.6756 89.9426 15.9527 88.996 15.9527C88.0501 15.9527 87.2976 15.6756 86.7377 15.1214C86.1911 14.5673 85.9184 13.8713 85.9184 13.0336Z" fill="white"/>
<path d="M108.952 23.7241L107.072 23.5695C105.527 23.5695 104.481 24.2268 103.935 25.5414V39.3639H98.2583V18.4465H103.595L103.755 20.7084C104.648 18.9427 105.88 18.0598 107.452 18.0598C108.092 18.0598 108.612 18.1436 109.011 18.3111L108.952 23.7241Z" fill="white"/>
<path d="M121.492 13.3041V18.4464H124.39V22.5642H121.492V32.9456C121.492 33.7704 121.605 34.3374 121.832 34.6468C122.072 34.9561 122.524 35.1108 123.191 35.1108C123.737 35.1108 124.184 35.0656 124.53 34.9754L124.49 39.2285C123.531 39.5765 122.491 39.7505 121.372 39.7505C117.721 39.7505 115.875 37.727 115.836 33.6801V22.5642H113.337V18.4464H115.836V13.3041H121.492Z" fill="white"/>
<path d="M140.188 37.4501C139.015 38.9838 137.443 39.7507 135.471 39.7507C133.486 39.7507 131.98 39.0934 130.954 37.7788C129.928 36.4513 129.415 34.5246 129.415 31.9985V18.4466H135.071V32.1338C135.098 34.1701 135.798 35.1883 137.17 35.1883C138.462 35.1883 139.395 34.647 139.968 33.5644V18.4466H145.665V39.364H140.348L140.188 37.4501Z" fill="white"/>
<path d="M162.022 39.3639C161.862 39.0417 161.703 38.5004 161.543 37.74C160.53 39.0803 159.157 39.7505 157.426 39.7505C155.613 39.7505 154.107 39.1705 152.908 38.0106C151.723 36.8507 151.129 35.3492 151.129 33.5062C151.129 31.3152 151.849 29.6205 153.288 28.4218C154.74 27.2233 156.825 26.6111 159.544 26.5853H161.263V24.9034C161.263 23.9626 161.096 23.2988 160.763 22.9122C160.43 22.5256 159.944 22.3322 159.304 22.3322C157.892 22.3322 157.186 23.1313 157.186 24.7294H151.529C151.529 22.7962 152.275 21.2045 153.767 19.9544C155.273 18.6913 157.172 18.0598 159.464 18.0598C161.836 18.0598 163.668 18.6591 164.961 19.8577C166.266 21.0434 166.919 22.7447 166.919 24.9614V34.8015C166.946 36.6058 167.213 38.0171 167.719 39.0352V39.3639H162.022ZM158.685 35.4588C159.311 35.4588 159.844 35.3364 160.283 35.0914C160.723 34.8466 161.05 34.5566 161.263 34.2215V29.8718H159.904C158.945 29.8718 158.185 30.1682 157.625 30.7611C157.079 31.3539 156.806 32.1465 156.806 33.1389C156.806 34.6855 157.432 35.4588 158.685 35.4588Z" fill="white"/>
<path d="M179 39.364H173.323V9.66974H179V39.364Z" fill="white"/>
</svg>
