<svg width="24" height="24" viewBox="0 0 24 24" fill="none" xmlns="http://www.w3.org/2000/svg">
<mask id="mask0_16_17860" style="mask-type:alpha" maskUnits="userSpaceOnUse" x="0" y="4" width="24" height="16">
<path fill-rule="evenodd" clip-rule="evenodd" d="M0.146509 12.3535L7.64651 19.8535C7.84178 20.0488 8.15825 20.0488 8.35353 19.8535C8.5488 19.6582 8.5488 19.3418 8.35353 19.1465L1.70695 12.5L23.5 12.5C23.7764 12.5 24 12.2763 24 12C24 11.7236 23.7764 11.4999 23.5 11.4999L1.70695 11.4999L8.35353 4.85352C8.5488 4.65814 8.5488 4.34177 8.35353 4.1465C8.25589 4.04887 8.12793 3.99999 7.99996 3.99999C7.872 3.99999 7.74414 4.04887 7.6464 4.1465L0.146399 11.6465C-0.0488738 11.8418 -0.0488733 12.1582 0.146509 12.3535Z" fill="white"/>
</mask>
<g mask="url(#mask0_16_17860)">
<rect x="24" y="24" width="24" height="24" transform="rotate(180 24 24)" fill="#2F80ED"/>
</g>
</svg>
