<svg width="18" height="17" viewBox="0 0 18 17" fill="none" xmlns="http://www.w3.org/2000/svg">
<g opacity="0.5">
<path d="M0.886682 6.41228C0.886918 6.26053 0.926094 6.11138 1.00046 5.9791C1.07483 5.84683 1.1819 5.73585 1.31142 5.65679L8.86718 1.03874L16.4229 5.65679C16.5525 5.73585 16.6595 5.84683 16.7339 5.9791C16.8083 6.11138 16.8474 6.26053 16.8477 6.41228V15.2263C16.8477 15.4615 16.7543 15.687 16.588 15.8533C16.4217 16.0196 16.1961 16.113 15.961 16.113H1.7734C1.53823 16.113 1.31269 16.0196 1.1464 15.8533C0.980104 15.687 0.886682 15.4615 0.886682 15.2263V6.41228Z" stroke="#03014C" stroke-width="1.75399"/>
<path d="M0.886682 6.80217L8.86718 11.6791L16.8477 6.80217" stroke="#03014C" stroke-width="1.75399" stroke-linecap="round"/>
</g>
</svg>
