<svg width="21" height="16" viewBox="0 0 21 16" fill="none" xmlns="http://www.w3.org/2000/svg">
<path d="M20.0533 5.76H17.4578L12.8711 0.391111C12.5511 0.0355556 12.0178 0 11.6622 0.284444C11.3067 0.604444 11.2711 1.13778 11.5556 1.49333L15.2178 5.76H5.22667L8.88889 1.49333C9.17333 1.13778 9.13778 0.604444 8.78222 0.284444C8.42667 0 7.89333 0.0355556 7.57333 0.391111L2.98667 5.76H0.426667C0.177778 5.76 0 5.97333 0 6.18667V7.04C0 7.28889 0.177778 7.46667 0.426667 7.46667H1.06667L2.06222 14.5422C2.16889 15.3956 2.88 16 3.73333 16H16.7111C17.5644 16 18.2756 15.3956 18.3822 14.5422L19.3778 7.46667H20.0533C20.2667 7.46667 20.48 7.28889 20.48 7.04V6.18667C20.48 5.97333 20.2667 5.76 20.0533 5.76ZM16.7111 14.2933H3.73333L2.80889 7.46667H17.6356L16.7111 14.2933ZM11.0933 9.45778C11.0933 8.99556 10.7022 8.60444 10.24 8.60444C9.74222 8.60444 9.38667 8.99556 9.38667 9.45778V12.3022C9.38667 12.8 9.74222 13.1556 10.24 13.1556C10.7022 13.1556 11.0933 12.8 11.0933 12.3022V9.45778ZM15.0756 9.45778C15.0756 8.99556 14.6844 8.60444 14.2222 8.60444C13.7244 8.60444 13.3689 8.99556 13.3689 9.45778V12.3022C13.3689 12.8 13.7244 13.1556 14.2222 13.1556C14.6844 13.1556 15.0756 12.8 15.0756 12.3022V9.45778ZM7.11111 9.45778C7.11111 8.99556 6.72 8.60444 6.25778 8.60444C5.76 8.60444 5.40444 8.99556 5.40444 9.45778V12.3022C5.40444 12.8 5.76 13.1556 6.25778 13.1556C6.72 13.1556 7.11111 12.8 7.11111 12.3022V9.45778Z" fill="#264653"/>
</svg>
