<svg width="56" height="56" viewBox="0 0 56 56" fill="none" xmlns="http://www.w3.org/2000/svg">
<path d="M36.1667 8.16675H19.6934C19.0988 8.16561 18.5262 8.39148 18.0926 8.79825C17.6589 9.20502 17.3969 9.76199 17.36 10.3554L15.1714 45.3554C15.1513 45.674 15.1967 45.9933 15.305 46.2936C15.4132 46.5938 15.5819 46.8687 15.8006 47.1012C16.0193 47.3337 16.2834 47.5188 16.5765 47.6452C16.8696 47.7715 17.1855 47.8364 17.5047 47.8357H22.2764C22.8287 47.8355 23.363 47.6393 23.7843 47.2821C24.2056 46.925 24.4865 46.4299 24.577 45.8851L27.93 25.7648L31.283 45.8851C31.3741 46.4295 31.6552 46.924 32.0765 47.2807C32.4977 47.6374 33.0317 47.8333 33.5837 47.8334H38.3554C38.6744 47.834 38.9901 47.7692 39.283 47.643C39.576 47.5168 39.84 47.3319 40.0586 47.0997C40.2773 46.8674 40.446 46.5928 40.5544 46.2928C40.6628 45.9928 40.7085 45.6738 40.6887 45.3554L38.5 10.3554C38.4632 9.76199 38.2012 9.20502 37.7675 8.79825C37.3339 8.39148 36.7613 8.16561 36.1667 8.16675ZM36.1667 10.5001L36.4234 14.6091C35.6298 14.2553 34.9559 13.6787 34.4837 12.9492C34.0115 12.2198 33.7613 11.369 33.7634 10.5001H36.1667ZM22.0967 10.5001C22.0985 11.3689 21.8481 12.2196 21.376 12.949C20.9038 13.6784 20.2302 14.255 19.4367 14.6091L19.6934 10.5001H22.0967ZM33.5837 45.5001L29.0804 18.4754C29.0344 18.2036 28.8937 17.9568 28.6831 17.7789C28.4725 17.6009 28.2057 17.5033 27.93 17.5033C27.6544 17.5033 27.3876 17.6009 27.177 17.7789C26.9664 17.9568 26.8257 18.2036 26.7797 18.4754L22.2764 45.5001H17.5047L19.2687 17.3018C20.7165 16.8238 21.985 15.9177 22.9067 14.7032C23.8283 13.4887 24.3595 12.023 24.43 10.5001H26.7634V14.0001C26.7634 14.3095 26.8863 14.6063 27.1051 14.825C27.3239 15.0438 27.6206 15.1668 27.93 15.1668C28.2395 15.1668 28.5362 15.0438 28.755 14.825C28.9738 14.6063 29.0967 14.3095 29.0967 14.0001V10.5001H31.43C31.5006 12.023 32.0318 13.4887 32.9534 14.7032C33.875 15.9177 35.1436 16.8238 36.5914 17.3018L38.3554 45.5001H33.5837Z" fill="#393D46"/>
</svg>
