<svg width="32" height="32" viewBox="0 0 32 32" fill="none" xmlns="http://www.w3.org/2000/svg">
<path d="M25.3335 9.33317H21.3335V7.99984C21.3335 6.58535 20.7716 5.22879 19.7714 4.2286C18.7712 3.22841 17.4147 2.6665 16.0002 2.6665C14.5857 2.6665 13.2291 3.22841 12.2289 4.2286C11.2287 5.22879 10.6668 6.58535 10.6668 7.99984V9.33317H6.66683C6.31321 9.33317 5.97407 9.47365 5.72402 9.72369C5.47397 9.97374 5.3335 10.3129 5.3335 10.6665L5.3335 25.3332C5.3335 26.394 5.75492 27.4115 6.50507 28.1616C7.25521 28.9117 8.27263 29.3332 9.3335 29.3332H22.6668C23.7277 29.3332 24.7451 28.9117 25.4953 28.1616C26.2454 27.4115 26.6668 26.394 26.6668 25.3332V10.6665C26.6668 10.3129 26.5264 9.97374 26.2763 9.72369C26.0263 9.47365 25.6871 9.33317 25.3335 9.33317ZM13.3335 7.99984C13.3335 7.29259 13.6144 6.61432 14.1145 6.11422C14.6146 5.61412 15.2929 5.33317 16.0002 5.33317C16.7074 5.33317 17.3857 5.61412 17.8858 6.11422C18.3859 6.61432 18.6668 7.29259 18.6668 7.99984V9.33317H13.3335V7.99984ZM24.0002 25.3332C24.0002 25.6868 23.8597 26.0259 23.6096 26.276C23.3596 26.526 23.0205 26.6665 22.6668 26.6665H9.3335C8.97987 26.6665 8.64074 26.526 8.39069 26.276C8.14064 26.0259 8.00016 25.6868 8.00016 25.3332L8.00016 11.9998H10.6668V13.3332C10.6668 13.6868 10.8073 14.0259 11.0574 14.276C11.3074 14.526 11.6465 14.6665 12.0002 14.6665C12.3538 14.6665 12.6929 14.526 12.943 14.276C13.193 14.0259 13.3335 13.6868 13.3335 13.3332V11.9998H18.6668V13.3332C18.6668 13.6868 18.8073 14.0259 19.0574 14.276C19.3074 14.526 19.6465 14.6665 20.0002 14.6665C20.3538 14.6665 20.6929 14.526 20.943 14.276C21.193 14.0259 21.3335 13.6868 21.3335 13.3332V11.9998H24.0002V25.3332Z" fill="#424241"/>
</svg>
