<svg width="14" height="11" viewBox="0 0 14 11" fill="none" xmlns="http://www.w3.org/2000/svg">
<path d="M6.04543 1.4315H7.9541C8.83734 1.4323 9.60421 2.04005 9.80677 2.89975C9.82377 2.97142 9.88769 3.02208 9.96135 3.02225H12.8862C12.9284 3.02241 12.9689 3.00576 12.9988 2.97598C13.0286 2.94621 13.0454 2.90577 13.0454 2.86358V1.27225C13.0454 0.934727 12.9113 0.611037 12.6726 0.372427C12.4339 0.133817 12.1101 -0.000154622 11.7726 1.33924e-07H2.22693C1.88941 -0.000154622 1.56566 0.133817 1.32694 0.372427C1.08822 0.611037 0.954102 0.934727 0.954102 1.27225V2.86358C0.954101 2.90577 0.970898 2.94621 1.00078 2.97598C1.03066 3.00576 1.07117 3.02241 1.11335 3.02225H4.03818C4.11199 3.02251 4.17616 2.97166 4.19277 2.89975C4.39532 2.04005 5.1622 1.4323 6.04543 1.4315Z" fill="black"/>
<path d="M0.636417 3.97717C0.467581 3.97702 0.305616 4.04402 0.186231 4.1634C0.0668464 4.28279 -0.000154698 4.44475 2.68218e-07 4.61359V7.95434C-2.50467e-07 8.2568 0.212885 8.51749 0.50925 8.57792C0.583199 8.59313 0.636306 8.65818 0.636417 8.73367V10.0223C0.636417 10.3737 0.92135 10.6587 1.27283 10.6587C1.62432 10.6587 1.90925 10.3737 1.90925 10.0223V8.75001C1.9091 8.70782 1.92574 8.66732 1.95552 8.63743C1.98529 8.60755 2.02573 8.59076 2.06792 8.59076H11.9321C11.9743 8.59076 12.0147 8.60755 12.0445 8.63743C12.0743 8.66732 12.0909 8.70782 12.0908 8.75001V10.0223C12.0908 10.3737 12.3757 10.6587 12.7272 10.6587C13.0787 10.6587 13.3636 10.3737 13.3636 10.0223V8.73367C13.3637 8.65818 13.4168 8.59313 13.4908 8.57792C13.7871 8.51749 14 8.2568 14 7.95434V4.61359C14.0002 4.44475 13.9332 4.28279 13.8138 4.1634C13.6944 4.04402 13.5324 3.97702 13.3636 3.97717H0.636417Z" fill="black"/>
</svg>
