<svg width="15" height="15" viewBox="0 0 15 15" fill="none" xmlns="http://www.w3.org/2000/svg">
<path d="M13.9535 0.755814L11.2209 0.145349C10.5814 0 9.94186 0.319767 9.7093 0.901163L8.43023 3.86628C8.19767 4.38953 8.34302 5.02907 8.80814 5.40698L9.97093 6.36628C9.15698 7.87791 7.87791 9.12791 6.36628 9.97093L5.40698 8.80814C5.02907 8.34302 4.38953 8.19767 3.86628 8.43023L0.901163 9.68023C0.319767 9.94186 0 10.5814 0.145349 11.2209L0.755814 13.9535C0.901163 14.564 1.45349 14.9709 2.06395 14.9709C9.18605 14.9709 15 9.21512 15 2.06395C15 1.45349 14.564 0.901163 13.9535 0.755814ZM2.12209 13.5756L1.51163 10.9593L4.36047 9.73837L5.98837 11.7151C8.86628 10.3488 10.3488 8.86628 11.7151 5.98837L9.73837 4.36047L10.9593 1.51163L13.6047 2.12209C13.5756 8.43023 8.43023 13.5465 2.12209 13.5756Z" fill="#F2F2F2"/>
</svg>
