<svg width="38" height="52" viewBox="0 0 38 52" fill="none" xmlns="http://www.w3.org/2000/svg">
<g filter="url(#filter0_d_16_15011)">
<path d="M17.125 47.0625C17.9688 48.375 19.9375 48.375 20.7812 47.0625C34.4688 27.375 37 25.3125 37 18C37 8.0625 28.9375 0 19 0C8.96875 0 1 8.0625 1 18C1 25.3125 3.4375 27.375 17.125 47.0625ZM19 25.5C14.7812 25.5 11.5 22.2188 11.5 18C11.5 13.875 14.7812 10.5 19 10.5C23.125 10.5 26.5 13.875 26.5 18C26.5 22.2188 23.125 25.5 19 25.5Z" fill="#EA001E"/>
</g>
<defs>
<filter id="filter0_d_16_15011" x="0" y="0" width="38" height="51.375" filterUnits="userSpaceOnUse" color-interpolation-filters="sRGB">
<feFlood flood-opacity="0" result="BackgroundImageFix"/>
<feColorMatrix in="SourceAlpha" type="matrix" values="0 0 0 0 0 0 0 0 0 0 0 0 0 0 0 0 0 0 127 0" result="hardAlpha"/>
<feOffset dy="2"/>
<feGaussianBlur stdDeviation="0.5"/>
<feColorMatrix type="matrix" values="0 0 0 0 0 0 0 0 0 0 0 0 0 0 0 0 0 0 0.25142 0"/>
<feBlend mode="normal" in2="BackgroundImageFix" result="effect1_dropShadow_16_15011"/>
<feBlend mode="normal" in="SourceGraphic" in2="effect1_dropShadow_16_15011" result="shape"/>
</filter>
</defs>
</svg>
