<svg width="13" height="13" viewBox="0 0 13 13" fill="none" xmlns="http://www.w3.org/2000/svg">
<path fill-rule="evenodd" clip-rule="evenodd" d="M10.4338 10.2862H8.70528V7.20433C8.70528 6.48793 8.45502 5.99893 7.82949 5.99893C7.35191 5.99893 7.06773 6.32877 6.94256 6.6471C6.89713 6.76076 6.88562 6.92 6.88562 7.07931V10.2862H5.15714V6.49922C5.15714 5.80561 5.13442 5.22566 5.1117 4.72522H6.61272L6.69246 5.49856H6.72653C6.95392 5.13457 7.51123 4.60006 8.44373 4.60006C9.58099 4.60006 10.4338 5.36211 10.4338 6.99966V10.2862ZM3.24692 4.0429C2.70119 4.0429 2.34864 3.65612 2.34864 3.17862C2.34864 2.68969 2.71248 2.31441 3.26963 2.31441C3.82687 2.31441 4.16806 2.68969 4.17942 3.17862C4.17942 3.65612 3.82687 4.0429 3.24692 4.0429V4.0429ZM2.39407 10.2862H4.12263V4.72522H2.39407V10.2862ZM11.5527 0H1.2953C0.579799 0 0 0.581816 0 1.29963V11.7004C0 12.4182 0.579799 13 1.2953 13H11.5527C12.2682 13 12.848 12.4182 12.848 11.7004V1.29963C12.848 0.581816 12.2682 0 11.5527 0V0Z" fill="#DBDBDB"/>
<mask id="mask0_16_18683" style="mask-type:alpha" maskUnits="userSpaceOnUse" x="0" y="0" width="13" height="13">
<path fill-rule="evenodd" clip-rule="evenodd" d="M10.4338 10.2862H8.70528V7.20433C8.70528 6.48793 8.45502 5.99893 7.82949 5.99893C7.35191 5.99893 7.06773 6.32877 6.94256 6.6471C6.89713 6.76076 6.88562 6.92 6.88562 7.07931V10.2862H5.15714V6.49922C5.15714 5.80561 5.13442 5.22566 5.1117 4.72522H6.61272L6.69246 5.49856H6.72653C6.95392 5.13457 7.51123 4.60006 8.44373 4.60006C9.58099 4.60006 10.4338 5.36211 10.4338 6.99966V10.2862ZM3.24692 4.0429C2.70119 4.0429 2.34864 3.65612 2.34864 3.17862C2.34864 2.68969 2.71248 2.31441 3.26963 2.31441C3.82687 2.31441 4.16806 2.68969 4.17942 3.17862C4.17942 3.65612 3.82687 4.0429 3.24692 4.0429V4.0429ZM2.39407 10.2862H4.12263V4.72522H2.39407V10.2862ZM11.5527 0H1.2953C0.579799 0 0 0.581816 0 1.29963V11.7004C0 12.4182 0.579799 13 1.2953 13H11.5527C12.2682 13 12.848 12.4182 12.848 11.7004V1.29963C12.848 0.581816 12.2682 0 11.5527 0V0Z" fill="white"/>
</mask>
<g mask="url(#mask0_16_18683)">
<rect width="13" height="13" fill="#FF4545"/>
</g>
</svg>
