<svg width="24" height="24" viewBox="0 0 24 24" fill="none" xmlns="http://www.w3.org/2000/svg">
<path fill-rule="evenodd" clip-rule="evenodd" d="M12 20C16.4183 20 20 16.4183 20 12C20 7.58172 16.4183 4 12 4C7.58172 4 4 7.58172 4 12C4 16.4183 7.58172 20 12 20ZM12 24C18.6274 24 24 18.6274 24 12C24 5.37258 18.6274 0 12 0C5.37258 0 0 5.37258 0 12C0 18.6274 5.37258 24 12 24Z" fill="white" fill-opacity="0.18"/>
<path fill-rule="evenodd" clip-rule="evenodd" d="M15.9997 0.686289C14.7202 0.233951 13.3679 0 11.9997 0V3.93696C13.4439 3.93696 14.8617 4.32489 16.1048 5.06021C17.3478 5.79553 18.3706 6.85124 19.0661 8.117C19.7617 9.38277 20.1044 10.8121 20.0586 12.2557C20.0129 13.6992 19.5802 15.104 18.8058 16.3231C18.0314 17.5422 16.9438 18.531 15.6566 19.186C14.3695 19.8411 12.93 20.1384 11.4886 20.0468C10.0472 19.9553 8.65691 19.4783 7.46294 18.6656C6.26898 17.853 5.3152 16.7346 4.70129 15.4273L1.1377 17.1007C1.7193 18.3393 2.50587 19.4639 3.45915 20.4297C4.0034 20.9811 4.60198 21.4807 5.24778 21.9203C7.02473 23.1297 9.09391 23.8396 11.2391 23.9759C13.3842 24.1121 15.5266 23.6697 17.4423 22.6948C19.3579 21.7199 20.9766 20.2483 22.1291 18.4339C23.2815 16.6195 23.9255 14.5289 23.9936 12.3805C24.0618 10.2321 23.5516 8.10484 22.5165 6.22104C21.4813 4.33724 19.9592 2.76605 18.1092 1.6717C17.4368 1.27398 16.7301 0.944541 15.9997 0.686289Z" fill="#2130B8"/>
</svg>
