<svg width="32" height="31" viewBox="0 0 32 31" fill="none" xmlns="http://www.w3.org/2000/svg">
<path fill-rule="evenodd" clip-rule="evenodd" d="M5.75328 12.1049L3.2 14.1963V12.0002C3.2 11.5584 2.84183 11.2002 2.4 11.2002H0.8C0.358172 11.2002 0 11.5584 0 12.0002C0 12.442 0.358172 12.8002 0.8 12.8002H1.6V28.8002H0.8C0.358172 28.8002 0 29.1584 0 29.6002C0 30.042 0.358172 30.4002 0.8 30.4002H2.4C2.84183 30.4002 3.2 30.042 3.2 29.6002V27.2002H6.27039L15.7955 29.9066C16.9971 30.248 18.2891 30.0077 19.2879 29.257C25.5639 24.5396 29.7573 21.3542 30.3924 20.7637C31.9319 19.3322 32.538 17.7406 31.4411 16.1717C30.5544 14.9036 29.059 14.7683 27.2057 15.6074L18.1916 20.1918L15.657 19.3858C15.9838 19.104 16.2533 18.7371 16.4626 18.2824C17.4578 16.1204 16.5406 14.339 14.007 13.2357L9.80959 11.5026C8.44973 10.9412 6.89161 11.1725 5.75328 12.1049ZM3.2 25.6002V16.264L6.766 13.3431C7.449 12.7836 8.38388 12.6448 9.19979 12.9817L13.3831 14.7088C15.1447 15.4761 15.5931 16.347 15.0104 17.613C14.6611 18.3719 13.8899 18.6686 12.6037 18.4149L10.8386 17.8536C10.5648 17.7411 10.2769 17.6136 9.97438 17.4707C9.57512 17.282 9.09865 17.453 8.91014 17.8525C8.89958 17.8749 8.89015 17.8975 8.88182 17.9203C8.85973 17.9621 8.84105 18.0064 8.82624 18.0531C8.69253 18.4741 8.92524 18.924 9.34602 19.0578L10.3314 19.3711C10.9488 19.6166 11.5282 19.8013 12.0674 19.9232L18.0196 21.816C18.2197 21.8796 18.4368 21.8619 18.624 21.7667L27.8975 17.0494C29.0954 16.508 29.7673 16.5688 30.131 17.089C30.6423 17.8202 30.3315 18.6363 29.3041 19.5916C28.7337 20.1219 24.5009 23.3375 18.3276 27.9777C17.7284 28.4281 16.9532 28.5723 16.2322 28.3674L6.60004 25.6306L6.38168 25.6002H3.2Z" fill="#1DA599"/>
<path fill-rule="evenodd" clip-rule="evenodd" d="M29.0676 7.86449C30.8441 6.06538 30.8441 3.14844 29.0676 1.34933C27.4693 -0.269312 24.9776 -0.431675 23.2 0.862242C21.4224 -0.431675 18.9307 -0.269312 17.3324 1.34933C15.5559 3.14844 15.5559 6.06538 17.3324 7.86449L21.5029 12.0881C22.4402 13.0373 23.9598 13.0373 24.8971 12.0881L29.0676 7.86449ZM23.7657 10.9423C23.4533 11.2587 22.9467 11.2587 22.6343 10.9423L18.4638 6.71872C17.3121 5.5524 17.3121 3.66142 18.4638 2.4951C19.6154 1.32878 21.4826 1.32878 22.6343 2.4951L23.2 3.06798L23.7657 2.4951C24.9174 1.32878 26.7846 1.32878 27.9362 2.4951C29.0879 3.66142 29.0879 5.5524 27.9362 6.71872L23.7657 10.9423Z" fill="#1DA599"/>
</svg>
