<svg width="16" height="16" viewBox="0 0 16 16" fill="none" xmlns="http://www.w3.org/2000/svg">
<path fill-rule="evenodd" clip-rule="evenodd" d="M12.1667 2H14C14.7364 2 15.3333 2.59695 15.3333 3.33333V14.6667C15.3333 15.403 14.7364 16 14 16H1.33333C0.596954 16 0 15.403 0 14.6667V3.33333C0 2.59695 0.596954 2 1.33333 2H2.33333C2.51743 2 2.66667 2.14924 2.66667 2.33333V3.83333C2.66667 4.10948 2.89052 4.33333 3.16667 4.33333C3.44281 4.33333 3.66667 4.10948 3.66667 3.83333V0.666667C3.66667 0.298477 3.96514 0 4.33333 0C4.70152 0 5 0.298477 5 0.666667V1.834C5.00037 1.92579 5.07488 2 5.16667 2H9.33333C9.51743 2 9.66667 2.14924 9.66667 2.33333V3.83333C9.66667 4.10948 9.89052 4.33333 10.1667 4.33333C10.4428 4.33333 10.6667 4.10948 10.6667 3.83333V0.666667C10.6667 0.298477 10.9651 0 11.3333 0C11.7015 0 12 0.298477 12 0.666667V1.83333C12 1.92538 12.0746 2 12.1667 2ZM1.66667 14.6667H13.6667C13.8508 14.6667 14 14.5174 14 14.3333V6.33333C14 6.14924 13.8508 6 13.6667 6H1.66667C1.48257 6 1.33333 6.14924 1.33333 6.33333V14.3333C1.33333 14.5174 1.48257 14.6667 1.66667 14.6667Z" fill="black"/>
</svg>
