<svg width="18" height="14" viewBox="0 0 18 14" fill="none" xmlns="http://www.w3.org/2000/svg">
<path d="M17.6484 4.46484C16.8047 5.13281 14.9766 6.46875 12.2344 8.4375L11.8828 8.71875C11.3203 9.14062 10.8984 9.45703 10.5469 9.63281C9.98438 9.98438 9.45703 10.125 9 10.125C8.50781 10.125 8.01562 9.98438 7.45312 9.66797C7.10156 9.49219 6.67969 9.17578 6.11719 8.75391L5.76562 8.4375C2.91797 6.39844 1.125 5.0625 0.351562 4.46484C0.28125 4.42969 0.175781 4.42969 0.105469 4.46484C0.0351562 4.5 0 4.57031 0 4.64062V11.8125C0 12.3047 0.140625 12.6914 0.492188 13.0078C0.808594 13.3594 1.19531 13.5 1.6875 13.5H16.3125C16.7695 13.5 17.1562 13.3594 17.5078 13.0078C17.8242 12.6914 18 12.3047 18 11.8125V4.64062C18 4.57031 17.9297 4.5 17.8594 4.42969C17.7891 4.39453 17.7188 4.39453 17.6484 4.46484ZM9 9C8.68359 9 8.29688 8.85938 7.875 8.57812C7.59375 8.4375 7.24219 8.19141 6.78516 7.80469L6.43359 7.55859C3.55078 5.44922 1.58203 4.00781 0.5625 3.19922L0.316406 3.02344C0.105469 2.88281 0 2.63672 0 2.35547V1.6875C0 1.23047 0.140625 0.84375 0.492188 0.492188C0.808594 0.175781 1.19531 0 1.6875 0H16.3125C16.7695 0 17.1562 0.175781 17.5078 0.492188C17.8242 0.84375 18 1.23047 18 1.6875V2.35547C18 2.63672 17.8945 2.88281 17.6836 3.02344L17.5078 3.16406C16.4883 3.97266 14.5195 5.44922 11.5664 7.55859L11.2148 7.80469C10.7227 8.19141 10.3711 8.4375 10.125 8.57812C9.66797 8.85938 9.28125 9 9 9Z" fill="#1B1D21"/>
</svg>
