<svg width="17" height="293" viewBox="0 0 17 293" fill="none" xmlns="http://www.w3.org/2000/svg">
<path fill-rule="evenodd" clip-rule="evenodd" d="M15.2432 221.856C15.6172 221.902 15.912 222.196 15.9579 222.57C15.9634 222.615 16.0922 223.68 16.0577 224.922C16.0068 226.748 15.6443 227.974 14.9495 228.669L14.147 229.472L12.8487 230.77L9.79411 233.824L8.94977 234.668L7.78849 235.829L7.20801 235.248L5.46614 233.507L6.62732 232.346L11.4658 227.508L11.4665 227.508C11.4736 227.501 11.4802 227.493 11.487 227.486C11.4934 227.479 11.5 227.472 11.5061 227.465C11.5119 227.458 11.5172 227.452 11.5226 227.445C11.5291 227.437 11.5359 227.429 11.542 227.421C11.5448 227.417 11.5475 227.413 11.5502 227.409C11.5518 227.407 11.5533 227.404 11.5548 227.402C11.557 227.399 11.5592 227.396 11.5613 227.393C11.5658 227.387 11.5702 227.381 11.5743 227.374C11.576 227.372 11.5776 227.369 11.5792 227.366C11.5811 227.363 11.583 227.36 11.585 227.357C11.5867 227.354 11.5884 227.351 11.59 227.349C11.5946 227.341 11.599 227.334 11.6031 227.326C11.6078 227.318 11.6118 227.31 11.6161 227.301L11.6167 227.3C11.6187 227.296 11.6207 227.292 11.6226 227.289C11.6246 227.285 11.6265 227.281 11.6283 227.277C11.6338 227.266 11.6387 227.254 11.6436 227.242C11.6447 227.239 11.646 227.236 11.6472 227.233C11.6482 227.231 11.6491 227.229 11.65 227.227C11.7165 227.056 11.724 226.869 11.6723 226.694C11.6715 226.691 11.6706 226.689 11.6696 226.686C11.669 226.685 11.6684 226.683 11.6678 226.681C11.6613 226.66 11.6543 226.639 11.646 226.619C11.6441 226.614 11.642 226.61 11.6399 226.605C11.6385 226.602 11.6371 226.6 11.6358 226.597C11.6282 226.58 11.6209 226.563 11.6121 226.546C11.6094 226.541 11.6063 226.536 11.6032 226.531C11.6018 226.529 11.6005 226.526 11.5991 226.524C11.5901 226.508 11.5811 226.492 11.5709 226.476C11.5657 226.469 11.5601 226.461 11.5544 226.453C11.5498 226.447 11.5451 226.441 11.5406 226.434C11.5379 226.431 11.5354 226.428 11.5328 226.424C11.5293 226.419 11.5258 226.414 11.522 226.41C11.5044 226.388 11.4857 226.367 11.4656 226.348C11.145 226.027 10.625 226.027 10.3044 226.348L4.30476 232.346L2.56357 230.606C2.5635 230.605 2.56337 230.605 2.56318 230.605C2.56309 230.605 2.563 230.604 2.56289 230.604L1.9822 230.024L3.14348 228.863L7.04243 224.964L8.34082 223.667H8.34094L9.14326 222.864C9.83832 222.169 11.0643 221.806 12.8916 221.756C14.1287 221.722 15.1902 221.85 15.2426 221.856L15.2432 221.856ZM4.49836 222.864C4.71826 222.644 5.04347 222.567 5.33857 222.666L6.59885 223.086L0.821015 228.863L0.240544 228.282C-0.0801645 227.962 -0.0801646 227.441 0.240444 227.121L4.49836 222.864ZM2.56289 232.926L4.88533 235.248C5.20594 235.569 5.20594 236.089 4.88533 236.409C4.56472 236.73 4.04478 236.73 3.72417 236.409L1.40173 234.088C1.08112 233.767 1.08112 233.247 1.40173 232.926C1.72243 232.606 2.24228 232.606 2.56289 232.926ZM15.1476 232.473L14.7275 231.213L8.94977 236.99L9.53036 237.571C9.68434 237.725 9.89311 237.811 10.1109 237.811C10.3288 237.811 10.5375 237.725 10.6914 237.571L14.9492 233.314C15.1692 233.094 15.2459 232.769 15.1476 232.473Z" fill="#AAAAAA"/>
<path fill-rule="evenodd" clip-rule="evenodd" d="M7.41941 178.612H6.18454H1.24463C0.439197 178.612 0.0053846 177.103 0.0053846 176.187V164.975C0.0053846 164.745 0.168659 164.559 0.370424 164.559H15.7034C15.9052 164.559 16.0685 164.745 16.0685 164.975V176.187C16.0685 177.103 15.6345 178.612 14.8292 178.612H9.88944H7.41941ZM2.01651 176.605H14.0573V166.571H2.01651V176.605ZM4.77901 175.595H3.27793C3.13968 175.595 3.02772 175.416 3.02772 175.195V171.998C3.02772 171.777 3.13968 171.599 3.27793 171.599H4.77901C4.91738 171.599 5.02922 171.777 5.02922 171.998V175.195C5.02922 175.416 4.91738 175.595 4.77901 175.595ZM7.27564 175.595H8.79819C8.93841 175.595 9.05197 175.427 9.05197 175.219V169.955C9.05197 169.747 8.93841 169.579 8.79819 169.579H7.27564C7.13545 169.579 7.02188 169.747 7.02188 169.955V175.219C7.02188 175.427 7.13545 175.595 7.27564 175.595ZM12.7959 175.596H11.2947C11.1565 175.596 11.0446 175.438 11.0446 175.244V168.916C11.0446 168.722 11.1565 168.565 11.2947 168.565H12.7959C12.9342 168.565 13.046 168.722 13.046 168.916V175.244C13.046 175.438 12.9342 175.596 12.7959 175.596Z" fill="#AAAAAA"/>
<path fill-rule="evenodd" clip-rule="evenodd" d="M9.6129 117.405C9.75679 117.405 9.87484 117.488 9.96705 117.654C10.0591 117.821 10.1054 118.038 10.1054 118.307C10.1054 118.574 10.0591 118.79 9.96705 118.954C9.87484 119.119 9.75679 119.2 9.6129 119.2C9.45983 119.2 9.33732 119.119 9.2451 118.954C9.15289 118.79 9.10684 118.574 9.10684 118.307C9.10684 118.038 9.15289 117.821 9.2451 117.654C9.33732 117.488 9.45983 117.405 9.6129 117.405ZM4.95079 119.18H5.57155V118.348L4.95079 119.18ZM13.047 119.18H13.6677V118.348L13.047 119.18ZM16.0642 125.376V114.394H0.00973764V125.376H3.49506V126.827H2.09367V128.441H13.9801V126.827H12.5787V125.376H16.0642ZM5.27598 121.985H4.5452V123.08H2.96755V121.985L1.24463 122.056V120.779L3.46568 116.92H4.5452V120.485H5.27598V121.985ZM10.1585 120.445C10.0478 120.772 9.89413 121.054 9.69764 121.293C9.50106 121.531 9.26865 121.716 9.00017 121.849C8.73158 121.981 8.43967 122.047 8.12412 122.047C7.80857 122.047 7.51645 121.981 7.24808 121.849C6.97949 121.716 6.74697 121.531 6.5506 121.293C6.35401 121.054 6.20036 120.772 6.08968 120.445C5.97886 120.119 5.92362 119.761 5.92362 119.373C5.92362 118.985 5.97886 118.628 6.08968 118.301C6.20036 117.974 6.35401 117.693 6.5506 117.454C6.74697 117.216 6.97949 117.029 7.24808 116.893C7.51645 116.759 7.80857 116.69 8.12412 116.69C8.43967 116.69 8.73158 116.759 9.00017 116.893C9.26852 117.029 9.50106 117.216 9.69764 117.454C9.89413 117.693 10.0478 117.974 10.1585 118.301C10.2693 118.628 10.3246 118.985 10.3246 119.373C10.3246 119.761 10.2692 120.119 10.1585 120.445ZM10.798 121.985V120.485L13.4302 116.92H14.5096V120.485L14.8292 120.779V122.056L14.5096 121.985V123.08H12.932V121.985H10.798Z" fill="#AAAAAA"/>
<path fill-rule="evenodd" clip-rule="evenodd" d="M14.6532 56.1333H14.1828V55.6631C14.1828 55.4035 13.9724 55.1929 13.7125 55.1929C13.4525 55.1929 13.2421 55.4035 13.2421 55.6631V56.1333H11.3294V55.6631C11.3294 55.4035 11.119 55.1929 10.8591 55.1929C10.5991 55.1929 10.3887 55.4035 10.3887 55.6631V56.1333H8.50731V55.6631C8.50731 55.4035 8.29695 55.1929 8.03698 55.1929C7.77698 55.1929 7.56663 55.4035 7.56663 55.6631V56.1333H5.68523V55.6631C5.68523 55.4035 5.47487 55.1929 5.2149 55.1929C4.95491 55.1929 4.74455 55.4035 4.74455 55.6631V56.1333H2.83182V55.6631C2.83182 55.4035 2.62133 55.1929 2.36146 55.1929C2.10149 55.1929 1.89111 55.4035 1.89111 55.6631V56.1333H1.42078C0.642678 56.1333 0.00973764 56.7663 0.00973764 57.5446V58.9869H16.0642V57.5446C16.0642 56.7663 15.4313 56.1333 14.6532 56.1333ZM9.14394 64.6042L9.94499 63.823L8.83803 63.662C8.68462 63.64 8.55234 63.5434 8.48389 63.4051L7.98874 62.4016L7.49359 63.4051C7.42515 63.5434 7.29287 63.64 7.13946 63.662L6.03248 63.823L6.83355 64.6042C6.94412 64.7118 6.99477 64.8681 6.96858 65.0197L6.77935 66.1546L7.7701 65.6338C7.83854 65.5977 7.91342 65.5797 7.98874 65.5797C8.06407 65.5797 8.13893 65.5977 8.20739 65.6338L9.19814 66.1546L9.00889 65.0197C8.98272 64.8681 9.03324 64.7118 9.14394 64.6042ZM0.00973764 59.9273V68.4256H16.0642V59.9273H0.00973764ZM11.2843 63.8315L9.9775 65.1368L10.2862 66.9345C10.3166 67.1111 10.2439 67.289 10.0992 67.3948C9.95361 67.5011 9.76012 67.5131 9.60407 67.4304L7.98863 66.5814L6.37319 67.4304C6.21656 67.5148 6.02365 67.5005 5.87804 67.3948C5.73335 67.289 5.66078 67.1111 5.69108 66.9345L5.99975 65.1368L4.69298 63.8315C4.56484 63.7067 4.51901 63.5193 4.57403 63.3499C4.6296 63.1791 4.77659 63.0555 4.95388 63.0294L6.75948 62.7672L7.56697 61.1306C7.72497 60.809 8.25229 60.809 8.4104 61.1306L9.21788 62.7672L11.0235 63.0294C11.2007 63.0555 11.3478 63.1791 11.4032 63.3499C11.4585 63.5193 11.4124 63.7067 11.2843 63.8315ZM0.00973764 69.8362V69.366H16.0642V69.8362C16.0642 70.6143 15.4313 71.2476 14.6532 71.2476H1.42078C0.642678 71.2476 0.00973764 70.6143 0.00973764 69.8362Z" fill="#AAAAAA"/>
<path fill-rule="evenodd" clip-rule="evenodd" d="M4.94768 9.32455C4.94768 8.98204 5.22488 8.7033 5.5656 8.7033C5.90629 8.7033 6.18337 8.98204 6.18337 9.32455C6.18337 9.66745 5.90629 9.94582 5.5656 9.94582C5.22488 9.94582 4.94768 9.66745 4.94768 9.32455ZM9.89046 14.298C9.89046 13.9551 10.1677 13.6763 10.5084 13.6763C10.849 13.6763 11.1262 13.9551 11.1262 14.298C11.1262 14.641 10.849 14.9198 10.5084 14.9198C10.1677 14.9198 9.89046 14.641 9.89046 14.298ZM15.451 0H0.622939C0.281781 0 0.00502193 0.277609 0.00502193 0.621269V18.4428C0.00502193 18.658 0.116079 18.8577 0.297856 18.9713C0.480536 19.0849 0.707326 19.0944 0.899217 18.9985L3.09421 17.8942L5.2892 18.9985C5.46305 19.0861 5.66814 19.0861 5.84187 18.9985L8.03699 17.8942L10.232 18.9985C10.3188 19.0426 10.4138 19.064 10.5083 19.064C10.6028 19.064 10.6977 19.0426 10.7847 18.9985L12.9796 17.8942L15.1746 18.9985C15.3665 19.0944 15.5933 19.0849 15.776 18.9713C15.9578 18.8577 16.0688 18.658 16.0688 18.4428V0.621269C16.0688 0.277609 15.7921 0 15.451 0ZM3.09421 2.48623C3.43549 2.48623 3.71211 2.76497 3.71211 3.10787C3.71211 3.45153 3.43549 3.72971 3.09421 3.72971C2.75305 3.72971 2.47641 3.45153 2.47641 3.10787C2.47641 2.76497 2.75305 2.48623 3.09421 2.48623ZM3.09421 6.2167C2.75305 6.2167 2.47641 5.93833 2.47641 5.59465C2.47641 5.25099 2.75305 4.97283 3.09421 4.97283C3.43549 4.97283 3.71211 5.25099 3.71211 5.59465C3.71211 5.93833 3.43549 6.2167 3.09421 6.2167ZM3.71211 9.32455C3.71211 8.29606 4.54349 7.45961 5.5656 7.45961C6.58771 7.45961 7.41907 8.29606 7.41907 9.32455C7.41907 10.353 6.58771 11.1901 5.5656 11.1901C4.54349 11.1901 3.71211 10.353 3.71211 9.32455ZM5.85243 14.8883C5.73176 15.0102 5.57362 15.0708 5.41551 15.0708C5.25749 15.0708 5.09937 15.0102 4.97868 14.8883C4.73743 14.6463 4.73743 14.2523 4.97868 14.0095L10.2211 8.73478C10.4624 8.49156 10.8534 8.49156 11.0948 8.73478C11.3361 8.97683 11.3361 9.37073 11.0948 9.61356L5.85243 14.8883ZM10.5084 16.1629C9.48627 16.1629 8.65476 15.3264 8.65476 14.298C8.65476 13.2695 9.48627 12.4332 10.5084 12.4332C11.5304 12.4332 12.3618 13.2695 12.3618 14.298C12.3618 15.3264 11.5304 16.1629 10.5084 16.1629ZM12.9796 6.2167H5.5656C5.22454 6.2167 4.94768 5.93833 4.94768 5.59465C4.94768 5.25099 5.22454 4.97283 5.5656 4.97283H12.9796C13.3207 4.97283 13.5975 5.25099 13.5975 5.59465C13.5975 5.93833 13.3207 6.2167 12.9796 6.2167ZM12.9796 3.72914H5.5656C5.22454 3.72914 4.94768 3.45153 4.94768 3.10787C4.94768 2.76439 5.22454 2.48623 5.5656 2.48623H12.9796C13.3207 2.48623 13.5975 2.76497 13.5975 3.10787C13.5975 3.45153 13.3207 3.72914 12.9796 3.72914Z" fill="#AAAAAA"/>
<path fill-rule="evenodd" clip-rule="evenodd" d="M10.3636 282.629C15.3267 283.523 15.9753 284.936 16.0539 289.893C16.059 290.211 16.0616 290.265 16.0629 290.237C16.0628 290.321 16.0626 290.445 16.0626 290.623C16.0626 290.623 14.8809 293 8.03665 293C1.1923 293 0.0106871 290.623 0.0106871 290.623C0.0106871 290.346 0.010346 290.187 0.0101051 290.101C0.0113694 290.147 0.0148211 290.126 0.0222865 289.732C0.112653 284.905 0.800709 283.514 5.70961 282.629C5.70961 282.629 6.40836 283.518 8.03665 283.518C9.66496 283.518 10.3636 282.629 10.3636 282.629Z" fill="#AAAAAA"/>
</svg>
