<svg width="52" height="52" viewBox="0 0 52 52" fill="none" xmlns="http://www.w3.org/2000/svg">
<g clip-path="url(#clip0_2_1886)">
<circle opacity="0.690331" cx="26" cy="26" r="26" stroke="#FC4B4E" stroke-opacity="0.310462" stroke-width="4"/>
<path d="M26.5 14C21.4844 14 17.5 18.0781 17.5 23C17.5 26.375 18.5781 27.4062 24.5781 36.9688C25.4688 38.375 27.4844 38.375 28.375 36.9688C34.375 27.4062 35.5 26.375 35.5 23C35.5 18.0312 31.4219 14 26.5 14ZM26.5 35.75C20.5 26.1875 19.75 25.5781 19.75 23C19.75 19.2969 22.75 16.25 26.5 16.25C30.2031 16.25 33.25 19.2969 33.25 23C33.25 25.5781 32.5 26.0938 26.5 35.75ZM22.75 23C22.75 25.1094 24.3906 26.75 26.5 26.75C28.5625 26.75 30.25 25.1094 30.25 23C30.25 20.9375 28.5625 19.25 26.5 19.25C24.3906 19.25 22.75 20.9375 22.75 23Z" fill="#FC4B4E"/>
</g>
<defs>
<clipPath id="clip0_2_1886">
<rect width="52" height="52" fill="white"/>
</clipPath>
</defs>
</svg>
