<svg width="15" height="15" viewBox="0 0 15 15" fill="none" xmlns="http://www.w3.org/2000/svg">
<path fill-rule="evenodd" clip-rule="evenodd" d="M10.0427 9.43384H10.7203L14.9998 13.7219L13.7219 14.9998L9.43384 10.7203V10.0427L9.20228 9.80261C8.22459 10.6431 6.95531 11.1491 5.57454 11.1491C2.49568 11.1491 0 8.6534 0 5.57454C0 2.49568 2.49568 0 5.57454 0C8.6534 0 11.1491 2.49568 11.1491 5.57454C11.1491 6.95531 10.6431 8.22459 9.80261 9.20228L10.0427 9.43384ZM1.71524 5.57454C1.71524 7.71002 3.43906 9.43384 5.57454 9.43384C7.71002 9.43384 9.43384 7.71002 9.43384 5.57454C9.43384 3.43906 7.71002 1.71524 5.57454 1.71524C3.43906 1.71524 1.71524 3.43906 1.71524 5.57454Z" fill="black"/>
</svg>
