<svg width="18" height="287" viewBox="0 0 18 287" fill="none" xmlns="http://www.w3.org/2000/svg">
<path fill-rule="evenodd" clip-rule="evenodd" d="M12.0053 2.00039V0H10.0052V2.00039H6.00501V0H4.00498V2.00039H0.00489193V4.0006H16.0055V2.00039H12.0053ZM0.00305187 15.9991H16.007L16.0055 6.00021H0.00489193L0.00305187 15.9991ZM10.0052 8.00058H13.0053V10.0008H10.0052V8.00058ZM10.0052 12.001H13.0053V14.0008H10.0052V12.001ZM7.00505 8.00058H9.0052V10.0008H7.00505V8.00058ZM7.00505 12.001H9.0052V14.0008H7.00505V12.001ZM3.00496 8.00058H6.00501V10.0008H3.00496V8.00058ZM3.00496 12.001H6.00501V14.0008H3.00496V12.001Z" fill="#AAAAAA"/>
<path fill-rule="evenodd" clip-rule="evenodd" d="M8.38882 58.9155H7.31131V59.9592H8.38882V58.9155ZM12.6992 58.9155H11.6215V59.9592H12.6992V58.9155ZM8.5051 53.0025C3.81548 53.0025 0 56.8064 0 61.4812C0 65.9369 3.46584 69.6 7.85082 69.9342V72.3505C7.85082 72.5601 7.95175 72.7561 8.12251 72.879C8.29371 73.0022 8.51264 73.0355 8.71202 72.9685C14.4443 71.0642 17.0103 65.8266 17.0103 61.4812C17.0103 56.8064 13.1948 53.0025 8.5051 53.0025ZM7.85082 62.8487C7.85082 63.997 7.21061 65.0291 6.18071 65.5428C5.85466 65.7045 5.46291 65.5699 5.3028 65.2505C5.14155 64.9284 5.2727 64.5366 5.59555 64.3762C6.13264 64.1084 6.47907 63.5911 6.53159 63.0025H4.57964C4.21844 63.0025 3.92534 62.7107 3.92534 62.3503V59.7417C3.92534 59.3814 4.21844 59.09 4.57964 59.09H7.19665C7.55771 59.09 7.85082 59.3814 7.85082 59.7417C7.85082 60.8897 7.85082 61.6454 7.85082 62.8487ZM13.0848 62.8487C13.0848 63.997 12.4446 65.0291 11.4148 65.5428C11.0886 65.7045 10.6969 65.5699 10.5368 65.2505C10.3754 64.9284 10.5065 64.5366 10.8294 64.3762C11.3667 64.1084 11.713 63.5911 11.7656 63.0025H9.81355C9.45236 63.0025 9.15927 62.7107 9.15927 62.3503V59.7417C9.15927 59.3814 9.45236 59.09 9.81355 59.09H12.4306C12.7918 59.09 13.0848 59.3814 13.0848 59.7417C13.0848 60.8897 13.0848 61.6454 13.0848 62.8487Z" fill="#AAAAAA"/>
<path fill-rule="evenodd" clip-rule="evenodd" d="M16.007 111.096C16.007 109.94 15.0696 109.003 13.9133 109.003H2.09673C0.940486 109.003 0.00305187 109.94 0.00305187 111.096V122.913C0.00305187 124.069 0.940486 125.006 2.09673 125.006H13.9133C15.0696 125.006 16.007 124.069 16.007 122.913V111.096ZM7.96202 112.715C9.09012 112.715 10.0046 113.629 10.0046 114.757C10.0046 115.885 9.09012 116.8 7.96202 116.8C6.83382 116.8 5.91941 115.885 5.91941 114.757C5.91941 113.629 6.83382 112.715 7.96202 112.715ZM11.2703 122.167H4.79705C4.17996 122.167 3.67973 121.66 3.67973 121.043C3.67973 119.28 4.76685 117.764 6.30726 117.142C6.77684 117.468 7.34688 117.66 7.96214 117.66C8.59994 117.66 9.18911 117.454 9.66806 117.105C11.2571 117.705 12.3878 119.244 12.3878 121.043C12.3878 121.66 11.8875 122.167 11.2703 122.167Z" fill="#AAAAAA"/>
<path fill-rule="evenodd" clip-rule="evenodd" d="M7.38974 164.188H14.7746C15.2186 164.188 16.0054 165.301 16.0054 165.709L16.0055 167.006H0.00493592L0.00482195 163.746C0.00482195 163.338 0.365778 163.006 0.809938 163.006H6.67171C7.11575 163.006 7.47682 163.338 7.47682 163.746L7.38974 164.188ZM0.809938 176.006C0.365778 176.006 0.00482195 175.674 0.00482195 175.266L0.00493592 168.006H16.0055L16.0054 175.266C16.0054 175.675 15.6443 176.006 15.2003 176.006H0.809938Z" fill="#AAAAAA"/>
<path fill-rule="evenodd" clip-rule="evenodd" d="M14.7746 216.384H11.0821C10.7177 215.35 10.3189 214.008 8.62048 214.008C6.07556 214.008 5.29252 215.35 4.92801 216.384H1.23557C0.253408 216.384 0.00482195 217.774 0.00482195 218.758V231.228C0.00482195 232.212 0.800324 233.009 1.78274 233.009H14.2276C15.2098 233.009 16.0054 232.212 16.0054 231.228V218.758C16.0053 217.774 15.7568 216.384 14.7746 216.384ZM8.0051 216.977C8.49389 216.977 8.8939 217.373 8.8939 217.867C8.8939 218.362 8.49389 218.758 8.0051 218.758C7.51619 218.758 7.11621 218.362 7.11621 217.867C7.11621 217.373 7.51619 216.977 8.0051 216.977ZM10.0053 230.008H3.00499V228.008H10.0053V230.008ZM13.0053 226.008H3.00499V224.009H13.0053V226.008ZM13.0053 222.008H3.00499V220.008H13.0053V222.008Z" fill="#AAAAAA"/>
<path fill-rule="evenodd" clip-rule="evenodd" d="M12.0053 273.01V271.011H0.00482195V284.519C0.00482195 285.887 1.11792 287 2.4861 287H13.5139C14.882 287 15.9952 285.887 15.9952 284.519L16.0055 273.01H12.0053ZM10.0053 284.01H2.00499V282.01H10.0053V283.01V284.01ZM10.0053 280.01H2.00499V278.011H10.0053V279.01V280.01ZM10.0053 275.01V276.01H2.00499V275.01V273.01H10.0053V275.01ZM14.0053 285.011C14.0053 285.467 13.9699 285.346 13.5139 285.346C13.0577 285.346 12.0053 285.467 12.0053 285.011V275.01H14.0053V285.011Z" fill="#AAAAAA"/>
</svg>
