<svg width="18" height="287" viewBox="0 0 18 287" fill="none" xmlns="http://www.w3.org/2000/svg">
<path fill-rule="evenodd" clip-rule="evenodd" d="M12.0054 2.00037V0H10.0053V2.00037H6.00513V0H4.0051V2.00037H0.005014V4.00059H16.0056V2.00037H12.0054ZM0.00317394 15.999H16.0071L16.0056 6.00013H0.005014L0.00317394 15.999ZM10.0053 8.00048H13.0054V10.0009H10.0053V8.00048ZM10.0053 12.0011H13.0054V14.0006H10.0053V12.0011ZM7.00516 8.00048H9.00532V10.0009H7.00516V8.00048ZM7.00516 12.0011H9.00532V14.0006H7.00516V12.0011ZM3.00508 8.00048H6.00513V10.0009H3.00508V8.00048ZM3.00508 12.0011H6.00513V14.0006H3.00508V12.0011Z" fill="#AAAAAA"/>
<path fill-rule="evenodd" clip-rule="evenodd" d="M8.38881 58.9155H7.31131V59.9592H8.38881V58.9155ZM12.6992 58.9155H11.6215V59.9592H12.6992V58.9155ZM8.50509 53.0026C3.81548 53.0026 0 56.8063 0 61.4811C0 65.9368 3.46584 69.5999 7.85082 69.9341V72.3504C7.85082 72.5601 7.95175 72.7561 8.1225 72.8789C8.2937 73.0023 8.51263 73.0353 8.71201 72.9685C14.4443 71.0641 17.0103 65.8264 17.0103 61.4811C17.0103 56.8063 13.1948 53.0026 8.50509 53.0026ZM7.85082 62.8486C7.85082 63.9968 7.21061 65.0291 6.18071 65.5426C5.85465 65.7045 5.4629 65.5699 5.30279 65.2505C5.14155 64.9283 5.2727 64.5365 5.59554 64.3761C6.13264 64.1084 6.47907 63.5911 6.53159 63.0027H4.57963C4.21844 63.0027 3.92533 62.7105 3.92533 62.3502V59.7416C3.92533 59.3813 4.21844 59.0899 4.57963 59.0899H7.19664C7.55771 59.0899 7.85082 59.3813 7.85082 59.7416C7.85082 60.8896 7.85082 61.6453 7.85082 62.8486ZM13.0848 62.8486C13.0848 63.9968 12.4446 65.0291 11.4147 65.5426C11.0886 65.7045 10.6969 65.5699 10.5368 65.2505C10.3754 64.9283 10.5065 64.5365 10.8294 64.3761C11.3667 64.1084 11.713 63.5911 11.7656 63.0027H9.81355C9.45235 63.0027 9.15927 62.7105 9.15927 62.3502V59.7416C9.15927 59.3813 9.45235 59.0899 9.81355 59.0899H12.4306C12.7917 59.0899 13.0848 59.3813 13.0848 59.7416C13.0848 60.8896 13.0848 61.6453 13.0848 62.8486Z" fill="#AAAAAA"/>
<path fill-rule="evenodd" clip-rule="evenodd" d="M16.0071 111.096C16.0071 109.94 15.0698 109.002 13.9134 109.002H2.09685C0.940608 109.002 0.00317394 109.94 0.00317394 111.096V122.912C0.00317394 124.069 0.940608 125.006 2.09685 125.006H13.9134C15.0698 125.006 16.0071 124.069 16.0071 122.912V111.096ZM7.96214 112.715C9.09024 112.715 10.0048 113.629 10.0048 114.757C10.0048 115.885 9.09024 116.8 7.96214 116.8C6.83394 116.8 5.91953 115.885 5.91953 114.757C5.91953 113.629 6.83394 112.715 7.96214 112.715ZM11.2704 122.167H4.79717C4.18008 122.167 3.67985 121.66 3.67985 121.043C3.67985 119.28 4.76696 117.764 6.30738 117.141C6.77696 117.468 7.347 117.66 7.96226 117.66C8.60006 117.66 9.18922 117.454 9.66818 117.105C11.2573 117.704 12.388 119.244 12.388 121.043C12.388 121.66 11.8876 122.167 11.2704 122.167Z" fill="#AAAAAA"/>
<path fill-rule="evenodd" clip-rule="evenodd" d="M7.3898 164.188H14.7747C15.2186 164.188 16.0054 165.3 16.0054 165.709L16.0056 167.006H0.00499696L0.00488299 163.746C0.00488299 163.338 0.365839 163.006 0.809999 163.006H6.67176C7.11581 163.006 7.47688 163.338 7.47688 163.746L7.3898 164.188ZM0.809999 176.006C0.365839 176.006 0.00488299 175.674 0.00488299 175.266L0.00499696 168.006H16.0056L16.0054 175.266C16.0054 175.674 15.6444 176.006 15.2003 176.006H0.809999Z" fill="#AAAAAA"/>
<path fill-rule="evenodd" clip-rule="evenodd" d="M14.7747 216.383H11.0821C10.7177 215.35 10.3189 214.008 8.62053 214.008C6.07562 214.008 5.29258 215.35 4.92807 216.383H1.23563C0.253469 216.383 0.00488299 217.774 0.00488299 218.758V231.228C0.00488299 232.212 0.800384 233.009 1.7828 233.009H14.2277C15.2098 233.009 16.0054 232.212 16.0054 231.228V218.758C16.0053 217.774 15.7569 216.383 14.7747 216.383ZM8.00516 216.976C8.49395 216.976 8.89395 217.373 8.89395 217.867C8.89395 218.362 8.49395 218.758 8.00516 218.758C7.51625 218.758 7.11627 218.362 7.11627 217.867C7.11627 217.373 7.51625 216.976 8.00516 216.976ZM10.0053 230.008H3.00505V228.008H10.0053V230.008ZM13.0054 226.008H3.00505V224.009H13.0054V226.008ZM13.0054 222.008H3.00505V220.008H13.0054V222.008Z" fill="#AAAAAA"/>
<path fill-rule="evenodd" clip-rule="evenodd" d="M12.0054 273.01V271.01H0.00488299V284.519C0.00488299 285.887 1.11798 287 2.48616 287H13.514C14.8821 287 15.9953 285.887 15.9953 284.519L16.0056 273.01H12.0054ZM10.0053 284.01H2.00505V282.01H10.0053V283.01V284.01ZM10.0053 280.01H2.00505V278.011H10.0053V279.01V280.01ZM10.0053 275.01V276.01H2.00505V275.01V273.01H10.0053V275.01ZM14.0054 285.011C14.0054 285.466 13.9699 285.346 13.514 285.346C13.0578 285.346 12.0054 285.466 12.0054 285.011V275.01H14.0054V285.011Z" fill="#AAAAAA"/>
</svg>
