<svg width="16" height="16" viewBox="0 0 16 16" fill="none" xmlns="http://www.w3.org/2000/svg">
<g filter="url(#filter0_d_16_15927)">
<path fill-rule="evenodd" clip-rule="evenodd" d="M2.99996 0.999989H12.9999C14.6568 0.999989 16 2.34303 16 3.99989V12.9998C16 14.6568 14.6568 15.9999 12.9999 15.9999H2.99996C1.34308 15.9999 8.46388e-06 14.6568 8.46388e-06 12.9998V3.99989C8.46388e-06 2.34303 1.34308 0.999989 2.99996 0.999989Z" fill="#FDFAF2"/>
<path d="M2.99996 1.49999H12.9999C14.3807 1.49999 15.5 2.6192 15.5 3.99989V12.9998C15.5 14.3807 14.3807 15.4999 12.9999 15.4999H2.99996C1.61924 15.4999 0.50001 14.3807 0.50001 12.9998V3.99989C0.50001 2.61918 1.61922 1.49999 2.99996 1.49999Z" stroke="#E7E7E7"/>
</g>
<defs>
<filter id="filter0_d_16_15927" x="0" y="0" width="16" height="15.9998" filterUnits="userSpaceOnUse" color-interpolation-filters="sRGB">
<feFlood flood-opacity="0" result="BackgroundImageFix"/>
<feColorMatrix in="SourceAlpha" type="matrix" values="0 0 0 0 0 0 0 0 0 0 0 0 0 0 0 0 0 0 127 0" result="hardAlpha"/>
<feOffset dy="-1"/>
<feColorMatrix type="matrix" values="0 0 0 0 0 0 0 0 0 0 0 0 0 0 0 0 0 0 0.4 0"/>
<feBlend mode="normal" in2="BackgroundImageFix" result="effect1_dropShadow_16_15927"/>
<feBlend mode="normal" in="SourceGraphic" in2="effect1_dropShadow_16_15927" result="shape"/>
</filter>
</defs>
</svg>
