<svg width="203" height="60" viewBox="0 0 203 60" fill="none" xmlns="http://www.w3.org/2000/svg">
<mask id="mask0_150_4362" style="mask-type:alpha" maskUnits="userSpaceOnUse" x="0" y="0" width="203" height="60">
<path fill-rule="evenodd" clip-rule="evenodd" d="M0 0H202.5V59.9999H0V0Z" fill="white"/>
</mask>
<g mask="url(#mask0_150_4362)">
<path fill-rule="evenodd" clip-rule="evenodd" d="M195 60H7.5C3.3 60 0 56.7 0 52.5V7.5C0 3.3 3.3 0 7.5 0H195C199.2 0 202.5 3.3 202.5 7.5V52.5C202.5 56.7 199.2 60 195 60" fill="black"/>
</g>
<mask id="mask1_150_4362" style="mask-type:alpha" maskUnits="userSpaceOnUse" x="0" y="0" width="203" height="60">
<path fill-rule="evenodd" clip-rule="evenodd" d="M0 60H202.5V0H0V60Z" fill="white"/>
</mask>
<g mask="url(#mask1_150_4362)">
<path fill-rule="evenodd" clip-rule="evenodd" d="M39.7809 11.3306C40.686 10.4255 41.7429 9.97266 43.1 9.97266C43.7047 9.97266 44.3088 10.1239 44.9121 10.4255C45.5132 10.7261 45.9685 11.0287 46.2725 11.4847L46.2847 11.5031L46.2691 11.5187L45.5191 12.2687L45.4978 12.2901L45.4789 12.2665C44.8851 11.5242 44.1436 11.2267 43.1 11.2267C42.2057 11.2267 41.3146 11.5247 40.7211 12.2665L40.7173 12.2713L40.7169 12.2707C39.9754 12.8639 39.677 13.7546 39.677 14.7997C39.677 15.8447 39.9754 16.7354 40.7169 17.3286C41.4657 17.9277 42.2096 18.3727 43.1 18.3727C43.6224 18.3727 44.0687 18.298 44.4773 18.1309C44.8858 17.9638 45.2579 17.7036 45.6309 17.3306C46.071 16.8905 46.3658 16.3062 46.3729 15.5767H43.1H43.073V15.5497V14.3497V14.3227H43.1H47.45H47.477V14.3497V14.9497C47.477 16.1538 47.1759 17.2119 46.4191 17.9687C45.514 18.8738 44.4571 19.3267 43.1 19.3267C41.7429 19.3267 40.686 18.8738 39.7809 17.9687C38.8758 17.0637 38.423 16.0068 38.423 14.6497C38.423 13.2925 38.8758 12.2356 39.7809 11.3306ZM80.1309 11.3306C81.036 10.4255 82.0929 9.97266 83.45 9.97266C84.8071 9.97266 85.864 10.4255 86.7691 11.3306C87.6742 12.2356 88.127 13.2925 88.127 14.6497C88.127 16.0068 87.6742 17.0637 86.7691 17.9687C85.864 18.8738 84.8071 19.3267 83.45 19.3267C82.0929 19.3267 81.036 18.8738 80.1309 17.9687C79.2258 17.0637 78.773 16.0068 78.773 14.6497C78.773 13.2925 79.2258 12.2356 80.1309 11.3306ZM49.073 10.1227H49.1H54.35H54.377V10.1497V11.1997V11.2267H54.35H50.327V14.0227H54.05H54.077V14.0497V15.0997V15.1267H54.05H50.327V17.9227H54.35H54.377V17.9497V19.1497V19.1767H54.35H49.1H49.073V19.1497V10.1497V10.1227ZM55.523 10.1227H55.55H61.85H61.877V10.1497V11.1997V11.2267H61.85H59.327V19.1497V19.1767H59.3H58.1H58.073V19.1497V11.2267H55.55H55.523V11.1997V10.1497V10.1227ZM66.173 10.1227H66.2H67.4H67.427V10.1497V19.1497V19.1767H67.4H66.2H66.173V19.1497V10.1497V10.1227ZM68.723 10.1227H68.75H74.9H74.927V10.1497V11.1997V11.2267H74.9H72.377V19.1227H72.5V19.1497V19.1767H72.35H72.323H71.3H71.273V19.1497V11.2267H68.75H68.723V11.1997V10.1497V10.1227ZM89.723 10.1227H89.75H91.1H91.1151L91.123 10.1355L95.423 17.1045V10.1497V10.1227H95.45H96.65H96.677V10.1497V19.1497V19.1767H96.65H95.45H95.4351L95.4272 19.1641L90.827 11.8928V19.1497V19.1767H90.8H89.75H89.723V19.1497V10.1497V10.1227ZM83.45 11.0767C82.5557 11.0767 81.6646 11.3747 81.0711 12.1165L81.0692 12.1189L81.0691 12.1187C80.4737 12.7142 80.027 13.6075 80.027 14.6497C80.027 15.6947 80.3254 16.5854 81.0669 17.1786L81.0692 17.1804L81.0691 17.1806C81.665 17.7765 82.5584 18.2227 83.45 18.2227C84.3443 18.2227 85.2354 17.9246 85.8289 17.1828L85.8308 17.1804L85.8309 17.1806C86.4263 16.5851 86.873 15.6918 86.873 14.6497C86.873 13.6046 86.5746 12.7139 85.8331 12.1207L85.8308 12.1189L85.8309 12.1187C85.235 11.5228 84.3416 11.0767 83.45 11.0767ZM136.7 44.6496H139.55V25.8996H136.7V44.6496ZM161.9 32.6496L158.75 40.7496H158.6L155.3 32.6496H152.3L157.25 44.0496L154.4 50.3496H157.25L164.9 32.6496H161.9ZM146.15 42.5496C145.25 42.5496 143.9 42.0996 143.9 40.8996C143.9 39.3996 145.55 38.9496 146.9 38.9496C147.979 38.9496 148.573 39.192 149.227 39.459C149.3 39.489 149.374 39.5193 149.45 39.5496C149.15 41.3496 147.65 42.5496 146.15 42.5496ZM146.45 32.1996C144.35 32.1996 142.25 33.0996 141.5 35.0496L144.05 36.0996C144.65 35.0496 145.55 34.7496 146.6 34.7496C148.1 34.7496 149.45 35.6496 149.6 37.1496V37.2996C149.15 36.9996 147.95 36.5496 146.75 36.5496C144.05 36.5496 141.35 38.0496 141.35 40.7496C141.35 43.2996 143.6 44.9496 146 44.9496C147.95 44.9496 148.85 44.0496 149.6 43.1496H149.75V44.6496H152.45V37.4496C152.15 34.1496 149.6 32.1996 146.45 32.1996ZM129.2 34.8996H125.15V28.4496H129.2C131.3 28.4496 132.5 30.2496 132.5 31.5996C132.35 33.2496 131.15 34.8996 129.2 34.8996ZM129.05 25.8996H122.3V44.6496H125.15V37.5996H129.05C132.2 37.5996 135.2 35.3496 135.2 31.7496C135.2 28.1496 132.2 25.8996 129.05 25.8996ZM92.45 42.5496C90.5 42.5496 88.85 40.8996 88.85 38.6496C88.85 36.3996 90.5 34.7496 92.45 34.7496C94.4 34.7496 95.9 36.3996 95.9 38.6496C95.9 40.8996 94.4 42.5496 92.45 42.5496ZM95.75 33.6996C95 32.9496 93.8 32.1996 92.3 32.1996C89.15 32.1996 86.15 35.0496 86.15 38.6496C86.15 42.2496 89 44.9496 92.3 44.9496C93.8 44.9496 95 44.1996 95.6 43.4496H95.75V44.3496C95.75 46.7496 94.4 48.0996 92.3 48.0996C90.65 48.0996 89.45 46.8996 89.15 45.8496L86.75 46.8996C87.5 48.5496 89.3 50.6496 92.45 50.6496C95.75 50.6496 98.45 48.6996 98.45 44.0496V32.6496H95.75V33.6996ZM100.25 44.6496H103.1V25.8996H100.25V44.6496ZM107.3 38.4996C107.3 36.0996 109.25 34.7496 110.6 34.7496C111.65 34.7496 112.7 35.3496 113 36.0996L107.3 38.4996ZM116 36.3996C115.4 34.8996 113.9 32.3496 110.6 32.3496C107.3 32.3496 104.6 34.8996 104.6 38.7996C104.6 42.3996 107.3 45.2496 110.9 45.2496C113.75 45.2496 115.55 43.4496 116.15 42.3996L114.05 40.8996C113.3 41.9496 112.4 42.6996 110.9 42.6996C109.4 42.6996 108.5 42.0996 107.75 40.7496L116.3 37.1496L116 36.3996ZM47.9 34.2996V36.9996H54.35C54.2 38.4996 53.6 39.6996 52.85 40.4496C51.95 41.3496 50.45 42.3996 47.9 42.3996C43.85 42.3996 40.85 39.2496 40.85 35.1996C40.85 31.1496 44 27.9996 47.9 27.9996C50 27.9996 51.65 28.8996 52.85 29.9496L54.8 27.9996C53.15 26.4996 51.05 25.2996 48.05 25.2996C42.65 25.2996 38 29.7996 38 35.1996C38 40.5996 42.65 45.0996 48.05 45.0996C51.05 45.0996 53.15 44.1996 54.95 42.2496C56.75 40.4496 57.35 37.8996 57.35 35.9496C57.35 35.3496 57.35 34.7496 57.2 34.2996H47.9ZM64.55 42.5496C62.6 42.5496 60.95 40.8996 60.95 38.6496C60.95 36.3996 62.6 34.7496 64.55 34.7496C66.5 34.7496 68.15 36.2496 68.15 38.6496C68.15 40.8996 66.5 42.5496 64.55 42.5496ZM64.55 32.3496C60.95 32.3496 58.1 35.0496 58.1 38.7996C58.1 42.3996 60.95 45.2496 64.55 45.2496C68.15 45.2496 71 42.5496 71 38.7996C71 34.8996 68.15 32.3496 64.55 32.3496ZM78.5 42.5496C76.55 42.5496 74.9 40.8996 74.9 38.6496C74.9 36.3996 76.55 34.7496 78.5 34.7496C80.45 34.7496 82.1 36.2496 82.1 38.6496C82.1 40.8996 80.45 42.5496 78.5 42.5496ZM78.5 32.3496C74.9 32.3496 72.05 35.0496 72.05 38.7996C72.05 42.3996 74.9 45.2496 78.5 45.2496C82.1 45.2496 84.95 42.5496 84.95 38.7996C84.95 34.8996 82.1 32.3496 78.5 32.3496Z" fill="white"/>
</g>
</svg>
