<svg width="137" height="40" viewBox="0 0 137 40" fill="none" xmlns="http://www.w3.org/2000/svg">
<path d="M4.1875 31.4375C3.64583 31.4375 3.13021 31.3073 2.64062 31.0469C2.16146 30.7969 1.72396 30.4375 1.32812 29.9688C0.442708 28.8958 0 27.6094 0 26.1094C0 25.4948 0.239583 24.8802 0.71875 24.2656C1.20833 23.6406 2.00521 23.0781 3.10938 22.5781C5.58854 21.4635 9.20833 20.9062 13.9688 20.9062C13.9688 20.9062 18.3281 17.526 27.0469 10.7656C27.4844 10.4219 27.7448 10.2135 27.8281 10.1406C27.9635 9.99479 28.1354 9.92188 28.3438 9.92188C28.5625 9.92188 28.7708 9.94271 28.9688 9.98438C29.1771 10.026 29.3646 10.0833 29.5312 10.1562C29.8958 10.3125 30.0781 10.4948 30.0781 10.7031C30.0781 10.849 30.0417 10.9635 29.9688 11.0469L21.0312 20.8594H24.8438C25.0104 20.4844 25.2865 19.9635 25.6719 19.2969L27.1094 16.9531C27.6719 16.0573 28.224 15.2135 28.7656 14.4219L30.3438 12.2344C31.9583 10.0781 33.125 9 33.8438 9C33.9167 9 34.1979 9.09896 34.6875 9.29688C35.1875 9.48438 35.6094 9.67188 35.9531 9.85938C36.7865 10.2969 37.2031 10.7083 37.2031 11.0938C37.2031 11.4583 37.0417 11.8438 36.7188 12.25C36.3958 12.6458 36.0521 13.1146 35.6875 13.6562C35.3333 14.1979 34.9479 14.8125 34.5312 15.5C34.125 16.1771 33.7135 16.901 33.2969 17.6719C32.8802 18.4323 32.5052 19.1719 32.1719 19.8906C31.4115 21.526 31.0312 22.6354 31.0312 23.2188C31.0312 23.7917 31.0729 24.2083 31.1562 24.4688C31.25 24.7292 31.3594 24.9219 31.4844 25.0469C31.6823 25.2448 32 25.3438 32.4375 25.3438C32.875 25.3438 33.3177 25.2656 33.7656 25.1094C34.224 24.9427 34.6667 24.7396 35.0938 24.5C35.5312 24.25 35.9583 23.9844 36.375 23.7031C36.7917 23.4115 37.1979 23.1406 37.5938 22.8906C38.5104 22.3281 39.1875 22.0469 39.625 22.0469C40.0625 22.0469 40.3542 22.151 40.5 22.3594C40.6562 22.5573 40.7344 22.8177 40.7344 23.1406C40.7344 23.4635 40.599 23.901 40.3281 24.4531C40.0573 24.9948 39.6771 25.5573 39.1875 26.1406C38.6979 26.724 38.1198 27.3021 37.4531 27.875C36.7865 28.4375 36.0573 28.9427 35.2656 29.3906C33.4844 30.3802 31.7396 30.875 30.0312 30.875C28.4896 30.875 27.1302 30.3333 25.9531 29.25C24.6406 28.0521 23.9844 26.5052 23.9844 24.6094C23.9844 24.5156 23.9844 24.4219 23.9844 24.3281C23.9844 24.2344 23.9896 24.1354 24 24.0312L17.4531 24.8594C15.6094 26.6719 13.3802 28.224 10.7656 29.5156C8.14062 30.7969 5.94792 31.4375 4.1875 31.4375Z" fill="#F7684D"/>
<path d="M62.2812 20.3125C62.2812 20.8021 61.6406 21.75 60.3594 23.1562C59.0469 24.5833 57.7604 25.7448 56.5 26.6406C54.0625 28.4531 51.3594 29.6927 48.3906 30.3594C47.2656 30.6198 46.1979 30.75 45.1875 30.75C44.1875 30.75 43.3542 30.6615 42.6875 30.4844C42.0312 30.3177 41.4375 30.0938 40.9062 29.8125C40.3854 29.5208 39.9323 29.1875 39.5469 28.8125C39.1615 28.4375 38.8385 28.0417 38.5781 27.625C38.0677 26.8125 37.8125 26.0625 37.8125 25.375C37.8125 24.6875 37.8906 24.0833 38.0469 23.5625C38.1927 23.0417 38.401 22.5469 38.6719 22.0781C39.6198 20.3698 41.526 18.8594 44.3906 17.5469C46.651 16.4948 48.8073 15.8125 50.8594 15.5C51.7448 15.3646 52.375 15.2969 52.75 15.2969C53.125 15.2969 53.4375 15.3385 53.6875 15.4219C53.9479 15.4948 54.1719 15.599 54.3594 15.7344C54.776 16.0365 54.9844 16.4479 54.9844 16.9688C54.9844 17.4896 54.849 17.9844 54.5781 18.4531C54.3073 18.9115 53.9635 19.2969 53.5469 19.6094C52.7344 20.2135 51.8281 20.5156 50.8281 20.5156C49.4635 20.5156 48.3385 20.3385 47.4531 19.9844C46.8385 20.2031 46.3177 20.6042 45.8906 21.1875C45.5365 21.6667 45.3594 22.099 45.3594 22.4844C45.3594 22.8594 45.4427 23.2292 45.6094 23.5938C45.7865 23.9479 46.0312 24.2656 46.3438 24.5469C47.0312 25.151 47.8594 25.4531 48.8281 25.4531C51.0781 25.4531 53.6979 24.2604 56.6875 21.875L58.1094 20.7656C59.6094 19.6198 60.6771 19.0469 61.3125 19.0469C61.9583 19.0469 62.2812 19.4688 62.2812 20.3125Z" fill="#F7684D"/>
<path d="M88.2969 21.8281C88.2969 23.3594 88.776 24.125 89.7344 24.125C90.401 24.125 91.5521 23.5417 93.1875 22.375C94.6667 21.2812 95.5469 20.5938 95.8281 20.3125C96.474 19.7708 97.151 19.5 97.8594 19.5C98.1615 19.5 98.4167 19.6042 98.625 19.8125C98.8438 20.0104 98.9531 20.3125 98.9531 20.7188C98.9531 21.125 98.8542 21.4948 98.6562 21.8281C98.4583 22.1615 98.2031 22.5052 97.8906 22.8594C97.5885 23.2135 97.2083 23.6094 96.75 24.0469C96.3021 24.4844 95.7865 24.9479 95.2031 25.4375C94.6198 25.9167 93.9792 26.3958 93.2812 26.875C92.5938 27.3542 91.8802 27.7865 91.1406 28.1719C89.474 29.026 87.9688 29.4531 86.625 29.4531C85.0833 29.4531 84.0365 28.7552 83.4844 27.3594C83.1615 26.5573 83 25.5938 83 24.4688L78.4531 27.5469C75.3385 29.7344 73.4844 30.8958 72.8906 31.0312C72.5885 31.1042 72.2812 31.1406 71.9688 31.1406C71.6667 31.1406 71.3802 31.1094 71.1094 31.0469C70.8385 30.9948 70.599 30.901 70.3906 30.7656C69.9115 30.4844 69.6719 30.0677 69.6719 29.5156C69.6719 29.2969 69.8177 28.7656 70.1094 27.9219L71.4531 24.2344C71.8698 23.0469 72.0781 22.3333 72.0781 22.0938C72.0781 22.0104 72.026 21.9688 71.9219 21.9688C71.8177 21.9688 71.625 22.0781 71.3438 22.2969C71.0625 22.5156 70.724 22.7969 70.3281 23.1406L66.6094 26.3906L64.6562 28.0156C62.6562 29.6094 61.026 30.4062 59.7656 30.4062C59.1719 30.4062 58.5729 30.1406 57.9688 29.6094C57.3125 29.0469 56.9844 28.3698 56.9844 27.5781C56.9844 26.7865 57.0625 25.9219 57.2188 24.9844C57.3646 24.0469 57.5781 23.1458 57.8594 22.2812C58.1406 21.4062 58.4896 20.5885 58.9062 19.8281C59.3229 19.0573 59.7969 18.3906 60.3281 17.8281C61.474 16.599 62.8229 15.9844 64.375 15.9844C65.9375 15.9844 66.7188 16.4427 66.7188 17.3594C66.7188 17.7552 66.5052 18.3594 66.0781 19.1719C65.1719 20.9635 64.7188 21.9323 64.7188 22.0781C64.7188 22.2135 64.7604 22.3229 64.8438 22.4062C64.9375 22.4792 65.0365 22.5156 65.1406 22.5156C65.3594 22.5156 65.6719 22.3385 66.0781 21.9844C68.7552 19.6406 70.4375 18.1875 71.125 17.625C71.8229 17.0625 72.4948 16.5677 73.1406 16.1406C74.6198 15.1719 75.7969 14.6875 76.6719 14.6875C77.3906 14.6875 77.974 14.8021 78.4219 15.0312C79.2031 15.4375 79.5938 15.8958 79.5938 16.4062C79.5938 16.9167 79.5208 17.4948 79.375 18.1406C79.2396 18.7865 79.0885 19.4115 78.9219 20.0156L78.4531 21.6094C78.3073 22.0677 78.2344 22.4219 78.2344 22.6719C78.2344 22.9115 78.3385 23.0312 78.5469 23.0312C79.0469 23.0312 80.0417 22.3229 81.5312 20.9062L83.0469 19.4844C84.7865 17.9219 86.1042 17.1406 87 17.1406C87.4271 17.1406 87.8073 17.3073 88.1406 17.6406C88.724 18.224 89.0156 18.7344 89.0156 19.1719C89.0156 19.4115 88.9323 19.7344 88.7656 20.1406C88.4531 20.901 88.2969 21.4635 88.2969 21.8281Z" fill="#F7684D"/>
<path d="M117.438 18.9062C117.938 18.9062 118.188 19.1875 118.188 19.75C118.188 20.125 118.057 20.599 117.797 21.1719C117.547 21.7344 117.182 22.2656 116.703 22.7656C116.224 23.2552 115.672 23.7656 115.047 24.2969C114.432 24.8281 113.708 25.3854 112.875 25.9688C112.052 26.5521 111.141 27.1302 110.141 27.7031C109.141 28.276 108.078 28.7917 106.953 29.25C104.464 30.2708 102.052 30.7812 99.7188 30.7812C97.9375 30.7812 96.3802 30.3177 95.0469 29.3906C93.651 28.4219 92.9531 27.2448 92.9531 25.8594C92.9531 23.6823 94.125 21.6146 96.4688 19.6562C98.4896 17.9688 100.87 16.6615 103.609 15.7344C105.276 15.1719 106.688 14.8906 107.844 14.8906C108.781 14.8906 109.573 15.1198 110.219 15.5781C110.906 16.0781 111.25 16.75 111.25 17.5938C111.25 18.9167 110.203 20.3802 108.109 21.9844C107.776 22.2448 107.474 22.4635 107.203 22.6406L106.641 23.0156C105.599 23.7448 104.016 24.5625 101.891 25.4688C102.547 25.8125 103.156 25.9844 103.719 25.9844C104.292 25.9844 104.802 25.9167 105.25 25.7812C105.708 25.6458 106.224 25.4531 106.797 25.2031C107.37 24.9531 107.979 24.6562 108.625 24.3125C109.281 23.9583 109.943 23.5729 110.609 23.1562C112.099 22.2292 113.391 21.2812 114.484 20.3125C115.057 19.7812 115.786 19.3594 116.672 19.0469C116.964 18.9531 117.219 18.9062 117.438 18.9062ZM100.203 23.2969L101.062 22.8594C101.344 22.7135 101.594 22.5781 101.812 22.4531C103.917 21.2448 105.115 20.5 105.406 20.2188C105.698 19.9375 105.844 19.7448 105.844 19.6406C105.844 19.526 105.812 19.3958 105.75 19.25C105.688 19.1042 105.604 18.974 105.5 18.8594C105.25 18.5677 104.984 18.4219 104.703 18.4219C104.422 18.4219 104.109 18.474 103.766 18.5781C103.432 18.6823 103.094 18.8281 102.75 19.0156C102.406 19.1927 102.073 19.4115 101.75 19.6719C101.438 19.9219 101.161 20.1927 100.922 20.4844C100.37 21.1406 100.094 21.7083 100.094 22.1875C100.094 22.6667 100.13 23.0365 100.203 23.2969Z" fill="#F7684D"/>
<path d="M136.031 18.9062C136.531 18.9062 136.781 19.1875 136.781 19.75C136.781 20.125 136.651 20.599 136.391 21.1719C136.141 21.7344 135.776 22.2656 135.297 22.7656C134.818 23.2552 134.266 23.7656 133.641 24.2969C133.026 24.8281 132.302 25.3854 131.469 25.9688C130.646 26.5521 129.734 27.1302 128.734 27.7031C127.734 28.276 126.672 28.7917 125.547 29.25C123.057 30.2708 120.646 30.7812 118.312 30.7812C116.531 30.7812 114.974 30.3177 113.641 29.3906C112.245 28.4219 111.547 27.2448 111.547 25.8594C111.547 23.6823 112.719 21.6146 115.062 19.6562C117.083 17.9688 119.464 16.6615 122.203 15.7344C123.87 15.1719 125.281 14.8906 126.438 14.8906C127.375 14.8906 128.167 15.1198 128.812 15.5781C129.5 16.0781 129.844 16.75 129.844 17.5938C129.844 18.9167 128.797 20.3802 126.703 21.9844C126.37 22.2448 126.068 22.4635 125.797 22.6406L125.234 23.0156C124.193 23.7448 122.609 24.5625 120.484 25.4688C121.141 25.8125 121.75 25.9844 122.312 25.9844C122.885 25.9844 123.396 25.9167 123.844 25.7812C124.302 25.6458 124.818 25.4531 125.391 25.2031C125.964 24.9531 126.573 24.6562 127.219 24.3125C127.875 23.9583 128.536 23.5729 129.203 23.1562C130.693 22.2292 131.984 21.2812 133.078 20.3125C133.651 19.7812 134.38 19.3594 135.266 19.0469C135.557 18.9531 135.812 18.9062 136.031 18.9062ZM118.797 23.2969L119.656 22.8594C119.938 22.7135 120.188 22.5781 120.406 22.4531C122.51 21.2448 123.708 20.5 124 20.2188C124.292 19.9375 124.438 19.7448 124.438 19.6406C124.438 19.526 124.406 19.3958 124.344 19.25C124.281 19.1042 124.198 18.974 124.094 18.8594C123.844 18.5677 123.578 18.4219 123.297 18.4219C123.016 18.4219 122.703 18.474 122.359 18.5781C122.026 18.6823 121.688 18.8281 121.344 19.0156C121 19.1927 120.667 19.4115 120.344 19.6719C120.031 19.9219 119.755 20.1927 119.516 20.4844C118.964 21.1406 118.688 21.7083 118.688 22.1875C118.688 22.6667 118.724 23.0365 118.797 23.2969Z" fill="#F7684D"/>
</svg>
