<svg width="1078" height="100" viewBox="0 0 1078 100" fill="none" xmlns="http://www.w3.org/2000/svg">
<path d="M81.5749 44.08C84.1775 44.6346 86.2682 45.936 87.8469 47.984C89.4255 49.9893 90.2149 52.2933 90.2149 54.896C90.2149 58.6506 88.8922 61.6373 86.2469 63.856C83.6442 66.032 79.9962 67.12 75.3029 67.12H54.3749V22.192H74.5989C79.1642 22.192 82.7269 23.2373 85.2869 25.328C87.8895 27.4186 89.1909 30.256 89.1909 33.84C89.1909 36.4853 88.4869 38.6826 87.0789 40.432C85.7135 42.1813 83.8789 43.3973 81.5749 44.08ZM65.3189 40.368H72.4869C74.2789 40.368 75.6442 39.984 76.5829 39.216C77.5642 38.4053 78.0549 37.232 78.0549 35.696C78.0549 34.16 77.5642 32.9866 76.5829 32.176C75.6442 31.3653 74.2789 30.96 72.4869 30.96H65.3189V40.368ZM73.3829 58.288C75.2175 58.288 76.6255 57.8826 77.6069 57.072C78.6309 56.2186 79.1429 55.0026 79.1429 53.424C79.1429 51.8453 78.6095 50.608 77.5429 49.712C76.5189 48.816 75.0895 48.368 73.2549 48.368H65.3189V58.288H73.3829Z" fill="#9F9F9F"/>
<path d="M94.3864 49.2C94.3864 45.5306 95.069 42.3093 96.4344 39.536C97.8424 36.7626 99.741 34.6293 102.13 33.136C104.52 31.6426 107.186 30.896 110.13 30.896C112.648 30.896 114.845 31.408 116.722 32.432C118.642 33.456 120.114 34.8 121.138 36.464V31.408H132.082V67.12H121.138V62.064C120.072 63.728 118.578 65.072 116.658 66.096C114.781 67.12 112.584 67.632 110.066 67.632C107.165 67.632 104.52 66.8853 102.13 65.392C99.741 63.856 97.8424 61.7013 96.4344 58.928C95.069 56.112 94.3864 52.8693 94.3864 49.2ZM121.138 49.264C121.138 46.5333 120.37 44.3786 118.834 42.8C117.341 41.2213 115.506 40.432 113.33 40.432C111.154 40.432 109.298 41.2213 107.762 42.8C106.269 44.336 105.522 46.4693 105.522 49.2C105.522 51.9306 106.269 54.1066 107.762 55.728C109.298 57.3066 111.154 58.096 113.33 58.096C115.506 58.096 117.341 57.3066 118.834 55.728C120.37 54.1493 121.138 51.9946 121.138 49.264Z" fill="#9F9F9F"/>
<path d="M145.44 27.696C143.52 27.696 141.941 27.1413 140.704 26.032C139.509 24.88 138.912 23.472 138.912 21.808C138.912 20.1013 139.509 18.6933 140.704 17.584C141.941 16.432 143.52 15.856 145.44 15.856C147.317 15.856 148.853 16.432 150.048 17.584C151.285 18.6933 151.904 20.1013 151.904 21.808C151.904 23.472 151.285 24.88 150.048 26.032C148.853 27.1413 147.317 27.696 145.44 27.696ZM150.944 71.728C150.944 76.1226 149.835 79.28 147.616 81.2C145.397 83.1626 142.304 84.144 138.336 84.144H134.048V74.864H136.672C137.867 74.864 138.72 74.6293 139.232 74.16C139.744 73.6906 140 72.9226 140 71.856V31.408H150.944V71.728Z" fill="#9F9F9F"/>
<path d="M194.076 31.408V67.12H183.132V62.256C182.023 63.8346 180.508 65.1146 178.588 66.096C176.711 67.0346 174.62 67.504 172.316 67.504C169.586 67.504 167.175 66.9066 165.084 65.712C162.994 64.4746 161.372 62.704 160.22 60.4C159.068 58.096 158.492 55.3866 158.492 52.272V31.408H169.372V50.8C169.372 53.1893 169.991 55.0453 171.228 56.368C172.466 57.6906 174.13 58.352 176.22 58.352C178.354 58.352 180.039 57.6906 181.276 56.368C182.514 55.0453 183.132 53.1893 183.132 50.8V31.408H194.076Z" fill="#9F9F9F"/>
<path d="M237.201 31.408V67.12H226.257V62.256C225.148 63.8346 223.633 65.1146 221.713 66.096C219.836 67.0346 217.745 67.504 215.441 67.504C212.711 67.504 210.3 66.9066 208.209 65.712C206.119 64.4746 204.497 62.704 203.345 60.4C202.193 58.096 201.617 55.3866 201.617 52.272V31.408H212.497V50.8C212.497 53.1893 213.116 55.0453 214.353 56.368C215.591 57.6906 217.255 58.352 219.345 58.352C221.479 58.352 223.164 57.6906 224.401 56.368C225.639 55.0453 226.257 53.1893 226.257 50.8V31.408H237.201Z" fill="#9F9F9F"/>
<path d="M356.753 63.72C357.393 64.7013 358.055 65.4906 358.737 66.088C359.42 66.6853 360.295 67.1973 361.361 67.624V68.904C358.375 68.776 355.047 68.712 351.377 68.712C348.561 68.712 345.852 68.776 343.249 68.904V67.624C344.444 67.5386 345.297 67.4106 345.809 67.24C346.364 67.0693 346.641 66.7706 346.641 66.344C346.641 66.0026 346.407 65.4693 345.937 64.744L336.657 49.704C335.804 48.3386 335.079 47.4213 334.481 46.952C333.927 46.4826 333.159 46.2053 332.177 46.12V62.12C332.177 63.7413 332.284 64.9146 332.497 65.64C332.753 66.3653 333.201 66.856 333.841 67.112C334.481 67.368 335.527 67.5386 336.977 67.624V68.904C334.673 68.776 331.452 68.712 327.313 68.712C322.748 68.712 319.377 68.776 317.201 68.904V67.624C318.609 67.5386 319.633 67.368 320.273 67.112C320.956 66.856 321.404 66.3653 321.617 65.64C321.873 64.9146 322.001 63.7413 322.001 62.12V30.376C322.001 28.7546 321.873 27.5813 321.617 26.856C321.404 26.1306 320.956 25.64 320.273 25.384C319.633 25.128 318.609 24.9573 317.201 24.872V23.592C319.377 23.72 322.748 23.784 327.313 23.784C331.452 23.784 334.673 23.72 336.977 23.592V24.872C335.527 24.9573 334.481 25.128 333.841 25.384C333.201 25.64 332.753 26.1306 332.497 26.856C332.284 27.5813 332.177 28.7546 332.177 30.376V44.776C333.884 44.6906 335.441 44.1786 336.849 43.24C338.257 42.3013 339.857 40.808 341.649 38.76L345.425 34.216C347.388 31.9546 348.369 29.9706 348.369 28.264C348.369 27.24 347.943 26.4293 347.089 25.832C346.279 25.2346 345.127 24.8933 343.633 24.808V23.592C346.748 23.72 349.905 23.784 353.105 23.784C355.58 23.784 357.585 23.72 359.121 23.592V24.808C355.708 25.6186 352.615 27.6666 349.841 30.952L341.841 40.488L356.753 63.72Z" fill="#9F9F9F"/>
<path d="M370.697 69.352C367.966 69.352 365.918 68.648 364.553 67.24C363.23 65.832 362.569 63.976 362.569 61.672C362.569 59.752 363.06 58.1733 364.041 56.936C365.065 55.656 366.281 54.6746 367.689 53.992C369.14 53.3093 370.974 52.584 373.193 51.816C375.54 51.0053 377.246 50.28 378.313 49.64C379.422 48.9573 379.977 48.04 379.977 46.888V41.896C379.977 40.104 379.55 38.7173 378.697 37.736C377.886 36.712 376.606 36.2 374.857 36.2C372.809 36.2 371.252 36.712 370.185 37.736C371.38 38.1626 372.297 38.8026 372.937 39.656C373.62 40.5093 373.961 41.512 373.961 42.664C373.961 44.1146 373.47 45.2666 372.489 46.12C371.508 46.9733 370.313 47.4 368.905 47.4C367.412 47.4 366.26 46.9306 365.449 45.992C364.638 45.0533 364.233 43.88 364.233 42.472C364.233 41.2773 364.51 40.2746 365.065 39.464C365.662 38.6106 366.558 37.8213 367.753 37.096C368.905 36.4133 370.313 35.88 371.977 35.496C373.684 35.112 375.54 34.92 377.545 34.92C379.636 34.92 381.449 35.1333 382.985 35.56C384.521 35.9866 385.801 36.712 386.825 37.736C387.764 38.6746 388.382 39.8266 388.681 41.192C389.022 42.5573 389.193 44.4133 389.193 46.76V64.168C389.193 65.192 389.278 65.9173 389.449 66.344C389.662 66.7706 390.046 66.984 390.601 66.984C391.241 66.984 392.009 66.6213 392.905 65.896L393.545 66.984C391.625 68.5626 389.278 69.352 386.505 69.352C384.158 69.352 382.516 68.8826 381.577 67.944C380.638 67.0053 380.148 65.7466 380.105 64.168C377.972 67.624 374.836 69.352 370.697 69.352ZM375.625 65.256C377.289 65.256 378.74 64.3813 379.977 62.632V49.512C379.465 50.3653 378.377 51.304 376.713 52.328C375.049 53.3946 373.79 54.4613 372.937 55.528C372.084 56.5946 371.657 58.1306 371.657 60.136C371.657 61.8853 372.02 63.1866 372.745 64.04C373.47 64.8506 374.43 65.256 375.625 65.256Z" fill="#9F9F9F"/>
<path d="M408.366 35.816H415.918V37.096H408.366V62.952C408.366 64.232 408.579 65.1493 409.006 65.704C409.475 66.216 410.201 66.472 411.182 66.472C413.017 66.472 414.467 65.192 415.534 62.632L416.622 63.208C415.001 67.6026 412.078 69.8 407.854 69.8C405.038 69.8 402.905 69.0746 401.454 67.624C400.558 66.728 399.939 65.6186 399.598 64.296C399.299 62.9306 399.15 61.0746 399.15 58.728V37.096H393.774V35.816H399.15V27.368C402.691 27.368 405.763 26.6853 408.366 25.32V35.816Z" fill="#9F9F9F"/>
<path d="M430.866 40.872C432.786 36.904 436.263 34.92 441.298 34.92C444.626 34.92 446.973 35.752 448.338 37.416C449.063 38.2266 449.575 39.2933 449.874 40.616C450.215 41.896 450.386 43.6026 450.386 45.736V62.952C450.386 64.7013 450.685 65.9173 451.282 66.6C451.879 67.24 452.946 67.56 454.482 67.56V68.904C450.045 68.7333 447.229 68.648 446.034 68.648C444.583 68.648 441.81 68.7333 437.714 68.904V67.56C438.994 67.56 439.89 67.24 440.402 66.6C440.914 65.9173 441.17 64.7013 441.17 62.952V43.048C441.17 41.2986 440.871 39.976 440.274 39.08C439.719 38.184 438.695 37.736 437.202 37.736C435.41 37.736 433.895 38.44 432.658 39.848C431.463 41.2133 430.866 42.9626 430.866 45.096V62.952C430.866 64.7013 431.122 65.9173 431.634 66.6C432.146 67.24 433.042 67.56 434.322 67.56V68.904C430.226 68.7333 427.581 68.648 426.386 68.648C424.935 68.648 421.991 68.7333 417.554 68.904V67.56C419.047 67.56 420.093 67.24 420.69 66.6C421.33 65.9173 421.65 64.7013 421.65 62.952V26.536C421.65 24.5733 421.33 23.144 420.69 22.248C420.093 21.352 419.047 20.904 417.554 20.904V19.56C418.919 19.688 420.242 19.752 421.522 19.752C425.234 19.752 428.349 19.4533 430.866 18.856V40.872Z" fill="#9F9F9F"/>
<path d="M473.323 34.92C478.23 34.92 482.07 36.328 484.843 39.144C487.617 41.9173 489.003 46.3333 489.003 52.392C489.003 58.4506 487.617 62.8666 484.843 65.64C482.07 68.4133 478.23 69.8 473.323 69.8C468.459 69.8 464.619 68.4133 461.803 65.64C459.03 62.8666 457.643 58.4506 457.643 52.392C457.643 46.3333 459.03 41.9173 461.803 39.144C464.619 36.328 468.459 34.92 473.323 34.92ZM473.323 36.2C471.489 36.2 470.017 37.544 468.907 40.232C467.841 42.8773 467.307 46.9306 467.307 52.392C467.307 57.8533 467.841 61.9066 468.907 64.552C470.017 67.1973 471.489 68.52 473.323 68.52C475.201 68.52 476.673 67.2186 477.739 64.616C478.806 61.9706 479.339 57.896 479.339 52.392C479.339 46.888 478.785 42.8133 477.675 40.168C476.609 37.5226 475.158 36.2 473.323 36.2Z" fill="#9F9F9F"/>
<path d="M509.639 34.92C511.218 34.92 512.711 35.0906 514.119 35.432C515.527 35.7733 516.7 36.2426 517.639 36.84C518.748 37.5226 519.602 38.3973 520.199 39.464C520.839 40.488 521.159 41.6186 521.159 42.856C521.159 44.3493 520.69 45.5866 519.751 46.568C518.812 47.5066 517.596 47.976 516.103 47.976C514.61 47.976 513.415 47.5493 512.519 46.696C511.623 45.8426 511.175 44.6906 511.175 43.24C511.175 41.96 511.58 40.8506 512.391 39.912C513.202 38.9733 514.204 38.3333 515.399 37.992C515.058 37.5226 514.524 37.16 513.799 36.904C513.116 36.6053 512.37 36.456 511.559 36.456C508.999 36.456 506.994 37.864 505.543 40.68C504.135 43.4533 503.431 47.1013 503.431 51.624C503.431 56.1893 504.242 59.4746 505.863 61.48C507.484 63.4853 509.511 64.488 511.943 64.488C513.394 64.488 514.844 64.104 516.295 63.336C517.788 62.568 519.132 61.224 520.327 59.304L521.415 59.688C520.562 62.4613 519.068 64.8506 516.935 66.856C514.802 68.8186 512.05 69.8 508.679 69.8C504.284 69.8 500.7 68.3493 497.927 65.448C495.154 62.5466 493.767 58.2373 493.767 52.52C493.767 48.7653 494.45 45.5653 495.815 42.92C497.18 40.2746 499.058 38.2906 501.447 36.968C503.836 35.6026 506.567 34.92 509.639 34.92Z" fill="#9F9F9F"/>
<path d="M607.415 49.0435V66.856H601.415V21.356H618.196C623.175 21.356 627.071 22.6268 629.884 25.1685C632.717 27.7101 634.134 31.0747 634.134 35.2622C634.134 39.6789 632.748 43.0851 629.977 45.481C627.227 47.856 623.28 49.0435 618.134 49.0435H607.415ZM607.415 44.1372H618.196C621.405 44.1372 623.863 43.3872 625.571 41.8872C627.28 40.3664 628.134 38.1789 628.134 35.3247C628.134 32.6164 627.28 30.4497 625.571 28.8247C623.863 27.1997 621.519 26.356 618.54 26.2935H607.415V44.1372Z" fill="#9F9F9F"/>
<path d="M654.477 67.481C649.894 67.481 646.165 65.981 643.29 62.981C640.415 59.9601 638.977 55.9289 638.977 50.8872V49.8247C638.977 46.4705 639.613 43.481 640.884 40.856C642.175 38.2101 643.967 36.1476 646.259 34.6685C648.571 33.1685 651.071 32.4185 653.759 32.4185C658.155 32.4185 661.571 33.8664 664.009 36.7622C666.446 39.658 667.665 43.8039 667.665 49.1997V51.606H644.759C644.842 54.9393 645.811 57.6372 647.665 59.6997C649.54 61.7414 651.915 62.7622 654.79 62.7622C656.832 62.7622 658.561 62.3455 659.977 61.5122C661.394 60.6789 662.634 59.5747 663.696 58.1997L667.227 60.9497C664.394 65.3039 660.144 67.481 654.477 67.481ZM653.759 37.1685C651.425 37.1685 649.467 38.0226 647.884 39.731C646.3 41.4185 645.321 43.7935 644.946 46.856H661.884V46.4185C661.717 43.481 660.925 41.2101 659.509 39.606C658.092 37.981 656.175 37.1685 653.759 37.1685Z" fill="#9F9F9F"/>
<path d="M690.727 38.231C689.852 38.0851 688.905 38.0122 687.884 38.0122C684.092 38.0122 681.519 39.6268 680.165 42.856V66.856H674.384V33.0435H680.009L680.102 36.9497C681.998 33.9289 684.686 32.4185 688.165 32.4185C689.29 32.4185 690.144 32.5643 690.727 32.856V38.231Z" fill="#9F9F9F"/>
<path d="M701.54 33.0435L701.727 37.2935C704.311 34.0435 707.686 32.4185 711.852 32.4185C718.998 32.4185 722.602 36.4497 722.665 44.5122V66.856H716.884V44.481C716.863 42.0435 716.3 40.2414 715.196 39.0747C714.113 37.908 712.415 37.3247 710.102 37.3247C708.227 37.3247 706.582 37.8247 705.165 38.8247C703.748 39.8247 702.644 41.1372 701.852 42.7622V66.856H696.071V33.0435H701.54Z" fill="#9F9F9F"/>
<path d="M737.665 66.856H731.884V33.0435H737.665V66.856ZM731.415 24.0747C731.415 23.1372 731.696 22.3455 732.259 21.6997C732.842 21.0539 733.696 20.731 734.821 20.731C735.946 20.731 736.8 21.0539 737.384 21.6997C737.967 22.3455 738.259 23.1372 738.259 24.0747C738.259 25.0122 737.967 25.7935 737.384 26.4185C736.8 27.0435 735.946 27.356 734.821 27.356C733.696 27.356 732.842 27.0435 732.259 26.4185C731.696 25.7935 731.415 25.0122 731.415 24.0747Z" fill="#9F9F9F"/>
<path d="M756.384 51.1997L752.759 54.981V66.856H746.977V18.856H752.759V47.8872L755.852 44.1685L766.384 33.0435H773.415L760.259 47.1685L774.946 66.856H768.165L756.384 51.1997Z" fill="#9F9F9F"/>
<path d="M880.738 33.96C880.439 31.6986 879.821 29.736 878.882 28.072C877.943 26.3653 876.685 25.064 875.106 24.168C873.57 23.2293 871.714 22.76 869.538 22.76C867.447 22.76 865.698 23.3573 864.29 24.552C862.925 25.7466 862.242 27.2186 862.242 28.968C862.242 30.4186 862.648 31.6773 863.458 32.744C864.312 33.8106 865.527 34.792 867.106 35.688C868.685 36.5413 870.562 37.4373 872.738 38.376C874.359 39.0586 876.002 39.8266 877.666 40.68C879.33 41.4906 880.866 42.472 882.274 43.624C883.682 44.776 884.813 46.12 885.666 47.656C886.562 49.1493 887.01 50.9413 887.01 53.032C887.01 55.5066 886.349 57.704 885.026 59.624C883.746 61.544 881.911 63.0373 879.522 64.104C877.133 65.1706 874.317 65.704 871.074 65.704C869.282 65.704 867.384 65.4266 865.378 64.872C863.373 64.36 861.538 63.5706 859.874 62.504L860.066 65.256H855.714L855.586 50.728H859.234C859.704 54.3546 861.048 57.1066 863.266 58.984C865.485 60.8186 868.152 61.736 871.266 61.736C872.845 61.736 874.253 61.4586 875.49 60.904C876.728 60.3066 877.688 59.5173 878.37 58.536C879.096 57.512 879.458 56.36 879.458 55.08C879.458 53.416 878.946 52.0506 877.922 50.984C876.898 49.9173 875.597 49 874.018 48.232C872.44 47.464 870.797 46.7173 869.09 45.992C867.17 45.1813 865.357 44.328 863.65 43.432C861.943 42.4933 860.429 41.448 859.106 40.296C857.826 39.1013 856.802 37.736 856.034 36.2C855.309 34.664 854.946 32.8506 854.946 30.76C854.946 29.5226 855.181 28.2213 855.65 26.856C856.119 25.448 856.887 24.1466 857.954 22.952C859.063 21.7573 860.536 20.776 862.37 20.008C864.205 19.24 866.487 18.856 869.218 18.856C870.925 18.856 872.781 19.112 874.786 19.624C876.834 20.0933 878.626 20.8826 880.162 21.992L879.906 19.304H884.322V33.96H880.738Z" fill="#9F9F9F"/>
<path d="M890.921 81V77.608C892.158 77.608 893.033 77.3306 893.545 76.776C894.099 76.264 894.441 75.5173 894.569 74.536C894.697 73.5546 894.761 72.4453 894.761 71.208L894.825 42.856C894.825 42.088 894.825 41.2773 894.825 40.424C894.867 39.5706 894.953 38.696 895.081 37.8C894.355 37.8426 893.545 37.8853 892.649 37.928C891.795 37.9706 891.091 38.0133 890.537 38.056V33.896C892.499 33.896 894.078 33.8106 895.273 33.64C896.51 33.4266 897.449 33.1706 898.089 32.872C898.771 32.5733 899.262 32.296 899.561 32.04H902.313C902.398 32.4666 902.462 32.9786 902.505 33.576C902.547 34.1733 902.59 34.728 902.633 35.24C904.041 34.0026 905.534 33.1066 907.113 32.552C908.691 31.9546 910.206 31.656 911.657 31.656C914.217 31.656 916.499 32.3173 918.505 33.64C920.51 34.92 922.089 36.776 923.241 39.208C924.393 41.5973 924.969 44.4346 924.969 47.72C924.969 51.2186 924.265 54.3333 922.857 57.064C921.491 59.752 919.614 61.864 917.225 63.4C914.835 64.936 912.083 65.704 908.969 65.704C907.689 65.704 906.537 65.5546 905.513 65.256C904.489 65 903.529 64.6586 902.633 64.232V71.848C902.633 72.5306 902.611 73.3413 902.569 74.28C902.569 75.2613 902.505 76.2 902.377 77.096C903.059 77.0106 903.785 76.9466 904.553 76.904C905.321 76.904 905.961 76.904 906.473 76.904V81H890.921ZM908.265 61.672C910.227 61.6293 911.806 61.032 913.001 59.88C914.238 58.6853 915.134 57.1066 915.689 55.144C916.243 53.1813 916.521 51.048 916.521 48.744C916.521 46.6533 916.243 44.6693 915.689 42.792C915.177 40.9146 914.345 39.4 913.193 38.248C912.041 37.096 910.505 36.52 908.585 36.52C907.39 36.5626 906.259 36.8613 905.193 37.416C904.169 37.9706 903.315 38.696 902.633 39.592C902.633 40.5306 902.633 41.4906 902.633 42.472C902.633 43.4533 902.633 44.4986 902.633 45.608C902.633 46.7173 902.633 47.976 902.633 49.384C902.633 50.7493 902.633 52.3066 902.633 54.056C902.633 55.8053 902.633 57.8106 902.633 60.072C903.315 60.5413 904.147 60.9253 905.129 61.224C906.11 61.5226 907.155 61.672 908.265 61.672Z" fill="#9F9F9F"/>
<path d="M948.304 64.68C948.176 64.04 948.09 63.5066 948.048 63.08C948.048 62.6106 948.026 62.0773 947.984 61.48C946.533 62.9306 944.976 63.9973 943.312 64.68C941.69 65.3626 940.005 65.704 938.256 65.704C935.354 65.704 933.114 64.9146 931.536 63.336C930 61.7573 929.232 59.816 929.232 57.512C929.232 55.464 929.786 53.736 930.896 52.328C932.005 50.8773 933.456 49.704 935.248 48.808C937.04 47.8693 939.024 47.1653 941.2 46.696C943.376 46.184 945.53 45.9066 947.664 45.864V42.344C947.664 41.1066 947.514 39.976 947.216 38.952C946.96 37.8853 946.469 37.0533 945.744 36.456C945.018 35.816 943.952 35.496 942.544 35.496C941.605 35.5386 940.645 35.752 939.664 36.136C938.725 36.4773 937.978 37.032 937.424 37.8C937.765 38.184 937.978 38.6106 938.064 39.08C938.149 39.5066 938.192 39.8906 938.192 40.232C938.192 41 937.893 41.8106 937.296 42.664C936.698 43.4746 935.738 43.8586 934.416 43.816C933.264 43.7733 932.368 43.368 931.728 42.6C931.13 41.832 930.832 40.9146 930.832 39.848C930.832 38.2266 931.408 36.8186 932.56 35.624C933.754 34.3866 935.354 33.4266 937.36 32.744C939.365 32.0186 941.605 31.656 944.08 31.656C947.749 31.656 950.565 32.616 952.528 34.536C954.49 36.456 955.45 39.528 955.408 43.752C955.408 45.2453 955.408 46.6106 955.408 47.848C955.408 49.0426 955.386 50.2586 955.344 51.496C955.344 52.6906 955.344 54.0346 955.344 55.528C955.344 56.168 955.322 56.9786 955.28 57.96C955.237 58.8986 955.173 59.8373 955.088 60.776C955.856 60.6906 956.624 60.648 957.392 60.648C958.202 60.6053 958.864 60.5626 959.376 60.52V64.68H948.304ZM947.6 49.64C946.32 49.7253 945.061 49.9386 943.824 50.28C942.586 50.5786 941.477 51.0053 940.496 51.56C939.514 52.1146 938.725 52.8186 938.128 53.672C937.573 54.4826 937.317 55.4213 937.36 56.488C937.402 57.8106 937.829 58.792 938.64 59.432C939.45 60.0293 940.389 60.328 941.456 60.328C942.693 60.328 943.802 60.072 944.784 59.56C945.808 59.048 946.746 58.3653 947.6 57.512C947.6 57.0853 947.6 56.6373 947.6 56.168C947.6 55.6986 947.6 55.2293 947.6 54.76C947.6 54.1626 947.6 53.416 947.6 52.52C947.6 51.624 947.6 50.664 947.6 49.64Z" fill="#9F9F9F"/>
<path d="M975.478 65.704C974.283 65.704 973.11 65.5546 971.958 65.256C970.849 64.9573 969.825 64.4026 968.886 63.592C967.99 62.7813 967.265 61.5866 966.71 60.008C966.155 58.3866 965.878 56.2533 965.878 53.608L966.006 37.096L961.462 37.16V32.68C962.742 32.6373 963.98 32.2106 965.174 31.4C966.369 30.5466 967.414 29.4373 968.31 28.072C969.206 26.7066 969.804 25.256 970.102 23.72H974.006L973.942 32.68H982.966V36.776L973.942 36.968L973.878 53.416C973.878 54.696 973.985 55.8906 974.198 57C974.454 58.0666 974.881 58.92 975.478 59.56C976.118 60.2 976.971 60.52 978.038 60.52C978.849 60.52 979.766 60.264 980.79 59.752C981.857 59.24 982.924 58.216 983.99 56.68L986.614 59.048C985.547 60.6693 984.438 61.928 983.286 62.824C982.177 63.72 981.089 64.3813 980.022 64.808C978.998 65.2346 978.081 65.4906 977.27 65.576C976.459 65.6613 975.862 65.704 975.478 65.704Z" fill="#9F9F9F"/>
<path d="M1002.19 65.704C999.711 65.704 997.684 65.2346 996.105 64.296C994.569 63.3573 993.438 61.864 992.713 59.816C991.988 57.7253 991.625 54.9946 991.625 51.624V42.92C991.625 42.1946 991.646 41.384 991.689 40.488C991.732 39.592 991.774 38.696 991.817 37.8C991.134 37.8426 990.367 37.8853 989.513 37.928C988.66 37.928 987.956 37.9493 987.401 37.992V33.896H988.489C990.836 33.896 992.649 33.704 993.929 33.32C995.252 32.8933 996.148 32.4666 996.617 32.04H999.561V51.624C999.561 54.696 999.966 56.9786 1000.78 58.472C1001.63 59.9653 1003 60.712 1004.87 60.712C1006.15 60.6693 1007.41 60.2853 1008.65 59.56C1009.93 58.8346 1010.95 57.9813 1011.72 57V43.176C1011.72 42.3226 1011.74 41.448 1011.79 40.552C1011.83 39.6133 1011.89 38.696 1011.98 37.8C1011.29 37.8426 1010.51 37.8853 1009.61 37.928C1008.76 37.928 1008.05 37.9493 1007.5 37.992V33.896H1009.16C1011.12 33.896 1012.75 33.6826 1014.03 33.256C1015.35 32.8293 1016.22 32.424 1016.65 32.04H1019.59V55.016C1019.59 55.6133 1019.57 56.488 1019.53 57.64C1019.49 58.792 1019.42 59.8373 1019.34 60.776C1020.06 60.6906 1020.83 60.648 1021.64 60.648C1022.45 60.6053 1023.11 60.5626 1023.63 60.52V64.68H1012.49C1012.4 64.0826 1012.32 63.4853 1012.23 62.888C1012.19 62.2906 1012.15 61.7146 1012.11 61.16C1010.78 62.3546 1009.29 63.4213 1007.63 64.36C1006 65.256 1004.19 65.704 1002.19 65.704Z" fill="#9F9F9F"/>
</svg>
