<svg width="27" height="24" viewBox="0 0 27 24" fill="none" xmlns="http://www.w3.org/2000/svg">
<path opacity="0.3" d="M13.1303 15.4318C14.0332 15.4318 14.8991 15.0702 15.5376 14.4264C16.176 13.7825 16.5347 12.9094 16.5347 11.9989C16.5347 11.8983 16.5301 11.7987 16.5216 11.7003L12.8343 15.4187C12.9318 15.4272 13.0303 15.4318 13.1303 15.4318ZM24.3987 1.37997L23.1002 0.0717639C23.0546 0.0258125 22.9928 0 22.9283 0C22.8639 0 22.802 0.0258125 22.7564 0.0717639L19.4335 3.42351C17.6005 2.47883 15.5399 2.00649 13.2519 2.00649C7.40978 2.00649 3.05099 5.0747 0.175523 11.2111C0.059943 11.4579 0 11.7275 0 12.0004C0 12.2733 0.059943 12.5429 0.175523 12.7897C1.32449 15.2302 2.70802 17.1862 4.3261 18.6579L1.1105 21.8993C1.06494 21.9453 1.03934 22.0076 1.03934 22.0726C1.03934 22.1377 1.06494 22.2 1.1105 22.246L2.40811 23.5545C2.45371 23.6004 2.51554 23.6263 2.58 23.6263C2.64447 23.6263 2.70629 23.6004 2.75189 23.5545L24.3987 1.72695C24.4213 1.70417 24.4393 1.67713 24.4515 1.64736C24.4638 1.61759 24.4701 1.58568 24.4701 1.55346C24.4701 1.52123 24.4638 1.48932 24.4515 1.45956C24.4393 1.42979 24.4213 1.40274 24.3987 1.37997ZM7.78061 11.9989C7.78053 11.0671 8.01978 10.1512 8.47506 9.34033C8.93035 8.5295 9.58613 7.85141 10.3785 7.37212C11.1709 6.89283 12.073 6.62868 12.9967 6.60541C13.9204 6.58213 14.8344 6.80052 15.6495 7.23931L14.1717 8.72959C13.5757 8.53714 12.9386 8.51397 12.3304 8.6626C11.7222 8.81123 11.1663 9.12593 10.7238 9.57217C10.2813 10.0184 9.96924 10.5789 9.82184 11.1923C9.67445 11.8056 9.69743 12.448 9.88827 13.049L8.41042 14.5393C7.99569 13.7579 7.77932 12.8851 7.78061 11.9989V11.9989Z" fill="#03014C"/>
<path opacity="0.3" d="M26.8217 11.3596C25.7291 9.13037 24.4286 7.31261 22.9203 5.90631L18.4462 10.241C18.8233 11.1961 18.9069 12.2365 18.6869 13.2366C18.4668 14.2367 17.9525 15.1537 17.2062 15.8768C16.4598 16.5999 15.5132 17.0981 14.4809 17.3113C13.4485 17.5245 12.3745 17.4435 11.3886 17.0781L7.59369 20.7545C9.35427 21.5438 11.3125 21.9384 13.4683 21.9384C19.4342 21.9384 23.8853 18.9284 26.8217 12.9082C26.9397 12.6661 27.001 12.4017 27.001 12.1339C27.001 11.8662 26.9397 11.6017 26.8217 11.3596V11.3596Z" fill="#03014C"/>
</svg>
