<svg width="28" height="28" viewBox="0 0 28 28" fill="none" xmlns="http://www.w3.org/2000/svg">
<path d="M26.1804 15.2077C26.1147 15.3675 26.0033 15.5043 25.86 15.6008C25.7167 15.6974 25.5481 15.7493 25.3754 15.7502H22.7504V24.5002C22.7504 25.1964 22.4738 25.8641 21.9815 26.3563C21.4892 26.8486 20.8216 27.1252 20.1254 27.1252H16.6254C16.3933 27.1252 16.1707 27.033 16.0066 26.8689C15.8426 26.7048 15.7504 26.4823 15.7504 26.2502V21.0002C15.7504 20.7681 15.6582 20.5456 15.4941 20.3815C15.33 20.2174 15.1074 20.1252 14.8754 20.1252H13.1254C12.8933 20.1252 12.6707 20.2174 12.5066 20.3815C12.3426 20.5456 12.2504 20.7681 12.2504 21.0002V26.2502C12.2504 26.4823 12.1582 26.7048 11.9941 26.8689C11.83 27.033 11.6074 27.1252 11.3754 27.1252H7.87537C7.17917 27.1252 6.51149 26.8486 6.01921 26.3563C5.52693 25.8641 5.25037 25.1964 5.25037 24.5002V15.7502H2.62537C2.45262 15.7493 2.28399 15.6974 2.14074 15.6008C1.99748 15.5043 1.88601 15.3675 1.82037 15.2077C1.75336 15.0483 1.73505 14.8727 1.76775 14.703C1.80046 14.5332 1.8827 14.377 2.00412 14.2539L13.3791 2.87894C13.4605 2.79693 13.5572 2.73183 13.6639 2.68741C13.7705 2.64299 13.8849 2.62012 14.0004 2.62012C14.1159 2.62012 14.2302 2.64299 14.3369 2.68741C14.4435 2.73183 14.5403 2.79693 14.6216 2.87894L25.9966 14.2539C26.118 14.377 26.2003 14.5332 26.233 14.703C26.2657 14.8727 26.2474 15.0483 26.1804 15.2077Z" fill="#96A0AF"/>
</svg>
