<svg width="15" height="16" viewBox="0 0 15 16" fill="none" xmlns="http://www.w3.org/2000/svg">
<path opacity="0.5" d="M7.50016 0C5.20261 0 3.3334 1.86921 3.3334 4.16675C3.3334 6.4643 5.20261 8.33351 7.50016 8.33351C9.7977 8.33351 11.6669 6.4643 11.6669 4.16675C11.6669 1.86921 9.7977 0 7.50016 0ZM7.50016 6.66681C6.12179 6.66681 5.0001 5.54512 5.0001 4.16675C5.0001 2.78839 6.12179 1.6667 7.50016 1.6667C8.87852 1.6667 10.0002 2.78839 10.0002 4.16675C10.0002 5.54512 8.87852 6.66681 7.50016 6.66681ZM15.0003 15.8337V15.0003C15.0003 11.7844 12.3828 9.16686 9.16686 9.16686H5.83345C2.61672 9.16686 0 11.7844 0 15.0003V15.8337H1.6667V15.0003C1.6667 12.7028 3.53591 10.8336 5.83345 10.8336H9.16686C11.4644 10.8336 13.3336 12.7028 13.3336 15.0003V15.8337H15.0003Z" fill="#03014C"/>
</svg>
