<svg width="17" height="17" viewBox="0 0 17 17" fill="none" xmlns="http://www.w3.org/2000/svg">
<path fill-rule="evenodd" clip-rule="evenodd" d="M8.01752 7.77142L9.00355 4.12003C9.00492 4.093 9.00912 4.06618 9.01608 4.04001L10.0295 0.287631C10.0565 0.18809 10.1222 0.103262 10.2123 0.0518253C10.3023 0.000388859 10.4093 -0.0134384 10.5096 0.0133881L15.0482 1.2199C15.2571 1.27527 15.3812 1.48812 15.3255 1.69536L14.312 5.44774C14.2852 5.54742 14.2195 5.63244 14.1295 5.68403C14.0394 5.73563 13.9324 5.74956 13.8319 5.72276L10.0577 4.71902L9.21815 7.82813C13.2907 8.31524 16.447 11.7553 16.447 15.9264C16.447 16.141 16.2717 16.3149 16.0554 16.3149H0.391595C0.175323 16.3149 0 16.141 0 15.9264C0 11.4904 3.57135 7.88018 8.01752 7.77142ZM10.9647 13.9842C11.8297 13.9842 12.531 13.2886 12.531 12.4304C12.531 11.5723 11.8297 10.8767 10.9647 10.8767C10.0996 10.8767 9.39828 11.5723 9.39828 12.4304C9.39828 13.2886 10.0996 13.9842 10.9647 13.9842ZM4.69914 14.3727C4.69914 15.0163 4.17317 15.538 3.52436 15.538C2.87554 15.538 2.34957 15.0163 2.34957 14.3727C2.34957 13.7291 2.87554 13.2073 3.52436 13.2073C4.17317 13.2073 4.69914 13.7291 4.69914 14.3727ZM6.43956 11.0493C6.87211 11.0493 7.22275 10.7015 7.22275 10.2724C7.22275 9.84334 6.87211 9.49551 6.43956 9.49551C6.00702 9.49551 5.65637 9.84334 5.65637 10.2724C5.65637 10.7015 6.00702 11.0493 6.43956 11.0493ZM16.7101 4.0742L15.5753 3.77276V3.77199L15.0686 5.64818C14.9882 5.94706 14.7913 6.20196 14.5212 6.35672C14.2512 6.51148 13.9303 6.5534 13.6291 6.47324L10.9819 5.7686L10.678 6.89509C10.6222 7.10209 10.7459 7.31482 10.9545 7.37054L15.4938 8.57706C15.7025 8.63243 15.917 8.50972 15.9732 8.30281L16.9866 4.55043C17.0137 4.45091 16.9997 4.34481 16.9479 4.25549C16.896 4.16616 16.8105 4.10095 16.7101 4.0742Z" fill="white"/>
</svg>
