<svg width="290" height="571" viewBox="0 0 290 571" fill="none" xmlns="http://www.w3.org/2000/svg">
<path d="M236.233 7.29911L53.3679 7.29911C28.618 7.29911 8.5912 27.4168 8.5912 52.1873V79.2264C7.77027 80.6071 7.29887 82.2201 7.29887 83.9438V100.146C7.29887 101.87 7.77027 103.483 8.5912 104.863V114.871C7.77027 116.252 7.29887 117.865 7.29887 119.589V150.697C7.29887 152.421 7.77027 154.034 8.5912 155.414V161.534C7.77027 162.915 7.29887 164.528 7.29887 166.251V197.36C7.29887 199.083 7.77027 200.696 8.5912 202.077V518.813C8.5912 543.583 28.618 563.701 53.3679 563.701H236.233C260.983 563.701 281.01 543.583 281.01 518.813V193.652C281.831 192.271 282.302 190.658 282.302 188.934V135.143C282.302 133.419 281.831 131.806 281.01 130.426V52.1873C281.01 27.4168 260.983 7.29911 236.233 7.29911ZM30.9432 52.1873C30.9432 39.7332 41.0035 29.6741 53.3679 29.6741H68.7654C69.7171 40.7325 78.9733 49.4409 90.2917 49.4409H198.663C209.982 49.4409 219.238 40.7325 220.189 29.6741H236.233C248.598 29.6741 258.658 39.7332 258.658 52.1873V518.813C258.658 531.267 248.598 541.326 236.233 541.326H53.3679C41.0035 541.326 30.9432 531.267 30.9432 518.813V52.1873Z" fill="white" stroke="white" stroke-width="14.5741"/>
</svg>
