<svg width="398" height="217" viewBox="0 0 398 217" fill="none" xmlns="http://www.w3.org/2000/svg">
<path d="M13.4999 6.99993C13.4999 3.41006 10.5899 0.499983 7.00004 0.499983C3.41017 0.499983 0.500032 3.41004 0.500032 6.99993C0.500032 10.5897 3.41016 13.4999 7.00004 13.4999C10.5899 13.4999 13.4999 10.5897 13.4999 6.99993Z" fill="#DADADA" stroke="#F0F0F0"/>
<path d="M78.5 6.99993C78.5 3.41006 75.59 0.499983 72.0001 0.499983C68.4102 0.499983 65.5 3.41003 65.5 6.99993C65.5 10.5897 68.4102 13.4999 72.0001 13.4999C75.59 13.4999 78.5 10.5897 78.5 6.99993Z" fill="#DADADA" stroke="#F0F0F0"/>
<path d="M144.5 6.99993C144.5 3.41006 141.59 0.499983 138 0.499983C134.41 0.499983 131.5 3.41005 131.5 6.99993C131.5 10.5897 134.41 13.4999 138 13.4999C141.59 13.4999 144.5 10.5897 144.5 6.99993Z" fill="#DADADA" stroke="#F0F0F0"/>
<path d="M14.5 208.999C14.5 205.41 11.59 202.5 8.00014 202.5C4.41029 202.5 1.50012 205.41 1.50012 208.999C1.50012 212.59 4.41023 215.5 8.00014 215.5C11.5901 215.5 14.5 212.59 14.5 208.999Z" fill="#DADADA" stroke="#F0F0F0"/>
<path d="M77.4999 208.999C77.4999 205.41 74.5899 202.5 71 202.5C67.4102 202.5 64.4999 205.41 64.4999 208.999C64.4999 212.59 67.4101 215.5 71 215.5C74.5899 215.5 77.4999 212.59 77.4999 208.999Z" fill="#DADADA" stroke="#F0F0F0"/>
<path d="M141.5 208.999C141.5 205.41 138.59 202.5 135 202.5C131.41 202.5 128.5 205.41 128.5 208.999C128.5 212.59 131.41 215.5 135 215.5C138.59 215.5 141.5 212.59 141.5 208.999Z" fill="#DADADA" stroke="#F0F0F0"/>
<path d="M205.5 208.999C205.5 205.41 202.59 202.5 199 202.5C195.41 202.5 192.5 205.41 192.5 208.999C192.5 212.59 195.41 215.5 199 215.5C202.59 215.5 205.5 212.59 205.5 208.999Z" fill="#DADADA" stroke="#F0F0F0"/>
<path d="M269.5 208.999C269.5 205.41 266.589 202.5 263 202.5C259.41 202.5 256.5 205.41 256.5 208.999C256.5 212.59 259.41 215.5 263 215.5C266.59 215.5 269.5 212.59 269.5 208.999Z" fill="#DADADA" stroke="#F0F0F0"/>
<path d="M332.5 209.999C332.5 206.41 329.59 203.5 326 203.5C322.41 203.5 319.5 206.41 319.5 209.999C319.5 213.59 322.41 216.5 326 216.5C329.59 216.5 332.5 213.59 332.5 209.999Z" fill="#DADADA" stroke="#F0F0F0"/>
<path d="M396.499 208.999C396.499 205.41 393.589 202.5 389.999 202.5C386.409 202.5 383.499 205.41 383.499 208.999C383.499 212.59 386.409 215.5 389.999 215.5C393.589 215.5 396.499 212.59 396.499 208.999Z" fill="#DADADA" stroke="#F0F0F0"/>
<path d="M397.499 167C397.499 163.41 394.589 160.5 390.999 160.5C387.41 160.5 384.499 163.41 384.499 167C384.499 170.59 387.41 173.5 390.999 173.5C394.589 173.5 397.499 170.59 397.499 167Z" fill="#DADADA" stroke="#F0F0F0"/>
</svg>
