<svg width="15" height="19" viewBox="0 0 15 19" fill="none" xmlns="http://www.w3.org/2000/svg">
<path opacity="0.5" d="M7.23804 14.4761C8.23327 14.4761 9.04755 13.6618 9.04755 12.6666C9.04755 11.6713 8.23327 10.8571 7.23804 10.8571C6.24281 10.8571 5.42853 11.6713 5.42853 12.6666C5.42853 13.6618 6.24281 14.4761 7.23804 14.4761ZM12.6666 6.33328H11.7618V4.52377C11.7618 2.02665 9.73516 0 7.23804 0C4.74091 0 2.71426 2.02665 2.71426 4.52377H4.4333C4.4333 2.97664 5.69091 1.71903 7.23804 1.71903C8.78517 1.71903 10.0428 2.97664 10.0428 4.52377V6.33328H1.80951C0.814279 6.33328 0 7.14756 0 8.14279V17.1903C0 18.1856 0.814279 18.9998 1.80951 18.9998H12.6666C13.6618 18.9998 14.4761 18.1856 14.4761 17.1903V8.14279C14.4761 7.14756 13.6618 6.33328 12.6666 6.33328ZM12.6666 17.1903H1.80951V8.14279H12.6666V17.1903Z" fill="#03014C"/>
</svg>
