<svg width="28" height="28" viewBox="0 0 28 28" fill="none" xmlns="http://www.w3.org/2000/svg">
<path d="M23.7778 2H4.22226C3.54759 2 3 2.53758 3 3.19998V24.8C3 25.4636 3.54754 26 4.2222 26H10.3333V22.4C10.3333 20.4116 11.9748 18.8 14 18.8C16.0252 18.8 17.6667 20.4116 17.6667 22.4V26H23.7778C24.4525 26 25 25.4636 25 24.8V3.19998C25 2.53758 24.4525 2 23.7778 2ZM12.7778 16.4H7.88893V12.8H12.7778V16.4ZM12.7778 9.20001H7.88893V5.60001H12.7778V9.20001ZM20.1111 16.4H15.2223V12.8H20.1111V16.4ZM20.1111 9.20001H15.2223V5.60001H20.1111V9.20001Z" fill="#216FED"/>
</svg>
