<svg width="22" height="22" viewBox="0 0 22 22" fill="none" xmlns="http://www.w3.org/2000/svg">
<path d="M13 8H12C12 8.55228 12.4477 9 13 9V8ZM13 4H14H13ZM10 1V0C9.60481 0 9.24669 0.232734 9.08619 0.593862L10 1ZM6 10L5.08619 9.59386C5.02936 9.72172 5 9.86008 5 10H6ZM6 21H5C5 21.5523 5.44772 22 6 22V21ZM17.28 21L17.2913 20H17.28V21ZM19.28 19.3L18.2916 19.1484L18.2913 19.1501L19.28 19.3ZM20.66 10.3L21.6484 10.4516L21.6487 10.4501L20.66 10.3ZM18.66 8V9.00006L18.6713 8.99994L18.66 8ZM6 22C6.55228 22 7 21.5523 7 21C7 20.4477 6.55228 20 6 20V22ZM6 11C6.55228 11 7 10.5523 7 10C7 9.44771 6.55228 9 6 9V11ZM14 8V4H12V8H14ZM14 4C14 1.79086 12.2091 0 10 0V2C11.1046 2 12 2.89543 12 4H14ZM9.08619 0.593862L5.08619 9.59386L6.91381 10.4061L10.9138 1.40614L9.08619 0.593862ZM5 10V21H7V10H5ZM6 22H17.28V20H6V22ZM17.2687 21.9999C18.7646 22.0168 20.0444 20.929 20.2687 19.4499L18.2913 19.1501C18.2165 19.6431 17.7899 20.0057 17.2913 20.0001L17.2687 21.9999ZM20.2684 19.4516L21.6484 10.4516L19.6716 10.1484L18.2916 19.1484L20.2684 19.4516ZM21.6487 10.4501C21.7808 9.57985 21.524 8.69553 20.9465 8.03134L19.4373 9.34369C19.6298 9.56509 19.7154 9.85986 19.6713 10.1499L21.6487 10.4501ZM20.9465 8.03134C20.3689 7.36714 19.5288 6.9901 18.6487 7.00006L18.6713 8.99994C18.9647 8.99661 19.2447 9.1223 19.4373 9.34369L20.9465 8.03134ZM18.66 7H13V9H18.66V7ZM6 20H3V22H6V20ZM3 20C2.44772 20 2 19.5523 2 19H0C0 20.6569 1.34315 22 3 22V20ZM2 19V12H0V19H2ZM2 12C2 11.4477 2.44772 11 3 11V9C1.34315 9 0 10.3431 0 12H2ZM3 11H6V9H3V11Z" fill="#005B33"/>
</svg>
