<svg width="18" height="17" viewBox="0 0 18 17" fill="none" xmlns="http://www.w3.org/2000/svg">
<path d="M16.5721 1.60139C15.6403 0.568739 14.3617 0 12.9717 0C11.9327 0 10.9811 0.335659 10.1434 0.997574C9.7207 1.33169 9.33769 1.74046 9 2.21756C8.66245 1.7406 8.2793 1.33169 7.85646 0.997574C7.01889 0.335659 6.06734 0 5.02831 0C3.63826 0 2.35959 0.568739 1.42781 1.60139C0.507156 2.62198 0 4.01626 0 5.52756C0 7.08307 0.567307 8.50695 1.78528 10.0087C2.87485 11.3521 4.44081 12.7157 6.25424 14.2948C6.87346 14.8341 7.57535 15.4453 8.30415 16.0965C8.49669 16.2688 8.74374 16.3636 9 16.3636C9.25612 16.3636 9.50331 16.2688 9.69557 16.0967C10.4244 15.4455 11.1267 14.8339 11.7462 14.2944C13.5593 12.7156 15.1253 11.3521 16.2149 10.0086C17.4328 8.50695 18 7.08307 18 5.52742C18 4.01626 17.4928 2.62198 16.5721 1.60139Z" fill="#FF283D"/>
</svg>
