<svg width="40" height="40" viewBox="0 0 40 40" fill="none" xmlns="http://www.w3.org/2000/svg">
<path d="M34.0618 11.8409C33.774 11.5183 33.4541 11.2258 33.1071 10.9679C33.2496 9.8514 33.1511 8.71734 32.8183 7.64212C32.4854 6.56691 31.926 5.57553 31.1777 4.73478C29.371 2.69865 26.2916 1.66675 22.024 1.66675H11.6676C10.9194 1.66874 10.1963 1.93666 9.62738 2.42265C9.0585 2.90864 8.68093 3.58104 8.5621 4.31975L4.24569 31.6635C4.18462 32.03 4.20421 32.4054 4.30311 32.7636C4.402 33.1217 4.57782 33.454 4.81829 33.7373C5.05877 34.0205 5.35813 34.2479 5.69549 34.4036C6.03286 34.5593 6.40013 34.6395 6.77169 34.6387H11.2118L11.0752 35.5063C11.0199 35.8552 11.0409 36.212 11.1368 36.5521C11.2327 36.8921 11.4011 37.2074 11.6305 37.4761C11.8599 37.7448 12.1448 37.9605 12.4657 38.1086C12.7865 38.2566 13.1355 38.3333 13.4889 38.3334H18.8795C19.5778 38.339 20.2552 38.0954 20.7901 37.6465C21.325 37.1975 21.6823 36.5726 21.7978 35.8839L22.8655 29.1651L22.8834 29.074H23.3815C30.1019 29.074 34.2995 25.752 35.5234 19.4695C35.8968 18.1726 35.959 16.8059 35.7051 15.4804C35.4511 14.1549 34.8881 12.908 34.0618 11.8409V11.8409ZM13.0706 22.8402L11.8798 30.399L11.7359 31.3054H7.67669L11.8287 5.00008H22.024C25.2499 5.00008 27.553 5.67392 28.6777 6.94018C29.2085 7.55742 29.5788 8.2962 29.7555 9.09091C29.9323 9.88562 29.91 10.7117 29.6908 11.4957L29.6598 11.6828C29.6396 11.8103 29.6212 11.9348 29.5875 12.0932C29.2661 14.4747 28.0759 16.6534 26.2456 18.2107C24.1909 19.6396 21.7145 20.3343 19.2164 20.1824H16.1777C15.4273 20.1799 14.7009 20.4468 14.1307 20.9346C13.5605 21.4223 13.1843 22.0986 13.0706 22.8402V22.8402ZM32.2519 18.8315C31.3339 23.545 28.5149 25.7406 23.3814 25.7406H22.5758C21.8767 25.7352 21.1987 25.9794 20.6637 26.4294C20.1287 26.8793 19.7719 27.5055 19.6574 28.1951L18.5751 34.9854L14.5289 35.0001L15.3258 29.9436L16.3444 23.5222H19.2099C19.4712 23.5222 19.7022 23.4829 19.9568 23.474C20.5548 23.4533 21.1511 23.4304 21.7112 23.3609C22.0533 23.3183 22.3672 23.2405 22.6951 23.1797C23.1493 23.0958 23.6038 23.0128 24.0302 22.8943C24.3475 22.8059 24.6436 22.6922 24.9454 22.5849C25.3441 22.4434 25.7367 22.2949 26.108 22.1204C26.388 21.9886 26.6548 21.842 26.9189 21.6917C27.2706 21.4925 27.6113 21.2745 27.9395 21.0388C28.1767 20.8678 28.4094 20.6923 28.6312 20.5038C28.9457 20.2327 29.2444 19.944 29.5261 19.6389C29.7144 19.438 29.9073 19.243 30.0816 19.0268C30.3709 18.6583 30.6381 18.2728 30.8816 17.8725C31.0091 17.6688 31.1504 17.4804 31.2677 17.2661C31.6053 16.6483 31.8954 16.0058 32.1356 15.344C32.15 15.3042 32.1707 15.2706 32.1848 15.2306C32.1915 15.2119 32.2013 15.1964 32.2079 15.1775C32.5382 16.3712 32.5533 17.6302 32.2519 18.8315V18.8315Z" fill="#393D46"/>
</svg>
