<svg width="18" height="287" viewBox="0 0 18 287" fill="none" xmlns="http://www.w3.org/2000/svg">
<path fill-rule="evenodd" clip-rule="evenodd" d="M12.0051 2.00041V0H10.0051V2.00041H6.00489V0H4.00485V2.00041H0.00476985V4.00061H16.0053V2.00041H12.0051ZM0.00292979 15.9991H16.0068L16.0053 6.00026H0.00476985L0.00292979 15.9991ZM10.0051 8.00056H13.0052V10.0009H10.0051V8.00056ZM10.0051 12.0011H13.0052V14.0006H10.0051V12.0011ZM7.00492 8.00056H9.00507V10.0009H7.00492V8.00056ZM7.00492 12.0011H9.00507V14.0006H7.00492V12.0011ZM3.00484 8.00056H6.00489V10.0009H3.00484V8.00056ZM3.00484 12.0011H6.00489V14.0006H3.00484V12.0011Z" fill="#AAAAAA"/>
<path fill-rule="evenodd" clip-rule="evenodd" d="M8.38882 58.9158H7.31131V59.9591H8.38882V58.9158ZM12.6992 58.9158H11.6215V59.9591H12.6992V58.9158ZM8.5051 53.0026C3.81548 53.0026 0 56.8062 0 61.4811C0 65.9368 3.46584 69.6002 7.85082 69.9342V72.3505C7.85082 72.5603 7.95175 72.7564 8.1225 72.8789C8.2937 73.0023 8.51263 73.0354 8.71202 72.9685C14.4443 71.0641 17.0103 65.8265 17.0103 61.4811C17.0103 56.8062 13.1948 53.0026 8.5051 53.0026ZM7.85082 62.8486C7.85082 63.9968 7.21061 65.0291 6.18071 65.5428C5.85465 65.7043 5.46291 65.57 5.3028 65.2505C5.14155 64.9283 5.2727 64.5367 5.59555 64.3761C6.13264 64.1084 6.47907 63.591 6.53159 63.0025H4.57963C4.21844 63.0025 3.92534 62.7105 3.92534 62.3505V59.7417C3.92534 59.3813 4.21844 59.0899 4.57963 59.0899H7.19664C7.55771 59.0899 7.85082 59.3813 7.85082 59.7417C7.85082 60.89 7.85082 61.6453 7.85082 62.8486ZM13.0848 62.8486C13.0848 63.9968 12.4446 65.0291 11.4148 65.5428C11.0886 65.7043 10.6969 65.57 10.5368 65.2505C10.3754 64.9283 10.5065 64.5367 10.8294 64.3761C11.3667 64.1084 11.713 63.591 11.7656 63.0025H9.81355C9.45236 63.0025 9.15927 62.7105 9.15927 62.3505V59.7417C9.15927 59.3813 9.45236 59.0899 9.81355 59.0899H12.4306C12.7917 59.0899 13.0848 59.3813 13.0848 59.7417C13.0848 60.89 13.0848 61.6453 13.0848 62.8486Z" fill="#AAAAAA"/>
<path fill-rule="evenodd" clip-rule="evenodd" d="M16.0068 111.096C16.0068 109.94 15.0695 109.003 13.9132 109.003H2.09661C0.940364 109.003 0.00292979 109.94 0.00292979 111.096V122.912C0.00292979 124.069 0.940364 125.006 2.09661 125.006H13.9132C15.0695 125.006 16.0068 124.069 16.0068 122.912V111.096ZM7.9619 112.715C9.09 112.715 10.0045 113.629 10.0045 114.757C10.0045 115.885 9.09 116.8 7.9619 116.8C6.8337 116.8 5.91928 115.885 5.91928 114.757C5.91928 113.629 6.8337 112.715 7.9619 112.715ZM11.2702 122.167H4.79692C4.17984 122.167 3.6796 121.66 3.6796 121.043C3.6796 119.28 4.76672 117.764 6.30714 117.142C6.77671 117.468 7.34675 117.66 7.96202 117.66C8.59982 117.66 9.18898 117.454 9.66794 117.105C11.257 117.705 12.3877 119.244 12.3877 121.043C12.3877 121.66 11.8874 122.167 11.2702 122.167Z" fill="#AAAAAA"/>
<path fill-rule="evenodd" clip-rule="evenodd" d="M7.3898 164.188H14.7747C15.2186 164.188 16.0055 165.301 16.0055 165.709L16.0056 167.006H0.00499696L0.00488299 163.746C0.00488299 163.338 0.365839 163.006 0.809999 163.006H6.67177C7.11581 163.006 7.47688 163.338 7.47688 163.746L7.3898 164.188ZM0.809999 176.006C0.365839 176.006 0.00488299 175.674 0.00488299 175.266L0.00499696 168.006H16.0056L16.0055 175.266C16.0055 175.674 15.6444 176.006 15.2003 176.006H0.809999Z" fill="#AAAAAA"/>
<path fill-rule="evenodd" clip-rule="evenodd" d="M14.7747 216.383H11.0821C10.7177 215.35 10.3189 214.008 8.62053 214.008C6.07562 214.008 5.29258 215.35 4.92807 216.383H1.23563C0.253469 216.383 0.00488299 217.774 0.00488299 218.758V231.228C0.00488299 232.212 0.800384 233.009 1.7828 233.009H14.2277C15.2098 233.009 16.0055 232.212 16.0055 231.228V218.758C16.0053 217.774 15.7569 216.383 14.7747 216.383ZM8.00516 216.977C8.49395 216.977 8.89395 217.373 8.89395 217.867C8.89395 218.362 8.49395 218.758 8.00516 218.758C7.51625 218.758 7.11627 218.362 7.11627 217.867C7.11627 217.373 7.51625 216.977 8.00516 216.977ZM10.0053 230.008H3.00505V228.008H10.0053V230.008ZM13.0054 226.008H3.00505V224.009H13.0054V226.008ZM13.0054 222.008H3.00505V220.008H13.0054V222.008Z" fill="#AAAAAA"/>
<path fill-rule="evenodd" clip-rule="evenodd" d="M12.0054 273.01V271.011H0.00488299V284.519C0.00488299 285.887 1.11798 287 2.48616 287H13.514C14.8821 287 15.9953 285.887 15.9953 284.519L16.0056 273.01H12.0054ZM10.0053 284.01H2.00505V282.01H10.0053V283.01V284.01ZM10.0053 280.01H2.00505V278.011H10.0053V279.01V280.01ZM10.0053 275.01V276.01H2.00505V275.01V273.01H10.0053V275.01ZM14.0054 285.011C14.0054 285.467 13.9699 285.346 13.514 285.346C13.0578 285.346 12.0054 285.467 12.0054 285.011V275.01H14.0054V285.011Z" fill="#AAAAAA"/>
</svg>
