<svg width="48" height="48" viewBox="0 0 48 48" fill="none" xmlns="http://www.w3.org/2000/svg">
<path d="M10.5 24.1999C10.5 23.7892 10.6581 23.3954 10.9394 23.105C11.2207 22.8146 11.6022 22.6515 12 22.6515L32.385 22.6515L30.435 20.6541C30.1526 20.3625 29.9939 19.9671 29.9939 19.5547C29.9939 19.1424 30.1526 18.7469 30.435 18.4554C30.7175 18.1638 31.1006 18 31.5 18C31.8995 18 32.2826 18.1638 32.565 18.4554L37.065 23.1005C37.2732 23.3183 37.4142 23.5948 37.4702 23.8951C37.5263 24.1955 37.4949 24.5063 37.38 24.7883C37.2675 25.071 37.0764 25.3131 36.8308 25.4839C36.5852 25.6548 36.2962 25.7467 36 25.7483L12 25.7483C11.6022 25.7483 11.2207 25.5851 10.9394 25.2948C10.6581 25.0044 10.5 24.6105 10.5 24.1999Z" fill="white"/>
<path d="M30 28.8449C29.9988 28.6411 30.0367 28.4391 30.1113 28.2505C30.186 28.0618 30.2959 27.8902 30.435 27.7455L34.935 23.1004C35.2174 22.8088 35.6005 22.645 36 22.645C36.1978 22.645 36.3936 22.6852 36.5763 22.7634C36.7591 22.8415 36.9251 22.956 37.065 23.1004C37.2048 23.2448 37.3158 23.4161 37.3915 23.6048C37.4671 23.7934 37.5061 23.9956 37.5061 24.1997C37.5061 24.6121 37.3474 25.0075 37.065 25.2991L32.565 29.9443C32.4255 30.0894 32.2596 30.2046 32.0768 30.2832C31.894 30.3618 31.698 30.4023 31.5 30.4023C31.3019 30.4023 31.1059 30.3618 30.9231 30.2832C30.7403 30.2046 30.5744 30.0894 30.435 29.9443C30.2959 29.7996 30.186 29.628 30.1113 29.4393C30.0367 29.2507 29.9988 29.0487 30 28.8449Z" fill="white"/>
</svg>
