<svg width="45" height="40" viewBox="0 0 45 40" fill="none" xmlns="http://www.w3.org/2000/svg">
<g clip-path="url(#clip0_2_1222)">
<path d="M15.4688 16.8752H29.5312C30.3082 16.8752 30.9375 16.3159 30.9375 15.6252V14.3752C30.9375 13.6846 30.3082 13.1252 29.5312 13.1252H15.4688C14.6918 13.1252 14.0625 13.6846 14.0625 14.3752V15.6252C14.0625 16.3159 14.6918 16.8752 15.4688 16.8752ZM14.0625 23.1252C14.0625 23.8159 14.6918 24.3752 15.4688 24.3752H29.5312C30.3082 24.3752 30.9375 23.8159 30.9375 23.1252V21.8752C30.9375 21.1846 30.3082 20.6252 29.5312 20.6252H15.4688C14.6918 20.6252 14.0625 21.1846 14.0625 21.8752V23.1252ZM22.5 32.5885C21.0568 32.5885 19.6137 32.1932 18.3814 31.4018L0 19.5987V36.2502C0 38.3213 1.88877 40.0002 4.21875 40.0002H40.7812C43.1112 40.0002 45 38.3213 45 36.2502V19.5987L26.6186 31.4018C25.3863 32.1924 23.9432 32.5885 22.5 32.5885ZM43.3837 12.7307C42.6059 12.1885 41.8685 11.6784 40.7812 10.9487V7.50024C40.7812 5.42915 38.8925 3.75024 36.5625 3.75024H29.7466C29.4794 3.57837 29.2307 3.41743 28.9521 3.23774C27.4746 2.27915 24.5391 -0.0271027 22.5 0.000241045C20.4609 -0.0271027 17.5263 2.27915 16.0479 3.23774C15.7693 3.41743 15.5206 3.57837 15.2534 3.75024H8.4375C6.10752 3.75024 4.21875 5.42915 4.21875 7.50024V10.9487C3.13154 11.6776 2.39414 12.1885 1.61631 12.7307C1.11283 13.0814 0.705687 13.5293 0.425666 14.0406C0.145646 14.5518 8.66431e-05 15.1129 0 15.6815L0 16.5135L8.4375 21.9315V7.50024H36.5625V21.9315L45 16.5135V15.6815C45 14.5299 44.4041 13.4416 43.3837 12.7307V12.7307Z" fill="#FEA400"/>
</g>
<defs>
<clipPath id="clip0_2_1222">
<rect width="45" height="40" fill="white"/>
</clipPath>
</defs>
</svg>
