<svg width="18" height="19" viewBox="0 0 18 19" fill="none" xmlns="http://www.w3.org/2000/svg">
<path d="M9.80103 0C10.3669 0 10.8256 0.458715 10.8256 1.02457V6.53675C10.8256 7.10261 11.2843 7.56132 11.8502 7.56132H16.9751C17.5409 7.56132 17.9996 8.02004 17.9996 8.58589V9.91168C17.9996 10.4775 17.5409 10.9363 16.9751 10.9363H11.8502C11.2843 10.9363 10.8256 11.395 10.8256 11.9608V17.5099C10.8256 18.0757 10.3669 18.5345 9.80103 18.5345H8.16172C7.59586 18.5345 7.13715 18.0757 7.13715 17.5099V11.9608C7.13715 11.395 6.67843 10.9363 6.11258 10.9363H1.02457C0.458715 10.9363 0 10.4775 0 9.91168V8.58589C0 8.02004 0.458715 7.56132 1.02457 7.56132H6.11258C6.67843 7.56132 7.13715 7.10261 7.13715 6.53675V1.02457C7.13715 0.458715 7.59586 0 8.16172 0H9.80103Z" fill="#8D28AD"/>
</svg>
