<svg width="105" height="16" viewBox="0 0 105 16" fill="none" xmlns="http://www.w3.org/2000/svg">
<g clip-path="url(#clip0_0_1885)">
<path d="M15.75 9C15.75 4.71875 12.2812 1.25 8 1.25C3.71875 1.25 0.25 4.71875 0.25 9C0.25 12.875 3.0625 16.0938 6.78125 16.6562V11.25H4.8125V9H6.78125V7.3125C6.78125 5.375 7.9375 4.28125 9.6875 4.28125C10.5625 4.28125 11.4375 4.4375 11.4375 4.4375V6.34375H10.4688C9.5 6.34375 9.1875 6.9375 9.1875 7.5625V9H11.3438L11 11.25H9.1875V16.6562C12.9062 16.0938 15.75 12.875 15.75 9Z" fill="white"/>
<path d="M59.3438 5.75C59.9688 5.28125 60.5312 4.71875 60.9688 4.0625C60.4062 4.3125 59.75 4.5 59.0938 4.5625C59.7812 4.15625 60.2812 3.53125 60.5312 2.75C59.9062 3.125 59.1875 3.40625 58.4688 3.5625C57.8438 2.90625 57 2.53125 56.0625 2.53125C54.25 2.53125 52.7812 4 52.7812 5.8125C52.7812 6.0625 52.8125 6.3125 52.875 6.5625C50.1562 6.40625 47.7188 5.09375 46.0938 3.125C45.8125 3.59375 45.6562 4.15625 45.6562 4.78125C45.6562 5.90625 46.2188 6.90625 47.125 7.5C46.5938 7.46875 46.0625 7.34375 45.625 7.09375V7.125C45.625 8.71875 46.75 10.0312 48.25 10.3438C48 10.4062 47.6875 10.4688 47.4062 10.4688C47.1875 10.4688 47 10.4375 46.7812 10.4062C47.1875 11.7188 48.4062 12.6562 49.8438 12.6875C48.7188 13.5625 47.3125 14.0938 45.7812 14.0938C45.5 14.0938 45.25 14.0625 45 14.0312C46.4375 14.9688 48.1562 15.5 50.0312 15.5C56.0625 15.5 59.3438 10.5312 59.3438 6.1875C59.3438 6.03125 59.3438 5.90625 59.3438 5.75Z" fill="white"/>
<path d="M98 5.40625C96 5.40625 94.4062 7.03125 94.4062 9C94.4062 11 96 12.5938 98 12.5938C99.9688 12.5938 101.594 11 101.594 9C101.594 7.03125 99.9688 5.40625 98 5.40625ZM98 11.3438C96.7188 11.3438 95.6562 10.3125 95.6562 9C95.6562 7.71875 96.6875 6.6875 98 6.6875C99.2812 6.6875 100.312 7.71875 100.312 9C100.312 10.3125 99.2812 11.3438 98 11.3438ZM102.562 5.28125C102.562 4.8125 102.188 4.4375 101.719 4.4375C101.25 4.4375 100.875 4.8125 100.875 5.28125C100.875 5.75 101.25 6.125 101.719 6.125C102.188 6.125 102.562 5.75 102.562 5.28125ZM104.938 6.125C104.875 5 104.625 4 103.812 3.1875C103 2.375 102 2.125 100.875 2.0625C99.7188 2 96.25 2 95.0938 2.0625C93.9688 2.125 93 2.375 92.1562 3.1875C91.3438 4 91.0938 5 91.0312 6.125C90.9688 7.28125 90.9688 10.75 91.0312 11.9062C91.0938 13.0312 91.3438 14 92.1562 14.8438C93 15.6562 93.9688 15.9062 95.0938 15.9688C96.25 16.0312 99.7188 16.0312 100.875 15.9688C102 15.9062 103 15.6562 103.812 14.8438C104.625 14 104.875 13.0312 104.938 11.9062C105 10.75 105 7.28125 104.938 6.125ZM103.438 13.125C103.219 13.75 102.719 14.2188 102.125 14.4688C101.188 14.8438 99 14.75 98 14.75C96.9688 14.75 94.7812 14.8438 93.875 14.4688C93.25 14.2188 92.7812 13.75 92.5312 13.125C92.1562 12.2188 92.25 10.0312 92.25 9C92.25 8 92.1562 5.8125 92.5312 4.875C92.7812 4.28125 93.25 3.8125 93.875 3.5625C94.7812 3.1875 96.9688 3.28125 98 3.28125C99 3.28125 101.188 3.1875 102.125 3.5625C102.719 3.78125 103.188 4.28125 103.438 4.875C103.812 5.8125 103.719 8 103.719 9C103.719 10.0312 103.812 12.2188 103.438 13.125Z" fill="white"/>
</g>
<defs>
<clipPath id="clip0_0_1885">
<rect width="105" height="16" fill="white"/>
</clipPath>
</defs>
</svg>
