<svg width="116" height="89" viewBox="0 0 116 89" fill="none" xmlns="http://www.w3.org/2000/svg">
<circle cx="3.78072" cy="85.1091" r="3.78072" transform="rotate(-90 3.78072 85.1091)" fill="#D9D9D9"/>
<circle cx="3.78072" cy="57.999" r="3.78072" transform="rotate(-90 3.78072 57.999)" fill="#D9D9D9"/>
<circle cx="3.78072" cy="30.8898" r="3.78072" transform="rotate(-90 3.78072 30.8898)" fill="#D9D9D9"/>
<circle cx="3.78072" cy="3.78059" r="3.78072" transform="rotate(-90 3.78072 3.78059)" fill="#D9D9D9"/>
<circle cx="30.8909" cy="85.1091" r="3.78072" transform="rotate(-90 30.8909 85.1091)" fill="#D9D9D9"/>
<circle cx="30.8909" cy="57.999" r="3.78072" transform="rotate(-90 30.8909 57.999)" fill="#D9D9D9"/>
<circle cx="30.8909" cy="30.8898" r="3.78072" transform="rotate(-90 30.8909 30.8898)" fill="#D9D9D9"/>
<circle cx="30.8909" cy="3.78059" r="3.78072" transform="rotate(-90 30.8909 3.78059)" fill="#D9D9D9"/>
<circle cx="57.9991" cy="85.1091" r="3.78072" transform="rotate(-90 57.9991 85.1091)" fill="#D9D9D9"/>
<circle cx="57.9991" cy="57.999" r="3.78072" transform="rotate(-90 57.9991 57.999)" fill="#D9D9D9"/>
<circle cx="57.9991" cy="30.8898" r="3.78072" transform="rotate(-90 57.9991 30.8898)" fill="#D9D9D9"/>
<circle cx="57.9991" cy="3.78059" r="3.78072" transform="rotate(-90 57.9991 3.78059)" fill="#D9D9D9"/>
<circle cx="85.1093" cy="85.1091" r="3.78072" transform="rotate(-90 85.1093 85.1091)" fill="#D9D9D9"/>
<circle cx="85.1093" cy="57.999" r="3.78072" transform="rotate(-90 85.1093 57.999)" fill="#D9D9D9"/>
<circle cx="85.1093" cy="30.8898" r="3.78072" transform="rotate(-90 85.1093 30.8898)" fill="#D9D9D9"/>
<circle cx="85.1093" cy="3.78059" r="3.78072" transform="rotate(-90 85.1093 3.78059)" fill="#D9D9D9"/>
<circle cx="112.219" cy="85.1091" r="3.78072" transform="rotate(-90 112.219 85.1091)" fill="#D9D9D9"/>
<circle cx="112.219" cy="57.999" r="3.78072" transform="rotate(-90 112.219 57.999)" fill="#D9D9D9"/>
<circle cx="112.219" cy="30.8898" r="3.78072" transform="rotate(-90 112.219 30.8898)" fill="#D9D9D9"/>
<circle cx="112.219" cy="3.78059" r="3.78072" transform="rotate(-90 112.219 3.78059)" fill="#D9D9D9"/>
</svg>
