<svg width="23" height="16" viewBox="0 0 23 16" fill="none" xmlns="http://www.w3.org/2000/svg">
<path d="M21.9018 4.49675C20.4365 3.03139 18.7276 1.89671 16.8227 1.12424C14.9831 0.378271 13.0394 0 11.0457 0C9.052 0 7.10835 0.378271 5.26873 1.12424C3.36382 1.89671 1.65494 3.03139 0.189572 4.49675C-0.0631836 4.74947 -0.0631836 5.15923 0.189529 5.41203L2.08006 7.30265C2.20144 7.42403 2.36609 7.49224 2.53768 7.49224H2.53773C2.70937 7.49224 2.87397 7.42407 2.99534 7.30265C5.14567 5.15242 8.00469 3.9682 11.0457 3.9682C14.0866 3.9682 16.9456 5.15242 19.0959 7.30265C19.2172 7.42403 19.3819 7.49224 19.5535 7.49224C19.7251 7.49224 19.8898 7.42407 20.0111 7.30265L21.9016 5.41203C22.1546 5.15928 22.1546 4.74951 21.9018 4.49675Z" fill="white" fill-opacity="0.6"/>
<path d="M11.0457 5.34766C8.37317 5.34766 5.86058 6.38836 3.97082 8.27812C3.71807 8.53083 3.71807 8.9406 3.97078 9.1934L5.86131 11.084C6.11407 11.3368 6.52384 11.3367 6.77659 11.0841C7.91693 9.94385 9.43299 9.31593 11.0456 9.31593C12.6582 9.31593 14.1743 9.9439 15.3146 11.0841C15.436 11.2055 15.6006 11.2737 15.7723 11.2737C15.9439 11.2737 16.1085 11.2055 16.2299 11.0841L18.1203 9.19336C18.373 8.94064 18.373 8.53087 18.1203 8.27812C16.2307 6.38836 13.7181 5.34766 11.0457 5.34766Z" fill="white" fill-opacity="0.6"/>
<path d="M11.0457 10.6953C9.80158 10.6953 8.6319 11.1798 7.75209 12.0595C7.63072 12.1808 7.5625 12.3455 7.5625 12.5171C7.5625 12.6888 7.63067 12.8534 7.75209 12.9747L10.588 15.8107C10.7144 15.9371 10.88 16.0003 11.0456 16.0003C11.2112 16.0003 11.3769 15.937 11.5033 15.8107L14.3393 12.9747C14.4607 12.8534 14.5289 12.6888 14.5289 12.5171C14.5289 12.3455 14.4607 12.1808 14.3393 12.0595C13.4595 11.1798 12.2898 10.6953 11.0457 10.6953V10.6953Z" fill="white" fill-opacity="0.6"/>
</svg>
