<svg width="17" height="17" viewBox="0 0 17 17" fill="none" xmlns="http://www.w3.org/2000/svg">
<path d="M16.6699 14.6233L13.3689 11.3223C13.2039 11.1903 13.0058 11.0913 12.8078 11.0913H12.2796C13.1709 9.93592 13.732 8.4835 13.732 6.86602C13.732 3.10291 10.6291 0 6.86602 0C3.0699 0 0 3.10291 0 6.86602C0 10.6621 3.0699 13.732 6.86602 13.732C8.45049 13.732 9.90291 13.2039 11.0913 12.2796V12.8408C11.0913 13.0388 11.1573 13.2369 11.3223 13.4019L14.5903 16.6699C14.9204 17 15.4155 17 15.7126 16.6699L16.6369 15.7456C16.967 15.4485 16.967 14.9534 16.6699 14.6233ZM6.86602 11.0913C4.52233 11.0913 2.64078 9.20971 2.64078 6.86602C2.64078 4.55534 4.52233 2.64078 6.86602 2.64078C9.1767 2.64078 11.0913 4.55534 11.0913 6.86602C11.0913 9.20971 9.1767 11.0913 6.86602 11.0913Z" fill="#1F2B3E"/>
</svg>
