<svg width="11" height="15" viewBox="0 0 11 15" fill="none" xmlns="http://www.w3.org/2000/svg">
<path d="M0.68187 6.13631H10.2272C10.4119 6.13631 10.5717 6.06888 10.7066 5.93392C10.8414 5.79899 10.9091 5.63922 10.9091 5.45455C10.9091 5.26989 10.8415 5.11018 10.7066 4.97507L5.93392 0.202389C5.79907 0.0676124 5.63933 0 5.45455 0C5.26977 0 5.11003 0.0676124 4.97507 0.202389L0.202389 4.97507C0.0674258 5.11003 0 5.26989 0 5.45455C0 5.63918 0.0674258 5.79899 0.202389 5.93392C0.337502 6.06888 0.497242 6.13631 0.68187 6.13631Z" fill="#797979"/>
<path d="M10.2272 8.86382H0.68187C0.497093 8.86382 0.337353 8.93128 0.202389 9.0661C0.0674258 9.20106 0 9.3608 0 9.54547C0 9.73013 0.0674258 9.88998 0.202389 10.0249L4.97507 14.7975C5.11018 14.9324 5.26992 15 5.45455 15C5.63918 15 5.79907 14.9324 5.93392 14.7975L10.7066 10.0248C10.8414 9.88998 10.9091 9.73013 10.9091 9.54543C10.9091 9.3608 10.8415 9.20106 10.7066 9.06606C10.5717 8.93113 10.4119 8.86382 10.2272 8.86382Z" fill="#797979"/>
</svg>
