<svg width="60" height="58" viewBox="0 0 60 58" fill="none" xmlns="http://www.w3.org/2000/svg">
<g clip-path="url(#clip0_16_18579)">
<path fill-rule="evenodd" clip-rule="evenodd" d="M13.9235 31.2057V26.4564C13.9235 14.1903 19.7455 14.1903 22.8732 14.1903V0.5C17.1115 0.5 12.2381 2.07145 8.38805 5.17079C2.8224 9.65133 0.000628177 16.8125 0.000628177 26.4564V31.2057H0V56.7617H25.9899V31.2057H13.9235ZM56.8836 0.5V14.1903C53.7559 14.1903 47.934 14.1903 47.9337 26.4564V31.2057H60V56.7617H34.0111V31.2057V26.4564C34.0111 16.8128 36.8332 9.65133 42.3988 5.17079C46.2489 2.07145 51.1223 0.5 56.8836 0.5Z" fill="#F65D4F"/>
<mask id="mask0_16_18579" style="mask-type:alpha" maskUnits="userSpaceOnUse" x="0" y="0" width="60" height="57">
<path fill-rule="evenodd" clip-rule="evenodd" d="M13.9235 31.2057V26.4564C13.9235 14.1903 19.7455 14.1903 22.8732 14.1903V0.5C17.1115 0.5 12.2381 2.07145 8.38805 5.17079C2.8224 9.65133 0.000628177 16.8125 0.000628177 26.4564V31.2057H0V56.7617H25.9899V31.2057H13.9235ZM56.8836 0.5V14.1903C53.7559 14.1903 47.934 14.1903 47.9337 26.4564V31.2057H60V56.7617H34.0111V31.2057V26.4564C34.0111 16.8128 36.8332 9.65133 42.3988 5.17079C46.2489 2.07145 51.1223 0.5 56.8836 0.5Z" fill="white"/>
</mask>
<g mask="url(#mask0_16_18579)">
<rect y="-1" width="61" height="60" fill="#FF4545"/>
</g>
</g>
<defs>
<clipPath id="clip0_16_18579">
<rect width="60" height="57" fill="white"/>
</clipPath>
</defs>
</svg>
