<svg width="96" height="96" viewBox="0 0 96 96" fill="none" xmlns="http://www.w3.org/2000/svg">
<path d="M24 67.172C24.1245 71.6218 25.3844 75.966 27.66 79.792C27.9926 80.4556 28.5031 81.0136 29.1347 81.4035C29.7662 81.7934 30.4938 82 31.236 82H48.436C49.329 82.0006 50.1965 81.7025 50.9003 81.153C51.6042 80.6036 52.104 79.8344 52.32 78.968L54 72.248L55.68 78.968C55.8961 79.8344 56.3959 80.6036 57.0998 81.153C57.8036 81.7025 58.6711 82.0006 59.564 82H64.764C65.5078 82 66.2368 81.7926 66.8692 81.4011C67.5016 81.0097 68.0123 80.4497 68.344 79.784C70.6209 75.9617 71.8797 71.6194 72 67.172C72 55.404 64 51.724 64 47.212C64 41.612 72 40.656 72 32.788C72 24.272 64 25.136 64 19.844V18C64 16.9391 63.5786 15.9217 62.8285 15.1716C62.0783 14.4214 61.0609 14 60 14H56C54.9392 14 53.9218 14.4214 53.1716 15.1716C52.4215 15.9217 52 16.9391 52 18V20.4C52.0008 21.1796 51.8087 21.9473 51.4409 22.6347C51.0731 23.3222 50.541 23.908 49.892 24.34C49.1818 24.8128 48.5444 25.3869 48 26.044C47.4557 25.3869 46.8183 24.8128 46.108 24.34C45.4591 23.908 44.927 23.3222 44.5592 22.6347C44.1914 21.9473 43.9993 21.1796 44 20.4V18C44 16.9391 43.5786 15.9217 42.8285 15.1716C42.0783 14.4214 41.0609 14 40 14H36C34.9392 14 33.9218 14.4214 33.1716 15.1716C32.4215 15.9217 32 16.9391 32 18V19.844C32.0027 20.7218 31.7599 21.5829 31.2991 22.33C30.8382 23.0771 30.1777 23.6805 29.392 24.072C27.7673 24.8774 26.4008 26.1221 25.4477 27.6648C24.4946 29.2076 23.9931 30.9866 24 32.8C24 40.576 32 41.704 32 47.292C32 51.564 24 55.496 24 67.172ZM28 32.772C28 26.476 36 28.148 36 19.828V18H40V20.4C39.9979 21.8387 40.3522 23.2555 41.0314 24.5238C41.7106 25.7921 42.6934 26.8723 43.892 27.668C44.5399 28.0993 45.0713 28.6838 45.439 29.3697C45.8067 30.0556 45.9994 30.8217 46 31.6C46 32.1304 46.2108 32.6391 46.5858 33.0142C46.9609 33.3893 47.4696 33.6 48 33.6C48.5305 33.6 49.0392 33.3893 49.4143 33.0142C49.7893 32.6391 50 32.1304 50 31.6C49.9993 30.8204 50.1914 30.0527 50.5592 29.3653C50.927 28.6778 51.4591 28.092 52.108 27.66C53.3056 26.8651 54.2877 25.7861 54.9668 24.5193C55.6459 23.2525 56.0009 21.8373 56 20.4V18H60V19.844C60 28.244 68 26.436 68 32.788C68 38.436 60 39.34 60 47.28C60 54.3 68 56.164 68 67.172C67.8633 70.9978 66.7507 74.7252 64.768 78H59.568L55.944 63.516C55.7943 63.1228 55.5285 62.7844 55.1821 62.5456C54.8356 62.3069 54.4248 62.179 54.004 62.179C53.5833 62.179 53.1725 62.3069 52.826 62.5456C52.4796 62.7844 52.2138 63.1228 52.064 63.516L48.436 78H31.236C29.2528 74.7252 28.1389 70.998 28 67.172C28 56.276 36 54.336 36 47.212C36 39.276 28 38.5 28 32.8V32.772Z" fill="#393D46"/>
</svg>
