<svg width="56" height="56" viewBox="0 0 56 56" fill="none" xmlns="http://www.w3.org/2000/svg">
<path d="M49.105 33.9673C42.945 43.2073 36.575 46.7948 28 52.4998C19.25 46.7073 13.0725 43.2423 6.895 33.9673C3.54262 28.934 1.75264 23.0222 1.75 16.9748C1.75 4.00725 17.0275 -0.280247 28 6.99975C34.02 2.95725 43.4525 1.88975 49.1925 6.45725C57.3825 13.0373 54.25 26.1448 49.105 33.9673Z" fill="#FFDD8F"/>
<path d="M22.4175 41.9652L15.4175 17.4652L11.655 26.2502H1.75V22.7502H9.345L16.0825 7.03516L23.0825 31.5352L26.845 22.7502H30.5025L37.1175 11.7427L42.4375 25.9352L44.555 22.7502H54.25V26.2502H46.445L41.5625 33.5652L36.3825 19.7577L32.4975 26.2502H29.155L22.4175 41.9652Z" fill="#EDBB46"/>
</svg>
