<svg width="16" height="16" viewBox="0 0 16 16" fill="none" xmlns="http://www.w3.org/2000/svg">
<circle opacity="0.15" cx="8" cy="8" r="8" fill="#36B37E"/>
<path d="M6.93231 10.5495L4.75783 8.38801C4.69707 8.32725 4.66669 8.24913 4.66669 8.15364C4.66669 8.05815 4.69707 7.98003 4.75783 7.91927L5.2396 7.45052C5.30037 7.38107 5.37632 7.34635 5.46747 7.34635C5.55861 7.34635 5.63891 7.38107 5.70835 7.45052L7.16668 8.90885L10.2917 5.78385C10.3611 5.71441 10.4414 5.67969 10.5326 5.67969C10.6237 5.67969 10.6997 5.71441 10.7604 5.78385L11.2422 6.2526C11.303 6.31337 11.3333 6.39149 11.3333 6.48698C11.3333 6.58246 11.303 6.66059 11.2422 6.72135L7.40106 10.5495C7.34029 10.6189 7.26217 10.6536 7.16668 10.6536C7.0712 10.6536 6.99307 10.6189 6.93231 10.5495Z" fill="#36B37E"/>
</svg>
