<svg width="135" height="56" viewBox="0 0 135 56" fill="none" xmlns="http://www.w3.org/2000/svg">
<g clip-path="url(#clip0_12_1817)">
<path d="M0 24.3354V29.2599C1.69031 29.2588 3.36427 29.5894 4.92608 30.233C6.4879 30.8766 7.90692 31.8204 9.10195 33.0106C10.2967 34.2002 11.2442 35.6127 11.8902 37.1672C12.5363 38.7217 12.8683 40.3877 12.8672 42.0699H17.8102C17.8057 37.3684 15.9279 32.8607 12.589 29.5359C9.24998 26.2111 4.7225 24.3408 0 24.3354H0Z" fill="white"/>
<path d="M24.7193 15.4697H16.8857C20.8486 17.9699 24.2064 21.3123 26.7182 25.2571V17.4584C26.7179 16.9309 26.5071 16.425 26.1323 16.0521C25.7574 15.6792 25.2492 15.4697 24.7193 15.4697V15.4697Z" fill="white"/>
<path d="M4.92188 15.4697H0V19.9035C5.90327 19.9096 11.563 22.2469 15.7373 26.4026C19.9116 30.5582 22.2595 36.1927 22.2659 42.0697H26.7188V37.1697C25.712 31.7843 23.0906 26.8286 19.1999 22.9552C15.3091 19.0817 10.3313 16.472 4.92188 15.4697V15.4697Z" fill="white"/>
<path d="M38.8346 18.3979H35.6973V34.1409H38.8346V18.3979Z" fill="white"/>
<path d="M50.37 25.2186C49.8477 24.7459 49.2363 24.3812 48.5714 24.1455C47.143 23.6462 45.5863 23.6462 44.1579 24.1455C43.4926 24.381 42.881 24.7458 42.3586 25.2186C41.8462 25.6889 41.4369 26.2594 41.1562 26.8944C40.8661 27.5872 40.7168 28.3303 40.7168 29.0809C40.7168 29.8314 40.8661 30.5745 41.1562 31.2673C41.4358 31.9042 41.8452 32.4762 42.3586 32.9473C42.8801 33.4205 43.4914 33.7851 44.1565 34.0197C45.5847 34.52 47.1417 34.52 48.57 34.0197C49.2353 33.7851 49.8468 33.4205 50.3686 32.9473C50.8817 32.4761 51.2911 31.904 51.5709 31.2673C51.861 30.5745 52.0103 29.8314 52.0103 29.0809C52.0103 28.3303 51.861 27.5872 51.5709 26.8944C51.2905 26.2596 50.8817 25.6891 50.37 25.2186ZM48.2156 30.9348C47.7076 31.3904 47.048 31.6425 46.3643 31.6425C45.6805 31.6425 45.021 31.3904 44.5129 30.9348C44.0859 30.41 43.8529 29.7552 43.8529 29.0798C43.8529 28.4045 44.0859 27.7496 44.5129 27.2248C45.021 26.7692 45.6805 26.5171 46.3643 26.5171C47.048 26.5171 47.7076 26.7692 48.2156 27.2248C48.6426 27.7496 48.8756 28.4045 48.8756 29.0798C48.8756 29.7552 48.6426 30.41 48.2156 30.9348V30.9348Z" fill="white"/>
<path d="M61.6327 25.3538H61.5934C61.4483 25.1511 61.2798 24.9659 61.0913 24.8022C60.8631 24.6012 60.6103 24.4295 60.339 24.2912C59.6533 23.9409 58.892 23.7624 58.1213 23.7711C57.446 23.7594 56.778 23.9132 56.1765 24.2191C55.616 24.5081 55.1211 24.9086 54.7224 25.3958C54.3159 25.898 54.0041 26.4693 53.802 27.0821C53.5872 27.7135 53.4777 28.3756 53.4779 29.0421C53.47 29.7576 53.5905 30.4688 53.8337 31.1421C54.0541 31.7566 54.3976 32.3201 54.8434 32.7983C55.2875 33.2664 55.8265 33.635 56.4247 33.8798C57.0751 34.1437 57.7721 34.2747 58.4743 34.2648C58.9937 34.2559 59.5073 34.1537 59.9902 33.9631C60.5319 33.7586 61.0011 33.4 61.3395 32.932H61.3817V33.912C61.3935 34.2389 61.3394 34.5648 61.2226 34.8705C61.1058 35.1763 60.9288 35.4556 60.7018 35.6921C60.4139 35.9458 60.0772 36.1386 59.7122 36.2589C59.3472 36.3792 58.9615 36.4246 58.5784 36.3921C57.9709 36.3989 57.3689 36.2782 56.8114 36.0379C56.2568 35.7912 55.7392 35.4689 55.2737 35.0803L53.5377 37.6598C54.2473 38.2288 55.0767 38.6311 55.9642 38.8365C56.8423 39.0376 57.7406 39.1388 58.6417 39.1382C60.6217 39.1382 62.0961 38.6419 63.065 37.6493C64.0339 36.6567 64.5186 35.2026 64.5191 33.2869V24.021H61.6363L61.6327 25.3538ZM61.4443 29.9661C61.3205 30.2625 61.1392 30.5315 60.9106 30.7578C60.678 30.9887 60.4052 31.1755 60.1056 31.3094C59.7944 31.447 59.4578 31.5181 59.1173 31.5181C58.7769 31.5181 58.4402 31.447 58.1291 31.3094C57.8334 31.1736 57.5642 30.9869 57.3338 30.7578C57.1043 30.5296 56.9222 30.2585 56.798 29.9602C56.6738 29.6618 56.6098 29.342 56.6098 29.019C56.6098 28.6961 56.6738 28.3763 56.798 28.0779C56.9222 27.7795 57.1043 27.5085 57.3338 27.2802C57.5644 27.0512 57.8335 26.8642 58.1291 26.7279C58.4403 26.5908 58.777 26.52 59.1173 26.52C59.4577 26.52 59.7943 26.5908 60.1056 26.7279C60.4051 26.8623 60.6778 27.0494 60.9106 27.2802C61.2558 27.6256 61.4906 28.0649 61.5856 28.5428C61.6805 29.0207 61.6314 29.516 61.4443 29.9661V29.9661Z" fill="white"/>
<path d="M76.3055 25.2186C75.7832 24.7459 75.1719 24.3812 74.5069 24.1455C73.0785 23.6462 71.5218 23.6462 70.0934 24.1455C69.4282 24.381 68.8166 24.7458 68.2941 25.2186C67.7817 25.6889 67.3724 26.2594 67.0918 26.8944C66.8017 27.5872 66.6523 28.3303 66.6523 29.0809C66.6523 29.8314 66.8017 30.5745 67.0918 31.2673C67.3714 31.9042 67.7808 32.4762 68.2941 32.9473C68.8161 33.4206 69.4278 33.7853 70.0934 34.0197C71.5217 34.52 73.0787 34.52 74.5069 34.0197C75.1722 33.7851 75.7837 33.4205 76.3055 32.9473C76.8188 32.4762 77.2283 31.9042 77.5079 31.2673C77.7979 30.5745 77.9473 29.8314 77.9473 29.0809C77.9473 28.3303 77.7979 27.5872 77.5079 26.8944C77.2272 26.2594 76.8179 25.6889 76.3055 25.2186V25.2186ZM74.1511 30.9348C73.6431 31.3904 72.9836 31.6425 72.2998 31.6425C71.6161 31.6425 70.9565 31.3904 70.4485 30.9348C70.0215 30.41 69.7885 29.7552 69.7885 29.0798C69.7885 28.4045 70.0215 27.7496 70.4485 27.2248C70.9565 26.7692 71.6161 26.5171 72.2998 26.5171C72.9836 26.5171 73.6431 26.7692 74.1511 27.2248C74.5781 27.7496 74.8111 28.4045 74.8111 29.0798C74.8111 29.7552 74.5781 30.41 74.1511 30.9348Z" fill="white"/>
<path d="M82.1093 24.0908H80.4268V34.1407H82.1093V24.0908Z" fill="white"/>
<path d="M81.2689 18.9377C81.1058 18.9346 80.9438 18.9655 80.7933 19.0283C80.6428 19.0911 80.5071 19.1844 80.3949 19.3024C80.2238 19.4741 80.1077 19.6924 80.061 19.9298C80.0143 20.1671 80.0393 20.4129 80.1327 20.6362C80.2261 20.8594 80.3839 21.0502 80.586 21.1843C80.7881 21.3185 81.0256 21.3901 81.2686 21.3901C81.5115 21.3901 81.749 21.3185 81.9511 21.1843C82.1533 21.0502 82.311 20.8594 82.4044 20.6362C82.4978 20.4129 82.5228 20.1671 82.4761 19.9298C82.4295 19.6924 82.3133 19.4741 82.1422 19.3024C82.0302 19.1844 81.8947 19.091 81.7443 19.0282C81.5939 18.9654 81.432 18.9346 81.2689 18.9377V18.9377Z" fill="white"/>
<path d="M94.5554 25.3394C94.082 24.8583 93.5127 24.4813 92.884 24.2327C92.1941 23.962 91.4579 23.8272 90.7163 23.8358C90.0177 23.8279 89.3269 23.9825 88.699 24.2873C88.0806 24.5935 87.5331 25.0248 87.0917 25.5536H87.0467V24.0906H85.3662V39.037H87.0467V32.359H87.0896C87.4467 32.9715 87.9673 33.4735 88.5936 33.8094C89.3206 34.2147 90.1434 34.4187 90.9764 34.4002C91.6585 34.4045 92.3341 34.2692 92.9614 34.0026C93.5671 33.7469 94.1138 33.3705 94.568 32.8966C95.0292 32.4124 95.3919 31.8438 95.6361 31.2222C96.1536 29.8663 96.1536 28.3684 95.6361 27.0124C95.3898 26.3895 95.0226 25.821 94.5554 25.3394V25.3394ZM93.9619 30.5894C93.8051 31.027 93.5597 31.4279 93.2411 31.7673C92.9224 32.1068 92.5371 32.3775 92.1092 32.5627C91.1629 32.9485 90.1023 32.9485 89.1561 32.5627C88.7275 32.3775 88.3417 32.1065 88.0226 31.7667C87.7036 31.4269 87.458 31.0255 87.3012 30.5873C86.9709 29.6349 86.9709 28.5998 87.3012 27.6473C87.458 27.2092 87.7036 26.8077 88.0226 26.4679C88.3417 26.1281 88.7275 25.8572 89.1561 25.6719C90.1023 25.2861 91.1629 25.2861 92.1092 25.6719C92.5377 25.8572 92.9235 26.1281 93.2426 26.4679C93.5616 26.8077 93.8072 27.2092 93.964 27.6473C94.2943 28.5998 94.2943 29.6349 93.964 30.5873L93.9619 30.5894Z" fill="white"/>
<path d="M104.499 29.1195C104.18 28.8815 103.824 28.6966 103.445 28.5721C103.029 28.4324 102.603 28.321 102.172 28.2389C101.849 28.1839 101.528 28.1124 101.212 28.0247C100.931 27.9486 100.656 27.8478 100.392 27.7237C100.181 27.6283 99.9901 27.4933 99.8299 27.3261C99.6936 27.1766 99.6204 26.9806 99.6253 26.7787C99.622 26.5609 99.6861 26.3473 99.8088 26.1669C99.9297 25.9887 100.088 25.8386 100.272 25.7266C100.47 25.6078 100.685 25.5209 100.909 25.469C101.139 25.4123 101.375 25.3834 101.612 25.3829C102.063 25.369 102.509 25.4846 102.896 25.7161C103.245 25.9348 103.537 26.2327 103.748 26.5855L105.15 25.6622C104.839 25.052 104.335 24.561 103.715 24.2657C103.09 23.9769 102.409 23.8303 101.72 23.8366C101.253 23.8355 100.788 23.9006 100.34 24.0298C99.9097 24.1519 99.5017 24.3409 99.131 24.5898C98.7765 24.8281 98.4814 25.1439 98.2683 25.5131C98.0476 25.9063 97.936 26.3508 97.9448 26.8011C97.9273 27.2419 98.0277 27.6794 98.2359 28.0688C98.4259 28.3945 98.691 28.6705 99.0094 28.8738C99.3608 29.0945 99.742 29.2644 100.141 29.3785C100.573 29.5073 101.026 29.6219 101.501 29.7222C101.774 29.7796 102.04 29.844 102.299 29.9154C102.541 29.9802 102.773 30.0777 102.989 30.2052C103.179 30.3175 103.344 30.4674 103.474 30.6455C103.604 30.8428 103.668 31.0757 103.658 31.3112C103.665 31.5587 103.598 31.8027 103.464 32.0112C103.33 32.2088 103.153 32.3739 102.946 32.4942C102.723 32.6269 102.478 32.7216 102.223 32.7742C101.965 32.8308 101.701 32.8597 101.436 32.8603C100.912 32.8805 100.392 32.7539 99.9368 32.4949C99.5178 32.2295 99.1491 31.8925 98.8477 31.4995L97.5117 32.5306C97.9253 33.17 98.5123 33.6797 99.2048 34.0006C99.9146 34.2811 100.674 34.4163 101.437 34.3982C101.934 34.3986 102.43 34.3411 102.914 34.2267C103.374 34.1208 103.812 33.9355 104.208 33.6793C104.587 33.4293 104.9 33.0934 105.122 32.6993C105.364 32.2521 105.483 31.7495 105.468 31.2419C105.482 30.8055 105.393 30.372 105.21 29.9756C105.042 29.6396 104.799 29.3466 104.499 29.1195V29.1195Z" fill="white"/>
<path d="M116.621 31.7572V24.0908H114.939V28.9908C114.944 29.5191 114.882 30.0459 114.755 30.5588C114.647 30.9985 114.456 31.4137 114.193 31.7824C113.942 32.1252 113.608 32.3986 113.222 32.5769C112.777 32.7733 112.295 32.869 111.809 32.8569C111.48 32.8834 111.15 32.8309 110.846 32.7038C110.542 32.5768 110.273 32.3789 110.062 32.1268C109.658 31.5414 109.46 30.839 109.499 30.1297V24.0908H107.817V30.297C107.811 30.8596 107.888 31.42 108.043 31.9609C108.178 32.4405 108.419 32.8844 108.746 33.2608C109.074 33.6288 109.483 33.9163 109.941 34.1008C110.488 34.313 111.07 34.4153 111.656 34.4018C112.051 34.405 112.443 34.3505 112.821 34.2401C113.163 34.1411 113.489 33.9968 113.792 33.811C114.067 33.6423 114.317 33.4364 114.536 33.1992C114.732 32.9882 114.896 32.7492 115.022 32.4901H115.064C115.064 32.7771 115.072 33.0571 115.086 33.3301C115.101 33.6031 115.108 33.8752 115.107 34.1463H116.704C116.704 33.8164 116.69 33.4512 116.661 33.0508C116.631 32.6504 116.618 32.2192 116.621 31.7572Z" fill="white"/>
<path d="M134.806 26.2925C134.694 25.8062 134.472 25.3515 134.159 24.9625C133.842 24.5861 133.433 24.2969 132.972 24.1225C132.392 23.9139 131.777 23.8156 131.16 23.8327C130.491 23.8036 129.828 23.9797 129.262 24.3374C128.738 24.7121 128.297 25.1912 127.968 25.7444C127.882 25.5722 127.77 25.3753 127.634 25.1536C127.481 24.9142 127.288 24.7034 127.062 24.5306C126.785 24.3208 126.476 24.1555 126.148 24.0406C125.707 23.8929 125.243 23.8237 124.777 23.8362C124.384 23.833 123.991 23.8874 123.613 23.9979C123.272 24.0969 122.945 24.2412 122.642 24.427C122.367 24.596 122.117 24.8018 121.898 25.0388C121.702 25.2498 121.538 25.4888 121.413 25.7479H121.369C121.369 25.4609 121.362 25.1823 121.348 24.9079C121.334 24.6335 121.327 24.364 121.327 24.0917H119.73C119.73 24.4216 119.745 24.7868 119.773 25.1872C119.802 25.5876 119.816 26.0172 119.816 26.4759V34.1416H121.5V29.2458C121.495 28.7173 121.557 28.1902 121.684 27.6771C121.791 27.2372 121.982 26.8219 122.246 26.4535C122.496 26.1106 122.83 25.8371 123.217 25.659C123.661 25.4625 124.144 25.3668 124.63 25.379C124.918 25.3545 125.207 25.4064 125.469 25.5293C125.73 25.6523 125.954 25.8419 126.118 26.079C126.479 26.8155 126.635 27.6349 126.571 28.452V34.143H128.25V28.3428C128.245 27.9295 128.315 27.5186 128.456 27.1297C128.58 26.7849 128.771 26.4677 129.018 26.1959C129.251 25.9414 129.534 25.7368 129.848 25.5946C130.167 25.4511 130.513 25.3778 130.862 25.3797C131.278 25.3647 131.691 25.4454 132.07 25.6156C132.369 25.7593 132.628 25.9734 132.825 26.2393C133.014 26.5025 133.147 26.8022 133.214 27.1192C133.286 27.4509 133.322 27.7893 133.321 28.1286V34.1416H135V28.0425C135.006 27.4535 134.941 26.8659 134.806 26.2925Z" fill="white"/>
</g>
<defs>
<clipPath id="clip0_12_1817">
<rect width="135" height="56" fill="white"/>
</clipPath>
</defs>
</svg>
