<svg width="7" height="7" viewBox="0 0 7 7" fill="none" xmlns="http://www.w3.org/2000/svg">
<path d="M5.65385 2.15385H4.84616V1.34615C4.84616 0.602808 4.24335 0 3.5 0C2.75666 0 2.15385 0.602808 2.15385 1.34615V2.15385H1.34615C0.602808 2.15385 0 2.75665 0 3.5C0 4.24335 0.602808 4.84615 1.34615 4.84615H2.15385V5.65385C2.15385 6.39719 2.75666 7 3.5 7C4.24335 7 4.84616 6.39719 4.84616 5.65385V4.84615H5.65385C6.3972 4.84615 7 4.24335 7 3.5C7 2.75665 6.3972 2.15385 5.65385 2.15385V2.15385Z" fill="#FFAB66"/>
</svg>
