<svg width="5" height="8" viewBox="0 0 5 8" fill="none" xmlns="http://www.w3.org/2000/svg">
<path d="M4.8301 4.29612C4.92718 4.19903 5 4.0534 5 3.8835C5 3.73786 4.92718 3.59223 4.8301 3.47087L1.52913 0.169903C1.40777 0.0728155 1.26214 0 1.1165 0C0.946602 0 0.800971 0.0728155 0.703883 0.169903L0.169903 0.728155C0.0485437 0.849515 0 0.995146 0 1.14078C0 1.31068 0.0485437 1.45631 0.169903 1.5534L2.5 3.8835L0.169903 6.21359C0.0485437 6.33495 0 6.48058 0 6.62621C0 6.79612 0.0485437 6.94175 0.169903 7.03883L0.703883 7.59709C0.800971 7.71845 0.946602 7.76699 1.1165 7.76699C1.26214 7.76699 1.40777 7.71845 1.52913 7.59709L4.8301 4.29612Z" fill="#6D5DD3"/>
</svg>
