<svg width="20" height="28" viewBox="0 0 20 28" fill="none" xmlns="http://www.w3.org/2000/svg">
<g filter="url(#filter0_d_16_14020)">
<path d="M9.0625 23.5312C9.48438 24.1875 10.4688 24.1875 10.8906 23.5312C17.7344 13.6875 19 12.6562 19 9C19 4.03125 14.9688 0 10 0C4.98438 0 1 4.03125 1 9C1 12.6562 2.21875 13.6875 9.0625 23.5312ZM10 12.75C7.89062 12.75 6.25 11.1094 6.25 9C6.25 6.9375 7.89062 5.25 10 5.25C12.0625 5.25 13.75 6.9375 13.75 9C13.75 11.1094 12.0625 12.75 10 12.75Z" fill="#EA001E"/>
</g>
<defs>
<filter id="filter0_d_16_14020" x="0" y="0" width="20" height="27.1875" filterUnits="userSpaceOnUse" color-interpolation-filters="sRGB">
<feFlood flood-opacity="0" result="BackgroundImageFix"/>
<feColorMatrix in="SourceAlpha" type="matrix" values="0 0 0 0 0 0 0 0 0 0 0 0 0 0 0 0 0 0 127 0" result="hardAlpha"/>
<feOffset dy="2"/>
<feGaussianBlur stdDeviation="0.5"/>
<feColorMatrix type="matrix" values="0 0 0 0 0 0 0 0 0 0 0 0 0 0 0 0 0 0 0.25142 0"/>
<feBlend mode="normal" in2="BackgroundImageFix" result="effect1_dropShadow_16_14020"/>
<feBlend mode="normal" in="SourceGraphic" in2="effect1_dropShadow_16_14020" result="shape"/>
</filter>
</defs>
</svg>
