<svg width="56" height="56" viewBox="0 0 56 56" fill="none" xmlns="http://www.w3.org/2000/svg">
<path d="M52.5 50.7504C47.0925 52.5004 42.595 54.2504 35 54.2504C25.445 54.2504 19.565 51.4154 14 49.0004L10.5 54.2504H1.75V26.2504L5.845 25.2179C8.71084 24.5042 11.7301 24.7294 14.4584 25.8604C17.1866 26.9914 19.4797 28.9684 21 31.5004C29.435 30.3804 35.8575 32.9879 40.25 38.5004C40.0928 36.1572 40.2458 33.8035 40.705 31.5004C41.965 25.2179 40.705 23.0479 38.5 17.5879L49 14.0879C54.25 28.0004 56 33.8629 52.5 50.7504Z" fill="#FFDD8F"/>
<path d="M42 22.75C47.799 22.75 52.5 18.049 52.5 12.25C52.5 6.45101 47.799 1.75 42 1.75C36.201 1.75 31.5 6.45101 31.5 12.25C31.5 18.049 36.201 22.75 42 22.75Z" fill="#EDBB46"/>
<path d="M42 15.75C43.933 15.75 45.5 14.183 45.5 12.25C45.5 10.317 43.933 8.75 42 8.75C40.067 8.75 38.5 10.317 38.5 12.25C38.5 14.183 40.067 15.75 42 15.75Z" fill="#EDBB46"/>
<path d="M43.2425 44.258L40.7575 46.743C36.925 42.9105 36.75 38.903 36.75 35.1055C40.81 38.133 40.25 39.848 40.25 37.048C40.2473 38.3879 40.5104 39.7151 41.024 40.9527C41.5377 42.1903 42.2917 43.3137 43.2425 44.258Z" fill="#EDBB46"/>
<path d="M43.75 7H40.25V17.5H43.75V7Z" fill="#C2952A"/>
<path d="M47.25 10.5H36.75V14H47.25V10.5Z" fill="#C2952A"/>
</svg>
