<svg width="120" height="24" viewBox="0 0 120 24" fill="none" xmlns="http://www.w3.org/2000/svg">
<g opacity="0.6">
<path fill-rule="evenodd" clip-rule="evenodd" d="M9.945 22V13.166H7V9.485H9.945V6.54C9.945 3.497 11.871 2 14.585 2C15.885 2 17.003 2.097 17.329 2.14V5.32H15.446C13.97 5.32 13.626 6.023 13.626 7.052V9.485H17.306L16.57 13.165H13.626L13.685 22" fill="white"/>
</g>
<g opacity="0.6">
<path fill-rule="evenodd" clip-rule="evenodd" d="M55.465 1.066C56.638 1.012 57.012 1 60 1C62.988 1 63.362 1.013 64.534 1.066C65.706 1.119 66.506 1.306 67.206 1.577C67.939 1.854 68.604 2.287 69.154 2.847C69.714 3.396 70.146 4.06 70.422 4.794C70.694 5.494 70.88 6.294 70.934 7.464C70.988 8.639 71 9.013 71 12C71 14.988 70.987 15.362 70.934 16.535C70.881 17.705 70.694 18.505 70.422 19.205C70.146 19.9391 69.7133 20.6042 69.154 21.154C68.604 21.714 67.939 22.146 67.206 22.422C66.506 22.694 65.706 22.88 64.536 22.934C63.362 22.988 62.988 23 60 23C57.012 23 56.638 22.987 55.465 22.934C54.295 22.881 53.495 22.694 52.795 22.422C52.0609 22.146 51.3958 21.7133 50.846 21.154C50.2864 20.6047 49.8533 19.9399 49.577 19.206C49.306 18.506 49.12 17.706 49.066 16.536C49.012 15.361 49 14.987 49 12C49 9.012 49.013 8.638 49.066 7.466C49.119 6.294 49.306 5.494 49.577 4.794C49.8537 4.06008 50.2871 3.39531 50.847 2.846C51.396 2.2865 52.0605 1.85344 52.794 1.577C53.494 1.306 54.294 1.12 55.464 1.066H55.465ZM64.445 3.046C63.285 2.993 62.937 2.982 60 2.982C57.063 2.982 56.715 2.993 55.555 3.046C54.482 3.095 53.9 3.274 53.512 3.425C52.999 3.625 52.632 3.862 52.247 4.247C51.882 4.60205 51.6012 5.03428 51.425 5.512C51.274 5.9 51.095 6.482 51.046 7.555C50.993 8.715 50.982 9.063 50.982 12C50.982 14.937 50.993 15.285 51.046 16.445C51.095 17.518 51.274 18.1 51.425 18.488C51.601 18.965 51.882 19.398 52.247 19.753C52.602 20.118 53.035 20.399 53.512 20.575C53.9 20.726 54.482 20.905 55.555 20.954C56.715 21.007 57.062 21.018 60 21.018C62.938 21.018 63.285 21.007 64.445 20.954C65.518 20.905 66.1 20.726 66.488 20.575C67.001 20.375 67.368 20.138 67.753 19.753C68.118 19.398 68.399 18.965 68.575 18.488C68.726 18.1 68.905 17.518 68.954 16.445C69.007 15.285 69.018 14.937 69.018 12C69.018 9.063 69.007 8.715 68.954 7.555C68.905 6.482 68.726 5.9 68.575 5.512C68.375 4.999 68.138 4.632 67.753 4.247C67.3979 3.88207 66.9657 3.60121 66.488 3.425C66.1 3.274 65.518 3.095 64.445 3.046V3.046ZM58.595 15.391C59.3797 15.7176 60.2534 15.7617 61.0669 15.5157C61.8805 15.2697 62.5834 14.7489 63.0556 14.0422C63.5278 13.3356 63.7401 12.4869 63.656 11.6411C63.572 10.7953 63.197 10.005 62.595 9.405C62.2112 9.02148 61.7472 8.72781 61.2363 8.54515C60.7255 8.36248 60.1804 8.29536 59.6405 8.34862C59.1006 8.40187 58.5792 8.57418 58.1138 8.85313C57.6485 9.13208 57.2507 9.51074 56.9493 9.96185C56.6479 10.413 56.4502 10.9253 56.3705 11.462C56.2908 11.9986 56.3312 12.5463 56.4885 13.0655C56.6459 13.5847 56.9165 14.0626 57.2807 14.4647C57.645 14.8668 58.0938 15.1832 58.595 15.391ZM56.002 8.002C56.527 7.47698 57.1503 7.0605 57.8363 6.77636C58.5223 6.49222 59.2575 6.34597 60 6.34597C60.7425 6.34597 61.4777 6.49222 62.1637 6.77636C62.8497 7.0605 63.473 7.47698 63.998 8.002C64.523 8.52702 64.9395 9.15032 65.2236 9.8363C65.5078 10.5223 65.654 11.2575 65.654 12C65.654 12.7425 65.5078 13.4777 65.2236 14.1637C64.9395 14.8497 64.523 15.473 63.998 15.998C62.9377 17.0583 61.4995 17.654 60 17.654C58.5005 17.654 57.0623 17.0583 56.002 15.998C54.9417 14.9377 54.346 13.4995 54.346 12C54.346 10.5005 54.9417 9.06234 56.002 8.002V8.002ZM66.908 7.188C67.0381 7.06527 67.1423 6.91768 67.2143 6.75397C67.2863 6.59027 67.3248 6.41377 67.3274 6.23493C67.33 6.05609 67.2967 5.87855 67.2295 5.71281C67.1622 5.54707 67.0624 5.39651 66.936 5.27004C66.8095 5.14357 66.6589 5.04376 66.4932 4.97652C66.3275 4.90928 66.1499 4.87598 65.9711 4.87858C65.7922 4.88119 65.6157 4.91965 65.452 4.9917C65.2883 5.06374 65.1407 5.1679 65.018 5.298C64.7793 5.55103 64.6486 5.88712 64.6537 6.23493C64.6588 6.58274 64.7992 6.91488 65.0452 7.16084C65.2911 7.40681 65.6233 7.54723 65.9711 7.5523C66.3189 7.55737 66.655 7.42669 66.908 7.188V7.188Z" fill="white"/>
</g>
<g opacity="0.6">
<path d="M118.5 6.00084L116.25 6.37584L117.75 4.50084L115.125 5.25084C111.75 1.50084 106.5 5.62584 108 9.00084C102 9.00084 99 4.50084 99 4.50084C99 4.50084 96.75 7.87584 100.5 10.5008L98.25 9.75085C98.25 12.0008 99.75 13.5008 102.375 14.2508H99.75C101.25 17.2508 103.875 17.2508 103.875 17.2508C103.875 17.2508 101.625 19.1258 97.5 19.1258C109.875 25.1258 117.375 13.8758 116.25 7.87584L118.5 6.00084Z" fill="white"/>
</g>
</svg>
