<svg width="18" height="14" viewBox="0 0 18 14" fill="none" xmlns="http://www.w3.org/2000/svg">
<path d="M17.6484 4.46484C16.8398 5.09766 15.8203 5.87109 12.2344 8.47266C11.5312 9 10.2305 10.1602 9 10.1602C7.73438 10.1602 6.46875 9 5.73047 8.47266C2.14453 5.87109 1.125 5.09766 0.316406 4.46484C0.175781 4.35938 0 4.46484 0 4.64062V11.8125C0 12.7617 0.738281 13.5 1.6875 13.5H16.3125C17.2266 13.5 18 12.7617 18 11.8125V4.64062C18 4.46484 17.7891 4.35938 17.6484 4.46484ZM9 9C9.80859 9.03516 10.9688 7.98047 11.5664 7.55859C16.2422 4.18359 16.5938 3.86719 17.6484 3.02344C17.8594 2.88281 18 2.63672 18 2.35547V1.6875C18 0.773438 17.2266 0 16.3125 0H1.6875C0.738281 0 0 0.773438 0 1.6875V2.35547C0 2.63672 0.105469 2.88281 0.316406 3.02344C1.37109 3.86719 1.72266 4.18359 6.39844 7.55859C6.99609 7.98047 8.15625 9.03516 9 9Z" fill="white"/>
</svg>
