<svg width="27" height="27" viewBox="0 0 27 27" fill="none" xmlns="http://www.w3.org/2000/svg">
<path d="M26.9997 13.5835C26.9997 6.07945 20.9526 0 13.4998 0C6.04203 0 0 6.07945 0 13.5835C0 20.3616 4.93504 25.9818 11.3905 26.9997V17.5108H7.96238V13.5843H11.3905V10.59C11.3905 7.18651 13.4028 5.30689 16.4875 5.30689C17.9649 5.30689 19.5115 5.57177 19.5115 5.57177V8.91415H17.8063C16.1323 8.91415 15.6092 9.96263 15.6092 11.0366V13.5835H19.3529L18.7513 17.5099H15.6092V26.9988C22.0596 25.9809 26.9997 20.3608 26.9997 13.5826V13.5835Z" fill="#193FF6"/>
</svg>
