<svg width="18" height="18" viewBox="0 0 18 18" fill="none" xmlns="http://www.w3.org/2000/svg">
<path d="M9 0C4.02823 0 0 4.06452 0 9C0 13.9718 4.02823 18 9 18C13.9355 18 18 13.9718 18 9C18 4.06452 13.9355 0 9 0ZM9 16.2581C4.97177 16.2581 1.74194 13.0282 1.74194 9C1.74194 5.00806 4.97177 1.74194 9 1.74194C12.9919 1.74194 16.2581 5.00806 16.2581 9C16.2581 13.0282 12.9919 16.2581 9 16.2581ZM9 3.99194C8.12903 3.99194 7.47581 4.68145 7.47581 5.51613C7.47581 6.3871 8.12903 7.04032 9 7.04032C9.83468 7.04032 10.5242 6.3871 10.5242 5.51613C10.5242 4.68145 9.83468 3.99194 9 3.99194ZM11.0323 13.2097V12.3387C11.0323 12.121 10.8145 11.9032 10.5968 11.9032H10.1613V8.27419C10.1613 8.05645 9.94355 7.83871 9.72581 7.83871H7.40323C7.14919 7.83871 6.96774 8.05645 6.96774 8.27419V9.14516C6.96774 9.39919 7.14919 9.58065 7.40323 9.58065H7.83871V11.9032H7.40323C7.14919 11.9032 6.96774 12.121 6.96774 12.3387V13.2097C6.96774 13.4637 7.14919 13.6452 7.40323 13.6452H10.5968C10.8145 13.6452 11.0323 13.4637 11.0323 13.2097Z" fill="#7EB23D"/>
</svg>
