<svg width="345" height="120" viewBox="0 0 345 120" fill="none" xmlns="http://www.w3.org/2000/svg">
<path d="M0 0H345V120H0V0Z" fill="#F2F6FC"/>
<path d="M148.098 79.5799C144.817 79.5799 142.256 79.0893 140.416 78.108C138.607 77.1573 137.702 75.5933 137.702 73.416C137.702 72.2813 137.963 71.2693 138.484 70.38C139.036 69.5213 139.879 68.632 141.014 67.712C140.462 67.344 140.033 66.8686 139.726 66.2859C139.45 65.7033 139.312 65.0899 139.312 64.4459C139.312 63.9859 139.419 63.5106 139.634 63.0199C139.879 62.5293 140.37 61.7013 141.106 60.5359C139.021 59.0026 137.978 56.764 137.978 53.82C137.978 51.0293 138.821 48.9593 140.508 47.6099C142.225 46.2299 144.602 45.5399 147.638 45.5399C148.926 45.5399 150.475 45.7393 152.284 46.1379L159.69 45.9079V50.8299L156.24 50.5539C156.639 51.1979 156.899 51.7499 157.022 52.2099C157.175 52.6699 157.252 53.2986 157.252 54.0959C157.252 56.8559 156.47 58.8339 154.906 60.0299C153.342 61.1953 150.965 61.778 147.776 61.778C146.856 61.778 146.151 61.7166 145.66 61.594C145.353 62.33 145.2 62.9586 145.2 63.4799C145.2 64.1239 145.507 64.5226 146.12 64.6759C146.764 64.7986 147.945 64.8753 149.662 64.906C152.023 64.9673 153.894 65.1513 155.274 65.458C156.685 65.7646 157.773 66.3933 158.54 67.344C159.307 68.264 159.69 69.6286 159.69 71.438C159.69 74.2286 158.739 76.2833 156.838 77.602C154.937 78.9206 152.023 79.5799 148.098 79.5799ZM147.684 57.0859C150.015 57.0859 151.18 55.9513 151.18 53.6819C151.18 51.4433 150.015 50.3239 147.684 50.3239C145.323 50.3239 144.142 51.4433 144.142 53.6819C144.142 55.9513 145.323 57.0859 147.684 57.0859ZM148.512 74.52C150.26 74.52 151.517 74.3206 152.284 73.922C153.081 73.5233 153.48 72.91 153.48 72.082C153.48 71.3153 153.189 70.8246 152.606 70.61C152.054 70.426 151.395 70.3186 150.628 70.2879C149.892 70.2573 149.401 70.242 149.156 70.242L145.016 69.9199C144.188 70.7479 143.774 71.5759 143.774 72.4039C143.774 73.1399 144.157 73.6766 144.924 74.014C145.721 74.3513 146.917 74.52 148.512 74.52Z" fill="#273240"/>
<path d="M163.424 46H169.542V48.4379C172.18 46.9046 174.633 45.9079 176.902 45.4479V51.6579C174.602 52.1179 172.471 52.6546 170.508 53.268L169.588 53.59V69H163.424V46Z" fill="#273240"/>
<path d="M180.54 46H186.704V69H180.54V46ZM180.54 36.8459H186.704V43.0559H180.54V36.8459Z" fill="#273240"/>
<path d="M199.591 69H195.267L189.609 46H195.681L199.867 63.7559H200.925L205.111 46H211.183L203.087 78.66H197.061L199.591 69Z" fill="#273240"/>
<path d="M219.978 69.5519C215.224 69.5519 212.848 67.0373 212.848 62.0079C212.848 59.616 213.476 57.8986 214.734 56.8559C216.022 55.7826 218.076 55.1539 220.898 54.9699L225.82 54.6019V53.1759C225.82 52.2559 225.605 51.6119 225.176 51.2439C224.777 50.8759 224.087 50.6919 223.106 50.6919C222.094 50.6919 220.698 50.7379 218.92 50.8299C217.141 50.8913 215.654 50.9679 214.458 51.0599L214.274 46.7819C217.586 45.8926 220.714 45.4479 223.658 45.4479C226.602 45.4479 228.718 46.0613 230.006 47.2879C231.324 48.5146 231.984 50.4773 231.984 53.1759V62.7439C232.045 63.5106 232.168 64.0319 232.352 64.3079C232.566 64.5839 232.95 64.7833 233.502 64.906L233.318 69.5519C231.723 69.5519 230.45 69.4446 229.5 69.2299C228.58 69.0153 227.66 68.5859 226.74 67.9419C224.501 69.0153 222.247 69.5519 219.978 69.5519ZM221.312 64.538C222.477 64.538 223.75 64.354 225.13 63.986L225.82 63.802V58.8799L221.634 59.2479C219.916 59.4013 219.058 60.3213 219.058 62.0079C219.058 63.6946 219.809 64.538 221.312 64.538Z" fill="#273240"/>
<path d="M237.584 61.3639H244.208V69H237.584V61.3639Z" fill="#273240"/>
<rect x="50" y="28" width="64" height="64" rx="18" fill="#216FED"/>
<path d="M83.9128 76.6458H66.7712C65.992 76.6458 65.3545 76.0083 65.3545 75.2291V50.9333C65.3545 50.1541 65.992 49.5166 66.7712 49.5166H67.6212C77.3962 49.5166 85.3295 57.45 85.3295 67.225V75.2291C85.2587 76.0083 84.692 76.6458 83.9128 76.6458ZM68.117 73.8833H82.4962V67.225C82.4962 59.15 76.1212 52.6333 68.117 52.35V73.8833Z" fill="#F2F6FC"/>
<path d="M97.2293 76.6458H80.0877C79.3085 76.6458 78.671 76.0083 78.671 75.2291C78.671 74.45 79.3085 73.8125 80.0877 73.8125H95.8835V61.0625C95.8835 52.9875 89.5085 46.4708 81.5043 46.1875V56.2458C81.5043 57.025 80.8668 57.6625 80.0877 57.6625C79.3085 57.6625 78.671 57.025 78.671 56.2458V44.7708C78.671 43.9916 79.3085 43.3541 80.0877 43.3541H80.9377C90.7127 43.3541 98.646 51.2875 98.646 61.0625V75.3C98.646 76.0083 98.0085 76.6458 97.2293 76.6458Z" fill="#F2F6FC"/>
<path d="M78.2463 76.6458H72.2963C71.5171 76.6458 70.8796 76.0083 70.8796 75.2291V65.95C70.8796 65.1708 71.5171 64.5333 72.2963 64.5333H78.2463C79.0254 64.5333 79.6629 65.1708 79.6629 65.95V75.2291C79.6629 76.0083 79.0254 76.6458 78.2463 76.6458ZM73.7129 73.8833H76.8296V67.3666H73.7129V73.8833Z" fill="#F2F6FC"/>
</svg>
