<svg width="1170" height="326" viewBox="0 0 1170 326" fill="none" xmlns="http://www.w3.org/2000/svg">
<rect y="8" width="270" height="270" rx="135" fill="#FEFEFE"/>
<g clip-path="url(#clip0_12_6136)">
<path d="M159.977 149.215L172.477 111.715H151.107C148.23 111.714 145.426 110.809 143.091 109.126C140.757 107.444 139.012 105.069 138.102 102.34C137.191 99.6097 135.445 97.2354 133.111 95.5528C130.776 93.8703 127.971 92.9648 125.094 92.9646H97.4766L109.977 149.215H159.977ZM84.9766 186.715C84.9766 188.372 85.635 189.962 86.8071 191.134C87.9792 192.306 89.569 192.965 91.2266 192.965H178.727C180.384 192.965 181.974 192.306 183.146 191.134C184.318 189.962 184.977 188.372 184.977 186.715V174.215H84.9766V186.715ZM178.727 136.715H170.73L166.564 149.215H169.352C170.18 149.215 170.975 149.544 171.561 150.13C172.147 150.716 172.477 151.511 172.477 152.34C172.477 153.168 172.147 153.963 171.561 154.549C170.975 155.135 170.18 155.465 169.352 155.465H100.602C99.7728 155.465 98.9779 155.135 98.3919 154.549C97.8058 153.963 97.4766 153.168 97.4766 152.34C97.4766 151.511 97.8058 150.716 98.3919 150.13C98.9779 149.544 99.7728 149.215 100.602 149.215H103.572L100.795 136.715H91.2246C89.567 136.715 87.9773 137.373 86.8052 138.545C85.6331 139.717 84.9746 141.307 84.9746 142.965V167.965H184.975V142.965C184.975 141.307 184.316 139.718 183.145 138.546C181.973 137.374 180.384 136.715 178.727 136.715Z" fill="#00272B"/>
</g>
<rect x="600" y="8" width="270" height="270" rx="135" fill="#FEFEFE"/>
<g clip-path="url(#clip1_12_6136)">
<path d="M789.925 140.638L769.283 109.675C768.427 108.39 767.267 107.338 765.906 106.609C764.546 105.881 763.026 105.5 761.483 105.5H709.017C707.474 105.5 705.955 105.881 704.594 106.609C703.233 107.338 702.073 108.39 701.217 109.675L680.575 140.638C679.548 142.178 679 143.988 679 145.838V171.125C679 176.303 683.197 180.5 688.375 180.5H782.125C787.303 180.5 791.5 176.303 791.5 171.125V145.838C791.5 143.988 790.952 142.178 789.925 140.638V140.638ZM710.69 118H759.81L776.477 143H752.438L746.188 155.5H724.312L718.062 143H694.023L710.69 118Z" fill="#00272B"/>
</g>
<g filter="url(#filter0_d_12_6136)">
<rect x="300" y="8" width="270" height="270" rx="135" fill="#FEFEFE"/>
</g>
<path d="M484.512 129.055L474.629 99.4062C473.359 95.5781 469.785 93 465.742 93H438.125V130.5H484.746C484.668 130.012 484.668 129.523 484.512 129.055ZM431.875 93H404.258C400.215 93 396.641 95.5781 395.371 99.4062L385.488 129.055C385.332 129.523 385.332 130.012 385.254 130.5H431.875V93ZM385 136.75V183.625C385 188.801 389.199 193 394.375 193H475.625C480.801 193 485 188.801 485 183.625V136.75H385Z" fill="#00272B"/>
<rect x="900" y="8" width="270" height="270" rx="135" fill="#FEFEFE"/>
<g clip-path="url(#clip2_12_6136)">
<path d="M1055.14 142.998C1051.84 142.998 1048.74 141.241 1047.06 138.428L1034.5 117.608L1021.96 138.428C1020.26 141.26 1017.16 143.018 1013.86 143.018C1012.98 143.018 1012.1 142.901 1011.26 142.647L984.5 134.991V169.756C984.5 172.627 986.454 175.127 989.227 175.811L1031.45 186.377C1033.45 186.866 1035.54 186.866 1037.51 186.377L1079.77 175.811C1082.55 175.108 1084.5 172.608 1084.5 169.756V134.991L1057.74 142.627C1056.9 142.881 1056.02 142.998 1055.14 142.998ZM1096.67 121.084L1086.61 101.006C1086 99.7953 1084.7 99.0922 1083.35 99.268L1034.5 105.498L1052.41 135.205C1053.15 136.436 1054.64 137.022 1056.02 136.631L1094.68 125.596C1096.61 125.03 1097.55 122.881 1096.67 121.084V121.084ZM982.391 101.006L972.332 121.084C971.434 122.881 972.391 125.03 974.305 125.577L1012.96 136.612C1014.34 137.002 1015.83 136.416 1016.57 135.186L1034.5 105.498L985.633 99.268C984.286 99.1117 982.997 99.7953 982.391 101.006V101.006Z" fill="#00272B"/>
</g>
<defs>
<filter id="filter0_d_12_6136" x="272" y="0" width="326" height="326" filterUnits="userSpaceOnUse" color-interpolation-filters="sRGB">
<feFlood flood-opacity="0" result="BackgroundImageFix"/>
<feColorMatrix in="SourceAlpha" type="matrix" values="0 0 0 0 0 0 0 0 0 0 0 0 0 0 0 0 0 0 127 0" result="hardAlpha"/>
<feMorphology radius="12" operator="erode" in="SourceAlpha" result="effect1_dropShadow_12_6136"/>
<feOffset dy="20"/>
<feGaussianBlur stdDeviation="20"/>
<feColorMatrix type="matrix" values="0 0 0 0 0.435294 0 0 0 0 0.427451 0 0 0 0 0.443137 0 0 0 0.35 0"/>
<feBlend mode="normal" in2="BackgroundImageFix" result="effect1_dropShadow_12_6136"/>
<feBlend mode="normal" in="SourceGraphic" in2="effect1_dropShadow_12_6136" result="shape"/>
</filter>
<clipPath id="clip0_12_6136">
<rect width="100" height="100" fill="white" transform="translate(85 93)"/>
</clipPath>
<clipPath id="clip1_12_6136">
<rect width="112.5" height="100" fill="white" transform="translate(679 93)"/>
</clipPath>
<clipPath id="clip2_12_6136">
<rect width="125" height="100" fill="white" transform="translate(972 93)"/>
</clipPath>
</defs>
</svg>
