<svg width="31" height="35" viewBox="0 0 31 35" fill="none" xmlns="http://www.w3.org/2000/svg">
<g clip-path="url(#clip0_8_1259)">
<path d="M6.5625 19.6875H2.1875C0.97959 19.6875 0 20.6671 0 21.875V26.25C0 27.4579 0.97959 28.4375 2.1875 28.4375H6.5625C7.77041 28.4375 8.75 27.4579 8.75 26.25V21.875C8.75 20.6671 7.77041 19.6875 6.5625 19.6875ZM17.5 19.6875H13.125C11.9171 19.6875 10.9375 20.6671 10.9375 21.875V26.25C10.9375 27.4579 11.9171 28.4375 13.125 28.4375H17.5C18.7079 28.4375 19.6875 27.4579 19.6875 26.25V21.875C19.6875 20.6671 18.7079 19.6875 17.5 19.6875ZM28.4375 19.6875H24.0625C22.8546 19.6875 21.875 20.6671 21.875 21.875V26.25C21.875 27.4579 22.8546 28.4375 24.0625 28.4375H28.4375C29.6454 28.4375 30.625 27.4579 30.625 26.25V21.875C30.625 20.6671 29.6454 19.6875 28.4375 19.6875ZM6.5625 6.5625H2.1875C0.97959 6.5625 0 7.54209 0 8.75V13.125C0 14.3329 0.97959 15.3125 2.1875 15.3125H6.5625C7.77041 15.3125 8.75 14.3329 8.75 13.125V8.75C8.75 7.54209 7.77041 6.5625 6.5625 6.5625ZM17.5 6.5625H13.125C11.9171 6.5625 10.9375 7.54209 10.9375 8.75V13.125C10.9375 14.3329 11.9171 15.3125 13.125 15.3125H17.5C18.7079 15.3125 19.6875 14.3329 19.6875 13.125V8.75C19.6875 7.54209 18.7079 6.5625 17.5 6.5625ZM28.4375 6.5625H24.0625C22.8546 6.5625 21.875 7.54209 21.875 8.75V13.125C21.875 14.3329 22.8546 15.3125 24.0625 15.3125H28.4375C29.6454 15.3125 30.625 14.3329 30.625 13.125V8.75C30.625 7.54209 29.6454 6.5625 28.4375 6.5625Z" fill="#12908D"/>
</g>
<defs>
<clipPath id="clip0_8_1259">
<rect width="30.625" height="35" fill="white"/>
</clipPath>
</defs>
</svg>
