<svg width="22" height="25" viewBox="0 0 22 25" fill="none" xmlns="http://www.w3.org/2000/svg">
<g clip-path="url(#clip0_2_1633)">
<path d="M19.5312 1.5625H2.34375C1.04932 1.5625 0 2.61182 0 3.90625V21.0938C0 22.3882 1.04932 23.4375 2.34375 23.4375H19.5312C20.8257 23.4375 21.875 22.3882 21.875 21.0938V3.90625C21.875 2.61182 20.8257 1.5625 19.5312 1.5625ZM5.46875 20.3125C4.17432 20.3125 3.125 19.2632 3.125 17.9688C3.125 16.6743 4.17432 15.625 5.46875 15.625C6.76318 15.625 7.8125 16.6743 7.8125 17.9688C7.8125 19.2632 6.76318 20.3125 5.46875 20.3125ZM13.1608 20.3125H11.4843C11.1908 20.3125 10.9447 20.0861 10.9256 19.7933C10.671 15.8846 7.54458 12.7659 3.64419 12.5119C3.35137 12.4928 3.125 12.2467 3.125 11.9532V10.2767C3.125 9.95762 3.39199 9.70166 3.71064 9.71885C9.1084 10.0105 13.4273 14.3349 13.7187 19.7269C13.7358 20.0455 13.4799 20.3125 13.1608 20.3125ZM18.1914 20.3125H16.5149C16.2141 20.3125 15.9693 20.0741 15.957 19.7735C15.6836 13.1068 10.3318 7.75395 3.66401 7.48057C3.36338 7.46821 3.125 7.22339 3.125 6.92256V5.24609C3.125 4.93096 3.38564 4.67656 3.70054 4.68789C11.8954 4.98208 18.4569 11.582 18.7496 19.737C18.7609 20.0519 18.5065 20.3125 18.1914 20.3125V20.3125Z" fill="#FEFEFE"/>
</g>
<defs>
<clipPath id="clip0_2_1633">
<rect width="21.875" height="25" fill="white"/>
</clipPath>
</defs>
</svg>
