<svg width="48" height="48" viewBox="0 0 48 48" fill="none" xmlns="http://www.w3.org/2000/svg">
<path d="M43.0406 10.5C43.0406 11.4047 43.0406 12.3141 43.0406 13.2187C43.0406 15.3844 43.0406 17.55 43.0406 19.7109C43.0406 22.3219 43.0406 24.9328 43.0406 27.5437C43.0406 29.7937 43.0406 32.0437 43.0406 34.2891C43.0406 35.3484 43.0453 36.4078 43.0406 37.4672C43.0406 37.5656 43.0359 37.6594 43.0219 37.7578C43.0453 37.5937 43.0687 37.425 43.0875 37.2609C43.064 37.4297 43.0219 37.5891 42.9609 37.7484C43.0219 37.5984 43.0875 37.4484 43.1484 37.2984C43.0734 37.4719 42.9844 37.6312 42.8719 37.7766C42.9703 37.65 43.0687 37.5234 43.1672 37.3969C43.064 37.5234 42.9515 37.6406 42.8203 37.7437C42.9469 37.6453 43.0734 37.5469 43.2 37.4484C43.05 37.5609 42.8906 37.6547 42.7219 37.725C42.8719 37.6641 43.0219 37.5984 43.1719 37.5375C43.0125 37.5984 42.8531 37.6406 42.6844 37.6641C42.8484 37.6406 43.0172 37.6172 43.1812 37.5984C42.7828 37.6453 42.3656 37.6172 41.9625 37.6172C41.0531 37.6172 40.139 37.6172 39.2297 37.6172C37.8703 37.6172 36.5109 37.6172 35.1515 37.6172C33.4875 37.6172 31.8234 37.6172 30.1594 37.6172C28.3359 37.6172 26.5078 37.6172 24.6844 37.6172C22.8422 37.6172 21 37.6172 19.1531 37.6172C17.4375 37.6172 15.7172 37.6172 14.0015 37.6172C12.5531 37.6172 11.1094 37.6172 9.66091 37.6172C8.62498 37.6172 7.59373 37.6172 6.55779 37.6172C6.07966 37.6172 5.60623 37.6172 5.1281 37.6172C5.02498 37.6172 4.92185 37.6125 4.81873 37.5984C4.98279 37.6219 5.15154 37.6453 5.3156 37.6641C5.14685 37.6406 4.98748 37.5984 4.8281 37.5375C4.9781 37.5984 5.1281 37.6641 5.2781 37.725C5.10466 37.65 4.94529 37.5609 4.79998 37.4484C4.92654 37.5469 5.0531 37.6453 5.17966 37.7437C5.0531 37.6406 4.93591 37.5281 4.83279 37.3969C4.93123 37.5234 5.02966 37.65 5.1281 37.7766C5.0156 37.6266 4.92185 37.4672 4.85154 37.2984C4.91248 37.4484 4.9781 37.5984 5.03904 37.7484C4.9781 37.5891 4.93591 37.4297 4.91248 37.2609C4.93591 37.425 4.95935 37.5937 4.9781 37.7578C4.94529 37.4484 4.95935 37.1344 4.95935 36.825C4.95935 36.1734 4.95935 35.5219 4.95935 34.8703C4.95935 32.7141 4.95935 30.5578 4.95935 28.4016C4.95935 25.7859 4.95935 23.1656 4.95935 20.55C4.95935 18.2812 4.95935 16.0125 4.95935 13.7438C4.95935 12.675 4.95466 11.6062 4.95935 10.5328C4.95935 10.4344 4.96404 10.3406 4.9781 10.2422C4.95466 10.4062 4.93123 10.575 4.91248 10.7391C4.93591 10.5703 4.9781 10.4109 5.03904 10.2516C4.9781 10.4016 4.91248 10.5516 4.85154 10.7016C4.92654 10.5281 5.0156 10.3687 5.1281 10.2234C5.02966 10.35 4.93123 10.4766 4.83279 10.6031C4.93591 10.4766 5.04841 10.3594 5.17966 10.2562C5.0531 10.3547 4.92654 10.4531 4.79998 10.5516C4.94998 10.4391 5.10935 10.3453 5.2781 10.275C5.1281 10.3359 4.9781 10.4016 4.8281 10.4625C4.98748 10.4016 5.14685 10.3594 5.3156 10.3359C5.15154 10.3594 4.98279 10.3828 4.81873 10.4016C5.21716 10.3547 5.63435 10.3828 6.03748 10.3828C6.94685 10.3828 7.86091 10.3828 8.77029 10.3828C10.1297 10.3828 11.489 10.3828 12.8484 10.3828C14.5125 10.3828 16.1765 10.3828 17.8406 10.3828C19.664 10.3828 21.4922 10.3828 23.3156 10.3828C25.1578 10.3828 27 10.3828 28.8469 10.3828C30.5625 10.3828 32.2828 10.3828 33.9984 10.3828C35.4469 10.3828 36.8906 10.3828 38.339 10.3828C39.375 10.3828 40.4062 10.3828 41.4422 10.3828C41.9203 10.3828 42.3937 10.3828 42.8719 10.3828C42.975 10.3828 43.0781 10.3875 43.1812 10.4016C43.0172 10.3781 42.8484 10.3547 42.6844 10.3359C42.8531 10.3594 43.0125 10.4016 43.1719 10.4625C43.0219 10.4016 42.8719 10.3359 42.7219 10.275C42.8953 10.35 43.0547 10.4391 43.2 10.5516C43.0734 10.4531 42.9469 10.3547 42.8203 10.2562C42.9469 10.3594 43.064 10.4719 43.1672 10.6031C43.0687 10.4766 42.9703 10.35 42.8719 10.2234C42.9844 10.3734 43.0781 10.5328 43.1484 10.7016C43.0875 10.5516 43.0219 10.4016 42.9609 10.2516C43.0219 10.4109 43.064 10.5703 43.0875 10.7391C43.064 10.575 43.0406 10.4062 43.0219 10.2422C43.0359 10.3266 43.0406 10.4109 43.0406 10.5C43.05 10.9875 43.2422 11.4797 43.589 11.8266C43.9125 12.15 44.4469 12.3984 44.9156 12.375C45.9187 12.3281 46.8094 11.55 46.7906 10.5C46.7765 9.4875 46.3922 8.54531 45.6984 7.80469C45.0094 7.07344 44.0672 6.7125 43.0828 6.63281C42.9656 6.62344 42.8437 6.62812 42.7219 6.62812C42.2015 6.62812 41.6812 6.62812 41.1656 6.62812C40.2094 6.62812 39.2484 6.62812 38.2922 6.62812C37.0031 6.62812 35.7094 6.62812 34.4203 6.62812C32.9109 6.62812 31.3969 6.62812 29.8875 6.62812C28.2469 6.62812 26.6015 6.62812 24.9609 6.62812C23.2969 6.62812 21.6375 6.62812 19.9734 6.62812C18.4031 6.62812 16.8328 6.62812 15.2625 6.62812C13.8703 6.62812 12.4828 6.62812 11.0906 6.62812C9.99841 6.62812 8.90154 6.62812 7.80935 6.62812C7.10623 6.62812 6.4031 6.62812 5.69998 6.62812C5.53123 6.62812 5.36248 6.62812 5.18904 6.62812C4.5281 6.62812 3.92341 6.77813 3.32341 7.05469C2.60623 7.38281 1.9406 8.05781 1.61716 8.775C1.35935 9.34687 1.20935 9.87656 1.20466 10.5141C1.20466 10.6547 1.20466 10.7953 1.20466 10.9406C1.20466 11.7234 1.20466 12.5109 1.20466 13.2937C1.20466 14.5734 1.20466 15.8531 1.20466 17.1375C1.20466 18.7031 1.20466 20.2687 1.20466 21.8344C1.20466 23.4937 1.20466 25.1578 1.20466 26.8172C1.20466 28.3641 1.20466 29.9062 1.20466 31.4531C1.20466 32.6719 1.20466 33.8953 1.20466 35.1141C1.20466 35.8172 1.20466 36.5203 1.20466 37.2281C1.20466 37.3641 1.19998 37.5 1.20935 37.6359C1.27498 38.625 1.6406 39.5625 2.36248 40.2609C3.08435 40.9594 4.0406 41.3531 5.04373 41.3719C5.32966 41.3766 5.61091 41.3719 5.89685 41.3719C6.65623 41.3719 7.4156 41.3719 8.17966 41.3719C9.32341 41.3719 10.4672 41.3719 11.6109 41.3719C13.0265 41.3719 14.4422 41.3719 15.8578 41.3719C17.4515 41.3719 19.05 41.3719 20.6437 41.3719C22.3031 41.3719 23.9578 41.3719 25.6172 41.3719C27.2484 41.3719 28.8797 41.3719 30.5156 41.3719C32.0109 41.3719 33.5015 41.3719 34.9969 41.3719C36.2437 41.3719 37.4906 41.3719 38.7375 41.3719C39.6422 41.3719 40.5515 41.3719 41.4562 41.3719C41.9109 41.3719 42.3656 41.3719 42.825 41.3719C43.5187 41.3719 44.175 41.2125 44.789 40.8937C46.0406 40.2469 46.7812 38.8594 46.7953 37.4812C46.8 37.0078 46.7953 36.5391 46.7953 36.0656C46.7953 34.9969 46.7953 33.9328 46.7953 32.8641C46.7953 31.4156 46.7953 29.9625 46.7953 28.5141C46.7953 26.8687 46.7953 25.2281 46.7953 23.5828C46.7953 21.9562 46.7953 20.3297 46.7953 18.7031C46.7953 17.3016 46.7953 15.9047 46.7953 14.5031C46.7953 13.5234 46.7953 12.5391 46.7953 11.5594C46.7953 11.2078 46.7953 10.8562 46.7953 10.5C46.7953 9.52031 45.9328 8.57813 44.9203 8.625C43.9031 8.67188 43.0406 9.45 43.0406 10.5Z" fill="#393D46"/>
<path d="M43.0406 15.5999C43.0406 17.4795 43.0406 19.3592 43.0406 21.2389C43.0406 21.5014 43.0406 21.7639 43.0406 22.0264C43.6641 21.403 44.2922 20.7749 44.9156 20.1514C44.5406 20.1514 44.1656 20.1514 43.7906 20.1514C42.7781 20.1514 41.7656 20.1514 40.7485 20.1514C39.2485 20.1514 37.7531 20.1514 36.2531 20.1514C34.4203 20.1514 32.5828 20.1514 30.75 20.1514C28.7485 20.1514 26.7469 20.1514 24.7453 20.1514C22.7157 20.1514 20.686 20.1514 18.661 20.1514C16.7766 20.1514 14.8922 20.1514 13.0078 20.1514C11.4094 20.1514 9.81096 20.1514 8.21252 20.1514C7.06877 20.1514 5.92502 20.1514 4.77659 20.1514C4.23284 20.1514 3.68909 20.142 3.15002 20.1514C3.12659 20.1514 3.10315 20.1514 3.07971 20.1514C3.70315 20.7749 4.33127 21.403 4.95471 22.0264C4.95471 20.1467 4.95471 18.267 4.95471 16.3874C4.95471 16.1249 4.95471 15.8624 4.95471 15.5999C4.33127 16.2233 3.70315 16.8514 3.07971 17.4749C3.45471 17.4749 3.82971 17.4749 4.20471 17.4749C5.21721 17.4749 6.22971 17.4749 7.2469 17.4749C8.7469 17.4749 10.2422 17.4749 11.7422 17.4749C13.575 17.4749 15.4125 17.4749 17.2453 17.4749C19.2469 17.4749 21.2485 17.4749 23.25 17.4749C25.2797 17.4749 27.3094 17.4749 29.3344 17.4749C31.2188 17.4749 33.1031 17.4749 34.9875 17.4749C36.586 17.4749 38.1844 17.4749 39.7828 17.4749C40.9266 17.4749 42.0703 17.4749 43.2188 17.4749C43.7625 17.4749 44.3063 17.4795 44.8453 17.4749C44.8688 17.4749 44.8922 17.4749 44.9156 17.4749C45.8953 17.4749 46.8375 16.6124 46.7906 15.5999C46.7438 14.5827 45.9656 13.7249 44.9156 13.7249C44.5406 13.7249 44.1656 13.7249 43.7906 13.7249C42.7781 13.7249 41.7656 13.7249 40.7485 13.7249C39.2485 13.7249 37.7531 13.7249 36.2531 13.7249C34.4203 13.7249 32.5828 13.7249 30.75 13.7249C28.7485 13.7249 26.7469 13.7249 24.7453 13.7249C22.7157 13.7249 20.686 13.7249 18.661 13.7249C16.7766 13.7249 14.8922 13.7249 13.0078 13.7249C11.4094 13.7249 9.81096 13.7249 8.21252 13.7249C7.06877 13.7249 5.92502 13.7249 4.77659 13.7249C4.23284 13.7249 3.68909 13.7202 3.15002 13.7249C3.12659 13.7249 3.10315 13.7249 3.07971 13.7249C2.06721 13.7249 1.20471 14.5827 1.20471 15.5999C1.20471 17.4795 1.20471 19.3592 1.20471 21.2389C1.20471 21.5014 1.20471 21.7639 1.20471 22.0264C1.20471 23.0389 2.06252 23.9014 3.07971 23.9014C3.45471 23.9014 3.82971 23.9014 4.20471 23.9014C5.21721 23.9014 6.22971 23.9014 7.2469 23.9014C8.7469 23.9014 10.2422 23.9014 11.7422 23.9014C13.575 23.9014 15.4125 23.9014 17.2453 23.9014C19.2469 23.9014 21.2485 23.9014 23.25 23.9014C25.2797 23.9014 27.3094 23.9014 29.3344 23.9014C31.2188 23.9014 33.1031 23.9014 34.9875 23.9014C36.586 23.9014 38.1844 23.9014 39.7828 23.9014C40.9266 23.9014 42.0703 23.9014 43.2188 23.9014C43.7625 23.9014 44.3063 23.9061 44.8453 23.9014C44.8688 23.9014 44.8922 23.9014 44.9156 23.9014C45.9281 23.9014 46.7906 23.0436 46.7906 22.0264C46.7906 20.1467 46.7906 18.267 46.7906 16.3874C46.7906 16.1249 46.7906 15.8624 46.7906 15.5999C46.7906 14.6202 45.9281 13.678 44.9156 13.7249C43.9031 13.767 43.0406 14.5452 43.0406 15.5999ZM9.8719 32.4655C11.1797 32.4655 12.4875 32.4655 13.7953 32.4655C15.8719 32.4655 17.9485 32.4655 20.025 32.4655C20.5031 32.4655 20.9813 32.4655 21.4547 32.4655C22.4344 32.4655 23.3766 31.603 23.3297 30.5905C23.2828 29.5733 22.5047 28.7155 21.4547 28.7155C20.1469 28.7155 18.8391 28.7155 17.5313 28.7155C15.4547 28.7155 13.3781 28.7155 11.3016 28.7155C10.8235 28.7155 10.3453 28.7155 9.8719 28.7155C8.89221 28.7155 7.95002 29.578 7.9969 30.5905C8.03909 31.6077 8.81721 32.4655 9.8719 32.4655Z" fill="#393D46"/>
</svg>
