<svg width="15" height="15" viewBox="0 0 15 15" fill="none" xmlns="http://www.w3.org/2000/svg">
<path d="M14.7087 12.9029L11.7961 9.99029C11.6505 9.87379 11.4757 9.78641 11.301 9.78641H10.835C11.6214 8.76699 12.1165 7.48544 12.1165 6.05825C12.1165 2.73786 9.37864 0 6.05825 0C2.70874 0 0 2.73786 0 6.05825C0 9.40777 2.70874 12.1165 6.05825 12.1165C7.45631 12.1165 8.73786 11.6505 9.78641 10.835V11.3301C9.78641 11.5049 9.84466 11.6796 9.99029 11.8252L12.8738 14.7087C13.165 15 13.6019 15 13.8641 14.7087L14.6796 13.8932C14.9709 13.6311 14.9709 13.1942 14.7087 12.9029ZM6.05825 9.78641C3.99029 9.78641 2.3301 8.12621 2.3301 6.05825C2.3301 4.01942 3.99029 2.3301 6.05825 2.3301C8.09709 2.3301 9.78641 4.01942 9.78641 6.05825C9.78641 8.12621 8.09709 9.78641 6.05825 9.78641Z" fill="#1B1D21"/>
</svg>
