<svg width="136" height="56" viewBox="0 0 136 56" fill="none" xmlns="http://www.w3.org/2000/svg">
<g clip-path="url(#clip0_319_5153)">
<path d="M0 24.335V29.2595C1.70283 29.2583 3.38919 29.589 4.96257 30.2325C6.53596 30.8761 7.96549 31.8199 9.16937 33.0101C10.373 34.1998 11.3275 35.6122 11.9783 37.1667C12.6292 38.7212 12.9636 40.3872 12.9625 42.0695H17.9421C17.9376 37.3679 16.0459 32.8602 12.6822 29.5354C9.3185 26.2106 4.75748 24.3403 0 24.335H0Z" fill="white"/>
<path d="M24.9033 15.4697H17.0117C21.0039 17.9699 24.3866 21.3123 26.9171 25.2571V17.4584C26.9167 16.9309 26.7043 16.425 26.3267 16.0521C25.9491 15.6792 25.4371 15.4697 24.9033 15.4697V15.4697Z" fill="white"/>
<path d="M4.95833 15.4697H0V19.9035C5.94699 19.9096 11.6487 22.2469 15.8539 26.4026C20.0591 30.5582 22.4244 36.1927 22.4308 42.0697H26.9167V37.1697C25.9024 31.7843 23.2617 26.8286 19.3421 22.9552C15.4225 19.0817 10.4079 16.472 4.95833 15.4697V15.4697Z" fill="white"/>
<path d="M39.1215 18.3975H35.9609V34.1405H39.1215V18.3975Z" fill="white"/>
<path d="M50.7423 25.2191C50.2161 24.7464 49.6002 24.3817 48.9303 24.146C47.4913 23.6466 45.9231 23.6466 44.4841 24.146C43.814 24.3815 43.1978 24.7463 42.6715 25.2191C42.1553 25.6894 41.743 26.2599 41.4603 26.8949C41.168 27.5877 41.0176 28.3308 41.0176 29.0813C41.0176 29.8319 41.168 30.575 41.4603 31.2678C41.7419 31.9046 42.1544 32.4767 42.6715 32.9478C43.1969 33.421 43.8127 33.7856 44.4827 34.0202C45.9216 34.5204 47.4901 34.5204 48.9289 34.0202C49.5992 33.7856 50.2152 33.421 50.7408 32.9478C51.2577 32.4765 51.6702 31.9045 51.9521 31.2678C52.2443 30.575 52.3948 29.8319 52.3948 29.0813C52.3948 28.3308 52.2443 27.5877 51.9521 26.8949C51.6696 26.2601 51.2578 25.6896 50.7423 25.2191ZM48.5719 30.9353C48.0601 31.3909 47.3957 31.643 46.7069 31.643C46.0181 31.643 45.3536 31.3909 44.8418 30.9353C44.4117 30.4105 44.1769 29.7557 44.1769 29.0803C44.1769 28.4049 44.4117 27.7501 44.8418 27.2253C45.3536 26.7697 46.0181 26.5176 46.7069 26.5176C47.3957 26.5176 48.0601 26.7697 48.5719 27.2253C49.0021 27.7501 49.2368 28.4049 49.2368 29.0803C49.2368 29.7557 49.0021 30.4105 48.5719 30.9353V30.9353Z" fill="white"/>
<path d="M62.0906 25.3538H62.051C61.9048 25.1511 61.735 24.9659 61.5452 24.8022C61.3152 24.6012 61.0606 24.4295 60.7873 24.2912C60.0965 23.9409 59.3296 23.7624 58.5532 23.7711C57.8728 23.7594 57.2 23.9132 56.594 24.2191C56.0293 24.5081 55.5307 24.9086 55.1291 25.3958C54.7196 25.898 54.4055 26.4693 54.2019 27.0821C53.9854 27.7135 53.8751 28.3756 53.8754 29.0421C53.8674 29.7576 53.9888 30.4688 54.2338 31.1421C54.4558 31.7566 54.8019 32.3201 55.251 32.7983C55.6984 33.2664 56.2414 33.635 56.844 33.8798C57.4992 34.1437 58.2014 34.2747 58.9088 34.2648C59.4321 34.2559 59.9494 34.1537 60.436 33.9631C60.9816 33.7586 61.4543 33.4 61.7952 32.932H61.8378V33.912C61.8496 34.2389 61.7951 34.5648 61.6775 34.8705C61.5598 35.1763 61.3814 35.4556 61.1528 35.6921C60.8627 35.9458 60.5235 36.1386 60.1558 36.2589C59.7881 36.3792 59.3996 36.4246 59.0136 36.3921C58.4017 36.3989 57.7952 36.2782 57.2336 36.0379C56.6748 35.7912 56.1534 35.4689 55.6845 35.0803L53.9356 37.6598C54.6504 38.2288 55.486 38.6311 56.38 38.8365C57.2647 39.0376 58.1696 39.1388 59.0774 39.1382C61.072 39.1382 62.5574 38.6419 63.5335 37.6493C64.5096 36.6567 64.9979 35.2026 64.9983 33.2869V24.021H62.0942L62.0906 25.3538ZM61.9008 29.9661C61.7761 30.2625 61.5934 30.5315 61.3632 30.7578C61.1288 30.9886 60.854 31.1755 60.5521 31.3094C60.2387 31.447 59.8995 31.5181 59.5566 31.5181C59.2136 31.5181 58.8744 31.447 58.561 31.3094C58.2632 31.1736 57.9919 30.9869 57.7599 30.7578C57.5287 30.5296 57.3452 30.2585 57.2201 29.9602C57.0949 29.6618 57.0305 29.342 57.0305 29.019C57.0305 28.6961 57.0949 28.3763 57.2201 28.0779C57.3452 27.7795 57.5287 27.5085 57.7599 27.2802C57.9921 27.0512 58.2633 26.8642 58.561 26.7279C58.8746 26.5908 59.2137 26.52 59.5566 26.52C59.8994 26.52 60.2386 26.5908 60.5521 26.7279C60.8539 26.8623 61.1286 27.0494 61.3632 27.2802C61.7109 27.6256 61.9474 28.0649 62.0431 28.5428C62.1388 29.0207 62.0893 29.516 61.9008 29.9661V29.9661Z" fill="white"/>
<path d="M76.8712 25.2191C76.345 24.7464 75.7291 24.3817 75.0593 24.146C73.6202 23.6466 72.052 23.6466 70.613 24.146C69.9429 24.3815 69.3267 24.7463 68.8004 25.2191C68.2842 25.6894 67.8719 26.2599 67.5892 26.8949C67.2969 27.5877 67.1465 28.3308 67.1465 29.0813C67.1465 29.8319 67.2969 30.575 67.5892 31.2678C67.8708 31.9046 68.2833 32.4767 68.8004 32.9478C69.3262 33.4211 69.9425 33.7857 70.613 34.0202C72.0519 34.5204 73.6204 34.5204 75.0593 34.0202C75.7295 33.7856 76.3455 33.421 76.8712 32.9478C77.3883 32.4767 77.8007 31.9046 78.0824 31.2678C78.3746 30.575 78.5251 29.8319 78.5251 29.0813C78.5251 28.3308 78.3746 27.5877 78.0824 26.8949C77.7997 26.2599 77.3873 25.6894 76.8712 25.2191V25.2191ZM74.7008 30.9353C74.189 31.3909 73.5246 31.643 72.8358 31.643C72.147 31.643 71.4825 31.3909 70.9707 30.9353C70.5406 30.4105 70.3059 29.7557 70.3059 29.0803C70.3059 28.4049 70.5406 27.7501 70.9707 27.2253C71.4825 26.7697 72.147 26.5176 72.8358 26.5176C73.5246 26.5176 74.189 26.7697 74.7008 27.2253C75.131 27.7501 75.3657 28.4049 75.3657 29.0803C75.3657 29.7557 75.131 30.4105 74.7008 30.9353Z" fill="white"/>
<path d="M82.7185 24.0908H81.0234V34.1407H82.7185V24.0908Z" fill="white"/>
<path d="M81.8708 18.9377C81.7064 18.9346 81.5432 18.9655 81.3916 19.0283C81.24 19.0911 81.1033 19.1844 80.9903 19.3024C80.818 19.4741 80.7009 19.6924 80.6539 19.9298C80.6069 20.1671 80.6321 20.4129 80.7262 20.6362C80.8203 20.8594 80.9792 21.0502 81.1828 21.1843C81.3865 21.3185 81.6257 21.3901 81.8704 21.3901C82.1152 21.3901 82.3544 21.3185 82.5581 21.1843C82.7617 21.0502 82.9206 20.8594 83.0147 20.6362C83.1088 20.4129 83.134 20.1671 83.087 19.9298C83.0399 19.6924 82.9229 19.4741 82.7505 19.3024C82.6377 19.1844 82.5012 19.091 82.3497 19.0282C82.1982 18.9654 82.0351 18.9346 81.8708 18.9377V18.9377Z" fill="white"/>
<path d="M95.2553 25.3399C94.7784 24.8588 94.2049 24.4818 93.5716 24.2332C92.8765 23.9625 92.1348 23.8277 91.3878 23.8363C90.684 23.8283 89.9881 23.983 89.3555 24.2878C88.7325 24.594 88.181 25.0253 87.7363 25.5541H87.691V24.0911H85.998V39.0375H87.691V32.3595H87.7342C88.094 32.972 88.6184 33.474 89.2493 33.8099C89.9817 34.2152 90.8106 34.4192 91.6498 34.4007C92.3369 34.405 93.0175 34.2697 93.6495 34.0031C94.2596 33.7474 94.8104 33.371 95.268 32.8971C95.7327 32.4129 96.098 31.8443 96.344 31.2227C96.8653 29.8668 96.8653 28.3689 96.344 27.0129C96.0959 26.39 95.7259 25.8214 95.2553 25.3399V25.3399ZM94.6574 30.5899C94.4994 31.0275 94.2523 31.4284 93.9312 31.7678C93.6102 32.1072 93.2221 32.378 92.791 32.5632C91.8377 32.949 90.7692 32.949 89.816 32.5632C89.3842 32.378 88.9956 32.107 88.6742 31.7672C88.3527 31.4274 88.1054 31.026 87.9474 30.5878C87.6147 29.6354 87.6147 28.6002 87.9474 27.6478C88.1054 27.2097 88.3527 26.8082 88.6742 26.4684C88.9956 26.1286 89.3842 25.8577 89.816 25.6724C90.7692 25.2866 91.8377 25.2866 92.791 25.6724C93.2227 25.8577 93.6113 26.1286 93.9328 26.4684C94.2542 26.8082 94.5016 27.2097 94.6596 27.6478C94.9923 28.6002 94.9923 29.6354 94.6596 30.5878L94.6574 30.5899Z" fill="white"/>
<path d="M105.274 29.12C104.952 28.882 104.593 28.6971 104.211 28.5726C103.792 28.4328 103.364 28.3215 102.929 28.2394C102.603 28.1844 102.281 28.1129 101.962 28.0252C101.679 27.949 101.402 27.8483 101.136 27.7242C100.924 27.6288 100.731 27.4938 100.57 27.3266C100.432 27.1771 100.359 26.9811 100.364 26.7792C100.36 26.5614 100.425 26.3478 100.548 26.1674C100.67 25.9892 100.83 25.8391 101.015 25.7271C101.214 25.6083 101.431 25.5214 101.657 25.4695C101.889 25.4128 102.127 25.3839 102.365 25.3834C102.82 25.3694 103.269 25.4851 103.658 25.7166C104.01 25.9353 104.304 26.2332 104.517 26.586L105.929 25.6627C105.616 25.0524 105.108 24.5615 104.483 24.2662C103.854 23.9774 103.168 23.8308 102.474 23.8371C102.003 23.836 101.535 23.9011 101.083 24.0303C100.65 24.1524 100.239 24.3414 99.8657 24.5903C99.5085 24.8286 99.2112 25.1444 98.9965 25.5136C98.7742 25.9068 98.6618 26.3513 98.6707 26.8016C98.653 27.2424 98.7542 27.6799 98.964 28.0693C99.1553 28.395 99.4224 28.6709 99.7431 28.8743C100.097 29.095 100.481 29.2649 100.884 29.379C101.318 29.5078 101.775 29.6224 102.253 29.7227C102.529 29.7801 102.797 29.8445 103.057 29.9159C103.301 29.9806 103.535 30.0782 103.752 30.2057C103.944 30.318 104.11 30.4679 104.241 30.646C104.372 30.8433 104.436 31.0762 104.426 31.3117C104.434 31.5592 104.366 31.8032 104.23 32.0117C104.095 32.2093 103.917 32.3744 103.709 32.4947C103.484 32.6274 103.238 32.7221 102.981 32.7747C102.72 32.8313 102.454 32.8601 102.188 32.8608C101.66 32.881 101.136 32.7544 100.677 32.4954C100.255 32.2299 99.8839 31.893 99.5802 31.5L98.2344 32.5311C98.651 33.1705 99.2424 33.6802 99.94 34.0011C100.655 34.2816 101.42 34.4168 102.189 34.3987C102.69 34.3991 103.189 34.3416 103.676 34.2272C104.14 34.1213 104.581 33.936 104.981 33.6798C105.362 33.4298 105.677 33.0939 105.901 32.6998C106.145 32.2525 106.265 31.75 106.25 31.2424C106.264 30.806 106.174 30.3725 105.989 29.9761C105.821 29.6401 105.576 29.3471 105.274 29.12V29.12Z" fill="white"/>
<path d="M117.485 31.7572V24.0908H115.79V28.9908C115.796 29.5191 115.733 30.0459 115.605 30.5588C115.497 30.9985 115.304 31.4137 115.039 31.7824C114.786 32.1252 114.45 32.3986 114.06 32.5769C113.613 32.7733 113.127 32.869 112.637 32.8569C112.306 32.8834 111.974 32.8309 111.667 32.7038C111.361 32.5768 111.09 32.3789 110.877 32.1268C110.47 31.5414 110.271 30.839 110.311 30.1297V24.0908H108.615V30.297C108.61 30.8596 108.687 31.42 108.844 31.9609C108.98 32.4405 109.222 32.8844 109.552 33.2608C109.882 33.6288 110.294 33.9163 110.756 34.1008C111.306 34.313 111.893 34.4153 112.484 34.4018C112.881 34.405 113.276 34.3505 113.657 34.2401C114.001 34.1411 114.33 33.9968 114.635 33.811C114.912 33.6423 115.164 33.4364 115.384 33.1992C115.582 32.9882 115.747 32.7492 115.874 32.4901H115.917C115.917 32.7771 115.924 33.0571 115.939 33.3301C115.954 33.6031 115.961 33.8752 115.96 34.1463H117.569C117.569 33.8164 117.554 33.4512 117.525 33.0508C117.496 32.6504 117.482 32.2192 117.485 31.7572Z" fill="white"/>
<path d="M135.805 26.292C135.691 25.8057 135.468 25.351 135.152 24.962C134.833 24.5856 134.422 24.2964 133.957 24.122C133.372 23.9134 132.753 23.8151 132.132 23.8322C131.457 23.8031 130.79 23.9792 130.219 24.3369C129.691 24.7116 129.247 25.1907 128.916 25.7439C128.829 25.5717 128.717 25.3748 128.579 25.1531C128.425 24.9138 128.23 24.7029 128.003 24.5301C127.724 24.3204 127.413 24.155 127.082 24.0401C126.638 23.8924 126.17 23.8232 125.702 23.8357C125.305 23.8325 124.909 23.887 124.529 23.9974C124.185 24.0964 123.855 24.2407 123.55 24.4265C123.273 24.5955 123.021 24.8013 122.801 25.0383C122.603 25.2493 122.438 25.4883 122.312 25.7474H122.268C122.268 25.4604 122.261 25.1818 122.247 24.9074C122.233 24.633 122.225 24.3635 122.225 24.0912H120.617C120.617 24.4211 120.632 24.7863 120.66 25.1867C120.689 25.5871 120.704 26.0167 120.704 26.4754V34.1411H122.4V29.2453C122.395 28.7168 122.457 28.1897 122.585 27.6766C122.693 27.2368 122.885 26.8214 123.152 26.453C123.404 26.1101 123.74 25.8366 124.129 25.6585C124.577 25.462 125.063 25.3663 125.553 25.3785C125.843 25.354 126.134 25.4059 126.398 25.5288C126.661 25.6518 126.887 25.8414 127.052 26.0785C127.416 26.815 127.573 27.6344 127.509 28.4515V34.1425H129.2V28.3423C129.195 27.929 129.265 27.5181 129.407 27.1292C129.532 26.7845 129.725 26.4672 129.974 26.1954C130.208 25.9409 130.493 25.7363 130.81 25.5941C131.131 25.4506 131.479 25.3773 131.832 25.3792C132.25 25.3642 132.667 25.4449 133.048 25.6151C133.349 25.7588 133.61 25.9729 133.808 26.2388C133.999 26.502 134.133 26.8017 134.2 27.1187C134.273 27.4504 134.309 27.7888 134.309 28.1281V34.1411H136V28.042C136.006 27.453 135.941 26.8655 135.805 26.292Z" fill="white"/>
</g>
<defs>
<clipPath id="clip0_319_5153">
<rect width="136" height="56" fill="white"/>
</clipPath>
</defs>
</svg>
