<svg width="17" height="17" viewBox="0 0 17 17" fill="none" xmlns="http://www.w3.org/2000/svg">
<path fill-rule="evenodd" clip-rule="evenodd" d="M8.01787 7.77176L9.00395 4.12021C9.00531 4.09318 9.00951 4.06636 9.01648 4.04019L10.03 0.287643C10.0569 0.188098 10.1227 0.103266 10.2127 0.0518275C10.3028 0.000388876 10.4098 -0.013439 10.5101 0.0133887L15.0489 1.21995C15.2578 1.27533 15.3819 1.48819 15.3261 1.69543L14.3126 5.44798C14.2858 5.54767 14.2202 5.63269 14.1301 5.68428C14.04 5.73588 13.933 5.74981 13.8325 5.72301L10.0582 4.71922L9.21855 7.82848C13.2913 8.31561 16.4477 11.7558 16.4477 15.9271C16.4477 16.1417 16.2724 16.3156 16.0561 16.3156H0.391612C0.175331 16.3156 0 16.1417 0 15.9271C0 11.4909 3.5715 7.88053 8.01787 7.77176ZM10.9651 13.9848C11.8303 13.9848 12.5316 13.2891 12.5316 12.431C12.5316 11.5728 11.8303 10.8771 10.9651 10.8771C10.1 10.8771 9.39869 11.5728 9.39869 12.431C9.39869 13.2891 10.1 13.9848 10.9651 13.9848ZM4.69935 14.3733C4.69935 15.0169 4.17335 15.5387 3.52451 15.5387C2.87567 15.5387 2.34967 15.0169 2.34967 14.3733C2.34967 13.7297 2.87567 13.2079 3.52451 13.2079C4.17335 13.2079 4.69935 13.7297 4.69935 14.3733ZM6.43984 11.0498C6.87241 11.0498 7.22307 10.7019 7.22307 10.2729C7.22307 9.84377 6.87241 9.49593 6.43984 9.49593C6.00728 9.49593 5.65662 9.84377 5.65662 10.2729C5.65662 10.7019 6.00728 11.0498 6.43984 11.0498ZM16.7109 4.07437L15.576 3.77293V3.77215L15.0692 5.64843C14.9888 5.94732 14.7919 6.20223 14.5219 6.357C14.2519 6.51177 13.9309 6.55369 13.6297 6.47352L10.9824 5.76885L10.6785 6.89539C10.6227 7.1024 10.7464 7.31515 10.955 7.37087L15.4945 8.57743C15.7032 8.6328 15.9177 8.51009 15.9739 8.30318L16.9874 4.55063C17.0144 4.4511 17.0005 4.345 16.9486 4.25567C16.8967 4.16635 16.8112 4.10113 16.7109 4.07437Z" fill="#132A73"/>
</svg>
