<svg width="18" height="18" viewBox="0 0 18 18" fill="none" xmlns="http://www.w3.org/2000/svg">
<path d="M9 0C4.02823 0 0 4.06452 0 9C0 13.9718 4.02823 18 9 18C13.9355 18 18 13.9718 18 9C18 4.06452 13.9355 0 9 0ZM9 3.99194C9.83468 3.99194 10.5242 4.68145 10.5242 5.51613C10.5242 6.3871 9.83468 7.04032 9 7.04032C8.12903 7.04032 7.47581 6.3871 7.47581 5.51613C7.47581 4.68145 8.12903 3.99194 9 3.99194ZM11.0323 13.2097C11.0323 13.4637 10.8145 13.6452 10.5968 13.6452H7.40323C7.14919 13.6452 6.96774 13.4637 6.96774 13.2097V12.3387C6.96774 12.121 7.14919 11.9032 7.40323 11.9032H7.83871V9.58065H7.40323C7.14919 9.58065 6.96774 9.39919 6.96774 9.14516V8.27419C6.96774 8.05645 7.14919 7.83871 7.40323 7.83871H9.72581C9.94355 7.83871 10.1613 8.05645 10.1613 8.27419V11.9032H10.5968C10.8145 11.9032 11.0323 12.121 11.0323 12.3387V13.2097Z" fill="#0048B9"/>
</svg>
