<svg width="52" height="52" viewBox="0 0 52 52" fill="none" xmlns="http://www.w3.org/2000/svg">
<g clip-path="url(#clip0_2_1900)">
<g filter="url(#filter0_d_2_1900)">
<circle cx="26" cy="26" r="26" fill="white"/>
</g>
<path d="M24.75 30.625V25.0391C24.75 24.3359 24.1641 23.7891 23.5 23.7891H21.625C20.2188 23.7891 19.125 24.9219 19.125 26.2891V29.375C19.125 30.7812 20.2188 31.875 21.625 31.875H23.5C24.1641 31.875 24.75 31.3281 24.75 30.625ZM22.875 30H21.625C21.2734 30 21 29.7266 21 29.375V26.2891C21 25.9375 21.2734 25.6641 21.625 25.6641H22.875V30ZM26 17.5C20.4141 17.5 16.1562 22.1484 16 27.5V28.125C16 28.4766 16.2734 28.75 16.625 28.75H17.25C17.5625 28.75 17.875 28.4766 17.875 28.125V27.5C17.875 23.0469 21.5078 19.375 26 19.375C30.4531 19.375 34.125 23.0469 34.125 27.5H34.0859C34.0859 27.6172 34.125 33.9844 34.125 33.9844C34.125 34.9219 33.3828 35.625 32.4453 35.625H28.5C28.5 34.6094 27.6406 33.75 26.625 33.75H25.375C24.3203 33.75 23.5 34.6094 23.5 35.625C23.5 36.6797 24.3203 37.5 25.375 37.5H32.4453C34.3984 37.5 36 35.9375 36 33.9844V27.5C35.8047 22.1484 31.5469 17.5 26 17.5ZM30.375 31.875C31.7422 31.875 32.875 30.7812 32.875 29.375V26.2891C32.875 24.9219 31.7422 23.7891 30.375 23.7891H28.5C27.7969 23.7891 27.25 24.3359 27.25 25.0391V30.625C27.25 31.3281 27.7969 31.875 28.5 31.875H30.375ZM29.125 25.6641H30.375C30.6875 25.6641 31 25.9375 31 26.2891V29.375C31 29.7266 30.6875 30 30.375 30H29.125V25.6641Z" fill="#7EB23D"/>
</g>
<defs>
<filter id="filter0_d_2_1900" x="-15" y="-13" width="82" height="82" filterUnits="userSpaceOnUse" color-interpolation-filters="sRGB">
<feFlood flood-opacity="0" result="BackgroundImageFix"/>
<feColorMatrix in="SourceAlpha" type="matrix" values="0 0 0 0 0 0 0 0 0 0 0 0 0 0 0 0 0 0 127 0" result="hardAlpha"/>
<feOffset dy="2"/>
<feGaussianBlur stdDeviation="7.5"/>
<feColorMatrix type="matrix" values="0 0 0 0 0.717647 0 0 0 0 0.741176 0 0 0 0 0.768627 0 0 0 0.570852 0"/>
<feBlend mode="normal" in2="BackgroundImageFix" result="effect1_dropShadow_2_1900"/>
<feBlend mode="normal" in="SourceGraphic" in2="effect1_dropShadow_2_1900" result="shape"/>
</filter>
<clipPath id="clip0_2_1900">
<rect width="52" height="52" fill="white"/>
</clipPath>
</defs>
</svg>
