<svg width="40" height="40" viewBox="0 0 40 40" fill="none" xmlns="http://www.w3.org/2000/svg">
<path d="M19.9997 3.33301C16.7033 3.33301 13.481 4.31049 10.7402 6.14185C7.99936 7.9732 5.86315 10.5762 4.60169 13.6216C3.34023 16.6671 3.01017 20.0182 3.65326 23.2512C4.29635 26.4842 5.88369 29.4539 8.21457 31.7848C10.5454 34.1157 13.5152 35.703 16.7482 36.3461C19.9812 36.9892 23.3323 36.6591 26.3777 35.3977C29.4232 34.1362 32.0261 32 33.8575 29.2592C35.6889 26.5184 36.6663 23.296 36.6663 19.9997C36.6615 15.5809 34.904 11.3445 31.7794 8.21992C28.6549 5.09537 24.4185 3.33786 19.9997 3.33301V3.33301ZM19.9997 33.333C17.3626 33.333 14.7847 32.551 12.5921 31.0859C10.3994 29.6209 8.69046 27.5385 7.68129 25.1021C6.67212 22.6658 6.40808 19.9849 6.92255 17.3985C7.43701 14.8121 8.70689 12.4363 10.5716 10.5716C12.4363 8.70688 14.8121 7.43701 17.3985 6.92254C19.9849 6.40807 22.6658 6.67211 25.1021 7.68128C27.5385 8.69045 29.6209 10.3994 31.0859 12.5921C32.551 14.7847 33.333 17.3626 33.333 19.9997C33.329 23.5347 31.923 26.9238 29.4234 29.4234C26.9238 31.923 23.5347 33.329 19.9997 33.333V33.333Z" fill="#F86338"/>
<path d="M27.1543 13.8213L18.3326 22.643L14.511 18.8213L12.1543 21.178L18.3326 27.3563L29.511 16.178L27.1543 13.8213Z" fill="#F86338"/>
</svg>
