<svg width="34" height="34" viewBox="0 0 34 34" fill="none" xmlns="http://www.w3.org/2000/svg">
<g clip-path="url(#clip0_168_5406)">
<path d="M33.9995 9.9162C33.9996 9.66169 33.931 9.41187 33.8012 9.19299C33.6713 8.97412 33.4848 8.79427 33.2614 8.67236L17.6781 0.172363C17.4699 0.0587846 17.2366 -0.000732422 16.9995 -0.000732422C16.7624 -0.000732422 16.5291 0.0587846 16.3209 0.172363L0.737588 8.67236C0.514086 8.79421 0.327545 8.97403 0.197579 9.19291C0.0676127 9.41178 -0.000976563 9.66164 -0.000976562 9.9162C-0.000976563 10.1708 0.0676127 10.4206 0.197579 10.6395C0.327545 10.8584 0.514086 11.0382 0.737588 11.16L4.94934 13.4579L0.737588 15.7557C0.514086 15.8775 0.327545 16.0574 0.197579 16.2762C0.0676127 16.4951 -0.000976563 16.745 -0.000976562 16.9995C-0.000976563 17.2541 0.0676127 17.5039 0.197579 17.7228C0.327545 17.9417 0.514086 18.1215 0.737588 18.2434L4.94934 20.5412L0.737588 22.839C0.514086 22.9609 0.327545 23.1407 0.197579 23.3596C0.0676127 23.5784 -0.000976563 23.8283 -0.000976562 24.0829C-0.000976563 24.3374 0.0676127 24.5873 0.197579 24.8062C0.327545 25.025 0.514086 25.2048 0.737588 25.3267L16.3209 33.8267C16.5312 33.9336 16.7637 33.9893 16.9995 33.9893C17.2353 33.9893 17.4679 33.9336 17.6781 33.8267L33.2614 25.3267C33.4849 25.2048 33.6715 25.025 33.8014 24.8062C33.9314 24.5873 34 24.3374 34 24.0829C34 23.8283 33.9314 23.5784 33.8014 23.3596C33.6715 23.1407 33.4849 22.9609 33.2614 22.839L29.0497 20.5412L33.2614 18.2448C33.4849 18.1229 33.6715 17.9431 33.8014 17.7242C33.9314 17.5054 34 17.2555 34 17.0009C34 16.7464 33.9314 16.4965 33.8014 16.2777C33.6715 16.0588 33.4849 15.879 33.2614 15.7571L29.0497 13.4579L33.2614 11.1614C33.485 11.0394 33.6716 10.8594 33.8015 10.6402C33.9314 10.4211 33.9998 10.1709 33.9995 9.9162ZM29.6248 24.0829L16.9995 30.9693L4.37417 24.0829L7.90734 22.1534L16.3209 26.7434C16.5298 26.8546 16.7628 26.9128 16.9995 26.9128C17.2362 26.9128 17.4692 26.8546 17.6781 26.7434L26.0917 22.1534L29.6248 24.0829ZM29.6248 16.9995L16.9995 23.8859L4.37417 16.9995L7.90734 15.07L16.3209 19.66C16.5295 19.7724 16.7626 19.8312 16.9995 19.8312C17.2364 19.8312 17.4695 19.7724 17.6781 19.66L26.0917 15.07L29.6248 16.9995ZM16.9995 16.8026L4.37417 9.9162L16.9995 3.02978L29.6248 9.9162L16.9995 16.8026Z" fill="#2130B8"/>
</g>
<defs>
<clipPath id="clip0_168_5406">
<rect width="34" height="34" fill="white"/>
</clipPath>
</defs>
</svg>
