<svg width="16" height="10" viewBox="0 0 16 10" fill="none" xmlns="http://www.w3.org/2000/svg">
<path d="M7.37615 9.43119C7.52294 9.65138 7.74312 9.72477 8 9.72477C8.22018 9.72477 8.44037 9.65138 8.62385 9.43119L15.7431 2.31193C15.8899 2.16514 16 1.94495 16 1.68807C16 1.46789 15.8899 1.24771 15.7431 1.06422L14.9358 0.256881C14.7523 0.110092 14.5321 0 14.3119 0C14.055 0 13.8349 0.0733945 13.6881 0.220183L8 5.90826L2.31193 0.220183C2.12844 0.0733945 1.90826 0 1.68807 0C1.43119 0 1.21101 0.110092 1.06422 0.256881L0.256881 1.06422C0.0733945 1.24771 0 1.46789 0 1.68807C0 1.94495 0.0733945 2.16514 0.256881 2.31193L7.37615 9.43119Z" fill="#8D8E90"/>
</svg>
