<svg width="24" height="24" viewBox="0 0 24 24" fill="none" xmlns="http://www.w3.org/2000/svg">
<path fill-rule="evenodd" clip-rule="evenodd" d="M23.9998 4.79995C23.9998 2.14918 21.8506 0 19.1998 0C15.2039 0 8.79472 0 4.79995 0C2.14798 0 0 2.14918 0 4.79995V22.7998C0 23.2858 0.291598 23.7226 0.740394 23.9086C1.18919 24.0946 1.70518 23.9914 2.04838 23.6482C2.04838 23.6482 4.37996 21.3166 5.79354 19.903C6.24354 19.453 6.85434 19.1998 7.49033 19.1998H19.1998C21.8506 19.1998 23.9998 17.0518 23.9998 14.3999V4.79995ZM21.5998 4.79995C21.5998 3.47517 20.5246 2.39998 19.1998 2.39998C15.2039 2.39998 8.79472 2.39998 4.79995 2.39998C3.47397 2.39998 2.39998 3.47517 2.39998 4.79995V19.903L4.09676 18.2062C4.99675 17.3062 6.21714 16.7998 7.49033 16.7998H19.1998C20.5246 16.7998 21.5998 15.7259 21.5998 14.3999V4.79995ZM13.1999 13.1999V9.59991C13.1999 8.93752 12.6611 8.39992 11.9999 8.39992C11.3375 8.39992 10.7999 8.93752 10.7999 9.59991V13.1999C10.7999 13.8623 11.3375 14.3999 11.9999 14.3999C12.6611 14.3999 13.1999 13.8623 13.1999 13.1999ZM11.9999 4.79995C12.6611 4.79995 13.1999 5.33755 13.1999 5.99994C13.1999 6.66234 12.6611 7.19993 11.9999 7.19993C11.3375 7.19993 10.7999 6.66234 10.7999 5.99994C10.7999 5.33755 11.3375 4.79995 11.9999 4.79995Z" fill="white" fill-opacity="0.8"/>
</svg>
