<svg width="265" height="48" viewBox="0 0 265 48" fill="none" xmlns="http://www.w3.org/2000/svg">
<circle cx="96" cy="23" r="23" fill="#2E2E30"/>
<path fill-rule="evenodd" clip-rule="evenodd" d="M95.5 11C88.599 11 83 16.599 83 23.5C83 30.401 88.599 36 95.5 36C102.387 36 108 30.401 108 23.5C108 16.599 102.387 11 95.5 11ZM103.756 16.7615C105.295 18.6358 106.147 20.9801 106.17 23.4052C105.818 23.3375 102.293 22.6187 98.7406 23.0667C98.6583 22.8896 98.5906 22.7 98.5094 22.5104C98.2885 21.989 98.0537 21.4735 97.8052 20.9646C101.736 19.3646 103.526 17.0604 103.756 16.7615V16.7615ZM95.5 12.8448C98.2115 12.8448 100.693 13.8604 102.577 15.5281C102.387 15.799 100.774 17.9552 96.9781 19.3781C95.2281 16.1656 93.2906 13.5344 92.9917 13.1281C93.8139 12.9361 94.6557 12.8407 95.5 12.8437V12.8448ZM90.9583 13.8469C91.2427 14.2271 93.1406 16.8708 94.9167 20.0156C89.9271 21.3448 85.5208 21.3177 85.0469 21.3177C85.7385 18.0094 87.976 15.2573 90.9583 13.8469ZM84.8167 23.5135V23.1885C85.2781 23.2021 90.4562 23.2698 95.7854 21.6698C96.0969 22.2667 96.3812 22.876 96.6521 23.4865C96.5167 23.5271 96.3677 23.5677 96.2323 23.6083C90.7281 25.3844 87.799 30.2375 87.5552 30.6448C85.7921 28.688 84.8165 26.1474 84.8167 23.5135V23.5135ZM95.5 34.1833C93.0323 34.1833 90.7552 33.3427 88.9521 31.9333C89.1417 31.5396 91.3104 27.3635 97.3302 25.2625C97.3573 25.249 97.3719 25.249 97.3979 25.2354C98.9031 29.126 99.5125 32.3938 99.676 33.3292C98.3875 33.8854 96.9781 34.1833 95.5 34.1833ZM101.452 32.3531C101.344 31.7021 100.774 28.5844 99.3771 24.7469C102.726 24.2187 105.654 25.0865 106.021 25.2083C105.559 28.1771 103.851 30.7396 101.452 32.3531Z" fill="white"/>
<circle cx="169" cy="24" r="23" fill="#2E2E30"/>
<path d="M180.643 17.1427C179.808 17.5281 178.912 17.7885 177.969 17.9062C178.942 17.2998 179.669 16.3453 180.017 15.2208C179.102 15.7864 178.102 16.1846 177.059 16.3979C176.357 15.6175 175.428 15.1003 174.415 14.9265C173.402 14.7527 172.363 14.9321 171.458 15.4367C170.553 15.9413 169.833 16.7431 169.411 17.7174C168.988 18.6917 168.886 19.7841 169.12 20.825C167.268 20.7281 165.456 20.2266 163.802 19.353C162.148 18.4794 160.688 17.2533 159.518 15.7541C159.118 16.4729 158.889 17.3062 158.889 18.1937C158.888 18.9927 159.077 19.7794 159.438 20.4841C159.8 21.1888 160.323 21.7896 160.961 22.2333C160.221 22.2088 159.497 22.0006 158.851 21.626V21.6885C158.85 22.8091 159.223 23.8952 159.904 24.7625C160.585 25.6298 161.533 26.2249 162.588 26.4469C161.901 26.6403 161.182 26.6688 160.484 26.5302C160.781 27.4944 161.36 28.3375 162.141 28.9416C162.921 29.5456 163.863 29.8804 164.836 29.8989C163.185 31.2483 161.147 31.9803 159.049 31.9771C158.678 31.9772 158.307 31.9546 157.938 31.9094C160.067 33.3356 162.546 34.0925 165.077 34.0896C173.647 34.0896 178.333 26.6958 178.333 20.2833C178.333 20.075 178.328 19.8646 178.319 19.6562C179.23 18.9697 180.016 18.1197 180.642 17.1458L180.643 17.1427V17.1427Z" fill="white"/>
<circle cx="242" cy="25" r="23" fill="#2E2E30"/>
<path fill-rule="evenodd" clip-rule="evenodd" d="M239.429 21.969H243.143V23.819C243.678 22.755 245.05 21.799 247.111 21.799C251.062 21.799 252 23.917 252 27.803V35H248V28.688C248 26.475 247.465 25.227 246.103 25.227C244.214 25.227 243.429 26.572 243.429 28.687V35H239.429V21.969V21.969ZM232.57 34.83H236.57V21.799H232.57V34.83V34.83ZM237.143 17.55C237.143 17.8853 237.077 18.2172 236.947 18.5266C236.818 18.8359 236.629 19.1165 236.39 19.352C235.906 19.8326 235.252 20.1017 234.57 20.1C233.889 20.0995 233.236 19.8312 232.752 19.353C232.514 19.1167 232.325 18.8358 232.196 18.5264C232.067 18.217 232.001 17.8852 232 17.55C232 16.873 232.27 16.225 232.753 15.747C233.237 15.2682 233.89 14.9997 234.571 15C235.253 15 235.907 15.269 236.39 15.747C236.872 16.225 237.143 16.873 237.143 17.55Z" fill="white"/>
<circle cx="23" cy="23" r="23" fill="#2E2E30"/>
<path fill-rule="evenodd" clip-rule="evenodd" d="M11 23.5698C11 29.7844 15.333 34.9521 21 36V26.9719H18V23.5H21V20.7219C21 17.5969 22.933 15.8615 25.667 15.8615C26.533 15.8615 27.467 16 28.333 16.1385V19.3333H26.8C25.333 19.3333 25 20.0969 25 21.0698V23.5H28.2L27.667 26.9719H25V36C30.667 34.9521 35 29.7854 35 23.5698C35 16.6563 29.6 11 23 11C16.4 11 11 16.6563 11 23.5698Z" fill="white"/>
</svg>
