<svg width="146" height="40" viewBox="0 0 146 40" fill="none" xmlns="http://www.w3.org/2000/svg">
<path d="M145.5 20C145.5 30.7696 136.77 39.5 126 39.5C115.23 39.5 106.5 30.7696 106.5 20C106.5 9.23045 115.23 0.5 126 0.5C136.77 0.5 145.5 9.23045 145.5 20Z" stroke="#DCDCDC"/>
<path fill-rule="evenodd" clip-rule="evenodd" d="M124.089 26C128.994 26 131.677 21.7675 131.677 18.0975C131.677 17.977 131.677 17.8572 131.669 17.7381C132.191 17.3455 132.642 16.8581 133 16.3004C132.514 16.5251 131.997 16.6727 131.469 16.7377C132.025 16.3904 132.442 15.8449 132.641 15.2012C132.117 15.5247 131.545 15.7528 130.947 15.8753C129.937 14.7571 128.248 14.703 127.173 15.7548C126.481 16.4331 126.187 17.4443 126.402 18.4089C124.257 18.2965 122.259 17.2419 120.905 15.5071C120.197 16.7762 120.559 18.3994 121.731 19.2143C121.307 19.2015 120.891 19.0824 120.52 18.8671V18.9023C120.521 20.2242 121.416 21.3627 122.66 21.6247C122.267 21.7364 121.855 21.7526 121.456 21.6721C121.805 22.8038 122.807 23.5788 123.947 23.6012C123.003 24.3742 121.836 24.7938 120.635 24.7925C120.423 24.7918 120.211 24.7789 120 24.7525C121.22 25.5675 122.639 26 124.089 25.998" fill="#DBDBDB"/>
<path d="M93.5 20C93.5 30.7696 84.7696 39.5 74 39.5C63.2304 39.5 54.5 30.7696 54.5 20C54.5 9.23045 63.2304 0.5 74 0.5C84.7696 0.5 93.5 9.23045 93.5 20Z" stroke="#DBDBDB"/>
<path fill-rule="evenodd" clip-rule="evenodd" d="M80.3929 19.3023H74.6268C74.6268 19.902 74.6268 21.1013 74.6231 21.701H77.9644C77.8364 22.3006 77.3824 23.1402 76.741 23.5629C76.7404 23.5623 76.7398 23.5665 76.7385 23.5659C75.8857 24.129 74.7603 24.2567 73.9247 24.0888C72.6149 23.8286 71.5783 22.8787 71.1574 21.6722C71.1599 21.6704 71.1617 21.6536 71.1635 21.6524C70.9001 20.904 70.9001 19.902 71.1635 19.3023H71.1629C71.5023 18.2001 72.5702 17.1945 73.8818 16.9193C74.9368 16.6956 76.1271 16.9378 77.0026 17.757C77.119 17.6431 78.6138 16.1835 78.7259 16.0647C75.735 13.3561 70.9461 14.3089 69.1541 17.8068H69.1535C69.1535 17.8068 69.1541 17.8068 69.1504 17.8134V17.8134C68.2639 19.5314 68.3007 21.5559 69.1565 23.1917C69.1541 23.1935 69.1523 23.1947 69.1504 23.1965C69.926 24.7017 71.3375 25.856 73.0382 26.2956C74.8449 26.7693 77.1441 26.4455 78.6843 25.0525C78.6849 25.0531 78.6855 25.0537 78.6861 25.0543C79.991 23.8789 80.8034 21.8767 80.3929 19.3023" fill="#DBDBDB"/>
<path fill-rule="evenodd" clip-rule="evenodd" d="M20 40C31.0457 40 40 31.0457 40 20C40 8.9543 31.0457 0 20 0C8.9543 0 0 8.9543 0 20C0 31.0457 8.9543 40 20 40Z" fill="#3A55E6"/>
<path fill-rule="evenodd" clip-rule="evenodd" d="M21.0932 27V20.7H23.1334L23.4667 17.9H21.0932V16.5364C21.0932 15.8154 21.1129 15.1 22.1875 15.1H23.276V13.098C23.276 13.0679 22.3411 13 21.3952 13C19.4197 13 18.1828 14.1599 18.1828 16.29V17.9H16V20.7H18.1828V27H21.0932Z" fill="white"/>
</svg>
