<svg width="211" height="87" viewBox="0 0 211 87" fill="none" xmlns="http://www.w3.org/2000/svg">
<path d="M21.9785 38.061V44.101C24.0642 44.0995 26.1297 44.5051 28.0569 45.2944C29.9841 46.0838 31.735 47.2414 33.2096 48.7011C34.6838 50.1602 35.8529 51.8926 36.6501 53.7992C37.4473 55.7058 37.8569 57.7491 37.8556 59.8125H43.9548C43.9493 54.046 41.6323 48.5173 37.5123 44.4394C33.3922 40.3615 27.8057 38.0676 21.9785 38.061H21.9785Z" fill="black"/>
<path d="M52.4823 27.1875H42.8164C47.7062 30.2539 51.8495 34.3534 54.9489 39.1918V29.6266C54.9484 28.9796 54.6884 28.3592 54.2258 27.9018C53.7633 27.4444 53.1362 27.1875 52.4823 27.1875V27.1875Z" fill="black"/>
<path d="M28.0517 27.1875H21.9785V32.6256C29.2627 32.6331 36.2463 35.4998 41.3971 40.5967C46.5478 45.6936 49.445 52.6043 49.4528 59.8125H54.9473V53.8026C53.705 47.1974 50.4705 41.1193 45.6696 36.3684C40.8687 31.6176 34.7265 28.4168 28.0517 27.1875V27.1875Z" fill="black"/>
<path d="M69.8986 30.7788H66.0273V50.0877H69.8986V30.7788Z" fill="black"/>
<path d="M84.1319 39.1446C83.4875 38.5649 82.7331 38.1175 81.9126 37.8285C80.1501 37.216 78.2292 37.216 76.4667 37.8285C75.6458 38.1173 74.8912 38.5647 74.2465 39.1446C73.6143 39.7214 73.1092 40.4211 72.7629 41.2C72.405 42.0497 72.2207 42.9611 72.2207 43.8817C72.2207 44.8023 72.405 45.7137 72.7629 46.5634C73.1079 47.3445 73.6131 48.0462 74.2465 48.6239C74.89 49.2043 75.6443 49.6515 76.465 49.9392C78.2273 50.5528 80.1485 50.5528 81.9109 49.9392C82.7318 49.6515 83.4863 49.2043 84.1302 48.6239C84.7633 48.0459 85.2685 47.3443 85.6138 46.5634C85.9717 45.7137 86.156 44.8023 86.156 43.8817C86.156 42.9611 85.9717 42.0497 85.6138 41.2C85.2678 40.4214 84.7633 39.7217 84.1319 39.1446ZM81.4736 46.1556C80.8467 46.7144 80.0329 47.0236 79.1892 47.0236C78.3455 47.0236 77.5317 46.7144 76.9048 46.1556C76.3779 45.5119 76.0904 44.7087 76.0904 43.8804C76.0904 43.0521 76.3779 42.2489 76.9048 41.6053C77.5317 41.0465 78.3455 40.7372 79.1892 40.7372C80.0329 40.7372 80.8467 41.0465 81.4736 41.6053C82.0005 42.2489 82.288 43.0521 82.288 43.8804C82.288 44.7087 82.0005 45.5119 81.4736 46.1556V46.1556Z" fill="black"/>
<path d="M98.0297 39.3101H97.9811C97.802 39.0614 97.5941 38.8343 97.3616 38.6336C97.0799 38.387 96.768 38.1764 96.4333 38.0068C95.5871 37.5772 94.6479 37.3582 93.6969 37.3689C92.8635 37.3545 92.0394 37.5432 91.2971 37.9184C90.6055 38.2728 89.9948 38.764 89.5029 39.3616C89.0013 39.9776 88.6165 40.6783 88.3672 41.4299C88.1021 42.2042 87.967 43.0163 87.9673 43.8338C87.9575 44.7114 88.1061 45.5836 88.4063 46.4095C88.6782 47.1631 89.1021 47.8542 89.6521 48.4408C90.2002 49.0149 90.8653 49.467 91.6034 49.7673C92.4058 50.091 93.2659 50.2515 94.1324 50.2395C94.7733 50.2285 95.407 50.1032 96.0029 49.8695C96.6712 49.6186 97.2502 49.1788 97.6679 48.6048H97.7199V49.8068C97.7344 50.2077 97.6677 50.6074 97.5236 50.9824C97.3795 51.3574 97.161 51.7 96.881 51.9901C96.5256 52.3012 96.1102 52.5377 95.6598 52.6852C95.2095 52.8328 94.7335 52.8884 94.2608 52.8486C93.5113 52.8569 92.7684 52.7089 92.0805 52.4142C91.3961 52.1116 90.7575 51.7163 90.1831 51.2397L88.041 54.4035C88.9166 55.1014 89.94 55.5947 91.0351 55.8467C92.1187 56.0933 93.227 56.2174 94.3389 56.2167C96.782 56.2167 98.6014 55.608 99.797 54.3906C100.993 53.1732 101.591 51.3897 101.591 49.0401V37.6754H98.034L98.0297 39.3101ZM97.7971 44.9671C97.6444 45.3306 97.4206 45.6606 97.1386 45.9381C96.8516 46.2212 96.515 46.4505 96.1452 46.6147C95.7613 46.7834 95.3459 46.8706 94.9258 46.8706C94.5057 46.8706 94.0903 46.7834 93.7064 46.6147C93.3416 46.4481 93.0094 46.2191 92.7252 45.9381C92.4419 45.6582 92.2173 45.3257 92.064 44.9598C91.9107 44.5939 91.8318 44.2016 91.8318 43.8055C91.8318 43.4094 91.9107 43.0171 92.064 42.6512C92.2173 42.2853 92.4419 41.9528 92.7252 41.6729C93.0096 41.3919 93.3417 41.1626 93.7064 40.9955C94.0905 40.8273 94.5058 40.7405 94.9258 40.7405C95.3458 40.7405 95.7612 40.8273 96.1452 40.9955C96.5148 41.1603 96.8514 41.3898 97.1386 41.6729C97.5645 42.0965 97.8543 42.6352 97.9714 43.2214C98.0886 43.8076 98.028 44.415 97.7971 44.9671V44.9671Z" fill="black"/>
<path d="M116.134 39.1446C115.489 38.5649 114.735 38.1175 113.915 37.8285C112.152 37.216 110.231 37.216 108.469 37.8285C107.648 38.1173 106.893 38.5647 106.248 39.1446C105.616 39.7214 105.111 40.4211 104.765 41.2C104.407 42.0497 104.223 42.9611 104.223 43.8817C104.223 44.8023 104.407 45.7137 104.765 46.5634C105.11 47.3445 105.615 48.0462 106.248 48.6239C106.892 49.2045 107.647 49.6517 108.469 49.9392C110.231 50.5528 112.152 50.5528 113.915 49.9392C114.735 49.6515 115.49 49.2043 116.134 48.6239C116.767 48.0462 117.272 47.3445 117.617 46.5634C117.975 45.7137 118.16 44.8023 118.16 43.8817C118.16 42.9611 117.975 42.0497 117.617 41.2C117.271 40.4211 116.766 39.7214 116.134 39.1446V39.1446ZM113.476 46.1556C112.849 46.7144 112.035 47.0236 111.191 47.0236C110.347 47.0236 109.534 46.7144 108.907 46.1556C108.38 45.5119 108.092 44.7087 108.092 43.8804C108.092 43.0521 108.38 42.2489 108.907 41.6053C109.534 41.0465 110.347 40.7372 111.191 40.7372C112.035 40.7372 112.849 41.0465 113.476 41.6053C114.002 42.2489 114.29 43.0521 114.29 43.8804C114.29 44.7087 114.002 45.5119 113.476 46.1556Z" fill="black"/>
<path d="M123.297 37.7612H121.221V50.0875H123.297V37.7612Z" fill="black"/>
<path d="M122.259 31.4407C122.058 31.4369 121.858 31.4747 121.672 31.5518C121.486 31.6288 121.319 31.7433 121.181 31.888C120.969 32.0986 120.826 32.3663 120.769 32.6575C120.711 32.9486 120.742 33.25 120.857 33.5239C120.972 33.7977 121.167 34.0316 121.416 34.1962C121.666 34.3607 121.959 34.4485 122.259 34.4485C122.558 34.4485 122.851 34.3607 123.101 34.1962C123.35 34.0316 123.545 33.7977 123.66 33.5239C123.775 33.25 123.806 32.9486 123.749 32.6575C123.691 32.3663 123.548 32.0986 123.337 31.888C123.198 31.7432 123.031 31.6287 122.846 31.5516C122.66 31.4746 122.46 31.4368 122.259 31.4407V31.4407Z" fill="black"/>
<path d="M138.653 39.2929C138.069 38.7028 137.367 38.2404 136.591 37.9355C135.739 37.6034 134.831 37.4381 133.916 37.4487C133.054 37.4389 132.202 37.6286 131.427 38.0025C130.664 38.378 129.988 38.907 129.444 39.5556H129.388V37.7612H127.314V56.0931H129.388V47.9025H129.441C129.882 48.6536 130.524 49.2694 131.297 49.6814C132.194 50.1784 133.209 50.4286 134.237 50.406C135.079 50.4113 135.912 50.2453 136.686 49.9183C137.434 49.6046 138.108 49.143 138.669 48.5618C139.238 47.9679 139.685 47.2705 139.987 46.5082C140.625 44.8451 140.625 43.0079 139.987 41.3448C139.683 40.5808 139.23 39.8835 138.653 39.2929V39.2929ZM137.921 45.732C137.727 46.2687 137.425 46.7604 137.031 47.1767C136.638 47.593 136.163 47.9251 135.635 48.1523C134.467 48.6255 133.158 48.6255 131.991 48.1523C131.462 47.9251 130.986 47.5928 130.592 47.176C130.199 46.7592 129.896 46.2669 129.702 45.7295C129.295 44.5613 129.295 43.2917 129.702 42.1235C129.896 41.5861 130.199 41.0938 130.592 40.677C130.986 40.2602 131.462 39.9279 131.991 39.7007C133.158 39.2275 134.467 39.2275 135.635 39.7007C136.164 39.9279 136.64 40.2602 137.033 40.677C137.427 41.0938 137.73 41.5861 137.923 42.1235C138.331 43.2917 138.331 44.5613 137.923 45.7295L137.921 45.732Z" fill="black"/>
<path d="M150.925 43.9294C150.531 43.6375 150.091 43.4108 149.624 43.2581C149.11 43.0866 148.585 42.9501 148.053 42.8494C147.654 42.7819 147.259 42.6942 146.869 42.5867C146.521 42.4932 146.183 42.3697 145.857 42.2175C145.597 42.1004 145.361 41.9349 145.163 41.7298C144.995 41.5464 144.905 41.306 144.911 41.0584C144.907 40.7913 144.986 40.5293 145.137 40.3081C145.286 40.0895 145.481 39.9054 145.709 39.768C145.952 39.6224 146.218 39.5157 146.495 39.4521C146.779 39.3826 147.07 39.3471 147.363 39.3465C147.919 39.3294 148.469 39.4712 148.946 39.7552C149.377 40.0234 149.737 40.3888 149.997 40.8215L151.727 39.6891C151.344 38.9406 150.722 38.3384 149.957 37.9762C149.186 37.622 148.345 37.4422 147.495 37.4499C146.919 37.4486 146.346 37.5284 145.792 37.6869C145.262 37.8366 144.758 38.0684 144.301 38.3738C143.863 38.666 143.499 39.0533 143.236 39.5062C142.964 39.9884 142.826 40.5336 142.837 41.0859C142.815 41.6265 142.939 42.1632 143.196 42.6408C143.431 43.0402 143.758 43.3787 144.151 43.6281C144.584 43.8988 145.055 44.1072 145.548 44.2471C146.08 44.4051 146.639 44.5456 147.225 44.6687C147.562 44.7391 147.891 44.818 148.209 44.9056C148.508 44.985 148.795 45.1046 149.061 45.2611C149.296 45.3988 149.5 45.5826 149.66 45.8011C149.82 46.0431 149.899 46.3287 149.886 46.6176C149.896 46.9211 149.812 47.2204 149.647 47.4761C149.482 47.7185 149.263 47.921 149.008 48.0685C148.732 48.2313 148.431 48.3474 148.117 48.4119C147.797 48.4813 147.472 48.5167 147.145 48.5176C146.498 48.5423 145.857 48.3871 145.295 48.0694C144.778 47.7438 144.323 47.3305 143.951 46.8485L142.303 48.1132C142.813 48.8974 143.537 49.5225 144.392 49.9161C145.268 50.2601 146.205 50.426 147.147 50.4038C147.76 50.4043 148.372 50.3337 148.968 50.1934C149.536 50.0635 150.077 49.8363 150.566 49.5221C151.033 49.2154 151.419 48.8034 151.694 48.3201C151.992 47.7715 152.139 47.1551 152.12 46.5326C152.137 45.9974 152.028 45.4656 151.801 44.9795C151.595 44.5673 151.295 44.2079 150.925 43.9294V43.9294Z" fill="black"/>
<path d="M165.882 47.1641V37.7612H163.806V43.7711C163.812 44.419 163.736 45.0652 163.579 45.6943C163.446 46.2335 163.211 46.7428 162.885 47.195C162.576 47.6154 162.164 47.9508 161.687 48.1695C161.139 48.4104 160.544 48.5277 159.944 48.5129C159.539 48.5453 159.131 48.4809 158.756 48.3251C158.381 48.1693 158.049 47.9266 157.788 47.6174C157.289 46.8993 157.045 46.0379 157.094 45.168V37.7612H155.018V45.3732C155.012 46.0632 155.106 46.7505 155.297 47.4139C155.464 48.0021 155.761 48.5465 156.165 49.0083C156.57 49.4597 157.074 49.8123 157.64 50.0385C158.314 50.2988 159.033 50.4242 159.756 50.4077C160.242 50.4116 160.727 50.3448 161.193 50.2094C161.615 50.088 162.017 49.9109 162.391 49.6831C162.73 49.4761 163.039 49.2236 163.309 48.9327C163.551 48.6739 163.753 48.3808 163.908 48.063H163.961C163.961 48.415 163.97 48.7584 163.988 49.0933C164.006 49.4281 164.015 49.7618 164.014 50.0943H165.984C165.984 49.6897 165.966 49.2418 165.931 48.7507C165.895 48.2596 165.878 47.7307 165.882 47.1641Z" fill="black"/>
<path d="M188.319 40.4617C188.18 39.8653 187.907 39.3076 187.52 38.8304C187.129 38.3688 186.625 38.014 186.056 37.8002C185.34 37.5444 184.582 37.4238 183.82 37.4447C182.994 37.409 182.176 37.6251 181.478 38.0637C180.831 38.5233 180.287 39.111 179.882 39.7894C179.775 39.5782 179.637 39.3367 179.469 39.0648C179.28 38.7713 179.042 38.5126 178.763 38.3007C178.421 38.0434 178.041 37.8407 177.635 37.6997C177.091 37.5186 176.519 37.4337 175.944 37.449C175.458 37.4451 174.974 37.5119 174.508 37.6473C174.086 37.7688 173.683 37.9458 173.31 38.1736C172.97 38.3809 172.661 38.6334 172.392 38.924C172.149 39.1828 171.948 39.4759 171.793 39.7937H171.739C171.739 39.4417 171.73 39.1 171.713 38.7635C171.696 38.4269 171.686 38.0964 171.686 37.7624H169.717C169.717 38.1671 169.734 38.6149 169.77 39.106C169.805 39.5971 169.823 40.124 169.823 40.6866V50.0886H171.901V44.0839C171.894 43.4357 171.97 42.7893 172.127 42.1599C172.259 41.6204 172.495 41.111 172.821 40.6592C173.13 40.2386 173.542 39.9032 174.018 39.6847C174.567 39.4436 175.162 39.3263 175.762 39.3413C176.118 39.3112 176.475 39.3749 176.797 39.5257C177.12 39.6765 177.396 39.9091 177.598 40.1998C178.044 41.1032 178.237 42.1081 178.158 43.1103V50.0904H180.229V42.9764C180.223 42.4694 180.309 41.9655 180.483 41.4885C180.637 41.0657 180.872 40.6766 181.177 40.3432C181.464 40.0311 181.813 39.7801 182.202 39.6057C182.595 39.4297 183.021 39.3398 183.453 39.3421C183.965 39.3237 184.475 39.4227 184.943 39.6315C185.312 39.8077 185.631 40.0703 185.874 40.3964C186.108 40.7193 186.271 41.0868 186.354 41.4756C186.443 41.8824 186.487 42.2975 186.487 42.7137V50.0886H188.558V42.6081C188.566 41.8857 188.486 41.165 188.319 40.4617Z" fill="black"/>
</svg>
