<svg width="145" height="40" viewBox="0 0 145 40" fill="none" xmlns="http://www.w3.org/2000/svg">
<path d="M144.5 20C144.5 30.7696 135.77 39.5 125 39.5C114.23 39.5 105.5 30.7696 105.5 20C105.5 9.23045 114.23 0.5 125 0.5C135.77 0.5 144.5 9.23045 144.5 20Z" stroke="#DCDCDC"/>
<path fill-rule="evenodd" clip-rule="evenodd" d="M123.089 26C127.994 26 130.677 21.7675 130.677 18.0975C130.677 17.977 130.677 17.8572 130.669 17.7381C131.191 17.3455 131.642 16.8581 132 16.3004C131.514 16.5251 130.997 16.6727 130.469 16.7377C131.025 16.3904 131.442 15.8449 131.641 15.2012C131.117 15.5247 130.545 15.7528 129.947 15.8753C128.937 14.7571 127.248 14.703 126.173 15.7548C125.481 16.4331 125.187 17.4443 125.402 18.4089C123.258 18.2965 121.259 17.2419 119.905 15.5071C119.197 16.7762 119.559 18.3994 120.731 19.2143C120.306 19.2015 119.891 19.0824 119.52 18.8671V18.9023C119.521 20.2242 120.416 21.3627 121.66 21.6247C121.267 21.7364 120.855 21.7526 120.456 21.6721C120.805 22.8038 121.807 23.5788 122.947 23.6012C122.003 24.3742 120.836 24.7938 119.635 24.7925C119.423 24.7918 119.211 24.7789 119 24.7525C120.22 25.5675 121.639 26 123.089 25.998" fill="#DBDBDB"/>
<path d="M92.5 20C92.5 30.7696 83.7696 39.5 73 39.5C62.2304 39.5 53.5 30.7696 53.5 20C53.5 9.23045 62.2304 0.5 73 0.5C83.7696 0.5 92.5 9.23045 92.5 20Z" stroke="#DBDBDB"/>
<path fill-rule="evenodd" clip-rule="evenodd" d="M79.3929 19.3023H73.6268C73.6268 19.902 73.6268 21.1013 73.6231 21.701H76.9644C76.8364 22.3006 76.3824 23.1402 75.741 23.5629C75.7404 23.5623 75.7398 23.5665 75.7385 23.5659C74.8857 24.129 73.7603 24.2567 72.9247 24.0888C71.6149 23.8286 70.5783 22.8787 70.1574 21.6722C70.1599 21.6704 70.1617 21.6536 70.1635 21.6524C69.9001 20.904 69.9001 19.902 70.1635 19.3023H70.1629C70.5023 18.2001 71.5702 17.1945 72.8818 16.9193C73.9368 16.6956 75.1271 16.9379 76.0026 17.757C76.119 17.6431 77.6138 16.1835 77.7259 16.0647C74.735 13.3561 69.9461 14.3089 68.1541 17.8068H68.1535C68.1535 17.8068 68.1541 17.8068 68.1504 17.8134V17.8134C67.2639 19.5314 67.3007 21.5559 68.1565 23.1917C68.1541 23.1935 68.1523 23.1947 68.1504 23.1965C68.926 24.7017 70.3375 25.856 72.0382 26.2956C73.8449 26.7693 76.1441 26.4455 77.6843 25.0525C77.6849 25.0531 77.6855 25.0537 77.6861 25.0543C78.991 23.8789 79.8034 21.8767 79.3929 19.3023" fill="#DBDBDB"/>
<path fill-rule="evenodd" clip-rule="evenodd" d="M20 40C31.0457 40 40 31.0457 40 20C40 8.95431 31.0457 0 20 0C8.95431 0 0 8.95431 0 20C0 31.0457 8.95431 40 20 40Z" fill="#F25146"/>
<mask id="mask0_16_18376" style="mask-type:alpha" maskUnits="userSpaceOnUse" x="0" y="0" width="40" height="40">
<path fill-rule="evenodd" clip-rule="evenodd" d="M20 40C31.0457 40 40 31.0457 40 20C40 8.95431 31.0457 0 20 0C8.95431 0 0 8.95431 0 20C0 31.0457 8.95431 40 20 40Z" fill="white"/>
</mask>
<g mask="url(#mask0_16_18376)">
<rect width="40" height="40" fill="#FF4545"/>
</g>
<path fill-rule="evenodd" clip-rule="evenodd" d="M20.7749 26V19.7H22.6876L23 16.9H20.7749V15.5364C20.7749 14.8154 20.7933 14.1 21.8008 14.1H22.8213V12.098C22.8213 12.0679 21.9447 12 21.058 12C19.206 12 18.0464 13.1599 18.0464 15.29V16.9H16V19.7H18.0464V26H20.7749Z" fill="white"/>
</svg>
