<svg width="29" height="21" viewBox="0 0 29 21" fill="none" xmlns="http://www.w3.org/2000/svg">
<path fill-rule="evenodd" clip-rule="evenodd" d="M1.61087 5.00015H20.7892C21.2188 5.00015 21.6063 5.16513 21.8938 5.43377L11.2001 14.6L0.508563 5.43662C0.796749 5.16655 1.18423 5.00015 1.61087 5.00015ZM0.505365 20.5657L8.42896 13.7743L11.2001 16.2001L13.9718 13.7743L21.8906 20.5657C21.6032 20.8345 21.2158 21 20.7892 21H1.61087C1.18207 21 0.793759 20.8345 0.505365 20.5657ZM0 19.6971L7.73281 13.1267L0 6.40485V19.6971ZM22.4001 6.40008V19.6971L14.6673 13.1267L22.4001 6.40008Z" fill="#AAAAAA"/>
<path d="M27.2002 5.99994C27.2002 3.23861 24.9615 0.999966 22.2001 0.999966C19.4386 0.999966 17.2001 3.23866 17.2001 5.99994C17.2001 8.76136 19.4386 11.0001 22.2001 11.0001C24.9616 11.0001 27.2002 8.7614 27.2002 5.99994Z" fill="#7F63F4" stroke="#F0F0F0" stroke-width="2"/>
</svg>
