<svg width="120" height="120" viewBox="0 0 120 120" fill="none" xmlns="http://www.w3.org/2000/svg">
<circle cx="60" cy="60" r="59" stroke="#9F9F9F" stroke-width="2"/>
<path d="M85.3875 42C85.3875 43.2062 85.3875 44.4188 85.3875 45.625C85.3875 48.5125 85.3875 51.4 85.3875 54.2812C85.3875 57.7625 85.3875 61.2437 85.3875 64.725C85.3875 67.725 85.3875 70.725 85.3875 73.7188C85.3875 75.1313 85.3938 76.5437 85.3875 77.9562C85.3875 78.0875 85.3813 78.2125 85.3625 78.3438C85.3938 78.125 85.425 77.9 85.45 77.6813C85.4188 77.9063 85.3625 78.1187 85.2813 78.3312C85.3625 78.1312 85.45 77.9313 85.5313 77.7313C85.4313 77.9625 85.3125 78.175 85.1625 78.3688C85.2938 78.2 85.425 78.0312 85.5563 77.8625C85.4188 78.0312 85.2688 78.1875 85.0938 78.325C85.2625 78.1938 85.4313 78.0625 85.6 77.9313C85.4 78.0813 85.1875 78.2062 84.9625 78.3C85.1625 78.2187 85.3625 78.1312 85.5625 78.05C85.35 78.1312 85.1375 78.1875 84.9125 78.2188C85.1313 78.1875 85.3563 78.1562 85.575 78.1312C85.0438 78.1937 84.4875 78.1562 83.95 78.1562C82.7375 78.1562 81.5188 78.1562 80.3063 78.1562C78.4938 78.1562 76.6813 78.1562 74.8688 78.1562C72.65 78.1562 70.4313 78.1562 68.2125 78.1562C65.7813 78.1562 63.3438 78.1562 60.9125 78.1562C58.4563 78.1562 56 78.1562 53.5375 78.1562C51.25 78.1562 48.9563 78.1562 46.6688 78.1562C44.7375 78.1562 42.8125 78.1562 40.8813 78.1562C39.5 78.1562 38.125 78.1562 36.7438 78.1562C36.1063 78.1562 35.475 78.1562 34.8375 78.1562C34.7 78.1562 34.5625 78.15 34.425 78.1312C34.6438 78.1625 34.8688 78.1937 35.0875 78.2188C34.8625 78.1875 34.65 78.1312 34.4375 78.05C34.6375 78.1312 34.8375 78.2187 35.0375 78.3C34.8063 78.2 34.5938 78.0813 34.4 77.9313C34.5688 78.0625 34.7375 78.1938 34.9063 78.325C34.7375 78.1875 34.5813 78.0375 34.4438 77.8625C34.575 78.0312 34.7063 78.2 34.8375 78.3688C34.6875 78.1688 34.5625 77.9563 34.4688 77.7313C34.55 77.9313 34.6375 78.1312 34.7188 78.3312C34.6375 78.1187 34.5813 77.9063 34.55 77.6813C34.5813 77.9 34.6125 78.125 34.6375 78.3438C34.5938 77.9313 34.6125 77.5125 34.6125 77.1C34.6125 76.2312 34.6125 75.3625 34.6125 74.4938C34.6125 71.6188 34.6125 68.7438 34.6125 65.8688C34.6125 62.3813 34.6125 58.8875 34.6125 55.4C34.6125 52.375 34.6125 49.35 34.6125 46.325C34.6125 44.9 34.6063 43.475 34.6125 42.0437C34.6125 41.9125 34.6188 41.7875 34.6375 41.6562C34.6063 41.875 34.575 42.1 34.55 42.3188C34.5813 42.0938 34.6375 41.8812 34.7188 41.6687C34.6375 41.8687 34.55 42.0688 34.4688 42.2688C34.5688 42.0375 34.6875 41.825 34.8375 41.6313C34.7063 41.8 34.575 41.9687 34.4438 42.1375C34.5813 41.9687 34.7313 41.8125 34.9063 41.675C34.7375 41.8063 34.5688 41.9375 34.4 42.0688C34.6 41.9188 34.8125 41.7937 35.0375 41.7C34.8375 41.7812 34.6375 41.8687 34.4375 41.95C34.65 41.8687 34.8625 41.8125 35.0875 41.7812C34.8688 41.8125 34.6438 41.8437 34.425 41.8687C34.9563 41.8062 35.5125 41.8438 36.05 41.8438C37.2625 41.8438 38.4813 41.8438 39.6938 41.8438C41.5063 41.8438 43.3188 41.8438 45.1313 41.8438C47.35 41.8438 49.5688 41.8438 51.7875 41.8438C54.2188 41.8438 56.6563 41.8438 59.0875 41.8438C61.5438 41.8438 64 41.8438 66.4625 41.8438C68.75 41.8438 71.0438 41.8438 73.3313 41.8438C75.2625 41.8438 77.1875 41.8438 79.1188 41.8438C80.5 41.8438 81.875 41.8438 83.2563 41.8438C83.8938 41.8438 84.525 41.8438 85.1625 41.8438C85.3 41.8438 85.4375 41.85 85.575 41.8687C85.3563 41.8375 85.1313 41.8063 84.9125 41.7812C85.1375 41.8125 85.35 41.8687 85.5625 41.95C85.3625 41.8687 85.1625 41.7812 84.9625 41.7C85.1938 41.8 85.4063 41.9188 85.6 42.0688C85.4313 41.9375 85.2625 41.8063 85.0938 41.675C85.2625 41.8125 85.4188 41.9625 85.5563 42.1375C85.425 41.9687 85.2938 41.8 85.1625 41.6313C85.3125 41.8313 85.4375 42.0438 85.5313 42.2688C85.45 42.0688 85.3625 41.8687 85.2813 41.6687C85.3625 41.8812 85.4188 42.0938 85.45 42.3188C85.4188 42.1 85.3875 41.875 85.3625 41.6562C85.3813 41.7687 85.3875 41.8813 85.3875 42C85.4 42.65 85.6563 43.3063 86.1188 43.7688C86.55 44.2 87.2625 44.5312 87.8875 44.5C89.225 44.4375 90.4125 43.4 90.3875 42C90.3688 40.65 89.8563 39.3938 88.9313 38.4063C88.0125 37.4313 86.7563 36.95 85.4438 36.8438C85.2875 36.8313 85.125 36.8375 84.9625 36.8375C84.2688 36.8375 83.575 36.8375 82.8875 36.8375C81.6125 36.8375 80.3313 36.8375 79.0563 36.8375C77.3375 36.8375 75.6125 36.8375 73.8938 36.8375C71.8813 36.8375 69.8625 36.8375 67.85 36.8375C65.6625 36.8375 63.4688 36.8375 61.2813 36.8375C59.0625 36.8375 56.85 36.8375 54.6313 36.8375C52.5375 36.8375 50.4438 36.8375 48.35 36.8375C46.4938 36.8375 44.6438 36.8375 42.7875 36.8375C41.3313 36.8375 39.8688 36.8375 38.4125 36.8375C37.475 36.8375 36.5375 36.8375 35.6 36.8375C35.375 36.8375 35.15 36.8375 34.9188 36.8375C34.0375 36.8375 33.2313 37.0375 32.4313 37.4063C31.475 37.8438 30.5875 38.7438 30.1563 39.7C29.8125 40.4625 29.6125 41.1688 29.6063 42.0188C29.6063 42.2063 29.6063 42.3937 29.6063 42.5875C29.6063 43.6312 29.6063 44.6813 29.6063 45.725C29.6063 47.4313 29.6063 49.1375 29.6063 50.85C29.6063 52.9375 29.6063 55.025 29.6063 57.1125C29.6063 59.325 29.6063 61.5437 29.6063 63.7562C29.6063 65.8187 29.6063 67.875 29.6063 69.9375C29.6063 71.5625 29.6063 73.1937 29.6063 74.8187C29.6063 75.7562 29.6063 76.6938 29.6063 77.6375C29.6063 77.8188 29.6 78 29.6125 78.1813C29.7 79.5 30.1875 80.75 31.15 81.6813C32.1125 82.6125 33.3875 83.1375 34.725 83.1625C35.1063 83.1687 35.4813 83.1625 35.8625 83.1625C36.875 83.1625 37.8875 83.1625 38.9063 83.1625C40.4313 83.1625 41.9563 83.1625 43.4813 83.1625C45.3688 83.1625 47.2563 83.1625 49.1438 83.1625C51.2688 83.1625 53.4 83.1625 55.525 83.1625C57.7375 83.1625 59.9438 83.1625 62.1563 83.1625C64.3313 83.1625 66.5063 83.1625 68.6875 83.1625C70.6813 83.1625 72.6688 83.1625 74.6625 83.1625C76.325 83.1625 77.9875 83.1625 79.65 83.1625C80.8563 83.1625 82.0688 83.1625 83.275 83.1625C83.8813 83.1625 84.4875 83.1625 85.1 83.1625C86.025 83.1625 86.9 82.95 87.7188 82.525C89.3875 81.6625 90.375 79.8125 90.3938 77.975C90.4 77.3437 90.3938 76.7188 90.3938 76.0875C90.3938 74.6625 90.3938 73.2437 90.3938 71.8187C90.3938 69.8875 90.3938 67.95 90.3938 66.0187C90.3938 63.825 90.3938 61.6375 90.3938 59.4438C90.3938 57.275 90.3938 55.1063 90.3938 52.9375C90.3938 51.0688 90.3938 49.2062 90.3938 47.3375C90.3938 46.0312 90.3938 44.7188 90.3938 43.4125C90.3938 42.9438 90.3938 42.475 90.3938 42C90.3938 40.6938 89.2438 39.4375 87.8938 39.5C86.5375 39.5625 85.3875 40.6 85.3875 42Z" fill="#393D46"/>
<path d="M85.3875 48.7999C85.3875 51.3061 85.3875 53.8124 85.3875 56.3186C85.3875 56.6686 85.3875 57.0186 85.3875 57.3686C86.2187 56.5374 87.0562 55.6999 87.8875 54.8686C87.3875 54.8686 86.8875 54.8686 86.3875 54.8686C85.0375 54.8686 83.6875 54.8686 82.3312 54.8686C80.3312 54.8686 78.3375 54.8686 76.3375 54.8686C73.8937 54.8686 71.4437 54.8686 69 54.8686C66.3312 54.8686 63.6625 54.8686 60.9937 54.8686C58.2875 54.8686 55.5812 54.8686 52.8812 54.8686C50.3687 54.8686 47.8562 54.8686 45.3437 54.8686C43.2125 54.8686 41.0812 54.8686 38.95 54.8686C37.425 54.8686 35.9 54.8686 34.3687 54.8686C33.6437 54.8686 32.9187 54.8561 32.2 54.8686C32.1687 54.8686 32.1375 54.8686 32.1062 54.8686C32.9375 55.6999 33.775 56.5374 34.6062 57.3686C34.6062 54.8624 34.6062 52.3561 34.6062 49.8499C34.6062 49.4999 34.6062 49.1499 34.6062 48.7999C33.775 49.6311 32.9375 50.4686 32.1062 51.2999C32.6062 51.2999 33.1062 51.2999 33.6062 51.2999C34.9562 51.2999 36.3062 51.2999 37.6625 51.2999C39.6625 51.2999 41.6562 51.2999 43.6562 51.2999C46.1 51.2999 48.55 51.2999 50.9937 51.2999C53.6625 51.2999 56.3312 51.2999 59 51.2999C61.7062 51.2999 64.4125 51.2999 67.1125 51.2999C69.625 51.2999 72.1375 51.2999 74.65 51.2999C76.7812 51.2999 78.9125 51.2999 81.0437 51.2999C82.5687 51.2999 84.0937 51.2999 85.625 51.2999C86.35 51.2999 87.075 51.3061 87.7937 51.2999C87.825 51.2999 87.8562 51.2999 87.8875 51.2999C89.1937 51.2999 90.45 50.1499 90.3875 48.7999C90.325 47.4436 89.2875 46.2999 87.8875 46.2999C87.3875 46.2999 86.8875 46.2999 86.3875 46.2999C85.0375 46.2999 83.6875 46.2999 82.3312 46.2999C80.3312 46.2999 78.3375 46.2999 76.3375 46.2999C73.8937 46.2999 71.4437 46.2999 69 46.2999C66.3312 46.2999 63.6625 46.2999 60.9937 46.2999C58.2875 46.2999 55.5812 46.2999 52.8812 46.2999C50.3687 46.2999 47.8562 46.2999 45.3437 46.2999C43.2125 46.2999 41.0812 46.2999 38.95 46.2999C37.425 46.2999 35.9 46.2999 34.3687 46.2999C33.6437 46.2999 32.9187 46.2936 32.2 46.2999C32.1687 46.2999 32.1375 46.2999 32.1062 46.2999C30.7562 46.2999 29.6062 47.4436 29.6062 48.7999C29.6062 51.3061 29.6062 53.8124 29.6062 56.3186C29.6062 56.6686 29.6062 57.0186 29.6062 57.3686C29.6062 58.7186 30.75 59.8686 32.1062 59.8686C32.6062 59.8686 33.1062 59.8686 33.6062 59.8686C34.9562 59.8686 36.3062 59.8686 37.6625 59.8686C39.6625 59.8686 41.6562 59.8686 43.6562 59.8686C46.1 59.8686 48.55 59.8686 50.9937 59.8686C53.6625 59.8686 56.3312 59.8686 59 59.8686C61.7062 59.8686 64.4125 59.8686 67.1125 59.8686C69.625 59.8686 72.1375 59.8686 74.65 59.8686C76.7812 59.8686 78.9125 59.8686 81.0437 59.8686C82.5687 59.8686 84.0937 59.8686 85.625 59.8686C86.35 59.8686 87.075 59.8749 87.7937 59.8686C87.825 59.8686 87.8562 59.8686 87.8875 59.8686C89.2375 59.8686 90.3875 58.7249 90.3875 57.3686C90.3875 54.8624 90.3875 52.3561 90.3875 49.8499C90.3875 49.4999 90.3875 49.1499 90.3875 48.7999C90.3875 47.4936 89.2375 46.2374 87.8875 46.2999C86.5375 46.3561 85.3875 47.3936 85.3875 48.7999ZM41.1625 71.2874C42.9062 71.2874 44.65 71.2874 46.3937 71.2874C49.1625 71.2874 51.9312 71.2874 54.7 71.2874C55.3375 71.2874 55.975 71.2874 56.6062 71.2874C57.9125 71.2874 59.1687 70.1374 59.1062 68.7874C59.0437 67.4311 58.0062 66.2874 56.6062 66.2874C54.8625 66.2874 53.1187 66.2874 51.375 66.2874C48.6062 66.2874 45.8375 66.2874 43.0687 66.2874C42.4312 66.2874 41.7937 66.2874 41.1625 66.2874C39.8562 66.2874 38.6 67.4374 38.6625 68.7874C38.7187 70.1436 39.7562 71.2874 41.1625 71.2874Z" fill="#393D46"/>
</svg>
