<svg width="229" height="214" viewBox="0 0 229 214" fill="none" xmlns="http://www.w3.org/2000/svg">
<path d="M1.37455 48.8723L5.95752 3.98868L57.2657 3.09443L57.5414 18.8673L22.7531 19.4736L21.0677 36.9066C22.4999 36.0385 24.3761 35.2631 26.6961 34.5803C29.0564 33.8968 31.3619 33.5355 33.6128 33.4963C42.335 33.3442 49.0726 35.8163 53.8257 40.9124C58.6182 45.9676 61.0959 53.1508 61.2587 62.462C61.3569 68.0809 60.1799 73.2 57.7276 77.8195C55.3148 82.3981 51.8589 85.9511 47.3597 88.4785C42.8605 91.0058 37.516 92.3235 31.326 92.4313C25.8194 92.5273 20.6348 91.4936 15.7722 89.3301C10.9088 87.1265 7.07619 84.0819 4.27422 80.1964C1.47154 76.2707 0.0468035 71.8192 0 66.8418L20.3786 66.4866C20.6357 69.6939 21.7052 72.2246 23.5871 74.0787C25.469 75.9328 27.9172 76.8335 30.9318 76.781C37.7649 76.6619 41.093 71.5454 40.9162 61.4315C40.7527 52.0802 36.4908 47.4774 28.1303 47.6231C23.3874 47.7058 19.8769 49.2925 17.599 52.3834L1.37455 48.8723Z" fill="#FEFEFE"/>
<path d="M132.752 53.6282C132.959 65.4679 130.446 74.6451 125.213 81.1598C120.019 87.6738 112.579 91.0152 102.892 91.184C93.1249 91.3542 85.5119 88.2551 80.0531 81.8866C74.5943 75.5182 71.7621 66.4542 71.5565 54.6948L71.2766 38.6812C71.0696 26.8415 73.5628 17.6647 78.7562 11.1507C83.9898 4.63598 91.4701 1.29387 101.197 1.12434C110.924 0.954807 118.517 4.05428 123.976 10.4228C129.435 16.7912 132.267 25.8752 132.474 37.6748L132.752 53.6282ZM112.109 35.38C111.999 29.0789 111.093 24.3975 109.391 21.3359C107.688 18.2341 105.048 16.7144 101.471 16.7768C97.9739 16.8377 95.4468 18.3271 93.8895 21.2448C92.3725 24.1618 91.6049 28.5511 91.5867 34.4129L91.9782 56.8079C92.0926 63.3498 93.0004 68.1315 94.7017 71.153C96.4023 74.1344 99.0412 75.5939 102.619 75.5316C106.075 75.4713 108.602 73.9619 110.199 71.0034C111.795 68.0047 112.558 63.3545 112.488 57.0527L112.109 35.38Z" fill="#FEFEFE"/>
<path d="M142.752 18.4661C142.658 13.0479 144.35 8.64245 147.829 5.24964C151.307 1.85683 156.021 0.108589 161.97 0.00490727C167.999 -0.100175 172.791 1.48239 176.346 4.7526C179.901 7.98268 181.728 12.4272 181.827 18.0862L181.902 22.4207C181.997 27.8388 180.325 32.2239 176.885 35.5759C173.446 38.9279 168.752 40.6557 162.803 40.7594C156.895 40.8623 152.103 39.3199 148.429 36.1321C144.794 32.9034 142.927 28.4395 142.827 22.7404L142.752 18.4661ZM155.917 22.8736C155.953 24.9606 156.566 26.6561 157.755 27.9603C158.943 29.2243 160.562 29.8384 162.612 29.8027C166.832 29.7291 168.895 27.0033 168.801 21.6253L168.738 18.0132C168.702 15.9262 168.109 14.2303 166.96 12.9255C165.811 11.5805 164.211 10.9259 162.162 10.9616C160.192 10.9959 158.636 11.6855 157.494 13.0302C156.35 14.3349 155.798 16.1109 155.838 18.3585L155.917 22.8736ZM185.336 67.0441C185.241 61.5858 186.933 57.1804 190.412 53.8277C193.932 50.4743 198.646 48.7461 204.555 48.6431C210.544 48.5388 215.335 50.0812 218.929 53.2704C222.523 56.4597 224.371 60.9641 224.473 66.7836L224.546 70.9977C224.642 76.456 222.97 80.8611 219.53 84.2131C216.091 87.565 211.377 89.2932 205.388 89.3976C199.479 89.5006 194.688 87.9582 191.013 84.7703C187.379 81.5416 185.511 77.0777 185.412 71.3786L185.336 67.0441ZM198.44 71.4527C198.473 73.339 199.145 74.9934 200.457 76.4158C201.767 77.7981 203.347 78.4731 205.196 78.4409C209.095 78.3729 211.173 76.49 211.43 72.792L211.382 66.5902C211.345 64.463 210.732 62.7675 209.544 61.5035C208.355 60.1994 206.756 59.5648 204.746 59.5999C202.817 59.6335 201.28 60.2825 200.136 61.547C198.992 62.7714 198.398 64.4277 198.354 66.5161L198.44 71.4527ZM167.389 82.2915L157.84 77.7005L199.51 8.44386L209.059 13.0348L167.389 82.2915Z" fill="#FEFEFE"/>
<path d="M45.0046 213.506C38.5014 213.62 32.553 212.49 27.1592 210.117C21.8463 207.661 17.2187 204.371 13.2765 200.246C9.33282 196.039 6.28603 191.324 4.13612 186.099C1.98477 180.792 0.859521 175.303 0.760377 169.632C0.659796 163.878 1.63366 158.352 3.68197 153.054C5.81117 147.673 8.77432 142.894 12.5714 138.716C16.4494 134.456 21.0429 131.087 26.3519 128.61C31.6609 126.133 37.4847 124.839 43.8232 124.729C50.3263 124.615 56.2343 125.787 61.5472 128.243C66.941 130.616 71.5686 133.906 75.4299 138.114C79.3736 142.321 82.4211 147.078 84.5724 152.385C86.7224 157.609 87.8455 162.975 87.9417 168.482C88.0423 174.236 87.028 179.803 84.8988 185.185C82.8505 190.483 79.8873 195.262 76.0094 199.523C72.2122 203.7 67.6599 207.068 62.3523 209.627C57.1256 212.103 51.3431 213.396 45.0046 213.506ZM21.3854 169.519C21.4644 174.04 22.4035 178.299 24.2025 182.296C26.0002 186.211 28.65 189.413 32.1519 191.901C35.6538 194.388 39.8743 195.589 44.8134 195.503C49.9171 195.414 54.1335 194.025 57.4625 191.336C60.8739 188.646 63.3676 185.272 64.9435 181.216C66.6004 177.076 67.3907 172.828 67.3146 168.472C67.2355 163.951 66.256 159.734 64.3761 155.82C62.577 151.822 59.9272 148.621 56.4268 146.215C53.0086 143.808 48.83 142.648 43.8909 142.734C38.7872 142.823 34.5296 144.213 31.1182 146.903C27.7877 149.51 25.2934 152.842 23.6351 156.9C22.0591 160.956 21.3092 165.162 21.3854 169.519Z" fill="#FEFEFE"/>
<path d="M100.404 211.801L98.8737 124.263L158.39 123.225L158.7 140.979L119.434 141.664L119.764 160.528L152.115 159.964L152.402 176.362L120.051 176.926L120.654 211.448L100.404 211.801Z" fill="#FEFEFE"/>
<path d="M170.704 210.575L169.174 123.037L228.69 122L229 139.754L189.734 140.439L190.064 159.302L222.415 158.739L222.702 175.137L190.351 175.7L190.954 210.222L170.704 210.575Z" fill="#FEFEFE"/>
</svg>
