<svg width="16" height="16" viewBox="0 0 16 16" fill="none" xmlns="http://www.w3.org/2000/svg">
<g opacity="0.5" filter="url(#filter0_d_16_15924)">
<path fill-rule="evenodd" clip-rule="evenodd" d="M3.00004 0.999997H13.0001C14.6568 0.999997 16 2.34304 16 4.00008V12.9999C16 14.657 14.6568 16 13.0001 16H3.00004C1.34317 16 -1.39474e-05 14.657 -1.39474e-05 12.9999V4.00008C-1.39474e-05 2.34304 1.34317 0.999997 3.00004 0.999997Z" fill="#FDFAF2"/>
<path d="M3.00004 1.5H13.0001C14.3807 1.5 15.5 2.61918 15.5 4.00008V12.9999C15.5 14.3808 14.3807 15.5 13.0001 15.5H3.00004C1.61929 15.5 0.499984 14.3808 0.499984 12.9999V4.00008C0.499984 2.6192 1.6193 1.5 3.00004 1.5Z" stroke="#E7E7E7"/>
</g>
<defs>
<filter id="filter0_d_16_15924" x="0" y="0" width="16" height="16" filterUnits="userSpaceOnUse" color-interpolation-filters="sRGB">
<feFlood flood-opacity="0" result="BackgroundImageFix"/>
<feColorMatrix in="SourceAlpha" type="matrix" values="0 0 0 0 0 0 0 0 0 0 0 0 0 0 0 0 0 0 127 0" result="hardAlpha"/>
<feOffset dy="-1"/>
<feColorMatrix type="matrix" values="0 0 0 0 0 0 0 0 0 0 0 0 0 0 0 0 0 0 0.4 0"/>
<feBlend mode="normal" in2="BackgroundImageFix" result="effect1_dropShadow_16_15924"/>
<feBlend mode="normal" in="SourceGraphic" in2="effect1_dropShadow_16_15924" result="shape"/>
</filter>
</defs>
</svg>
