<svg width="16" height="16" viewBox="0 0 16 16" fill="none" xmlns="http://www.w3.org/2000/svg">
<g filter="url(#filter0_d_16_15918)">
<path fill-rule="evenodd" clip-rule="evenodd" d="M2.99995 1H12.9999C14.6567 1 15.9999 2.34323 15.9999 4.00007V12.9999C15.9999 14.6568 14.6567 16 12.9999 16H2.99995C1.34308 16 8.46383e-06 14.6568 8.46383e-06 12.9999V4.00007C8.46383e-06 2.34323 1.34308 1 2.99995 1Z" fill="#FDFAF2"/>
<path d="M2.99995 1.5H12.9999C14.3806 1.5 15.4999 2.61937 15.4999 4.00007V12.9999C15.4999 14.3806 14.3806 15.5 12.9999 15.5H2.99995C1.61925 15.5 0.500007 14.3807 0.500007 12.9999V4.00007C0.500007 2.61934 1.61925 1.5 2.99995 1.5Z" stroke="#E7E7E7"/>
</g>
<defs>
<filter id="filter0_d_16_15918" x="0" y="0" width="15.9999" height="16" filterUnits="userSpaceOnUse" color-interpolation-filters="sRGB">
<feFlood flood-opacity="0" result="BackgroundImageFix"/>
<feColorMatrix in="SourceAlpha" type="matrix" values="0 0 0 0 0 0 0 0 0 0 0 0 0 0 0 0 0 0 127 0" result="hardAlpha"/>
<feOffset dy="-1"/>
<feColorMatrix type="matrix" values="0 0 0 0 0 0 0 0 0 0 0 0 0 0 0 0 0 0 0.4 0"/>
<feBlend mode="normal" in2="BackgroundImageFix" result="effect1_dropShadow_16_15918"/>
<feBlend mode="normal" in="SourceGraphic" in2="effect1_dropShadow_16_15918" result="shape"/>
</filter>
</defs>
</svg>
