<svg width="134" height="22" viewBox="0 0 134 22" fill="none" xmlns="http://www.w3.org/2000/svg">
<path d="M8.11163 4.29509H9.92331V1.13974C9.61075 1.09674 8.53581 1 7.28393 1C4.67183 1 2.88248 2.643 2.88248 5.66274V8.44186H0V11.9693H2.88248V20.845H6.41654V11.9701H9.18243L9.6215 8.44269H6.41571V6.01251C6.41654 4.99297 6.69106 4.29509 8.11163 4.29509V4.29509Z" fill="white"/>
<path d="M71.9619 4.11613C71.1438 4.475 70.272 4.71288 69.3632 4.82838C70.2982 4.27013 71.0118 3.39287 71.3473 2.3355C70.4755 2.85525 69.513 3.22238 68.4873 3.42725C67.6595 2.54588 66.4798 2 65.1928 2C62.6958 2 60.6855 4.02675 60.6855 6.51137C60.6855 6.86887 60.7158 7.21263 60.79 7.53988C57.0404 7.357 53.7225 5.55987 51.4937 2.82225C51.1045 3.49738 50.8763 4.27012 50.8763 5.102C50.8763 6.664 51.6807 8.04862 52.8797 8.85025C52.155 8.8365 51.4442 8.62613 50.8419 8.29475C50.8419 8.3085 50.8419 8.32638 50.8419 8.34425C50.8419 10.536 52.4053 12.3565 54.4554 12.7759C54.0883 12.8763 53.6882 12.9244 53.2729 12.9244C52.9842 12.9244 52.6927 12.9079 52.419 12.8474C53.0034 14.6335 54.6617 15.9466 56.6334 15.9893C55.0989 17.1896 53.1505 17.9129 51.0413 17.9129C50.6714 17.9129 50.3167 17.8964 49.9619 17.851C51.9598 19.1394 54.3275 19.875 56.8809 19.875C65.1804 19.875 69.7179 13 69.7179 7.04075C69.7179 6.84138 69.711 6.64887 69.7014 6.45775C70.5965 5.8225 71.3487 5.02913 71.9619 4.11613Z" fill="white"/>
<path fill-rule="evenodd" clip-rule="evenodd" d="M118.837 0H127.087C130.883 0 133.962 3.07862 133.962 6.875V15.125C133.962 18.9214 130.883 22 127.087 22H118.837C115.041 22 111.962 18.9214 111.962 15.125V6.875C111.962 3.07862 115.041 0 118.837 0ZM127.087 19.9375C129.741 19.9375 131.899 17.7787 131.899 15.125V6.875C131.899 4.22125 129.741 2.0625 127.087 2.0625H118.837C116.183 2.0625 114.024 4.22125 114.024 6.875V15.125C114.024 17.7787 116.183 19.9375 118.837 19.9375H127.087Z" fill="white"/>
<path fill-rule="evenodd" clip-rule="evenodd" d="M117.462 11C117.462 7.96263 119.925 5.5 122.962 5.5C125.999 5.5 128.462 7.96263 128.462 11C128.462 14.0374 125.999 16.5 122.962 16.5C119.925 16.5 117.462 14.0374 117.462 11ZM119.524 11C119.524 12.8948 121.067 14.4375 122.962 14.4375C124.857 14.4375 126.399 12.8948 126.399 11C126.399 9.10388 124.857 7.5625 122.962 7.5625C121.067 7.5625 119.524 9.10388 119.524 11Z" fill="white"/>
<path d="M128.874 5.82036C129.279 5.82036 129.607 5.49224 129.607 5.08749C129.607 4.68273 129.279 4.35461 128.874 4.35461C128.47 4.35461 128.142 4.68273 128.142 5.08749C128.142 5.49224 128.47 5.82036 128.874 5.82036Z" fill="white"/>
</svg>
