<svg width="270" height="270" viewBox="0 0 270 270" fill="none" xmlns="http://www.w3.org/2000/svg">
<rect width="270" height="270" rx="135" fill="#FEFEFE"/>
<g clip-path="url(#clip0_12_6127)">
<path d="M155.145 134.999C151.844 134.999 148.739 133.241 147.059 130.428L134.5 109.608L121.961 130.428C120.262 133.26 117.157 135.018 113.856 135.018C112.977 135.018 112.098 134.901 111.258 134.647L84.5005 126.991V161.756C84.5005 164.627 86.4536 167.127 89.227 167.811L131.454 178.377C133.446 178.866 135.536 178.866 137.508 178.377L179.774 167.811C182.547 167.108 184.5 164.608 184.5 161.756V126.991L157.743 134.627C156.903 134.881 156.024 134.999 155.145 134.999ZM196.668 113.084L186.61 93.0064C186.004 91.7954 184.696 91.0923 183.348 91.2681L134.5 97.4986L152.411 127.206C153.153 128.436 154.637 129.022 156.024 128.631L194.676 117.596C196.61 117.03 197.547 114.881 196.668 113.084V113.084ZM82.3911 93.0064L72.3325 113.084C71.434 114.881 72.3911 117.03 74.3051 117.577L112.957 128.612C114.344 129.002 115.829 128.417 116.571 127.186L134.5 97.4986L85.6333 91.2681C84.2856 91.1118 82.9965 91.7954 82.3911 93.0064V93.0064Z" fill="#00272B"/>
</g>
<defs>
<clipPath id="clip0_12_6127">
<rect width="125" height="100" fill="white" transform="translate(72 85)"/>
</clipPath>
</defs>
</svg>
