<svg width="198" height="36" viewBox="0 0 198 36" fill="none" xmlns="http://www.w3.org/2000/svg">
<path d="M53.6166 1.824H32.9766V35.52H53.6166V28.944H41.1846V21.552H52.1766V15.216H41.1846V8.4H53.6166V1.824Z" fill="#383838"/>
<path d="M58.9453 35.52H67.1533V0H58.9453V35.52Z" fill="#383838"/>
<path d="M84.9096 14.928C87.6456 14.928 89.9496 16.608 89.9496 19.536H79.6776C80.1576 16.56 82.2216 14.928 84.9096 14.928ZM97.7256 26.64H88.9896C88.3176 28.08 87.0216 29.232 84.7176 29.232C82.0776 29.232 79.9176 27.6 79.6296 24.096H98.2056C98.3016 23.28 98.3496 22.464 98.3496 21.696C98.3496 13.536 92.8296 8.352 85.0056 8.352C77.0376 8.352 71.4696 13.632 71.4696 22.128C71.4696 30.624 77.1336 35.904 85.0056 35.904C91.6776 35.904 96.4296 31.872 97.7256 26.64Z" fill="#383838"/>
<path d="M118.52 35.52H127.736L118.52 22.224L127.496 8.736H118.616L114.296 16.128L109.16 8.736H99.9437L109.016 21.84L100.184 35.52H109.064L113.384 28.08L118.52 35.52Z" fill="#383838"/>
<path d="M132.194 26.208C132.194 33.168 136.082 35.52 141.65 35.52H145.826V28.56H142.898C141.074 28.56 140.402 27.888 140.402 26.304V15.552H145.778V8.736H140.402V2.208H132.194V8.736H128.93V15.552H132.194V26.208Z" fill="#383838"/>
<path d="M158.606 23.088C158.606 18.48 160.862 17.136 164.75 17.136H167.006V8.448C163.406 8.448 160.478 10.368 158.606 13.2V8.736H150.398V35.52H158.606V23.088Z" fill="#383838"/>
<path d="M169.298 22.08C169.298 30.528 174.53 35.904 181.058 35.904C185.042 35.904 187.874 34.08 189.362 31.728V35.52H197.57V8.736H189.362V12.528C187.922 10.176 185.09 8.352 181.106 8.352C174.53 8.352 169.298 13.632 169.298 22.08ZM189.362 22.128C189.362 26.4 186.626 28.752 183.506 28.752C180.434 28.752 177.65 26.352 177.65 22.08C177.65 17.808 180.434 15.504 183.506 15.504C186.626 15.504 189.362 17.856 189.362 22.128Z" fill="#383838"/>
<path d="M19.4255 13.3125L11.8524 13.3125L14.648 4.94648C14.9105 3.9668 14.1558 3 13.1255 3L3.67565 3C2.88816 3 2.21879 3.57363 2.11379 4.34063L0.013819 19.8094C-0.110867 20.7375 0.624125 21.5625 1.57568 21.5625H9.36527L6.34 34.0986C6.10375 35.0783 6.86499 36 7.86904 36C8.42028 36 8.94528 35.7164 9.23403 35.2266L20.7839 15.6328C21.3942 14.608 20.6395 13.3125 19.4255 13.3125Z" fill="#FF7020"/>
</svg>
