<svg width="17" height="175" viewBox="0 0 17 175" fill="none" xmlns="http://www.w3.org/2000/svg">
<path fill-rule="evenodd" clip-rule="evenodd" d="M7.00736 0L0.00948449 0.00174812L0.00732437 7.9997H7.00736V0ZM16.0052 0.00174812L9.00748 0V6.00012H16.0076L16.0052 0.00174812ZM0.00732437 9.99987H7.00736V16L0.00948449 15.9977L0.00732437 9.99987ZM16.0076 7.9997H9.00748V16L16.0052 15.9977L16.0076 7.9997Z" fill="#AAAAAA"/>
<path fill-rule="evenodd" clip-rule="evenodd" d="M0.0072023 55.0008H16.0075L16.0076 59.0005H0.00731627L0.0072023 55.0008ZM11.0075 60.0013H16.0076V65.0006H11.0075V60.0013ZM10.0075 60.0013H5.00735V65.0006H10.0075V60.0013ZM0.00731627 60.0013H4.00734V65.0006H0.00731627V60.0013ZM16.0075 66.078L12.0075 66.0008V71.0007H16.0075V66.078ZM6.00736 66.0008H11.0075V71.0007H6.00736V66.0008ZM4.93032 66.078H0.0072023V71.0007H4.93032V66.078Z" fill="#AAAAAA"/>
<path fill-rule="evenodd" clip-rule="evenodd" d="M16.0075 110.085L8.00735 115.502L0.00718704 110.085L0.00512706 109H16.0097L16.0075 110.085ZM0.00718704 112.252L8.00735 117.669L16.0075 112.252L16.0097 122.005H0.00512706L0.00718704 112.252Z" fill="#AAAAAA"/>
<path fill-rule="evenodd" clip-rule="evenodd" d="M14.0576 170.492L15.9486 164.819C16.0434 164.547 15.9717 164.383 15.8954 164.274C15.6993 163.997 15.2965 163.995 15.2181 163.995L4.53195 163.993L4.24687 162.636C4.17009 162.316 3.94222 162.011 3.48353 162.011L1.00722 162.003C0.696035 162.003 0 162.156 0 162.449L0.00720015 163.003C0.0384409 163.941 0.684134 164.003 1.00722 164.003H3.00722L4.96764 171.847C4.65944 172.175 4.49155 172.652 4.49155 173.096C4.49155 174.076 5.26965 174.979 6.26325 174.979C7.20157 174.979 7.90495 174.098 8.01915 173.572H11.7986C11.9128 174.098 12.4824 175 13.554 175C14.5306 175 15.3246 174.151 15.3246 173.174C15.3246 172.202 14.7349 171.339 13.5636 171.339C13.0768 171.339 12.4989 171.602 12.2307 171.996H7.58656C7.24975 171.47 6.78958 171.307 6.32367 171.289L6.26015 170.945H13.3261C13.8585 170.945 13.9635 170.75 14.0576 170.492ZM5.57534 173.152C5.57534 172.78 5.8778 172.476 6.24941 172.476C6.62008 172.476 6.92211 172.78 6.92211 173.152C6.92211 173.525 6.62008 173.828 6.24941 173.828C5.8778 173.827 5.57534 173.525 5.57534 173.152ZM13.5677 173.819C13.2007 173.819 12.9018 173.52 12.9018 173.152C12.9018 172.784 13.2002 172.485 13.5677 172.485C13.9353 172.485 14.2332 172.784 14.2332 173.152C14.2332 173.52 13.9347 173.819 13.5677 173.819Z" fill="#AAAAAA"/>
</svg>
