<svg width="54" height="56" viewBox="0 0 54 56" fill="none" xmlns="http://www.w3.org/2000/svg">
<rect width="54" height="56" rx="27" fill="#1565D8"/>
<path d="M27.7062 34.6023L33.7812 28.5273C34.075 28.2367 34.075 27.7617 33.7812 27.468L27.7062 21.3961C27.4156 21.1023 26.9406 21.1023 26.6469 21.3961L25.9531 22.0899C25.6531 22.3867 25.6593 22.8711 25.9656 23.1617L29.7312 26.7492H20.75C20.3344 26.7492 20 27.0836 20 27.4992V28.4992C20 28.9148 20.3344 29.2492 20.75 29.2492H29.7312L25.9656 32.8367C25.6625 33.1273 25.6562 33.6117 25.9531 33.9086L26.6469 34.6023C26.9375 34.8961 27.4125 34.8961 27.7062 34.6023Z" fill="white"/>
</svg>
