<svg width="26" height="26" viewBox="0 0 26 26" fill="none" xmlns="http://www.w3.org/2000/svg">
<path d="M25.9998 13.0805C25.9998 5.85432 20.1767 0 12.9999 0C5.81828 0 0 5.85432 0 13.0805C0 19.6076 4.75228 25.0196 10.9687 25.9998V16.8623H7.66752V13.0813H10.9687V10.1978C10.9687 6.92038 12.9065 5.11037 15.877 5.11037C17.2996 5.11037 18.789 5.36544 18.789 5.36544V8.58405H17.1469C15.5349 8.58405 15.0312 9.59369 15.0312 10.6279V13.0805H18.6362L18.0569 16.8615H15.0312V25.999C21.2427 25.0188 25.9998 19.6068 25.9998 13.0796V13.0805Z" fill="#193FF6"/>
</svg>
