<svg width="54" height="56" viewBox="0 0 54 56" fill="none" xmlns="http://www.w3.org/2000/svg">
<rect width="54" height="56" rx="27" fill="#1565D8"/>
<path d="M27.3531 34.6023L28.0468 33.9086C28.3468 33.6117 28.3406 33.1273 28.0343 32.8367L24.2687 29.2492H33.25C33.6656 29.2492 34 28.9148 34 28.4992V27.4992C34 27.0836 33.6656 26.7492 33.25 26.7492H24.2687L28.0343 23.1617C28.3375 22.8711 28.3437 22.3867 28.0468 22.0899L27.3531 21.3961C27.0625 21.1023 26.5875 21.1023 26.2937 21.3961L20.2187 27.4711C19.925 27.7617 19.925 28.2367 20.2187 28.5305L26.2937 34.6023C26.5844 34.8961 27.0594 34.8961 27.3531 34.6023Z" fill="white"/>
</svg>
