<svg width="24" height="75" viewBox="0 0 24 75" fill="none" xmlns="http://www.w3.org/2000/svg">
<path d="M4.1152 53.4H8.4032V51H0V59.4032H2.4V55.0832L8.7616 61.4384L10.464 59.7488L4.1152 53.4Z" fill="white"/>
<path d="M10.4384 66.2385L8.736 64.5361L2.4 70.8721V66.6033H0V75.0001H8.4032V72.6001H4.0768L10.4384 66.2385Z" fill="white"/>
<path d="M15.6032 51V53.4H19.8848L13.5488 59.7488L15.2384 61.4384L21.6 55.0704V59.4032H24V51H15.6032Z" fill="white"/>
<path d="M21.5989 66.6032V70.8848L15.2629 64.5488L13.5605 66.2384L19.9157 72.6H15.6021V75H23.9989V66.6032H21.5989Z" fill="white"/>
<path d="M17.9999 14.9995C17.3708 15.001 16.7509 15.1512 16.1909 15.438C15.631 15.7248 15.1468 16.1399 14.7779 16.6495L9.76288 13.3065C10.0789 12.4639 10.0789 11.5352 9.76288 10.6925L14.7779 7.34953C15.3408 8.11266 16.1574 8.65005 17.0809 8.86516C18.0045 9.08026 18.9745 8.95897 19.8166 8.52308C20.6588 8.0872 21.3179 7.36529 21.6755 6.48705C22.0332 5.60881 22.066 4.63182 21.7679 3.73159C21.4699 2.83137 20.8606 2.06693 20.0495 1.57562C19.2385 1.0843 18.2788 0.89832 17.3429 1.05108C16.407 1.20384 15.5563 1.68533 14.9435 2.40905C14.3308 3.13276 13.9962 4.05126 13.9999 4.99953C14.0064 5.14524 14.0211 5.29047 14.0439 5.43453L8.65288 9.02853C8.07837 8.51062 7.36602 8.17039 6.60209 8.04905C5.83817 7.92771 5.05546 8.03047 4.34874 8.34487C3.64202 8.65927 3.04162 9.17183 2.62025 9.82048C2.19888 10.4691 1.97461 11.226 1.97461 11.9995C1.97461 12.773 2.19888 13.5299 2.62025 14.1786C3.04162 14.8272 3.64202 15.3398 4.34874 15.6542C5.05546 15.9686 5.83817 16.0713 6.60209 15.95C7.36602 15.8287 8.07837 15.4884 8.65288 14.9705L14.0439 18.5645C14.0211 18.7086 14.0064 18.8538 13.9999 18.9995C13.9999 19.7907 14.2345 20.564 14.674 21.2218C15.1135 21.8796 15.7382 22.3923 16.4692 22.695C17.2001 22.9978 18.0043 23.077 18.7802 22.9227C19.5562 22.7683 20.2689 22.3874 20.8283 21.828C21.3877 21.2685 21.7687 20.5558 21.923 19.7799C22.0774 19.004 21.9982 18.1997 21.6954 17.4688C21.3927 16.7379 20.88 16.1132 20.2222 15.6736C19.5644 15.2341 18.791 14.9995 17.9999 14.9995V14.9995Z" fill="white"/>
</svg>
