<svg width="120" height="120" viewBox="0 0 120 120" fill="none" xmlns="http://www.w3.org/2000/svg">
<circle cx="60" cy="60" r="59" stroke="#9F9F9F" stroke-width="2"/>
<path d="M64.9434 44.6182C64.9434 45.5704 64.9434 46.5225 64.9434 47.4747C64.9434 49.7598 64.9434 52.045 64.9434 54.3365C64.9434 57.0914 64.9434 59.8462 64.9434 62.6011C64.9434 64.9878 64.9434 67.3809 64.9434 69.7676C64.9434 70.9229 64.918 72.0845 64.9434 73.2398C64.9434 73.2588 64.9434 73.2715 64.9434 73.2906C65.7876 72.4463 66.6382 71.5958 67.4825 70.7515C65.3496 70.7515 63.2168 70.7515 61.084 70.7515C57.6753 70.7515 54.2603 70.7515 50.8516 70.7515C50.0708 70.7515 49.2901 70.7515 48.5156 70.7515C49.3599 71.5958 50.2105 72.4463 51.0547 73.2906C51.042 71.7989 50.6167 70.2247 49.7407 69.0059C49.1694 68.2125 48.5982 67.6348 47.8237 67.0508C47.2207 66.5938 46.5415 66.2828 45.8306 66.0225C43.0186 64.9815 39.521 65.94 37.5977 68.2315C36.3916 69.6724 35.6997 71.399 35.6807 73.2969C36.5249 72.4527 37.3755 71.6021 38.2197 70.7579C37.439 70.7579 36.6646 70.7579 35.8838 70.7579C35.0903 70.7579 34.2651 70.8277 33.4717 70.7388C33.6939 70.7706 33.9224 70.8023 34.1445 70.8277C33.9731 70.8023 33.8081 70.7579 33.6494 70.7007C33.8525 70.7833 34.0557 70.8721 34.2588 70.9546C34.0747 70.8785 33.9097 70.7833 33.751 70.6626C33.9224 70.796 34.0938 70.9293 34.2651 71.0626C34.1318 70.9546 34.0176 70.8404 33.916 70.7134C34.0493 70.8848 34.1826 71.0562 34.3159 71.2276C34.1953 71.0689 34.1001 70.9039 34.0239 70.7198C34.1064 70.9229 34.1953 71.126 34.2778 71.3292C34.2144 71.1641 34.1763 71.0054 34.1509 70.834C34.1826 71.0562 34.2144 71.2847 34.2397 71.5069C34.208 71.2022 34.2207 70.8912 34.2207 70.5865C34.2207 69.9517 34.2207 69.3106 34.2207 68.6758C34.2207 66.543 34.2207 64.4039 34.2207 62.2711C34.2207 59.6876 34.2207 57.1041 34.2207 54.5206C34.2207 52.2925 34.2207 50.0645 34.2207 47.8365C34.2207 46.7764 34.208 45.7164 34.2207 44.6627C34.2207 44.5611 34.2271 44.4659 34.2397 44.3643C34.208 44.5865 34.1763 44.815 34.1509 45.0372C34.1763 44.8658 34.2207 44.7007 34.2778 44.542C34.1953 44.7452 34.1064 44.9483 34.0239 45.1514C34.1001 44.9673 34.1953 44.8023 34.3159 44.6436C34.1826 44.815 34.0493 44.9864 33.916 45.1578C34.0239 45.0245 34.1382 44.9102 34.2651 44.8086C34.0938 44.9419 33.9224 45.0753 33.751 45.2086C33.9097 45.0879 34.0747 44.9927 34.2588 44.9166C34.0557 44.9991 33.8525 45.0879 33.6494 45.1705C33.8145 45.107 33.9731 45.0689 34.1445 45.0435C33.9224 45.0753 33.6939 45.107 33.4717 45.1324C33.8208 45.0943 34.1826 45.1133 34.5381 45.1133C35.2998 45.1133 36.0615 45.1133 36.8232 45.1133C39.3623 45.1133 41.895 45.1133 44.4341 45.1133C47.5 45.1133 50.5659 45.1133 53.6382 45.1133C56.2915 45.1133 58.9448 45.1133 61.5982 45.1133C62.8614 45.1133 64.1245 45.0943 65.3877 45.1133C65.4893 45.1133 65.5908 45.1197 65.6924 45.1324C65.4702 45.1006 65.2417 45.0689 65.0196 45.0435C65.1909 45.0689 65.356 45.1133 65.5147 45.1705C65.3116 45.0879 65.1084 44.9991 64.9053 44.9166C65.0894 44.9927 65.2544 45.0879 65.4131 45.2086C65.2417 45.0753 65.0703 44.9419 64.899 44.8086C65.0323 44.9166 65.1465 45.0308 65.2481 45.1578C65.1148 44.9864 64.9815 44.815 64.8482 44.6436C64.9688 44.8023 65.064 44.9673 65.1402 45.1514C65.0576 44.9483 64.9688 44.7452 64.8863 44.542C64.9497 44.7071 64.9878 44.8658 65.0132 45.0372C64.9815 44.815 64.9497 44.5865 64.9243 44.3643C64.937 44.4405 64.9434 44.5294 64.9434 44.6182C64.9561 45.2784 65.2163 45.9449 65.6861 46.4146C66.1241 46.8526 66.8477 47.189 67.4825 47.1573C68.8345 47.0938 70.0533 46.0401 70.0215 44.6182C69.9961 43.4312 69.5645 42.3775 68.7901 41.4888C68.1997 40.816 67.2539 40.2701 66.3653 40.1304C65.9844 40.0669 65.6099 40.0225 65.2227 40.0225C64.6324 40.0225 64.0357 40.0225 63.4453 40.0225C60.938 40.0225 58.4307 40.0225 55.9234 40.0225C52.6416 40.0225 49.3662 40.0225 46.0845 40.0225C43.2217 40.0225 40.3589 40.0225 37.5024 40.0225C36.252 40.0225 34.9951 39.9971 33.7446 40.0225C31.7007 40.0606 29.9233 41.3809 29.3267 43.3423C29.1807 43.8121 29.1489 44.3135 29.1489 44.8086C29.1489 45.4625 29.1489 46.1163 29.1489 46.7701C29.1489 49.5059 29.1489 52.2354 29.1489 54.9712C29.1489 58.2022 29.1489 61.4395 29.1489 64.6705C29.1489 66.7271 29.1489 68.7774 29.1489 70.834C29.1489 70.9673 29.1489 71.1006 29.1489 71.2276C29.1616 72.0274 29.3584 72.7193 29.7075 73.4366C30.1011 74.2364 30.8882 74.9854 31.7007 75.3409C32.3989 75.6519 33.0527 75.8296 33.8272 75.836C34.0557 75.836 34.2905 75.836 34.519 75.836C35.3189 75.836 36.1123 75.836 36.9121 75.836C37.3501 75.836 37.7881 75.836 38.2261 75.836C39.6099 75.836 40.7524 74.6744 40.7651 73.2969C40.7651 73.0621 40.7842 72.8272 40.8159 72.5923C40.7842 72.8145 40.7524 73.043 40.7271 73.2652C40.7905 72.8082 40.9175 72.3702 41.0889 71.9512C41.0064 72.1544 40.9175 72.3575 40.835 72.5606C41.0127 72.148 41.2412 71.7671 41.5142 71.4117C41.3809 71.5831 41.2476 71.7544 41.1143 71.9258C41.3745 71.5958 41.6665 71.3038 41.9966 71.0435C41.8252 71.1768 41.6538 71.3101 41.4824 71.4434C41.8379 71.1705 42.2188 70.9419 42.6314 70.7642C42.4282 70.8467 42.2251 70.9356 42.022 71.0181C42.4473 70.8404 42.8853 70.7198 43.3359 70.6563C43.1138 70.688 42.8853 70.7198 42.6631 70.7452C43.1328 70.6817 43.6025 70.6817 44.0723 70.7452C43.8501 70.7134 43.6216 70.6817 43.3994 70.6563C43.8565 70.7198 44.2944 70.8467 44.7134 71.0181C44.5103 70.9356 44.3071 70.8467 44.104 70.7642C44.5166 70.9419 44.8975 71.1705 45.2529 71.4434C45.0816 71.3101 44.9102 71.1768 44.7388 71.0435C45.0689 71.3038 45.3609 71.5958 45.6211 71.9258C45.4878 71.7544 45.3545 71.5831 45.2212 71.4117C45.4942 71.7671 45.7227 72.148 45.9004 72.5606C45.8179 72.3575 45.729 72.1544 45.6465 71.9512C45.8242 72.3765 45.9448 72.8145 46.0083 73.2652C45.9766 73.043 45.9448 72.8145 45.9194 72.5923C45.9512 72.8272 45.9639 73.0621 45.9702 73.2969C45.9829 74.668 47.1255 75.836 48.5093 75.836C50.6421 75.836 52.7749 75.836 54.9077 75.836C58.3164 75.836 61.7315 75.836 65.1402 75.836C65.9209 75.836 66.7017 75.836 67.4761 75.836C68.8472 75.836 70.0152 74.6744 70.0152 73.2969C70.0152 72.3448 70.0152 71.3926 70.0152 70.4405C70.0152 68.1553 70.0152 65.8702 70.0152 63.5787C70.0152 60.8238 70.0152 58.0689 70.0152 55.314C70.0152 52.9273 70.0152 50.5342 70.0152 48.1475C70.0152 46.9922 70.0342 45.8306 70.0152 44.6753C70.0152 44.6563 70.0152 44.6436 70.0152 44.6246C70.0152 43.2979 68.8472 42.022 67.4761 42.0855C66.105 42.1426 64.9434 43.1963 64.9434 44.6182Z" fill="#393D46"/>
<path d="M86.7729 62.9057C86.7729 65.3749 86.7729 67.8378 86.7729 70.307C86.7729 70.7006 86.7983 71.1069 86.7539 71.5068C86.7856 71.2846 86.8174 71.0561 86.8428 70.8339C86.8174 71.0053 86.7729 71.1703 86.7158 71.329C86.7983 71.1259 86.8872 70.9228 86.9697 70.7196C86.8935 70.9037 86.7983 71.0688 86.6777 71.2275C86.811 71.0561 86.9443 70.8847 87.0776 70.7133C86.9697 70.8466 86.8555 70.9609 86.7285 71.0624C86.8999 70.9291 87.0713 70.7958 87.2427 70.6625C87.084 70.7831 86.9189 70.8783 86.7349 70.9545C86.938 70.872 87.1411 70.7831 87.3442 70.7006C87.1792 70.7641 87.0205 70.8022 86.8491 70.8276C87.0713 70.7958 87.2998 70.7641 87.522 70.7387C86.8682 70.8085 86.189 70.7577 85.5288 70.7577C84.8877 70.7577 84.2529 70.7577 83.6118 70.7577C84.456 71.602 85.3066 72.4526 86.1509 73.2968C86.1382 71.8051 85.7129 70.2309 84.8369 69.0121C84.2656 68.2187 83.6943 67.641 82.9199 67.057C82.3169 66.6 81.6377 66.289 80.9267 66.0287C78.1084 64.9877 74.6172 65.9462 72.6938 68.2377C71.4878 69.6786 70.7959 71.4052 70.7768 73.3031C71.6211 72.4589 72.4717 71.6083 73.3159 70.7641C71.6147 70.7641 69.9199 70.7641 68.2187 70.7641C67.9712 70.7641 67.7236 70.7641 67.4761 70.7641C68.3203 71.6083 69.1709 72.4589 70.0151 73.3031C70.0151 72.5541 70.0151 71.8114 70.0151 71.0624C70.0151 69.2724 70.0151 67.476 70.0151 65.686C70.0151 63.5151 70.0151 61.3505 70.0151 59.1796C70.0151 57.307 70.0151 55.4281 70.0151 53.5556C70.0151 52.6415 70.0342 51.7275 70.0151 50.8134C70.0151 50.8007 70.0151 50.788 70.0151 50.7753C69.1709 51.6195 68.3203 52.4701 67.4761 53.3144C68.771 53.3144 70.0659 53.3144 71.3608 53.3144C73.3857 53.3144 75.4106 53.3144 77.4355 53.3144C77.9751 53.3144 78.54 53.2763 79.0732 53.3398C78.8511 53.308 78.6225 53.2763 78.4004 53.2509C78.6289 53.289 78.8384 53.3461 79.0542 53.4286C78.8511 53.3461 78.6479 53.2572 78.4448 53.1747C78.686 53.2763 78.9082 53.4032 79.1113 53.5619C78.9399 53.4286 78.7685 53.2953 78.5972 53.162C79.0161 53.4985 79.3462 53.9618 79.689 54.3681C80.3047 55.1044 80.9204 55.8407 81.5425 56.5771C82.9834 58.2973 84.4243 60.0238 85.8716 61.7441C86.2207 62.163 86.5762 62.5756 86.9189 62.9945C86.7856 62.8232 86.6523 62.6518 86.519 62.4804C86.665 62.6772 86.7793 62.8739 86.8808 63.0961C86.7983 62.893 86.7095 62.6899 86.6269 62.4867C86.7158 62.7089 86.7793 62.9311 86.8174 63.1723C86.7856 62.9501 86.7539 62.7216 86.7285 62.4994C86.7602 62.6327 86.7729 62.766 86.7729 62.9057C86.7856 63.5658 87.0459 64.2323 87.5156 64.7021C87.9536 65.1401 88.6772 65.4765 89.312 65.4447C90.6641 65.3813 91.8765 64.3276 91.8511 62.9057C91.832 61.9916 91.6099 61.1537 91.1909 60.3412C90.9941 59.9604 90.7085 59.6239 90.4355 59.2939C90.3213 59.1606 90.2134 59.0273 90.0991 58.894C89.5469 58.2338 88.9883 57.5673 88.436 56.9071C86.938 55.1171 85.4336 53.3207 83.9355 51.5307C83.5229 51.0356 83.1103 50.5404 82.6977 50.0517C81.6885 48.852 80.146 48.2299 78.5972 48.2299C76.7627 48.2236 74.9219 48.2299 73.0874 48.2299C71.2529 48.2299 69.4121 48.2109 67.5776 48.2299C67.5459 48.2299 67.5142 48.2299 67.4824 48.2299C66.1113 48.2299 64.9434 49.3915 64.9434 50.769C64.9434 51.518 64.9434 52.2607 64.9434 53.0097C64.9434 54.7997 64.9434 56.5961 64.9434 58.3861C64.9434 60.557 64.9434 62.7216 64.9434 64.8925C64.9434 66.7651 64.9434 68.644 64.9434 70.5165C64.9434 71.4306 64.9307 72.3446 64.9434 73.2587C64.9434 73.2714 64.9434 73.2841 64.9434 73.2968C64.9434 74.6679 66.105 75.8359 67.4824 75.8359C69.1836 75.8359 70.8784 75.8359 72.5796 75.8359C72.8271 75.8359 73.0747 75.8359 73.3223 75.8359C74.706 75.8359 75.8486 74.6742 75.8613 73.2968C75.8613 73.0619 75.8804 72.8271 75.9121 72.5922C75.8804 72.8144 75.8486 73.0429 75.8232 73.2651C75.8867 72.808 76.0137 72.37 76.185 71.9511C76.1025 72.1542 76.0137 72.3573 75.9311 72.5605C76.1089 72.1479 76.3374 71.767 76.6103 71.4115C76.477 71.5829 76.3437 71.7543 76.2104 71.9257C76.4707 71.5956 76.7627 71.3036 77.0928 71.0434C76.9214 71.1767 76.75 71.31 76.5786 71.4433C76.9341 71.1703 77.3149 70.9418 77.7275 70.7641C77.5244 70.8466 77.3213 70.9355 77.1182 71.018C77.5434 70.8403 77.9814 70.7196 78.4321 70.6562C78.21 70.6879 77.9814 70.7196 77.7593 70.745C78.229 70.6816 78.6987 70.6816 79.1684 70.745C78.9463 70.7133 78.7178 70.6816 78.4956 70.6562C78.9526 70.7196 79.3906 70.8466 79.8096 71.018C79.6064 70.9355 79.4033 70.8466 79.2002 70.7641C79.6128 70.9418 79.9936 71.1703 80.3491 71.4433C80.1777 71.31 80.0063 71.1767 79.8349 71.0434C80.165 71.3036 80.457 71.5956 80.7173 71.9257C80.584 71.7543 80.4507 71.5829 80.3174 71.4115C80.5903 71.767 80.8188 72.1479 80.9966 72.5605C80.9141 72.3573 80.8252 72.1542 80.7427 71.9511C80.9204 72.3764 81.041 72.8144 81.1045 73.2651C81.0727 73.0429 81.041 72.8144 81.0156 72.5922C81.0474 72.8271 81.06 73.0619 81.0664 73.2968C81.0791 74.6679 82.2217 75.8359 83.6055 75.8359C84.6084 75.8359 85.6177 75.8359 86.6206 75.8359C87.2871 75.8359 87.9663 75.8485 88.6074 75.6264C89.3818 75.3661 90.1372 74.9345 90.6641 74.2997C90.9307 73.976 91.1846 73.6586 91.3496 73.2777C91.6289 72.6493 91.7558 72.186 91.8257 71.5004C91.8955 70.7895 91.8447 70.0468 91.8447 69.3359C91.8447 68.0346 91.8447 66.7333 91.8447 65.432C91.8447 64.5878 91.8447 63.7499 91.8447 62.9057C91.8447 61.579 90.6767 60.3031 89.3057 60.3666C87.9409 60.4301 86.7729 61.4838 86.7729 62.9057ZM45.9702 73.2904C45.9702 73.5253 45.9512 73.7602 45.9194 73.995C45.9512 73.7729 45.9829 73.5444 46.0083 73.3222C45.9448 73.7792 45.8179 74.2172 45.6465 74.6361C45.729 74.433 45.8179 74.2299 45.9004 74.0268C45.7227 74.4394 45.4941 74.8202 45.2212 75.1757C45.3545 75.0043 45.4878 74.8329 45.6211 74.6615C45.3608 74.9916 45.0688 75.2836 44.7388 75.5439C44.9102 75.4106 45.0815 75.2773 45.2529 75.144C44.8975 75.4169 44.5166 75.6454 44.104 75.8232C44.3071 75.7406 44.5103 75.6518 44.7134 75.5693C44.2881 75.747 43.8501 75.8676 43.3994 75.9311C43.6216 75.8993 43.8501 75.8676 44.0723 75.8422C43.6025 75.9057 43.1328 75.9057 42.6631 75.8422C42.8853 75.8739 43.1138 75.9057 43.3359 75.9311C42.8789 75.8676 42.4409 75.7406 42.022 75.5693C42.2251 75.6518 42.4282 75.7406 42.6313 75.8232C42.2187 75.6454 41.8379 75.4169 41.4824 75.144C41.6538 75.2773 41.8252 75.4106 41.9966 75.5439C41.6665 75.2836 41.3745 74.9916 41.1143 74.6615C41.2476 74.8329 41.3809 75.0043 41.5142 75.1757C41.2412 74.8202 41.0127 74.4394 40.835 74.0268C40.9175 74.2299 41.0063 74.433 41.0889 74.6361C40.9111 74.2109 40.7905 73.7729 40.7271 73.3222C40.7588 73.5444 40.7905 73.7729 40.8159 73.995C40.7524 73.5253 40.7524 73.0556 40.8159 72.5859C40.7842 72.808 40.7524 73.0365 40.7271 73.2587C40.7905 72.8017 40.9175 72.3637 41.0889 71.9447C41.0063 72.1479 40.9175 72.351 40.835 72.5541C41.0127 72.1415 41.2412 71.7607 41.5142 71.4052C41.3809 71.5766 41.2476 71.748 41.1143 71.9194C41.3745 71.5893 41.6665 71.2973 41.9966 71.037C41.8252 71.1703 41.6538 71.3036 41.4824 71.4369C41.8379 71.164 42.2187 70.9355 42.6313 70.7577C42.4282 70.8402 42.2251 70.9291 42.022 71.0116C42.4473 70.8339 42.8853 70.7133 43.3359 70.6498C43.1138 70.6816 42.8853 70.7133 42.6631 70.7387C43.1328 70.6752 43.6025 70.6752 44.0723 70.7387C43.8501 70.7069 43.6216 70.6752 43.3994 70.6498C43.8564 70.7133 44.2944 70.8402 44.7134 71.0116C44.5103 70.9291 44.3071 70.8402 44.104 70.7577C44.5166 70.9355 44.8975 71.164 45.2529 71.4369C45.0815 71.3036 44.9102 71.1703 44.7388 71.037C45.0688 71.2973 45.3608 71.5893 45.6211 71.9194C45.4878 71.748 45.3545 71.5766 45.2212 71.4052C45.4941 71.7607 45.7227 72.1415 45.9004 72.5541C45.8179 72.351 45.729 72.1479 45.6465 71.9447C45.8242 72.37 45.9448 72.808 46.0083 73.2587C45.9766 73.0365 45.9448 72.808 45.9194 72.5859C45.9575 72.8207 45.9702 73.0556 45.9702 73.2904C45.9766 73.9443 46.2495 74.6235 46.7129 75.0868C47.1509 75.5248 47.8745 75.8612 48.5093 75.8295C49.874 75.766 51.061 74.7123 51.0483 73.2904C51.0356 71.7861 50.604 70.1928 49.709 68.9677C49.1377 68.1933 48.5791 67.622 47.8174 67.0443C47.2144 66.581 46.5352 66.2763 45.8242 66.016C45.1069 65.7494 44.3071 65.6352 43.5391 65.6098C42.7837 65.5844 41.9902 65.686 41.2603 65.8954C39.8574 66.2953 38.4927 67.1269 37.5596 68.2568C36.9375 69.0121 36.5249 69.7231 36.1567 70.6308C35.8711 71.3417 35.7568 72.0844 35.687 72.8461C35.5601 74.3378 35.9854 75.9501 36.7534 77.226C37.5024 78.4701 38.645 79.5746 39.9717 80.1777C40.8984 80.5966 41.7236 80.8251 42.7329 80.933C43.4883 81.0155 44.2437 80.933 44.9863 80.787C46.5415 80.495 48.103 79.5619 49.1187 78.3495C50.3247 76.9086 51.0166 75.182 51.0356 73.2841C51.0483 71.9574 49.8613 70.6816 48.4966 70.745C47.1255 70.8149 45.9829 71.8686 45.9702 73.2904Z" fill="#393D46"/>
<path d="M81.0727 73.2904C81.0727 73.5253 81.0537 73.7602 81.022 73.995C81.0537 73.7729 81.0854 73.5443 81.1108 73.3222C81.0473 73.7792 80.9204 74.2172 80.749 74.6361C80.8315 74.433 80.9204 74.2299 81.0029 74.0268C80.8252 74.4394 80.5967 74.8202 80.3237 75.1757C80.457 75.0043 80.5903 74.8329 80.7236 74.6615C80.4634 74.9916 80.1714 75.2836 79.8413 75.5439C80.0127 75.4106 80.1841 75.2773 80.3555 75.144C80 75.4169 79.6191 75.6454 79.2065 75.8232C79.4097 75.7406 79.6128 75.6518 79.8159 75.5692C79.3906 75.747 78.9526 75.8676 78.5019 75.9311C78.7241 75.8993 78.9526 75.8676 79.1748 75.8422C78.7051 75.9057 78.2353 75.9057 77.7656 75.8422C77.9878 75.8739 78.2163 75.9057 78.4385 75.9311C77.9814 75.8676 77.5434 75.7406 77.1245 75.5692C77.3276 75.6518 77.5308 75.7406 77.7339 75.8232C77.3213 75.6454 76.9404 75.4169 76.585 75.144C76.7563 75.2773 76.9277 75.4106 77.0991 75.5439C76.769 75.2836 76.477 74.9916 76.2168 74.6615C76.3501 74.8329 76.4834 75.0043 76.6167 75.1757C76.3437 74.8202 76.1152 74.4394 75.9375 74.0268C76.02 74.2299 76.1089 74.433 76.1914 74.6361C76.0137 74.2108 75.8931 73.7729 75.8296 73.3222C75.8613 73.5443 75.8931 73.7729 75.9185 73.995C75.855 73.5253 75.855 73.0556 75.9185 72.5859C75.8867 72.808 75.855 73.0365 75.8296 73.2587C75.8931 72.8017 76.02 72.3637 76.1914 71.9447C76.1089 72.1479 76.02 72.351 75.9375 72.5541C76.1152 72.1415 76.3437 71.7607 76.6167 71.4052C76.4834 71.5766 76.3501 71.748 76.2168 71.9193C76.477 71.5893 76.769 71.2973 77.0991 71.037C76.9277 71.1703 76.7563 71.3036 76.585 71.4369C76.9404 71.164 77.3213 70.9355 77.7339 70.7577C77.5308 70.8402 77.3276 70.9291 77.1245 71.0116C77.5498 70.8339 77.9878 70.7133 78.4385 70.6498C78.2163 70.6816 77.9878 70.7133 77.7656 70.7387C78.2353 70.6752 78.7051 70.6752 79.1748 70.7387C78.9526 70.7069 78.7241 70.6752 78.5019 70.6498C78.959 70.7133 79.397 70.8402 79.8159 71.0116C79.6128 70.9291 79.4097 70.8402 79.2065 70.7577C79.6191 70.9355 80 71.164 80.3555 71.4369C80.1841 71.3036 80.0127 71.1703 79.8413 71.037C80.1714 71.2973 80.4634 71.5893 80.7236 71.9193C80.5903 71.748 80.457 71.5766 80.3237 71.4052C80.5967 71.7607 80.8252 72.1415 81.0029 72.5541C80.9204 72.351 80.8315 72.1479 80.749 71.9447C80.9267 72.37 81.0473 72.808 81.1108 73.2587C81.0791 73.0365 81.0473 72.808 81.022 72.5859C81.0537 72.8207 81.0727 73.0556 81.0727 73.2904C81.0791 73.9442 81.352 74.6234 81.8154 75.0868C82.2534 75.5248 82.977 75.8612 83.6118 75.8295C84.9765 75.766 86.1635 74.7123 86.1509 73.2904C86.1382 71.786 85.7065 70.1928 84.8115 68.9677C84.2402 68.1933 83.6816 67.622 82.9199 67.0444C82.3169 66.581 81.6377 66.2763 80.9267 66.016C80.2095 65.7494 79.4097 65.6352 78.6416 65.6098C77.8862 65.5844 77.0928 65.686 76.3628 65.8954C74.96 66.2953 73.5952 67.1269 72.6621 68.2568C72.04 69.0121 71.6274 69.7231 71.2593 70.6308C70.9736 71.3417 70.8594 72.0844 70.7896 72.8461C70.6626 74.3378 71.0879 75.9501 71.856 77.226C72.605 78.4701 73.7476 79.5746 75.0742 80.1776C76.001 80.5966 76.8262 80.8251 77.8354 80.933C78.5908 81.0155 79.3462 80.933 80.0889 80.787C81.644 80.495 83.2055 79.5619 84.2212 78.3495C85.4272 76.9086 86.1191 75.182 86.1382 73.2841C86.1509 71.9574 84.9638 70.6816 83.5991 70.745C82.228 70.8149 81.0854 71.8686 81.0727 73.2904Z" fill="#393D46"/>
</svg>
