<svg width="14" height="18" viewBox="0 0 14 18" fill="none" xmlns="http://www.w3.org/2000/svg">
<path d="M12.9727 3.44531L10.0547 0.492188C9.73828 0.175781 9.28125 0 8.85938 0H1.6875C0.738281 0 0 0.773438 0 1.6875V16.3125C0 17.2617 0.738281 18 1.6875 18H11.8125C12.7266 18 13.5 17.2617 13.5 16.3125V4.64062C13.5 4.21875 13.2891 3.76172 12.9727 3.44531ZM11.6719 4.5H9V1.82812L11.6719 4.5ZM1.6875 16.3125V1.6875H7.3125V5.34375C7.3125 5.83594 7.66406 6.1875 8.15625 6.1875H11.8125V16.3125H1.6875ZM9.42188 9C9.21094 9 9.03516 9.14062 9 9.35156C8.26172 12.7969 8.29688 12.6914 8.26172 12.9727C8.26172 12.9375 8.26172 12.9023 8.22656 12.832C8.19141 12.6562 8.26172 12.832 7.41797 9.35156C7.34766 9.14062 7.20703 9 6.99609 9H6.53906C6.32812 9 6.15234 9.14062 6.11719 9.35156C5.27344 12.832 5.27344 12.7266 5.23828 12.9727C5.23828 12.9375 5.23828 12.9023 5.23828 12.832C5.20312 12.6562 4.74609 10.2656 4.57031 9.35156C4.5 9.14062 4.35938 9 4.14844 9H3.55078C3.26953 9 3.05859 9.28125 3.12891 9.52734C3.41016 10.6875 4.07812 13.3945 4.28906 14.3086C4.35938 14.5195 4.53516 14.625 4.71094 14.625H5.58984C5.80078 14.625 5.97656 14.5195 6.01172 14.3086L6.64453 11.8125C6.67969 11.6016 6.71484 11.3906 6.75 11.1797L6.85547 11.8125C6.85547 11.8125 7.27734 13.5703 7.48828 14.3086C7.52344 14.4844 7.69922 14.625 7.875 14.625H8.75391C8.92969 14.625 9.10547 14.5195 9.17578 14.3086C9.87891 11.4258 10.2305 10.125 10.3711 9.52734C10.4414 9.28125 10.2305 9 9.94922 9H9.42188Z" fill="#FC4B4E"/>
</svg>
