<svg width="179" height="40" viewBox="0 0 179 40" fill="none" xmlns="http://www.w3.org/2000/svg">
<path d="M0 31.396V34.6439C0 37.4278 6.87569 39.593 15.3503 39.593C23.825 39.593 30.7007 37.4278 30.7007 34.6439V31.396C27.3428 33.6386 21.3466 34.6439 15.3503 34.6439C9.27419 34.6439 3.27794 33.6386 0 31.396ZM25.5839 9.89825C34.0585 9.89825 40.9342 7.733 40.9342 4.94913C40.9342 2.24257 34.0585 0 25.5839 0C17.1093 0 10.2336 2.24257 10.2336 4.94913C10.2336 7.733 17.1093 9.89825 25.5839 9.89825ZM0 23.2764V27.2202C0 30.0041 6.87569 32.1693 15.3503 32.1693C23.825 32.1693 30.7007 30.0041 30.7007 27.2202V23.2764C27.3428 25.9056 21.3466 27.2202 15.3503 27.2202C9.27419 27.2202 3.27794 25.9056 0 23.2764ZM33.2591 24.127C37.8162 23.2764 40.9342 21.6524 40.9342 19.7965V16.5487C39.0154 17.7859 36.2971 18.6365 33.2591 19.1779V24.127ZM15.3503 12.3728C6.87569 12.3728 0 15.1567 0 18.5593C0 22.039 6.87569 24.7456 15.3503 24.7456C23.825 24.7456 30.7007 22.039 30.7007 18.5593C30.7007 15.1567 23.825 12.3728 15.3503 12.3728ZM32.8593 16.7806C37.6563 15.93 40.9342 14.306 40.9342 12.3728V9.12497C38.0561 11.0582 33.1791 12.0635 28.0623 12.3728C30.3809 13.4554 32.1398 14.9247 32.8593 16.7806Z" fill="#03C4A1"/>
<path d="M69.9603 31.6317L74.8573 11.2166H81.4131L73.0184 39.3647H66.9022L58.5674 11.2166H65.0835L69.9603 31.6317Z" fill="white"/>
<path d="M91.8545 39.3645H86.1779V18.4467H91.8545V39.3645ZM85.9184 13.0336C85.9184 12.183 86.198 11.487 86.7579 10.9457C87.3171 10.4044 88.0634 10.1337 88.996 10.1337C89.9287 10.1337 90.675 10.4044 91.2348 10.9457C91.7947 11.487 92.0743 12.183 92.0743 13.0336C92.0743 13.8714 91.7947 14.5674 91.2348 15.1215C90.6888 15.6757 89.9426 15.9528 88.996 15.9528C88.0501 15.9528 87.2976 15.6757 86.7377 15.1215C86.1911 14.5674 85.9184 13.8714 85.9184 13.0336Z" fill="white"/>
<path d="M108.952 23.7247L107.072 23.5701C105.527 23.5701 104.481 24.2274 103.935 25.542V39.3647H98.2583V18.447H103.595L103.755 20.7089C104.648 18.9432 105.88 18.0603 107.452 18.0603C108.092 18.0603 108.612 18.1441 109.011 18.3116L108.952 23.7247Z" fill="white"/>
<path d="M121.492 13.3046V18.447H124.39V22.5648H121.492V32.9464C121.492 33.7713 121.605 34.3383 121.832 34.6477C122.072 34.957 122.524 35.1116 123.191 35.1116C123.737 35.1116 124.184 35.0665 124.53 34.9763L124.49 39.2294C123.531 39.5774 122.491 39.7515 121.372 39.7515C117.721 39.7515 115.875 37.728 115.836 33.681V22.5648H113.337V18.447H115.836V13.3046H121.492Z" fill="white"/>
<path d="M140.188 37.4505C139.015 38.9842 137.443 39.7511 135.471 39.7511C133.486 39.7511 131.98 39.0938 130.954 37.7792C129.928 36.4516 129.415 34.5249 129.415 31.9987V18.4466H135.071V32.1341C135.098 34.1704 135.798 35.1886 137.17 35.1886C138.462 35.1886 139.395 34.6473 139.968 33.5646V18.4466H145.665V39.3644H140.348L140.188 37.4505Z" fill="white"/>
<path d="M162.022 39.3647C161.862 39.0425 161.703 38.5013 161.543 37.7408C160.53 39.0812 159.157 39.7514 157.426 39.7514C155.613 39.7514 154.107 39.1714 152.908 38.0115C151.723 36.8515 151.129 35.35 151.129 33.507C151.129 31.316 151.849 29.6212 153.288 28.4225C154.74 27.2239 156.825 26.6117 159.544 26.586H161.263V24.904C161.263 23.9632 161.096 23.2994 160.763 22.9128C160.43 22.5261 159.944 22.3328 159.304 22.3328C157.892 22.3328 157.186 23.1319 157.186 24.73H151.529C151.529 22.7968 152.275 21.2051 153.767 19.9549C155.273 18.6918 157.172 18.0603 159.464 18.0603C161.836 18.0603 163.668 18.6596 164.961 19.8582C166.266 21.044 166.919 22.7452 166.919 24.962V34.8023C166.946 36.6066 167.213 38.0179 167.719 39.0361V39.3647H162.022ZM158.685 35.4596C159.311 35.4596 159.844 35.3372 160.283 35.0922C160.723 34.8474 161.05 34.5574 161.263 34.2223V29.8725H159.904C158.945 29.8725 158.185 30.1689 157.625 30.7618C157.079 31.3547 156.806 32.1472 156.806 33.1397C156.806 34.6863 157.432 35.4596 158.685 35.4596Z" fill="white"/>
<path d="M179 39.3645H173.323V9.66974H179V39.3645Z" fill="white"/>
</svg>
