<svg width="30" height="30" viewBox="0 0 30 30" fill="none" xmlns="http://www.w3.org/2000/svg">
<path d="M13.1928 7.80004L8.96404 2.91879C8.47654 2.35629 7.58279 2.35879 7.01654 2.92629L3.53904 6.41004C2.50404 7.44629 2.20779 8.98504 2.80654 10.2188C6.38356 17.625 12.3566 23.6064 19.7578 27.1938C20.9903 27.7925 22.5278 27.4963 23.5628 26.46L27.0728 22.9438C27.6415 22.375 27.6428 21.4763 27.0753 20.9888L22.1753 16.7825C21.6628 16.3425 20.8665 16.4 20.3528 16.915L18.6478 18.6225C18.5605 18.714 18.4456 18.7743 18.3207 18.7942C18.1959 18.8141 18.0679 18.7924 17.9565 18.7325C15.1696 17.1277 12.8578 14.8128 11.2565 12.0238C11.1966 11.9122 11.1749 11.7841 11.1947 11.659C11.2146 11.5339 11.275 11.4188 11.3665 11.3313L13.0665 9.63004C13.5815 9.11254 13.6378 8.31254 13.1928 7.79879V7.80004Z" stroke="white" stroke-width="2" stroke-linecap="round" stroke-linejoin="round"/>
</svg>
