<svg width="72" height="72" viewBox="0 0 72 72" fill="none" xmlns="http://www.w3.org/2000/svg">
<circle cx="36" cy="36" r="36" fill="#9A754B"/>
<path fill-rule="evenodd" clip-rule="evenodd" d="M36 21.333V25.333C41.8933 25.333 46.6667 30.1063 46.6667 35.9997C46.6667 38.093 46.0533 40.0397 45.0133 41.6797L43.0667 39.733C43.6667 38.6263 44 37.3463 44 35.9997C44 31.5863 40.4133 27.9997 36 27.9997V31.9997L30.6667 26.6663L36 21.333ZM28 35.9997C28 40.413 31.5867 43.9997 36 43.9997V39.9997L41.3333 45.333L36 50.6663V46.6663C30.1067 46.6663 25.3333 41.893 25.3333 35.9997C25.3333 33.9063 25.9467 31.9597 26.9867 30.3197L28.9333 32.2663C28.3333 33.373 28 34.653 28 35.9997Z" fill="white"/>
</svg>
