<svg width="17" height="175" viewBox="0 0 17 175" fill="none" xmlns="http://www.w3.org/2000/svg">
<path fill-rule="evenodd" clip-rule="evenodd" d="M7.00737 0L0.0094845 0.00180499L0.00732438 7.9996H7.00737V0ZM16.0053 0.00180499L9.00749 0V5.99988H16.0077L16.0053 0.00180499ZM0.00732438 9.99968H7.00737V15.9999L0.0094845 15.9977L0.00732438 9.99968ZM16.0077 7.9996H9.00749V15.9999L16.0053 15.9977L16.0077 7.9996Z" fill="#AAAAAA"/>
<path fill-rule="evenodd" clip-rule="evenodd" d="M0.00720231 55.0007H16.0076L16.0077 59.0005H0.00731628L0.00720231 55.0007ZM11.0075 60.0013H16.0077V65.0006H11.0075V60.0013ZM10.0075 60.0013H5.00735V65.0006H10.0075V60.0013ZM0.00731628 60.0013H4.00734V65.0006H0.00731628V60.0013ZM16.0076 66.0777L12.0075 66.0007V71.0009H16.0076V66.0777ZM6.00736 66.0007H11.0075V71.0009H6.00736V66.0007ZM4.93033 66.0777H0.00720231V71.0009H4.93033V66.0777Z" fill="#AAAAAA"/>
<path fill-rule="evenodd" clip-rule="evenodd" d="M16.0075 110.085L8.00737 115.502L0.00718705 110.085L0.00512707 109H16.0097L16.0075 110.085ZM0.00718705 112.252L8.00737 117.669L16.0075 112.252L16.0097 122.005H0.00512707L0.00718705 112.252Z" fill="#AAAAAA"/>
<path fill-rule="evenodd" clip-rule="evenodd" d="M14.0577 170.492L15.9486 164.819C16.0434 164.547 15.9717 164.383 15.8954 164.274C15.6994 163.997 15.2965 163.995 15.2181 163.995L4.53196 163.993L4.24687 162.637C4.17009 162.316 3.94223 162.011 3.48354 162.011L1.00722 162.003C0.696036 162.003 0 162.157 0 162.449L0.00720016 163.003C0.038441 163.941 0.684135 164.003 1.00722 164.003H3.00723L4.96765 171.847C4.65944 172.175 4.49156 172.652 4.49156 173.096C4.49156 174.076 5.26966 174.979 6.26326 174.979C7.20158 174.979 7.90496 174.098 8.01916 173.572H11.7987C11.9128 174.098 12.4825 175 13.554 175C14.5307 175 15.3247 174.151 15.3247 173.175C15.3247 172.202 14.7349 171.339 13.5636 171.339C13.0768 171.339 12.4989 171.602 12.2307 171.996H7.58657C7.24976 171.471 6.78959 171.308 6.32368 171.289L6.26016 170.945H13.3261C13.8585 170.945 13.9635 170.75 14.0577 170.492ZM5.57534 173.152C5.57534 172.78 5.87781 172.477 6.24942 172.477C6.62009 172.477 6.92211 172.78 6.92211 173.152C6.92211 173.525 6.62009 173.828 6.24942 173.828C5.87781 173.828 5.57534 173.525 5.57534 173.152ZM13.5677 173.819C13.2007 173.819 12.9018 173.521 12.9018 173.152C12.9018 172.784 13.2003 172.485 13.5677 172.485C13.9353 172.485 14.2332 172.784 14.2332 173.152C14.2332 173.521 13.9348 173.819 13.5677 173.819Z" fill="#AAAAAA"/>
</svg>
