<svg width="15" height="15" viewBox="0 0 15 15" fill="none" xmlns="http://www.w3.org/2000/svg">
<path d="M14.4455 0.787938L11.4105 0.0875486C11.0895 0 10.7393 0.175097 10.5934 0.496109L9.19261 3.76459C9.07588 4.05642 9.16342 4.37743 9.39689 4.58171L11.177 6.04086C10.1265 8.25875 8.28794 10.1265 6.01167 11.2062L4.55253 9.42607C4.34825 9.19261 4.02724 9.10506 3.73541 9.22179L0.466926 10.6226C0.145914 10.7685 0 11.1187 0.0583658 11.4397L0.758755 14.4747C0.846304 14.7957 1.10895 15 1.45914 15C8.92996 15 15 8.95914 15 1.45914C15 1.13813 14.7665 0.875486 14.4455 0.787938Z" fill="#000C21"/>
</svg>
