<svg width="72" height="72" viewBox="0 0 72 72" fill="none" xmlns="http://www.w3.org/2000/svg">
<circle cx="36" cy="36" r="36" fill="white"/>
<path fill-rule="evenodd" clip-rule="evenodd" d="M46.666 35.9998C46.666 35.1865 46.5593 34.3865 46.386 33.6265L48.5327 31.4798C49.0393 32.8932 49.3327 34.4132 49.3327 35.9998C49.3327 43.3598 43.3593 49.3332 35.9993 49.3332C28.6393 49.3332 22.666 43.3598 22.666 35.9998C22.666 28.6398 28.6393 22.6665 35.9993 22.6665C38.8393 22.6665 41.466 23.5598 43.626 25.0798L41.706 26.9998C40.0527 25.9465 38.106 25.3332 35.9993 25.3332C30.106 25.3332 25.3327 30.1065 25.3327 35.9998C25.3327 41.8932 30.106 46.6665 35.9993 46.6665C41.8927 46.6665 46.666 41.8932 46.666 35.9998ZM34.1193 42.1332L49.3327 26.9065L47.4527 25.0398L34.1193 38.3732L30.346 34.5998L28.466 36.4798L34.1193 42.1332Z" fill="#132A73"/>
</svg>
