<svg width="161" height="32" viewBox="0 0 161 32" fill="none" xmlns="http://www.w3.org/2000/svg">
<path d="M0 10.6653V16.5895C2.01585 16.5881 4.01219 16.9859 5.87479 17.7601C7.73739 18.5343 9.4297 19.6697 10.8549 21.1015C12.2797 22.5327 13.4097 24.2319 14.1802 26.1019C14.9507 27.9719 15.3466 29.9762 15.3453 32H21.2402C21.2349 26.344 18.9955 20.9212 15.0135 16.9215C11.0314 12.9217 5.632 10.6717 0 10.6653H0Z" fill="#1D2B4F"/>
<path d="M29.4808 0H20.1387C24.8647 3.00768 28.8692 7.02862 31.8648 11.7743V2.39241C31.8643 1.75775 31.613 1.14924 31.166 0.700619C30.7189 0.252003 30.1128 -1.57043e-07 29.4808 0V0Z" fill="#1D2B4F"/>
<path d="M5.86977 0H0V5.33388C7.04017 5.34123 13.7899 8.15302 18.7681 13.1523C23.7464 18.1515 26.5465 24.9298 26.554 31.9999H31.8645V26.1052C30.6638 19.6265 27.5376 13.6648 22.8976 9.00502C18.2575 4.34523 12.321 1.20578 5.86977 0V0Z" fill="#1D2B4F"/>
<path d="M46.3138 3.52246H42.5723V22.4613H46.3138V3.52246Z" fill="#1D2B4F"/>
<path d="M60.0709 11.7281C59.448 11.1594 58.7189 10.7206 57.9259 10.4371C56.2224 9.83639 54.3659 9.83639 52.6624 10.4371C51.869 10.7204 51.1396 11.1593 50.5165 11.7281C49.9055 12.2938 49.4173 12.9801 49.0826 13.7441C48.7367 14.5775 48.5586 15.4714 48.5586 16.3744C48.5586 17.2773 48.7367 18.1713 49.0826 19.0047C49.4161 19.7708 49.9044 20.459 50.5165 21.0257C51.1385 21.5949 51.8675 22.0336 52.6607 22.3158C54.364 22.9176 56.2209 22.9176 57.9242 22.3158C58.7176 22.0336 59.4469 21.5949 60.0692 21.0257C60.6811 20.4588 61.1693 19.7706 61.5031 19.0047C61.849 18.1713 62.0271 17.2773 62.0271 16.3744C62.0271 15.4714 61.849 14.5775 61.5031 13.7441C61.1687 12.9804 60.6811 12.2941 60.0709 11.7281ZM57.5016 18.6047C56.8957 19.1528 56.1091 19.4561 55.2937 19.4561C54.4783 19.4561 53.6917 19.1528 53.0858 18.6047C52.5766 17.9734 52.2987 17.1856 52.2987 16.3731C52.2987 15.5606 52.5766 14.7728 53.0858 14.1415C53.6917 13.5934 54.4783 13.2901 55.2937 13.2901C56.1091 13.2901 56.8957 13.5934 57.5016 14.1415C58.0108 14.7728 58.2887 15.5606 58.2887 16.3731C58.2887 17.1856 58.0108 17.9734 57.5016 18.6047V18.6047Z" fill="#1D2B4F"/>
<path d="M73.5031 11.8903H73.4562C73.2832 11.6464 73.0822 11.4237 72.8575 11.2268C72.5852 10.9849 72.2838 10.7784 71.9602 10.612C71.1424 10.1906 70.2346 9.97586 69.3155 9.98635C68.51 9.97219 67.7135 10.1573 66.9961 10.5253C66.3276 10.8729 65.7374 11.3547 65.262 11.9409C64.7772 12.545 64.4053 13.2323 64.1643 13.9695C63.9081 14.729 63.7775 15.5255 63.7778 16.3274C63.7683 17.1881 63.912 18.0437 64.2021 18.8537C64.4649 19.5929 64.8746 20.2708 65.4062 20.8461C65.9359 21.4091 66.5787 21.8526 67.2921 22.1472C68.0677 22.4646 68.899 22.6221 69.7364 22.6103C70.3559 22.5996 70.9684 22.4766 71.5443 22.2474C72.1902 22.0013 72.7498 21.57 73.1535 21.0069H73.2038V22.1859C73.2178 22.5791 73.1533 22.9712 73.014 23.339C72.8748 23.7068 72.6636 24.0428 72.3929 24.3274C72.0495 24.6325 71.648 24.8645 71.2127 25.0092C70.7774 25.1539 70.3174 25.2085 69.8605 25.1695C69.1361 25.1776 68.4181 25.0324 67.7533 24.7434C67.0918 24.4465 66.4746 24.0588 65.9194 23.5914L63.8491 26.6945C64.6953 27.379 65.6845 27.8629 66.7429 28.1101C67.7902 28.3519 68.8614 28.4737 69.936 28.473C72.2973 28.473 74.0557 27.876 75.2112 26.6819C76.3668 25.4878 76.9448 23.7384 76.9453 21.4339V10.287H73.5073L73.5031 11.8903ZM73.2784 17.439C73.1308 17.7954 72.9145 18.1191 72.642 18.3914C72.3645 18.669 72.0392 18.8939 71.6818 19.055C71.3108 19.2204 70.9093 19.3059 70.5033 19.3059C70.0973 19.3059 69.6958 19.2204 69.3247 19.055C68.9721 18.8916 68.6511 18.667 68.3763 18.3914C68.1026 18.1168 67.8855 17.7907 67.7373 17.4318C67.5891 17.0729 67.5129 16.6881 67.5129 16.2996C67.5129 15.9111 67.5891 15.5263 67.7373 15.1674C67.8855 14.8085 68.1026 14.4824 68.3763 14.2078C68.6512 13.9322 68.9722 13.7073 69.3247 13.5434C69.6959 13.3785 70.0974 13.2933 70.5033 13.2933C70.9092 13.2933 71.3106 13.3785 71.6818 13.5434C72.0391 13.7051 72.3643 13.9302 72.642 14.2078C73.0536 14.6233 73.3336 15.1518 73.4469 15.7267C73.5601 16.3016 73.5015 16.8974 73.2784 17.439V17.439Z" fill="#1D2B4F"/>
<path d="M91.0025 11.7281C90.3796 11.1594 89.6505 10.7206 88.8575 10.4371C87.154 9.83639 85.2975 9.83639 83.594 10.4371C82.8006 10.7204 82.0712 11.1593 81.4482 11.7281C80.8371 12.2938 80.349 12.9801 80.0143 13.7441C79.6683 14.5775 79.4902 15.4714 79.4902 16.3744C79.4902 17.2773 79.6683 18.1713 80.0143 19.0047C80.3477 19.7708 80.836 20.459 81.4482 21.0257C82.0706 21.5951 82.8002 22.0338 83.594 22.3158C85.2973 22.9176 87.1542 22.9176 88.8575 22.3158C89.6509 22.0336 90.3802 21.5949 91.0025 21.0257C91.6147 20.459 92.103 19.7708 92.4364 19.0047C92.7823 18.1713 92.9604 17.2773 92.9604 16.3744C92.9604 15.4714 92.7823 14.5775 92.4364 13.7441C92.1017 12.9801 91.6135 12.2938 91.0025 11.7281V11.7281ZM88.4332 18.6047C87.8273 19.1528 87.0408 19.4561 86.2253 19.4561C85.4099 19.4561 84.6233 19.1528 84.0175 18.6047C83.5082 17.9734 83.2304 17.1856 83.2304 16.3731C83.2304 15.5606 83.5082 14.7728 84.0175 14.1415C84.6233 13.5934 85.4099 13.2901 86.2253 13.2901C87.0408 13.2901 87.8273 13.5934 88.4332 14.1415C88.9425 14.7728 89.2203 15.5606 89.2203 16.3731C89.2203 17.1856 88.9425 17.9734 88.4332 18.6047Z" fill="#1D2B4F"/>
<path d="M97.9226 10.3713H95.916V22.4614H97.9226V10.3713Z" fill="#1D2B4F"/>
<path d="M96.921 4.1719C96.7264 4.16818 96.5332 4.20529 96.3537 4.28083C96.1743 4.35638 96.0125 4.46871 95.8787 4.61063C95.6747 4.81721 95.5361 5.07981 95.4804 5.36535C95.4248 5.65088 95.4546 5.94657 95.566 6.21514C95.6774 6.48372 95.8655 6.71316 96.1066 6.87456C96.3476 7.03596 96.6308 7.12208 96.9206 7.12208C97.2103 7.12208 97.4935 7.03596 97.7346 6.87456C97.9756 6.71316 98.1637 6.48372 98.2752 6.21514C98.3866 5.94657 98.4163 5.65088 98.3607 5.36535C98.305 5.07981 98.1665 4.81721 97.9625 4.61063C97.8289 4.46865 97.6673 4.35627 97.4879 4.28072C97.3086 4.20516 97.1154 4.16809 96.921 4.1719V4.1719Z" fill="#1D2B4F"/>
<path d="M112.766 11.8738C112.201 11.295 111.522 10.8415 110.772 10.5424C109.949 10.2167 109.071 10.0545 108.187 10.0649C107.354 10.0553 106.53 10.2413 105.781 10.6081C105.044 10.9764 104.391 11.4953 103.864 12.1314H103.811V10.3715H101.807V28.352H103.811V20.3184H103.862C104.288 21.0552 104.909 21.6591 105.656 22.0632C106.523 22.5507 107.504 22.7961 108.497 22.7739C109.311 22.7791 110.116 22.6163 110.865 22.2956C111.587 21.9879 112.239 21.5351 112.781 20.9651C113.331 20.3825 113.763 19.6985 114.054 18.9508C114.672 17.3195 114.672 15.5176 114.054 13.8864C113.761 13.1369 113.323 12.453 112.766 11.8738V11.8738ZM112.058 18.1895C111.871 18.7159 111.578 19.1982 111.198 19.6065C110.818 20.0149 110.359 20.3405 109.848 20.5634C108.72 21.0275 107.455 21.0275 106.326 20.5634C105.815 20.3405 105.355 20.0146 104.975 19.6058C104.594 19.197 104.301 18.7141 104.114 18.187C103.72 17.0412 103.72 15.7959 104.114 14.6502C104.301 14.1231 104.594 13.6401 104.975 13.2314C105.355 12.8226 105.815 12.4966 106.326 12.2738C107.455 11.8096 108.72 11.8096 109.848 12.2738C110.359 12.4966 110.819 12.8226 111.2 13.2314C111.58 13.6401 111.873 14.1231 112.06 14.6502C112.454 15.7959 112.454 17.0412 112.06 18.187L112.058 18.1895Z" fill="#1D2B4F"/>
<path d="M124.624 16.421C124.243 16.1347 123.819 15.9123 123.367 15.7625C122.87 15.5944 122.363 15.4604 121.849 15.3616C121.463 15.2954 121.081 15.2094 120.704 15.104C120.368 15.0123 120.041 14.8912 119.727 14.7419C119.474 14.627 119.247 14.4647 119.056 14.2635C118.893 14.0837 118.806 13.8479 118.812 13.605C118.808 13.343 118.884 13.086 119.031 12.869C119.175 12.6547 119.363 12.474 119.583 12.3393C119.818 12.1965 120.075 12.0919 120.343 12.0294C120.617 11.9613 120.899 11.9265 121.181 11.9259C121.719 11.9091 122.251 12.0482 122.712 12.3267C123.128 12.5898 123.476 12.9482 123.728 13.3726L125.4 12.2619C125.03 11.5277 124.428 10.9371 123.689 10.5819C122.944 10.2344 122.131 10.058 121.31 10.0657C120.753 10.0643 120.199 10.1426 119.664 10.2981C119.151 10.4449 118.664 10.6723 118.222 10.9718C117.799 11.2584 117.447 11.6383 117.193 12.0825C116.93 12.5555 116.797 13.0903 116.808 13.632C116.787 14.1622 116.906 14.6886 117.155 15.157C117.381 15.5488 117.697 15.8808 118.077 16.1254C118.496 16.3909 118.951 16.5953 119.427 16.7326C119.942 16.8875 120.482 17.0254 121.048 17.1461C121.375 17.2151 121.692 17.2926 122 17.3785C122.289 17.4564 122.566 17.5737 122.823 17.7271C123.05 17.8622 123.247 18.0425 123.402 18.2568C123.556 18.4942 123.633 18.7743 123.621 19.0576C123.63 19.3554 123.549 19.6489 123.389 19.8997C123.23 20.1375 123.019 20.3361 122.772 20.4808C122.505 20.6405 122.214 20.7543 121.91 20.8176C121.602 20.8857 121.287 20.9204 120.971 20.9212C120.346 20.9455 119.726 20.7932 119.183 20.4816C118.683 20.1623 118.244 19.7569 117.884 19.2842L116.291 20.5246C116.784 21.2938 117.484 21.9069 118.31 22.293C119.157 22.6304 120.062 22.7931 120.973 22.7713C121.566 22.7718 122.157 22.7026 122.734 22.565C123.282 22.4376 123.805 22.2147 124.277 21.9065C124.728 21.6057 125.102 21.2016 125.367 20.7275C125.655 20.1895 125.798 19.5849 125.78 18.9743C125.796 18.4493 125.691 17.9278 125.471 17.4509C125.272 17.0466 124.982 16.6942 124.624 16.421V16.421Z" fill="#1D2B4F"/>
<path d="M139.083 19.594V10.3713H137.076V16.2661C137.082 16.9016 137.009 17.5353 136.857 18.1524C136.728 18.6813 136.501 19.1808 136.186 19.6244C135.887 20.0367 135.489 20.3657 135.028 20.5801C134.498 20.8164 133.923 20.9315 133.344 20.917C132.952 20.9488 132.558 20.8856 132.195 20.7328C131.832 20.58 131.512 20.3419 131.26 20.0387C130.778 19.3344 130.542 18.4895 130.589 17.6362V10.3713H128.582V17.8374C128.576 18.5142 128.667 19.1883 128.852 19.8391C129.014 20.416 129.3 20.95 129.691 21.4029C130.082 21.8456 130.57 22.1915 131.116 22.4134C131.768 22.6686 132.463 22.7917 133.162 22.7755C133.632 22.7793 134.1 22.7138 134.551 22.581C134.958 22.4619 135.347 22.2883 135.708 22.0648C136.036 21.8618 136.335 21.6141 136.595 21.3288C136.83 21.0749 137.025 20.7874 137.175 20.4757H137.226C137.226 20.821 137.235 21.1578 137.252 21.4862C137.269 21.8147 137.278 22.142 137.277 22.4681H139.181C139.181 22.0712 139.164 21.6319 139.129 21.1502C139.095 20.6686 139.079 20.1498 139.083 19.594Z" fill="#1D2B4F"/>
<path d="M160.768 13.0198C160.634 12.4348 160.37 11.8878 159.996 11.4198C159.618 10.967 159.131 10.619 158.581 10.4093C157.889 10.1583 157.156 10.0401 156.42 10.0606C155.622 10.0256 154.831 10.2375 154.156 10.6678C153.531 11.1185 153.005 11.6949 152.613 12.3604C152.511 12.1532 152.377 11.9163 152.214 11.6497C152.032 11.3617 151.802 11.1081 151.533 10.9002C151.202 10.6479 150.834 10.449 150.442 10.3107C149.916 10.1331 149.363 10.0498 148.808 10.0648C148.338 10.0609 147.87 10.1265 147.419 10.2594C147.012 10.3785 146.623 10.5521 146.261 10.7756C145.933 10.9788 145.635 11.2265 145.374 11.5116C145.14 11.7654 144.945 12.0529 144.796 12.3646H144.744C144.744 12.0194 144.735 11.6842 144.719 11.3541C144.702 11.024 144.693 10.6998 144.693 10.3722H142.789C142.789 10.7691 142.806 11.2084 142.84 11.6901C142.874 12.1718 142.891 12.6885 142.891 13.2404V22.4623H144.9V16.5726C144.893 15.9368 144.967 15.3028 145.119 14.6855C145.247 14.1563 145.474 13.6567 145.789 13.2135C146.088 12.801 146.486 12.472 146.947 12.2577C147.477 12.0212 148.052 11.9062 148.632 11.9208C148.975 11.8914 149.321 11.9538 149.632 12.1017C149.944 12.2496 150.211 12.4777 150.406 12.7629C150.837 13.649 151.024 14.6347 150.947 15.6177V22.464H152.95V15.4863C152.944 14.9891 153.027 14.4948 153.194 14.0269C153.343 13.6122 153.571 13.2306 153.865 12.9036C154.143 12.5974 154.48 12.3513 154.856 12.1802C155.235 12.0075 155.648 11.9193 156.065 11.9217C156.56 11.9036 157.053 12.0007 157.505 12.2055C157.862 12.3783 158.17 12.6359 158.405 12.9558C158.631 13.2725 158.789 13.6329 158.869 14.0143C158.955 14.4133 158.998 14.8204 158.997 15.2286V22.4623H161V15.125C161.007 14.4165 160.929 13.7096 160.768 13.0198Z" fill="#1D2B4F"/>
</svg>
