<svg width="15" height="16" viewBox="0 0 15 16" fill="none" xmlns="http://www.w3.org/2000/svg">
<g filter="url(#filter0_d_16_15937)">
<path fill-rule="evenodd" clip-rule="evenodd" d="M7.49998 1.00001C11.6421 1.00001 14.9999 4.35759 14.9999 8.49991C14.9999 12.642 11.6421 16 7.49998 16C3.3578 16 6.55649e-06 12.642 6.55649e-06 8.49991C6.55649e-06 4.35759 3.3578 1.00001 7.49998 1.00001Z" fill="#FDFAF2"/>
<path d="M7.49998 1.50001C11.366 1.50001 14.4999 4.63374 14.4999 8.49991C14.4999 12.3659 11.366 15.5 7.49998 15.5C3.63396 15.5 0.500005 12.3659 0.500005 8.49991C0.500005 4.63374 3.63393 1.50001 7.49998 1.50001Z" stroke="#E7E7E7"/>
</g>
<defs>
<filter id="filter0_d_16_15937" x="0" y="0" width="14.9999" height="16" filterUnits="userSpaceOnUse" color-interpolation-filters="sRGB">
<feFlood flood-opacity="0" result="BackgroundImageFix"/>
<feColorMatrix in="SourceAlpha" type="matrix" values="0 0 0 0 0 0 0 0 0 0 0 0 0 0 0 0 0 0 127 0" result="hardAlpha"/>
<feOffset dy="-1"/>
<feColorMatrix type="matrix" values="0 0 0 0 0 0 0 0 0 0 0 0 0 0 0 0 0 0 0.4 0"/>
<feBlend mode="normal" in2="BackgroundImageFix" result="effect1_dropShadow_16_15937"/>
<feBlend mode="normal" in="SourceGraphic" in2="effect1_dropShadow_16_15937" result="shape"/>
</filter>
</defs>
</svg>
