<svg width="25" height="25" viewBox="0 0 25 25" fill="none" xmlns="http://www.w3.org/2000/svg">
<g clip-path="url(#clip0_2_1186)">
<path d="M8.4082 11.0741C7.69531 10.9325 7.03125 11.5086 7.03125 12.2362V14.6971C7.03125 15.1952 7.37793 15.5955 7.84668 15.7713C8.73535 16.1034 9.375 16.9627 9.375 17.9686C9.375 19.2625 8.3252 20.3123 7.03125 20.3123C5.7373 20.3123 4.6875 19.2625 4.6875 17.9686V5.85922C4.6875 5.2098 4.16504 4.68734 3.51562 4.68734H1.17188C0.522461 4.68734 0 5.2098 0 5.85922V17.9686C0 22.3387 4.00879 25.7909 8.54492 24.8387C11.2012 24.2821 13.3447 22.1336 13.9014 19.4823C14.751 15.4344 12.0947 11.8065 8.4082 11.0741ZM10.2051 -0.000159358C9.75586 -0.0245734 9.375 0.331872 9.375 0.781091V2.32406C9.375 2.7391 9.69727 3.0809 10.1074 3.10043C16.4258 3.44222 21.5039 8.56918 21.8701 14.8924C21.8945 15.3026 22.2363 15.6248 22.6465 15.6248H24.2139C24.6631 15.6248 25.0195 15.244 24.9951 14.7948C24.5801 6.82601 18.1738 0.419763 10.2051 -0.000159358ZM10.2197 4.68734C9.76563 4.65316 9.375 5.01449 9.375 5.47347V7.04086C9.375 7.45101 9.69238 7.78793 10.0977 7.81722C13.8477 8.12484 16.8359 11.1473 17.1729 14.9071C17.2119 15.3123 17.5439 15.6248 17.9492 15.6248H19.5215C19.9756 15.6248 20.3418 15.2342 20.3076 14.7801C19.8975 9.40414 15.5957 5.10238 10.2197 4.68734V4.68734Z" fill="#FEFEFE"/>
</g>
<defs>
<clipPath id="clip0_2_1186">
<rect width="25" height="25" fill="white"/>
</clipPath>
</defs>
</svg>
