<svg width="17" height="293" viewBox="0 0 17 293" fill="none" xmlns="http://www.w3.org/2000/svg">
<path fill-rule="evenodd" clip-rule="evenodd" d="M15.2432 221.856C15.6172 221.902 15.912 222.196 15.9579 222.57C15.9634 222.615 16.0922 223.68 16.0577 224.921C16.0068 226.748 15.6443 227.974 14.9494 228.669L14.147 229.472L12.8487 230.769L9.79411 233.824L8.94976 234.668L7.78848 235.829L7.20801 235.248L5.46614 233.507L6.62732 232.346L11.4658 227.508L11.4665 227.507C11.4736 227.5 11.4802 227.493 11.487 227.486L11.5061 227.465C11.5119 227.458 11.5172 227.452 11.5226 227.445C11.5242 227.443 11.5259 227.441 11.5276 227.439C11.5325 227.433 11.5374 227.427 11.542 227.421C11.545 227.417 11.5478 227.413 11.5506 227.408C11.552 227.406 11.5534 227.404 11.5548 227.402C11.5569 227.399 11.5591 227.396 11.5612 227.393C11.5657 227.387 11.5701 227.381 11.5743 227.374C11.5761 227.372 11.5777 227.369 11.5794 227.366C11.5813 227.363 11.5831 227.359 11.585 227.357C11.5867 227.354 11.5885 227.351 11.5902 227.348C11.5947 227.341 11.5991 227.334 11.603 227.326C11.608 227.317 11.6122 227.309 11.6167 227.3C11.6187 227.296 11.6208 227.292 11.6228 227.288C11.6247 227.285 11.6266 227.281 11.6283 227.277C11.6338 227.266 11.6386 227.254 11.6436 227.242C11.6446 227.239 11.6458 227.237 11.6469 227.234C11.648 227.232 11.649 227.229 11.65 227.227C11.7165 227.056 11.724 226.868 11.6723 226.694C11.671 226.69 11.6692 226.685 11.6678 226.681C11.6613 226.661 11.6543 226.639 11.646 226.619C11.644 226.614 11.6417 226.609 11.6395 226.605C11.6382 226.602 11.637 226.599 11.6358 226.597C11.6282 226.579 11.6208 226.563 11.6121 226.546C11.6096 226.541 11.6066 226.537 11.6037 226.532C11.6021 226.529 11.6006 226.527 11.5991 226.524C11.5901 226.507 11.5811 226.491 11.5709 226.476C11.5656 226.468 11.5599 226.461 11.554 226.453C11.5495 226.447 11.545 226.441 11.5406 226.434C11.5382 226.431 11.5359 226.428 11.5336 226.425C11.5298 226.42 11.5261 226.415 11.522 226.41C11.5044 226.388 11.4857 226.367 11.4656 226.348C11.145 226.027 10.625 226.027 10.3044 226.348L4.30476 232.346L2.56357 230.605C2.56351 230.605 2.56342 230.605 2.5633 230.605C2.56319 230.605 2.56305 230.604 2.56289 230.604L1.9822 230.024L3.14348 228.863L7.04243 224.964L8.34082 223.666H8.34094L9.14326 222.864C9.83832 222.169 11.0643 221.806 12.8916 221.756C14.1242 221.722 15.1825 221.849 15.242 221.856L15.2432 221.856ZM4.49836 222.864C4.71826 222.644 5.04347 222.567 5.33857 222.666L6.59884 223.086L0.821014 228.863L0.240544 228.282C-0.0801645 227.962 -0.0801646 227.442 0.240444 227.121L4.49836 222.864ZM2.56289 232.926L4.88533 235.248C5.20594 235.569 5.20594 236.089 4.88533 236.409C4.56472 236.73 4.04478 236.73 3.72417 236.409L1.40173 234.088C1.08112 233.767 1.08112 233.247 1.40173 232.926C1.72243 232.606 2.24228 232.606 2.56289 232.926ZM15.1476 232.473L14.7275 231.214L8.94976 236.99L9.53035 237.571C9.68434 237.725 9.8931 237.811 10.1109 237.811C10.3288 237.811 10.5375 237.725 10.6914 237.571L14.9492 233.313C15.1692 233.094 15.2459 232.769 15.1476 232.473Z" fill="#AAAAAA"/>
<path fill-rule="evenodd" clip-rule="evenodd" d="M7.41941 178.611H6.18454H1.24463C0.439197 178.611 0.0053846 177.103 0.0053846 176.186V164.975C0.0053846 164.745 0.168659 164.559 0.370424 164.559H15.7034C15.9052 164.559 16.0685 164.745 16.0685 164.975V176.186C16.0685 177.103 15.6345 178.611 14.8292 178.611H9.88943H7.41941ZM2.01651 176.605H14.0573V166.571H2.01651V176.605ZM4.77901 175.595H3.27793C3.13968 175.595 3.02772 175.416 3.02772 175.195V171.998C3.02772 171.777 3.13968 171.598 3.27793 171.598H4.77901C4.91738 171.598 5.02922 171.777 5.02922 171.998V175.195C5.02922 175.416 4.91738 175.595 4.77901 175.595ZM7.27564 175.595H8.79819C8.9384 175.595 9.05197 175.427 9.05197 175.219V169.955C9.05197 169.747 8.9384 169.579 8.79819 169.579H7.27564C7.13544 169.579 7.02188 169.747 7.02188 169.955V175.219C7.02188 175.427 7.13544 175.595 7.27564 175.595ZM12.7959 175.596H11.2947C11.1565 175.596 11.0446 175.438 11.0446 175.244V168.916C11.0446 168.722 11.1565 168.565 11.2947 168.565H12.7959C12.9342 168.565 13.046 168.722 13.046 168.916V175.244C13.046 175.438 12.9342 175.596 12.7959 175.596Z" fill="#AAAAAA"/>
<path fill-rule="evenodd" clip-rule="evenodd" d="M9.61296 117.405C9.75685 117.405 9.8749 117.488 9.9671 117.654C10.0592 117.821 10.1055 118.038 10.1055 118.307C10.1055 118.574 10.0592 118.791 9.9671 118.954C9.8749 119.119 9.75685 119.2 9.61296 119.2C9.45989 119.2 9.33738 119.119 9.24516 118.954C9.15295 118.791 9.1069 118.574 9.1069 118.307C9.1069 118.038 9.15295 117.821 9.24516 117.654C9.33738 117.488 9.45989 117.405 9.61296 117.405ZM4.95085 119.18H5.57161V118.347L4.95085 119.18ZM13.0471 119.18H13.6678V118.347L13.0471 119.18ZM16.0643 125.376V114.394H0.00979888V125.376H3.49512V126.827H2.09373V128.441H13.9802V126.827H12.5788V125.376H16.0643ZM5.27604 121.985H4.54526V123.08H2.96761V121.985L1.24469 122.056V120.779L3.46574 116.92H4.54526V120.486H5.27604V121.985ZM10.1585 120.445C10.0478 120.772 9.89419 121.054 9.6977 121.293C9.50112 121.531 9.26871 121.716 9.00023 121.849C8.73164 121.981 8.43973 122.047 8.12418 122.047C7.80863 122.047 7.51651 121.981 7.24814 121.849C6.97955 121.716 6.74702 121.531 6.55066 121.293C6.35407 121.054 6.20042 120.772 6.08974 120.445C5.97891 120.119 5.92368 119.761 5.92368 119.373C5.92368 118.985 5.97891 118.628 6.08974 118.301C6.20042 117.974 6.35407 117.693 6.55066 117.454C6.74702 117.216 6.97955 117.029 7.24814 116.894C7.51651 116.759 7.80863 116.69 8.12418 116.69C8.43973 116.69 8.73164 116.759 9.00023 116.894C9.26858 117.029 9.50112 117.216 9.6977 117.454C9.89419 117.693 10.0478 117.974 10.1585 118.301C10.2693 118.628 10.3247 118.985 10.3247 119.373C10.3247 119.761 10.2692 120.119 10.1585 120.445ZM10.798 121.985V120.486L13.4303 116.92H14.5097V120.486L14.8293 120.779V122.056L14.5097 121.985V123.08H12.932V121.985H10.798Z" fill="#AAAAAA"/>
<path fill-rule="evenodd" clip-rule="evenodd" d="M14.6532 56.1333H14.1829V55.6632C14.1829 55.4033 13.9725 55.1927 13.7125 55.1927C13.4526 55.1927 13.2422 55.4033 13.2422 55.6632V56.1333H11.3294V55.6632C11.3294 55.4033 11.1191 55.1927 10.8591 55.1927C10.5991 55.1927 10.3888 55.4033 10.3888 55.6632V56.1333H8.50737V55.6632C8.50737 55.4033 8.29701 55.1927 8.03704 55.1927C7.77704 55.1927 7.56668 55.4033 7.56668 55.6632V56.1333H5.68529V55.6632C5.68529 55.4033 5.47493 55.1927 5.21496 55.1927C4.95496 55.1927 4.7446 55.4033 4.7446 55.6632V56.1333H2.83188V55.6632C2.83188 55.4033 2.62139 55.1927 2.36152 55.1927C2.10155 55.1927 1.89117 55.4033 1.89117 55.6632V56.1333H1.42084C0.642739 56.1333 0.00979888 56.7664 0.00979888 57.5447V58.9869H16.0643V57.5447C16.0643 56.7664 15.4313 56.1333 14.6532 56.1333ZM9.14399 64.6042L9.94505 63.8232L8.83809 63.6618C8.68468 63.64 8.5524 63.5438 8.48394 63.4053L7.98879 62.4016L7.49364 63.4053C7.42521 63.5438 7.29293 63.64 7.13952 63.6618L6.03254 63.8232L6.83361 64.6042C6.94418 64.7119 6.99483 64.868 6.96864 65.0198L6.77941 66.1546L7.77016 65.6339C7.8386 65.5977 7.91348 65.5798 7.98879 65.5798C8.06413 65.5798 8.13899 65.5977 8.20744 65.6339L9.1982 66.1546L9.00895 65.0198C8.98278 64.868 9.0333 64.7119 9.14399 64.6042ZM0.00979888 59.9275V68.4257H16.0643V59.9275H0.00979888ZM11.2843 63.8315L9.97756 65.1368L10.2862 66.9345C10.3166 67.111 10.244 67.2889 10.0993 67.3947C9.95366 67.5011 9.76017 67.513 9.60412 67.4304L7.98868 66.5816L6.37325 67.4304C6.21662 67.5149 6.02371 67.5005 5.8781 67.3947C5.73341 67.2889 5.66084 67.111 5.69114 66.9345L5.99981 65.1368L4.69304 63.8315C4.5649 63.7066 4.51907 63.5194 4.57409 63.3498C4.62966 63.1792 4.77665 63.0553 4.95394 63.0295L6.75954 62.7673L7.56703 61.1305C7.72503 60.809 8.25234 60.809 8.41045 61.1305L9.21794 62.7673L11.0235 63.0295C11.2007 63.0553 11.3478 63.1792 11.4033 63.3498C11.4585 63.5194 11.4125 63.7066 11.2843 63.8315ZM0.00979888 69.8364V69.3659H16.0643V69.8364C16.0643 70.6145 15.4313 71.2476 14.6532 71.2476H1.42084C0.642739 71.2476 0.00979888 70.6145 0.00979888 69.8364Z" fill="#AAAAAA"/>
<path fill-rule="evenodd" clip-rule="evenodd" d="M4.94755 9.32464C4.94755 8.98206 5.22476 8.70341 5.56547 8.70341C5.90617 8.70341 6.18325 8.98206 6.18325 9.32464C6.18325 9.6676 5.90617 9.94579 5.56547 9.94579C5.22476 9.94579 4.94755 9.6676 4.94755 9.32464ZM9.89033 14.2981C9.89033 13.955 10.1675 13.676 10.5082 13.676C10.8488 13.676 11.126 13.955 11.126 14.2981C11.126 14.641 10.8488 14.9198 10.5082 14.9198C10.1675 14.9198 9.89033 14.641 9.89033 14.2981ZM15.4509 0H0.622817C0.281659 0 0.00489944 0.277609 0.00489944 0.621245V18.4428C0.00489944 18.6581 0.115956 18.858 0.297733 18.9714C0.480413 19.0849 0.707203 19.0943 0.899094 18.9987L3.09408 17.8941L5.28907 18.9987C5.46292 19.086 5.66802 19.086 5.84175 18.9987L8.03686 17.8941L10.2318 18.9987C10.3186 19.0426 10.4136 19.0642 10.5081 19.0642C10.6026 19.0642 10.6976 19.0426 10.7845 18.9987L12.9795 17.8941L15.1745 18.9987C15.3664 19.0943 15.5932 19.0849 15.7759 18.9714C15.9576 18.858 16.0687 18.6581 16.0687 18.4428V0.621245C16.0687 0.277609 15.7919 0 15.4509 0ZM3.09408 2.48627C3.43536 2.48627 3.71198 2.76485 3.71198 3.10791C3.71198 3.45162 3.43536 3.7298 3.09408 3.7298C2.75293 3.7298 2.47629 3.45162 2.47629 3.10791C2.47629 2.76485 2.75293 2.48627 3.09408 2.48627ZM3.09408 6.21656C2.75293 6.21656 2.47629 5.93828 2.47629 5.59486C2.47629 5.25122 2.75293 4.97294 3.09408 4.97294C3.43536 4.97294 3.71198 5.25122 3.71198 5.59486C3.71198 5.93828 3.43536 6.21656 3.09408 6.21656ZM3.71198 9.32464C3.71198 8.29615 4.54336 7.45961 5.56547 7.45961C6.58758 7.45961 7.41894 8.29615 7.41894 9.32464C7.41894 10.3531 6.58758 11.1902 5.56547 11.1902C4.54336 11.1902 3.71198 10.3531 3.71198 9.32464ZM5.85231 14.8884C5.73164 15.0102 5.5735 15.071 5.41538 15.071C5.25737 15.071 5.09925 15.0102 4.97856 14.8884C4.7373 14.6464 4.7373 14.2522 4.97856 14.0098L10.2209 8.7348C10.4623 8.49183 10.8533 8.49183 11.0947 8.7348C11.3359 8.9768 11.3359 9.37105 11.0947 9.61353L5.85231 14.8884ZM10.5082 16.1632C9.48614 16.1632 8.65464 15.3265 8.65464 14.2981C8.65464 13.2696 9.48614 12.4332 10.5082 12.4332C11.5302 12.4332 12.3617 13.2696 12.3617 14.2981C12.3617 15.3265 11.5302 16.1632 10.5082 16.1632ZM12.9795 6.21656H5.56547C5.22441 6.21656 4.94755 5.93828 4.94755 5.59486C4.94755 5.25122 5.22441 4.97294 5.56547 4.97294H12.9795C13.3206 4.97294 13.5974 5.25122 13.5974 5.59486C13.5974 5.93828 13.3206 6.21656 12.9795 6.21656ZM12.9795 3.72923H5.56547C5.22441 3.72923 4.94755 3.45162 4.94755 3.10791C4.94755 2.76446 5.22441 2.48627 5.56547 2.48627H12.9795C13.3206 2.48627 13.5974 2.76485 13.5974 3.10791C13.5974 3.45162 13.3206 3.72923 12.9795 3.72923Z" fill="#AAAAAA"/>
<path fill-rule="evenodd" clip-rule="evenodd" d="M10.3638 282.629C15.3269 283.523 15.9754 284.936 16.0541 289.893C16.0591 290.211 16.0618 290.265 16.0631 290.237C16.0629 290.321 16.0628 290.445 16.0628 290.623C16.0628 290.623 14.8811 293 8.03683 293C1.19248 293 0.0108709 290.623 0.0108709 290.623C0.0108709 290.345 0.0105297 290.188 0.0102888 290.101C0.0115532 290.147 0.0150048 290.126 0.0224702 289.732C0.112837 284.905 0.800892 283.514 5.70979 282.629C5.70979 282.629 6.40855 283.518 8.03683 283.518C9.66514 283.518 10.3638 282.629 10.3638 282.629Z" fill="#AAAAAA"/>
</svg>
