<svg width="72" height="72" viewBox="0 0 72 72" fill="none" xmlns="http://www.w3.org/2000/svg">
<circle cx="36" cy="36" r="36" fill="#9A754B"/>
<path fill-rule="evenodd" clip-rule="evenodd" d="M36 22.667C28.64 22.667 22.6667 28.6403 22.6667 36.0003C22.6667 43.3603 28.64 49.3337 36 49.3337C43.36 49.3337 49.3334 43.3603 49.3334 36.0003C49.3334 28.6403 43.36 22.667 36 22.667ZM25.3334 36.0003C25.3334 35.187 25.44 34.387 25.6134 33.627L31.9867 40.0003V41.3337C31.9867 42.8003 33.1867 44.0003 34.6534 44.0003V46.5737C29.4134 45.907 25.3334 41.427 25.3334 36.0003ZM41.32 41.3337C42.52 41.3337 43.5067 42.1203 43.8534 43.2003C45.5867 41.307 46.6667 38.7737 46.6667 36.0003C46.6667 31.5337 43.8934 27.6937 39.9867 26.1203V26.667C39.9867 28.1337 38.7867 29.3337 37.32 29.3337H34.6534V32.0003C34.6534 32.7337 34.0534 33.3337 33.32 33.3337H30.6534V36.0003H38.6534C39.3867 36.0003 39.9867 36.6003 39.9867 37.3337V41.3337H41.32Z" fill="white"/>
</svg>
