<svg width="28" height="28" viewBox="0 0 28 28" fill="none" xmlns="http://www.w3.org/2000/svg">
<g clip-path="url(#clip0_173_5399)">
<path d="M14.435 0.124975C14.169 -0.0416582 13.831 -0.0416582 13.565 0.124975L0.385328 8.38278C0.145797 8.53257 0 8.79535 0 9.07813C0 9.36092 0.145797 9.6237 0.385328 9.77349L13.565 17.9766C13.698 18.0599 13.8494 18.1016 14 18.1016C14.1506 18.1016 14.302 18.0599 14.435 17.9766L27.6147 9.77349C27.8542 9.6237 28 9.36092 28 9.07813C28 8.79535 27.8542 8.53257 27.6147 8.38278L14.435 0.124975Z" fill="#96A0AF"/>
<path d="M26.2826 17.4277L15.3041 24.2895C14.914 24.5339 14.4622 24.6637 14 24.6637C13.5378 24.6637 13.086 24.5339 12.6942 24.288L1.71724 17.4278L0.385328 18.2261C0.145797 18.3759 0 18.6387 0 18.9215C0 19.2043 0.145797 19.467 0.385328 19.6168L13.565 27.8746C13.698 27.9579 13.8494 27.9996 14 27.9996C14.1506 27.9996 14.302 27.9579 14.435 27.8746L27.6147 19.6168C27.8542 19.467 28 19.2043 28 18.9215C28 18.6387 27.8542 18.3759 27.6147 18.2261L26.2826 17.4277Z" fill="#96A0AF"/>
<path d="M21.1641 15.7051V18.6924L23.7344 17.0859V14.0986L21.1641 15.7051Z" fill="#96A0AF"/>
<path d="M16.9531 18.3379V21.3252L19.5234 19.7187V16.7314L16.9531 18.3379Z" fill="#96A0AF"/>
<path d="M8.47656 16.7178V19.7049L10.9922 21.3044V18.3174L8.47656 16.7178Z" fill="#96A0AF"/>
<path d="M14 23.0237C14.1506 23.0237 14.302 22.982 14.435 22.8987L15.3125 22.3504V19.3632L15.3043 19.3683C14.9142 19.6127 14.4622 19.7424 14 19.7424C13.5378 19.7424 13.0641 19.6127 12.6724 19.3675L12.6328 19.3428V22.3298L13.565 22.8987C13.698 22.982 13.8494 23.0237 14 23.0237V23.0237Z" fill="#96A0AF"/>
<path d="M26.2826 12.5059L25.375 13.0731V16.0605L27.6147 14.6949C27.8542 14.5452 28 14.2824 28 13.9996C28 13.7168 27.8542 13.454 27.6147 13.3042L26.2826 12.5059Z" fill="#96A0AF"/>
<path d="M4.26562 14.0928V17.0798L6.83594 18.6795V15.6924L4.26562 14.0928Z" fill="#96A0AF"/>
<path d="M2.625 16.0544V13.0674L1.71713 12.5068L0.385328 13.305C0.145797 13.4548 0 13.7176 0 14.0004C0 14.2831 0.145797 14.5459 0.385328 14.6957L2.625 16.0544Z" fill="#96A0AF"/>
</g>
<defs>
<clipPath id="clip0_173_5399">
<rect width="28" height="28" fill="white"/>
</clipPath>
</defs>
</svg>
