<svg width="80" height="80" viewBox="0 0 80 80" fill="none" xmlns="http://www.w3.org/2000/svg">
<rect opacity="0.1" width="80" height="80" rx="40" fill="#B3BAC5"/>
<path fill-rule="evenodd" clip-rule="evenodd" d="M40.2715 23.2478L54.6715 28.4478C54.9885 28.5622 55.1998 28.8631 55.1998 29.2002V40.0002C55.1998 48.4101 50.1368 54.0357 40.2124 56.7714C40.0751 56.8093 39.9301 56.8098 39.7925 56.7729C29.8648 54.1089 24.7998 48.4811 24.7998 40.0002V29.2002C24.7998 28.8631 25.0111 28.5622 25.3281 28.4478L39.7281 23.2478C39.9037 23.1843 40.0959 23.1843 40.2715 23.2478ZM39.9998 24.8508L26.3998 29.7619V40.0002C26.3998 47.6421 30.8663 52.6628 39.997 55.1705C49.1313 52.5956 53.5998 47.5732 53.5998 40.0002V29.7619L39.9998 24.8508ZM33.0287 38.8855C33.3381 38.5701 33.8446 38.5652 34.16 38.8746L37.9624 42.6042L45.8306 34.638C46.1411 34.3237 46.6476 34.3205 46.962 34.631C47.2763 34.9415 47.2795 35.448 46.969 35.7624L38.5405 44.2957C38.2308 44.6093 37.7258 44.6133 37.4111 44.3047L33.0396 40.0168C32.7242 39.7075 32.7193 39.2009 33.0287 38.8855Z" fill="#184D47"/>
</svg>
