<svg width="28" height="28" viewBox="0 0 28 28" fill="none" xmlns="http://www.w3.org/2000/svg">
<g clip-path="url(#clip0_168_5057)">
<path d="M23.9161 4.16308C21.1983 1.41254 17.4654 -0.0937126 13.6016 0.00452112C5.90661 0.233733 -0.118391 6.61893 0.110821 14.3139C0.143566 15.9184 0.471011 17.4901 1.06041 18.9636C1.55158 20.2079 2.20647 21.354 3.02509 22.4018L1.87903 25.1196C1.4206 26.1674 1.91177 27.379 2.9596 27.8374C3.31979 28.0011 3.74547 28.0339 4.1384 27.9684L9.44303 27.0515C11.3422 27.7064 13.3396 27.9356 15.337 27.7392C22.1807 27.0515 27.518 21.4522 27.8782 14.5759C28.0747 10.6793 26.6339 6.91363 23.9161 4.16308ZM12.9794 19.4548H9.34479C8.78813 19.4548 8.29697 18.9964 8.29697 18.407C8.29697 17.8503 8.75539 17.3591 9.34479 17.3591H12.9794C13.5361 17.3591 14.0273 17.8176 14.0273 18.407C14.0273 18.9964 13.5688 19.4548 12.9794 19.4548ZM18.6443 15.198H9.34479C8.78813 15.198 8.29697 14.7396 8.29697 14.1502C8.29697 13.5608 8.75539 13.1024 9.34479 13.1024H18.6443C19.2009 13.1024 19.6921 13.5608 19.6921 14.1502C19.6921 14.7396 19.2009 15.198 18.6443 15.198ZM18.6443 10.9085H9.34479C8.78813 10.9085 8.29697 10.45 8.29697 9.86064C8.29697 9.30398 8.75539 8.81281 9.34479 8.81281H18.6443C19.2009 8.81281 19.6921 9.27124 19.6921 9.86064C19.6921 10.4173 19.2009 10.9085 18.6443 10.9085Z" fill="#737B8B"/>
</g>
<defs>
<clipPath id="clip0_168_5057">
<rect width="28" height="28" fill="white"/>
</clipPath>
</defs>
</svg>
