<svg width="49" height="66" viewBox="0 0 49 66" fill="none" xmlns="http://www.w3.org/2000/svg">
<path d="M21.9479 64.0573C23.0964 65.8437 25.776 65.8437 26.9245 64.0573C45.5547 37.2604 49 34.4531 49 24.5C49 10.974 38.026 0 24.5 0C10.8464 0 0 10.974 0 24.5C0 34.4531 3.31771 37.2604 21.9479 64.0573ZM24.5 34.7083C18.7578 34.7083 14.2917 30.2422 14.2917 24.5C14.2917 18.8854 18.7578 14.2917 24.5 14.2917C30.1146 14.2917 34.7083 18.8854 34.7083 24.5C34.7083 30.2422 30.1146 34.7083 24.5 34.7083Z" fill="#03C4A1"/>
</svg>
