<svg width="82" height="82" viewBox="0 0 82 82" fill="none" xmlns="http://www.w3.org/2000/svg">
<g filter="url(#filter0_d_0_29)">
<circle cx="41" cy="39" r="26" fill="white"/>
</g>
<path d="M44.1289 40.9375C43.1094 40.9375 42.6523 41.5 41 41.5C39.3125 41.5 38.8555 40.9375 37.8359 40.9375C35.2344 40.9375 33.125 43.082 33.125 45.6836V46.5625C33.125 47.5117 33.8633 48.25 34.8125 48.25H47.1875C48.1016 48.25 48.875 47.5117 48.875 46.5625V45.6836C48.875 43.082 46.7305 40.9375 44.1289 40.9375ZM47.1875 46.5625H34.8125V45.6836C34.8125 43.9961 36.1484 42.625 37.8359 42.625C38.3633 42.625 39.1719 43.1875 41 43.1875C42.793 43.1875 43.6016 42.625 44.1289 42.625C45.8164 42.625 47.1875 43.9961 47.1875 45.6836V46.5625ZM41 40.375C43.7773 40.375 46.0625 38.125 46.0625 35.3125C46.0625 32.5352 43.7773 30.25 41 30.25C38.1875 30.25 35.9375 32.5352 35.9375 35.3125C35.9375 38.125 38.1875 40.375 41 40.375ZM41 31.9375C42.8281 31.9375 44.375 33.4844 44.375 35.3125C44.375 37.1758 42.8281 38.6875 41 38.6875C39.1367 38.6875 37.625 37.1758 37.625 35.3125C37.625 33.4844 39.1367 31.9375 41 31.9375Z" fill="#264653"/>
<defs>
<filter id="filter0_d_0_29" x="0" y="0" width="82" height="82" filterUnits="userSpaceOnUse" color-interpolation-filters="sRGB">
<feFlood flood-opacity="0" result="BackgroundImageFix"/>
<feColorMatrix in="SourceAlpha" type="matrix" values="0 0 0 0 0 0 0 0 0 0 0 0 0 0 0 0 0 0 127 0" result="hardAlpha"/>
<feOffset dy="2"/>
<feGaussianBlur stdDeviation="7.5"/>
<feColorMatrix type="matrix" values="0 0 0 0 0.717647 0 0 0 0 0.741176 0 0 0 0 0.768627 0 0 0 0.570852 0"/>
<feBlend mode="normal" in2="BackgroundImageFix" result="effect1_dropShadow_0_29"/>
<feBlend mode="normal" in="SourceGraphic" in2="effect1_dropShadow_0_29" result="shape"/>
</filter>
</defs>
</svg>
