<svg width="127" height="33" viewBox="0 0 127 33" fill="none" xmlns="http://www.w3.org/2000/svg">
<path fill-rule="evenodd" clip-rule="evenodd" d="M104.734 21.7527C107.23 21.7527 109.205 19.0561 109.205 15.7381V7.71865H111.21V15.7381C111.21 20.1488 108.323 23.7074 104.774 23.7074C101.226 23.7074 98.3387 20.1488 98.3387 15.7381V7.71865H100.344V15.7381C100.263 19.1062 102.238 21.8028 104.724 21.8028L104.734 21.7527ZM56.4472 23.8277H54.4424V22.3942C53.1494 23.2992 51.6099 23.7856 50.0317 23.7876C46.3229 23.8124 43.081 21.2908 42.1922 17.69C41.3035 14.0892 42.9999 10.3487 46.2943 8.64506C49.5887 6.94138 53.6215 7.719 56.0463 10.5255L54.5727 11.8386C52.7292 9.77751 49.7178 9.23901 47.2742 10.5335C44.8306 11.828 43.5845 14.6219 44.2541 17.3048C44.9238 19.9878 47.3366 21.8685 50.1019 21.8629C51.7876 21.8664 53.391 21.1343 54.4925 19.8581H49.0794V17.8532H56.4673L56.4472 23.8277ZM22.5351 7.84897H20.5302V23.8076H28.5496V21.8028H22.5351V7.84897ZM34.7948 19.8781C38.1165 19.8781 40.8093 17.1853 40.8093 13.8635C40.8093 10.5418 38.1165 7.84897 34.7948 7.84897C33.1996 7.84897 31.6698 8.48264 30.5418 9.6106C29.4139 10.7385 28.7802 12.2684 28.7802 13.8635C28.7802 17.1853 31.473 19.8781 34.7948 19.8781ZM34.7948 17.8733C37.0093 17.8733 38.8045 16.078 38.8045 13.8635C38.8045 11.649 37.0093 9.85383 34.7948 9.85383C32.5803 9.85383 30.7851 11.649 30.7851 13.8635C30.7961 16.0702 32.5881 17.8532 34.7948 17.8532V17.8733ZM38.8045 23.8277V21.8228H30.7851V23.8277H38.8045ZM69.8397 13.9036C69.8397 10.5819 67.1469 7.88907 63.8251 7.88907L63.8452 7.84897C62.2395 7.84358 60.6984 8.4804 59.565 9.61762C58.4315 10.7548 57.7998 12.2981 57.8105 13.9036C57.8105 17.2254 60.5034 19.9182 63.8251 19.9182C67.1469 19.9182 69.8397 17.2254 69.8397 13.9036ZM63.8251 17.9134C66.0396 17.9134 67.8348 16.1181 67.8348 13.9036C67.8348 11.6891 66.0396 9.89392 63.8251 9.89392C61.6106 9.89392 59.8154 11.6891 59.8154 13.9036C59.8484 16.1024 61.6461 17.8645 63.8452 17.8532L63.8251 17.9134ZM67.8348 23.8678V21.8629H59.8154V23.8678H67.8348ZM71.9749 7.84897H73.9797V23.7876H71.9749V7.84897ZM78.7613 7.84897H76.7564V23.8177H78.7613V19.8079H79.0721C81.363 20.0565 83.5945 18.9742 84.8178 17.0214C86.0412 15.0685 86.0412 12.5884 84.8178 10.6355C83.5945 8.68268 81.363 7.60043 79.0721 7.84897C78.9688 7.83802 78.8646 7.83802 78.7613 7.84897ZM78.7613 9.85383V9.90059L78.7513 9.90395L78.7613 9.85383ZM78.7613 9.90059C78.8622 9.86718 78.9664 9.84478 79.0721 9.83378C80.6181 9.6279 82.1433 10.3373 82.982 11.6523C83.8207 12.9674 83.8207 14.6494 82.982 15.9645C82.1433 17.2796 80.6181 17.9889 79.0721 17.783H78.7613V9.90059ZM93.1731 9.02797L93.2063 9.00176L93.1963 9.05188L93.1731 9.02797ZM90.3795 7.89909C91.4281 7.86813 92.4411 8.27792 93.1731 9.02797L91.7227 10.1746C91.2001 9.62859 90.4085 9.43479 89.6928 9.67766C88.9771 9.92052 88.467 10.5561 88.3846 11.3073V11.4677C88.3846 12.3499 88.9961 12.9413 90.189 13.0215C94.7801 13.3022 96.8852 15.4574 96.8852 18.3043V18.4847C96.6431 20.7858 95.0815 22.7343 92.8885 23.4718C90.6955 24.2093 88.2738 23.6002 86.6905 21.913L88.2242 20.7302C88.9468 21.5045 89.9731 21.9224 91.031 21.8729C93.0371 21.9787 94.77 20.4845 94.9605 18.4847V18.3444C94.9605 15.6679 92.3342 15.1767 90.0587 14.9562C87.9536 14.7557 86.4399 13.4425 86.4399 11.5479V11.4677C86.5941 9.4193 88.3258 7.85061 90.3795 7.89909ZM124.592 23.7575H126.597L126.577 7.84897L119.961 16.5601L113.345 7.84897V23.7876H115.35V13.8335L119.971 19.848L124.592 13.8335V23.7575Z" fill="white"/>
<path fill-rule="evenodd" clip-rule="evenodd" d="M10.9064 5.45321C10.9064 2.44149 8.46494 0 5.45321 0C2.44149 0 0 2.44149 0 5.45321V21.9432L4.49088 25.161V33H6.41554V25.161L10.9064 21.9432V5.45321ZM8.98176 14.6756L6.41554 17.2418V14.8359L8.98176 12.2697V14.6756ZM4.53098 14.8359L1.96476 12.2697V14.6756L4.53098 17.2418V14.8359ZM8.98176 9.54312L5.45321 13.0717L1.92466 9.46293V7.0571L5.45321 10.5856L8.98176 7.0571V9.54312ZM8.86147 4.541C8.44247 3.00204 7.04818 1.93172 5.45321 1.92466V1.88457C3.84681 1.89651 2.44879 2.98614 2.04495 4.541L5.45321 7.93924L8.86147 4.541ZM1.92466 20.9708V17.3621L4.49088 19.9283V22.7952L1.92466 20.9708ZM6.41554 19.9283V22.8053L8.98176 20.9608V17.3621L6.41554 19.9283Z" fill="#FFAC12"/>
</svg>
