<svg width="34" height="34" viewBox="0 0 34 34" fill="none" xmlns="http://www.w3.org/2000/svg">
<path fill-rule="evenodd" clip-rule="evenodd" d="M24.2853 33.1899V24.2853H28.3328C31.4624 24.2853 33.9994 21.7483 33.9994 18.6187V5.66657C33.9994 2.53701 31.4624 0 28.3328 0H5.66657C2.53701 0 0 2.53701 0 5.66657V18.6187C0 21.7483 2.53701 24.2853 5.66657 24.2853H9.71412V33.1899C9.71412 33.7917 10.3474 34.1831 10.8856 33.9139L16.9997 30.8569L23.1138 33.9139C23.652 34.1831 24.2853 33.7917 24.2853 33.1899ZM1.61902 5.66657C1.61902 3.43117 3.43117 1.61902 5.66657 1.61902H28.3328C30.5682 1.61902 32.3804 3.43117 32.3804 5.66657V18.6187C32.3804 20.8541 30.5682 22.6663 28.3328 22.6663H5.66657C3.43117 22.6663 1.61902 20.8541 1.61902 18.6187V5.66657ZM11.3331 24.2853H16.1902V29.4516L11.3331 31.8801V24.2853ZM17.8092 24.2853V29.4516L22.6663 31.8801V24.2853H17.8092Z" fill="#00B33C"/>
<path fill-rule="evenodd" clip-rule="evenodd" d="M12.0062 18.4239C12.468 19.3402 13.5764 19.6996 14.4722 19.2084L16.9992 17.8226L19.5262 19.2084C19.8832 19.4041 20.2943 19.472 20.6941 19.4005C21.6826 19.2237 22.3332 18.264 22.1689 17.2648L21.6787 14.2832L23.7497 12.1775C24.0301 11.8924 24.211 11.5219 24.2666 11.1231C24.4064 10.1194 23.7317 9.1763 22.7382 9.02571L19.9038 8.59609L18.63 5.90377C18.4569 5.53781 18.1705 5.23907 17.8135 5.05527C16.9056 4.58789 15.8072 4.97643 15.3685 5.90377L14.0947 8.59609L11.2603 9.02571C10.8609 9.08624 10.494 9.28128 10.2164 9.57833C9.53387 10.3087 9.54803 11.4649 10.2488 12.1775L12.3198 14.2832L11.8295 17.2648C11.7645 17.6602 11.8263 18.067 12.0062 18.4239ZM17.3885 16.1895C17.146 16.0566 16.8525 16.0566 16.61 16.1895L13.6937 17.7888C13.6094 17.8351 13.5055 17.8014 13.452 17.6952C13.4266 17.645 13.4176 17.5854 13.4271 17.5275L13.9841 14.1401C14.026 13.8851 13.9437 13.6254 13.7624 13.4412L11.4031 11.0423C11.311 10.9485 11.3089 10.7805 11.3993 10.6837C11.4296 10.6514 11.4659 10.6321 11.5029 10.6264L14.7634 10.1322C15.0298 10.0919 15.2586 9.92161 15.3738 9.67808L16.832 6.59618C16.8833 6.48765 16.9872 6.45089 17.0724 6.49474C17.1108 6.51452 17.1445 6.54965 17.1665 6.59618L18.6247 9.67808C18.7399 9.92161 18.9687 10.0919 19.2351 10.1322L22.4955 10.6264C22.5979 10.642 22.6825 10.7602 22.6631 10.8997C22.6552 10.9561 22.6307 11.0063 22.5953 11.0423L20.236 13.4412C20.0548 13.6254 19.9725 13.8851 20.0144 14.1401L20.5714 17.5275C20.5943 17.6668 20.5118 17.7884 20.4089 17.8068C20.374 17.8131 20.3381 17.8071 20.3047 17.7888L17.3885 16.1895Z" fill="#00B33C"/>
</svg>
