<svg width="23" height="20" viewBox="0 0 23 20" fill="none" xmlns="http://www.w3.org/2000/svg">
<path d="M21.5234 2.5H5.625L5.27344 0.78125C5.19531 0.351562 4.80469 0 4.375 0H0.46875C0.195312 0 0 0.234375 0 0.46875V1.40625C0 1.67969 0.195312 1.875 0.46875 1.875H3.59375L6.28906 15.7812C5.85938 16.25 5.625 16.8359 5.625 17.5C5.625 18.9062 6.71875 20 8.125 20C9.49219 20 10.625 18.9062 10.625 17.5C10.625 17.1484 10.4688 16.6016 10.2734 16.25H15.9375C15.7422 16.6016 15.625 17.1484 15.625 17.5C15.625 18.9062 16.7188 20 18.125 20C19.4922 20 20.625 18.9062 20.625 17.5C20.625 16.7969 20.3125 16.1719 19.8438 15.7031L19.8828 15.5469C20 14.9609 19.5703 14.375 18.9453 14.375H7.92969L7.57812 12.5H19.7656C20.2344 12.5 20.5859 12.2266 20.7031 11.7969L22.4609 3.67188C22.5781 3.08594 22.1484 2.5 21.5234 2.5ZM8.125 18.4375C7.57812 18.4375 7.1875 18.0469 7.1875 17.5C7.1875 16.9922 7.57812 16.5625 8.125 16.5625C8.63281 16.5625 9.0625 16.9922 9.0625 17.5C9.0625 18.0469 8.63281 18.4375 8.125 18.4375ZM18.125 18.4375C17.5781 18.4375 17.1875 18.0469 17.1875 17.5C17.1875 16.9922 17.5781 16.5625 18.125 16.5625C18.6328 16.5625 19.0625 16.9922 19.0625 17.5C19.0625 18.0469 18.6328 18.4375 18.125 18.4375ZM19.0234 10.625H7.1875L5.97656 4.375H20.3906L19.0234 10.625Z" fill="white"/>
</svg>
