<svg width="49" height="49" viewBox="0 0 49 49" fill="none" xmlns="http://www.w3.org/2000/svg">
<path fill-rule="evenodd" clip-rule="evenodd" d="M7.45196 29.8093L24.5 12.7563L27.6917 15.9489L12.7808 30.8852L24.5 42.6078L39.4179 27.6926L42.6096 30.8852L26.0958 47.4037L24.5 49L22.9042 47.4037L6.3904 30.8852L7.45196 29.8093ZM45.8013 27.6996L47.4041 26.0963L49 24.5L47.4041 22.9037L26.0958 1.59631L24.5 0L22.9042 1.59631L1.60289 22.9037L0 24.5L1.60289 26.0963L3.1987 27.6996L6.3904 24.5L15.9021 14.9855L24.5 6.3852L33.1822 15.0699L35.3967 17.285L21.2099 31.4759L24.4016 34.6755L38.5884 20.4776L42.6096 24.5L45.8013 27.6996Z" fill="#010101"/>
</svg>
