<svg width="96" height="96" viewBox="0 0 96 96" fill="none" xmlns="http://www.w3.org/2000/svg">
<path d="M78.0016 28.1224H57.2376C56.5219 28.1233 55.8196 28.3174 55.205 28.6842C54.5904 29.051 54.0862 29.5769 53.7456 30.2064C53.4738 29.0249 52.937 27.9207 52.1758 26.9771C51.4147 26.0335 50.449 25.2753 49.3517 24.7596C48.2545 24.244 47.0545 23.9845 45.8422 24.0007C44.63 24.0169 43.4373 24.3085 42.3543 24.8533C41.2712 25.398 40.3262 26.1819 39.5905 27.1455C38.8548 28.1091 38.3478 29.2273 38.1077 30.4157C37.8676 31.604 37.9007 32.8313 38.2046 34.005C38.5084 35.1786 39.075 36.2679 39.8616 37.1904C39.3816 37.2904 36.6016 37.9304 35.5176 38.1824C35.0138 38.3206 34.584 38.6504 34.3202 39.1013C34.0564 39.5522 33.9796 40.0885 34.106 40.5953C34.2325 41.1022 34.5522 41.5395 34.9969 41.8137C35.4416 42.0878 35.9759 42.1771 36.4856 42.0624C39.9671 41.0631 43.5493 40.4553 47.1656 40.2504C44.177 42.7607 40.3965 44.1323 36.4936 44.1224C31.3375 44.1256 26.3302 45.8507 22.2663 49.024C18.2024 52.1973 15.3147 56.637 14.0616 61.6384C13.9536 62.0744 14.0256 63.8264 14.0016 66.1224C14.0016 66.9104 14.1568 67.6906 14.4583 68.4185C14.7599 69.1465 15.2018 69.8079 15.759 70.3651C16.3161 70.9222 16.9776 71.3642 17.7055 71.6657C18.4335 71.9672 19.2137 72.1224 20.0016 72.1224H54.3456C55.9348 72.1173 57.4581 71.4864 58.5856 70.3664L60.0016 68.9504L61.4176 70.3664C62.5451 71.4864 64.0684 72.1173 65.6576 72.1224H76.0016C77.5929 72.1224 79.119 71.4903 80.2442 70.3651C81.3695 69.2398 82.0016 67.7137 82.0016 66.1224V32.1224C82.0016 31.0616 81.5802 30.0441 80.83 29.294C80.0799 28.5439 79.0625 28.1224 78.0016 28.1224ZM46.0016 36.1224C45.2105 36.1224 44.4371 35.8878 43.7793 35.4483C43.1215 35.0088 42.6088 34.3841 42.3061 33.6532C42.0033 32.9223 41.9241 32.118 42.0785 31.3421C42.2328 30.5661 42.6138 29.8534 43.1732 29.294C43.7326 28.7346 44.4453 28.3536 45.2212 28.1993C45.9972 28.0449 46.8014 28.1242 47.5323 28.4269C48.2632 28.7297 48.888 29.2423 49.3275 29.9001C49.767 30.5579 50.0016 31.3313 50.0016 32.1224V36.1224H46.0016ZM36.4936 48.1224C38.4942 48.1193 40.4839 47.8283 42.4016 47.2584C43.085 48.0599 43.8142 48.8212 44.5856 49.5384C44.9612 49.914 45.4705 50.125 46.0016 50.125C46.5327 50.125 47.0421 49.914 47.4176 49.5384C47.7932 49.1629 48.0041 48.6535 48.0041 48.1224C48.0041 47.5913 47.7932 47.082 47.4176 46.7064L46.3136 45.6024C46.8136 45.3304 47.3136 45.0544 47.7896 44.7384L50.5896 47.5384C50.9652 47.914 51.4745 48.125 52.0056 48.125C52.5367 48.125 53.0461 47.914 53.4216 47.5384C53.7972 47.1629 54.0081 46.6535 54.0081 46.1224C54.0081 45.5913 53.7972 45.082 53.4216 44.7064L50.9136 42.2024C51.3136 41.8024 51.7136 41.4024 52.0576 41.0024L54.5896 43.5384C54.7756 43.7244 54.9963 43.8719 55.2393 43.9725C55.4822 44.0732 55.7426 44.125 56.0056 44.125C56.2686 44.125 56.529 44.0732 56.7719 43.9725C57.0149 43.8719 57.2357 43.7244 57.4216 43.5384C57.6076 43.3525 57.7551 43.1317 57.8557 42.8888C57.9563 42.6458 58.0081 42.3854 58.0081 42.1224C58.0081 41.8595 57.9563 41.5991 57.8557 41.3561C57.7551 41.1131 57.6076 40.8924 57.4216 40.7064L54.3816 37.6704C55.6896 35.3624 55.8896 34.7584 57.2416 32.1224H78.0016V60.1224H18.7456C20.1643 56.5765 22.6139 53.5376 25.7778 51.3983C28.9416 49.2591 32.6744 48.118 36.4936 48.1224V48.1224ZM76.0016 68.1224H65.6576C64.3936 68.1224 63.9416 67.0864 62.8296 66.1224C62.0672 65.3961 61.0546 64.991 60.0016 64.991C58.9486 64.991 57.936 65.3961 57.1736 66.1224C56.0576 67.0904 55.6056 68.1224 54.3456 68.1224H20.0016C19.4712 68.1224 18.9625 67.9117 18.5874 67.5366C18.2123 67.1616 18.0016 66.6529 18.0016 66.1224V64.1224H78.0016V66.1224C78.0016 66.6529 77.7909 67.1616 77.4158 67.5366C77.0407 67.9117 76.532 68.1224 76.0016 68.1224Z" fill="white"/>
</svg>
