<svg width="1804" height="248" viewBox="0 0 1804 248" fill="none" xmlns="http://www.w3.org/2000/svg">
<mask id="mask0_2_2182" style="mask-type:alpha" maskUnits="userSpaceOnUse" x="-116" y="-91" width="1920" height="339">
<rect x="-116" y="-91" width="1920" height="339" fill="#8D28AD"/>
</mask>
<g mask="url(#mask0_2_2182)">
<path d="M5 2.5C5 3.88071 3.88071 5 2.5 5C1.11929 5 0 3.88071 0 2.5C0 1.11929 1.11929 0 2.5 0C3.88071 0 5 1.11929 5 2.5Z" fill="white" fill-opacity="0.15"/>
<path d="M16 2.5C16 3.88071 14.8807 5 13.5 5C12.1193 5 11 3.88071 11 2.5C11 1.11929 12.1193 0 13.5 0C14.8807 0 16 1.11929 16 2.5Z" fill="white" fill-opacity="0.15"/>
<path d="M27 2.5C27 3.88071 25.8807 5 24.5 5C23.1193 5 22 3.88071 22 2.5C22 1.11929 23.1193 0 24.5 0C25.8807 0 27 1.11929 27 2.5Z" fill="white" fill-opacity="0.15"/>
<path d="M38 2.5C38 3.88071 36.8807 5 35.5 5C34.1193 5 33 3.88071 33 2.5C33 1.11929 34.1193 0 35.5 0C36.8807 0 38 1.11929 38 2.5Z" fill="white" fill-opacity="0.15"/>
<path d="M49 2.5C49 3.88071 47.8807 5 46.5 5C45.1193 5 44 3.88071 44 2.5C44 1.11929 45.1193 0 46.5 0C47.8807 0 49 1.11929 49 2.5Z" fill="white" fill-opacity="0.15"/>
<path d="M60 2.5C60 3.88071 58.8807 5 57.5 5C56.1193 5 55 3.88071 55 2.5C55 1.11929 56.1193 0 57.5 0C58.8807 0 60 1.11929 60 2.5Z" fill="white" fill-opacity="0.15"/>
<path d="M5 13.5C5 14.8807 3.88071 16 2.5 16C1.11929 16 0 14.8807 0 13.5C0 12.1193 1.11929 11 2.5 11C3.88071 11 5 12.1193 5 13.5Z" fill="white" fill-opacity="0.15"/>
<path d="M16 13.5C16 14.8807 14.8807 16 13.5 16C12.1193 16 11 14.8807 11 13.5C11 12.1193 12.1193 11 13.5 11C14.8807 11 16 12.1193 16 13.5Z" fill="white" fill-opacity="0.15"/>
<path d="M27 13.5C27 14.8807 25.8807 16 24.5 16C23.1193 16 22 14.8807 22 13.5C22 12.1193 23.1193 11 24.5 11C25.8807 11 27 12.1193 27 13.5Z" fill="white" fill-opacity="0.15"/>
<path d="M38 13.5C38 14.8807 36.8807 16 35.5 16C34.1193 16 33 14.8807 33 13.5C33 12.1193 34.1193 11 35.5 11C36.8807 11 38 12.1193 38 13.5Z" fill="white" fill-opacity="0.15"/>
<path d="M49 13.5C49 14.8807 47.8807 16 46.5 16C45.1193 16 44 14.8807 44 13.5C44 12.1193 45.1193 11 46.5 11C47.8807 11 49 12.1193 49 13.5Z" fill="white" fill-opacity="0.15"/>
<path d="M60 13.5C60 14.8807 58.8807 16 57.5 16C56.1193 16 55 14.8807 55 13.5C55 12.1193 56.1193 11 57.5 11C58.8807 11 60 12.1193 60 13.5Z" fill="white" fill-opacity="0.15"/>
<path d="M5 24.5C5 25.8807 3.88071 27 2.5 27C1.11929 27 0 25.8807 0 24.5C0 23.1193 1.11929 22 2.5 22C3.88071 22 5 23.1193 5 24.5Z" fill="white" fill-opacity="0.15"/>
<path d="M16 24.5C16 25.8807 14.8807 27 13.5 27C12.1193 27 11 25.8807 11 24.5C11 23.1193 12.1193 22 13.5 22C14.8807 22 16 23.1193 16 24.5Z" fill="white" fill-opacity="0.15"/>
<path d="M27 24.5C27 25.8807 25.8807 27 24.5 27C23.1193 27 22 25.8807 22 24.5C22 23.1193 23.1193 22 24.5 22C25.8807 22 27 23.1193 27 24.5Z" fill="white" fill-opacity="0.15"/>
<path d="M38 24.5C38 25.8807 36.8807 27 35.5 27C34.1193 27 33 25.8807 33 24.5C33 23.1193 34.1193 22 35.5 22C36.8807 22 38 23.1193 38 24.5Z" fill="white" fill-opacity="0.15"/>
<path d="M49 24.5C49 25.8807 47.8807 27 46.5 27C45.1193 27 44 25.8807 44 24.5C44 23.1193 45.1193 22 46.5 22C47.8807 22 49 23.1193 49 24.5Z" fill="white" fill-opacity="0.15"/>
<path d="M60 24.5C60 25.8807 58.8807 27 57.5 27C56.1193 27 55 25.8807 55 24.5C55 23.1193 56.1193 22 57.5 22C58.8807 22 60 23.1193 60 24.5Z" fill="white" fill-opacity="0.15"/>
<path d="M5 35.5C5 36.8807 3.88071 38 2.5 38C1.11929 38 0 36.8807 0 35.5C0 34.1193 1.11929 33 2.5 33C3.88071 33 5 34.1193 5 35.5Z" fill="white" fill-opacity="0.15"/>
<path d="M16 35.5C16 36.8807 14.8807 38 13.5 38C12.1193 38 11 36.8807 11 35.5C11 34.1193 12.1193 33 13.5 33C14.8807 33 16 34.1193 16 35.5Z" fill="white" fill-opacity="0.15"/>
<path d="M27 35.5C27 36.8807 25.8807 38 24.5 38C23.1193 38 22 36.8807 22 35.5C22 34.1193 23.1193 33 24.5 33C25.8807 33 27 34.1193 27 35.5Z" fill="white" fill-opacity="0.15"/>
<path d="M38 35.5C38 36.8807 36.8807 38 35.5 38C34.1193 38 33 36.8807 33 35.5C33 34.1193 34.1193 33 35.5 33C36.8807 33 38 34.1193 38 35.5Z" fill="white" fill-opacity="0.15"/>
<path d="M49 35.5C49 36.8807 47.8807 38 46.5 38C45.1193 38 44 36.8807 44 35.5C44 34.1193 45.1193 33 46.5 33C47.8807 33 49 34.1193 49 35.5Z" fill="white" fill-opacity="0.15"/>
<path d="M60 35.5C60 36.8807 58.8807 38 57.5 38C56.1193 38 55 36.8807 55 35.5C55 34.1193 56.1193 33 57.5 33C58.8807 33 60 34.1193 60 35.5Z" fill="white" fill-opacity="0.15"/>
<path d="M5 46.5C5 47.8807 3.88071 49 2.5 49C1.11929 49 0 47.8807 0 46.5C0 45.1193 1.11929 44 2.5 44C3.88071 44 5 45.1193 5 46.5Z" fill="white" fill-opacity="0.15"/>
<path d="M16 46.5C16 47.8807 14.8807 49 13.5 49C12.1193 49 11 47.8807 11 46.5C11 45.1193 12.1193 44 13.5 44C14.8807 44 16 45.1193 16 46.5Z" fill="white" fill-opacity="0.15"/>
<path d="M27 46.5C27 47.8807 25.8807 49 24.5 49C23.1193 49 22 47.8807 22 46.5C22 45.1193 23.1193 44 24.5 44C25.8807 44 27 45.1193 27 46.5Z" fill="white" fill-opacity="0.15"/>
<path d="M38 46.5C38 47.8807 36.8807 49 35.5 49C34.1193 49 33 47.8807 33 46.5C33 45.1193 34.1193 44 35.5 44C36.8807 44 38 45.1193 38 46.5Z" fill="white" fill-opacity="0.15"/>
<path d="M49 46.5C49 47.8807 47.8807 49 46.5 49C45.1193 49 44 47.8807 44 46.5C44 45.1193 45.1193 44 46.5 44C47.8807 44 49 45.1193 49 46.5Z" fill="white" fill-opacity="0.15"/>
<path d="M60 46.5C60 47.8807 58.8807 49 57.5 49C56.1193 49 55 47.8807 55 46.5C55 45.1193 56.1193 44 57.5 44C58.8807 44 60 45.1193 60 46.5Z" fill="white" fill-opacity="0.15"/>
<path d="M5 57.5C5 58.8807 3.88071 60 2.5 60C1.11929 60 0 58.8807 0 57.5C0 56.1193 1.11929 55 2.5 55C3.88071 55 5 56.1193 5 57.5Z" fill="white" fill-opacity="0.15"/>
<path d="M16 57.5C16 58.8807 14.8807 60 13.5 60C12.1193 60 11 58.8807 11 57.5C11 56.1193 12.1193 55 13.5 55C14.8807 55 16 56.1193 16 57.5Z" fill="white" fill-opacity="0.15"/>
<path d="M27 57.5C27 58.8807 25.8807 60 24.5 60C23.1193 60 22 58.8807 22 57.5C22 56.1193 23.1193 55 24.5 55C25.8807 55 27 56.1193 27 57.5Z" fill="white" fill-opacity="0.15"/>
<path d="M38 57.5C38 58.8807 36.8807 60 35.5 60C34.1193 60 33 58.8807 33 57.5C33 56.1193 34.1193 55 35.5 55C36.8807 55 38 56.1193 38 57.5Z" fill="white" fill-opacity="0.15"/>
<path d="M49 57.5C49 58.8807 47.8807 60 46.5 60C45.1193 60 44 58.8807 44 57.5C44 56.1193 45.1193 55 46.5 55C47.8807 55 49 56.1193 49 57.5Z" fill="white" fill-opacity="0.15"/>
<path d="M60 57.5C60 58.8807 58.8807 60 57.5 60C56.1193 60 55 58.8807 55 57.5C55 56.1193 56.1193 55 57.5 55C58.8807 55 60 56.1193 60 57.5Z" fill="white" fill-opacity="0.15"/>
<path d="M1667.33 183.167C1667.33 185.468 1665.47 187.333 1663.17 187.333C1660.87 187.333 1659 185.468 1659 183.167C1659 180.865 1660.87 179 1663.17 179C1665.47 179 1667.33 180.865 1667.33 183.167Z" fill="white"/>
<path d="M1695.67 183.167C1695.67 185.468 1693.8 187.333 1691.5 187.333C1689.2 187.333 1687.33 185.468 1687.33 183.167C1687.33 180.865 1689.2 179 1691.5 179C1693.8 179 1695.67 180.865 1695.67 183.167Z" fill="white"/>
<path d="M1724 183.167C1724 185.468 1722.13 187.333 1719.83 187.333C1717.53 187.333 1715.67 185.468 1715.67 183.167C1715.67 180.865 1717.53 179 1719.83 179C1722.13 179 1724 180.865 1724 183.167Z" fill="white"/>
<path d="M1752.33 183.167C1752.33 185.468 1750.47 187.333 1748.17 187.333C1745.87 187.333 1744 185.468 1744 183.167C1744 180.865 1745.87 179 1748.17 179C1750.47 179 1752.33 180.865 1752.33 183.167Z" fill="white"/>
<path d="M1780.67 183.167C1780.67 185.468 1778.8 187.333 1776.5 187.333C1774.2 187.333 1772.33 185.468 1772.33 183.167C1772.33 180.865 1774.2 179 1776.5 179C1778.8 179 1780.67 180.865 1780.67 183.167Z" fill="white"/>
<path d="M1809 183.167C1809 185.468 1807.13 187.333 1804.83 187.333C1802.53 187.333 1800.67 185.468 1800.67 183.167C1800.67 180.865 1802.53 179 1804.83 179C1807.13 179 1809 180.865 1809 183.167Z" fill="white"/>
<path d="M1667.33 211.5C1667.33 213.801 1665.47 215.667 1663.17 215.667C1660.87 215.667 1659 213.801 1659 211.5C1659 209.199 1660.87 207.333 1663.17 207.333C1665.47 207.333 1667.33 209.199 1667.33 211.5Z" fill="white"/>
<path d="M1695.67 211.5C1695.67 213.801 1693.8 215.667 1691.5 215.667C1689.2 215.667 1687.33 213.801 1687.33 211.5C1687.33 209.199 1689.2 207.333 1691.5 207.333C1693.8 207.333 1695.67 209.199 1695.67 211.5Z" fill="white"/>
<path d="M1724 211.5C1724 213.801 1722.13 215.667 1719.83 215.667C1717.53 215.667 1715.67 213.801 1715.67 211.5C1715.67 209.199 1717.53 207.333 1719.83 207.333C1722.13 207.333 1724 209.199 1724 211.5Z" fill="white"/>
<path d="M1752.33 211.5C1752.33 213.801 1750.47 215.667 1748.17 215.667C1745.87 215.667 1744 213.801 1744 211.5C1744 209.199 1745.87 207.333 1748.17 207.333C1750.47 207.333 1752.33 209.199 1752.33 211.5Z" fill="white"/>
<path d="M1780.67 211.5C1780.67 213.801 1778.8 215.667 1776.5 215.667C1774.2 215.667 1772.33 213.801 1772.33 211.5C1772.33 209.199 1774.2 207.333 1776.5 207.333C1778.8 207.333 1780.67 209.199 1780.67 211.5Z" fill="white"/>
<path d="M1809 211.5C1809 213.801 1807.13 215.667 1804.83 215.667C1802.53 215.667 1800.67 213.801 1800.67 211.5C1800.67 209.199 1802.53 207.333 1804.83 207.333C1807.13 207.333 1809 209.199 1809 211.5Z" fill="white"/>
<path d="M1667.33 239.833C1667.33 242.134 1665.47 244 1663.17 244C1660.87 244 1659 242.134 1659 239.833C1659 237.532 1660.87 235.667 1663.17 235.667C1665.47 235.667 1667.33 237.532 1667.33 239.833Z" fill="white"/>
<path d="M1695.67 239.833C1695.67 242.134 1693.8 244 1691.5 244C1689.2 244 1687.33 242.134 1687.33 239.833C1687.33 237.532 1689.2 235.667 1691.5 235.667C1693.8 235.667 1695.67 237.532 1695.67 239.833Z" fill="white"/>
<path d="M1724 239.833C1724 242.134 1722.13 244 1719.83 244C1717.53 244 1715.67 242.134 1715.67 239.833C1715.67 237.532 1717.53 235.667 1719.83 235.667C1722.13 235.667 1724 237.532 1724 239.833Z" fill="white"/>
<path d="M1752.33 239.833C1752.33 242.134 1750.47 244 1748.17 244C1745.87 244 1744 242.134 1744 239.833C1744 237.532 1745.87 235.667 1748.17 235.667C1750.47 235.667 1752.33 237.532 1752.33 239.833Z" fill="white"/>
<path d="M1780.67 239.833C1780.67 242.134 1778.8 244 1776.5 244C1774.2 244 1772.33 242.134 1772.33 239.833C1772.33 237.532 1774.2 235.667 1776.5 235.667C1778.8 235.667 1780.67 237.532 1780.67 239.833Z" fill="white"/>
<path d="M1809 239.833C1809 242.134 1807.13 244 1804.83 244C1802.53 244 1800.67 242.134 1800.67 239.833C1800.67 237.532 1802.53 235.667 1804.83 235.667C1807.13 235.667 1809 237.532 1809 239.833Z" fill="white"/>
<path d="M1667.33 268.166C1667.33 270.468 1665.47 272.333 1663.17 272.333C1660.87 272.333 1659 270.468 1659 268.166C1659 265.865 1660.87 264 1663.17 264C1665.47 264 1667.33 265.865 1667.33 268.166Z" fill="white"/>
<path d="M1695.67 268.166C1695.67 270.468 1693.8 272.333 1691.5 272.333C1689.2 272.333 1687.33 270.468 1687.33 268.166C1687.33 265.865 1689.2 264 1691.5 264C1693.8 264 1695.67 265.865 1695.67 268.166Z" fill="white"/>
<path d="M1724 268.166C1724 270.468 1722.13 272.333 1719.83 272.333C1717.53 272.333 1715.67 270.468 1715.67 268.166C1715.67 265.865 1717.53 264 1719.83 264C1722.13 264 1724 265.865 1724 268.166Z" fill="white"/>
<path d="M1752.33 268.166C1752.33 270.468 1750.47 272.333 1748.17 272.333C1745.87 272.333 1744 270.468 1744 268.166C1744 265.865 1745.87 264 1748.17 264C1750.47 264 1752.33 265.865 1752.33 268.166Z" fill="white"/>
<path d="M1780.67 268.166C1780.67 270.468 1778.8 272.333 1776.5 272.333C1774.2 272.333 1772.33 270.468 1772.33 268.166C1772.33 265.865 1774.2 264 1776.5 264C1778.8 264 1780.67 265.865 1780.67 268.166Z" fill="white"/>
<path d="M1809 268.166C1809 270.468 1807.13 272.333 1804.83 272.333C1802.53 272.333 1800.67 270.468 1800.67 268.166C1800.67 265.865 1802.53 264 1804.83 264C1807.13 264 1809 265.865 1809 268.166Z" fill="white"/>
<path d="M1667.33 296.5C1667.33 298.801 1665.47 300.666 1663.17 300.666C1660.87 300.666 1659 298.801 1659 296.5C1659 294.198 1660.87 292.333 1663.17 292.333C1665.47 292.333 1667.33 294.198 1667.33 296.5Z" fill="white"/>
<path d="M1695.67 296.5C1695.67 298.801 1693.8 300.666 1691.5 300.666C1689.2 300.666 1687.33 298.801 1687.33 296.5C1687.33 294.198 1689.2 292.333 1691.5 292.333C1693.8 292.333 1695.67 294.198 1695.67 296.5Z" fill="white"/>
<path d="M1724 296.5C1724 298.801 1722.13 300.666 1719.83 300.666C1717.53 300.666 1715.67 298.801 1715.67 296.5C1715.67 294.198 1717.53 292.333 1719.83 292.333C1722.13 292.333 1724 294.198 1724 296.5Z" fill="white"/>
<path d="M1752.33 296.5C1752.33 298.801 1750.47 300.666 1748.17 300.666C1745.87 300.666 1744 298.801 1744 296.5C1744 294.198 1745.87 292.333 1748.17 292.333C1750.47 292.333 1752.33 294.198 1752.33 296.5Z" fill="white"/>
<path d="M1780.67 296.5C1780.67 298.801 1778.8 300.666 1776.5 300.666C1774.2 300.666 1772.33 298.801 1772.33 296.5C1772.33 294.198 1774.2 292.333 1776.5 292.333C1778.8 292.333 1780.67 294.198 1780.67 296.5Z" fill="white"/>
<path d="M1809 296.5C1809 298.801 1807.13 300.666 1804.83 300.666C1802.53 300.666 1800.67 298.801 1800.67 296.5C1800.67 294.198 1802.53 292.333 1804.83 292.333C1807.13 292.333 1809 294.198 1809 296.5Z" fill="white"/>
<path d="M1667.33 324.833C1667.33 327.134 1665.47 329 1663.17 329C1660.87 329 1659 327.134 1659 324.833C1659 322.532 1660.87 320.666 1663.17 320.666C1665.47 320.666 1667.33 322.532 1667.33 324.833Z" fill="white"/>
<path d="M1695.67 324.833C1695.67 327.134 1693.8 329 1691.5 329C1689.2 329 1687.33 327.134 1687.33 324.833C1687.33 322.532 1689.2 320.666 1691.5 320.666C1693.8 320.666 1695.67 322.532 1695.67 324.833Z" fill="white"/>
<path d="M1724 324.833C1724 327.134 1722.13 329 1719.83 329C1717.53 329 1715.67 327.134 1715.67 324.833C1715.67 322.532 1717.53 320.666 1719.83 320.666C1722.13 320.666 1724 322.532 1724 324.833Z" fill="white"/>
<path d="M1752.33 324.833C1752.33 327.134 1750.47 329 1748.17 329C1745.87 329 1744 327.134 1744 324.833C1744 322.532 1745.87 320.666 1748.17 320.666C1750.47 320.666 1752.33 322.532 1752.33 324.833Z" fill="white"/>
<path d="M1780.67 324.833C1780.67 327.134 1778.8 329 1776.5 329C1774.2 329 1772.33 327.134 1772.33 324.833C1772.33 322.532 1774.2 320.666 1776.5 320.666C1778.8 320.666 1780.67 322.532 1780.67 324.833Z" fill="white"/>
<path d="M1809 324.833C1809 327.134 1807.13 329 1804.83 329C1802.53 329 1800.67 327.134 1800.67 324.833C1800.67 322.532 1802.53 320.666 1804.83 320.666C1807.13 320.666 1809 322.532 1809 324.833Z" fill="white"/>
</g>
</svg>
