<svg width="55" height="42" viewBox="0 0 55 42" fill="none" xmlns="http://www.w3.org/2000/svg">
<path d="M54.8946 2.72089V12.2067C54.8946 13.7085 53.6779 14.9276 52.1737 14.9276C50.6718 14.9276 49.4528 13.7088 49.4528 12.2067V9.28787L22.4832 36.2597C21.4188 37.3218 19.697 37.3218 18.6349 36.2597L14.1118 31.7344L3.8483 42.0001L0 38.1518L12.1877 25.9641C13.2498 24.8998 14.9716 24.8998 16.0338 25.9641L20.559 30.4872L45.6045 5.44177H42.6878C41.186 5.44177 39.9669 4.22296 39.9669 2.72089C39.9669 1.21906 41.1858 0 42.6878 0H52.1737C53.6777 0.000244398 54.8946 1.21906 54.8946 2.72089V2.72089Z" fill="#FF6C6C"/>
</svg>
