<svg width="32" height="31" viewBox="0 0 32 31" fill="none" xmlns="http://www.w3.org/2000/svg">
<path d="M7.00001 14.9999C7.00001 14.7347 7.10537 14.4804 7.29291 14.2928C7.48044 14.1053 7.7348 13.9999 8.00001 13.9999L21.59 13.9999L20.29 12.7099C20.1017 12.5216 19.9959 12.2662 19.9959 11.9999C19.9959 11.7336 20.1017 11.4782 20.29 11.2899C20.4783 11.1016 20.7337 10.9958 21 10.9958C21.2663 10.9958 21.5217 11.1016 21.71 11.2899L24.71 14.2899C24.8488 14.4306 24.9428 14.6091 24.9801 14.8031C25.0175 14.9971 24.9966 15.1978 24.92 15.3799C24.845 15.5626 24.7176 15.7189 24.5539 15.8292C24.3902 15.9396 24.1974 15.999 24 15.9999L8.00001 15.9999C7.7348 15.9999 7.48044 15.8946 7.29291 15.707C7.10537 15.5195 7.00001 15.2652 7.00001 14.9999Z" fill="#393D46"/>
<path d="M20 17.9999C19.9992 17.8683 20.0245 17.7379 20.0742 17.616C20.124 17.4942 20.1973 17.3834 20.29 17.2899L23.29 14.2899C23.4783 14.1016 23.7337 13.9958 24 13.9958C24.1319 13.9958 24.2624 14.0218 24.3842 14.0723C24.5061 14.1227 24.6168 14.1967 24.71 14.2899C24.8032 14.3832 24.8772 14.4939 24.9277 14.6157C24.9781 14.7375 25.0041 14.8681 25.0041 14.9999C25.0041 15.2662 24.8983 15.5216 24.71 15.7099L21.71 18.7099C21.617 18.8037 21.5064 18.8781 21.3846 18.9288C21.2627 18.9796 21.132 19.0057 21 19.0057C20.868 19.0057 20.7373 18.9796 20.6154 18.9288C20.4936 18.8781 20.383 18.8037 20.29 18.7099C20.1973 18.6165 20.124 18.5057 20.0742 18.3838C20.0245 18.262 19.9992 18.1315 20 17.9999Z" fill="#393D46"/>
</svg>
