<svg width="32" height="32" viewBox="0 0 32 32" fill="none" xmlns="http://www.w3.org/2000/svg">
<path d="M3.40625 6.79688C3.40625 7.68572 4.12681 8.40625 5.01562 8.40625H26.5781C27.467 8.40625 28.1875 7.68572 28.1875 6.79688C28.1875 5.90803 27.467 5.1875 26.5781 5.1875H5.01562C4.12681 5.1875 3.40625 5.90803 3.40625 6.79688ZM8.625 16.0469C8.625 16.9357 9.34556 17.6562 10.2344 17.6562H26.5781C27.467 17.6562 28.1875 16.9357 28.1875 16.0469C28.1875 15.158 27.467 14.4375 26.5781 14.4375H10.2344C9.34556 14.4375 8.625 15.158 8.625 16.0469ZM17.2812 25.2656C17.2812 26.1544 18.0018 26.875 18.8906 26.875H26.5781C27.467 26.875 28.1875 26.1544 28.1875 25.2656C28.1875 24.3768 27.467 23.6562 26.5781 23.6562H18.8906C18.0018 23.6562 17.2812 24.3768 17.2812 25.2656Z" fill="#333333"/>
</svg>
