<svg width="72" height="72" viewBox="0 0 72 72" fill="none" xmlns="http://www.w3.org/2000/svg">
<circle cx="36" cy="36" r="36" fill="white"/>
<path fill-rule="evenodd" clip-rule="evenodd" d="M35.9993 22.6665C28.6393 22.6665 22.666 28.6398 22.666 35.9998C22.666 43.3598 28.6393 49.3332 35.9993 49.3332C43.3593 49.3332 49.3327 43.3598 49.3327 35.9998C49.3327 28.6398 43.3593 22.6665 35.9993 22.6665ZM25.3327 35.9998C25.3327 35.1865 25.4393 34.3865 25.6127 33.6265L31.986 39.9998V41.3332C31.986 42.7998 33.186 43.9998 34.6527 43.9998V46.5732C29.4127 45.9065 25.3327 41.4265 25.3327 35.9998ZM41.3193 41.3332C42.5194 41.3332 43.506 42.1198 43.8527 43.1998C45.586 41.3065 46.666 38.7732 46.666 35.9998C46.666 31.5332 43.8927 27.6932 39.986 26.1198V26.6665C39.986 28.1332 38.786 29.3332 37.3193 29.3332H34.6527V31.9998C34.6527 32.7332 34.0527 33.3332 33.3193 33.3332H30.6527V35.9998H38.6527C39.386 35.9998 39.986 36.5998 39.986 37.3332V41.3332H41.3193Z" fill="#132A73"/>
</svg>
