<svg width="32" height="32" viewBox="0 0 32 32" fill="none" xmlns="http://www.w3.org/2000/svg">
<path fill-rule="evenodd" clip-rule="evenodd" d="M4.8 7.2C4.8 11.1764 8.02355 14.4 12 14.4C15.9764 14.4 19.2 11.1764 19.2 7.2C19.2 3.22355 15.9764 0 12 0C8.02355 0 4.8 3.22355 4.8 7.2ZM24 28C24 21.3726 18.6274 16 12 16C5.37258 16 0 21.3726 0 28V31.2C0 31.6418 0.358172 32 0.8 32H23.2C23.6418 32 24 31.6418 24 31.2V28ZM12 12.8C15.0928 12.8 17.6 10.2928 17.6 7.2C17.6 4.10721 15.0928 1.6 12 1.6C8.90721 1.6 6.4 4.10721 6.4 7.2C6.4 10.2928 8.90721 12.8 12 12.8ZM22.4 28V30.4H1.6V28C1.6 22.2562 6.25624 17.6 12 17.6C17.7438 17.6 22.4 22.2562 22.4 28Z" fill="#00B33C"/>
<path d="M29.7601 10.7204C30.0252 10.367 30.5266 10.2953 30.8801 10.5604C31.2336 10.8255 31.3052 11.327 31.0401 11.6804L26.2401 18.0804C25.948 18.4699 25.3787 18.5104 25.0344 18.1661L21.8344 14.9661C21.522 14.6537 21.522 14.1472 21.8344 13.8348C22.1468 13.5223 22.6534 13.5223 22.9658 13.8348L25.5135 16.3825L29.7601 10.7204Z" fill="#00B33C"/>
</svg>
