<svg width="1440" height="214" viewBox="0 0 1440 214" fill="none" xmlns="http://www.w3.org/2000/svg">
<rect width="1440" height="214" fill="#37383E"/>
<path fill-rule="evenodd" clip-rule="evenodd" d="M1081.2 100.566V97.4551H1068.27V100.566H1072.77V112.845H1068.27V115.955H1081.2V112.845H1076.29V100.566H1081.2Z" fill="white" fill-opacity="0.25"/>
<path fill-rule="evenodd" clip-rule="evenodd" d="M1102.69 100.689H1097.53V105.764C1097.53 105.764 1100.31 105.683 1102.61 105.683C1104.9 105.683 1105.47 105.192 1105.47 102.899C1105.47 100.28 1102.69 100.689 1102.69 100.689" fill="white" fill-opacity="0.25"/>
<path fill-rule="evenodd" clip-rule="evenodd" d="M1109.15 111.494V115.751H1105.47V111.739C1105.47 111.739 1105.47 108.629 1103.34 108.629C1101.21 108.629 1097.53 108.711 1097.53 108.711V115.832H1093.93V97.4962H1104.57C1104.57 97.4962 1109.15 97.2506 1109.15 102.244C1109.15 107.237 1106.37 107.483 1106.37 107.483C1106.37 107.483 1109.15 107.646 1109.15 111.494V111.494ZM1087.79 120.416H1114.56V93.1582H1087.79V120.416Z" fill="white" fill-opacity="0.25"/>
<path fill-rule="evenodd" clip-rule="evenodd" d="M1119.47 97.4961V100.525H1122.01V112.885H1119.47V115.914H1135.1V109.938H1131.99V112.885H1125.36V107.892H1130.27V104.863H1125.36V100.525H1131.75V103.471H1135.1V97.4961H1119.47Z" fill="white" fill-opacity="0.25"/>
<path fill-rule="evenodd" clip-rule="evenodd" d="M1156.39 100.608H1150.82V112.887H1156.63C1159.41 112.887 1159.5 109.285 1159.5 109.285V104.537C1159.5 100.362 1156.39 100.608 1156.39 100.608" fill="white" fill-opacity="0.25"/>
<path fill-rule="evenodd" clip-rule="evenodd" d="M1156.8 116.078C1150.08 116.078 1147.05 116.16 1147.05 116.16V97.5785H1154.99C1154.99 97.5785 1163.18 96.6785 1163.18 104.046V109.203C1163.18 109.203 1163.51 116.078 1156.8 116.078V116.078ZM1141.08 120.416H1167.85V93.1582H1141.08V120.416Z" fill="white" fill-opacity="0.25"/>
<path fill-rule="evenodd" clip-rule="evenodd" d="M1055.54 115.915H1050.95L1048.01 102.571L1044.81 115.996H1040.31L1036.55 97.5785H1040.23L1042.77 111.577L1046.04 97.5785L1050.05 97.6607L1053.33 111.821L1055.78 97.5785H1059.3L1055.54 115.915ZM1034.26 120.416H1061.02V93.1582H1034.26V120.416Z" fill="white" fill-opacity="0.25"/>
<mask id="mask0_16_18413" style="mask-type:alpha" maskUnits="userSpaceOnUse" x="1020" y="57" width="163" height="100">
<path fill-rule="evenodd" clip-rule="evenodd" d="M1020 156.443H1182.1V57.1328H1020V156.443Z" fill="white"/>
</mask>
<g mask="url(#mask0_16_18413)">
</g>
<path fill-rule="evenodd" clip-rule="evenodd" d="M882.502 114.306C881.878 114.165 881.379 114.148 880.991 114.042H880.991C880.851 114.004 880.726 113.954 880.614 113.883C880.444 113.788 880.301 113.628 880.209 112.699L876.141 112.7C876.064 113.646 875.949 113.807 875.798 113.883C875.674 113.955 875.542 114.004 875.399 114.042H880.158L875.399 114.043C875.084 114.127 874.711 114.155 874.242 114.235C873.773 114.155 873.4 114.127 873.084 114.042H873.082C872.939 114.004 872.809 113.954 872.686 113.883C872.573 113.826 872.481 113.516 872.409 112.699C872.325 111.741 872.27 110.085 872.244 107.325C872.235 106.526 872.23 105.634 872.227 104.639L868.314 104.64C868.335 105.635 868.349 106.527 868.356 107.325H869.312L868.356 107.326C868.382 110.097 868.325 111.743 868.206 112.698C868.107 113.481 867.967 113.795 867.793 113.883C867.681 113.954 867.59 114.004 867.501 114.042H868.333H867.501C867.254 114.148 867.019 114.165 866.367 114.306C866.06 114.383 866.137 114.769 866.329 114.73C867.446 114.653 868.487 114.614 870.259 114.614C871.646 114.614 872.793 114.635 873.7 114.674C874.212 114.688 874.232 114.688 874.783 114.674C875.691 114.635 876.838 114.614 878.224 114.614C879.996 114.614 881.423 114.653 882.54 114.73C882.732 114.769 882.809 114.383 882.502 114.306" fill="white"/>
<path fill-rule="evenodd" clip-rule="evenodd" d="M949.352 115.078C950.637 115.078 951.93 114.691 953.032 114.044L944.87 114.043C946.095 114.704 947.591 115.078 949.352 115.078" fill="white"/>
<path fill-rule="evenodd" clip-rule="evenodd" d="M889.887 115.078C891.113 115.078 892.215 114.667 893.165 114.043L886.054 114.044C887.129 114.711 888.42 115.078 889.887 115.078" fill="white"/>
<path fill-rule="evenodd" clip-rule="evenodd" d="M933.415 115.078C934.7 115.078 935.993 114.691 937.096 114.044L928.932 114.043C930.158 114.704 931.654 115.078 933.415 115.078" fill="white"/>
<path fill-rule="evenodd" clip-rule="evenodd" d="M975.733 114.306C975.025 114.165 974.712 114.148 974.321 114.042H973.395H974.321C974.18 114.004 974.028 113.954 973.845 113.883C973.644 113.816 973.189 113.389 972.546 112.698H972.545C971.442 111.512 969.786 109.555 967.917 107.325C967.193 106.462 966.437 105.557 965.668 104.64L964.298 104.639H965.668C965.581 104.536 965.494 104.432 965.407 104.327C968.698 101.139 970.342 99.7503 971.288 99.2663L967.945 99.2656C968.102 99.4382 968.142 99.6077 968.142 99.7421C968.142 100.089 966.832 101.669 964.096 104.443C964.029 104.511 963.96 104.576 963.89 104.639C963.326 105.148 962.706 105.483 962.054 105.483V104.639H958.231C958.227 105.64 958.22 106.531 958.211 107.325C958.181 110.206 958.126 111.803 958.052 112.699L962.209 112.699C962.124 111.675 962.086 109.943 962.062 107.325C962.059 107.031 962.057 106.725 962.054 106.408C962.581 106.506 962.938 106.717 963.533 107.326H963.533C963.637 107.432 963.747 107.549 963.865 107.68C965.926 110.049 967.212 111.73 967.849 112.699C968.165 113.18 968.322 113.485 968.335 113.613C968.335 113.795 968.292 113.934 968.104 114.042H968.103C967.893 114.163 967.503 114.245 966.794 114.306C966.524 114.345 966.601 114.769 966.794 114.731C967.757 114.654 969.452 114.615 971.379 114.615C973.267 114.615 974.77 114.654 975.733 114.731C975.926 114.769 976.08 114.383 975.733 114.306" fill="white"/>
<path fill-rule="evenodd" clip-rule="evenodd" d="M853.498 114.307C852.847 114.166 852.55 114.149 852.254 114.043C852.147 114.005 852.041 113.955 851.919 113.883C851.767 113.789 851.7 113.63 851.656 112.7C851.615 111.813 851.596 110.226 851.547 107.326L847.641 107.327C847.634 110.212 847.585 111.807 847.508 112.7H850.751L847.508 112.701C847.427 113.647 847.312 113.808 847.18 113.883C847.057 113.955 846.927 114.005 846.784 114.043H849.519H846.784C846.389 114.149 845.905 114.166 845.254 114.307C844.944 114.384 845.022 114.769 845.214 114.731C846.178 114.654 847.68 114.615 849.607 114.615C851.379 114.615 852.42 114.654 853.537 114.731C853.729 114.769 853.807 114.384 853.498 114.307" fill="white"/>
<path fill-rule="evenodd" clip-rule="evenodd" d="M964.174 114.306C963.523 114.165 963.162 114.148 962.834 114.042H960.089H962.834C962.715 114.004 962.601 113.954 962.479 113.883C962.356 113.822 962.271 113.45 962.208 112.7L958.053 112.699C957.971 113.688 957.864 113.82 957.739 113.883C957.617 113.954 957.487 114.004 957.344 114.042C956.949 114.148 956.464 114.165 955.813 114.306C955.543 114.383 955.582 114.769 955.774 114.73C956.776 114.653 958.125 114.615 960.051 114.615C961.824 114.615 963.095 114.653 964.213 114.73C964.367 114.769 964.444 114.383 964.174 114.306" fill="white"/>
<path fill-rule="evenodd" clip-rule="evenodd" d="M857.467 113.883C857.345 113.954 857.246 114.004 857.152 114.042H859.911H857.152C856.89 114.148 856.655 114.165 856.003 114.306C855.695 114.383 855.772 114.769 855.965 114.73C857.082 114.653 858.122 114.615 859.895 114.615C861.821 114.615 863.054 114.653 864.017 114.73C864.209 114.769 864.287 114.383 863.979 114.306C863.327 114.165 862.988 114.148 862.671 114.042H862.67C862.556 114.004 862.444 113.954 862.321 113.883C862.213 113.82 862.117 113.57 862.041 112.699H857.864C857.767 113.486 857.628 113.795 857.467 113.883" fill="white"/>
<path fill-rule="evenodd" clip-rule="evenodd" d="M894.818 111.84C894.484 112.159 894.096 112.458 893.677 112.699H893.914L893.677 112.699C893.08 113.041 892.415 113.266 891.736 113.266C890.952 113.266 890.256 113.064 889.652 112.7C888.1 111.762 887.167 109.747 886.963 107.325L884.496 107.325H886.963C886.934 106.988 886.92 106.643 886.92 106.292C886.92 105.708 886.935 105.157 886.968 104.639C887.152 101.751 887.876 99.9083 889.475 99.2656L886.896 99.2669C884.831 100.397 883.303 102.296 882.752 104.639C882.605 105.263 882.527 105.92 882.527 106.601C882.527 106.846 882.534 107.087 882.547 107.325C882.672 109.504 883.359 111.353 884.5 112.699C884.95 113.229 885.47 113.68 886.054 114.043L893.164 114.042C893.747 113.659 894.273 113.197 894.734 112.699H894.735C894.844 112.58 894.948 112.462 895.049 112.341C895.088 112.303 895.358 112.38 895.358 112.496C895.363 112.562 895.371 112.63 895.379 112.699C895.429 113.136 895.514 113.61 895.609 114.042H898.042H895.609C895.689 114.406 895.777 114.741 895.859 115C895.896 115.193 896.089 115.27 896.206 115.193C897.139 114.793 899.053 114.392 900.476 114.042H900.477C900.697 113.988 900.907 113.934 901.098 113.883C901.291 113.844 901.407 113.536 901.06 113.536C900.058 113.536 899.827 113.305 899.48 112.919C899.439 112.864 899.4 112.799 899.365 112.699C899.206 112.254 899.109 111.137 899.131 107.326L895.309 107.325L895.242 110.877C895.242 111.301 895.126 111.494 894.818 111.84" fill="white"/>
<path fill-rule="evenodd" clip-rule="evenodd" d="M876.258 107.327C876.253 110.212 876.213 111.807 876.141 112.7L880.209 112.699C880.122 111.812 880.08 110.225 880.104 107.326L876.258 107.327Z" fill="white"/>
<path fill-rule="evenodd" clip-rule="evenodd" d="M947.162 99.2659H947.162C947.682 98.8519 948.346 98.6251 949.197 98.6251C949.881 98.6251 950.41 98.8684 950.815 99.2665H950.816C951.806 100.239 952.055 102.13 951.972 103.633C951.972 103.711 949.698 103.672 949.43 103.672C946.963 103.711 946.347 103.749 945.383 103.749C945.641 101.711 946.107 100.105 947.162 99.2659M955.324 110.993C954.64 111.855 953.268 112.465 951.862 112.699H951.855C951.442 112.768 951.025 112.804 950.624 112.804C950.209 112.804 949.818 112.768 949.452 112.698H949.45C946.926 112.217 945.545 110.146 945.251 107.326H942.467L945.251 107.326C945.211 106.944 945.191 106.547 945.191 106.138C945.191 105.398 945.191 105.174 945.279 104.64L942.685 104.64L945.279 104.639C945.288 104.59 945.296 104.537 945.306 104.481C946.27 104.442 946.771 104.442 949.43 104.442C952.858 104.442 955.826 104.635 956.094 104.019C956.445 103.245 955.953 100.853 953.99 99.2652H953.989C952.923 98.4022 951.424 97.7773 949.39 97.7773C947.489 97.7773 945.785 98.3187 944.405 99.2659H944.404C942.631 100.484 941.394 102.371 940.965 104.639C940.855 105.219 940.798 105.823 940.798 106.446C940.798 106.744 940.809 107.037 940.832 107.326C940.995 109.445 941.755 111.323 943.09 112.699C943.599 113.225 944.194 113.677 944.869 114.042H953.032C953.663 113.672 954.232 113.217 954.7 112.699H954.701C955.108 112.248 955.439 111.752 955.671 111.224C955.787 110.954 955.402 110.838 955.324 110.993" fill="white"/>
<path fill-rule="evenodd" clip-rule="evenodd" d="M895.319 106.755L895.308 107.325H899.13C899.131 107.19 899.132 107.051 899.133 106.909L899.152 104.639H895.287C895.315 105.252 895.326 105.952 895.319 106.755" fill="white"/>
<path fill-rule="evenodd" clip-rule="evenodd" d="M936.035 103.633C936.035 103.71 933.762 103.672 933.493 103.672C931.026 103.71 930.41 103.749 929.447 103.749C929.705 101.711 930.17 100.104 931.224 99.2659H931.226C931.746 98.8519 932.409 98.6251 933.261 98.6251C933.943 98.6251 934.473 98.8684 934.879 99.2665C935.87 100.238 936.117 102.13 936.035 103.633M938.053 99.2646H938.052C936.986 98.4022 935.487 97.7773 933.454 97.7773C931.552 97.7773 929.847 98.3187 928.468 99.2659H928.467C926.694 100.484 925.458 102.371 925.028 104.639C924.919 105.219 924.861 105.823 924.861 106.446C924.861 106.744 924.873 107.037 924.895 107.326C925.058 109.445 925.818 111.323 927.153 112.699C927.663 113.224 928.256 113.677 928.933 114.042H937.096C937.726 113.672 938.295 113.216 938.763 112.699H938.764C939.172 112.248 939.502 111.752 939.734 111.224C939.85 110.954 939.465 110.838 939.388 110.993C938.703 111.855 937.33 112.465 935.924 112.699H935.918C935.505 112.768 935.089 112.804 934.687 112.804C934.272 112.804 933.882 112.768 933.515 112.698H933.512C930.989 112.217 929.608 110.145 929.314 107.326H926.53L929.314 107.325C929.274 106.943 929.254 106.547 929.254 106.138C929.254 105.398 929.254 105.174 929.342 104.64L926.749 104.639H929.342C929.351 104.589 929.36 104.537 929.37 104.481C930.333 104.442 930.834 104.442 933.493 104.442C936.922 104.442 939.889 104.635 940.158 104.019C940.507 103.245 940.015 100.853 938.053 99.2646" fill="white"/>
<path fill-rule="evenodd" clip-rule="evenodd" d="M862.245 102.016C863.169 100.975 863.902 100.474 865.481 100.474C867.562 100.474 868.217 101.784 868.294 103.788C868.301 104.08 868.307 104.364 868.313 104.639L872.227 104.639C872.225 104.011 872.224 103.343 872.224 102.632C872.224 101.27 871.89 100.095 871.133 99.2659L864.172 99.2666C863.377 99.8653 862.632 100.632 861.937 101.476C861.898 101.514 861.629 101.476 861.59 101.322C861.402 100.572 861.012 99.8538 860.461 99.2659H853.61C852.887 99.8589 852.191 100.595 851.495 101.399C851.457 101.476 851.148 101.399 851.148 101.284C851.165 100.672 851.202 99.9398 851.246 99.2659C851.304 98.3704 851.374 97.5787 851.418 97.3143C851.418 97.1602 851.225 96.9296 850.994 97.122C850.146 97.7844 848.789 98.6283 847.423 99.2659H850.134L847.423 99.2666C846.802 99.557 846.178 99.8048 845.6 99.9729C845.446 100.012 845.33 100.282 845.639 100.32C846.564 100.397 846.833 100.551 847.18 100.86C847.505 101.153 847.61 101.692 847.636 104.639C847.64 105.181 847.642 105.805 847.642 106.523C847.642 106.802 847.641 107.069 847.641 107.325L851.547 107.325C851.543 107.068 851.538 106.801 851.534 106.523L851.495 104.639L851.457 102.786C851.457 102.323 851.572 102.131 851.881 101.784C852.729 100.782 853.653 100.359 855.117 100.359C857.12 100.359 857.853 101.438 857.93 103.865C857.937 104.129 857.944 104.387 857.951 104.639C857.977 105.635 857.994 106.527 858.004 107.325C858.039 110.109 857.981 111.751 857.864 112.699L862.041 112.698C861.96 111.775 861.902 110.156 861.876 107.325C861.868 106.53 861.863 105.638 861.861 104.639C861.86 104.232 861.86 103.807 861.86 103.363V103.018C861.86 102.593 861.937 102.362 862.245 102.016" fill="white"/>
<path fill-rule="evenodd" clip-rule="evenodd" d="M962.103 99.2655L962.209 87.7209C962.209 87.2967 962.247 85.447 962.401 84.9463C962.44 84.7922 962.247 84.5228 962.016 84.6769C960.475 85.64 957.894 86.8342 955.89 87.3737C955.697 87.4126 955.62 87.6814 955.929 87.7209C956.853 87.8362 957.392 87.9903 957.74 88.2215C958.111 88.4444 958.232 89.5648 958.24 99.2661C958.241 99.619 958.241 99.9827 958.241 100.358C958.241 101.971 958.238 103.39 958.231 104.638L962.055 104.639V104.481L962.103 99.2655Z" fill="white"/>
<path fill-rule="evenodd" clip-rule="evenodd" d="M874.295 100.05C875.181 100.204 875.45 100.435 875.797 100.782C876.123 101.108 876.228 101.681 876.253 104.639C876.258 105.182 876.26 105.806 876.26 106.523C876.26 106.801 876.259 107.069 876.258 107.325L880.104 107.324C880.107 107.068 880.109 106.801 880.113 106.523L880.137 104.639L880.19 100.666C880.19 100.183 880.195 99.7058 880.202 99.2656H875.722C875.198 99.4612 874.685 99.6153 874.218 99.7038C874.063 99.7421 873.986 99.9726 874.295 100.05" fill="white"/>
<path fill-rule="evenodd" clip-rule="evenodd" d="M877.955 93.2697C879.573 93.2697 880.459 92.2296 880.459 90.8417C880.459 89.455 879.457 88.4531 878.148 88.4531C876.644 88.4531 875.527 89.455 875.527 91.0735C875.527 92.3448 876.567 93.2697 877.955 93.2697" fill="white"/>
<path fill-rule="evenodd" clip-rule="evenodd" d="M966.062 98.5479C967.169 98.7129 967.701 98.9938 967.946 99.2658L971.288 99.2664C971.406 99.2065 971.513 99.1607 971.61 99.1263C972.381 98.8568 972.881 98.7409 973.806 98.6256C974.115 98.5868 973.96 98.2021 973.806 98.2021C972.804 98.2791 972.612 98.2791 970.686 98.2791C968.759 98.2791 967.063 98.2403 966.062 98.125C965.869 98.125 965.792 98.5097 966.062 98.5479" fill="white"/>
<path fill-rule="evenodd" clip-rule="evenodd" d="M857.12 97.8164C855.829 97.8164 854.689 98.3826 853.61 99.2667L860.461 99.2661C859.652 98.4024 858.495 97.8164 857.12 97.8164" fill="white"/>
<path fill-rule="evenodd" clip-rule="evenodd" d="M879.842 97.1222C878.922 97.7554 877.27 98.6891 875.722 99.2655H880.202C880.216 98.4394 880.241 97.7439 880.267 97.3917C880.267 97.2375 880.074 96.9681 879.842 97.1222" fill="white"/>
<path fill-rule="evenodd" clip-rule="evenodd" d="M927.064 98.5472C927.372 98.4702 927.257 98.0855 927.064 98.1243C926.062 98.2396 925.947 98.2784 924.02 98.2784C922.132 98.2784 920.822 98.2396 919.821 98.1243C919.628 98.0855 919.55 98.509 919.821 98.5472C921.222 98.7345 922.07 98.9466 922.343 99.2657H922.343C922.407 99.3409 922.44 99.4224 922.44 99.5109C922.44 100.031 921.932 101.689 920.857 104.639H921.836L920.857 104.64C920.566 105.439 920.233 106.333 919.858 107.325H919.857C919.563 108.101 919.243 108.939 918.896 109.837C918.622 108.944 918.354 108.107 918.097 107.326C917.772 106.342 917.464 105.447 917.18 104.639C916.152 101.715 915.442 99.9453 915.43 99.2657C915.429 99.1727 915.44 99.1001 915.466 99.0485C915.659 98.6632 916.931 98.7791 917.74 98.5472C918.009 98.4702 917.932 98.0855 917.74 98.1243C916.738 98.2396 914.735 98.2784 912.808 98.2784C910.843 98.2784 910.111 98.2396 909.07 98.1243C908.917 98.1243 908.763 98.4702 909.07 98.5472C910.072 98.7402 910.265 98.7402 910.805 99.0103C910.875 99.0485 910.957 99.1345 911.049 99.2657H911.05C911.516 99.9211 912.256 101.692 913.154 104.134C913.077 104.305 913 104.471 912.923 104.638H912.922C912.522 105.503 912.126 106.34 911.663 107.326C911.243 108.217 910.77 109.229 910.188 110.492C909.763 109.374 909.349 108.315 908.954 107.326H908.953C908.568 106.36 908.203 105.462 907.866 104.639C906.736 101.868 905.945 99.9593 905.891 99.2657H902.384L905.891 99.2651C905.883 99.1695 905.89 99.0969 905.911 99.0485C906.104 98.6632 906.797 98.7791 907.568 98.5472C907.876 98.4702 907.799 98.0855 907.568 98.1243C906.605 98.2396 904.947 98.2784 902.982 98.2784C901.079 98.2784 900.228 98.2402 899.204 98.1281L899.288 87.7205C899.288 87.2969 899.326 85.4472 899.48 84.9466C899.519 84.7925 899.326 84.5224 899.095 84.6772C897.554 85.6402 894.972 86.8345 892.969 87.374C892.776 87.4128 892.699 87.6816 893.007 87.7205C893.932 87.8364 894.471 87.9905 894.818 88.2218C895.204 88.453 895.319 89.1848 895.319 98.702C895.319 98.8562 895.126 98.8944 894.972 98.8562C893.817 98.3549 893.123 98.1243 891.466 98.1243C889.797 98.1243 888.234 98.5339 886.897 99.2657L889.475 99.2651C889.896 99.0963 890.378 99.0103 890.927 99.0103C891.483 99.0103 892.008 99.0963 892.491 99.2657C893.079 99.4708 893.603 99.7988 894.048 100.243C894.708 100.903 895.163 101.922 895.287 104.638L899.152 104.639L899.195 99.2657L899.201 98.5536C900.182 98.7409 900.716 98.7816 901.287 99.0103C901.362 99.0377 901.452 99.1243 901.556 99.2657C902.067 99.9606 902.917 101.968 903.962 104.639H906.705L903.962 104.64C904.289 105.477 904.636 106.378 904.997 107.326L905.773 107.326H904.997C905.638 109.01 906.327 110.838 907.038 112.699H907.038C907.208 113.145 907.38 113.594 907.553 114.042L908.375 114.043L907.553 114.043C907.686 114.388 907.819 114.733 907.952 115.077C908.03 115.308 908.954 115.385 909.11 115.038C909.239 114.714 909.375 114.382 909.516 114.043H909.517C909.701 113.602 909.894 113.152 910.093 112.699L908.564 112.698L910.093 112.698C910.903 110.842 911.803 108.924 912.576 107.327H912.577C912.931 106.594 913.259 105.928 913.54 105.368C913.757 105.976 913.982 106.634 914.214 107.326L916.322 107.326L914.214 107.327C914.77 108.986 915.363 110.844 915.976 112.699H916.338H915.976C916.124 113.147 916.273 113.596 916.424 114.042C916.541 114.389 916.658 114.735 916.777 115.077C916.854 115.308 917.817 115.385 917.932 115.038C918.054 114.706 918.175 114.374 918.296 114.043H918.297C918.463 113.592 918.628 113.144 918.794 112.699H918.794C919.5 110.803 920.196 108.984 920.857 107.326C921.238 106.372 921.607 105.471 921.959 104.639H921.959C923.101 101.943 924.073 99.9727 924.713 99.2657H922.88L924.713 99.2651C924.826 99.139 924.929 99.053 925.022 99.0103C925.6 98.7402 926.101 98.7791 927.064 98.5472" fill="white"/>
<path fill-rule="evenodd" clip-rule="evenodd" d="M867.601 97.9707C866.37 97.9707 865.227 98.472 864.172 99.2669L871.133 99.2662C870.39 98.4522 869.241 97.9707 867.601 97.9707" fill="white"/>
<mask id="mask1_16_18413" style="mask-type:alpha" maskUnits="userSpaceOnUse" x="829" y="56" width="164" height="101">
<path fill-rule="evenodd" clip-rule="evenodd" d="M829 156.298H992.134V56.3555H829V156.298Z" fill="white"/>
</mask>
<g mask="url(#mask1_16_18413)">
</g>
<path fill-rule="evenodd" clip-rule="evenodd" d="M656.514 111.12L663.65 95.4316C655.415 98.7832 653.14 104.046 656.514 111.12" fill="white" fill-opacity="0.25"/>
<path fill-rule="evenodd" clip-rule="evenodd" d="M671.467 93.9589C666.079 99.7596 661.442 105.99 658.156 112.991C658.486 113.388 658.882 113.741 659.328 114.049C662.248 116.056 667.348 116.06 670.618 113.444C674.223 110.382 675.365 103.576 675.569 95.3424C675.586 94.6819 675.597 94.0137 675.602 93.3354C675.521 91.6035 672.888 92.0602 671.467 93.9589" fill="white" fill-opacity="0.25"/>
<path fill-rule="evenodd" clip-rule="evenodd" d="M681.429 105.824C682.964 99.9994 690.55 97.3357 691.296 100.878C692.225 104.887 686.917 106.404 681.429 105.824M694.929 99.6764C693.013 92.0267 678.403 97.2847 677.629 105.697C676.173 113.547 682.096 117.545 691.276 114.115L691.696 110.535C688.316 112.979 682.368 113.685 681.306 108.71C688.948 108.492 696.237 107.327 694.929 99.6764" fill="white" fill-opacity="0.25"/>
<path fill-rule="evenodd" clip-rule="evenodd" d="M709.156 95.9711C704.918 95.8647 702.619 97.7577 701.254 100.609L701.907 96.5914H698.152L694.951 115.238H698.609C699.328 111.025 699.849 106.617 702.135 102.991C703.77 100.532 706.61 98.78 709.059 99.2035C710.332 99.4972 711.04 100.242 710.658 102.893L708.47 115.368H712.194L714.447 103.285C715.164 97.9303 712.38 96.1762 709.156 95.9711" fill="white" fill-opacity="0.25"/>
<path fill-rule="evenodd" clip-rule="evenodd" d="M729.405 96.4414L722.214 109.314L719.39 96.542H715.727L720.365 115.632H721.775L733.303 96.4414H729.405Z" fill="white" fill-opacity="0.25"/>
<path fill-rule="evenodd" clip-rule="evenodd" d="M746.48 99.5671C746.413 101.545 745.922 103.777 745.236 106.021C744.697 108.272 741.807 112.844 737.941 112.675C736.294 112.849 731.684 110.438 735.759 103.231C737.707 100.273 742.344 97.9543 746.48 99.5671M733.641 100.475C728.666 106.054 730.011 114.322 736.195 115.665C740.329 116.137 743.522 113.952 744.867 110.793L743.891 115.229H747.453L750.648 97.5512C744.604 94.7187 738.882 95.148 733.641 100.475" fill="white" fill-opacity="0.25"/>
<path fill-rule="evenodd" clip-rule="evenodd" d="M754.792 109.485L756.63 99.5605H762.513L763.753 96.528H757.045L758.193 90.6445L753.918 92.7579L751.116 110.497C750.932 115.415 755.032 115.892 758.514 115.138L759.204 112.197C755.542 113.228 754.218 112.087 754.792 109.485" fill="white" fill-opacity="0.25"/>
<path fill-rule="evenodd" clip-rule="evenodd" d="M777.755 105.931C776.949 109.613 773.535 112.603 770.135 112.608C766.738 112.616 764.633 109.633 765.439 105.951C766.245 102.271 769.658 99.2784 773.058 99.2727C776.456 99.2676 778.56 102.25 777.755 105.931M773.239 95.7988C767.701 95.7988 762.465 100.284 761.555 105.812C760.644 111.341 764.399 115.826 769.937 115.826C775.476 115.826 780.711 111.341 781.621 105.812C782.533 100.284 778.776 95.7988 773.239 95.7988" fill="white" fill-opacity="0.25"/>
<path fill-rule="evenodd" clip-rule="evenodd" d="M785.793 97.332H783.107L782.992 97.9136H784.037L783.482 100.836L784.113 100.832L784.667 97.9136H785.678L785.793 97.332Z" fill="white" fill-opacity="0.25"/>
<path fill-rule="evenodd" clip-rule="evenodd" d="M789.585 97.3145L787.749 100.079L786.915 97.3514L786.359 97.3399L785.555 100.842L786.085 100.844L786.669 98.5323L787.357 100.91H787.867L789.45 98.5673L789.26 100.853H789.815L790.077 97.3164L789.585 97.3145Z" fill="white" fill-opacity="0.25"/>
<mask id="mask2_16_18413" style="mask-type:alpha" maskUnits="userSpaceOnUse" x="638" y="56" width="164" height="100">
<path fill-rule="evenodd" clip-rule="evenodd" d="M638 155.943H801.134V56H638V155.943Z" fill="white"/>
</mask>
<g mask="url(#mask2_16_18413)">
</g>
<path fill-rule="evenodd" clip-rule="evenodd" d="M510.364 101.251C510.94 100.755 511.369 100.09 511.573 99.3571C511.8 98.5463 511.782 97.6807 511.605 96.8622C511.429 96.0667 510.997 95.3323 510.387 94.7934C509.748 94.2176 508.963 93.8316 508.161 93.5342C507.229 93.196 506.296 92.8546 505.362 92.5157C504.919 92.3456 504.468 92.1597 504.103 91.8482C503.823 91.6138 503.624 91.2845 503.562 90.924C503.492 90.5176 503.515 90.0781 503.717 89.71C503.871 89.4189 504.12 89.189 504.405 89.0278C504.841 88.7788 505.343 88.6711 505.84 88.6291C506.879 88.5533 507.934 88.7208 508.895 89.1227C509.624 89.4183 510.29 89.8456 510.915 90.3189C510.916 89.3928 510.916 88.4667 510.915 87.5399C509.915 86.8896 508.759 86.5004 507.581 86.3393C506.525 86.2004 505.438 86.2081 504.401 86.473C503.58 86.6813 502.788 87.0539 502.161 87.631C501.47 88.2558 501.031 89.1431 500.939 90.0692C500.848 91.0558 500.996 92.0991 501.534 92.9476C501.933 93.5788 502.524 94.0667 503.171 94.4297C504.022 94.917 504.966 95.1985 505.881 95.5374C506.634 95.8176 507.413 96.0488 508.11 96.4597C508.509 96.6941 508.871 97.0355 509.02 97.4845C509.166 97.9367 509.169 98.445 508.994 98.8896C508.837 99.2966 508.507 99.6163 508.124 99.8151C507.448 100.164 506.668 100.239 505.919 100.227C504.144 100.206 502.42 99.5049 501.047 98.3972C501.044 99.3393 501.048 100.281 501.045 101.222C502.189 102.007 503.561 102.401 504.928 102.555C506.024 102.671 507.144 102.632 508.212 102.349C508.994 102.139 509.75 101.786 510.364 101.251" fill="white" fill-opacity="0.25"/>
<path fill-rule="evenodd" clip-rule="evenodd" d="M574.288 101.529C574.911 101.099 575.418 100.495 575.709 99.7942C576.056 98.9738 576.089 98.0547 575.961 97.1834C575.841 96.3847 575.493 95.6159 574.932 95.0311C574.324 94.3834 573.527 93.9515 572.711 93.6235C571.795 93.2783 570.872 92.9528 569.953 92.614C569.393 92.4101 568.811 92.2076 568.358 91.8069C567.773 91.2961 567.664 90.3713 568.011 89.6968C568.344 89.0783 569.049 88.7859 569.71 88.6719C570.946 88.4796 572.233 88.6827 573.372 89.1923C574.031 89.4827 574.635 89.8783 575.209 90.3089C575.214 89.3847 575.209 88.4598 575.211 87.5356C573.88 86.6668 572.279 86.2604 570.698 86.2464C569.428 86.2165 568.118 86.477 567.038 87.1687C566.363 87.6018 565.803 88.2305 565.502 88.9783C565.254 89.5751 565.174 90.2324 565.213 90.8745C565.246 91.5821 565.426 92.2929 565.803 92.8993C566.18 93.5127 566.74 93.9948 567.356 94.3585C568.025 94.7598 568.762 95.0248 569.495 95.284C570.251 95.5655 571.022 95.8101 571.765 96.1273C572.219 96.3331 572.682 96.5636 573.012 96.9496C573.388 97.3847 573.481 98.0031 573.381 98.5554C573.3 99.0267 573 99.4452 572.596 99.698C572.076 100.033 571.452 100.157 570.844 100.204C570.244 100.238 569.64 100.213 569.049 100.106C567.684 99.8719 566.406 99.2445 565.331 98.3815C565.326 99.3229 565.332 100.264 565.328 101.206C566.171 101.794 567.155 102.153 568.154 102.373C569.357 102.627 570.609 102.687 571.825 102.487C572.697 102.339 573.558 102.042 574.288 101.529" fill="white" fill-opacity="0.25"/>
<path fill-rule="evenodd" clip-rule="evenodd" d="M591.436 95.4391C590.929 94.7264 590.185 94.2187 589.402 93.8506C588.547 93.4614 587.647 93.185 586.77 92.8512C586.022 92.5588 585.208 92.362 584.573 91.8461C583.989 91.378 583.845 90.5098 584.115 89.8346C584.257 89.485 584.535 89.206 584.861 89.0219C585.309 88.7659 585.826 88.6557 586.338 88.6162C587.345 88.5487 588.368 88.7111 589.303 89.0907C590.049 89.3907 590.734 89.8206 591.37 90.3073C591.37 89.4136 591.37 88.5194 591.37 87.6251C591.376 87.5639 591.356 87.5047 591.298 87.4805C589.911 86.6092 588.253 86.2206 586.624 86.2474C585.826 86.2436 585.026 86.376 584.275 86.6442C583.44 86.9467 582.66 87.4499 582.129 88.1697C581.656 88.7977 581.407 89.5773 581.378 90.3601C581.348 91.2009 581.491 92.069 581.917 92.8053C582.308 93.4913 582.929 94.0194 583.609 94.4079C584.456 94.8983 585.399 95.1792 586.312 95.5181C587.08 95.8028 587.876 96.0385 588.585 96.4595C588.973 96.6888 589.323 97.02 589.474 97.455C589.629 97.9149 589.631 98.4334 589.454 98.8881C589.303 99.2716 588.997 99.576 588.642 99.7754C587.957 100.151 587.154 100.23 586.385 100.217C584.606 100.2 582.877 99.4939 581.501 98.3824C581.508 99.3264 581.484 100.273 581.513 101.216C582.268 101.746 583.146 102.082 584.036 102.308C585.004 102.545 586.006 102.643 587.001 102.595C587.893 102.549 588.787 102.377 589.605 102.011C590.368 101.673 591.063 101.145 591.529 100.445C591.993 99.7544 592.212 98.9143 592.196 98.0862C592.206 97.1576 591.988 96.1996 591.436 95.4391" fill="white" fill-opacity="0.25"/>
<path fill-rule="evenodd" clip-rule="evenodd" d="M542.386 102.62C542.388 97.2476 542.387 91.8762 542.386 86.5049C541.523 86.5055 540.659 86.5055 539.796 86.5055C539.793 89.875 539.798 93.245 539.793 96.6151C536.171 93.1648 532.556 89.7075 528.936 86.2559C528.937 91.6234 528.934 96.9909 528.937 102.358C529.799 102.36 530.661 102.355 531.523 102.36C531.534 98.9342 531.521 95.5075 531.53 92.082C532.716 93.2138 533.884 94.3673 535.065 95.5068C537.504 97.8782 539.947 100.246 542.386 102.62" fill="white" fill-opacity="0.25"/>
<path fill-rule="evenodd" clip-rule="evenodd" d="M473.652 98.2236C473.556 98.7644 473.233 99.2605 472.77 99.558C472.226 99.9147 471.559 100.019 470.919 100.026C469.792 100.026 468.665 100.027 467.538 100.025C467.538 98.4828 467.538 96.9402 467.538 95.3981C468.665 95.3962 469.791 95.3988 470.918 95.3968C471.363 95.3898 471.813 95.4453 472.235 95.5917C472.698 95.7491 473.123 96.0465 473.379 96.4695C473.697 96.9892 473.759 97.6325 473.652 98.2236M469.882 88.837C470.433 88.8382 470.99 88.83 471.533 88.9421C472.014 89.0402 472.499 89.2446 472.817 89.6312C473.179 90.0631 473.269 90.6561 473.23 91.2019C473.199 91.6988 473.01 92.2032 472.629 92.5376C472.111 92.993 471.397 93.1242 470.728 93.1567C469.666 93.1656 468.605 93.1529 467.544 93.1631C467.531 91.7217 467.542 90.2796 467.538 88.8376C468.32 88.8363 469.101 88.8376 469.882 88.837M476.037 96.3077C475.698 95.4898 475.071 94.7911 474.281 94.386C474.132 94.3039 473.965 94.258 473.823 94.1644C474.688 93.8255 475.332 93.0497 475.614 92.1765C475.88 91.3631 475.879 90.4746 475.69 89.6446C475.517 88.9058 475.115 88.2198 474.537 87.7261C473.828 87.1102 472.915 86.7835 472 86.6293C471.036 86.4612 470.055 86.514 469.081 86.5051C467.695 86.5051 466.31 86.5051 464.924 86.5058C464.923 91.7892 464.923 97.0733 464.924 102.357C466.765 102.358 468.605 102.357 470.445 102.358C471.282 102.371 472.128 102.343 472.944 102.137C473.891 101.906 474.81 101.433 475.43 100.663C475.979 99.9917 476.261 99.1332 476.321 98.2752C476.379 97.6089 476.301 96.9249 476.037 96.3077" fill="white" fill-opacity="0.25"/>
<path fill-rule="evenodd" clip-rule="evenodd" d="M491.446 102.022C492.49 101.56 493.377 100.751 493.918 99.7441C494.545 98.5938 494.766 97.2613 494.745 95.9625C494.745 92.8103 494.745 89.6581 494.745 86.5065C493.85 86.5059 492.955 86.5059 492.061 86.5065C492.059 89.5339 492.06 92.5613 492.06 95.588C492.069 96.3721 492.006 97.167 491.764 97.9167C491.558 98.5473 491.202 99.1498 490.663 99.5504C490.02 100.041 489.189 100.209 488.395 100.205C487.613 100.206 486.802 100.035 486.167 99.5575C485.523 99.0804 485.14 98.332 484.957 97.5664C484.719 96.6269 484.759 95.6504 484.757 94.6899C484.757 91.9625 484.758 89.2339 484.757 86.5059C483.862 86.5059 482.967 86.5059 482.073 86.5065C482.071 89.6422 482.073 92.7772 482.072 95.9129C482.062 96.8039 482.157 97.702 482.415 98.5562C482.644 99.3046 483.003 100.019 483.51 100.617C483.935 101.126 484.466 101.545 485.052 101.857C485.85 102.284 486.745 102.507 487.644 102.584C488.929 102.687 490.26 102.552 491.446 102.022" fill="white" fill-opacity="0.25"/>
<path fill-rule="evenodd" clip-rule="evenodd" d="M518.623 86.5039C518.613 91.7886 518.62 97.074 518.62 102.359C519.516 102.354 520.413 102.368 521.309 102.352C521.297 97.0708 521.309 91.788 521.303 86.5065C520.409 86.5045 519.516 86.5096 518.623 86.5039" fill="white" fill-opacity="0.25"/>
<path fill-rule="evenodd" clip-rule="evenodd" d="M559.109 99.944C556.794 99.9446 554.478 99.9446 552.163 99.944C552.161 98.3115 552.161 96.6784 552.163 95.0453C554.239 95.0446 556.315 95.0453 558.391 95.0453C558.393 94.2593 558.393 93.4746 558.391 92.6892C556.315 92.6886 554.239 92.6905 552.163 92.6886C552.161 91.4249 552.161 90.1612 552.163 88.8969C554.478 88.8962 556.795 88.8975 559.11 88.8969C559.111 88.0994 559.111 87.3026 559.11 86.5058C555.916 86.5032 552.723 86.5115 549.53 86.502C549.516 87.5039 549.528 88.5064 549.523 89.509C549.527 93.7937 549.517 98.0777 549.528 102.361C552.723 102.355 555.916 102.36 559.11 102.359C559.111 101.554 559.112 100.749 559.109 99.944" fill="white" fill-opacity="0.25"/>
<path fill-rule="evenodd" clip-rule="evenodd" d="M496.607 110.581C496.604 113.896 496.609 117.211 496.604 120.526C493.007 117.129 489.414 113.726 485.821 110.326C485.814 115.608 485.819 120.891 485.818 126.173C486.677 126.175 487.537 126.173 488.396 126.173C488.397 122.801 488.396 119.428 488.396 116.054C491.991 119.508 495.575 122.973 499.174 126.422C499.172 121.142 499.174 115.861 499.173 110.581C498.317 110.58 497.462 110.58 496.607 110.581" fill="white" fill-opacity="0.25"/>
<path fill-rule="evenodd" clip-rule="evenodd" d="M515.186 118.642C514.572 118.121 513.839 117.764 513.088 117.489C512.144 117.146 511.197 116.808 510.252 116.464C509.779 116.282 509.292 116.08 508.928 115.714C508.457 115.261 508.359 114.518 508.563 113.917C508.689 113.561 508.959 113.268 509.281 113.079C509.711 112.821 510.21 112.708 510.705 112.658C511.745 112.575 512.805 112.733 513.772 113.131C514.503 113.424 515.174 113.85 515.803 114.322C515.804 113.408 515.805 112.495 515.802 111.58C514.546 110.776 513.058 110.38 511.576 110.324C510.466 110.273 509.329 110.424 508.312 110.889C507.605 111.211 506.961 111.699 506.523 112.345C506.085 112.98 505.869 113.756 505.873 114.524C505.859 115.336 506.03 116.167 506.464 116.861C506.893 117.552 507.553 118.07 508.266 118.445C509.056 118.87 509.92 119.129 510.759 119.439C511.495 119.709 512.253 119.937 512.942 120.321C513.342 120.545 513.723 120.863 513.893 121.303C514.055 121.724 514.068 122.201 513.937 122.631C513.805 123.063 513.477 123.415 513.086 123.629C512.412 123.996 511.624 124.077 510.869 124.067C509.1 124.053 507.374 123.364 506.006 122.261C506.002 123.187 506.01 124.115 506.001 125.042C506.366 125.312 506.779 125.512 507.194 125.693C508.165 126.098 509.206 126.319 510.253 126.391C511.264 126.452 512.293 126.398 513.268 126.11C514.051 125.882 514.804 125.507 515.396 124.94C515.959 124.414 516.355 123.714 516.514 122.96C516.679 122.18 516.639 121.361 516.44 120.591C516.239 119.829 515.787 119.146 515.186 118.642" fill="white" fill-opacity="0.25"/>
<path fill-rule="evenodd" clip-rule="evenodd" d="M475.525 126.173C476.419 126.174 477.314 126.174 478.209 126.173V110.581C477.314 110.58 476.419 110.58 475.525 110.58C475.523 115.778 475.523 120.976 475.525 126.173" fill="white" fill-opacity="0.25"/>
<path fill-rule="evenodd" clip-rule="evenodd" d="M523.495 126.173C524.386 126.173 525.277 126.175 526.168 126.173C526.168 120.976 526.168 115.778 526.168 110.581C525.277 110.58 524.386 110.581 523.496 110.58C523.494 115.778 523.495 120.976 523.495 126.173" fill="white" fill-opacity="0.25"/>
<path fill-rule="evenodd" clip-rule="evenodd" d="M544.662 120.332C544.438 121.175 544.014 121.981 543.372 122.579C542.648 123.267 541.674 123.643 540.691 123.758C540.175 123.825 539.655 123.803 539.137 123.807C538.292 123.807 537.448 123.808 536.603 123.807C536.604 120.179 536.604 116.552 536.603 112.925C537.401 112.923 538.199 112.925 538.996 112.924C539.513 112.928 540.032 112.907 540.548 112.96C541.402 113.043 542.256 113.304 542.956 113.812C543.566 114.244 544.041 114.853 544.35 115.532C544.672 116.235 544.83 117.004 544.883 117.774C544.939 118.631 544.883 119.5 544.662 120.332M544.66 111.969C543.353 111.02 541.723 110.602 540.123 110.581C538.062 110.58 536.002 110.58 533.942 110.581C533.941 115.779 533.942 120.976 533.942 126.174C536.004 126.175 538.065 126.174 540.127 126.175C541.181 126.16 542.239 125.977 543.218 125.581C544.47 125.08 545.573 124.196 546.307 123.062C547.197 121.714 547.567 120.082 547.581 118.482C547.591 117.363 547.435 116.233 547.051 115.179C546.591 113.907 545.766 112.757 544.66 111.969" fill="white" fill-opacity="0.25"/>
<path fill-rule="evenodd" clip-rule="evenodd" d="M562.713 110.578C559.538 110.581 556.362 110.578 553.187 110.579C553.186 115.777 553.186 120.974 553.187 126.172C556.362 126.173 559.539 126.172 562.714 126.172C562.715 125.383 562.715 124.595 562.714 123.806C560.414 123.806 558.113 123.806 555.813 123.806V118.977C557.875 118.972 559.938 118.984 561.999 118.971C561.992 118.204 561.998 117.436 561.996 116.669C559.936 116.669 557.876 116.667 555.816 116.669C555.809 115.421 555.814 114.172 555.814 112.923C558.113 112.923 560.414 112.923 562.714 112.923C562.714 112.141 562.717 111.36 562.713 110.578" fill="white" fill-opacity="0.25"/>
<path fill-rule="evenodd" clip-rule="evenodd" d="M573.315 117.635C573.315 116.049 573.315 114.464 573.315 112.877C574.061 112.876 574.807 112.877 575.553 112.877C576.129 112.881 576.715 112.844 577.278 112.995C577.836 113.133 578.367 113.45 578.681 113.941C579.016 114.457 579.098 115.102 579.008 115.701C578.936 116.176 578.715 116.632 578.358 116.957C577.833 117.44 577.098 117.623 576.4 117.635H573.315ZM579.511 119.328C580.147 119.039 580.701 118.566 581.056 117.963C581.531 117.159 581.686 116.206 581.678 115.285C581.694 114.383 581.501 113.459 581.021 112.688C580.619 112.032 580.01 111.514 579.319 111.185C578.444 110.755 577.46 110.599 576.493 110.58C574.547 110.58 572.6 110.581 570.654 110.58C570.652 115.778 570.653 120.976 570.654 126.173C571.539 126.175 572.425 126.171 573.31 126.176C573.322 124.067 573.311 121.958 573.315 119.85C573.938 119.849 574.561 119.85 575.185 119.85C577.01 121.955 578.826 124.067 580.65 126.173C581.661 126.173 582.673 126.175 583.685 126.172C581.809 124.031 579.928 121.894 578.05 119.755C578.552 119.672 579.049 119.545 579.511 119.328V119.328Z" fill="white" fill-opacity="0.25"/>
<mask id="mask3_16_18413" style="mask-type:alpha" maskUnits="userSpaceOnUse" x="447" y="56" width="164" height="101">
<path fill-rule="evenodd" clip-rule="evenodd" d="M447 156.298H610.134V56.3555H447V156.298Z" fill="white"/>
</mask>
<g mask="url(#mask3_16_18413)">
</g>
<path fill-rule="evenodd" clip-rule="evenodd" d="M330.301 98.5857C330.301 96.808 330.593 95.5302 331.179 94.7538C331.764 93.978 332.709 93.5895 334.014 93.5895C335.163 93.5895 335.961 93.9436 336.412 94.6525C336.861 95.3615 337.086 96.4366 337.086 97.8767V107.733H341.88V96.999C341.88 95.9188 341.784 94.9347 341.593 94.0449C341.402 93.1564 341.07 92.4029 340.597 91.7831C340.125 91.1646 339.477 90.6812 338.656 90.3322C337.834 89.9831 336.782 89.8086 335.5 89.8086C334.487 89.8086 333.496 90.0398 332.529 90.5003C331.561 90.9621 330.774 91.699 330.166 92.7118H330.065V90.2812H325.508V107.733H330.301V98.5857Z" fill="white" fill-opacity="0.25"/>
<path fill-rule="evenodd" clip-rule="evenodd" d="M347.5 95.9863C347.623 95.5595 347.838 95.1538 348.142 94.771C348.445 94.3888 348.851 94.0685 349.357 93.8092C349.863 93.5506 350.498 93.4207 351.265 93.4207C352.434 93.4207 353.306 93.736 353.88 94.3666C354.454 94.9965 354.853 95.9188 355.079 97.1341H347.28C347.302 96.7965 347.377 96.4143 347.5 95.9863M359.568 102.333H355.349C355.191 102.874 354.763 103.386 354.066 103.868C353.368 104.353 352.535 104.595 351.568 104.595C350.218 104.595 349.182 104.246 348.463 103.548C347.742 102.851 347.349 101.725 347.28 100.172H359.872C359.961 98.822 359.85 97.5283 359.535 96.2901C359.219 95.0532 358.708 93.95 357.998 92.9818C357.29 92.015 356.384 91.2436 355.281 90.6697C354.178 90.0959 352.884 89.8086 351.399 89.8086C350.071 89.8086 348.862 90.0449 347.77 90.5181C346.679 90.9908 345.739 91.6373 344.952 92.4589C344.163 93.2806 343.556 94.2538 343.129 95.3787C342.701 96.5041 342.487 97.7194 342.487 99.0252C342.487 100.375 342.695 101.613 343.111 102.738C343.528 103.863 344.118 104.831 344.884 105.641C345.649 106.451 346.584 107.076 347.686 107.514C348.788 107.954 350.026 108.173 351.399 108.173C353.379 108.173 355.067 107.723 356.463 106.823C357.858 105.923 358.893 104.426 359.568 102.333" fill="white" fill-opacity="0.25"/>
<path fill-rule="evenodd" clip-rule="evenodd" d="M385.966 90.2812H381.038L377.831 102.097H377.763L374.792 90.2812H370.134L367.231 102.13H367.163L363.956 90.2812H358.892L364.429 107.733H369.392L372.362 96.0201H372.429L375.535 107.733H380.464L385.966 90.2812Z" fill="white" fill-opacity="0.25"/>
<path fill-rule="evenodd" clip-rule="evenodd" d="M385.831 97.3532C386.146 97.8825 386.562 98.3213 387.08 98.6697C387.598 99.0194 388.189 99.3003 388.852 99.5137C389.516 99.7283 390.197 99.9137 390.895 100.071C392.605 100.431 393.938 100.791 394.895 101.151C395.851 101.511 396.329 102.051 396.329 102.771C396.329 103.199 396.229 103.554 396.026 103.835C395.824 104.116 395.57 104.341 395.266 104.51C394.963 104.679 394.626 104.803 394.254 104.881C393.883 104.96 393.528 104.999 393.191 104.999C392.718 104.999 392.262 104.944 391.823 104.831C391.384 104.718 390.996 104.544 390.658 104.307C390.321 104.071 390.045 103.767 389.831 103.396C389.617 103.025 389.511 102.581 389.511 102.063H384.954C384.998 103.233 385.263 104.206 385.747 104.982C386.231 105.759 386.849 106.383 387.603 106.856C388.357 107.329 389.218 107.667 390.186 107.868C391.153 108.072 392.143 108.173 393.157 108.173C394.147 108.173 395.12 108.077 396.077 107.886C397.033 107.695 397.882 107.362 398.625 106.89C399.368 106.417 399.97 105.793 400.431 105.016C400.892 104.24 401.124 103.278 401.124 102.13C401.124 101.32 400.966 100.639 400.651 100.088C400.335 99.5366 399.919 99.0748 399.402 98.7035C398.884 98.3322 398.292 98.0347 397.629 97.8086C396.965 97.5844 396.284 97.3927 395.587 97.2353C394.912 97.078 394.248 96.9315 393.595 96.7965C392.943 96.6615 392.364 96.5092 391.857 96.3404C391.35 96.1723 390.94 95.9525 390.624 95.6825C390.309 95.4124 390.152 95.0634 390.152 94.636C390.152 94.2761 390.242 93.9895 390.422 93.7748C390.602 93.5615 390.822 93.3984 391.08 93.2857C391.339 93.1736 391.626 93.0997 391.942 93.0659C392.256 93.0322 392.549 93.0156 392.819 93.0156C393.674 93.0156 394.417 93.1793 395.047 93.5048C395.677 93.8315 396.026 94.4564 396.094 95.3787H400.651C400.561 94.2984 400.284 93.4035 399.824 92.6946C399.362 91.9857 398.782 91.4175 398.085 90.9901C397.387 90.5627 396.594 90.2589 395.705 90.0787C394.815 89.8984 393.899 89.8086 392.954 89.8086C392.008 89.8086 391.085 89.8933 390.186 90.0615C389.285 90.2302 388.475 90.5232 387.756 90.9392C387.035 91.3564 386.456 91.9245 386.017 92.6443C385.578 93.3646 385.359 94.2876 385.359 95.4124C385.359 96.178 385.516 96.8245 385.831 97.3532" fill="white" fill-opacity="0.25"/>
<mask id="mask4_16_18413" style="mask-type:alpha" maskUnits="userSpaceOnUse" x="256" y="56" width="164" height="101">
<path fill-rule="evenodd" clip-rule="evenodd" d="M256 156.298H419.134V56.3555H256V156.298Z" fill="white"/>
</mask>
<g mask="url(#mask4_16_18413)">
<path fill-rule="evenodd" clip-rule="evenodd" d="M322.319 126.219H324.727V123.857H322.319V126.219Z" fill="white" fill-opacity="0.25"/>
<path fill-rule="evenodd" clip-rule="evenodd" d="M333.254 123.401C332.791 123.88 332.133 124.119 331.277 124.119C330.722 124.119 330.252 123.993 329.866 123.741C329.479 123.489 329.173 123.166 328.947 122.771C328.72 122.377 328.556 121.936 328.456 121.449C328.354 120.962 328.304 120.483 328.304 120.013C328.304 119.526 328.354 119.035 328.456 118.539C328.556 118.044 328.728 117.591 328.971 117.179C329.214 116.767 329.529 116.432 329.916 116.171C330.302 115.911 330.78 115.781 331.352 115.781C332.88 115.781 333.761 116.529 333.997 118.023H337.498C337.448 117.183 337.247 116.457 336.894 115.845C336.541 115.231 336.083 114.719 335.521 114.308C334.958 113.896 334.321 113.59 333.607 113.388C332.893 113.187 332.15 113.086 331.377 113.086C330.32 113.086 329.379 113.262 328.556 113.615C327.733 113.967 327.036 114.459 326.465 115.088C325.894 115.718 325.462 116.466 325.168 117.331C324.874 118.195 324.727 119.131 324.727 120.139C324.727 121.113 324.886 122.007 325.205 122.822C325.524 123.636 325.969 124.338 326.541 124.925C327.111 125.513 327.804 125.969 328.619 126.298C329.433 126.625 330.328 126.788 331.301 126.788C333.031 126.788 334.45 126.335 335.558 125.429C336.666 124.522 337.338 123.204 337.573 121.474H334.122C334.005 122.28 333.715 122.922 333.254 123.401" fill="white" fill-opacity="0.25"/>
<path fill-rule="evenodd" clip-rule="evenodd" d="M347.296 121.487C347.196 121.981 347.023 122.427 346.78 122.822C346.536 123.217 346.209 123.531 345.798 123.766C345.385 124.001 344.878 124.119 344.274 124.119C343.67 124.119 343.166 124.001 342.763 123.766C342.359 123.531 342.035 123.217 341.792 122.822C341.549 122.427 341.377 121.981 341.277 121.487C341.175 120.992 341.126 120.483 341.126 119.962C341.126 119.442 341.175 118.929 341.277 118.426C341.377 117.922 341.549 117.477 341.792 117.091C342.035 116.704 342.359 116.39 342.763 116.146C343.166 115.902 343.67 115.781 344.274 115.781C344.878 115.781 345.385 115.902 345.798 116.146C346.209 116.39 346.536 116.704 346.78 117.091C347.023 117.477 347.196 117.922 347.296 118.426C347.398 118.929 347.447 119.442 347.447 119.962C347.447 120.483 347.398 120.992 347.296 121.487M349.186 114.962C348.598 114.366 347.889 113.905 347.057 113.577C346.226 113.25 345.298 113.086 344.274 113.086C343.249 113.086 342.325 113.25 341.502 113.577C340.68 113.905 339.975 114.366 339.387 114.962C338.798 115.558 338.345 116.281 338.026 117.129C337.707 117.976 337.548 118.922 337.548 119.962C337.548 121.004 337.707 121.944 338.026 122.784C338.345 123.624 338.798 124.341 339.387 124.938C339.975 125.534 340.68 125.992 341.502 126.31C342.325 126.629 343.249 126.788 344.274 126.788C345.298 126.788 346.226 126.629 347.057 126.31C347.889 125.992 348.598 125.534 349.186 124.938C349.773 124.341 350.227 123.624 350.547 122.784C350.865 121.944 351.025 121.004 351.025 119.962C351.025 118.922 350.865 117.976 350.547 117.129C350.227 116.281 349.773 115.558 349.186 114.962" fill="white" fill-opacity="0.25"/>
<path fill-rule="evenodd" clip-rule="evenodd" d="M370.371 114.144C369.95 113.774 369.446 113.506 368.859 113.338C368.271 113.171 367.633 113.086 366.944 113.086C366.037 113.086 365.253 113.304 364.59 113.741C363.925 114.178 363.402 114.682 363.015 115.252C362.662 114.446 362.146 113.884 361.465 113.564C360.785 113.246 360.034 113.086 359.211 113.086C358.355 113.086 357.594 113.271 356.932 113.64C356.268 114.01 355.701 114.53 355.231 115.202H355.181V113.439H351.806V126.461H355.383V118.905C355.383 118.267 355.474 117.75 355.659 117.355C355.844 116.961 356.067 116.659 356.327 116.448C356.587 116.239 356.856 116.095 357.134 116.02C357.41 115.945 357.633 115.908 357.801 115.908C358.371 115.908 358.804 116.004 359.098 116.197C359.392 116.39 359.602 116.646 359.728 116.966C359.853 117.285 359.925 117.633 359.942 118.01C359.958 118.388 359.967 118.771 359.967 119.157V126.461H363.544V119.207C363.544 118.804 363.572 118.405 363.632 118.01C363.691 117.616 363.808 117.263 363.985 116.953C364.161 116.642 364.404 116.39 364.715 116.197C365.025 116.004 365.434 115.908 365.937 115.908C366.441 115.908 366.839 115.991 367.134 116.159C367.427 116.327 367.65 116.554 367.801 116.839C367.952 117.125 368.044 117.46 368.078 117.846C368.111 118.233 368.128 118.645 368.128 119.081V126.461H371.706V117.746C371.706 116.906 371.587 116.188 371.353 115.592C371.117 114.996 370.79 114.513 370.371 114.144" fill="white" fill-opacity="0.25"/>
<path fill-rule="evenodd" clip-rule="evenodd" d="M372.636 126.46H375.017V124.125H372.636V126.46Z" fill="white" fill-opacity="0.25"/>
<path fill-rule="evenodd" clip-rule="evenodd" d="M384.269 121.424C384.269 121.625 384.248 121.894 384.206 122.231C384.164 122.566 384.05 122.897 383.866 123.225C383.68 123.552 383.395 123.834 383.009 124.068C382.623 124.304 382.078 124.421 381.373 124.421C381.086 124.421 380.809 124.395 380.541 124.346C380.273 124.295 380.037 124.207 379.836 124.081C379.634 123.955 379.474 123.783 379.357 123.565C379.239 123.347 379.18 123.078 379.18 122.759C379.18 122.423 379.239 122.146 379.357 121.928C379.474 121.71 379.63 121.529 379.823 121.386C380.016 121.244 380.243 121.131 380.503 121.046C380.763 120.962 381.028 120.895 381.297 120.845C381.582 120.794 381.867 120.752 382.153 120.719C382.438 120.685 382.711 120.643 382.971 120.592C383.232 120.542 383.476 120.48 383.701 120.403C383.929 120.328 384.118 120.224 384.269 120.088V121.424ZM387.846 123.565V116.789C387.846 116 387.67 115.366 387.316 114.887C386.964 114.408 386.511 114.035 385.957 113.766C385.402 113.498 384.788 113.317 384.118 113.225C383.446 113.132 382.783 113.086 382.127 113.086C381.405 113.086 380.688 113.157 379.974 113.3C379.26 113.443 378.618 113.683 378.046 114.018C377.476 114.354 377.006 114.799 376.637 115.353C376.267 115.908 376.057 116.604 376.006 117.444H379.584C379.65 116.739 379.886 116.235 380.288 115.932C380.692 115.63 381.246 115.48 381.951 115.48C382.27 115.48 382.569 115.501 382.846 115.543C383.123 115.584 383.366 115.668 383.576 115.794C383.786 115.92 383.954 116.096 384.08 116.323C384.206 116.55 384.269 116.856 384.269 117.243C384.285 117.612 384.176 117.894 383.941 118.087C383.706 118.279 383.387 118.427 382.984 118.527C382.581 118.628 382.119 118.703 381.599 118.754C381.078 118.804 380.549 118.871 380.011 118.955C379.474 119.039 378.941 119.153 378.413 119.295C377.883 119.439 377.413 119.652 377.002 119.938C376.59 120.224 376.254 120.605 375.994 121.084C375.734 121.562 375.604 122.171 375.604 122.91C375.604 123.582 375.717 124.162 375.944 124.648C376.17 125.135 376.485 125.538 376.888 125.857C377.292 126.176 377.761 126.411 378.299 126.562C378.836 126.714 379.415 126.789 380.037 126.789C380.843 126.789 381.632 126.671 382.404 126.436C383.177 126.202 383.849 125.79 384.42 125.202C384.436 125.42 384.466 125.634 384.508 125.844C384.55 126.055 384.604 126.26 384.672 126.461H388.299C388.131 126.193 388.013 125.79 387.946 125.253C387.88 124.716 387.846 124.152 387.846 123.565V123.565Z" fill="white" fill-opacity="0.25"/>
<path fill-rule="evenodd" clip-rule="evenodd" d="M397.62 113.438V120.264C397.62 121.591 397.401 122.544 396.965 123.123C396.527 123.702 395.822 123.992 394.848 123.992C393.993 123.992 393.396 123.727 393.06 123.198C392.724 122.669 392.556 121.867 392.556 120.793V113.438H388.98V121.448C388.98 122.254 389.051 122.988 389.194 123.652C389.336 124.315 389.584 124.878 389.936 125.34C390.29 125.801 390.772 126.159 391.385 126.41C391.998 126.662 392.783 126.788 393.74 126.788C394.496 126.788 395.235 126.62 395.957 126.284C396.678 125.949 397.267 125.402 397.72 124.647H397.796V126.46H401.196V113.438H397.62Z" fill="white" fill-opacity="0.25"/>
<path fill-rule="evenodd" clip-rule="evenodd" d="M297.308 85.4316H292.358C291.689 85.4316 291.141 85.9794 291.141 86.6488V91.9584C291.141 92.6278 291.689 93.1756 292.358 93.1756H297.308C297.978 93.1756 298.525 92.6278 298.525 91.9584V86.6488C298.525 85.9794 297.978 85.4316 297.308 85.4316" fill="white" fill-opacity="0.25"/>
<path fill-rule="evenodd" clip-rule="evenodd" d="M297.308 119.479H292.358C291.689 119.479 291.141 120.026 291.141 120.696V126.005C291.141 126.675 291.689 127.222 292.358 127.222H297.308C297.978 127.222 298.525 126.675 298.525 126.005V120.696C298.525 120.026 297.978 119.479 297.308 119.479" fill="white" fill-opacity="0.25"/>
<path fill-rule="evenodd" clip-rule="evenodd" d="M281.681 110.199V105.248C281.681 104.579 281.133 104.031 280.464 104.031H275.154C274.485 104.031 273.937 104.579 273.937 105.248V110.199C273.937 110.868 274.485 111.416 275.154 111.416H280.464C281.133 111.416 281.681 110.868 281.681 110.199" fill="white" fill-opacity="0.25"/>
<path fill-rule="evenodd" clip-rule="evenodd" d="M314.512 104.031H309.203C308.533 104.031 307.985 104.579 307.985 105.248V110.199C307.985 110.868 308.533 111.416 309.203 111.416H314.512C315.182 111.416 315.729 110.868 315.729 110.199V105.248C315.729 104.579 315.182 104.031 314.512 104.031" fill="white" fill-opacity="0.25"/>
<path fill-rule="evenodd" clip-rule="evenodd" d="M283.783 114.576C283.31 114.102 282.535 114.102 282.061 114.576L278.307 118.33C277.834 118.804 277.834 119.578 278.307 120.051L281.807 123.552C282.281 124.025 283.056 124.025 283.53 123.552L287.284 119.797C287.757 119.324 287.757 118.549 287.284 118.076L283.783 114.576Z" fill="white" fill-opacity="0.25"/>
<path fill-rule="evenodd" clip-rule="evenodd" d="M305.883 99.4753C306.356 99.9491 307.132 99.9491 307.605 99.4753L311.359 95.7211C311.833 95.2479 311.833 94.4727 311.359 93.9995L307.859 90.4995C307.385 90.0262 306.611 90.0262 306.137 90.4995L302.383 94.2536C301.91 94.7269 301.91 95.5014 302.383 95.9753L305.883 99.4753Z" fill="white" fill-opacity="0.25"/>
<path fill-rule="evenodd" clip-rule="evenodd" d="M307.605 114.576C307.132 114.102 306.357 114.102 305.883 114.576L302.383 118.076C301.91 118.549 301.91 119.324 302.383 119.797L306.137 123.552C306.61 124.025 307.385 124.025 307.858 123.552L311.359 120.051C311.833 119.578 311.833 118.804 311.359 118.33L307.605 114.576Z" fill="white" fill-opacity="0.25"/>
<path fill-rule="evenodd" clip-rule="evenodd" d="M283.529 90.4995C283.056 90.0262 282.281 90.0262 281.808 90.4995L278.308 94.0001C277.834 94.4734 277.834 95.2479 278.308 95.7211L282.061 99.4753C282.534 99.9491 283.309 99.9491 283.783 99.4753L287.284 95.9753C287.757 95.502 287.757 94.7269 287.284 94.2536L283.529 90.4995Z" fill="white" fill-opacity="0.25"/>
</g>
</svg>
