<svg width="82" height="84" viewBox="0 0 82 84" fill="none" xmlns="http://www.w3.org/2000/svg">
<g filter="url(#filter0_d_9_1560)">
<ellipse cx="41" cy="39.5604" rx="26" ry="26.5604" fill="white"/>
</g>
<path d="M46.8125 34.1855H43.5312L43.2578 33.6934C43.1484 33.4746 42.9297 33.3105 42.6836 33.3105H39.5391C39.293 33.3105 39.0742 33.4746 38.9648 33.6934L38.7188 34.1855H35.4375C35.1914 34.1855 35 34.4043 35 34.623V35.498C35 35.7441 35.1914 35.9355 35.4375 35.9355H46.8125C47.0312 35.9355 47.25 35.7441 47.25 35.498V34.623C47.25 34.4043 47.0312 34.1855 46.8125 34.1855ZM36.4492 46.0801C36.4766 46.791 37.0508 47.3105 37.7617 47.3105H44.4609C45.1719 47.3105 45.7461 46.791 45.7734 46.0801L46.375 36.8105H35.875L36.4492 46.0801Z" fill="#FC4B4E"/>
<defs>
<filter id="filter0_d_9_1560" x="0" y="0" width="82" height="83.1206" filterUnits="userSpaceOnUse" color-interpolation-filters="sRGB">
<feFlood flood-opacity="0" result="BackgroundImageFix"/>
<feColorMatrix in="SourceAlpha" type="matrix" values="0 0 0 0 0 0 0 0 0 0 0 0 0 0 0 0 0 0 127 0" result="hardAlpha"/>
<feOffset dy="2"/>
<feGaussianBlur stdDeviation="7.5"/>
<feColorMatrix type="matrix" values="0 0 0 0 0.717647 0 0 0 0 0.741176 0 0 0 0 0.768627 0 0 0 0.570852 0"/>
<feBlend mode="normal" in2="BackgroundImageFix" result="effect1_dropShadow_9_1560"/>
<feBlend mode="normal" in="SourceGraphic" in2="effect1_dropShadow_9_1560" result="shape"/>
</filter>
</defs>
</svg>
