<svg width="135" height="56" viewBox="0 0 135 56" fill="none" xmlns="http://www.w3.org/2000/svg">
<g clip-path="url(#clip0_12_1778)">
<path d="M0 24.3364V29.2609C1.69031 29.2598 3.36427 29.5904 4.92608 30.234C6.4879 30.8776 7.90692 31.8214 9.10195 33.0115C10.2967 34.2012 11.2442 35.6137 11.8902 37.1682C12.5363 38.7226 12.8683 40.3886 12.8672 42.0709H17.8102C17.8057 37.3694 15.9279 32.8617 12.589 29.5369C9.24998 26.2121 4.7225 24.3418 0 24.3364H0Z" fill="white"/>
<path d="M24.7193 15.4707H16.8857C20.8486 17.9708 24.2064 21.3133 26.7182 25.2581V17.4594C26.7179 16.9318 26.5071 16.426 26.1323 16.0531C25.7574 15.6802 25.2492 15.4707 24.7193 15.4707V15.4707Z" fill="white"/>
<path d="M4.92188 15.4702H0V19.904C5.90327 19.9101 11.563 22.2474 15.7373 26.4031C19.9116 30.5587 22.2595 36.1932 22.2659 42.0702H26.7188V37.1702C25.712 31.7848 23.0906 26.8291 19.1999 22.9557C15.3091 19.0822 10.3313 16.4725 4.92188 15.4702V15.4702Z" fill="white"/>
<path d="M38.8346 18.3984H35.6973V34.1414H38.8346V18.3984Z" fill="white"/>
<path d="M50.37 25.2191C49.8477 24.7464 49.2363 24.3817 48.5714 24.146C47.143 23.6466 45.5863 23.6466 44.1579 24.146C43.4926 24.3815 42.881 24.7463 42.3586 25.2191C41.8462 25.6894 41.4369 26.2599 41.1562 26.8949C40.8661 27.5877 40.7168 28.3308 40.7168 29.0813C40.7168 29.8319 40.8661 30.575 41.1562 31.2678C41.4358 31.9046 41.8452 32.4767 42.3586 32.9478C42.8801 33.421 43.4914 33.7856 44.1565 34.0202C45.5847 34.5204 47.1417 34.5204 48.57 34.0202C49.2353 33.7856 49.8468 33.421 50.3686 32.9478C50.8817 32.4765 51.2911 31.9045 51.5709 31.2678C51.861 30.575 52.0103 29.8319 52.0103 29.0813C52.0103 28.3308 51.861 27.5877 51.5709 26.8949C51.2905 26.2601 50.8817 25.6896 50.37 25.2191ZM48.2156 30.9353C47.7076 31.3909 47.048 31.643 46.3643 31.643C45.6805 31.643 45.021 31.3909 44.5129 30.9353C44.0859 30.4105 43.8529 29.7557 43.8529 29.0803C43.8529 28.4049 44.0859 27.7501 44.5129 27.2253C45.021 26.7697 45.6805 26.5176 46.3643 26.5176C47.048 26.5176 47.7076 26.7697 48.2156 27.2253C48.6426 27.7501 48.8756 28.4049 48.8756 29.0803C48.8756 29.7557 48.6426 30.4105 48.2156 30.9353V30.9353Z" fill="white"/>
<path d="M61.6327 25.3548H61.5934C61.4483 25.152 61.2798 24.9669 61.0913 24.8032C60.8631 24.6022 60.6103 24.4305 60.339 24.2922C59.6533 23.9419 58.892 23.7634 58.1213 23.7721C57.446 23.7603 56.778 23.9142 56.1765 24.2201C55.616 24.5091 55.1211 24.9096 54.7224 25.3968C54.3159 25.899 54.0041 26.4703 53.802 27.0831C53.5872 27.7144 53.4777 28.3765 53.4779 29.0431C53.47 29.7586 53.5905 30.4698 53.8337 31.1431C54.0541 31.7576 54.3976 32.321 54.8434 32.7993C55.2875 33.2673 55.8265 33.636 56.4247 33.8808C57.0751 34.1447 57.7721 34.2756 58.4743 34.2658C58.9937 34.2569 59.5073 34.1547 59.9902 33.9641C60.5319 33.7596 61.0011 33.401 61.3395 32.933H61.3817V33.913C61.3935 34.2399 61.3394 34.5658 61.2226 34.8715C61.1058 35.1773 60.9288 35.4566 60.7018 35.6931C60.4139 35.9468 60.0772 36.1396 59.7122 36.2599C59.3472 36.3802 58.9615 36.4255 58.5784 36.3931C57.9709 36.3999 57.3689 36.2792 56.8114 36.0389C56.2568 35.7922 55.7392 35.4699 55.2737 35.0813L53.5377 37.6608C54.2473 38.2298 55.0767 38.632 55.9642 38.8375C56.8423 39.0385 57.7406 39.1398 58.6417 39.1392C60.6217 39.1392 62.0961 38.6429 63.065 37.6503C64.0339 36.6577 64.5186 35.2036 64.5191 33.2879V24.022H61.6363L61.6327 25.3548ZM61.4443 29.9671C61.3205 30.2634 61.1392 30.5325 60.9106 30.7588C60.678 30.9896 60.4052 31.1765 60.1056 31.3104C59.7944 31.448 59.4578 31.519 59.1173 31.519C58.7769 31.519 58.4402 31.448 58.1291 31.3104C57.8334 31.1746 57.5642 30.9879 57.3338 30.7588C57.1043 30.5306 56.9222 30.2595 56.798 29.9612C56.6738 29.6628 56.6098 29.343 56.6098 29.02C56.6098 28.697 56.6738 28.3772 56.798 28.0789C56.9222 27.7805 57.1043 27.5095 57.3338 27.2812C57.5644 27.0521 57.8335 26.8652 58.1291 26.7289C58.4403 26.5918 58.777 26.521 59.1173 26.521C59.4577 26.521 59.7943 26.5918 60.1056 26.7289C60.4051 26.8633 60.6778 27.0504 60.9106 27.2812C61.2558 27.6266 61.4906 28.0659 61.5856 28.5438C61.6805 29.0217 61.6314 29.5169 61.4443 29.9671V29.9671Z" fill="white"/>
<path d="M76.3055 25.2191C75.7832 24.7464 75.1719 24.3817 74.5069 24.146C73.0785 23.6466 71.5218 23.6466 70.0934 24.146C69.4282 24.3815 68.8166 24.7463 68.2941 25.2191C67.7817 25.6894 67.3724 26.2599 67.0918 26.8949C66.8017 27.5877 66.6523 28.3308 66.6523 29.0813C66.6523 29.8319 66.8017 30.575 67.0918 31.2678C67.3714 31.9046 67.7808 32.4767 68.2941 32.9478C68.8161 33.4211 69.4278 33.7857 70.0934 34.0202C71.5217 34.5204 73.0787 34.5204 74.5069 34.0202C75.1722 33.7856 75.7837 33.421 76.3055 32.9478C76.8188 32.4767 77.2283 31.9046 77.5079 31.2678C77.7979 30.575 77.9473 29.8319 77.9473 29.0813C77.9473 28.3308 77.7979 27.5877 77.5079 26.8949C77.2272 26.2599 76.8179 25.6894 76.3055 25.2191V25.2191ZM74.1511 30.9353C73.6431 31.3909 72.9836 31.643 72.2998 31.643C71.6161 31.643 70.9565 31.3909 70.4485 30.9353C70.0215 30.4105 69.7885 29.7557 69.7885 29.0803C69.7885 28.4049 70.0215 27.7501 70.4485 27.2253C70.9565 26.7697 71.6161 26.5176 72.2998 26.5176C72.9836 26.5176 73.6431 26.7697 74.1511 27.2253C74.5781 27.7501 74.8111 28.4049 74.8111 29.0803C74.8111 29.7557 74.5781 30.4105 74.1511 30.9353Z" fill="white"/>
<path d="M82.1093 24.0918H80.4268V34.1417H82.1093V24.0918Z" fill="white"/>
<path d="M81.2689 18.9382C81.1058 18.9351 80.9438 18.966 80.7933 19.0288C80.6428 19.0916 80.5071 19.1849 80.3949 19.3029C80.2238 19.4746 80.1077 19.6929 80.061 19.9303C80.0143 20.1676 80.0393 20.4134 80.1327 20.6367C80.2261 20.8599 80.3839 21.0506 80.586 21.1848C80.7881 21.319 81.0256 21.3906 81.2686 21.3906C81.5115 21.3906 81.749 21.319 81.9511 21.1848C82.1533 21.0506 82.311 20.8599 82.4044 20.6367C82.4978 20.4134 82.5228 20.1676 82.4761 19.9303C82.4295 19.6929 82.3133 19.4746 82.1422 19.3029C82.0302 19.1849 81.8947 19.0915 81.7443 19.0287C81.5939 18.9659 81.432 18.935 81.2689 18.9382V18.9382Z" fill="white"/>
<path d="M94.5554 25.3409C94.082 24.8598 93.5127 24.4828 92.884 24.2342C92.1941 23.9635 91.4579 23.8287 90.7163 23.8373C90.0177 23.8293 89.3269 23.9839 88.699 24.2888C88.0806 24.595 87.5331 25.0263 87.0917 25.5551H87.0467V24.0921H85.3662V39.0385H87.0467V32.3605H87.0896C87.4467 32.973 87.9673 33.475 88.5936 33.8109C89.3206 34.2162 90.1434 34.4202 90.9764 34.4017C91.6585 34.406 92.3341 34.2707 92.9614 34.0041C93.5671 33.7483 94.1138 33.372 94.568 32.8981C95.0292 32.4138 95.3919 31.8452 95.6361 31.2237C96.1536 29.8677 96.1536 28.3699 95.6361 27.0139C95.3898 26.3909 95.0226 25.8224 94.5554 25.3409V25.3409ZM93.9619 30.5909C93.8051 31.0285 93.5597 31.4294 93.2411 31.7688C92.9224 32.1082 92.5371 32.3789 92.1092 32.5642C91.1629 32.95 90.1023 32.95 89.1561 32.5642C88.7275 32.3789 88.3417 32.108 88.0226 31.7682C87.7036 31.4284 87.458 31.027 87.3012 30.5888C86.9709 29.6364 86.9709 28.6012 87.3012 27.6488C87.458 27.2106 87.7036 26.8092 88.0226 26.4694C88.3417 26.1296 88.7275 25.8587 89.1561 25.6734C90.1023 25.2876 91.1629 25.2876 92.1092 25.6734C92.5377 25.8587 92.9235 26.1296 93.2426 26.4694C93.5616 26.8092 93.8072 27.2106 93.964 27.6488C94.2943 28.6012 94.2943 29.6364 93.964 30.5888L93.9619 30.5909Z" fill="white"/>
<path d="M104.499 29.121C104.18 28.883 103.824 28.6981 103.445 28.5736C103.029 28.4338 102.603 28.3225 102.172 28.2404C101.849 28.1853 101.528 28.1139 101.212 28.0262C100.931 27.95 100.656 27.8493 100.392 27.7252C100.181 27.6297 99.9901 27.4948 99.8299 27.3276C99.6936 27.1781 99.6204 26.982 99.6253 26.7802C99.622 26.5623 99.6861 26.3487 99.8088 26.1684C99.9297 25.9902 100.088 25.84 100.272 25.7281C100.47 25.6093 100.685 25.5224 100.909 25.4705C101.139 25.4138 101.375 25.3849 101.612 25.3844C102.063 25.3704 102.509 25.4861 102.896 25.7176C103.245 25.9363 103.537 26.2342 103.748 26.587L105.15 25.6637C104.839 25.0534 104.335 24.5625 103.715 24.2672C103.09 23.9783 102.409 23.8318 101.72 23.8381C101.253 23.837 100.788 23.902 100.34 24.0313C99.9097 24.1534 99.5017 24.3424 99.131 24.5913C98.7765 24.8296 98.4814 25.1454 98.2683 25.5146C98.0476 25.9077 97.936 26.3523 97.9448 26.8026C97.9273 27.2434 98.0277 27.6809 98.2359 28.0703C98.4259 28.396 98.691 28.6719 99.0094 28.8753C99.3608 29.096 99.742 29.2659 100.141 29.38C100.573 29.5088 101.026 29.6234 101.501 29.7237C101.774 29.7811 102.04 29.8455 102.299 29.9169C102.541 29.9816 102.773 30.0791 102.989 30.2067C103.179 30.319 103.344 30.4688 103.474 30.647C103.604 30.8443 103.668 31.0771 103.658 31.3127C103.665 31.5602 103.598 31.8042 103.464 32.0127C103.33 32.2103 103.153 32.3754 102.946 32.4957C102.723 32.6284 102.478 32.723 102.223 32.7757C101.965 32.8323 101.701 32.8611 101.436 32.8618C100.912 32.882 100.392 32.7554 99.9368 32.4964C99.5178 32.2309 99.1491 31.894 98.8477 31.501L97.5117 32.5321C97.9253 33.1715 98.5123 33.6811 99.2048 34.0021C99.9146 34.2825 100.674 34.4178 101.437 34.3997C101.934 34.4001 102.43 34.3425 102.914 34.2282C103.374 34.1223 103.812 33.937 104.208 33.6808C104.587 33.4308 104.9 33.0949 105.122 32.7008C105.364 32.2535 105.483 31.751 105.468 31.2434C105.482 30.807 105.393 30.3735 105.21 29.9771C105.042 29.641 104.799 29.348 104.499 29.121V29.121Z" fill="white"/>
<path d="M116.621 31.7582V24.0918H114.939V28.9918C114.944 29.5201 114.882 30.0469 114.755 30.5598C114.647 30.9995 114.456 31.4147 114.193 31.7834C113.942 32.1262 113.608 32.3996 113.222 32.5779C112.777 32.7743 112.295 32.87 111.809 32.8579C111.48 32.8843 111.15 32.8318 110.846 32.7048C110.542 32.5777 110.273 32.3799 110.062 32.1278C109.658 31.5423 109.46 30.84 109.499 30.1307V24.0918H107.817V30.298C107.811 30.8606 107.888 31.421 108.043 31.9619C108.178 32.4415 108.419 32.8853 108.746 33.2618C109.074 33.6298 109.483 33.9173 109.941 34.1018C110.488 34.314 111.07 34.4163 111.656 34.4028C112.051 34.406 112.443 34.3515 112.821 34.2411C113.163 34.1421 113.489 33.9978 113.792 33.812C114.067 33.6432 114.317 33.4374 114.536 33.2002C114.732 32.9892 114.896 32.7502 115.022 32.4911H115.064C115.064 32.7781 115.072 33.0581 115.086 33.3311C115.101 33.6041 115.108 33.8762 115.107 34.1473H116.704C116.704 33.8174 116.69 33.4522 116.661 33.0518C116.631 32.6514 116.618 32.2202 116.621 31.7582Z" fill="white"/>
<path d="M134.806 26.2935C134.694 25.8072 134.472 25.3525 134.159 24.9635C133.842 24.5871 133.433 24.2978 132.972 24.1235C132.392 23.9149 131.777 23.8166 131.16 23.8337C130.491 23.8045 129.828 23.9807 129.262 24.3384C128.738 24.7131 128.297 25.1922 127.968 25.7454C127.882 25.5732 127.77 25.3762 127.634 25.1546C127.481 24.9152 127.288 24.7044 127.062 24.5316C126.785 24.3218 126.476 24.1565 126.148 24.0416C125.707 23.8939 125.243 23.8247 124.777 23.8372C124.384 23.8339 123.991 23.8884 123.613 23.9989C123.272 24.0979 122.945 24.2422 122.642 24.428C122.367 24.5969 122.117 24.8028 121.898 25.0398C121.702 25.2508 121.538 25.4898 121.413 25.7489H121.369C121.369 25.4619 121.362 25.1833 121.348 24.9089C121.334 24.6345 121.327 24.365 121.327 24.0927H119.73C119.73 24.4226 119.745 24.7878 119.773 25.1882C119.802 25.5886 119.816 26.0181 119.816 26.4769V34.1426H121.5V29.2468C121.495 28.7183 121.557 28.1912 121.684 27.6781C121.791 27.2382 121.982 26.8229 122.246 26.4545C122.496 26.1116 122.83 25.8381 123.217 25.66C123.661 25.4634 124.144 25.3678 124.63 25.38C124.918 25.3555 125.207 25.4074 125.469 25.5303C125.73 25.6533 125.954 25.8429 126.118 26.08C126.479 26.8165 126.635 27.6359 126.571 28.453V34.144H128.25V28.3438C128.245 27.9304 128.315 27.5196 128.456 27.1307C128.58 26.7859 128.771 26.4687 129.018 26.1969C129.251 25.9424 129.534 25.7378 129.848 25.5956C130.167 25.452 130.513 25.3787 130.862 25.3807C131.278 25.3657 131.691 25.4464 132.07 25.6166C132.369 25.7603 132.628 25.9744 132.825 26.2403C133.014 26.5035 133.147 26.8032 133.214 27.1202C133.286 27.4519 133.322 27.7902 133.321 28.1296V34.1426H135V28.0435C135.006 27.4545 134.941 26.8669 134.806 26.2935Z" fill="white"/>
</g>
<defs>
<clipPath id="clip0_12_1778">
<rect width="135" height="56" fill="white"/>
</clipPath>
</defs>
</svg>
