<svg width="28" height="28" viewBox="0 0 28 28" fill="none" xmlns="http://www.w3.org/2000/svg">
<path d="M14.0022 14.5397C18.0022 14.5397 21.2721 11.2699 21.2721 7.26985C21.2721 3.26983 18.0022 0 14.0022 0C10.0022 0 6.73242 3.26983 6.73242 7.26985C6.73242 11.2699 10.0022 14.5397 14.0022 14.5397Z" fill="#96A0AF"/>
<path d="M26.4786 20.3492C26.2881 19.873 26.0341 19.4286 25.7484 19.0159C24.2881 16.8571 22.0342 15.4286 19.4945 15.0793C19.1771 15.0476 18.8279 15.1111 18.5739 15.3016C17.2405 16.2857 15.6532 16.7936 14.0024 16.7936C12.3516 16.7936 10.7643 16.2857 9.43096 15.3016C9.17697 15.1111 8.82776 15.0158 8.51033 15.0793C5.97064 15.4286 3.68495 16.8571 2.25639 19.0159C1.97068 19.4286 1.71668 19.9048 1.52625 20.3492C1.43103 20.5397 1.46275 20.7619 1.55797 20.9524C1.81196 21.3969 2.12939 21.8413 2.4151 22.2223C2.85953 22.8255 3.33574 23.3651 3.87544 23.873C4.31987 24.3175 4.82779 24.7302 5.33578 25.1429C7.84369 27.0159 10.8596 28 13.9707 28C17.0818 28 20.0977 27.0159 22.6056 25.1429C23.1135 24.762 23.6215 24.3175 24.0659 23.873C24.5739 23.3651 25.0818 22.8254 25.5263 22.2223C25.8437 21.8096 26.1295 21.3969 26.3834 20.9524C26.5421 20.7619 26.5738 20.5397 26.4786 20.3492Z" fill="#96A0AF"/>
</svg>
