<svg width="18" height="287" viewBox="0 0 18 287" fill="none" xmlns="http://www.w3.org/2000/svg">
<path fill-rule="evenodd" clip-rule="evenodd" d="M12.0053 2.0003V0H10.0052V2.0003H6.00501V0H4.00498V2.0003H0.00489193V4.00071H16.0055V2.0003H12.0053ZM0.00305187 15.9992H16.007L16.0055 6.00017H0.00489193L0.00305187 15.9992ZM10.0052 8.00056H13.0053V10.0008H10.0052V8.00056ZM10.0052 12.0012H13.0053V14.0006H10.0052V12.0012ZM7.00505 8.00056H9.0052V10.0008H7.00505V8.00056ZM7.00505 12.0012H9.0052V14.0006H7.00505V12.0012ZM3.00496 8.00056H6.00501V10.0008H3.00496V8.00056ZM3.00496 12.0012H6.00501V14.0006H3.00496V12.0012Z" fill="#AAAAAA"/>
<path fill-rule="evenodd" clip-rule="evenodd" d="M8.38882 58.9159H7.31131V59.9592H8.38882V58.9159ZM12.6992 58.9159H11.6215V59.9592H12.6992V58.9159ZM8.5051 53.0027C3.81548 53.0027 0 56.8063 0 61.4811C0 65.9369 3.46584 69.6002 7.85082 69.9342V72.3506C7.85082 72.5605 7.95175 72.7565 8.12251 72.879C8.29371 73.0023 8.51264 73.0353 8.71202 72.9685C14.4443 71.0643 17.0103 65.8266 17.0103 61.4811C17.0103 56.8063 13.1948 53.0027 8.5051 53.0027ZM7.85082 62.8487C7.85082 63.9969 7.21061 65.0291 6.18071 65.5428C5.85466 65.7044 5.46291 65.5701 5.3028 65.2507C5.14155 64.9282 5.2727 64.5368 5.59555 64.3762C6.13264 64.1085 6.47907 63.591 6.53159 63.0027H4.57964C4.21844 63.0027 3.92534 62.7106 3.92534 62.3505V59.7418C3.92534 59.3813 4.21844 59.0899 4.57964 59.0899H7.19665C7.55771 59.0899 7.85082 59.3813 7.85082 59.7418C7.85082 60.8899 7.85082 61.6453 7.85082 62.8487ZM13.0848 62.8487C13.0848 63.9969 12.4446 65.0291 11.4148 65.5428C11.0886 65.7044 10.6969 65.5701 10.5368 65.2507C10.3754 64.9282 10.5065 64.5368 10.8294 64.3762C11.3667 64.1085 11.713 63.591 11.7656 63.0027H9.81355C9.45236 63.0027 9.15927 62.7106 9.15927 62.3505V59.7418C9.15927 59.3813 9.45236 59.0899 9.81355 59.0899H12.4306C12.7918 59.0899 13.0848 59.3813 13.0848 59.7418C13.0848 60.8899 13.0848 61.6453 13.0848 62.8487Z" fill="#AAAAAA"/>
<path fill-rule="evenodd" clip-rule="evenodd" d="M16.007 111.096C16.007 109.94 15.0696 109.003 13.9133 109.003H2.09673C0.940486 109.003 0.00305187 109.94 0.00305187 111.096V122.912C0.00305187 124.069 0.940486 125.007 2.09673 125.007H13.9133C15.0696 125.007 16.007 124.069 16.007 122.912V111.096ZM7.96202 112.715C9.09012 112.715 10.0046 113.629 10.0046 114.757C10.0046 115.885 9.09012 116.8 7.96202 116.8C6.83382 116.8 5.91941 115.885 5.91941 114.757C5.91941 113.629 6.83382 112.715 7.96202 112.715ZM11.2703 122.167H4.79705C4.17996 122.167 3.67973 121.66 3.67973 121.043C3.67973 119.28 4.76685 117.764 6.30726 117.142C6.77684 117.468 7.34688 117.66 7.96214 117.66C8.59994 117.66 9.18911 117.454 9.66806 117.105C11.2571 117.705 12.3878 119.244 12.3878 121.043C12.3878 121.66 11.8875 122.167 11.2703 122.167Z" fill="#AAAAAA"/>
<path fill-rule="evenodd" clip-rule="evenodd" d="M7.38968 164.188H14.7746C15.2185 164.188 16.0053 165.301 16.0053 165.709L16.0055 167.006H0.00487488L0.00476092 163.747C0.00476092 163.338 0.365717 163.006 0.809877 163.006H6.67165C7.11569 163.006 7.47676 163.338 7.47676 163.747L7.38968 164.188ZM0.809877 176.006C0.365717 176.006 0.00476092 175.674 0.00476092 175.266L0.00487488 168.007H16.0055L16.0053 175.266C16.0053 175.675 15.6443 176.006 15.2002 176.006H0.809877Z" fill="#AAAAAA"/>
<path fill-rule="evenodd" clip-rule="evenodd" d="M14.7746 216.383H11.082C10.7176 215.35 10.3188 214.008 8.62042 214.008C6.0755 214.008 5.29246 215.35 4.92795 216.383H1.23551C0.253347 216.383 0.00476092 217.774 0.00476092 218.758V231.228C0.00476092 232.212 0.800263 233.009 1.78267 233.009H14.2275C15.2097 233.009 16.0053 232.212 16.0053 231.228V218.758C16.0052 217.774 15.7568 216.383 14.7746 216.383ZM8.00504 216.977C8.49383 216.977 8.89383 217.373 8.89383 217.867C8.89383 218.362 8.49383 218.758 8.00504 218.758C7.51613 218.758 7.11615 218.362 7.11615 217.867C7.11615 217.373 7.51613 216.977 8.00504 216.977ZM10.0052 230.009H3.00493V228.008H10.0052V230.009ZM13.0053 226.008H3.00493V224.009H13.0053V226.008ZM13.0053 222.008H3.00493V220.008H13.0053V222.008Z" fill="#AAAAAA"/>
<path fill-rule="evenodd" clip-rule="evenodd" d="M12.0052 273.01V271.011H0.00476092V284.519C0.00476092 285.887 1.11786 287 2.48604 287H13.5139C14.8819 287 15.9952 285.887 15.9952 284.519L16.0055 273.01H12.0052ZM10.0052 284.01H2.00493V282.01H10.0052V283.01V284.01ZM10.0052 280.011H2.00493V278.011H10.0052V279.011V280.011ZM10.0052 275.01V276.01H2.00493V275.01V273.01H10.0052V275.01ZM14.0053 285.011C14.0053 285.467 13.9698 285.346 13.5139 285.346C13.0577 285.346 12.0052 285.467 12.0052 285.011V275.01H14.0053V285.011Z" fill="#AAAAAA"/>
</svg>
