<svg width="48" height="48" viewBox="0 0 48 48" fill="none" xmlns="http://www.w3.org/2000/svg">
<circle opacity="0.2" cx="24" cy="24" r="24" fill="#43CC74"/>
<path d="M30 20C31.6569 20 33 18.6569 33 17C33 15.3431 31.6569 14 30 14C28.3431 14 27 15.3431 27 17C27 18.6569 28.3431 20 30 20Z" stroke="#43CC74" stroke-width="2" stroke-linecap="round" stroke-linejoin="round"/>
<path d="M18 27C19.6569 27 21 25.6569 21 24C21 22.3431 19.6569 21 18 21C16.3431 21 15 22.3431 15 24C15 25.6569 16.3431 27 18 27Z" stroke="#43CC74" stroke-width="2" stroke-linecap="round" stroke-linejoin="round"/>
<path d="M30 34C31.6569 34 33 32.6569 33 31C33 29.3431 31.6569 28 30 28C28.3431 28 27 29.3431 27 31C27 32.6569 28.3431 34 30 34Z" stroke="#43CC74" stroke-width="2" stroke-linecap="round" stroke-linejoin="round"/>
<path d="M20.5898 25.5098L27.4198 29.4898" stroke="#43CC74" stroke-width="2" stroke-linecap="round" stroke-linejoin="round"/>
<path d="M27.4098 18.5098L20.5898 22.4898" stroke="#43CC74" stroke-width="2" stroke-linecap="round" stroke-linejoin="round"/>
</svg>
