<svg width="24" height="21" viewBox="0 0 24 21" fill="none" xmlns="http://www.w3.org/2000/svg">
<path d="M22.9085 6.54542H20.2194L16.1832 0.485581C16.0226 0.244868 15.773 0.0778004 15.4892 0.0211319C15.2055 -0.0355366 14.9109 0.0228357 14.6701 0.183408C14.4294 0.34398 14.2624 0.593599 14.2057 0.87735C14.149 1.1611 14.2074 1.45574 14.368 1.69646L17.5981 6.54542H6.40128L9.63464 1.69646C9.79521 1.45574 9.85359 1.1611 9.79692 0.87735C9.74025 0.593599 9.57318 0.34398 9.33247 0.183408C9.09175 0.0228357 8.79711 -0.0355366 8.51336 0.0211319C8.22961 0.0778004 7.97999 0.244868 7.81942 0.485581L3.77989 6.54542H1.09088C0.80156 6.54542 0.52409 6.66035 0.319511 6.86493C0.114931 7.06951 0 7.34698 0 7.63629C0 7.92561 0.114931 8.20308 0.319511 8.40766C0.52409 8.61224 0.80156 8.72717 1.09088 8.72717H2.18176V17.4542C2.18176 18.3222 2.52655 19.1546 3.14029 19.7683C3.75403 20.3821 4.58644 20.7268 5.45439 20.7268H18.5449C19.4129 20.7268 20.2453 20.3821 20.859 19.7683C21.4728 19.1546 21.8176 18.3222 21.8176 17.4542V8.72717H22.9085C23.1978 8.72717 23.4752 8.61224 23.6798 8.40766C23.8844 8.20308 23.9993 7.92561 23.9993 7.63629C23.9993 7.34698 23.8844 7.06951 23.6798 6.86493C23.4752 6.66035 23.1978 6.54542 22.9085 6.54542V6.54542ZM19.6358 17.4542C19.6358 17.7435 19.5209 18.021 19.3163 18.2256C19.1117 18.4302 18.8343 18.5451 18.5449 18.5451H5.45439C5.16507 18.5451 4.88761 18.4302 4.68303 18.2256C4.47845 18.021 4.36351 17.7435 4.36351 17.4542V8.72717H19.6358V17.4542Z" fill="#4D4D4D"/>
<path d="M7.63615 16.9087C7.92547 16.9087 8.20294 16.7938 8.40752 16.5892C8.6121 16.3846 8.72703 16.1072 8.72703 15.8178V11.4543C8.72703 11.165 8.6121 10.8875 8.40752 10.6829C8.20294 10.4784 7.92547 10.3634 7.63615 10.3634C7.34683 10.3634 7.06937 10.4784 6.86479 10.6829C6.66021 10.8875 6.54528 11.165 6.54528 11.4543V15.8178C6.54528 16.1072 6.66021 16.3846 6.86479 16.5892C7.06937 16.7938 7.34683 16.9087 7.63615 16.9087Z" fill="#4D4D4D"/>
<path d="M12.0003 16.9087C12.2897 16.9087 12.5671 16.7938 12.7717 16.5892C12.9763 16.3846 13.0912 16.1072 13.0912 15.8178V11.4543C13.0912 11.165 12.9763 10.8875 12.7717 10.6829C12.5671 10.4784 12.2897 10.3634 12.0003 10.3634C11.711 10.3634 11.4335 10.4784 11.229 10.6829C11.0244 10.8875 10.9094 11.165 10.9094 11.4543V15.8178C10.9094 16.1072 11.0244 16.3846 11.229 16.5892C11.4335 16.7938 11.711 16.9087 12.0003 16.9087Z" fill="#4D4D4D"/>
<path d="M16.3625 16.9087C16.6519 16.9087 16.9293 16.7938 17.1339 16.5892C17.3385 16.3846 17.4534 16.1072 17.4534 15.8178V11.4543C17.4534 11.165 17.3385 10.8875 17.1339 10.6829C16.9293 10.4784 16.6519 10.3634 16.3625 10.3634C16.0732 10.3634 15.7957 10.4784 15.5912 10.6829C15.3866 10.8875 15.2717 11.165 15.2717 11.4543V15.8178C15.2717 16.1072 15.3866 16.3846 15.5912 16.5892C15.7957 16.7938 16.0732 16.9087 16.3625 16.9087Z" fill="#4D4D4D"/>
</svg>
