<svg width="17" height="16" viewBox="0 0 17 16" fill="none" xmlns="http://www.w3.org/2000/svg">
<path fill-rule="evenodd" clip-rule="evenodd" d="M15.3362 9.33243C15.5207 9.33377 15.6965 9.41093 15.8223 9.5458C15.9485 9.678 16.014 9.85676 16.003 10.0392C15.8026 13.3871 13.0293 15.9997 9.67545 16H6.32832C2.97444 15.9997 0.201147 13.3871 0.000788648 10.0392C-0.00799571 9.85721 0.0568959 9.67936 0.180813 9.5458C0.305751 9.40927 0.482488 9.3318 0.667547 9.33243H3.07988C3.22689 9.33382 3.35745 9.23874 3.40126 9.0984C3.57538 8.5447 4.08767 8.16723 4.6681 8.16494H8.00522C8.58565 8.16723 9.09794 8.5447 9.27206 9.0984C9.3155 9.23756 9.44433 9.33235 9.59011 9.33243H13.1686C13.3527 9.33243 13.502 9.18317 13.502 8.99905V1.99809C13.5027 1.73459 13.3482 1.49537 13.1077 1.38767C12.8673 1.27998 12.5859 1.32401 12.3898 1.50002L12.1165 1.77339C12.0275 1.86298 11.9968 1.99514 12.0371 2.11477C12.2696 2.80146 12.0932 3.56058 11.5817 4.07438L11.4484 4.21106C11.188 4.47135 10.7659 4.47135 10.5056 4.21106L8.74199 2.44682C8.4817 2.18645 8.4817 1.76439 8.74199 1.50402L8.87867 1.36734C9.39856 0.870678 10.1492 0.699606 10.8329 0.921944C10.9517 0.959675 11.0816 0.928042 11.1697 0.839932L11.4784 0.531223C12.0617 -0.00783569 12.9088 -0.150656 13.6366 0.167316C14.3645 0.485289 14.8353 1.2038 14.8362 1.99809V8.99905C14.8362 9.18317 14.9854 9.33243 15.1695 9.33243H15.3362ZM7.66851 13.4997C7.85263 13.4997 8.00189 13.3504 8.00189 13.1663V9.8325C8.00189 9.64838 7.85263 9.49912 7.66851 9.49912H5.00148C4.81736 9.49912 4.6681 9.64838 4.6681 9.8325V13.1663C4.6681 13.3504 4.81736 13.4997 5.00148 13.4997H7.66851Z" fill="black"/>
<path d="M6.00156 4.05704C6.09783 4.05788 6.19314 4.03786 6.28093 3.99837L7.49177 3.43962C7.70842 3.34017 7.85556 3.13269 7.87775 2.89534C7.89995 2.65799 7.79384 2.42682 7.59938 2.28892C7.40493 2.15102 7.15167 2.12734 6.93502 2.22679L5.72219 2.78487C5.43786 2.91606 5.28314 3.22744 5.3503 3.5333C5.41747 3.83915 5.68842 4.05705 6.00156 4.05704Z" fill="black"/>
<path d="M9.41639 7.67153C9.75499 7.81597 10.1466 7.65868 10.2912 7.32015L10.8153 6.09331C10.9504 5.75679 10.7918 5.37396 10.4583 5.23158C10.1248 5.08921 9.7386 5.23952 9.58908 5.56991L9.06834 6.79874C8.92483 7.13588 9.08027 7.52565 9.41639 7.67153Z" fill="black"/>
<path d="M6.99233 6.04931C7.25141 6.3109 7.67347 6.31298 7.93512 6.05398L8.88325 5.11652C9.13783 4.85639 9.13677 4.44018 8.88086 4.18136C8.62496 3.92254 8.20878 3.91677 7.94579 4.16839L6.99766 5.10652C6.73589 5.36541 6.7335 5.78747 6.99233 6.04931Z" fill="black"/>
</svg>
