<svg width="35" height="35" viewBox="0 0 35 35" fill="none" xmlns="http://www.w3.org/2000/svg">
<path d="M17.5 19.6875C22.9346 19.6875 27.3438 15.2783 27.3438 9.84375C27.3438 4.40918 22.9346 0 17.5 0C12.0654 0 7.65625 4.40918 7.65625 9.84375C7.65625 15.2783 12.0654 19.6875 17.5 19.6875ZM26.25 21.875H22.4834C20.9658 22.5723 19.2773 22.9688 17.5 22.9688C15.7227 22.9688 14.041 22.5723 12.5166 21.875H8.75C3.91699 21.875 0 25.792 0 30.625V31.7188C0 33.5303 1.46973 35 3.28125 35H31.7188C33.5303 35 35 33.5303 35 31.7188V30.625C35 25.792 31.083 21.875 26.25 21.875Z" fill="#FEA400"/>
</svg>
