<svg width="11" height="15" viewBox="0 0 11 15" fill="none" xmlns="http://www.w3.org/2000/svg">
<path d="M4.92708 14.3802C5.1849 14.7812 5.78646 14.7812 6.04427 14.3802C10.2266 8.36458 11 7.73437 11 5.5C11 2.46354 8.53646 0 5.5 0C2.4349 0 0 2.46354 0 5.5C0 7.73437 0.744792 8.36458 4.92708 14.3802ZM5.5 7.79167C4.21094 7.79167 3.20833 6.78906 3.20833 5.5C3.20833 4.23958 4.21094 3.20833 5.5 3.20833C6.76042 3.20833 7.79167 4.23958 7.79167 5.5C7.79167 6.78906 6.76042 7.79167 5.5 7.79167Z" fill="#000C21"/>
</svg>
