<svg width="14" height="11" viewBox="0 0 14 11" fill="none" xmlns="http://www.w3.org/2000/svg">
<path d="M12.6875 0H1.3125C0.574219 0 0 0.601562 0 1.3125V9.1875C0 9.92578 0.574219 10.5 1.3125 10.5H12.6875C13.3984 10.5 14 9.92578 14 9.1875V1.3125C14 0.601562 13.3984 0 12.6875 0ZM12.6875 1.3125V2.43359C12.0586 2.95312 11.0742 3.71875 8.99609 5.35938C8.53125 5.71484 7.62891 6.58984 7 6.5625C6.34375 6.58984 5.44141 5.71484 4.97656 5.35938C2.89844 3.71875 1.91406 2.95312 1.3125 2.43359V1.3125H12.6875ZM1.3125 9.1875V4.12891C1.91406 4.62109 2.81641 5.33203 4.15625 6.39844C4.75781 6.86328 5.82422 7.90234 7 7.875C8.14844 7.90234 9.1875 6.86328 9.81641 6.39844C11.1562 5.33203 12.0586 4.62109 12.6875 4.12891V9.1875H1.3125Z" fill="#F2F2F2"/>
</svg>
