<svg width="24" height="24" viewBox="0 0 24 24" fill="none" xmlns="http://www.w3.org/2000/svg">
<path d="M9 9.75C9 8.95312 8.29688 8.25 7.5 8.25H6.75C5.0625 8.25 3.75 9.60938 3.75 11.25V13.5C3.75 15.1875 5.0625 16.5 6.75 16.5H7.5C8.29688 16.5 9 15.8438 9 15V9.75ZM17.25 16.5C18.8906 16.5 20.25 15.1875 20.25 13.5V11.25C20.25 9.60938 18.8906 8.25 17.25 8.25H16.5C15.6562 8.25 15 8.95312 15 9.75V15C15 15.8438 15.6562 16.5 16.5 16.5H17.25ZM12 0C5.29688 0 0.1875 5.57812 0 12V12.75C0 13.1719 0.328125 13.5 0.75 13.5H1.5C1.875 13.5 2.25 13.1719 2.25 12.75V12C2.25 6.65625 6.60938 2.25 12 2.25C17.3438 2.25 21.75 6.65625 21.75 12H21.7031C21.7031 12.1406 21.75 19.7812 21.75 19.7812C21.75 20.9062 20.8594 21.75 19.7344 21.75H15C15 20.5312 13.9688 19.5 12.75 19.5H11.25C9.98438 19.5 9 20.5312 9 21.75C9 23.0156 9.98438 24 11.25 24H19.7344C22.0781 24 24 22.125 24 19.7812V12C23.7656 5.57812 18.6562 0 12 0Z" fill="#EA001E"/>
</svg>
