<svg width="216" height="55" viewBox="0 0 216 55" fill="none" xmlns="http://www.w3.org/2000/svg">
<path d="M75.7734 30.4957C75.7734 41.7431 84.0072 49.654 94.824 49.654C103.165 49.654 109.946 45.2411 112.475 37.4917H103.811C102.035 41.1512 98.8064 42.9271 94.7702 42.9271C88.2048 42.9271 83.5228 38.0837 83.5228 30.4957C83.5228 22.854 88.2048 18.0644 94.7702 18.0644C98.8064 18.0644 102.035 19.8403 103.811 23.446H112.475C109.946 15.7504 103.165 11.2837 94.824 11.2837C84.0072 11.2837 75.7734 19.2484 75.7734 30.4957Z" fill="black"/>
<path d="M118.911 49.3311H126.445V9.50781H118.911V49.3311Z" fill="black"/>
<path d="M146.696 25.2219C150.571 25.2219 153.692 27.6974 153.8 31.6259H139.647C140.239 27.5359 143.091 25.2219 146.696 25.2219ZM160.85 39.9672H152.724C151.755 41.9584 149.979 43.5728 146.75 43.5728C142.983 43.5728 139.97 41.0974 139.593 36.6845H161.388C161.549 35.7158 161.603 34.7471 161.603 33.7785C161.603 24.899 155.522 19.0331 146.912 19.0331C138.086 19.0331 131.951 25.0066 131.951 34.4243C131.951 43.7881 138.247 49.8154 146.912 49.8154C154.284 49.8154 159.235 45.4564 160.85 39.9672Z" fill="black"/>
<path d="M163.927 19.5174L174.906 49.3311H184.054L195.086 19.5174H187.068L179.534 42.3889L172 19.5174H163.927Z" fill="black"/>
<path d="M206.852 34.4781C206.852 28.7198 209.543 26.9978 214.01 26.9978H216.001V19.0869C211.857 19.0869 208.736 21.0781 206.852 24.1456V19.5174H199.318V49.3311H206.852V34.4781Z" fill="black"/>
<path d="M26.0706 47.5281C26.0706 47.5281 21.415 43.7626 1.86133 41.9004V51.2116H20.4838C21.5313 49.0534 23.6746 47.6404 26.0706 47.5281Z" fill="#DCE9EF"/>
<path d="M27.9336 47.5281C27.9336 47.5281 32.5892 43.7626 52.1428 41.9004V51.2116H33.5203C32.4728 49.0534 30.3296 47.6404 27.9336 47.5281Z" fill="#DCE9EF"/>
<path d="M1.86133 46.5566H13.966V48.4189H1.86133V46.5566Z" fill="#58B1CC"/>
<path d="M40.0391 46.5566H52.1437V48.4189H40.0391V46.5566Z" fill="#58B1CC"/>
<path d="M36.3145 46.5566H38.1767V48.4189H36.3145V46.5566Z" fill="#58B1CC"/>
<path d="M26.0708 35.3823C26.0708 35.3823 38.1754 27.9333 28.8641 19.5532C19.5529 11.173 17.9812 5.58629 19.5529 0.930664C19.5529 0.930664 7.81062 12.6161 18.6218 22.3465C27.933 30.7267 26.0708 35.3823 26.0708 35.3823Z" fill="#DCD0F7"/>
<path d="M33.5213 18.622C33.5213 18.622 26.4356 14.3183 31.659 10.2419C36.8825 6.16551 37.1962 3.19528 36.3147 0.930664C36.3147 0.930664 44.2424 7.37034 38.1769 12.1042C32.9534 16.1806 33.5213 18.622 33.5213 18.622Z" fill="#DCD0F7"/>
<path d="M27.002 25.1406H28.8642V27.0029H27.002V25.1406Z" fill="#D9176C"/>
<path d="M24.209 22.3477H26.0712V24.2099H24.209V22.3477Z" fill="#D9176C"/>
<path d="M49.3489 24.2089C47.8062 24.2089 46.5555 22.9581 46.5555 21.4155C46.5555 20.9013 46.1386 20.4844 45.6244 20.4844C45.1102 20.4844 44.6933 20.9013 44.6933 21.4155C44.6933 22.9581 43.4425 24.2089 41.8999 24.2089C41.3857 24.2089 40.9688 24.6258 40.9688 25.14C40.9688 25.6542 41.3857 26.0711 41.8999 26.0711C43.4425 26.0711 44.6933 27.3219 44.6933 28.8645C44.6933 29.3787 45.1102 29.7956 45.6244 29.7956C46.1386 29.7956 46.5555 29.3787 46.5555 28.8645C46.5555 27.3219 47.8062 26.0711 49.3489 26.0711C49.8631 26.0711 50.28 25.6542 50.28 25.14C50.28 24.6258 49.8631 24.2089 49.3489 24.2089ZM45.6244 26.0998C45.3529 25.7347 45.0297 25.4114 44.6646 25.14C45.0297 24.8686 45.3529 24.5453 45.6244 24.1802C45.8958 24.5453 46.2191 24.8686 46.5841 25.14C46.2191 25.4114 45.8958 25.7347 45.6244 26.0998Z" fill="#FFD782"/>
<path d="M18.6223 33.5204C17.0797 33.5204 15.8289 32.2697 15.8289 30.727C15.8289 30.2128 15.412 29.7959 14.8978 29.7959C14.3836 29.7959 13.9667 30.2128 13.9667 30.727C13.9667 32.2697 12.7159 33.5204 11.1733 33.5204C10.6591 33.5204 10.2422 33.9373 10.2422 34.4515C10.2422 34.9657 10.6591 35.3827 11.1733 35.3827C12.7159 35.3827 13.9667 36.6334 13.9667 38.176C13.9667 38.6902 14.3836 39.1072 14.8978 39.1072C15.412 39.1072 15.8289 38.6902 15.8289 38.176C15.8289 36.6334 17.0797 35.3827 18.6223 35.3827C19.1365 35.3827 19.5534 34.9657 19.5534 34.4515C19.5534 33.9373 19.1365 33.5204 18.6223 33.5204ZM14.8978 35.4113C14.6264 35.0462 14.3031 34.723 13.938 34.4515C14.3031 34.1801 14.6264 33.8568 14.8978 33.4918C15.1692 33.8568 15.4925 34.1801 15.8576 34.4515C15.4925 34.723 15.1692 35.0462 14.8978 35.4113Z" fill="#FFD782"/>
<path d="M30.7278 3.7245C29.1852 3.7245 27.9344 2.47376 27.9344 0.931125C27.9344 0.416915 27.5175 0 27.0033 0C26.4891 0 26.0722 0.416915 26.0722 0.931125C26.0722 2.47376 24.8214 3.7245 23.2788 3.7245C22.7646 3.7245 22.3477 4.14142 22.3477 4.65563C22.3477 5.16984 22.7646 5.58675 23.2788 5.58675C24.8214 5.58675 26.0722 6.8375 26.0722 8.38013C26.0722 8.89434 26.4891 9.31125 27.0033 9.31125C27.5175 9.31125 27.9344 8.89434 27.9344 8.38013C27.9344 6.8375 29.1852 5.58675 30.7278 5.58675C31.242 5.58675 31.6589 5.16984 31.6589 4.65563C31.6589 4.14142 31.242 3.7245 30.7278 3.7245ZM27.0033 5.61539C26.7319 5.25031 26.4086 4.92705 26.0435 4.65563C26.4086 4.3842 26.7319 4.06094 27.0033 3.69586C27.2747 4.06094 27.598 4.3842 27.9631 4.65563C27.598 4.92705 27.2747 5.25031 27.0033 5.61539Z" fill="#FFD782"/>
<path d="M37.2461 17.6914H39.1084V19.5537H37.2461V17.6914Z" fill="#D9176C"/>
<path d="M37.2461 29.7959H39.1084V31.6582H37.2461V29.7959Z" fill="#D9176C"/>
<path d="M13.0371 25.1396H14.8994V27.0019H13.0371V25.1396Z" fill="#D9176C"/>
<path d="M22.3477 39.1074H24.2099V40.9697H22.3477V39.1074Z" fill="#D9176C"/>
<path d="M4.65625 34.4512H6.5185V36.3134H4.65625V34.4512Z" fill="#D9176C"/>
<path d="M35.3827 37.2451C35.3827 38.2735 34.5489 39.1073 33.5205 39.1073C32.492 39.1073 31.6582 38.2735 31.6582 37.2451C31.6582 36.2166 32.492 35.3828 33.5205 35.3828C34.5489 35.3828 35.3827 36.2166 35.3827 37.2451Z" fill="#87CEE9"/>
<path d="M10.2421 21.415C10.2421 22.4434 9.40825 23.2772 8.37983 23.2772C7.35141 23.2772 6.51758 22.4434 6.51758 21.415C6.51758 20.3866 7.35141 19.5527 8.37983 19.5527C9.40825 19.5527 10.2421 20.3866 10.2421 21.415Z" fill="#87CEE9"/>
<path d="M48.4179 12.1044C48.4179 13.1329 47.584 13.9667 46.5556 13.9667C45.5272 13.9667 44.6934 13.1329 44.6934 12.1044C44.6934 11.076 45.5272 10.2422 46.5556 10.2422C47.584 10.2422 48.4179 11.076 48.4179 12.1044Z" fill="#87CEE9"/>
<path d="M30.7271 54.9353C30.7271 52.8785 29.0595 51.2108 27.0026 51.2108C24.9458 51.2108 23.2781 52.8785 23.2781 54.9353H0V51.2108H20.4847C21.4159 49.3486 23.2781 47.4863 27.0026 47.4863C30.7271 47.4863 32.5894 49.3486 33.5205 51.2108H54.0052V54.9353H30.7271Z" fill="#8D28AD"/>
<path d="M0 51.2119H7.449V54.9364H0V51.2119Z" fill="#5C067C"/>
<path d="M46.5566 51.2119H54.0056V54.9364H46.5566V51.2119Z" fill="#5C067C"/>
</svg>
