<svg width="28" height="28" viewBox="0 0 28 28" fill="none" xmlns="http://www.w3.org/2000/svg">
<g clip-path="url(#clip0_173_5301)">
<path d="M23.9152 4.16308C21.1974 1.41254 17.4645 -0.0937126 13.6006 0.00452112C5.90563 0.233733 -0.119368 6.61893 0.109844 14.3139C0.142589 15.9184 0.470035 17.4901 1.05944 18.9636C1.55061 20.2079 2.2055 21.354 3.02411 22.4018L1.87805 25.1196C1.41963 26.1674 1.9108 27.379 2.95862 27.8374C3.31881 28.0011 3.74449 28.0339 4.13743 27.9684L9.44205 27.0515C11.3412 27.7064 13.3387 27.9356 15.3361 27.7392C22.1797 27.0515 27.5171 21.4522 27.8772 14.5759C28.0737 10.6793 26.633 6.91363 23.9152 4.16308ZM12.9785 19.4548H9.34382C8.78716 19.4548 8.29599 18.9964 8.29599 18.407C8.29599 17.8503 8.75441 17.3591 9.34382 17.3591H12.9785C13.5351 17.3591 14.0263 17.8176 14.0263 18.407C14.0263 18.9964 13.5679 19.4548 12.9785 19.4548ZM18.6433 15.198H9.34382C8.78716 15.198 8.29599 14.7396 8.29599 14.1502C8.29599 13.5608 8.75441 13.1024 9.34382 13.1024H18.6433C19.1999 13.1024 19.6911 13.5608 19.6911 14.1502C19.6911 14.7396 19.1999 15.198 18.6433 15.198ZM18.6433 10.9085H9.34382C8.78716 10.9085 8.29599 10.45 8.29599 9.86064C8.29599 9.30398 8.75441 8.81281 9.34382 8.81281H18.6433C19.1999 8.81281 19.6911 9.27124 19.6911 9.86064C19.6911 10.4173 19.1999 10.9085 18.6433 10.9085Z" fill="#737B8B"/>
</g>
<defs>
<clipPath id="clip0_173_5301">
<rect width="28" height="28" fill="white"/>
</clipPath>
</defs>
</svg>
