<svg width="17" height="17" viewBox="0 0 17 17" fill="none" xmlns="http://www.w3.org/2000/svg">
<path fill-rule="evenodd" clip-rule="evenodd" d="M8.01747 7.77138L9.0035 4.12001C9.00487 4.09298 9.00907 4.06616 9.01603 4.03999L10.0295 0.287629C10.0564 0.188088 10.1222 0.103261 10.2122 0.051825C10.3023 0.000388856 10.4092 -0.0134383 10.5096 0.013388L15.0481 1.21989C15.257 1.27527 15.3811 1.48811 15.3254 1.69535L14.3119 5.44771C14.2851 5.54739 14.2195 5.63241 14.1294 5.684C14.0393 5.73559 13.9323 5.74953 13.8318 5.72273L10.0577 4.71899L9.2181 7.82809C13.2907 8.3152 16.4469 11.7553 16.4469 15.9264C16.4469 16.1409 16.2716 16.3148 16.0553 16.3148H0.391593C0.175322 16.3148 0 16.1409 0 15.9264C0 11.4903 3.57133 7.88014 8.01747 7.77138ZM10.9646 13.9841C11.8297 13.9841 12.531 13.2885 12.531 12.4304C12.531 11.5722 11.8297 10.8766 10.9646 10.8766C10.0995 10.8766 9.39823 11.5722 9.39823 12.4304C9.39823 13.2885 10.0995 13.9841 10.9646 13.9841ZM4.69911 14.3726C4.69911 15.0162 4.17315 15.5379 3.52434 15.5379C2.87552 15.5379 2.34956 15.0162 2.34956 14.3726C2.34956 13.729 2.87552 13.2073 3.52434 13.2073C4.17315 13.2073 4.69911 13.729 4.69911 14.3726ZM6.43953 11.0492C6.87207 11.0492 7.22271 10.7014 7.22271 10.2723C7.22271 9.84329 6.87207 9.49546 6.43953 9.49546C6.00699 9.49546 5.65634 9.84329 5.65634 10.2723C5.65634 10.7014 6.00699 11.0492 6.43953 11.0492ZM16.7101 4.07417L15.5752 3.77274V3.77197L15.0685 5.64815C14.9881 5.94703 14.7912 6.20193 14.5212 6.35669C14.2512 6.51145 13.9302 6.55336 13.629 6.4732L10.9818 5.76856L10.678 6.89505C10.6221 7.10205 10.7458 7.31478 10.9544 7.3705L15.4938 8.57701C15.7024 8.63238 15.9169 8.50967 15.9731 8.30277L16.9865 4.55041C17.0136 4.45089 16.9996 4.34478 16.9478 4.25546C16.8959 4.16614 16.8104 4.10093 16.7101 4.07417Z" fill="#23272B"/>
</svg>
