<svg width="14" height="14" viewBox="0 0 14 14" fill="none" xmlns="http://www.w3.org/2000/svg">
<path fill-rule="evenodd" clip-rule="evenodd" d="M13.8738 13.2862L10.4721 9.88396C11.3845 8.83481 11.9371 7.46585 11.9371 5.96961C11.9371 2.676 9.25844 0 5.96861 0C2.67555 0 0 2.67913 0 5.96961C0 9.26007 2.67865 11.9391 5.96861 11.9391C7.46457 11.9391 8.83334 11.3865 9.88238 10.4737L13.284 13.8761C13.3647 13.9566 13.4733 14.0001 13.579 14.0001C13.6845 14.0001 13.7931 13.9598 13.8738 13.8761C14.0352 13.7146 14.0352 13.4477 13.8738 13.2862ZM0.83507 5.96961C0.83507 3.13858 3.13796 0.838187 5.96539 0.838187C8.79614 0.838187 11.0959 3.14173 11.0959 5.96961C11.0959 8.79766 8.79614 11.104 5.96539 11.104C3.13796 11.104 0.83507 8.80062 0.83507 5.96961Z" fill="#AAAAAA"/>
</svg>
