<svg width="28" height="28" viewBox="0 0 28 28" fill="none" xmlns="http://www.w3.org/2000/svg">
<g clip-path="url(#clip0_168_5155)">
<path d="M14.435 0.12473C14.169 -0.0419023 13.831 -0.0419023 13.565 0.12473L0.385328 8.38254C0.145797 8.53233 0 8.7951 0 9.07789C0 9.36068 0.145797 9.62345 0.385328 9.77324L13.565 17.9764C13.698 18.0597 13.8494 18.1013 14 18.1013C14.1506 18.1013 14.302 18.0597 14.435 17.9764L27.6147 9.77324C27.8542 9.62345 28 9.36068 28 9.07789C28 8.7951 27.8542 8.53233 27.6147 8.38254L14.435 0.12473Z" fill="#96A0AF"/>
<path d="M26.2826 17.4281L15.3041 24.2899C14.914 24.5342 14.4622 24.664 14 24.664C13.5378 24.664 13.086 24.5342 12.6942 24.2883L1.71724 17.4282L0.385328 18.2265C0.145797 18.3763 0 18.639 0 18.9218C0 19.2046 0.145797 19.4674 0.385328 19.6172L13.565 27.875C13.698 27.9583 13.8494 28 14 28C14.1506 28 14.302 27.9583 14.435 27.875L27.6147 19.6172C27.8542 19.4674 28 19.2046 28 18.9218C28 18.639 27.8542 18.3763 27.6147 18.2265L26.2826 17.4281Z" fill="#96A0AF"/>
<path d="M21.1641 15.7055V18.6928L23.7344 17.0862V14.099L21.1641 15.7055Z" fill="#96A0AF"/>
<path d="M16.9531 18.3375V21.3247L19.5234 19.7182V16.731L16.9531 18.3375Z" fill="#96A0AF"/>
<path d="M8.47656 16.7175V19.7046L10.9922 21.3042V18.3172L8.47656 16.7175Z" fill="#96A0AF"/>
<path d="M14 23.0234C14.1506 23.0234 14.302 22.9818 14.435 22.8985L15.3125 22.3501V19.363L15.3043 19.3681C14.9142 19.6124 14.4622 19.7422 14 19.7422C13.5378 19.7422 13.0641 19.6124 12.6724 19.3673L12.6328 19.3425V22.3295L13.565 22.8985C13.698 22.9818 13.8494 23.0234 14 23.0234V23.0234Z" fill="#96A0AF"/>
<path d="M26.2826 12.5062L25.375 13.0735V16.0609L27.6147 14.6953C27.8542 14.5455 28 14.2827 28 14C28 13.7172 27.8542 13.4544 27.6147 13.3046L26.2826 12.5062Z" fill="#96A0AF"/>
<path d="M4.26562 14.0924V17.0794L6.83594 18.6792V15.6921L4.26562 14.0924Z" fill="#96A0AF"/>
<path d="M2.625 16.054V13.067L1.71713 12.5065L0.385328 13.3046C0.145797 13.4544 0 13.7172 0 14C0 14.2828 0.145797 14.5455 0.385328 14.6953L2.625 16.054Z" fill="#96A0AF"/>
</g>
<defs>
<clipPath id="clip0_168_5155">
<rect width="28" height="28" fill="white"/>
</clipPath>
</defs>
</svg>
