<svg width="22" height="21" viewBox="0 0 22 21" fill="none" xmlns="http://www.w3.org/2000/svg">
<path fill-rule="evenodd" clip-rule="evenodd" d="M15.7664 9.24801C15.2457 9.18937 14.7147 9.31737 14.2637 9.6182L12.0605 7.4495C12.373 6.99334 12.506 6.45516 12.4458 5.92855L18.3742 0L21.6932 3.31924L15.7664 9.24801ZM3.70962 16.6236L3.92409 16.8389L7.68715 13.0735L8.62418 13.998L4.85486 17.7683L5.07002 17.9865L4.16232 19.1069L1.17722 21L0.692184 20.5156L2.58514 17.5323L3.70962 16.6236ZM9.08002 6.38473C9.51519 4.82889 9.12036 3.08982 7.89929 1.86603C6.6822 0.65393 4.96325 0.255708 3.41608 0.675664L6.03638 3.29491L5.34859 5.86026L2.77978 6.54761L0.16113 3.93029C-0.25761 5.47626 0.13968 7.19515 1.35447 8.41092C2.62781 9.68477 4.46234 10.0584 6.06639 9.53647L6.08145 9.55105L16.8587 20.3281C17.2851 20.7531 17.8439 20.9691 18.4026 20.9691C18.9613 20.9691 19.5193 20.7531 19.9466 20.3281C20.799 19.4782 20.799 18.0964 19.9466 17.2393L9.08002 6.38473ZM18.5901 19.9618C18.132 19.9618 17.76 19.5882 17.76 19.1276C17.76 18.6662 18.132 18.2943 18.5901 18.2943C19.0523 18.2943 19.4258 18.6662 19.4258 19.1276C19.4267 19.5882 19.0531 19.9618 18.5901 19.9618Z" fill="white"/>
</svg>
