<svg width="95" height="52" viewBox="0 0 95 52" fill="none" xmlns="http://www.w3.org/2000/svg">
<path d="M0 0H69C83.3594 0 95 11.6406 95 26V26C95 40.3594 83.3594 52 69 52H0V0Z" fill="#7EB23D"/>
<path d="M56.2539 33.8242L52.7383 30.3086C52.5625 30.168 52.3516 30.0625 52.1406 30.0625H51.5781C52.5273 28.832 53.125 27.2852 53.125 25.5625C53.125 21.5547 49.8203 18.25 45.8125 18.25C41.7695 18.25 38.5 21.5547 38.5 25.5625C38.5 29.6055 41.7695 32.875 45.8125 32.875C47.5 32.875 49.0469 32.3125 50.3125 31.3281V31.9258C50.3125 32.1367 50.3828 32.3477 50.5586 32.5234L54.0391 36.0039C54.3906 36.3555 54.918 36.3555 55.2344 36.0039L56.2188 35.0195C56.5703 34.7031 56.5703 34.1758 56.2539 33.8242ZM45.8125 30.0625C43.3164 30.0625 41.3125 28.0586 41.3125 25.5625C41.3125 23.1016 43.3164 21.0625 45.8125 21.0625C48.2734 21.0625 50.3125 23.1016 50.3125 25.5625C50.3125 28.0586 48.2734 30.0625 45.8125 30.0625Z" fill="white"/>
</svg>
