<svg width="72" height="72" viewBox="0 0 72 72" fill="none" xmlns="http://www.w3.org/2000/svg">
<circle cx="36" cy="36" r="36" fill="#9A754B"/>
<path fill-rule="evenodd" clip-rule="evenodd" d="M34.6667 20.7334H37.3333V24.6667H34.6667V20.7334ZM26.6133 24.0667L29.0133 26.4534L27.12 28.3334L24.7333 25.9467L26.6133 24.0667ZM25.3333 34.0001H21.3333V36.6667H25.3333V34.0001ZM47.264 25.9361L45.3867 24.0601L43.0013 26.4454L44.8773 28.3227L47.264 25.9361ZM42.9867 44.2134L45.3733 46.6134L47.2533 44.7334L44.8533 42.3467L42.9867 44.2134ZM50.6667 34.0001H46.6667V36.6667H50.6667V34.0001ZM36 27.3334C31.5867 27.3334 28 30.9201 28 35.3334C28 39.7467 31.5867 43.3334 36 43.3334C40.4133 43.3334 44 39.7467 44 35.3334C44 30.9201 40.4133 27.3334 36 27.3334ZM30.6667 35.3334C30.6667 38.2801 33.0533 40.6667 36 40.6667C38.9467 40.6667 41.3333 38.2801 41.3333 35.3334C41.3333 32.3867 38.9467 30.0001 36 30.0001C33.0533 30.0001 30.6667 32.3867 30.6667 35.3334ZM37.3333 46.0001V49.9334H34.6667V46.0001H37.3333ZM26.6133 46.6001L24.7333 44.7201L27.12 42.3201L29 44.2001L26.6133 46.6001Z" fill="white"/>
</svg>
