<svg width="13" height="12" viewBox="0 0 13 12" fill="none" xmlns="http://www.w3.org/2000/svg">
<path d="M6.77603 11.8059L12.1177 6.46418C12.376 6.20861 12.376 5.79097 12.1177 5.53267L6.77603 0.193727C6.52049 -0.0645756 6.10282 -0.0645756 5.84454 0.193727L5.23453 0.803741C4.97075 1.06478 4.97623 1.49069 5.24553 1.74623L8.55661 4.90068H0.659469C0.294018 4.90068 0 5.1947 0 5.56015V6.43944C0 6.80489 0.294018 7.09891 0.659469 7.09891H8.55661L5.24553 10.2534C4.97899 10.5089 4.97349 10.9348 5.23453 11.1958L5.84454 11.8059C6.10008 12.0642 6.51775 12.0642 6.77603 11.8059Z" fill="#1565D8"/>
</svg>
