<svg width="174" height="21" viewBox="0 0 174 21" fill="none" xmlns="http://www.w3.org/2000/svg">
<path d="M10.1172 1.20312L7.57812 6.39844L1.83594 7.21875C0.820312 7.375 0.429688 8.625 1.17188 9.36719L5.27344 13.3906L4.29688 19.0547C4.14062 20.0703 5.23438 20.8516 6.13281 20.3828L11.25 17.6875L16.3281 20.3828C17.2266 20.8516 18.3203 20.0703 18.1641 19.0547L17.1875 13.3906L21.2891 9.36719C22.0312 8.625 21.6406 7.375 20.625 7.21875L14.9219 6.39844L12.3438 1.20312C11.9141 0.304688 10.5859 0.265625 10.1172 1.20312Z" fill="#EA001E"/>
<path d="M48.1172 1.20312L45.5781 6.39844L39.8359 7.21875C38.8203 7.375 38.4297 8.625 39.1719 9.36719L43.2734 13.3906L42.2969 19.0547C42.1406 20.0703 43.2344 20.8516 44.1328 20.3828L49.25 17.6875L54.3281 20.3828C55.2266 20.8516 56.3203 20.0703 56.1641 19.0547L55.1875 13.3906L59.2891 9.36719C60.0312 8.625 59.6406 7.375 58.625 7.21875L52.9219 6.39844L50.3438 1.20312C49.9141 0.304688 48.5859 0.265625 48.1172 1.20312Z" fill="#EA001E"/>
<path d="M85.1172 1.20312L82.5781 6.39844L76.8359 7.21875C75.8203 7.375 75.4297 8.625 76.1719 9.36719L80.2734 13.3906L79.2969 19.0547C79.1406 20.0703 80.2344 20.8516 81.1328 20.3828L86.25 17.6875L91.3281 20.3828C92.2266 20.8516 93.3203 20.0703 93.1641 19.0547L92.1875 13.3906L96.2891 9.36719C97.0312 8.625 96.6406 7.375 95.625 7.21875L89.9219 6.39844L87.3438 1.20312C86.9141 0.304688 85.5859 0.265625 85.1172 1.20312Z" fill="#EA001E"/>
<path d="M123.117 1.20312L120.578 6.39844L114.836 7.21875C113.82 7.375 113.43 8.625 114.172 9.36719L118.273 13.3906L117.297 19.0547C117.141 20.0703 118.234 20.8516 119.133 20.3828L124.25 17.6875L129.328 20.3828C130.227 20.8516 131.32 20.0703 131.164 19.0547L130.188 13.3906L134.289 9.36719C135.031 8.625 134.641 7.375 133.625 7.21875L127.922 6.39844L125.344 1.20312C124.914 0.304688 123.586 0.265625 123.117 1.20312Z" fill="#EA001E"/>
<path d="M161.117 1.20312L158.578 6.39844L152.836 7.21875C151.82 7.375 151.43 8.625 152.172 9.36719L156.273 13.3906L155.297 19.0547C155.141 20.0703 156.234 20.8516 157.133 20.3828L162.25 17.6875L167.328 20.3828C168.227 20.8516 169.32 20.0703 169.164 19.0547L168.188 13.3906L172.289 9.36719C173.031 8.625 172.641 7.375 171.625 7.21875L165.922 6.39844L163.344 1.20312C162.914 0.304688 161.586 0.265625 161.117 1.20312Z" fill="#EA001E"/>
</svg>
