<svg width="24" height="24" viewBox="0 0 24 24" fill="none" xmlns="http://www.w3.org/2000/svg">
<g clip-path="url(#clip0_168_5489)">
<path d="M2.99979 24.0001H20.9998C21.265 24.0001 21.5194 23.8947 21.7069 23.7072C21.8944 23.5197 21.9998 23.2653 21.9998 23.0001V12.4151L22.2918 12.7071C22.4793 12.8947 22.7337 13.0002 22.9989 13.0003C23.2642 13.0004 23.5186 12.8951 23.7063 12.7076C23.8939 12.5201 23.9994 12.2657 23.9995 12.0004C23.9996 11.7352 23.8943 11.4807 23.7068 11.2931L12.7068 0.293061C12.5157 0.112389 12.2627 0.0117188 11.9998 0.0117188C11.7368 0.0117188 11.4838 0.112389 11.2928 0.293061L0.292786 11.2931C0.105315 11.4806 0 11.7349 0 12.0001C0 12.2652 0.105315 12.5195 0.292786 12.7071C0.483734 12.888 0.736757 12.9888 0.999786 12.9888C1.26282 12.9888 1.51584 12.888 1.70679 12.7071L1.99979 12.4141V23.0001C1.99979 23.2653 2.10514 23.5197 2.29268 23.7072C2.48022 23.8947 2.73457 24.0001 2.99979 24.0001V24.0001ZM13.9998 22.0001H9.99979V18.0001C9.99979 17.4697 10.2105 16.9609 10.5856 16.5859C10.9606 16.2108 11.4694 16.0001 11.9998 16.0001C12.5302 16.0001 13.0389 16.2108 13.414 16.5859C13.7891 16.9609 13.9998 17.4697 13.9998 18.0001V22.0001ZM11.9998 2.41406L19.9998 10.4141V22.0001H15.9998V18.0001C15.9998 16.9392 15.5784 15.9218 14.8282 15.1717C14.0781 14.4215 13.0607 14.0001 11.9998 14.0001C10.9389 14.0001 9.9215 14.4215 9.17136 15.1717C8.42121 15.9218 7.99979 16.9392 7.99979 18.0001V22.0001H3.99979V10.4141L11.9998 2.41406Z" fill="white" fill-opacity="0.8"/>
</g>
<defs>
<clipPath id="clip0_168_5489">
<rect width="24" height="24" fill="white"/>
</clipPath>
</defs>
</svg>
