<svg width="24" height="24" viewBox="0 0 24 24" fill="none" xmlns="http://www.w3.org/2000/svg">
<g clip-path="url(#clip0_168_5436)">
<path d="M21 0H3C2.20435 0 1.44129 0.31607 0.87868 0.87868C0.31607 1.44129 0 2.20435 0 3L0 21C0 21.7956 0.31607 22.5587 0.87868 23.1213C1.44129 23.6839 2.20435 24 3 24H21C21.7956 24 22.5587 23.6839 23.1213 23.1213C23.6839 22.5587 24 21.7956 24 21V3C24 2.20435 23.6839 1.44129 23.1213 0.87868C22.5587 0.31607 21.7956 0 21 0V0ZM3 2H21C21.2652 2 21.5196 2.10536 21.7071 2.29289C21.8946 2.48043 22 2.73478 22 3V14H2V3C2 2.73478 2.10536 2.48043 2.29289 2.29289C2.48043 2.10536 2.73478 2 3 2V2ZM21 22H3C2.73478 22 2.48043 21.8946 2.29289 21.7071C2.10536 21.5196 2 21.2652 2 21V16H22V21C22 21.2652 21.8946 21.5196 21.7071 21.7071C21.5196 21.8946 21.2652 22 21 22Z" fill="white" fill-opacity="0.8"/>
<path d="M9.513 11.859C9.66451 11.9483 9.83715 11.9954 10.013 11.9954C10.1888 11.9954 10.3615 11.9483 10.513 11.859L15.513 8.85903C15.6608 8.77013 15.7832 8.64448 15.8681 8.49431C15.953 8.34414 15.9977 8.17456 15.9977 8.00203C15.9977 7.82951 15.953 7.65992 15.8681 7.50975C15.7832 7.35958 15.6608 7.23394 15.513 7.14503L10.513 4.14503C10.3615 4.05447 10.1887 4.00564 10.0122 4.00349C9.83564 4.00135 9.6617 4.04596 9.50801 4.13281C9.35433 4.21966 9.22637 4.34565 9.13714 4.49796C9.04791 4.65028 9.0006 4.82351 9 5.00003V11C9.0012 11.1759 9.04939 11.3483 9.13959 11.4994C9.22978 11.6504 9.3587 11.7746 9.513 11.859V11.859ZM11 6.76603L13.057 8.00003L11 9.23403V6.76603Z" fill="white" fill-opacity="0.8"/>
<path d="M6.99999 18H5C4.73478 18 4.48043 18.1054 4.29289 18.2929C4.10536 18.4804 4 18.7348 4 19C4 19.2652 4.10536 19.5196 4.29289 19.7071C4.48043 19.8947 4.73478 20 5 20H6.99999C7.26521 20 7.51956 19.8947 7.7071 19.7071C7.89464 19.5196 7.99999 19.2652 7.99999 19C7.99999 18.7348 7.89464 18.4804 7.7071 18.2929C7.51956 18.1054 7.26521 18 6.99999 18Z" fill="white" fill-opacity="0.8"/>
<path d="M19 18H11C10.7348 18 10.4804 18.1054 10.2929 18.2929C10.1054 18.4804 10 18.7348 10 19C10 19.2652 10.1054 19.5196 10.2929 19.7071C10.4804 19.8947 10.7348 20 11 20H19C19.2652 20 19.5196 19.8947 19.7071 19.7071C19.8946 19.5196 20 19.2652 20 19C20 18.7348 19.8946 18.4804 19.7071 18.2929C19.5196 18.1054 19.2652 18 19 18Z" fill="white" fill-opacity="0.8"/>
</g>
<defs>
<clipPath id="clip0_168_5436">
<rect width="24" height="24" fill="white"/>
</clipPath>
</defs>
</svg>
