<svg width="485" height="594" viewBox="0 0 485 594" fill="none" xmlns="http://www.w3.org/2000/svg">
<rect y="180.666" width="77.428" height="77.428" transform="rotate(-90 0 180.666)" fill="#15DFBB"/>
<mask id="mask0_16_13439" style="mask-type:alpha" maskUnits="userSpaceOnUse" x="2" y="105" width="188" height="188">
<rect x="2.14974" y="292.506" width="187.118" height="187.118" transform="rotate(-90 2.14974 292.506)" fill="#FFBB9C"/>
</mask>
<g mask="url(#mask0_16_13439)">
<rect x="-24.7356" y="250.269" width="8.50145" height="87.1064" transform="rotate(-45 -24.7356 250.269)" fill="#3048C1"/>
<rect x="-38.7148" y="258.872" width="8.50145" height="87.1064" transform="rotate(-45 -38.7148 258.872)" fill="#3048C1"/>
<rect x="-28.3902" y="222.955" width="8.50145" height="146.114" transform="rotate(-45 -28.3902 222.955)" fill="#3048C1"/>
<rect x="-19.3574" y="208.545" width="8.50145" height="146.114" transform="rotate(-45 -19.3574 208.545)" fill="#3048C1"/>
<rect x="-31.1106" y="174.21" width="8.50145" height="212.81" transform="rotate(-45 -31.1106 174.21)" fill="#3048C1"/>
<rect x="-19.3574" y="161.384" width="8.50145" height="212.81" transform="rotate(-45 -19.3574 161.384)" fill="#3048C1"/>
<rect x="-25.8496" y="131.234" width="8.50145" height="267.67" transform="rotate(-45 -25.8496 131.234)" fill="#3048C1"/>
<rect x="-20.1782" y="112.093" width="8.50145" height="279.477" transform="rotate(-45 -20.1782 112.093)" fill="#3048C1"/>
<rect x="-7.52798" y="101.339" width="8.50145" height="279.477" transform="rotate(-45 -7.52798 101.339)" fill="#3048C1"/>
<rect x="2.14974" y="87.3584" width="8.50145" height="279.477" transform="rotate(-45 2.14974 87.3584)" fill="#3048C1"/>
<rect x="8.6009" y="70.1518" width="8.50145" height="279.477" transform="rotate(-45 8.6009 70.1518)" fill="#3048C1"/>
<rect x="19.3554" y="55.0968" width="8.50145" height="279.477" transform="rotate(-45 19.3554 55.0968)" fill="#3048C1"/>
<rect x="29.0351" y="42.1915" width="8.50145" height="279.477" transform="rotate(-45 29.0351 42.1915)" fill="#3048C1"/>
<rect x="43.0143" y="31.4379" width="8.50145" height="279.477" transform="rotate(-45 43.0143 31.4379)" fill="#3048C1"/>
<rect x="59.1451" y="21.7592" width="8.50145" height="279.477" transform="rotate(-45 59.1451 21.7592)" fill="#3048C1"/>
<rect x="72.0494" y="9.9308" width="8.50145" height="279.477" transform="rotate(-45 72.0494 9.9308)" fill="#3048C1"/>
</g>
<mask id="mask1_16_13439" style="mask-type:alpha" maskUnits="userSpaceOnUse" x="222" y="367" width="188" height="188">
<rect x="222.838" y="554.321" width="187.118" height="187.118" transform="rotate(-90 222.838 554.321)" fill="#FFBB9C"/>
</mask>
<g mask="url(#mask1_16_13439)">
<rect x="195.952" y="512.085" width="8.50145" height="87.1064" transform="rotate(-45 195.952 512.085)" fill="#3048C1"/>
<rect x="181.973" y="520.688" width="8.50145" height="87.1064" transform="rotate(-45 181.973 520.688)" fill="#3048C1"/>
<rect x="192.296" y="484.77" width="8.50145" height="146.114" transform="rotate(-45 192.296 484.77)" fill="#3048C1"/>
<rect x="201.331" y="470.36" width="8.50145" height="146.114" transform="rotate(-45 201.331 470.36)" fill="#3048C1"/>
<rect x="189.577" y="436.025" width="8.50145" height="212.81" transform="rotate(-45 189.577 436.025)" fill="#3048C1"/>
<rect x="201.331" y="423.199" width="8.50145" height="212.81" transform="rotate(-45 201.331 423.199)" fill="#3048C1"/>
<rect x="194.838" y="393.049" width="8.50145" height="267.67" transform="rotate(-45 194.838 393.049)" fill="#3048C1"/>
<rect x="200.51" y="373.908" width="8.50145" height="279.477" transform="rotate(-45 200.51 373.908)" fill="#3048C1"/>
<rect x="213.16" y="363.154" width="8.50145" height="279.477" transform="rotate(-45 213.16 363.154)" fill="#3048C1"/>
<rect x="222.838" y="349.174" width="8.50145" height="279.477" transform="rotate(-45 222.838 349.174)" fill="#3048C1"/>
<rect x="229.289" y="331.967" width="8.50145" height="279.477" transform="rotate(-45 229.289 331.967)" fill="#3048C1"/>
<rect x="240.043" y="316.911" width="8.50145" height="279.477" transform="rotate(-45 240.043 316.911)" fill="#3048C1"/>
<rect x="249.723" y="304.007" width="8.50145" height="279.477" transform="rotate(-45 249.723 304.007)" fill="#3048C1"/>
<rect x="263.702" y="293.253" width="8.50145" height="279.477" transform="rotate(-45 263.702 293.253)" fill="#3048C1"/>
<rect x="279.833" y="283.575" width="8.50145" height="279.477" transform="rotate(-45 279.833 283.575)" fill="#3048C1"/>
<rect x="292.737" y="271.745" width="8.50145" height="279.477" transform="rotate(-45 292.737 271.745)" fill="#3048C1"/>
</g>
<rect x="183.89" y="443.061" width="150.554" height="150.554" transform="rotate(-90 183.89 443.061)" fill="#2B374D"/>
<rect x="334.446" y="301.109" width="150.554" height="150.554" transform="rotate(-90 334.446 301.109)" fill="#FDD231"/>
<rect x="189.269" y="150.555" width="150.554" height="150.554" transform="rotate(-90 189.269 150.555)" fill="#FDD231"/>
<rect x="38.7128" y="593.614" width="150.554" height="150.554" transform="rotate(-90 38.7128 593.614)" fill="#15DFBB"/>
<circle cx="264.545" cy="75.2767" r="24.7339" transform="rotate(-90 264.545 75.2767)" fill="white"/>
<circle cx="389.828" cy="59.684" r="9.1408" transform="rotate(-90 389.828 59.684)" fill="#79FFF7"/>
<circle cx="389.828" cy="9.14075" r="9.1408" transform="rotate(-90 389.828 9.14075)" fill="#79FFF7"/>
<circle opacity="0.5" cx="330.144" cy="292.506" r="50.5432" transform="rotate(-90 330.144 292.506)" fill="white"/>
</svg>
