<svg width="161" height="32" viewBox="0 0 161 32" fill="none" xmlns="http://www.w3.org/2000/svg">
<path d="M0 10.665V16.5892C2.01585 16.5878 4.01219 16.9856 5.87479 17.7598C7.73739 18.534 9.4297 19.6695 10.8549 21.1012C12.2797 22.5324 13.4097 24.2316 14.1802 26.1017C14.9507 27.9717 15.3466 29.9759 15.3453 31.9997H21.2402C21.2349 26.3438 18.9955 20.921 15.0135 16.9212C11.0314 12.9215 5.632 10.6715 0 10.665H0Z" fill="#1D2B4F"/>
<path d="M29.4808 0H20.1387C24.8647 3.00768 28.8692 7.02862 31.8648 11.7743V2.39241C31.8643 1.75775 31.613 1.14924 31.166 0.700619C30.7189 0.252003 30.1128 -1.57043e-07 29.4808 0V0Z" fill="#1D2B4F"/>
<path d="M5.86977 0H0V5.33388C7.04017 5.34123 13.7899 8.15302 18.7681 13.1523C23.7464 18.1515 26.5465 24.9298 26.554 31.9999H31.8645V26.1052C30.6638 19.6265 27.5376 13.6648 22.8976 9.00502C18.2575 4.34523 12.321 1.20578 5.86977 0V0Z" fill="#1D2B4F"/>
<path d="M46.3138 3.52246H42.5723V22.4613H46.3138V3.52246Z" fill="#1D2B4F"/>
<path d="M60.0709 11.7278C59.448 11.1592 58.7189 10.7204 57.9259 10.4369C56.2224 9.83615 54.3659 9.83615 52.6624 10.4369C51.869 10.7202 51.1396 11.159 50.5165 11.7278C49.9055 12.2935 49.4173 12.9799 49.0826 13.7438C48.7367 14.5772 48.5586 15.4712 48.5586 16.3741C48.5586 17.277 48.7367 18.171 49.0826 19.0044C49.4161 19.7706 49.9044 20.4588 50.5165 21.0255C51.1385 21.5947 51.8675 22.0333 52.6607 22.3156C54.364 22.9174 56.2209 22.9174 57.9242 22.3156C58.7176 22.0333 59.4469 21.5947 60.0692 21.0255C60.6811 20.4585 61.1693 19.7704 61.5031 19.0044C61.849 18.171 62.0271 17.277 62.0271 16.3741C62.0271 15.4712 61.849 14.5772 61.5031 13.7438C61.1687 12.9801 60.6811 12.2938 60.0709 11.7278ZM57.5016 18.6044C56.8957 19.1525 56.1091 19.4558 55.2937 19.4558C54.4783 19.4558 53.6917 19.1525 53.0858 18.6044C52.5766 17.9731 52.2987 17.1853 52.2987 16.3729C52.2987 15.5604 52.5766 14.7726 53.0858 14.1413C53.6917 13.5932 54.4783 13.2899 55.2937 13.2899C56.1091 13.2899 56.8957 13.5932 57.5016 14.1413C58.0108 14.7726 58.2887 15.5604 58.2887 16.3729C58.2887 17.1853 58.0108 17.9731 57.5016 18.6044V18.6044Z" fill="#1D2B4F"/>
<path d="M73.5031 11.8901H73.4562C73.2832 11.6462 73.0822 11.4234 72.8575 11.2265C72.5852 10.9847 72.2838 10.7781 71.9602 10.6118C71.1424 10.1904 70.2346 9.97562 69.3155 9.98611C68.51 9.97194 67.7135 10.157 66.9961 10.5251C66.3276 10.8727 65.7374 11.3545 65.262 11.9406C64.7772 12.5448 64.4053 13.2321 64.1643 13.9693C63.9081 14.7287 63.7775 15.5252 63.7778 16.3271C63.7683 17.1879 63.912 18.0434 64.2021 18.8534C64.4649 19.5927 64.8746 20.2705 65.4062 20.8459C65.9359 21.4089 66.5787 21.8524 67.2921 22.1469C68.0677 22.4644 68.899 22.6219 69.7364 22.6101C70.3559 22.5993 70.9684 22.4764 71.5443 22.2471C72.1902 22.0011 72.7498 21.5697 73.1535 21.0067H73.2038V22.1856C73.2178 22.5789 73.1533 22.971 73.014 23.3387C72.8748 23.7065 72.6636 24.0426 72.3929 24.3271C72.0495 24.6322 71.648 24.8642 71.2127 25.009C70.7774 25.1537 70.3174 25.2082 69.8605 25.1692C69.1361 25.1774 68.4181 25.0322 67.7533 24.7431C67.0918 24.4463 66.4746 24.0586 65.9194 23.5911L63.8491 26.6943C64.6953 27.3788 65.6845 27.8627 66.7429 28.1098C67.7902 28.3517 68.8614 28.4734 69.936 28.4728C72.2973 28.4728 74.0557 27.8757 75.2112 26.6816C76.3668 25.4875 76.9448 23.7382 76.9453 21.4337V10.2867H73.5073L73.5031 11.8901ZM73.2784 17.4387C73.1308 17.7952 72.9145 18.1189 72.642 18.3911C72.3645 18.6688 72.0392 18.8936 71.6818 19.0547C71.3108 19.2202 70.9093 19.3057 70.5033 19.3057C70.0973 19.3057 69.6958 19.2202 69.3247 19.0547C68.9721 18.8914 68.6511 18.6667 68.3763 18.3911C68.1026 18.1165 67.8855 17.7905 67.7373 17.4315C67.5891 17.0726 67.5129 16.6879 67.5129 16.2994C67.5129 15.9108 67.5891 15.5261 67.7373 15.1672C67.8855 14.8082 68.1026 14.4822 68.3763 14.2076C68.6512 13.932 68.9722 13.7071 69.3247 13.5431C69.6959 13.3782 70.0974 13.293 70.5033 13.293C70.9092 13.293 71.3106 13.3782 71.6818 13.5431C72.0391 13.7048 72.3643 13.9299 72.642 14.2076C73.0536 14.623 73.3336 15.1515 73.4469 15.7265C73.5601 16.3014 73.5015 16.8971 73.2784 17.4387V17.4387Z" fill="#1D2B4F"/>
<path d="M91.0025 11.7278C90.3796 11.1592 89.6505 10.7204 88.8575 10.4369C87.154 9.83615 85.2975 9.83615 83.594 10.4369C82.8006 10.7202 82.0712 11.159 81.4482 11.7278C80.8371 12.2935 80.349 12.9799 80.0143 13.7438C79.6683 14.5772 79.4902 15.4712 79.4902 16.3741C79.4902 17.277 79.6683 18.171 80.0143 19.0044C80.3477 19.7706 80.836 20.4588 81.4482 21.0255C82.0706 21.5949 82.8002 22.0335 83.594 22.3156C85.2973 22.9174 87.1542 22.9174 88.8575 22.3156C89.6509 22.0333 90.3802 21.5947 91.0025 21.0255C91.6147 20.4588 92.103 19.7706 92.4364 19.0044C92.7823 18.171 92.9604 17.277 92.9604 16.3741C92.9604 15.4712 92.7823 14.5772 92.4364 13.7438C92.1017 12.9799 91.6135 12.2935 91.0025 11.7278V11.7278ZM88.4332 18.6044C87.8273 19.1525 87.0408 19.4558 86.2253 19.4558C85.4099 19.4558 84.6233 19.1525 84.0175 18.6044C83.5082 17.9731 83.2304 17.1853 83.2304 16.3729C83.2304 15.5604 83.5082 14.7726 84.0175 14.1413C84.6233 13.5932 85.4099 13.2899 86.2253 13.2899C87.0408 13.2899 87.8273 13.5932 88.4332 14.1413C88.9425 14.7726 89.2203 15.5604 89.2203 16.3729C89.2203 17.1853 88.9425 17.9731 88.4332 18.6044Z" fill="#1D2B4F"/>
<path d="M97.9226 10.3711H95.916V22.4612H97.9226V10.3711Z" fill="#1D2B4F"/>
<path d="M96.921 4.17214C96.7264 4.16843 96.5332 4.20553 96.3537 4.28108C96.1743 4.35662 96.0125 4.46895 95.8787 4.61088C95.6747 4.81745 95.5361 5.08005 95.4804 5.36559C95.4248 5.65112 95.4546 5.94681 95.566 6.21539C95.6774 6.48396 95.8655 6.71341 96.1066 6.8748C96.3476 7.0362 96.6308 7.12233 96.9206 7.12233C97.2103 7.12233 97.4935 7.0362 97.7346 6.8748C97.9756 6.71341 98.1637 6.48396 98.2752 6.21539C98.3866 5.94681 98.4163 5.65112 98.3607 5.36559C98.305 5.08005 98.1665 4.81745 97.9625 4.61088C97.8289 4.46889 97.6673 4.35651 97.4879 4.28096C97.3086 4.2054 97.1154 4.16834 96.921 4.17214V4.17214Z" fill="#1D2B4F"/>
<path d="M112.766 11.8738C112.201 11.295 111.522 10.8415 110.772 10.5424C109.949 10.2167 109.071 10.0545 108.187 10.0649C107.354 10.0553 106.53 10.2413 105.781 10.6081C105.044 10.9764 104.391 11.4953 103.864 12.1314H103.811V10.3715H101.807V28.352H103.811V20.3184H103.862C104.288 21.0552 104.909 21.6591 105.656 22.0632C106.523 22.5507 107.504 22.7961 108.497 22.7739C109.311 22.7791 110.116 22.6163 110.865 22.2956C111.587 21.9879 112.239 21.5351 112.781 20.9651C113.331 20.3825 113.763 19.6985 114.054 18.9508C114.672 17.3195 114.672 15.5176 114.054 13.8864C113.761 13.1369 113.323 12.453 112.766 11.8738V11.8738ZM112.058 18.1895C111.871 18.7159 111.578 19.1982 111.198 19.6065C110.818 20.0149 110.359 20.3405 109.848 20.5634C108.72 21.0275 107.455 21.0275 106.326 20.5634C105.815 20.3405 105.355 20.0146 104.975 19.6058C104.594 19.197 104.301 18.7141 104.114 18.187C103.72 17.0412 103.72 15.7959 104.114 14.6502C104.301 14.1231 104.594 13.6401 104.975 13.2314C105.355 12.8226 105.815 12.4966 106.326 12.2738C107.455 11.8096 108.72 11.8096 109.848 12.2738C110.359 12.4966 110.819 12.8226 111.2 13.2314C111.58 13.6401 111.873 14.1231 112.06 14.6502C112.454 15.7959 112.454 17.0412 112.06 18.187L112.058 18.1895Z" fill="#1D2B4F"/>
<path d="M124.624 16.421C124.243 16.1347 123.819 15.9123 123.367 15.7625C122.87 15.5944 122.363 15.4604 121.849 15.3616C121.463 15.2954 121.081 15.2094 120.704 15.104C120.368 15.0123 120.041 14.8912 119.727 14.7419C119.474 14.627 119.247 14.4647 119.056 14.2635C118.893 14.0837 118.806 13.8479 118.812 13.605C118.808 13.343 118.884 13.086 119.031 12.869C119.175 12.6547 119.363 12.474 119.583 12.3393C119.818 12.1965 120.075 12.0919 120.343 12.0294C120.617 11.9613 120.899 11.9265 121.181 11.9259C121.719 11.9091 122.251 12.0482 122.712 12.3267C123.128 12.5898 123.476 12.9482 123.728 13.3726L125.4 12.2619C125.03 11.5277 124.428 10.9371 123.689 10.5819C122.944 10.2344 122.131 10.058 121.31 10.0657C120.753 10.0643 120.199 10.1426 119.664 10.2981C119.151 10.4449 118.664 10.6723 118.222 10.9718C117.799 11.2584 117.447 11.6383 117.193 12.0825C116.93 12.5555 116.797 13.0903 116.808 13.632C116.787 14.1622 116.906 14.6886 117.155 15.157C117.381 15.5488 117.697 15.8808 118.077 16.1254C118.496 16.3909 118.951 16.5953 119.427 16.7326C119.942 16.8875 120.482 17.0254 121.048 17.1461C121.375 17.2151 121.692 17.2926 122 17.3785C122.289 17.4564 122.566 17.5737 122.823 17.7271C123.05 17.8622 123.247 18.0425 123.402 18.2568C123.556 18.4942 123.633 18.7743 123.621 19.0576C123.63 19.3554 123.549 19.6489 123.389 19.8997C123.23 20.1375 123.019 20.3361 122.772 20.4808C122.505 20.6405 122.214 20.7543 121.91 20.8176C121.602 20.8857 121.287 20.9204 120.971 20.9212C120.346 20.9455 119.726 20.7932 119.183 20.4816C118.683 20.1623 118.244 19.7569 117.884 19.2842L116.291 20.5246C116.784 21.2938 117.484 21.9069 118.31 22.293C119.157 22.6304 120.062 22.7931 120.973 22.7713C121.566 22.7718 122.157 22.7026 122.734 22.565C123.282 22.4376 123.805 22.2147 124.277 21.9065C124.728 21.6057 125.102 21.2016 125.367 20.7275C125.655 20.1895 125.798 19.5849 125.78 18.9743C125.796 18.4493 125.691 17.9278 125.471 17.4509C125.272 17.0466 124.982 16.6942 124.624 16.421V16.421Z" fill="#1D2B4F"/>
<path d="M139.083 19.5938V10.3711H137.076V16.2658C137.082 16.9013 137.009 17.5351 136.857 18.1521C136.728 18.6811 136.501 19.1806 136.186 19.6241C135.887 20.0365 135.489 20.3654 135.028 20.5799C134.498 20.8162 133.923 20.9312 133.344 20.9167C132.952 20.9486 132.558 20.8854 132.195 20.7326C131.832 20.5797 131.512 20.3417 131.26 20.0384C130.778 19.3341 130.542 18.4892 130.589 17.6359V10.3711H128.582V17.8372C128.576 18.514 128.667 19.1881 128.852 19.8389C129.014 20.4158 129.3 20.9498 129.691 21.4026C130.082 21.8454 130.57 22.1912 131.116 22.4132C131.768 22.6684 132.463 22.7915 133.162 22.7753C133.632 22.7791 134.1 22.7135 134.551 22.5807C134.958 22.4616 135.347 22.288 135.708 22.0645C136.036 21.8615 136.335 21.6138 136.595 21.3285C136.83 21.0747 137.025 20.7872 137.175 20.4755H137.226C137.226 20.8207 137.235 21.1576 137.252 21.486C137.269 21.8144 137.278 22.1417 137.277 22.4679H139.181C139.181 22.071 139.164 21.6317 139.129 21.15C139.095 20.6683 139.079 20.1496 139.083 19.5938Z" fill="#1D2B4F"/>
<path d="M160.768 13.0195C160.634 12.4345 160.37 11.8875 159.996 11.4195C159.618 10.9667 159.131 10.6188 158.581 10.409C157.889 10.1581 157.156 10.0399 156.42 10.0604C155.622 10.0253 154.831 10.2373 154.156 10.6675C153.531 11.1183 153.005 11.6947 152.613 12.3602C152.511 12.153 152.377 11.9161 152.214 11.6494C152.032 11.3615 151.802 11.1078 151.533 10.9C151.202 10.6476 150.834 10.4487 150.442 10.3105C149.916 10.1328 149.363 10.0496 148.808 10.0646C148.338 10.0607 147.87 10.1262 147.419 10.2591C147.012 10.3782 146.623 10.5518 146.261 10.7753C145.933 10.9786 145.635 11.2263 145.374 11.5113C145.14 11.7651 144.945 12.0527 144.796 12.3644H144.744C144.744 12.0191 144.735 11.684 144.719 11.3538C144.702 11.0237 144.693 10.6995 144.693 10.372H142.789C142.789 10.7689 142.806 11.2082 142.84 11.6898C142.874 12.1715 142.891 12.6883 142.891 13.2402V22.462H144.9V16.5724C144.893 15.9366 144.967 15.3025 145.119 14.6852C145.247 14.1561 145.474 13.6564 145.789 13.2132C146.088 12.8007 146.486 12.4717 146.947 12.2574C147.477 12.021 148.052 11.9059 148.632 11.9206C148.975 11.8911 149.321 11.9535 149.632 12.1014C149.944 12.2493 150.211 12.4775 150.406 12.7627C150.837 13.6487 151.024 14.6344 150.947 15.6174V22.4637H152.95V15.486C152.944 14.9888 153.027 14.4945 153.194 14.0267C153.343 13.6119 153.571 13.2303 153.865 12.9033C154.143 12.5972 154.48 12.351 154.856 12.18C155.235 12.0073 155.648 11.9191 156.065 11.9214C156.56 11.9034 157.053 12.0005 157.505 12.2052C157.862 12.3781 158.17 12.6356 158.405 12.9555C158.631 13.2722 158.789 13.6327 158.869 14.0141C158.955 14.4131 158.998 14.8202 158.997 15.2284V22.462H161V15.1248C161.007 14.4162 160.929 13.7094 160.768 13.0195Z" fill="#1D2B4F"/>
</svg>
