<svg width="32" height="32" viewBox="0 0 32 32" fill="none" xmlns="http://www.w3.org/2000/svg">
<path fill-rule="evenodd" clip-rule="evenodd" d="M28.942 27.0574L24.0327 22.1481C25.6767 20.0947 26.666 17.4961 26.666 14.6667C26.666 8.05075 21.282 2.66675 14.666 2.66675C8.05002 2.66675 2.66602 8.05075 2.66602 14.6667C2.66602 21.2827 8.05002 26.6667 14.666 26.6667C17.4953 26.6667 20.094 25.6774 22.1473 24.0334L27.0567 28.9427L28.942 27.0574ZM5.33268 14.6667C5.33268 9.52008 9.51935 5.33341 14.666 5.33341C19.8127 5.33341 23.9993 9.52008 23.9993 14.6667C23.9993 19.8134 19.8127 24.0001 14.666 24.0001C9.51935 24.0001 5.33268 19.8134 5.33268 14.6667Z" fill="#798196"/>
</svg>
