<svg width="30" height="30" viewBox="0 0 30 30" fill="none" xmlns="http://www.w3.org/2000/svg">
<path d="M2.5 7.5C2.5 6.83696 2.76339 6.20107 3.23223 5.73223C3.70107 5.26339 4.33696 5 5 5H25C25.663 5 26.2989 5.26339 26.7678 5.73223C27.2366 6.20107 27.5 6.83696 27.5 7.5V22.5C27.5 23.163 27.2366 23.7989 26.7678 24.2678C26.2989 24.7366 25.663 25 25 25H5C4.33696 25 3.70107 24.7366 3.23223 24.2678C2.76339 23.7989 2.5 23.163 2.5 22.5V7.5Z" stroke="white" stroke-width="2" stroke-linecap="round" stroke-linejoin="round"/>
<path d="M2.5 10L11.8763 17.5013C12.7629 18.2106 13.8645 18.5971 15 18.5971C16.1355 18.5971 17.2371 18.2106 18.1238 17.5013L27.5 10" stroke="white" stroke-width="2" stroke-linecap="round" stroke-linejoin="round"/>
</svg>
