<svg width="114" height="18" viewBox="0 0 114 18" fill="none" xmlns="http://www.w3.org/2000/svg">
<path fill-rule="evenodd" clip-rule="evenodd" d="M7.81114 1.07975C8.19711 0.301874 9.30599 0.311632 9.68871 1.07975L11.8247 5.38909L16.6036 6.08235C17.4606 6.20603 17.804 7.25731 17.1825 7.85945L13.7251 11.2119L14.5428 15.9476C14.69 16.8036 13.784 17.4415 13.0251 17.0444L8.74993 14.8084L4.47473 17.0444C3.71585 17.4448 2.80981 16.8036 2.957 15.9476L3.77475 11.2119L0.317302 7.85945C-0.304187 7.25731 0.0392672 6.20603 0.896275 6.08235L5.67519 5.38909L7.81114 1.07975Z" fill="#FABB3D"/>
<path fill-rule="evenodd" clip-rule="evenodd" d="M31.8109 1.07975C32.1969 0.301874 33.3058 0.311632 33.6885 1.07975L35.8245 5.38909L40.6034 6.08235C41.4604 6.20603 41.8038 7.25731 41.1823 7.85945L37.7249 11.2119L38.5426 15.9476C38.6898 16.8036 37.7838 17.4415 37.0249 17.0444L32.7497 14.8084L28.4745 17.0444C27.7156 17.4448 26.8096 16.8036 26.9568 15.9476L27.7745 11.2119L24.3171 7.85945C23.6956 7.25731 24.0391 6.20603 24.8961 6.08235L29.675 5.38909L31.8109 1.07975Z" fill="#FABB3D"/>
<path fill-rule="evenodd" clip-rule="evenodd" d="M55.8107 1.07975C56.1967 0.301874 57.3056 0.311632 57.6883 1.07975L59.8243 5.38909L64.6032 6.08235C65.4602 6.20603 65.8036 7.25731 65.1821 7.85945L61.7247 11.2119L62.5424 15.9476C62.6896 16.8036 61.7836 17.4415 61.0247 17.0444L56.7495 14.8084L52.4743 17.0444C51.7154 17.4448 50.8094 16.8036 50.9566 15.9476L51.7743 11.2119L48.3169 7.85945C47.6954 7.25731 48.0389 6.20603 48.8959 6.08235L53.6748 5.38909L55.8107 1.07975Z" fill="#FABB3D"/>
<path fill-rule="evenodd" clip-rule="evenodd" d="M79.8105 1.07975C80.1965 0.301874 81.3054 0.311632 81.6881 1.07975L83.824 5.38909L88.603 6.08235C89.46 6.20603 89.8034 7.25731 89.1819 7.85945L85.7245 11.2119L86.5422 15.9476C86.6894 16.8036 85.7834 17.4415 85.0245 17.0444L80.7493 14.8084L76.4741 17.0444C75.7152 17.4448 74.8092 16.8036 74.9564 15.9476L75.7741 11.2119L72.3167 7.85945C71.6952 7.25731 72.0387 6.20603 72.8957 6.08235L77.6746 5.38909L79.8105 1.07975Z" fill="#FABB3D"/>
<path fill-rule="evenodd" clip-rule="evenodd" d="M103.81 1.07975C104.196 0.301874 105.305 0.311632 105.688 1.07975L107.824 5.38909L112.603 6.08235C113.46 6.20603 113.803 7.25731 113.182 7.85945L109.724 11.2119L110.542 15.9476C110.689 16.8036 109.783 17.4415 109.024 17.0444L104.749 14.8084L100.474 17.0444C99.715 17.4448 98.809 16.8036 98.9562 15.9476L99.7739 11.2119L96.3165 7.85945C95.695 7.25731 96.0384 6.20603 96.8955 6.08235L101.674 5.38909L103.81 1.07975Z" stroke="#FABB3D"/>
</svg>
