<svg width="22" height="21" viewBox="0 0 22 21" fill="none" xmlns="http://www.w3.org/2000/svg">
<path fill-rule="evenodd" clip-rule="evenodd" d="M15.7664 9.24808C15.2457 9.18957 14.7147 9.31735 14.2637 9.61832L12.0605 7.44962C12.373 6.99336 12.506 6.45513 12.4458 5.92864L18.3742 0L21.6932 3.31932L15.7664 9.24808ZM3.70962 16.6237L3.92409 16.839L7.68715 13.0734L8.62418 13.998L4.85486 17.7683L5.07002 17.9866L4.16232 19.107L1.17722 21L0.692184 20.5157L2.58514 17.5323L3.70962 16.6237ZM9.08002 6.38475C9.51519 4.82884 9.12036 3.08987 7.89929 1.86593C6.6822 0.654003 4.96325 0.255854 3.41608 0.67581L6.03638 3.29488L5.34859 5.86035L2.77978 6.54759L0.16113 3.93046C-0.25761 5.47628 0.13968 7.19517 1.35447 8.41099C2.62781 9.68479 4.46234 10.0585 6.06639 9.53647L6.08145 9.551L16.8587 20.3282C17.2851 20.7531 17.8439 20.9692 18.4026 20.9692C18.9613 20.9692 19.5193 20.7531 19.9466 20.3282C20.799 19.4782 20.799 18.0965 19.9466 17.2393L9.08002 6.38475ZM18.5901 19.9618C18.132 19.9618 17.76 19.5883 17.76 19.1275C17.76 18.6663 18.132 18.2944 18.5901 18.2944C19.0523 18.2944 19.4258 18.6663 19.4258 19.1275C19.4267 19.5883 19.0531 19.9618 18.5901 19.9618Z" fill="white"/>
</svg>
