<svg width="28" height="28" viewBox="0 0 28 28" fill="none" xmlns="http://www.w3.org/2000/svg">
<path d="M14.8203 7.35156V13.5392L20.1754 16.6387C20.52 15.8316 20.7109 14.9439 20.7109 14.0123C20.7109 10.5895 18.1352 7.7574 14.8203 7.35156Z" fill="#96A0AF"/>
<path d="M19.3512 18.0578L14.0006 14.9609L8.6543 18.0649C9.88099 19.6793 11.8207 20.7237 14 20.7237C16.1825 20.7237 18.1248 19.6762 19.3512 18.0578V18.0578Z" fill="#96A0AF"/>
<path d="M7.22768 9.132C8.74591 7.03107 11.216 5.66115 14.0004 5.66115C16.7888 5.66115 19.262 7.03501 20.7797 9.14108L25.6888 6.29979C25.1728 5.52131 24.5754 4.78866 23.8999 4.11316C21.2556 1.46891 17.7399 0.0126953 14.0004 0.0126953C10.2609 0.0126953 6.74517 1.46891 4.10087 4.11316C3.42991 4.78412 2.83584 5.51147 2.32227 6.28404L7.22768 9.132Z" fill="#96A0AF"/>
<path d="M26.513 7.71777L21.6036 10.5592C22.0837 11.6122 22.3515 12.7815 22.3515 14.0123C22.3515 18.3406 19.0418 21.9101 14.8203 22.3235V27.9879C18.2514 27.7909 21.4495 26.3617 23.8995 23.9118C26.5438 21.2675 28 17.7518 28 14.0123C28 11.7897 27.4855 9.64627 26.513 7.71777V7.71777Z" fill="#96A0AF"/>
<path d="M13.1797 22.3236C8.9582 21.9101 5.64845 18.3406 5.64845 14.0123C5.64845 12.7776 5.91806 11.6048 6.40106 10.5491L1.49559 7.70117C0.517672 9.63399 0 11.7834 0 14.0124C0 17.7519 1.45627 21.2676 4.10047 23.9119C6.55041 26.3619 9.74865 27.791 13.1797 27.9879V22.3236Z" fill="#96A0AF"/>
<path d="M7.28906 14.0123C7.28906 14.9471 7.4814 15.8376 7.82817 16.647L13.1797 13.54V7.35156C9.86479 7.75745 7.28906 10.5896 7.28906 14.0123Z" fill="#96A0AF"/>
</svg>
