<svg width="128" height="56" viewBox="0 0 128 56" fill="none" xmlns="http://www.w3.org/2000/svg">
<g opacity="0.5">
<rect x="0.5" y="0.5" width="55" height="55" rx="27.5" stroke="#545961"/>
<path d="M25.375 30.2852C25.2383 30.4219 25.1836 30.5859 25.1836 30.75C25.1836 30.9414 25.2383 31.1055 25.375 31.2148L29.0938 34.9336C29.2031 35.0703 29.3672 35.125 29.5586 35.125C29.7227 35.125 29.8867 35.0703 30.0234 34.9336L30.625 34.3047C30.7344 34.1953 30.8164 34.0312 30.8164 33.8398C30.8164 33.6758 30.7344 33.5117 30.625 33.375L28 30.75L30.625 28.0977C30.7344 27.9883 30.8164 27.8516 30.8164 27.6602C30.8164 27.4961 30.7344 27.332 30.625 27.1953L30.0234 26.5664C29.8867 26.457 29.7227 26.375 29.5586 26.375C29.3672 26.375 29.2031 26.457 29.0938 26.5664L25.375 30.2852Z" fill="#1B1D21"/>
</g>
<rect x="72.5" y="0.5" width="55" height="55" rx="27.5" stroke="#545961"/>
<path d="M102.625 31.2148C102.734 31.1055 102.816 30.9414 102.816 30.75C102.816 30.5859 102.734 30.4219 102.625 30.2852L98.9062 26.5664C98.7695 26.457 98.6055 26.375 98.4414 26.375C98.25 26.375 98.0859 26.457 97.9766 26.5664L97.375 27.1953C97.2383 27.332 97.1836 27.4961 97.1836 27.6602C97.1836 27.8516 97.2383 28.0156 97.375 28.125L100 30.75L97.375 33.375C97.2383 33.5117 97.1836 33.6758 97.1836 33.8398C97.1836 34.0312 97.2383 34.1953 97.375 34.3047L97.9766 34.9336C98.0859 35.0703 98.25 35.125 98.4414 35.125C98.6055 35.125 98.7695 35.0703 98.9062 34.9336L102.625 31.2148Z" fill="#1B1D21"/>
</svg>
