<svg width="136" height="24" viewBox="0 0 136 24" fill="none" xmlns="http://www.w3.org/2000/svg">
<path d="M133.389 11.6C133.664 11.3192 133.855 10.9676 133.942 10.5844C134.028 10.2013 134.007 9.8016 133.879 9.43001C133.76 9.05732 133.538 8.72569 133.239 8.47287C132.941 8.22006 132.577 8.05622 132.189 8.00001L127.899 7.34001C127.879 7.33422 127.861 7.32403 127.845 7.31019C127.83 7.29635 127.818 7.27921 127.809 7.26001L125.929 3.26002C125.765 2.88546 125.494 2.56692 125.152 2.34321C124.809 2.11949 124.409 2.00025 123.999 2.00002C123.595 1.99835 123.199 2.11353 122.858 2.33173C122.517 2.54993 122.247 2.86186 122.079 3.23002L120.199 7.23001C120.189 7.24952 120.175 7.26669 120.158 7.28046C120.141 7.29422 120.121 7.30429 120.099 7.31001L115.819 8.00001C115.432 8.0578 115.067 8.22206 114.767 8.47452C114.467 8.72698 114.243 9.05774 114.119 9.43001C113.997 9.8029 113.978 10.2023 114.067 10.5848C114.155 10.9673 114.346 11.3184 114.619 11.6L117.779 14.85C117.789 14.8705 117.793 14.8926 117.793 14.915C117.793 14.9374 117.789 14.9595 117.779 14.98L117.039 19.52C116.971 19.9154 117.016 20.3222 117.169 20.6931C117.322 21.064 117.577 21.3837 117.905 21.6152C118.233 21.8467 118.62 21.9804 119.021 22.0007C119.422 22.021 119.82 21.9271 120.169 21.73L123.899 19.66C123.918 19.6504 123.939 19.6453 123.959 19.6453C123.98 19.6453 124.001 19.6504 124.019 19.66L127.749 21.73C128.099 21.9229 128.497 22.0134 128.896 21.9912C129.295 21.969 129.68 21.835 130.006 21.6045C130.333 21.374 130.588 21.0563 130.742 20.6877C130.896 20.319 130.944 19.9144 130.879 19.52L130.189 15C130.179 14.9818 130.173 14.9611 130.173 14.94C130.173 14.9189 130.179 14.8983 130.189 14.88L133.389 11.6Z" fill="#FF8723"/>
<path d="M105.389 11.6C105.664 11.3192 105.855 10.9676 105.942 10.5844C106.028 10.2013 106.007 9.8016 105.879 9.43001C105.76 9.05732 105.538 8.72569 105.239 8.47287C104.941 8.22006 104.577 8.05622 104.189 8.00001L99.8994 7.34001C99.8794 7.33422 99.861 7.32403 99.8454 7.31019C99.8298 7.29635 99.8176 7.27921 99.8094 7.26001L97.9294 3.26002C97.7646 2.88546 97.4944 2.56692 97.1517 2.34321C96.809 2.11949 96.4087 2.00025 95.9994 2.00002C95.5949 1.99835 95.1986 2.11353 94.858 2.33173C94.5174 2.54993 94.247 2.86186 94.0794 3.23002L92.1994 7.23001C92.1892 7.24952 92.175 7.26669 92.1578 7.28046C92.1406 7.29422 92.1207 7.30429 92.0994 7.31001L87.8194 8.00001C87.4315 8.0578 87.0673 8.22206 86.7671 8.47452C86.467 8.72698 86.2428 9.05774 86.1194 9.43001C85.9967 9.8029 85.9785 10.2023 86.0666 10.5848C86.1548 10.9673 86.3459 11.3184 86.6194 11.6L89.7794 14.85C89.7885 14.8705 89.7932 14.8926 89.7932 14.915C89.7932 14.9374 89.7885 14.9595 89.7794 14.98L89.0394 19.52C88.9707 19.9154 89.0155 20.3222 89.1688 20.6931C89.322 21.064 89.5774 21.3837 89.9053 21.6152C90.2331 21.8467 90.6199 21.9804 91.0207 22.0007C91.4215 22.021 91.8199 21.9271 92.1694 21.73L95.8994 19.66C95.918 19.6504 95.9386 19.6453 95.9594 19.6453C95.9803 19.6453 96.0009 19.6504 96.0194 19.66L99.7494 21.73C100.099 21.9229 100.497 22.0134 100.896 21.9912C101.295 21.969 101.68 21.835 102.006 21.6045C102.333 21.374 102.588 21.0563 102.742 20.6877C102.896 20.319 102.944 19.9144 102.879 19.52L102.189 15C102.179 14.9818 102.173 14.9611 102.173 14.94C102.173 14.9189 102.179 14.8983 102.189 14.88L105.389 11.6Z" fill="#FF8723"/>
<path d="M77.3894 11.6C77.6641 11.3192 77.8554 10.9676 77.9419 10.5844C78.0285 10.2013 78.0068 9.8016 77.8794 9.43001C77.7599 9.05732 77.5381 8.72569 77.2393 8.47287C76.9406 8.22006 76.5768 8.05622 76.1894 8.00001L71.8994 7.34001C71.8794 7.33422 71.861 7.32403 71.8454 7.31019C71.8298 7.29635 71.8176 7.27921 71.8094 7.26001L69.9294 3.26002C69.7646 2.88546 69.4944 2.56692 69.1517 2.34321C68.809 2.11949 68.4087 2.00025 67.9994 2.00002C67.5949 1.99835 67.1986 2.11353 66.858 2.33173C66.5174 2.54993 66.247 2.86186 66.0794 3.23002L64.1994 7.23001C64.1892 7.24952 64.175 7.26669 64.1578 7.28046C64.1406 7.29422 64.1207 7.30429 64.0994 7.31001L59.8194 8.00001C59.4315 8.0578 59.0673 8.22206 58.7671 8.47452C58.467 8.72698 58.2428 9.05774 58.1194 9.43001C57.9967 9.8029 57.9785 10.2023 58.0666 10.5848C58.1548 10.9673 58.3459 11.3184 58.6194 11.6L61.7794 14.85C61.7885 14.8705 61.7932 14.8926 61.7932 14.915C61.7932 14.9374 61.7885 14.9595 61.7794 14.98L61.0394 19.52C60.9707 19.9154 61.0155 20.3222 61.1688 20.6931C61.322 21.064 61.5774 21.3837 61.9053 21.6152C62.2331 21.8467 62.6199 21.9804 63.0207 22.0007C63.4215 22.021 63.8199 21.9271 64.1694 21.73L67.8994 19.66C67.918 19.6504 67.9386 19.6453 67.9594 19.6453C67.9803 19.6453 68.0009 19.6504 68.0194 19.66L71.7494 21.73C72.0995 21.9229 72.4967 22.0134 72.8958 21.9912C73.2948 21.969 73.6796 21.835 74.006 21.6045C74.3325 21.374 74.5876 21.0563 74.742 20.6877C74.8965 20.319 74.9441 19.9144 74.8794 19.52L74.1894 15C74.1789 14.9818 74.1734 14.9611 74.1734 14.94C74.1734 14.9189 74.1789 14.8983 74.1894 14.88L77.3894 11.6Z" fill="#FF8723"/>
<path d="M49.3894 11.6C49.6641 11.3192 49.8554 10.9676 49.9419 10.5844C50.0285 10.2013 50.0068 9.8016 49.8794 9.43001C49.7599 9.05732 49.5381 8.72569 49.2393 8.47287C48.9406 8.22006 48.5768 8.05622 48.1894 8.00001L43.8994 7.34001C43.8794 7.33422 43.861 7.32403 43.8454 7.31019C43.8298 7.29635 43.8176 7.27921 43.8094 7.26001L41.9294 3.26002C41.7646 2.88546 41.4944 2.56692 41.1517 2.34321C40.809 2.11949 40.4087 2.00025 39.9994 2.00002C39.5949 1.99835 39.1986 2.11353 38.858 2.33173C38.5174 2.54993 38.247 2.86186 38.0794 3.23002L36.1994 7.23001C36.1892 7.24952 36.175 7.26669 36.1578 7.28046C36.1406 7.29422 36.1207 7.30429 36.0994 7.31001L31.8194 8.00001C31.4315 8.0578 31.0673 8.22206 30.7671 8.47452C30.467 8.72698 30.2428 9.05774 30.1194 9.43001C29.9967 9.8029 29.9785 10.2023 30.0666 10.5848C30.1548 10.9673 30.3459 11.3184 30.6194 11.6L33.7794 14.85C33.7885 14.8705 33.7932 14.8926 33.7932 14.915C33.7932 14.9374 33.7885 14.9595 33.7794 14.98L33.0394 19.52C32.9707 19.9154 33.0155 20.3222 33.1688 20.6931C33.322 21.064 33.5774 21.3837 33.9053 21.6152C34.2331 21.8467 34.6199 21.9804 35.0207 22.0007C35.4215 22.021 35.8199 21.9271 36.1694 21.73L39.8994 19.66C39.918 19.6504 39.9386 19.6453 39.9594 19.6453C39.9803 19.6453 40.0009 19.6504 40.0194 19.66L43.7494 21.73C44.0995 21.9229 44.4967 22.0134 44.8958 21.9912C45.2948 21.969 45.6796 21.835 46.006 21.6045C46.3325 21.374 46.5876 21.0563 46.742 20.6877C46.8965 20.319 46.9441 19.9144 46.8794 19.52L46.1894 15C46.1789 14.9818 46.1734 14.9611 46.1734 14.94C46.1734 14.9189 46.1789 14.8983 46.1894 14.88L49.3894 11.6Z" fill="#FF8723"/>
<path d="M21.3894 11.6C21.6641 11.3192 21.8554 10.9676 21.9419 10.5844C22.0285 10.2013 22.0068 9.8016 21.8794 9.43001C21.7599 9.05732 21.5381 8.72569 21.2393 8.47287C20.9406 8.22006 20.5768 8.05622 20.1894 8.00001L15.8994 7.34001C15.8794 7.33422 15.861 7.32403 15.8454 7.31019C15.8298 7.29635 15.8176 7.27921 15.8094 7.26001L13.9294 3.26002C13.7646 2.88546 13.4944 2.56692 13.1517 2.34321C12.809 2.11949 12.4087 2.00025 11.9994 2.00002C11.5949 1.99835 11.1986 2.11353 10.858 2.33173C10.5174 2.54993 10.247 2.86186 10.0794 3.23002L8.19945 7.23001C8.18919 7.24952 8.17501 7.26669 8.1578 7.28046C8.14059 7.29422 8.12073 7.30429 8.09945 7.31001L3.81945 8.00001C3.43154 8.0578 3.06727 8.22206 2.76715 8.47452C2.46702 8.72698 2.24281 9.05774 2.11945 9.43001C1.99675 9.8029 1.97847 10.2023 2.06662 10.5848C2.15476 10.9673 2.34594 11.3184 2.61945 11.6L5.77945 14.85C5.78855 14.8705 5.79325 14.8926 5.79325 14.915C5.79325 14.9374 5.78855 14.9595 5.77945 14.98L5.03945 19.52C4.97066 19.9154 5.0155 20.3222 5.16877 20.6931C5.32205 21.064 5.57745 21.3837 5.90528 21.6152C6.23312 21.8467 6.61993 21.9804 7.02073 22.0007C7.42154 22.021 7.81988 21.9271 8.16945 21.73L11.8994 19.66C11.918 19.6504 11.9386 19.6453 11.9594 19.6453C11.9803 19.6453 12.0009 19.6504 12.0194 19.66L15.7494 21.73C16.0995 21.9229 16.4967 22.0134 16.8958 21.9912C17.2948 21.969 17.6796 21.835 18.006 21.6045C18.3325 21.374 18.5876 21.0563 18.742 20.6877C18.8965 20.319 18.9441 19.9144 18.8794 19.52L18.1894 15C18.1789 14.9818 18.1734 14.9611 18.1734 14.94C18.1734 14.9189 18.1789 14.8983 18.1894 14.88L21.3894 11.6Z" fill="#FF8723"/>
</svg>
