<svg width="23" height="20" viewBox="0 0 23 20" fill="none" xmlns="http://www.w3.org/2000/svg">
<g clip-path="url(#clip0_2_1199)">
<path d="M7.73438 8.43762H14.7656C15.1541 8.43762 15.4688 8.15793 15.4688 7.81262V7.18762C15.4688 6.84231 15.1541 6.56262 14.7656 6.56262H7.73438C7.3459 6.56262 7.03125 6.84231 7.03125 7.18762V7.81262C7.03125 8.15793 7.3459 8.43762 7.73438 8.43762ZM7.03125 11.5626C7.03125 11.9079 7.3459 12.1876 7.73438 12.1876H14.7656C15.1541 12.1876 15.4688 11.9079 15.4688 11.5626V10.9376C15.4688 10.5923 15.1541 10.3126 14.7656 10.3126H7.73438C7.3459 10.3126 7.03125 10.5923 7.03125 10.9376V11.5626ZM11.25 16.2943C10.5284 16.2943 9.80684 16.0966 9.19072 15.7009L0 9.79934V18.1251C0 19.1607 0.944385 20.0001 2.10938 20.0001H20.3906C21.5556 20.0001 22.5 19.1607 22.5 18.1251V9.79934L13.3093 15.7009C12.6932 16.0962 11.9716 16.2943 11.25 16.2943ZM21.6918 6.36535C21.3029 6.09426 20.9342 5.83918 20.3906 5.47434V3.75012C20.3906 2.71457 19.4462 1.87512 18.2812 1.87512H14.8733C14.7397 1.78918 14.6153 1.70871 14.476 1.61887C13.7373 1.13957 12.2695 -0.0135514 11.25 0.000120522C10.2305 -0.0135514 8.76313 1.13957 8.02397 1.61887C7.88467 1.70871 7.7603 1.78918 7.62671 1.87512H4.21875C3.05376 1.87512 2.10938 2.71457 2.10938 3.75012V5.47434C1.56577 5.83879 1.19707 6.09426 0.808154 6.36535C0.556417 6.54072 0.352843 6.76467 0.212833 7.02028C0.072823 7.27589 4.33216e-05 7.55645 0 7.84075L0 8.25676L4.21875 10.9657V3.75012H18.2812V10.9657L22.5 8.25676V7.84075C22.5 7.26496 22.2021 6.72082 21.6918 6.36535V6.36535Z" fill="#010101"/>
</g>
<defs>
<clipPath id="clip0_2_1199">
<rect width="22.5" height="20" fill="white"/>
</clipPath>
</defs>
</svg>
