<svg width="135" height="56" viewBox="0 0 135 56" fill="none" xmlns="http://www.w3.org/2000/svg">
<g clip-path="url(#clip0_150_4535)">
<path d="M0 24.3369V29.2614C1.69031 29.2602 3.36427 29.5909 4.92608 30.2345C6.4879 30.878 7.90692 31.8219 9.10195 33.012C10.2967 34.2017 11.2442 35.6142 11.8902 37.1686C12.5363 38.7231 12.8683 40.3891 12.8672 42.0714H17.8102C17.8057 37.3699 15.9279 32.8622 12.589 29.5374C9.24998 26.2126 4.7225 24.3423 0 24.3369H0Z" fill="#333333"/>
<path d="M24.7197 15.4707H16.8862C20.849 17.9708 24.2069 21.3133 26.7187 25.2581V17.4594C26.7184 16.9318 26.5076 16.426 26.1327 16.0531C25.7579 15.6802 25.2497 15.4707 24.7197 15.4707V15.4707Z" fill="#333333"/>
<path d="M4.92188 15.4707H0V19.9045C5.90327 19.9106 11.563 22.2479 15.7373 26.4035C19.9116 30.5592 22.2595 36.1937 22.2659 42.0707H26.7188V37.1707C25.712 31.7853 23.0906 26.8296 19.1999 22.9562C15.3091 19.0827 10.3313 16.473 4.92188 15.4707V15.4707Z" fill="#333333"/>
<path d="M38.8344 18.3984H35.697V34.1414H38.8344V18.3984Z" fill="#333333"/>
<path d="M50.3697 25.2191C49.8474 24.7464 49.2361 24.3817 48.5711 24.146C47.1427 23.6466 45.586 23.6466 44.1576 24.146C43.4924 24.3815 42.8808 24.7463 42.3583 25.2191C41.846 25.6894 41.4366 26.2599 41.156 26.8949C40.8659 27.5877 40.7166 28.3308 40.7166 29.0813C40.7166 29.8319 40.8659 30.575 41.156 31.2678C41.4356 31.9046 41.845 32.4767 42.3583 32.9478C42.8799 33.421 43.4911 33.7856 44.1562 34.0202C45.5845 34.5204 47.1415 34.5204 48.5697 34.0202C49.235 33.7856 49.8465 33.421 50.3683 32.9478C50.8814 32.4765 51.2908 31.9045 51.5707 31.2678C51.8607 30.575 52.0101 29.8319 52.0101 29.0813C52.0101 28.3308 51.8607 27.5877 51.5707 26.8949C51.2903 26.2601 50.8814 25.6896 50.3697 25.2191ZM48.2154 30.9353C47.7073 31.3909 47.0478 31.643 46.364 31.643C45.6803 31.643 45.0207 31.3909 44.5127 30.9353C44.0857 30.4105 43.8527 29.7557 43.8527 29.0803C43.8527 28.4049 44.0857 27.7501 44.5127 27.2253C45.0207 26.7697 45.6803 26.5176 46.364 26.5176C47.0478 26.5176 47.7073 26.7697 48.2154 27.2253C48.6424 27.7501 48.8754 28.4049 48.8754 29.0803C48.8754 29.7557 48.6424 30.4105 48.2154 30.9353V30.9353Z" fill="#333333"/>
<path d="M61.6332 25.3548H61.5939C61.4488 25.152 61.2803 24.9669 61.0918 24.8032C60.8635 24.6022 60.6108 24.4305 60.3395 24.2922C59.6537 23.9419 58.8925 23.7634 58.1218 23.7721C57.4465 23.7603 56.7785 23.9142 56.177 24.2201C55.6165 24.5091 55.1216 24.9096 54.7229 25.3968C54.3164 25.899 54.0046 26.4703 53.8025 27.0831C53.5877 27.7144 53.4782 28.3765 53.4784 29.0431C53.4705 29.7586 53.591 30.4698 53.8342 31.1431C54.0546 31.7576 54.3981 32.321 54.8439 32.7993C55.288 33.2673 55.827 33.636 56.4252 33.8808C57.0755 34.1447 57.7726 34.2756 58.4748 34.2658C58.9942 34.2569 59.5078 34.1547 59.9907 33.9641C60.5323 33.7596 61.0016 33.401 61.34 32.933H61.3822V33.913C61.394 34.2399 61.3399 34.5658 61.2231 34.8715C61.1063 35.1773 60.9292 35.4566 60.7023 35.6931C60.4143 35.9468 60.0777 36.1396 59.7127 36.2599C59.3477 36.3802 58.962 36.4255 58.5789 36.3931C57.9714 36.3999 57.3694 36.2792 56.8119 36.0389C56.2573 35.7922 55.7397 35.4699 55.2742 35.0813L53.5382 37.6608C54.2477 38.2298 55.0772 38.632 55.9646 38.8375C56.8428 39.0385 57.7411 39.1398 58.6421 39.1392C60.6221 39.1392 62.0966 38.6429 63.0655 37.6503C64.0344 36.6577 64.5191 35.2036 64.5196 33.2879V24.022H61.6368L61.6332 25.3548ZM61.4448 29.9671C61.321 30.2634 61.1397 30.5325 60.9111 30.7588C60.6785 30.9896 60.4057 31.1765 60.106 31.3104C59.7949 31.448 59.4582 31.519 59.1178 31.519C58.7774 31.519 58.4407 31.448 58.1296 31.3104C57.8339 31.1746 57.5647 30.9879 57.3343 30.7588C57.1048 30.5306 56.9227 30.2595 56.7985 29.9612C56.6743 29.6628 56.6103 29.343 56.6103 29.02C56.6103 28.697 56.6743 28.3772 56.7985 28.0789C56.9227 27.7805 57.1048 27.5095 57.3343 27.2812C57.5648 27.0521 57.834 26.8652 58.1296 26.7289C58.4408 26.5918 58.7774 26.521 59.1178 26.521C59.4582 26.521 59.7948 26.5918 60.106 26.7289C60.4056 26.8633 60.6783 27.0504 60.9111 27.2812C61.2563 27.6266 61.4911 28.0659 61.5861 28.5438C61.681 29.0217 61.6319 29.5169 61.4448 29.9671V29.9671Z" fill="#333333"/>
<path d="M76.306 25.2191C75.7837 24.7464 75.1724 24.3817 74.5074 24.146C73.079 23.6466 71.5223 23.6466 70.0939 24.146C69.4287 24.3815 68.817 24.7463 68.2946 25.2191C67.7822 25.6894 67.3729 26.2599 67.0923 26.8949C66.8022 27.5877 66.6528 28.3308 66.6528 29.0813C66.6528 29.8319 66.8022 30.575 67.0923 31.2678C67.3719 31.9046 67.7813 32.4767 68.2946 32.9478C68.8165 33.4211 69.4283 33.7857 70.0939 34.0202C71.5222 34.5204 73.0791 34.5204 74.5074 34.0202C75.1727 33.7856 75.7842 33.421 76.306 32.9478C76.8193 32.4767 77.2288 31.9046 77.5084 31.2678C77.7984 30.575 77.9478 29.8319 77.9478 29.0813C77.9478 28.3308 77.7984 27.5877 77.5084 26.8949C77.2277 26.2599 76.8184 25.6894 76.306 25.2191V25.2191ZM74.1516 30.9353C73.6436 31.3909 72.9841 31.643 72.3003 31.643C71.6165 31.643 70.957 31.3909 70.449 30.9353C70.022 30.4105 69.789 29.7557 69.789 29.0803C69.789 28.4049 70.022 27.7501 70.449 27.2253C70.957 26.7697 71.6165 26.5176 72.3003 26.5176C72.9841 26.5176 73.6436 26.7697 74.1516 27.2253C74.5786 27.7501 74.8116 28.4049 74.8116 29.0803C74.8116 29.7557 74.5786 30.4105 74.1516 30.9353Z" fill="#333333"/>
<path d="M82.1096 24.0918H80.427V34.1417H82.1096V24.0918Z" fill="#333333"/>
<path d="M81.2687 18.9387C81.1055 18.9356 80.9435 18.9665 80.793 19.0293C80.6425 19.0921 80.5069 19.1854 80.3947 19.3034C80.2236 19.4751 80.1074 19.6934 80.0608 19.9308C80.0141 20.1681 80.039 20.4139 80.1325 20.6371C80.2259 20.8604 80.3836 21.0511 80.5857 21.1853C80.7879 21.3195 81.0254 21.391 81.2683 21.391C81.5112 21.391 81.7487 21.3195 81.9509 21.1853C82.153 21.0511 82.3107 20.8604 82.4042 20.6371C82.4976 20.4139 82.5225 20.1681 82.4759 19.9308C82.4292 19.6934 82.313 19.4751 82.1419 19.3034C82.03 19.1854 81.8944 19.092 81.744 19.0292C81.5936 18.9663 81.4317 18.9355 81.2687 18.9387V18.9387Z" fill="#333333"/>
<path d="M94.5556 25.3409C94.0823 24.8598 93.5129 24.4828 92.8843 24.2342C92.1943 23.9635 91.4581 23.8287 90.7165 23.8373C90.018 23.8293 89.3272 23.9839 88.6993 24.2888C88.0808 24.595 87.5334 25.0263 87.0919 25.5551H87.0469V24.0921H85.3665V39.0385H87.0469V32.3605H87.0898C87.447 32.973 87.9676 33.475 88.5938 33.8109C89.3208 34.2162 90.1437 34.4202 90.9767 34.4017C91.6587 34.406 92.3343 34.2707 92.9616 34.0041C93.5673 33.7483 94.114 33.372 94.5682 32.8981C95.0295 32.4138 95.3922 31.8452 95.6363 31.2237C96.1538 29.8677 96.1538 28.3699 95.6363 27.0139C95.39 26.3909 95.0228 25.8224 94.5556 25.3409V25.3409ZM93.9622 30.5909C93.8053 31.0285 93.56 31.4294 93.2413 31.7688C92.9226 32.1082 92.5374 32.3789 92.1094 32.5642C91.1632 32.95 90.1025 32.95 89.1563 32.5642C88.7277 32.3789 88.342 32.108 88.0229 31.7682C87.7038 31.4284 87.4583 31.027 87.3015 30.5888C86.9712 29.6364 86.9712 28.6012 87.3015 27.6488C87.4583 27.2106 87.7038 26.8092 88.0229 26.4694C88.342 26.1296 88.7277 25.8587 89.1563 25.6734C90.1025 25.2876 91.1632 25.2876 92.1094 25.6734C92.538 25.8587 92.9238 26.1296 93.2428 26.4694C93.5619 26.8092 93.8074 27.2106 93.9643 27.6488C94.2945 28.6012 94.2945 29.6364 93.9643 30.5888L93.9622 30.5909Z" fill="#333333"/>
<path d="M104.5 29.121C104.18 28.883 103.824 28.6981 103.445 28.5736C103.029 28.4338 102.604 28.3225 102.173 28.2404C101.849 28.1853 101.529 28.1139 101.213 28.0262C100.931 27.95 100.657 27.8493 100.393 27.7252C100.182 27.6297 99.9906 27.4948 99.8304 27.3276C99.6941 27.1781 99.6209 26.982 99.6258 26.7802C99.6225 26.5623 99.6865 26.3487 99.8093 26.1684C99.9302 25.9902 100.088 25.84 100.273 25.7281C100.47 25.6093 100.685 25.5224 100.91 25.4705C101.14 25.4138 101.376 25.3849 101.613 25.3844C102.064 25.3704 102.509 25.4861 102.896 25.7176C103.245 25.9363 103.537 26.2342 103.748 26.587L105.15 25.6637C104.84 25.0534 104.335 24.5625 103.715 24.2672C103.091 23.9783 102.409 23.8318 101.72 23.8381C101.253 23.837 100.789 23.902 100.34 24.0313C99.9101 24.1534 99.5022 24.3424 99.1315 24.5913C98.777 24.8296 98.4819 25.1454 98.2688 25.5146C98.0481 25.9077 97.9365 26.3523 97.9453 26.8026C97.9277 27.2434 98.0282 27.6809 98.2364 28.0703C98.4264 28.396 98.6915 28.6719 99.0099 28.8753C99.3613 29.096 99.7425 29.2659 100.142 29.38C100.574 29.5088 101.027 29.6234 101.501 29.7237C101.775 29.7811 102.041 29.8455 102.299 29.9169C102.541 29.9816 102.774 30.0791 102.99 30.2067C103.18 30.319 103.345 30.4688 103.475 30.647C103.604 30.8443 103.668 31.0771 103.658 31.3127C103.666 31.5602 103.598 31.8042 103.464 32.0127C103.33 32.2103 103.153 32.3754 102.947 32.4957C102.723 32.6284 102.479 32.723 102.224 32.7757C101.965 32.8323 101.701 32.8611 101.436 32.8618C100.912 32.882 100.393 32.7554 99.9373 32.4964C99.5183 32.2309 99.1496 31.894 98.8481 31.501L97.5122 32.5321C97.9258 33.1715 98.5128 33.6811 99.2053 34.0021C99.9151 34.2825 100.674 34.4178 101.438 34.3997C101.935 34.4001 102.431 34.3425 102.914 34.2282C103.375 34.1223 103.813 33.937 104.209 33.6808C104.587 33.4308 104.9 33.0949 105.123 32.7008C105.364 32.2535 105.484 31.751 105.469 31.2434C105.482 30.807 105.394 30.3735 105.21 29.9771C105.043 29.641 104.8 29.348 104.5 29.121V29.121Z" fill="#333333"/>
<path d="M116.622 31.7582V24.0918H114.939V28.9918C114.944 29.5201 114.883 30.0469 114.756 30.5598C114.648 30.9995 114.457 31.4147 114.193 31.7834C113.943 32.1262 113.608 32.3996 113.222 32.5779C112.778 32.7743 112.295 32.87 111.809 32.8579C111.481 32.8843 111.151 32.8318 110.847 32.7048C110.542 32.5777 110.273 32.3799 110.062 32.1278C109.658 31.5423 109.46 30.84 109.5 30.1307V24.0918H107.817V30.298C107.812 30.8606 107.888 31.421 108.044 31.9619C108.179 32.4415 108.419 32.8853 108.747 33.2618C109.075 33.6298 109.484 33.9173 109.942 34.1018C110.488 34.314 111.071 34.4163 111.657 34.4028C112.051 34.406 112.444 34.3515 112.822 34.2411C113.163 34.1421 113.49 33.9978 113.792 33.812C114.067 33.6432 114.318 33.4374 114.536 33.2002C114.733 32.9892 114.896 32.7502 115.022 32.4911H115.065C115.065 32.7781 115.072 33.0581 115.087 33.3311C115.101 33.6041 115.108 33.8762 115.108 34.1473H116.705C116.705 33.8174 116.69 33.4522 116.661 33.0518C116.632 32.6514 116.619 32.2202 116.622 31.7582Z" fill="#333333"/>
<path d="M134.806 26.293C134.694 25.8067 134.472 25.352 134.158 24.963C133.842 24.5866 133.433 24.2974 132.972 24.123C132.392 23.9144 131.777 23.8161 131.16 23.8332C130.49 23.8041 129.828 23.9802 129.262 24.3379C128.737 24.7126 128.297 25.1917 127.968 25.7449C127.882 25.5727 127.77 25.3758 127.633 25.1541C127.481 24.9147 127.287 24.7039 127.062 24.5311C126.785 24.3213 126.476 24.156 126.148 24.0411C125.706 23.8934 125.243 23.8242 124.777 23.8367C124.383 23.8335 123.991 23.8879 123.613 23.9984C123.271 24.0974 122.945 24.2417 122.642 24.4275C122.367 24.5965 122.117 24.8023 121.898 25.0393C121.702 25.2503 121.538 25.4893 121.413 25.7484H121.369C121.369 25.4614 121.362 25.1828 121.348 24.9084C121.334 24.634 121.326 24.3645 121.326 24.0922H119.73C119.73 24.4221 119.745 24.7873 119.773 25.1877C119.802 25.5881 119.816 26.0177 119.816 26.4764V34.1421H121.5V29.2463C121.495 28.7178 121.556 28.1907 121.684 27.6776C121.791 27.2377 121.982 26.8224 122.246 26.454C122.496 26.1111 122.83 25.8376 123.216 25.6595C123.661 25.4629 124.143 25.3673 124.63 25.3795C124.918 25.355 125.207 25.4069 125.468 25.5298C125.73 25.6528 125.954 25.8424 126.117 26.0795C126.479 26.816 126.635 27.6354 126.571 28.4525V34.1435H128.25V28.3433C128.245 27.93 128.315 27.5191 128.455 27.1302C128.58 26.7854 128.771 26.4682 129.018 26.1964C129.251 25.9419 129.533 25.7373 129.848 25.5951C130.167 25.4516 130.513 25.3783 130.862 25.3802C131.278 25.3652 131.691 25.4459 132.07 25.6161C132.369 25.7598 132.628 25.9739 132.825 26.2398C133.014 26.503 133.147 26.8027 133.213 27.1197C133.285 27.4514 133.321 27.7898 133.321 28.1291V34.1421H135V28.043C135.006 27.454 134.941 26.8664 134.806 26.293Z" fill="#333333"/>
</g>
<defs>
<clipPath id="clip0_150_4535">
<rect width="135" height="56" fill="white"/>
</clipPath>
</defs>
</svg>
