<svg width="35" height="35" viewBox="0 0 35 35" fill="none" xmlns="http://www.w3.org/2000/svg">
<g clip-path="url(#clip0_2_1562)">
<path d="M34.0013 24.7313L26.345 21.4501C26.018 21.3107 25.6545 21.2813 25.3092 21.3664C24.964 21.4514 24.6558 21.6463 24.431 21.9217L21.0403 26.0643C15.7191 23.5554 11.4367 19.273 8.92773 13.9517L13.0703 10.5611C13.3463 10.3367 13.5416 10.0284 13.6267 9.68306C13.7118 9.33769 13.6821 8.974 13.542 8.64704L10.2607 0.990786C10.107 0.638331 9.83512 0.350564 9.49194 0.177104C9.14876 0.00364415 8.75582 -0.0446351 8.38086 0.0405911L1.27148 1.68122C0.909979 1.7647 0.587443 1.96824 0.356518 2.25864C0.125593 2.54903 -8.32761e-05 2.90912 4.13998e-08 3.28014C4.13998e-08 20.8143 14.2119 34.9989 31.7188 34.9989C32.0899 34.9991 32.4501 34.8735 32.7407 34.6426C33.0312 34.4116 33.2349 34.089 33.3184 33.7274L34.959 26.618C35.0437 26.2412 34.9944 25.8467 34.8196 25.5024C34.6448 25.158 34.3554 24.8854 34.0013 24.7313V24.7313Z" fill="#FEA400"/>
</g>
<defs>
<clipPath id="clip0_2_1562">
<rect width="35" height="35" fill="white"/>
</clipPath>
</defs>
</svg>
