<svg width="14" height="17" viewBox="0 0 14 17" fill="none" xmlns="http://www.w3.org/2000/svg">
<path opacity="0.5" d="M6.79988 0C4.45647 0 2.54995 1.90652 2.54995 4.24992V5.94989H1.69997C0.762436 5.94989 0 6.71233 0 7.64986V15.2997C0 16.2373 0.762436 16.9997 1.69997 16.9997H11.8998C12.8373 16.9997 13.5998 16.2373 13.5998 15.2997V7.64986C13.5998 6.71233 12.8373 5.94989 11.8998 5.94989H11.0498V4.24992C11.0498 1.90652 9.14328 0 6.79988 0ZM4.24992 4.24992C4.24992 2.84405 5.394 1.69997 6.79988 1.69997C8.20575 1.69997 9.34983 2.84405 9.34983 4.24992V5.94989H4.24992V4.24992ZM11.9015 15.2997H7.64986V13.3635C8.1556 13.0685 8.49984 12.5262 8.49984 11.8998C8.49984 10.9622 7.73741 10.1998 6.79988 10.1998C5.86234 10.1998 5.09991 10.9622 5.09991 11.8998C5.09991 12.5254 5.44415 13.0685 5.94989 13.3635V15.2997H1.69997V7.64986H11.8998L11.9015 15.2997V15.2997Z" fill="#03014C"/>
</svg>
