<svg width="22" height="21" viewBox="0 0 22 21" fill="none" xmlns="http://www.w3.org/2000/svg">
<path fill-rule="evenodd" clip-rule="evenodd" d="M15.7663 9.24808C15.2456 9.18917 14.7146 9.31729 14.2636 9.61822L12.0604 7.4494C12.3729 6.99325 12.5059 6.45519 12.4457 5.92844L18.3741 0L21.6931 3.31925L15.7663 9.24808ZM3.70959 16.6236L3.92407 16.8389L7.6871 13.0734L8.62413 13.9978L4.85484 17.7681L5.06999 17.9865L4.16229 19.1069L1.17722 21L0.69218 20.5156L2.58512 17.5321L3.70959 16.6236ZM9.07997 6.38459C9.51514 4.82891 9.12031 3.08992 7.89925 1.86616C6.68216 0.653902 4.96322 0.255682 3.41606 0.675758L6.03634 3.29487L5.34856 5.86017L2.77976 6.54743L0.161129 3.93024C-0.257608 5.47617 0.13968 7.19508 1.35446 8.41084C2.62779 9.68471 4.46231 10.0584 6.06635 9.53651L6.08142 9.55095L16.8586 20.328C17.285 20.7531 17.8438 20.969 18.4024 20.969C18.9612 20.969 19.5191 20.7531 19.9465 20.328C20.7989 19.4781 20.7989 18.0961 19.9465 17.239L9.07997 6.38459ZM18.59 19.9617C18.1319 19.9617 17.7599 19.5882 17.7599 19.1276C17.7599 18.6662 18.1319 18.2943 18.59 18.2943C19.0522 18.2943 19.4257 18.6662 19.4257 19.1276C19.4265 19.5882 19.053 19.9617 18.59 19.9617Z" fill="white"/>
</svg>
