<svg width="23" height="25" viewBox="0 0 23 25" fill="none" xmlns="http://www.w3.org/2000/svg">
<path d="M21.5625 3.97708L12.3625 0.14375C12.1229 0.0479167 11.7396 0 11.5 0C11.2125 0 10.8292 0.0479167 10.5896 0.14375L1.38958 3.97708C0.527083 4.36042 0 5.175 0 6.08542C0 15.6208 5.4625 22.1854 10.5896 24.3417C11.1646 24.5812 11.7875 24.5812 12.3625 24.3417C16.4833 22.6167 23 16.7229 23 6.08542C23 5.175 22.425 4.36042 21.5625 3.97708ZM11.5 21.3708V3.11458L19.8854 6.6125C19.7417 13.8479 15.9563 19.1187 11.5 21.3708Z" fill="#EA001E"/>
</svg>
