<svg width="57" height="50" viewBox="0 0 57 50" fill="none" xmlns="http://www.w3.org/2000/svg">
<g clip-path="url(#clip0_12_5781)">
<path d="M51.5625 0H4.6875C2.09961 0 0 2.09961 0 4.6875V35.9375C0 38.5254 2.09961 40.625 4.6875 40.625H23.4375L21.875 45.3125H14.8438C13.5449 45.3125 12.5 46.3574 12.5 47.6562C12.5 48.9551 13.5449 50 14.8438 50H41.4062C42.7051 50 43.75 48.9551 43.75 47.6562C43.75 46.3574 42.7051 45.3125 41.4062 45.3125H34.375L32.8125 40.625H51.5625C54.1504 40.625 56.25 38.5254 56.25 35.9375V4.6875C56.25 2.09961 54.1504 0 51.5625 0ZM50 34.375H6.25V6.25H50V34.375Z" fill="#FEFEFE"/>
</g>
<defs>
<clipPath id="clip0_12_5781">
<rect width="56.25" height="50" fill="white"/>
</clipPath>
</defs>
</svg>
