<svg width="85" height="12" viewBox="0 0 85 12" fill="none" xmlns="http://www.w3.org/2000/svg">
<path fill-rule="evenodd" clip-rule="evenodd" d="M5.51652 0.409442C5.78911 -0.139921 6.57224 -0.13303 6.84253 0.409442L8.35102 3.45286L11.7261 3.94247C12.3313 4.02981 12.5739 4.77227 12.135 5.19752L9.69318 7.56513L10.2707 10.9097C10.3747 11.5142 9.73478 11.9647 9.19883 11.6843L6.17953 10.1051L3.16022 11.6843C2.62427 11.967 1.98439 11.5142 2.08835 10.9097L2.66587 7.56513L0.224091 5.19752C-0.214829 4.77227 0.027732 4.02981 0.632983 3.94247L4.00803 3.45286L5.51652 0.409442Z" fill="#FFBD16"/>
<path fill-rule="evenodd" clip-rule="evenodd" d="M23.6768 0.409442C23.9493 -0.139921 24.7325 -0.13303 25.0028 0.409442L26.5113 3.45286L29.8863 3.94247C30.4916 4.02981 30.7341 4.77227 30.2952 5.19752L27.8534 7.56513L28.4309 10.9097C28.5349 11.5142 27.895 11.9647 27.3591 11.6843L24.3398 10.1051L21.3205 11.6843C20.7845 11.967 20.1446 11.5142 20.2486 10.9097L20.8261 7.56513L18.3843 5.19752C17.9454 4.77227 18.188 4.02981 18.7932 3.94247L22.1683 3.45286L23.6768 0.409442Z" fill="#FFBD16"/>
<path fill-rule="evenodd" clip-rule="evenodd" d="M41.837 0.409442C42.1096 -0.139921 42.8927 -0.13303 43.163 0.409442L44.6715 3.45286L48.0465 3.94247C48.6518 4.02981 48.8944 4.77227 48.4554 5.19752L46.0137 7.56513L46.5912 10.9097C46.6951 11.5142 46.0553 11.9647 45.5193 11.6843L42.5 10.1051L39.4807 11.6843C38.9447 11.967 38.3049 11.5142 38.4088 10.9097L38.9863 7.56513L36.5446 5.19752C36.1056 4.77227 36.3482 4.02981 36.9535 3.94247L40.3285 3.45286L41.837 0.409442Z" fill="#FFBD16"/>
<path fill-rule="evenodd" clip-rule="evenodd" d="M59.9972 0.409442C60.2698 -0.139921 61.053 -0.13303 61.3232 0.409442L62.8317 3.45286L66.2068 3.94247C66.812 4.02981 67.0546 4.77227 66.6157 5.19752L64.1739 7.56513L64.7514 10.9097C64.8554 11.5142 64.2155 11.9647 63.6795 11.6843L60.6602 10.1051L57.6409 11.6843C57.105 11.967 56.4651 11.5142 56.5691 10.9097L57.1466 7.56513L54.7048 5.19752C54.2659 4.77227 54.5084 4.02981 55.1137 3.94247L58.4887 3.45286L59.9972 0.409442Z" fill="#FFBD16"/>
<path fill-rule="evenodd" clip-rule="evenodd" d="M78.1575 0.409442C78.4301 -0.139921 79.2132 -0.13303 79.4835 0.409442L80.992 3.45286L84.367 3.94247C84.9723 4.02981 85.2148 4.77227 84.7759 5.19752L82.3341 7.56513L82.9117 10.9097C83.0156 11.5142 82.3757 11.9648 81.8398 11.6843L78.8205 10.1051L75.8012 11.6843C75.2652 11.967 74.6253 11.5142 74.7293 10.9097L75.3068 7.56513L72.865 5.19752C72.4261 4.77227 72.6687 4.02981 73.2739 3.94247L76.649 3.45286L78.1575 0.409442ZM77.5073 4.63666L74.5839 5.06074L76.6991 7.1116L76.1976 10.0158L78.8205 8.64398L81.4434 10.0158L80.9419 7.1116L83.057 5.06074L80.1336 4.63666L78.8205 1.98729L77.5073 4.63666Z" fill="#FFF4D7"/>
</svg>
