<svg width="1347" height="570" viewBox="0 0 1347 570" fill="none" xmlns="http://www.w3.org/2000/svg">
<rect width="1347" height="570" rx="12" fill="#F0E4F4"/>
<mask id="mask0_2_2194" style="mask-type:alpha" maskUnits="userSpaceOnUse" x="0" y="0" width="1347" height="570">
<rect width="1347" height="570" rx="12" fill="#F0E4F4"/>
</mask>
<g mask="url(#mask0_2_2194)">
<path d="M55.4805 -92C20.392 -92 -8.15234 -63.4557 -8.15234 -28.3671C-8.15234 6.72147 20.3905 35.2658 55.4805 35.2658C90.5691 35.2658 119.113 6.72147 119.113 -28.3671C119.112 -63.4557 90.5677 -92 55.4805 -92Z" fill="#D7CDDB" fill-opacity="0.29"/>
<path d="M268.211 210.997L56.1027 83.7328C43.0764 75.9088 26.7354 75.6076 13.3499 83.2153C0.0930601 90.6929 -8.15093 104.841 -8.15093 120.107V289.794H-8.15234C-8.15234 301.125 -3.74047 311.772 4.27586 319.788L76.6901 392.204V544.325C76.6901 567.71 95.7262 586.747 119.112 586.747C142.498 586.747 161.534 567.71 161.534 544.325V374.637C161.534 363.306 157.122 352.66 149.106 344.643L76.6901 272.229V195.03L224.545 283.745C245.061 296.042 271.055 288.611 282.75 269.224C294.722 249.201 288.4 223.066 268.211 210.997Z" fill="#D7CDDB" fill-opacity="0.29"/>
<path d="M-8.14822 367.346V404.217L-85.8652 520.792C-98.9325 540.416 -93.4898 566.691 -74.12 579.62C-54.678 592.563 -28.3425 587.442 -15.2723 567.855L34.2751 493.539V409.768L-8.14822 367.346Z" fill="#D7CDDB" fill-opacity="0.29"/>
<path d="M310.012 417.059H567.369C577.104 417.059 585.576 410.43 587.938 400.985L630.359 231.299C631.955 224.961 630.525 218.248 626.506 213.112C622.487 207.955 616.315 204.952 609.791 204.952H319.412C334.324 230.767 335.548 263.582 319.166 290.996C308.261 309.057 290.888 321.871 271.191 327.994L284.246 380.198C261.986 390.118 246.379 412.367 246.379 438.27C246.379 467.603 266.428 492.113 293.471 499.448C290.518 506.778 288.801 514.737 288.801 523.114C288.801 558.202 317.345 586.746 352.434 586.746C387.522 586.746 416.067 558.202 416.067 523.114C416.067 515.642 414.537 508.428 412.16 501.761H465.224C462.847 508.428 461.317 515.642 461.317 523.114C461.317 558.202 489.861 586.746 524.95 586.746C560.038 586.746 588.582 558.202 588.582 523.114C588.582 488.025 560.038 459.481 524.95 459.481H310.012C298.309 459.481 288.801 449.972 288.801 438.27C288.801 426.567 298.309 417.059 310.012 417.059ZM524.947 501.901C536.649 501.901 546.158 511.409 546.158 523.112C546.158 534.815 536.649 544.323 524.947 544.323C513.244 544.323 503.736 534.815 503.736 523.112C503.736 511.409 513.244 501.901 524.947 501.901ZM352.434 501.901C364.136 501.901 373.645 511.408 373.645 523.112C373.645 534.815 364.136 544.323 352.434 544.323C340.731 544.323 331.223 534.815 331.223 523.112C331.223 511.409 340.731 501.901 352.434 501.901Z" fill="#D7CDDB" fill-opacity="0.29"/>
</g>
</svg>
