<svg width="30" height="24" viewBox="0 0 30 24" fill="none" xmlns="http://www.w3.org/2000/svg">
<path d="M11.8125 11.4375C12.6562 9.28125 15.2344 7.5 17.5312 7.5C17.5312 7.5 17.5312 7.5 17.5781 7.5H19.3594C19.1719 6.84375 18.4688 6.09375 17.8125 5.8125L17.625 5.29688L16.7812 3C16.125 1.35938 14.1562 0 12.4219 0C12.4219 0 12.4219 0 12.375 0H7.07812C7.03125 0 7.03125 0 7.03125 0C5.29688 0 3.32812 1.35938 2.67188 3L1.875 5.29688L1.64062 5.8125C0.703125 6.1875 0 7.3125 0 8.29688V9.65625C0 10.3594 0.421875 11.2969 0.984375 11.7188V13.5C0.984375 14.3438 1.64062 15 2.48438 15H3.51562C4.35938 15 5.01562 14.3438 5.01562 13.5V12H11.5781L11.8125 11.4375ZM5.20312 4.3125C5.48438 3.5625 6.23438 3 7.07812 3H12.375C13.2188 3 13.9688 3.5625 14.25 4.3125L14.8594 6H4.64062L5.20312 4.3125ZM3.5625 10.125C2.85938 10.125 2.4375 9.70312 2.4375 9C2.4375 8.34375 2.85938 7.875 3.5625 7.875C4.21875 7.875 5.25 8.90625 5.25 9.5625C5.25 10.2656 4.21875 10.125 3.5625 10.125ZM28.3125 14.8125L28.125 14.2969L27.2812 12C26.625 10.3594 24.6562 9 22.9219 9H22.875H17.5781C17.5312 9 17.5312 9 17.5312 9C15.7969 9 13.8281 10.3594 13.1719 12L12.375 14.2969L12.1406 14.8125C11.2031 15.1875 10.5 16.3125 10.5 17.2969V18.6562C10.5 19.3594 10.9219 20.2969 11.4844 20.7188V22.5C11.4844 23.3438 12.1406 24 12.9844 24H14.0156C14.8594 24 15.5156 23.3438 15.5156 22.5V21H24.9375V22.5C24.9375 23.3438 25.5938 24 26.4375 24H27.4688C28.3125 24 28.9688 23.3438 28.9688 22.5V20.7188C29.5312 20.2969 29.9531 19.3594 30 18.6562V17.2969C29.9531 16.3125 29.25 15.1875 28.3125 14.8125ZM15.7031 13.3125C15.9844 12.5625 16.7344 12 17.5781 12H22.875C23.7188 12 24.4688 12.5625 24.75 13.3125L25.3594 15H15.1406L15.7031 13.3125ZM14.0625 19.125C13.3594 19.125 12.9375 18.7031 12.9375 18C12.9375 17.3438 13.3594 16.875 14.0625 16.875C14.7188 16.875 15.75 17.9062 15.75 18.5625C15.75 19.2656 14.7188 19.125 14.0625 19.125ZM26.4375 19.125C25.7344 19.125 24.75 19.2656 24.75 18.5625C24.75 17.9062 25.7344 16.875 26.4375 16.875C27.0938 16.875 27.5625 17.3438 27.5625 18C27.5625 18.7031 27.0938 19.125 26.4375 19.125Z" fill="#EA001E"/>
</svg>
