<svg width="153" height="27" viewBox="0 0 153 27" fill="none" xmlns="http://www.w3.org/2000/svg">
<path d="M23.553 0H2.82635C1.23653 0 0 1.29541 0 2.82635V23.553C0 25.1428 1.23653 26.3793 2.82635 26.3793H10.8932V17.4292H7.18365V13.1897H10.8932V10.01C10.8932 6.3593 13.0719 4.29841 16.3693 4.29841C18.018 4.29841 19.6667 4.59283 19.6667 4.59283V8.18465H17.8414C16.016 8.18465 15.4272 9.30342 15.4272 10.4811V13.1897H19.4901L18.8424 17.4292H15.4272V26.3793H23.553C25.0839 26.3793 26.3793 25.1428 26.3793 23.553V2.82635C26.3793 1.29541 25.0839 0 23.553 0Z" fill="#757575"/>
<path d="M65.7599 0H45.0333C43.4434 0 42.2069 1.29541 42.2069 2.82635V23.553C42.2069 25.1428 43.4434 26.3793 45.0333 26.3793H65.7599C67.2908 26.3793 68.5862 25.1428 68.5862 23.553V2.82635C68.5862 1.29541 67.2908 0 65.7599 0ZM62.8746 9.3623C62.8746 9.53895 62.8746 9.71559 62.8746 9.89224C62.8746 14.9561 58.9884 20.8444 51.8636 20.8444C49.685 20.8444 47.683 20.2555 45.9754 19.1368C46.2698 19.1957 46.5642 19.1957 46.8586 19.1957C48.684 19.1957 50.3327 18.548 51.687 17.547C49.9794 17.4881 48.5662 16.3693 48.0363 14.8384C48.684 14.9561 49.2139 14.9561 49.8027 14.7795C48.0363 14.4262 46.7408 12.8952 46.7408 11.011V10.9521C47.2119 11.2465 47.8007 11.4232 48.4484 11.4232C47.3885 10.7166 46.7408 9.53895 46.7408 8.24353C46.7408 7.47806 46.9175 6.83036 47.2708 6.24153C49.155 8.59683 52.0403 10.1278 55.2199 10.3044C54.69 7.71359 56.6331 5.53494 58.9884 5.53494C60.1071 5.53494 61.1081 6.006 61.8147 6.77147C62.698 6.59483 63.5223 6.30042 64.2878 5.82936C63.9934 6.77147 63.3457 7.47806 62.5802 7.94912C63.3457 7.89024 64.1111 7.65471 64.8177 7.3603C64.2878 8.12577 63.5812 8.83236 62.8746 9.3623Z" fill="#757575"/>
<path d="M97.6034 10.0689C95.837 10.0689 94.4238 11.4821 94.4238 13.1897C94.4238 14.9561 95.837 16.3693 97.6034 16.3693C99.311 16.3693 100.724 14.9561 100.724 13.1897C100.724 11.4821 99.311 10.0689 97.6034 10.0689ZM104.905 7.65471C104.61 6.83036 103.963 6.18265 103.138 5.88824C101.902 5.3583 98.9577 5.47606 97.6034 5.47606C96.1903 5.47606 93.2462 5.3583 92.0096 5.88824C91.1853 6.18265 90.5376 6.83036 90.2431 7.65471C89.7721 8.89124 89.831 11.8354 89.831 13.1897C89.831 14.6028 89.7721 17.547 90.2431 18.7835C90.5376 19.6078 91.1853 20.2555 92.0096 20.55C93.2462 21.0799 96.1903 20.9621 97.6034 20.9621C98.9577 20.9621 101.902 21.0799 103.138 20.55C103.963 20.2555 104.61 19.6078 104.905 18.7835C105.435 17.547 105.317 14.6028 105.317 13.1897C105.317 11.8354 105.435 8.89124 104.905 7.65471ZM97.6034 18.018C94.8949 18.018 92.7751 15.8982 92.7751 13.1897C92.7751 10.5399 94.8949 8.3613 97.6034 8.3613C100.253 8.3613 102.432 10.5399 102.432 13.1897V13.2485C102.432 15.8982 100.253 18.0769 97.6034 18.0769V18.018ZM102.608 9.30342C101.961 9.30342 101.49 8.83236 101.49 8.18465C101.49 7.53695 101.961 7.06589 102.608 7.06589C103.197 7.06589 103.727 7.53695 103.727 8.18465C103.727 8.83236 103.197 9.30342 102.608 9.30342ZM107.967 0H87.2401C85.6503 0 84.4138 1.29541 84.4138 2.82635V23.553C84.4138 25.1428 85.6503 26.3793 87.2401 26.3793H107.967C109.498 26.3793 110.793 25.1428 110.793 23.553V2.82635C110.793 1.29541 109.498 0 107.967 0ZM106.907 17.0759C106.848 18.6068 106.495 19.9611 105.435 21.021C104.316 22.1398 102.962 22.4931 101.49 22.552C99.8999 22.6697 95.2482 22.6697 93.7172 22.552C92.1863 22.4931 90.832 22.1398 89.7721 21.021C88.6533 19.9611 88.3 18.6068 88.2411 17.0759C88.1234 15.545 88.1234 10.8932 88.2411 9.30342C88.3 7.83136 88.6533 6.47706 89.7721 5.3583C90.832 4.29841 92.1863 3.94512 93.7172 3.88624C95.2482 3.76847 99.8999 3.76847 101.49 3.88624C102.962 3.94512 104.316 4.29841 105.435 5.41718C106.495 6.47706 106.848 7.83136 106.907 9.3623C107.025 10.8932 107.025 15.545 106.907 17.0759Z" fill="#757575"/>
<path d="M151.116 0H128.446C127.445 0 126.621 0.883236 126.621 1.94312V24.4951C126.621 25.555 127.445 26.3793 128.446 26.3793H151.116C152.117 26.3793 153 25.555 153 24.4951V1.94312C153 0.883236 152.117 0 151.116 0ZM134.57 22.6108H130.684V10.0689H134.57V22.6108ZM132.627 8.30242C131.331 8.30242 130.33 7.30142 130.33 6.06489C130.33 4.82836 131.331 3.76847 132.627 3.76847C133.863 3.76847 134.864 4.82836 134.864 6.06489C134.864 7.30142 133.863 8.30242 132.627 8.30242ZM149.232 22.6108H145.286V16.4871C145.286 15.0739 145.286 13.1897 143.284 13.1897C141.224 13.1897 140.929 14.7795 140.929 16.4282V22.6108H137.043V10.0689H140.752V11.7765H140.811C141.341 10.7755 142.637 9.71559 144.521 9.71559C148.466 9.71559 149.232 12.3653 149.232 15.7216V22.6108Z" fill="#757575"/>
</svg>
