<svg width="135" height="56" viewBox="0 0 135 56" fill="none" xmlns="http://www.w3.org/2000/svg">
<g clip-path="url(#clip0_150_4351)">
<path d="M0 24.334V29.2585C1.69031 29.2573 3.36427 29.588 4.92608 30.2315C6.4879 30.8751 7.90692 31.819 9.10195 33.0091C10.2967 34.1988 11.2442 35.6112 11.8902 37.1657C12.5363 38.7202 12.8683 40.3862 12.8672 42.0685H17.8102C17.8057 37.367 15.9279 32.8592 12.589 29.5344C9.24998 26.2096 4.7225 24.3394 0 24.334H0Z" fill="white"/>
<path d="M24.7197 15.4688H16.8862C20.849 17.9689 24.2069 21.3113 26.7187 25.2562V17.4574C26.7184 16.9299 26.5076 16.4241 26.1327 16.0511C25.7579 15.6782 25.2497 15.4687 24.7197 15.4688V15.4688Z" fill="white"/>
<path d="M4.92188 15.4688H0V19.9025C5.90327 19.9087 11.563 22.246 15.7373 26.4016C19.9116 30.5572 22.2595 36.1917 22.2659 42.0687H26.7188V37.1687C25.712 31.7833 23.0906 26.8277 19.1999 22.9542C15.3091 19.0807 10.3313 16.4711 4.92188 15.4688V15.4688Z" fill="white"/>
<path d="M38.8344 18.3965H35.697V34.1395H38.8344V18.3965Z" fill="white"/>
<path d="M50.3697 25.2171C49.8474 24.7445 49.2361 24.3797 48.5711 24.144C47.1427 23.6447 45.586 23.6447 44.1576 24.144C43.4924 24.3796 42.8808 24.7443 42.3583 25.2171C41.846 25.6874 41.4366 26.2579 41.156 26.8929C40.8659 27.5857 40.7166 28.3288 40.7166 29.0794C40.7166 29.8299 40.8659 30.5731 41.156 31.2658C41.4356 31.9027 41.845 32.4748 42.3583 32.9458C42.8799 33.419 43.4911 33.7836 44.1562 34.0182C45.5845 34.5185 47.1415 34.5185 48.5697 34.0182C49.235 33.7836 49.8465 33.419 50.3683 32.9458C50.8814 32.4746 51.2908 31.9026 51.5707 31.2658C51.8607 30.5731 52.0101 29.8299 52.0101 29.0794C52.0101 28.3288 51.8607 27.5857 51.5707 26.8929C51.2903 26.2581 50.8814 25.6877 50.3697 25.2171ZM48.2154 30.9333C47.7073 31.3889 47.0478 31.6411 46.364 31.6411C45.6803 31.6411 45.0207 31.3889 44.5127 30.9333C44.0857 30.4086 43.8527 29.7537 43.8527 29.0783C43.8527 28.403 44.0857 27.7481 44.5127 27.2233C45.0207 26.7677 45.6803 26.5156 46.364 26.5156C47.0478 26.5156 47.7073 26.7677 48.2154 27.2233C48.6424 27.7481 48.8754 28.403 48.8754 29.0783C48.8754 29.7537 48.6424 30.4086 48.2154 30.9333V30.9333Z" fill="white"/>
<path d="M61.6332 25.3529H61.5939C61.4488 25.1501 61.2803 24.9649 61.0918 24.8013C60.8635 24.6002 60.6108 24.4285 60.3395 24.2903C59.6537 23.94 58.8925 23.7614 58.1218 23.7702C57.4465 23.7584 56.7785 23.9122 56.177 24.2182C55.6165 24.5071 55.1216 24.9076 54.7229 25.3949C54.3164 25.8971 54.0046 26.4684 53.8025 27.0812C53.5877 27.7125 53.4782 28.3746 53.4784 29.0412C53.4705 29.7567 53.591 30.4678 53.8342 31.1412C54.0546 31.7556 54.3981 32.3191 54.8439 32.7974C55.288 33.2654 55.827 33.634 56.4252 33.8789C57.0755 34.1428 57.7726 34.2737 58.4748 34.2639C58.9942 34.2549 59.5078 34.1527 59.9907 33.9622C60.5323 33.7576 61.0016 33.3991 61.34 32.9311H61.3822V33.9111C61.394 34.2379 61.3399 34.5638 61.2231 34.8696C61.1063 35.1753 60.9292 35.4547 60.7023 35.6912C60.4143 35.9448 60.0777 36.1376 59.7127 36.2579C59.3477 36.3783 58.962 36.4236 58.5789 36.3912C57.9714 36.3979 57.3694 36.2772 56.8119 36.037C56.2573 35.7902 55.7397 35.4679 55.2742 35.0794L53.5382 37.6589C54.2477 38.2279 55.0772 38.6301 55.9646 38.8356C56.8428 39.0366 57.7411 39.1378 58.6421 39.1373C60.6221 39.1373 62.0966 38.641 63.0655 37.6484C64.0344 36.6558 64.5191 35.2016 64.5196 33.286V24.0201H61.6368L61.6332 25.3529ZM61.4448 29.9652C61.321 30.2615 61.1397 30.5305 60.9111 30.7569C60.6785 30.9877 60.4057 31.1746 60.106 31.3085C59.7949 31.446 59.4582 31.5171 59.1178 31.5171C58.7774 31.5171 58.4407 31.446 58.1296 31.3085C57.8339 31.1727 57.5647 30.9859 57.3343 30.7569C57.1048 30.5286 56.9227 30.2576 56.7985 29.9592C56.6743 29.6608 56.6103 29.341 56.6103 29.0181C56.6103 28.6951 56.6743 28.3753 56.7985 28.0769C56.9227 27.7786 57.1048 27.5075 57.3343 27.2793C57.5648 27.0502 57.834 26.8632 58.1296 26.727C58.4408 26.5899 58.7774 26.5191 59.1178 26.5191C59.4582 26.5191 59.7948 26.5899 60.106 26.727C60.4056 26.8614 60.6783 27.0485 60.9111 27.2793C61.2563 27.6246 61.4911 28.0639 61.5861 28.5418C61.681 29.0198 61.6319 29.515 61.4448 29.9652V29.9652Z" fill="white"/>
<path d="M76.306 25.2171C75.7837 24.7445 75.1724 24.3797 74.5074 24.144C73.079 23.6447 71.5223 23.6447 70.0939 24.144C69.4287 24.3796 68.817 24.7443 68.2946 25.2171C67.7822 25.6874 67.3729 26.2579 67.0923 26.8929C66.8022 27.5857 66.6528 28.3288 66.6528 29.0794C66.6528 29.8299 66.8022 30.5731 67.0923 31.2658C67.3719 31.9027 67.7813 32.4748 68.2946 32.9458C68.8165 33.4192 69.4283 33.7838 70.0939 34.0182C71.5222 34.5185 73.0791 34.5185 74.5074 34.0182C75.1727 33.7836 75.7842 33.419 76.306 32.9458C76.8193 32.4748 77.2288 31.9027 77.5084 31.2658C77.7984 30.5731 77.9478 29.8299 77.9478 29.0794C77.9478 28.3288 77.7984 27.5857 77.5084 26.8929C77.2277 26.2579 76.8184 25.6874 76.306 25.2171V25.2171ZM74.1516 30.9333C73.6436 31.3889 72.9841 31.6411 72.3003 31.6411C71.6165 31.6411 70.957 31.3889 70.449 30.9333C70.022 30.4086 69.789 29.7537 69.789 29.0783C69.789 28.403 70.022 27.7481 70.449 27.2233C70.957 26.7677 71.6165 26.5156 72.3003 26.5156C72.9841 26.5156 73.6436 26.7677 74.1516 27.2233C74.5786 27.7481 74.8116 28.403 74.8116 29.0783C74.8116 29.7537 74.5786 30.4086 74.1516 30.9333Z" fill="white"/>
<path d="M82.1096 24.0898H80.427V34.1397H82.1096V24.0898Z" fill="white"/>
<path d="M81.2687 18.9358C81.1055 18.9327 80.9435 18.9635 80.793 19.0263C80.6425 19.0891 80.5069 19.1825 80.3947 19.3005C80.2236 19.4722 80.1074 19.6905 80.0608 19.9278C80.0141 20.1652 80.039 20.411 80.1325 20.6342C80.2259 20.8575 80.3836 21.0482 80.5857 21.1824C80.7879 21.3165 81.0254 21.3881 81.2683 21.3881C81.5112 21.3881 81.7487 21.3165 81.9509 21.1824C82.153 21.0482 82.3107 20.8575 82.4042 20.6342C82.4976 20.411 82.5225 20.1652 82.4759 19.9278C82.4292 19.6905 82.313 19.4722 82.1419 19.3005C82.03 19.1824 81.8944 19.089 81.744 19.0262C81.5936 18.9634 81.4317 18.9326 81.2687 18.9358V18.9358Z" fill="white"/>
<path d="M94.5556 25.3399C94.0823 24.8588 93.5129 24.4818 92.8843 24.2332C92.1943 23.9625 91.4581 23.8277 90.7165 23.8363C90.018 23.8283 89.3272 23.983 88.6993 24.2878C88.0808 24.594 87.5334 25.0253 87.0919 25.5541H87.0469V24.0911H85.3665V39.0375H87.0469V32.3595H87.0898C87.447 32.972 87.9676 33.474 88.5938 33.8099C89.3208 34.2152 90.1437 34.4192 90.9767 34.4007C91.6587 34.405 92.3343 34.2697 92.9616 34.0031C93.5673 33.7474 94.114 33.371 94.5682 32.8971C95.0295 32.4129 95.3922 31.8443 95.6363 31.2227C96.1538 29.8668 96.1538 28.3689 95.6363 27.0129C95.39 26.39 95.0228 25.8214 94.5556 25.3399V25.3399ZM93.9622 30.5899C93.8053 31.0275 93.56 31.4284 93.2413 31.7678C92.9226 32.1072 92.5374 32.378 92.1094 32.5632C91.1632 32.949 90.1025 32.949 89.1563 32.5632C88.7277 32.378 88.342 32.107 88.0229 31.7672C87.7038 31.4274 87.4583 31.026 87.3015 30.5878C86.9712 29.6354 86.9712 28.6003 87.3015 27.6478C87.4583 27.2097 87.7038 26.8082 88.0229 26.4684C88.342 26.1286 88.7277 25.8577 89.1563 25.6724C90.1025 25.2866 91.1632 25.2866 92.1094 25.6724C92.538 25.8577 92.9238 26.1286 93.2428 26.4684C93.5619 26.8082 93.8074 27.2097 93.9643 27.6478C94.2945 28.6003 94.2945 29.6354 93.9643 30.5878L93.9622 30.5899Z" fill="white"/>
<path d="M104.5 29.119C104.18 28.881 103.824 28.6961 103.445 28.5716C103.029 28.4319 102.604 28.3205 102.173 28.2384C101.849 28.1834 101.529 28.1119 101.213 28.0242C100.931 27.9481 100.657 27.8473 100.393 27.7232C100.182 27.6278 99.9906 27.4928 99.8304 27.3256C99.6941 27.1761 99.6209 26.9801 99.6258 26.7782C99.6225 26.5604 99.6865 26.3468 99.8093 26.1664C99.9302 25.9883 100.088 25.8381 100.273 25.7261C100.47 25.6074 100.685 25.5204 100.91 25.4685C101.14 25.4118 101.376 25.3829 101.613 25.3824C102.064 25.3685 102.509 25.4841 102.896 25.7156C103.245 25.9343 103.537 26.2323 103.748 26.585L105.15 25.6617C104.84 25.0515 104.335 24.5605 103.715 24.2652C103.091 23.9764 102.409 23.8298 101.72 23.8361C101.253 23.835 100.789 23.9001 100.34 24.0293C99.9101 24.1514 99.5022 24.3404 99.1315 24.5893C98.777 24.8276 98.4819 25.1434 98.2688 25.5126C98.0481 25.9058 97.9365 26.3503 97.9453 26.8006C97.9277 27.2414 98.0282 27.6789 98.2364 28.0683C98.4264 28.394 98.6915 28.67 99.0099 28.8733C99.3613 29.094 99.7425 29.2639 100.142 29.378C100.574 29.5068 101.027 29.6214 101.501 29.7217C101.775 29.7791 102.041 29.8435 102.299 29.9149C102.541 29.9797 102.774 30.0772 102.99 30.2047C103.18 30.317 103.345 30.4669 103.475 30.645C103.604 30.8424 103.668 31.0752 103.658 31.3107C103.666 31.5582 103.598 31.8022 103.464 32.0107C103.33 32.2083 103.153 32.3734 102.947 32.4937C102.723 32.6265 102.479 32.7211 102.224 32.7737C101.965 32.8303 101.701 32.8592 101.436 32.8598C100.912 32.88 100.393 32.7534 99.9373 32.4944C99.5183 32.229 99.1496 31.892 98.8481 31.499L97.5122 32.5301C97.9258 33.1695 98.5128 33.6792 99.2053 34.0001C99.9151 34.2806 100.674 34.4158 101.438 34.3977C101.935 34.3981 102.431 34.3406 102.914 34.2262C103.375 34.1203 103.813 33.935 104.209 33.6788C104.587 33.4288 104.9 33.0929 105.123 32.6988C105.364 32.2516 105.484 31.749 105.469 31.2414C105.482 30.8051 105.394 30.3715 105.21 29.9751C105.043 29.6391 104.8 29.3461 104.5 29.119V29.119Z" fill="white"/>
<path d="M116.622 31.7562V24.0898H114.939V28.9898C114.944 29.5181 114.883 30.0449 114.756 30.5578C114.648 30.9975 114.457 31.4128 114.193 31.7814C113.943 32.1242 113.608 32.3977 113.222 32.5759C112.778 32.7724 112.295 32.868 111.809 32.8559C111.481 32.8824 111.151 32.8299 110.847 32.7028C110.542 32.5758 110.273 32.3779 110.062 32.1258C109.658 31.5404 109.46 30.838 109.5 30.1287V24.0898H107.817V30.296C107.812 30.8586 107.888 31.419 108.044 31.9599C108.179 32.4395 108.419 32.8834 108.747 33.2598C109.075 33.6279 109.484 33.9154 109.942 34.0998C110.488 34.312 111.071 34.4143 111.657 34.4008C112.051 34.404 112.444 34.3495 112.822 34.2391C113.163 34.1401 113.49 33.9958 113.792 33.81C114.067 33.6413 114.318 33.4354 114.536 33.1982C114.733 32.9872 114.896 32.7482 115.022 32.4891H115.065C115.065 32.7761 115.072 33.0561 115.087 33.3291C115.101 33.6021 115.108 33.8742 115.108 34.1453H116.705C116.705 33.8154 116.69 33.4502 116.661 33.0498C116.632 32.6494 116.619 32.2182 116.622 31.7562Z" fill="white"/>
<path d="M134.806 26.291C134.694 25.8047 134.472 25.3501 134.158 24.961C133.842 24.5846 133.433 24.2954 132.972 24.121C132.392 23.9125 131.777 23.8142 131.16 23.8312C130.49 23.8021 129.828 23.9783 129.262 24.3359C128.737 24.7106 128.297 25.1897 127.968 25.7429C127.882 25.5707 127.77 25.3738 127.633 25.1521C127.481 24.9128 127.287 24.7019 127.062 24.5291C126.785 24.3194 126.476 24.154 126.148 24.0391C125.706 23.8915 125.243 23.8223 124.777 23.8347C124.383 23.8315 123.991 23.886 123.613 23.9964C123.271 24.0954 122.945 24.2398 122.642 24.4255C122.367 24.5945 122.117 24.8004 121.898 25.0373C121.702 25.2483 121.538 25.4873 121.413 25.7464H121.369C121.369 25.4594 121.362 25.1808 121.348 24.9064C121.334 24.632 121.326 24.3625 121.326 24.0902H119.73C119.73 24.4202 119.745 24.7853 119.773 25.1857C119.802 25.5861 119.816 26.0157 119.816 26.4744V34.1401H121.5V29.2443C121.495 28.7158 121.556 28.1888 121.684 27.6756C121.791 27.2358 121.982 26.8204 122.246 26.452C122.496 26.1092 122.83 25.8357 123.216 25.6575C123.661 25.461 124.143 25.3653 124.63 25.3775C124.918 25.353 125.207 25.4049 125.468 25.5279C125.73 25.6508 125.954 25.8405 126.117 26.0775C126.479 26.814 126.635 27.6334 126.571 28.4505V34.1415H128.25V28.3413C128.245 27.928 128.315 27.5171 128.455 27.1282C128.58 26.7835 128.771 26.4663 129.018 26.1944C129.251 25.9399 129.533 25.7354 129.848 25.5931C130.167 25.4496 130.513 25.3763 130.862 25.3782C131.278 25.3632 131.691 25.4439 132.07 25.6141C132.369 25.7578 132.628 25.9719 132.825 26.2378C133.014 26.5011 133.147 26.8007 133.213 27.1177C133.285 27.4494 133.321 27.7878 133.321 28.1271V34.1401H135V28.041C135.006 27.4521 134.941 26.8645 134.806 26.291Z" fill="white"/>
</g>
<defs>
<clipPath id="clip0_150_4351">
<rect width="135" height="56" fill="white"/>
</clipPath>
</defs>
</svg>
