<svg width="20" height="20" viewBox="0 0 20 20" fill="none" xmlns="http://www.w3.org/2000/svg">
<g clip-path="url(#clip0_2_1203)">
<path d="M19.4293 14.1314L15.0543 12.2564C14.8674 12.1767 14.6597 12.1599 14.4624 12.2085C14.2652 12.2571 14.089 12.3685 13.9605 12.5259L12.023 14.8931C8.98232 13.4594 6.53524 11.0123 5.10156 7.97159L7.46875 6.03409C7.62644 5.90584 7.73804 5.72971 7.78668 5.53236C7.83531 5.335 7.81832 5.12718 7.73828 4.94034L5.86328 0.565344C5.77544 0.363941 5.62007 0.199502 5.42397 0.100383C5.22787 0.00126275 5.00332 -0.0263254 4.78906 0.0223753L0.726563 0.959875C0.519988 1.00758 0.335682 1.12389 0.203725 1.28983C0.0717677 1.45577 -4.75863e-05 1.66154 2.36571e-08 1.87355C2.36571e-08 11.8931 8.12109 19.9985 18.125 19.9985C18.3371 19.9987 18.5429 19.9269 18.709 19.7949C18.875 19.663 18.9913 19.4786 19.0391 19.272L19.9766 15.2095C20.0249 14.9942 19.9968 14.7687 19.8969 14.572C19.797 14.3752 19.6317 14.2194 19.4293 14.1314V14.1314Z" fill="#010101"/>
</g>
<defs>
<clipPath id="clip0_2_1203">
<rect width="20" height="20" fill="white"/>
</clipPath>
</defs>
</svg>
