<svg width="33" height="28" viewBox="0 0 33 28" fill="none" xmlns="http://www.w3.org/2000/svg">
<path fill-rule="evenodd" clip-rule="evenodd" d="M11.4407 26.0928C10.1695 27.364 8.59725 27.9996 6.72392 27.9996C4.78368 27.9996 3.17797 27.3473 1.90678 26.0426C0.635594 24.738 0 23.1156 0 21.1753C0 20.2387 0.117083 19.2853 0.35125 18.3152C0.585416 17.345 1.07047 15.9233 1.80643 14.05L6.52321 0H12.8457L9.13249 14.9532C10.4706 15.4215 11.5076 16.1909 12.2436 17.2614C12.9795 18.3319 13.3475 19.6365 13.3475 21.1753C13.3475 23.1825 12.7119 24.8216 11.4407 26.0928ZM30.4082 26.0928C29.137 27.364 27.5647 27.9996 25.6914 27.9996C23.7512 27.9996 22.1454 27.3473 20.8743 26.0426C19.6031 24.738 18.9675 23.1156 18.9675 21.1753C18.9675 20.2387 19.0846 19.2853 19.3187 18.3152C19.5529 17.345 20.038 15.9233 20.7739 14.05L25.4907 0H31.8132L28.1 14.9532C29.4381 15.4215 30.4751 16.1909 31.211 17.2614C31.947 18.3319 32.315 19.6365 32.315 21.1753C32.315 23.1825 31.6794 24.8216 30.4082 26.0928Z" fill="#FF3B00"/>
</svg>
