<svg width="24" height="24" viewBox="0 0 24 24" fill="none" xmlns="http://www.w3.org/2000/svg">
<path d="M19.25 8L21.8 4.6C21.9112 4.45136 21.9788 4.27474 21.9953 4.08987C22.0119 3.90501 21.9767 3.71918 21.8937 3.55317C21.8107 3.38716 21.6831 3.24751 21.5253 3.14982C21.3675 3.05213 21.1856 3.00026 21 3H9C9 2.73478 8.89464 2.48043 8.70711 2.29289C8.51957 2.10536 8.26522 2 8 2C7.73478 2 7.48043 2.10536 7.29289 2.29289C7.10536 2.48043 7 2.73478 7 3V20H6C5.73478 20 5.48043 20.1054 5.29289 20.2929C5.10536 20.4804 5 20.7348 5 21C5 21.2652 5.10536 21.5196 5.29289 21.7071C5.48043 21.8946 5.73478 22 6 22H10C10.2652 22 10.5196 21.8946 10.7071 21.7071C10.8946 21.5196 11 21.2652 11 21C11 20.7348 10.8946 20.4804 10.7071 20.2929C10.5196 20.1054 10.2652 20 10 20H9V13H21C21.1856 12.9997 21.3675 12.9479 21.5253 12.8502C21.6831 12.7525 21.8107 12.6128 21.8937 12.4468C21.9767 12.2808 22.0119 12.095 21.9953 11.9101C21.9788 11.7253 21.9112 11.5486 21.8 11.4L19.25 8Z" fill="white"/>
</svg>
