<svg width="60" height="60" viewBox="0 0 60 60" fill="none" xmlns="http://www.w3.org/2000/svg">
<path fill-rule="evenodd" clip-rule="evenodd" d="M27.5 5C27.5 3.61929 28.6193 2.5 30 2.5C38.2842 2.5 45 9.21572 45 17.5C45 21.3418 43.5557 24.8462 41.1805 27.5H55C56.3807 27.5 57.5 28.6193 57.5 30C57.5 38.2842 50.7842 45 42.5 45C38.6582 45 35.1538 43.5557 32.5 41.1805V55C32.5 56.3807 31.3807 57.5 30 57.5C21.7158 57.5 15 50.7842 15 42.5C15 38.6582 16.4443 35.1538 18.8195 32.5H5C3.61929 32.5 2.5 31.3807 2.5 30C2.5 21.7158 9.21572 15 17.5 15C21.3418 15 24.8462 16.4443 27.5 18.8195V5ZM27.1849 27.5C26.0748 23.187 22.1595 20 17.5 20C12.8404 20 8.92516 23.187 7.81505 27.5H27.1849ZM27.5 32.8151C23.187 33.9252 20 37.8405 20 42.5C20 47.1595 23.187 51.0748 27.5 52.1849V32.8151ZM32.8151 32.5H52.1849C51.0748 36.813 47.1595 40 42.5 40C37.8405 40 33.9252 36.813 32.8151 32.5ZM32.5 27.1849C36.813 26.0748 40 22.1595 40 17.5C40 12.8404 36.813 8.92516 32.5 7.81505V27.1849Z" fill="#FEFEFE"/>
</svg>
