<svg width="34" height="30" viewBox="0 0 34 30" fill="none" xmlns="http://www.w3.org/2000/svg">
<g clip-path="url(#clip0_16_15473)">
<path d="M30.9375 1.875H2.8125C1.25977 1.875 0 3.13477 0 4.6875V25.3125C0 26.8652 1.25977 28.125 2.8125 28.125H30.9375C32.4902 28.125 33.75 26.8652 33.75 25.3125V4.6875C33.75 3.13477 32.4902 1.875 30.9375 1.875ZM10.3125 7.5C12.3809 7.5 14.0625 9.18164 14.0625 11.25C14.0625 13.3184 12.3809 15 10.3125 15C8.24414 15 6.5625 13.3184 6.5625 11.25C6.5625 9.18164 8.24414 7.5 10.3125 7.5ZM16.875 21.375C16.875 21.9961 16.2891 22.5 15.5625 22.5H5.0625C4.33594 22.5 3.75 21.9961 3.75 21.375V20.25C3.75 18.3867 5.51367 16.875 7.6875 16.875H7.98047C8.70117 17.1738 9.48633 17.3438 10.3125 17.3438C11.1387 17.3438 11.9297 17.1738 12.6445 16.875H12.9375C15.1113 16.875 16.875 18.3867 16.875 20.25V21.375ZM30 18.2812C30 18.5391 29.7891 18.75 29.5312 18.75H21.0938C20.8359 18.75 20.625 18.5391 20.625 18.2812V17.3438C20.625 17.0859 20.8359 16.875 21.0938 16.875H29.5312C29.7891 16.875 30 17.0859 30 17.3438V18.2812ZM30 14.5312C30 14.7891 29.7891 15 29.5312 15H21.0938C20.8359 15 20.625 14.7891 20.625 14.5312V13.5938C20.625 13.3359 20.8359 13.125 21.0938 13.125H29.5312C29.7891 13.125 30 13.3359 30 13.5938V14.5312ZM30 10.7812C30 11.0391 29.7891 11.25 29.5312 11.25H21.0938C20.8359 11.25 20.625 11.0391 20.625 10.7812V9.84375C20.625 9.58594 20.8359 9.375 21.0938 9.375H29.5312C29.7891 9.375 30 9.58594 30 9.84375V10.7812Z" fill="#12908D"/>
</g>
<defs>
<clipPath id="clip0_16_15473">
<rect width="33.75" height="30" fill="white"/>
</clipPath>
</defs>
</svg>
