<svg width="55" height="42" viewBox="0 0 55 42" fill="none" xmlns="http://www.w3.org/2000/svg">
<path d="M54.8944 2.72088V12.2067C54.8944 13.7085 53.6778 14.9276 52.1735 14.9276C50.6717 14.9276 49.4526 13.7088 49.4526 12.2067V9.28784L22.4831 36.2596C21.4188 37.3217 19.697 37.3217 18.6348 36.2596L14.1118 31.7343L3.84829 42L0 38.1517L12.1876 25.9641C13.2498 24.8997 14.9716 24.8997 16.0337 25.9641L20.559 30.4871L45.6044 5.44176H42.6877C41.1859 5.44176 39.9668 4.22295 39.9668 2.72088C39.9668 1.21906 41.1856 0 42.6877 0H52.1735C53.6775 0.000244398 54.8944 1.21906 54.8944 2.72088V2.72088Z" fill="#FF6C6C"/>
</svg>
