<svg width="18" height="10" viewBox="0 0 18 10" fill="none" xmlns="http://www.w3.org/2000/svg">
<path d="M17.0746 9.92486C16.5639 9.92486 16.1494 9.51035 16.1494 8.99963C16.1494 5.23951 13.0961 2.03545 9.34341 1.8578C5.58606 1.68432 2.23628 4.57797 1.88238 8.31635C1.8611 8.53979 1.85046 8.76925 1.85046 8.99963C1.85046 9.51035 1.43595 9.92486 0.925228 9.92486C0.414502 9.92486 0 9.51035 0 8.99963C0 8.71096 0.0134158 8.42229 0.0402474 8.14194C0.485744 3.43439 4.70339 -0.212853 9.43084 0.00966413C14.156 0.233106 17.9998 4.26617 17.9998 8.99963C17.9998 9.51082 17.5853 9.92486 17.0746 9.92486V9.92486Z" fill="#595959"/>
</svg>
