<svg width="32" height="32" viewBox="0 0 32 32" fill="none" xmlns="http://www.w3.org/2000/svg">
<path d="M16.0002 19.9996C15.8248 20.0006 15.6508 19.967 15.4884 19.9006C15.3259 19.8343 15.1782 19.7365 15.0536 19.6129L9.72025 14.2796C9.46918 14.0285 9.32812 13.688 9.32812 13.3329C9.32812 12.9779 9.46918 12.6373 9.72025 12.3863C9.97132 12.1352 10.3118 11.9941 10.6669 11.9941C11.022 11.9941 11.3625 12.1352 11.6136 12.3863L16.0002 16.7863L20.3869 12.3996C20.642 12.1812 20.9701 12.067 21.3057 12.08C21.6412 12.0929 21.9595 12.2321 22.197 12.4695C22.4345 12.707 22.5736 13.0253 22.5865 13.3609C22.5995 13.6964 22.4853 14.0245 22.2669 14.2796L16.9336 19.6129C16.6852 19.8593 16.35 19.9981 16.0002 19.9996Z" fill="#333333"/>
</svg>
