<svg width="18" height="14" viewBox="0 0 18 14" fill="none" xmlns="http://www.w3.org/2000/svg">
<path fill-rule="evenodd" clip-rule="evenodd" d="M11.2303 7.81046C10.598 8.29905 9.6759 9.01167 9 9C8.32411 9.01167 7.40198 8.29905 6.76974 7.81045C6.63903 7.70944 6.52071 7.618 6.41952 7.54452C2.09553 4.4066 1.47421 3.92038 0.549896 3.19703C0.476955 3.13995 0.402127 3.08139 0.323444 3.01994C0.119545 2.8582 0 2.61564 0 2.35547V1.6875C0 0.755859 0.755859 0 1.6875 0H16.3125C17.2441 0 18 0.755859 18 1.6875V2.35547C18 2.61564 17.8805 2.86173 17.6766 3.01994L17.4197 3.22155L17.2363 3.36537C17.1755 3.41294 17.1147 3.46045 17.0526 3.50877L16.9263 3.60677C16.1539 4.20447 15.0794 5.00536 11.5805 7.54452C11.4793 7.618 11.361 7.70944 11.2303 7.81046ZM18 11.8125C18 12.7441 17.2441 13.5 16.3125 13.5H1.6875C0.755859 13.5 0 12.7441 0 11.8125V4.62655C0 4.45077 0.200398 4.35234 0.341023 4.46134C1.1285 5.07304 2.17265 5.85001 5.75859 8.45508C5.87105 8.53716 5.99522 8.63297 6.12932 8.73644C6.87979 9.31551 7.94116 10.1345 9 10.1285C10.0638 10.1375 11.1427 9.30288 11.8814 8.73144C12.0143 8.62866 12.1361 8.53439 12.2449 8.45508C15.8309 5.85001 16.8715 5.06954 17.659 4.45781C17.7961 4.34884 18 4.45077 18 4.62305V11.8125Z" fill="#171717"/>
</svg>
