<svg width="14" height="14" viewBox="0 0 14 14" fill="none" xmlns="http://www.w3.org/2000/svg">
<path d="M7 0C3.13306 0 0 3.13306 0 7C0 10.8669 3.13306 14 7 14C10.8669 14 14 10.8669 14 7C14 3.13306 10.8669 0 7 0ZM7 12.6452C3.86694 12.6452 1.35484 10.1331 1.35484 7C1.35484 3.89516 3.86694 1.35484 7 1.35484C10.1048 1.35484 12.6452 3.89516 12.6452 7C12.6452 10.1331 10.1048 12.6452 7 12.6452ZM8.72177 9.70968C8.89113 9.82258 9.08871 9.79435 9.20161 9.625L9.7379 8.91935C9.85081 8.75 9.82258 8.55242 9.65323 8.43952L7.79032 7.05645V3.04839C7.79032 2.87903 7.62097 2.70968 7.45161 2.70968H6.54839C6.35081 2.70968 6.20968 2.87903 6.20968 3.04839V7.70565C6.20968 7.79032 6.2379 7.90323 6.32258 7.95968L8.72177 9.70968Z" fill="#264653"/>
</svg>
