<svg width="56" height="56" viewBox="0 0 56 56" fill="none" xmlns="http://www.w3.org/2000/svg">
<path d="M28.0001 11.6667C16.8771 11.6667 8.16675 16.8001 8.16675 23.3334V32.6668C8.16675 37.9938 14.2171 42.5974 22.9111 43.9344C23.4011 44.1929 23.9461 44.3297 24.5001 44.3334H31.5001C32.0541 44.3297 32.5991 44.1929 33.0891 43.9344C41.7831 42.5974 47.8334 37.9938 47.8334 32.6668V23.3334C47.8334 16.8001 39.1231 11.6667 28.0001 11.6667ZM10.5001 32.6668V28.9054C13.5105 31.8315 17.3604 33.743 21.5111 34.3724C21.1799 34.9126 21.0032 35.5332 21.0001 36.1668V40.8334C21.0001 40.9548 21.0234 41.0668 21.0351 41.1881C14.8074 39.7041 10.5001 36.3254 10.5001 32.6668ZM32.6668 40.8334C32.6547 41.139 32.5279 41.4287 32.3116 41.645C32.0954 41.8612 31.8056 41.988 31.5001 42.0001H29.1668V39.6668H30.3334C30.6428 39.6668 30.9396 39.5438 31.1584 39.325C31.3772 39.1063 31.5001 38.8095 31.5001 38.5001C31.5001 38.1907 31.3772 37.8939 31.1584 37.6751C30.9396 37.4563 30.6428 37.3334 30.3334 37.3334H29.1668V35.0001H31.5001C31.8095 35.0001 32.1063 35.123 32.325 35.3418C32.5438 35.5606 32.6668 35.8573 32.6668 36.1668V40.8334ZM23.3334 40.8334V36.1668C23.3334 35.8573 23.4563 35.5606 23.6751 35.3418C23.8939 35.123 24.1907 35.0001 24.5001 35.0001H26.8334V37.3334C26.524 37.3334 26.2273 37.4563 26.0085 37.6751C25.7897 37.8939 25.6668 38.1907 25.6668 38.5001C25.6668 38.8095 25.7897 39.1063 26.0085 39.325C26.2273 39.5438 26.524 39.6668 26.8334 39.6668V42.0001H24.5001C24.1942 41.9891 23.9038 41.8626 23.6873 41.6462C23.4709 41.4297 23.3444 41.1393 23.3334 40.8334V40.8334ZM34.7294 30.6018C34.9628 27.7761 31.9994 26.0588 29.1668 25.7321V23.3987C34.6524 23.8771 38.3554 27.5894 34.7294 30.6018ZM23.3334 30.3334C23.3334 29.2321 25.3284 28.0001 28.0001 28.0001C30.5388 28.0001 32.4334 29.2321 32.4334 30.3334C32.4334 31.4348 30.5388 32.6668 28.0001 32.6668C26.1008 32.6668 23.3334 31.7824 23.3334 30.3334ZM26.8334 25.7438C23.4874 26.1054 21.0001 27.9814 21.0001 30.3288C17.7334 27.1788 21.8098 23.8374 26.8334 23.4034V25.7438ZM38.0521 29.9438C38.3313 29.3328 38.4837 28.6716 38.5001 28.0001C38.5001 24.0731 33.8871 21.0001 28.0001 21.0001C22.1131 21.0001 17.5001 24.0731 17.5001 28.0001C17.5155 28.674 17.668 29.3377 17.9481 29.9508C17.1717 29.516 16.5127 28.8987 16.0281 28.1524C15.5436 27.406 15.2479 26.5529 15.1667 25.6668C15.1667 21.8727 21.0444 18.6667 28.0001 18.6667C34.9558 18.6667 40.8334 21.8727 40.8334 25.6668C40.7522 26.5529 40.4566 27.406 39.972 28.1524C39.4874 28.8987 38.8285 29.516 38.0521 29.9508V29.9438ZM45.5001 32.6668C45.5001 36.3254 41.1928 39.7041 34.9651 41.1881C34.9768 41.0691 35.0001 40.9548 35.0001 40.8334V36.1668C34.997 35.5332 34.8203 34.9126 34.4891 34.3724C38.6397 33.743 42.4897 31.8315 45.5001 28.9054V32.6668ZM42.4831 28.4924C42.929 27.617 43.1631 26.6492 43.1668 25.6668C43.1668 20.4331 36.5051 16.3334 28.0001 16.3334C19.4951 16.3334 12.8334 20.4331 12.8334 25.6668C12.8373 26.6491 13.0714 27.6169 13.5171 28.4924C12.6535 27.9201 11.9325 27.1575 11.4095 26.2632C10.8865 25.3689 10.5754 24.3667 10.5001 23.3334C10.5001 18.2747 18.5151 14.0001 28.0001 14.0001C37.4851 14.0001 45.5001 18.2747 45.5001 23.3334C45.4247 24.3667 45.1136 25.3689 44.5906 26.2632C44.0676 27.1575 43.3467 27.9201 42.4831 28.4924V28.4924Z" fill="#393D46"/>
</svg>
