<svg width="270" height="270" viewBox="0 0 270 270" fill="none" xmlns="http://www.w3.org/2000/svg">
<rect width="270" height="270" rx="135" fill="#FEFEFE"/>
<g clip-path="url(#clip0_12_6115)">
<path d="M159.977 141.215L172.477 103.715H151.107C148.23 103.714 145.426 102.809 143.091 101.126C140.757 99.4436 139.012 97.0693 138.102 94.3396C137.191 91.6097 135.445 89.2354 133.111 87.5528C130.776 85.8703 127.971 84.9648 125.094 84.9646H97.4766L109.977 141.215H159.977ZM84.9766 178.715C84.9766 180.372 85.635 181.962 86.8071 183.134C87.9792 184.306 89.569 184.965 91.2266 184.965H178.727C180.384 184.965 181.974 184.306 183.146 183.134C184.318 181.962 184.977 180.372 184.977 178.715V166.215H84.9766V178.715ZM178.727 128.715H170.73L166.564 141.215H169.352C170.18 141.215 170.975 141.544 171.561 142.13C172.147 142.716 172.477 143.511 172.477 144.34C172.477 145.168 172.147 145.963 171.561 146.549C170.975 147.135 170.18 147.465 169.352 147.465H100.602C99.7728 147.465 98.9779 147.135 98.3919 146.549C97.8058 145.963 97.4766 145.168 97.4766 144.34C97.4766 143.511 97.8058 142.716 98.3919 142.13C98.9779 141.544 99.7728 141.215 100.602 141.215H103.572L100.795 128.715H91.2246C89.567 128.715 87.9773 129.373 86.8052 130.545C85.6331 131.717 84.9746 133.307 84.9746 134.965V159.965H184.975V134.965C184.975 133.307 184.316 131.718 183.145 130.546C181.973 129.374 180.384 128.715 178.727 128.715Z" fill="#00272B"/>
</g>
<defs>
<clipPath id="clip0_12_6115">
<rect width="100" height="100" fill="white" transform="translate(85 85)"/>
</clipPath>
</defs>
</svg>
