<svg width="24" height="24" viewBox="0 0 24 24" fill="none" xmlns="http://www.w3.org/2000/svg">
<path d="M12 16.0418C12.4418 16.0418 12.8 15.6755 12.8 15.2236C12.8 14.7718 12.4418 14.4055 12 14.4055C11.5582 14.4055 11.2 14.7718 11.2 15.2236C11.2 15.6755 11.5582 16.0418 12 16.0418Z" fill="#2130B8"/>
<path d="M12 12.8672C12.4418 12.8672 12.8 12.5009 12.8 12.0491C12.8 11.5972 12.4418 11.2309 12 11.2309C11.5582 11.2309 11.2 11.5972 11.2 12.0491C11.2 12.5009 11.5582 12.8672 12 12.8672Z" fill="#2130B8"/>
<path d="M12 9.59453C12.4418 9.59453 12.8 9.22822 12.8 8.77635C12.8 8.32448 12.4418 7.95817 12 7.95817C11.5582 7.95817 11.2 8.32448 11.2 8.77635C11.2 9.22822 11.5582 9.59453 12 9.59453Z" fill="#2130B8"/>
<path d="M22.048 21H1.952C1.4343 21 0.937799 20.7897 0.571728 20.4153C0.205657 20.0409 0 19.5331 0 19.0036V15.8455C0.00358292 15.5088 0.123683 15.1844 0.338977 14.9298C0.554271 14.6751 0.85083 14.5068 1.176 14.4545C1.74536 14.3622 2.26321 14.0634 2.63486 13.6127C3.0065 13.162 3.20711 12.5895 3.2 12C3.20682 11.4093 3.00509 10.8358 2.63183 10.3849C2.25857 9.93407 1.73883 9.636 1.168 9.54545C0.843609 9.49304 0.548014 9.32435 0.334043 9.06955C0.120073 8.81474 0.00167136 8.49042 0 8.15455V4.99636C0 4.4669 0.205657 3.95911 0.571728 3.58472C0.937799 3.21033 1.4343 3 1.952 3H22.048C22.5657 3 23.0622 3.21033 23.4283 3.58472C23.7943 3.95911 24 4.4669 24 4.99636V8.15455C23.998 8.49163 23.8785 8.81692 23.6629 9.0719C23.4473 9.32688 23.1499 9.4948 22.824 9.54545C22.2546 9.63778 21.7368 9.93661 21.3651 10.3873C20.9935 10.838 20.7929 11.4105 20.8 12C20.7932 12.5907 20.9949 13.1642 21.3682 13.6151C21.7414 14.0659 22.2612 14.364 22.832 14.4545C23.1557 14.5085 23.4504 14.6776 23.6641 14.9321C23.8778 15.1866 23.9967 15.51 24 15.8455V19.0036C24 19.5331 23.7943 20.0409 23.4283 20.4153C23.0622 20.7897 22.5657 21 22.048 21ZM1.6 16.0255V19.0118C1.6 19.1073 1.63709 19.1989 1.7031 19.2664C1.76911 19.3339 1.85864 19.3718 1.952 19.3718H22.048C22.1414 19.3718 22.2309 19.3339 22.2969 19.2664C22.3629 19.1989 22.4 19.1073 22.4 19.0118V16.0255C21.4824 15.8502 20.6537 15.3522 20.0573 14.6178C19.4609 13.8834 19.1344 12.9588 19.1344 12.0041C19.1344 11.0494 19.4609 10.1248 20.0573 9.3904C20.6537 8.65598 21.4824 8.15801 22.4 7.98273V4.99636C22.4 4.90089 22.3629 4.80932 22.2969 4.74181C22.2309 4.67429 22.1414 4.63636 22.048 4.63636H1.952C1.85864 4.63636 1.76911 4.67429 1.7031 4.74181C1.63709 4.80932 1.6 4.90089 1.6 4.99636V7.98273C2.51759 8.15801 3.34634 8.65598 3.94273 9.3904C4.53911 10.1248 4.86558 11.0494 4.86558 12.0041C4.86558 12.9588 4.53911 13.8834 3.94273 14.6178C3.34634 15.3522 2.51759 15.8502 1.6 16.0255Z" fill="#2130B8"/>
</svg>
