<svg width="136" height="56" viewBox="0 0 136 56" fill="none" xmlns="http://www.w3.org/2000/svg">
<g clip-path="url(#clip0_319_4863)">
<path d="M0 24.3359V29.2604C1.70283 29.2593 3.38919 29.5899 4.96257 30.2335C6.53596 30.8771 7.96549 31.8209 9.16937 33.011C10.373 34.2007 11.3275 35.6132 11.9783 37.1677C12.6292 38.7221 12.9636 40.3881 12.9625 42.0704H17.9421C17.9376 37.3689 16.0459 32.8612 12.6822 29.5364C9.3185 26.2116 4.75748 24.3413 0 24.3359H0Z" fill="white"/>
<path d="M24.9033 15.4702H17.0117C21.0039 17.9704 24.3866 21.3128 26.9171 25.2576V17.4589C26.9167 16.9313 26.7043 16.4255 26.3267 16.0526C25.9491 15.6797 25.4371 15.4702 24.9033 15.4702V15.4702Z" fill="white"/>
<path d="M4.95833 15.4702H0V19.904C5.94699 19.9101 11.6487 22.2474 15.8539 26.4031C20.0591 30.5587 22.4244 36.1932 22.4308 42.0702H26.9167V37.1702C25.9024 31.7848 23.2617 26.8291 19.3421 22.9557C15.4225 19.0822 10.4079 16.4725 4.95833 15.4702V15.4702Z" fill="white"/>
<path d="M39.1215 18.3984H35.9609V34.1414H39.1215V18.3984Z" fill="white"/>
<path d="M50.7432 25.2191C50.2171 24.7464 49.6012 24.3817 48.9313 24.146C47.4923 23.6466 45.9241 23.6466 44.4851 24.146C43.8149 24.3815 43.1988 24.7463 42.6725 25.2191C42.1563 25.6894 41.744 26.2599 41.4612 26.8949C41.169 27.5877 41.0186 28.3308 41.0186 29.0813C41.0186 29.8319 41.169 30.575 41.4612 31.2678C41.7429 31.9046 42.1554 32.4767 42.6725 32.9478C43.1979 33.421 43.8137 33.7856 44.4837 34.0202C45.9225 34.5204 47.4911 34.5204 48.9299 34.0202C49.6001 33.7856 50.2162 33.421 50.7418 32.9478C51.2587 32.4765 51.6711 31.9045 51.9531 31.2678C52.2453 30.575 52.3957 29.8319 52.3957 29.0813C52.3957 28.3308 52.2453 27.5877 51.9531 26.8949C51.6706 26.2601 51.2587 25.6896 50.7432 25.2191ZM48.5729 30.9353C48.0611 31.3909 47.3967 31.643 46.7079 31.643C46.019 31.643 45.3546 31.3909 44.8428 30.9353C44.4126 30.4105 44.1779 29.7557 44.1779 29.0803C44.1779 28.4049 44.4126 27.7501 44.8428 27.2253C45.3546 26.7697 46.019 26.5176 46.7079 26.5176C47.3967 26.5176 48.0611 26.7697 48.5729 27.2253C49.0031 27.7501 49.2378 28.4049 49.2378 29.0803C49.2378 29.7557 49.0031 30.4105 48.5729 30.9353V30.9353Z" fill="white"/>
<path d="M62.0896 25.3543H62.05C61.9038 25.1515 61.7341 24.9664 61.5442 24.8027C61.3143 24.6017 61.0596 24.43 60.7863 24.2917C60.0955 23.9414 59.3286 23.7629 58.5522 23.7716C57.8718 23.7599 57.199 23.9137 56.593 24.2196C56.0283 24.5086 55.5297 24.9091 55.1281 25.3963C54.7186 25.8985 54.4045 26.4698 54.2009 27.0826C53.9845 27.7139 53.8742 28.376 53.8744 29.0426C53.8664 29.7581 53.9878 30.4693 54.2328 31.1426C54.4548 31.7571 54.8009 32.3206 55.25 32.7988C55.6974 33.2668 56.2404 33.6355 56.843 33.8803C57.4982 34.1442 58.2004 34.2751 58.9078 34.2653C59.4311 34.2564 59.9484 34.1542 60.435 33.9636C60.9806 33.7591 61.4533 33.4005 61.7943 32.9325H61.8368V33.9125C61.8486 34.2394 61.7941 34.5653 61.6765 34.871C61.5588 35.1768 61.3804 35.4561 61.1518 35.6926C60.8617 35.9463 60.5226 36.1391 60.1549 36.2594C59.7872 36.3797 59.3986 36.425 59.0126 36.3926C58.4007 36.3994 57.7942 36.2787 57.2326 36.0384C56.6738 35.7917 56.1525 35.4694 55.6835 35.0808L53.9346 37.6603C54.6494 38.2293 55.485 38.6316 56.3791 38.837C57.2637 39.038 58.1686 39.1393 59.0764 39.1387C61.0711 39.1387 62.5564 38.6424 63.5325 37.6498C64.5086 36.6572 64.9969 35.2031 64.9974 33.2874V24.0215H62.0932L62.0896 25.3543ZM61.8998 29.9666C61.7751 30.2629 61.5924 30.532 61.3622 30.7583C61.1278 30.9891 60.853 31.176 60.5511 31.3099C60.2377 31.4475 59.8985 31.5186 59.5556 31.5186C59.2126 31.5186 58.8735 31.4475 58.56 31.3099C58.2622 31.1741 57.991 30.9874 57.7589 30.7583C57.5277 30.5301 57.3442 30.259 57.2191 29.9607C57.0939 29.6623 57.0295 29.3425 57.0295 29.0195C57.0295 28.6966 57.0939 28.3767 57.2191 28.0784C57.3442 27.78 57.5277 27.509 57.7589 27.2807C57.9911 27.0516 58.2623 26.8647 58.56 26.7284C58.8736 26.5913 59.2127 26.5205 59.5556 26.5205C59.8985 26.5205 60.2376 26.5913 60.5511 26.7284C60.8529 26.8628 61.1276 27.0499 61.3622 27.2807C61.7099 27.6261 61.9465 28.0654 62.0421 28.5433C62.1378 29.0212 62.0883 29.5164 61.8998 29.9666V29.9666Z" fill="white"/>
<path d="M76.8712 25.2191C76.345 24.7464 75.7291 24.3817 75.0593 24.146C73.6202 23.6466 72.052 23.6466 70.613 24.146C69.9429 24.3815 69.3267 24.7463 68.8004 25.2191C68.2842 25.6894 67.8719 26.2599 67.5892 26.8949C67.2969 27.5877 67.1465 28.3308 67.1465 29.0813C67.1465 29.8319 67.2969 30.575 67.5892 31.2678C67.8708 31.9046 68.2833 32.4767 68.8004 32.9478C69.3262 33.4211 69.9425 33.7857 70.613 34.0202C72.0519 34.5204 73.6204 34.5204 75.0593 34.0202C75.7295 33.7856 76.3455 33.421 76.8712 32.9478C77.3883 32.4767 77.8007 31.9046 78.0824 31.2678C78.3746 30.575 78.5251 29.8319 78.5251 29.0813C78.5251 28.3308 78.3746 27.5877 78.0824 26.8949C77.7997 26.2599 77.3873 25.6894 76.8712 25.2191V25.2191ZM74.7008 30.9353C74.189 31.3909 73.5246 31.643 72.8358 31.643C72.147 31.643 71.4825 31.3909 70.9707 30.9353C70.5406 30.4105 70.3059 29.7557 70.3059 29.0803C70.3059 28.4049 70.5406 27.7501 70.9707 27.2253C71.4825 26.7697 72.147 26.5176 72.8358 26.5176C73.5246 26.5176 74.189 26.7697 74.7008 27.2253C75.131 27.7501 75.3657 28.4049 75.3657 29.0803C75.3657 29.7557 75.131 30.4105 74.7008 30.9353Z" fill="white"/>
<path d="M82.7175 24.0913H81.0225V34.1412H82.7175V24.0913Z" fill="white"/>
<path d="M81.8708 18.9382C81.7064 18.9351 81.5432 18.966 81.3916 19.0288C81.24 19.0916 81.1033 19.1849 80.9903 19.3029C80.818 19.4746 80.7009 19.6929 80.6539 19.9303C80.6069 20.1676 80.6321 20.4134 80.7262 20.6367C80.8203 20.8599 80.9792 21.0506 81.1828 21.1848C81.3865 21.319 81.6257 21.3906 81.8704 21.3906C82.1152 21.3906 82.3544 21.319 82.5581 21.1848C82.7617 21.0506 82.9206 20.8599 83.0147 20.6367C83.1088 20.4134 83.134 20.1676 83.087 19.9303C83.0399 19.6929 82.9229 19.4746 82.7505 19.3029C82.6377 19.1849 82.5012 19.0915 82.3497 19.0287C82.1982 18.9659 82.0351 18.935 81.8708 18.9382V18.9382Z" fill="white"/>
<path d="M95.2562 25.3404C94.7794 24.8593 94.2058 24.4823 93.5725 24.2337C92.8775 23.963 92.1358 23.8282 91.3887 23.8368C90.685 23.8288 89.9891 23.9834 89.3565 24.2883C88.7335 24.5945 88.182 25.0258 87.7373 25.5546H87.6919V24.0916H85.999V39.038H87.6919V32.36H87.7351C88.095 32.9725 88.6194 33.4745 89.2503 33.8104C89.9827 34.2157 90.8116 34.4197 91.6508 34.4012C92.3379 34.4055 93.0185 34.2702 93.6504 34.0036C94.2606 33.7478 94.8114 33.3715 95.269 32.8976C95.7336 32.4133 96.099 31.8448 96.3449 31.2232C96.8663 29.8672 96.8663 28.3694 96.3449 27.0134C96.0969 26.3904 95.7269 25.8219 95.2562 25.3404V25.3404ZM94.6584 30.5904C94.5004 31.028 94.2532 31.4289 93.9322 31.7683C93.6112 32.1077 93.2231 32.3784 92.7919 32.5637C91.8387 32.9495 90.7702 32.9495 89.8169 32.5637C89.3852 32.3784 88.9966 32.1075 88.6751 31.7677C88.3537 31.4279 88.1063 31.0265 87.9484 30.5883C87.6156 29.6359 87.6156 28.6007 87.9484 27.6483C88.1063 27.2102 88.3537 26.8087 88.6751 26.4689C88.9966 26.1291 89.3852 25.8582 89.8169 25.6729C90.7702 25.2871 91.8387 25.2871 92.7919 25.6729C93.2237 25.8582 93.6123 26.1291 93.9337 26.4689C94.2552 26.8087 94.5025 27.2102 94.6605 27.6483C94.9933 28.6007 94.9933 29.6359 94.6605 30.5883L94.6584 30.5904Z" fill="white"/>
<path d="M105.274 29.12C104.952 28.882 104.593 28.6971 104.211 28.5726C103.792 28.4328 103.364 28.3215 102.929 28.2394C102.603 28.1844 102.281 28.1129 101.962 28.0252C101.679 27.949 101.402 27.8483 101.136 27.7242C100.924 27.6288 100.731 27.4938 100.57 27.3266C100.432 27.1771 100.359 26.9811 100.364 26.7792C100.36 26.5614 100.425 26.3478 100.548 26.1674C100.67 25.9892 100.83 25.8391 101.015 25.7271C101.214 25.6083 101.431 25.5214 101.657 25.4695C101.889 25.4128 102.127 25.3839 102.365 25.3834C102.82 25.3694 103.269 25.4851 103.658 25.7166C104.01 25.9353 104.304 26.2332 104.517 26.586L105.929 25.6627C105.616 25.0524 105.108 24.5615 104.483 24.2662C103.854 23.9774 103.168 23.8308 102.474 23.8371C102.003 23.836 101.535 23.9011 101.083 24.0303C100.65 24.1524 100.239 24.3414 99.8657 24.5903C99.5085 24.8286 99.2112 25.1444 98.9965 25.5136C98.7742 25.9068 98.6618 26.3513 98.6707 26.8016C98.653 27.2424 98.7542 27.6799 98.964 28.0693C99.1553 28.395 99.4224 28.6709 99.7431 28.8743C100.097 29.095 100.481 29.2649 100.884 29.379C101.318 29.5078 101.775 29.6224 102.253 29.7227C102.529 29.7801 102.797 29.8445 103.057 29.9159C103.301 29.9806 103.535 30.0782 103.752 30.2057C103.944 30.318 104.11 30.4679 104.241 30.646C104.372 30.8433 104.436 31.0762 104.426 31.3117C104.434 31.5592 104.366 31.8032 104.23 32.0117C104.095 32.2093 103.917 32.3744 103.709 32.4947C103.484 32.6274 103.238 32.7221 102.981 32.7747C102.72 32.8313 102.454 32.8601 102.188 32.8608C101.66 32.881 101.136 32.7544 100.677 32.4954C100.255 32.2299 99.8839 31.893 99.5802 31.5L98.2344 32.5311C98.651 33.1705 99.2424 33.6802 99.94 34.0011C100.655 34.2816 101.42 34.4168 102.189 34.3987C102.69 34.3991 103.189 34.3416 103.676 34.2272C104.14 34.1213 104.581 33.936 104.981 33.6798C105.362 33.4298 105.677 33.0939 105.901 32.6998C106.145 32.2525 106.265 31.75 106.25 31.2424C106.264 30.806 106.174 30.3725 105.989 29.9761C105.821 29.6401 105.576 29.3471 105.274 29.12V29.12Z" fill="white"/>
<path d="M117.485 31.7577V24.0913H115.79V28.9913C115.796 29.5196 115.733 30.0464 115.605 30.5593C115.497 30.999 115.304 31.4142 115.039 31.7829C114.786 32.1257 114.45 32.3991 114.06 32.5774C113.613 32.7738 113.127 32.8695 112.637 32.8574C112.306 32.8839 111.974 32.8314 111.667 32.7043C111.361 32.5773 111.09 32.3794 110.877 32.1273C110.47 31.5418 110.271 30.8395 110.311 30.1302V24.0913H108.615V30.2975C108.61 30.8601 108.687 31.4205 108.844 31.9614C108.98 32.441 109.222 32.8849 109.552 33.2613C109.882 33.6293 110.294 33.9168 110.756 34.1013C111.306 34.3135 111.893 34.4158 112.484 34.4023C112.881 34.4055 113.276 34.351 113.657 34.2406C114.001 34.1416 114.33 33.9973 114.635 33.8115C114.912 33.6428 115.164 33.4369 115.384 33.1997C115.582 32.9887 115.747 32.7497 115.874 32.4906H115.917C115.917 32.7776 115.924 33.0576 115.939 33.3306C115.954 33.6036 115.961 33.8757 115.96 34.1468H117.569C117.569 33.8169 117.554 33.4517 117.525 33.0513C117.496 32.6509 117.482 32.2197 117.485 31.7577Z" fill="white"/>
<path d="M135.805 26.293C135.691 25.8067 135.468 25.352 135.152 24.963C134.833 24.5866 134.422 24.2974 133.957 24.123C133.372 23.9144 132.753 23.8161 132.132 23.8332C131.457 23.8041 130.79 23.9802 130.219 24.3379C129.691 24.7126 129.247 25.1917 128.916 25.7449C128.829 25.5727 128.717 25.3758 128.579 25.1541C128.425 24.9147 128.23 24.7039 128.003 24.5311C127.724 24.3213 127.413 24.156 127.082 24.0411C126.638 23.8934 126.17 23.8242 125.702 23.8367C125.305 23.8335 124.909 23.8879 124.529 23.9984C124.185 24.0974 123.855 24.2417 123.55 24.4275C123.273 24.5965 123.021 24.8023 122.801 25.0393C122.603 25.2503 122.438 25.4893 122.312 25.7484H122.268C122.268 25.4614 122.261 25.1828 122.247 24.9084C122.233 24.634 122.225 24.3645 122.225 24.0922H120.617C120.617 24.4221 120.632 24.7873 120.66 25.1877C120.689 25.5881 120.704 26.0177 120.704 26.4764V34.1421H122.4V29.2463C122.395 28.7178 122.457 28.1907 122.585 27.6776C122.693 27.2377 122.885 26.8224 123.152 26.454C123.404 26.1111 123.74 25.8376 124.129 25.6595C124.577 25.4629 125.063 25.3673 125.553 25.3795C125.843 25.355 126.134 25.4069 126.398 25.5298C126.661 25.6528 126.887 25.8424 127.052 26.0795C127.416 26.816 127.573 27.6354 127.509 28.4525V34.1435H129.2V28.3433C129.195 27.93 129.265 27.5191 129.407 27.1302C129.532 26.7854 129.725 26.4682 129.974 26.1964C130.208 25.9419 130.493 25.7373 130.81 25.5951C131.131 25.4516 131.479 25.3782 131.832 25.3802C132.25 25.3652 132.667 25.4459 133.048 25.6161C133.349 25.7598 133.61 25.9739 133.808 26.2398C133.999 26.503 134.133 26.8027 134.2 27.1197C134.273 27.4514 134.309 27.7898 134.309 28.1291V34.1421H136V28.043C136.006 27.454 135.941 26.8664 135.805 26.293Z" fill="white"/>
</g>
<defs>
<clipPath id="clip0_319_4863">
<rect width="136" height="56" fill="white"/>
</clipPath>
</defs>
</svg>
