<svg width="34" height="34" viewBox="0 0 34 34" fill="none" xmlns="http://www.w3.org/2000/svg">
<path fill-rule="evenodd" clip-rule="evenodd" d="M30.7618 29.9523V14.2843L32.6488 15.9826C32.9812 16.2817 33.493 16.2548 33.7921 15.9224C34.0912 15.5901 34.0642 15.0783 33.7319 14.7792L17.5415 0.207809C17.2336 -0.0692696 16.7663 -0.0692696 16.4584 0.207809L0.267987 14.7792C-0.0643295 15.0783 -0.0912691 15.5901 0.207816 15.9224C0.506901 16.2548 1.01875 16.2817 1.35107 15.9826L3.23809 14.2843V29.9523C3.23809 32.1877 5.05027 33.9999 7.2857 33.9999H12.1428C12.5899 33.9999 12.9524 33.6375 12.9524 33.1904L12.9523 26.6649C12.9523 25.3537 14.0369 24.2856 15.3809 24.2856H18.619C19.963 24.2856 21.0476 25.3537 21.0476 26.6649L21.0476 33.1904C21.0476 33.6375 21.41 33.9999 21.8571 33.9999H26.7142C28.9496 33.9999 30.7618 32.1877 30.7618 29.9523ZM17 1.89862L29.1428 12.8272V29.9523C29.1428 31.2936 28.0555 32.3809 26.7142 32.3809H22.6666L22.6666 26.6649C22.6666 24.4539 20.8517 22.6666 18.619 22.6666H15.3809C13.1482 22.6666 11.3333 24.4539 11.3333 26.6649L11.3333 32.3809H7.2857C5.94444 32.3809 4.85714 31.2936 4.85714 29.9523V12.8272L17 1.89862Z" fill="#1DA599"/>
</svg>
