<svg width="99" height="107" viewBox="0 0 99 107" fill="none" xmlns="http://www.w3.org/2000/svg">
<path d="M97.7886 104.148H75.2856V56.9791C75.2524 57.0098 75.2189 54.9037 75.1855 53.4334L88.0656 40.5523C88.0823 42.6926 89.8286 44.4289 91.973 44.4289C94.1278 44.4289 95.8808 42.6759 95.8808 40.521V31.1195C95.8808 28.9647 94.1278 27.2117 91.973 27.2117H82.5715C80.4166 27.2117 78.6639 28.9647 78.6639 31.1195C78.6639 33.2632 80.3989 35.0092 82.5385 35.0271L75.2853 42.2803V37.6504C75.2853 36.3148 74.1987 35.2281 72.863 35.2281H53.0499C52.3809 35.2281 51.8388 35.7705 51.8388 36.4393C51.8388 37.1081 52.3809 37.6504 53.0499 37.6504H72.863V44.7026L60.6391 56.9265L57.0115 53.3009C56.2737 52.5614 55.2922 52.1539 54.2485 52.1539C53.2047 52.1539 52.2232 52.5614 51.4864 53.2999L46.2698 58.5162V10.9009C46.2698 9.56526 45.1831 8.47864 43.8475 8.47864H20.0871V4.11784C20.0871 3.44906 19.5447 2.90671 18.8759 2.90671C18.2072 2.90671 17.6648 3.44906 17.6648 4.11784V8.47864H14.6544V1.21113C14.6544 0.542344 14.1121 0 13.4433 0C12.7745 0 12.2322 0.542344 12.2322 1.21113V8.47864H7.66355C6.32791 8.47864 5.24129 9.56526 5.24129 10.9009V73.6733C5.24129 74.3421 5.78363 74.8844 6.45242 74.8844C7.1212 74.8844 7.66355 74.3421 7.66355 73.6733V10.9009H43.848V104.148H7.66355V81.6646C7.66355 80.9958 7.1212 80.4534 6.45242 80.4534C5.78363 80.4534 5.24129 80.9958 5.24129 81.6646V104.148H1.21113C0.542344 104.148 0 104.69 0 105.359C0 106.027 0.542344 106.57 1.21113 106.57H97.7888C98.4579 106.57 99 106.027 99 105.359C99 104.69 98.4576 104.148 97.7886 104.148V104.148ZM53.2001 55.012C53.4804 54.731 53.8527 54.5764 54.2487 54.5764C54.6447 54.5764 55.017 54.7312 55.2983 55.0132L59.7833 59.496C60.2564 59.9686 61.0233 59.9686 61.4959 59.4958L86.3189 34.6727C86.6656 34.3263 86.769 33.8053 86.5815 33.3528C86.3943 32.9003 85.9525 32.6053 85.4627 32.6053H82.5717C81.7527 32.6053 81.0864 31.939 81.0864 31.12C81.0864 30.3008 81.7527 29.6344 82.5717 29.6344H91.9732C92.7924 29.6344 93.4588 30.3008 93.4588 31.12V40.5215C93.4588 41.3407 92.7924 42.0071 91.9732 42.0071C91.1543 42.0071 90.4879 41.3407 90.4879 40.5215V37.6286C90.4879 37.1388 90.1929 36.697 89.7402 36.5095C89.2882 36.3225 88.7666 36.4257 88.4203 36.7721L61.6911 63.5032C61.1107 64.0824 60.1677 64.0826 59.5893 63.5042L55.1064 59.0191C54.8792 58.7919 54.5713 58.6642 54.2499 58.6642C53.9287 58.6642 53.6204 58.7919 53.3934 59.0191L46.27 66.1439V61.942L53.2001 55.012ZM46.2703 104.148V69.57L54.2502 61.5884L57.8765 65.2167C59.3989 66.7393 61.8779 66.7396 63.4034 65.2167L72.8635 55.7561V104.148H46.2703Z" fill="#0000CC"/>
</svg>
