<svg width="17" height="18" viewBox="0 0 17 18" fill="none" xmlns="http://www.w3.org/2000/svg">
<path opacity="0.5" d="M16.3322 14.6842C15.9058 13.6742 15.2869 12.7567 14.5102 11.9829C13.7358 11.2069 12.8185 10.5882 11.8089 10.161C11.7999 10.1564 11.7908 10.1542 11.7818 10.1497C13.1901 9.13243 14.1056 7.47548 14.1056 5.60604C14.1056 2.50916 11.5964 0 8.49954 0C5.40266 0 2.8935 2.50916 2.8935 5.60604C2.8935 7.47548 3.809 9.13243 5.21729 10.1519C5.20825 10.1564 5.19921 10.1587 5.19017 10.1632C4.17746 10.5904 3.26874 11.203 2.48887 11.9852C1.71286 12.7596 1.09415 13.6769 0.666904 14.6865C0.247179 15.6749 0.0208123 16.7346 5.65261e-05 17.8082C-0.000546813 17.8324 0.00368491 17.8564 0.0125025 17.8788C0.02132 17.9013 0.0345449 17.9218 0.0513979 17.939C0.068251 17.9563 0.0883911 17.97 0.110632 17.9794C0.132872 17.9888 0.156763 17.9936 0.180897 17.9936H1.5372C1.63666 17.9936 1.71578 17.9145 1.71804 17.8173C1.76325 16.0722 2.464 14.4378 3.70276 13.1991C4.98446 11.9174 6.68662 11.2121 8.49954 11.2121C10.3125 11.2121 12.0146 11.9174 13.2963 13.1991C14.5351 14.4378 15.2358 16.0722 15.281 17.8173C15.2833 17.9167 15.3624 17.9936 15.4619 17.9936H16.8182C16.8423 17.9936 16.8662 17.9888 16.8885 17.9794C16.9107 17.97 16.9308 17.9563 16.9477 17.939C16.9645 17.9218 16.9778 17.9013 16.9866 17.8788C16.9954 17.8564 16.9996 17.8324 16.999 17.8082C16.9764 16.7277 16.7526 15.6766 16.3322 14.6842V14.6842ZM8.49954 9.49411C7.46197 9.49411 6.48544 9.08948 5.75077 8.35481C5.01611 7.62015 4.61148 6.64361 4.61148 5.60604C4.61148 4.56847 5.01611 3.59194 5.75077 2.85727C6.48544 2.12261 7.46197 1.71798 8.49954 1.71798C9.53711 1.71798 10.5136 2.12261 11.2483 2.85727C11.983 3.59194 12.3876 4.56847 12.3876 5.60604C12.3876 6.64361 11.983 7.62015 11.2483 8.35481C10.5136 9.08948 9.53711 9.49411 8.49954 9.49411Z" fill="#03014C"/>
</svg>
