<svg width="16" height="16" viewBox="0 0 16 16" fill="none" xmlns="http://www.w3.org/2000/svg">
<path fill-rule="evenodd" clip-rule="evenodd" d="M7.21772 8.78228C4.43033 5.99489 4.82845 5.59677 4.82845 5.59677L6.02336 4.40242C6.46315 3.96263 6.46315 3.24917 6.02336 2.80995L3.54568 0.331705C3.12617 -0.087248 2.45269 -0.114277 2.00896 0.278773C1.27861 0.925222 0.29373 1.99231 0.0504669 3.20807C-0.347651 5.19866 1.6435 7.98605 4.82845 11.1716C8.01395 14.3565 10.8013 16.3477 12.7919 15.9495C14.0077 15.7063 15.0748 14.7214 15.7212 13.991C16.1143 13.5473 16.0872 12.8738 15.6683 12.4543L13.1901 9.97664C12.7508 9.53685 12.0374 9.53685 11.5976 9.97664L10.4032 11.1716C10.4032 11.1716 10.0051 11.5697 7.21772 8.78228" fill="#F25146"/>
</svg>
