<svg width="13" height="13" viewBox="0 0 13 13" fill="none" xmlns="http://www.w3.org/2000/svg">
<path d="M12.093 0.655039L9.72481 0.125969C9.17054 0 8.61628 0.277132 8.41473 0.781008L7.3062 3.35078C7.10465 3.80426 7.23062 4.35853 7.63372 4.68605L8.64147 5.51744C7.93605 6.82752 6.82752 7.91085 5.51744 8.64147L4.68605 7.63372C4.35853 7.23062 3.80426 7.10465 3.35078 7.3062L0.781008 8.38953C0.277132 8.61628 0 9.17054 0.125969 9.72481L0.655039 12.093C0.781008 12.6221 1.25969 12.9748 1.78876 12.9748C7.96124 12.9748 13 7.98643 13 1.78876C13 1.25969 12.6221 0.781008 12.093 0.655039ZM1.83915 11.7655L1.31008 9.49806L3.77907 8.43992L5.18992 10.1531C7.68411 8.96899 8.96899 7.68411 10.1531 5.18992L8.43992 3.77907L9.49806 1.31008L11.7907 1.83915C11.7655 7.3062 7.3062 11.7403 1.83915 11.7655Z" fill="#264653"/>
</svg>
