<svg width="99" height="97" viewBox="0 0 99 97" fill="none" xmlns="http://www.w3.org/2000/svg">
<path opacity="0.1" d="M97.7891 94.4577H74.0749V43.1419L89.277 27.9386V30.8315C89.277 32.32 90.485 33.5282 91.9737 33.5282C93.4644 33.5282 94.6704 32.3202 94.6704 30.8315V21.43C94.6704 19.9415 93.4644 18.7333 91.9737 18.7333H82.5722C81.0837 18.7333 79.8755 19.9413 79.8755 21.43C79.8755 22.9185 81.0835 24.1267 82.5722 24.1267H85.4629L74.0749 35.5147V27.9611C74.0749 27.2923 73.5326 26.75 72.8638 26.75H45.0594V1.21113C45.0594 0.542344 44.517 0 43.8482 0H7.66379C6.995 0 6.45266 0.542344 6.45266 1.21113V94.4577H1.21113C0.542344 94.4577 0 95.0001 0 95.6689C0 96.3377 0.542344 96.88 1.21113 96.88H97.7888C98.4579 96.88 99 96.3377 99 95.6689C99 95.0001 98.4579 94.4577 97.7891 94.4577V94.4577Z" fill="#0000CC"/>
</svg>
