<svg width="153" height="18" viewBox="0 0 153 18" fill="none" xmlns="http://www.w3.org/2000/svg">
<path d="M4.488 17.75H0V0.25H4.488V7.125H6.732L10.6216 0.25H15.3589L10.472 8.875L15.334 17.75H10.5967L6.732 10.625H4.488V17.75Z" fill="white"/>
<path d="M29.9395 17.75H25.0775L31.6848 0.25H36.6715L43.2788 17.75H38.4168L37.2948 14.625H31.0615L29.9395 17.75ZM32.1835 11.375H36.1728L34.1781 5.5L32.1835 11.375Z" fill="white"/>
<path d="M54.4978 0.25H64.9698C66.7151 0.25 67.9784 0.65 68.7597 1.45C69.5575 2.23333 69.9565 3.5 69.9565 5.25V7.5C69.9565 8.88333 69.7238 9.95833 69.2583 10.725C68.8095 11.4917 68.0865 12 67.0891 12.25L70.2058 17.75H65.3438L62.4765 12.5H58.9858V17.75H54.4978V0.25ZM65.4685 5.25C65.4685 4.25 64.9698 3.75 63.9725 3.75H58.9858V9H63.9725C64.9698 9 65.4685 8.5 65.4685 7.5V5.25Z" fill="white"/>
<path d="M82.4163 0.25H92.3896C94.0186 0.25 95.2154 0.625 95.98 1.375C96.7447 2.10833 97.127 3.23333 97.127 4.75C97.127 5.75 96.9109 6.56667 96.4787 7.2C96.0465 7.81667 95.5146 8.25 94.883 8.5C96.2294 8.86667 97.1436 9.76667 97.6256 11.2C97.7918 11.7167 97.875 12.3167 97.875 13C97.875 14.6333 97.4927 15.8333 96.728 16.6C95.9634 17.3667 94.7666 17.75 93.1376 17.75H82.4163V0.25ZM93.387 12.25C93.387 11.25 92.8883 10.75 91.891 10.75H86.9043V14.25H91.891C92.8883 14.25 93.387 13.75 93.387 12.75V12.25ZM92.639 5.25C92.639 4.25 92.1403 3.75 91.143 3.75H86.9043V7.25H91.143C92.1403 7.25 92.639 6.75 92.639 5.75V5.25Z" fill="white"/>
<path d="M121.311 5C121.311 4 120.813 3.5 119.815 3.5H115.577C114.579 3.5 114.081 4 114.081 5V13C114.081 14 114.579 14.5 115.577 14.5H119.815C120.813 14.5 121.311 14 121.311 13V5ZM125.799 13C125.799 14.75 125.4 16.025 124.603 16.825C123.821 17.6083 122.558 18 120.813 18H114.579C112.834 18 111.562 17.6083 110.765 16.825C109.983 16.025 109.593 14.75 109.593 13V5C109.593 3.25 109.983 1.98333 110.765 1.2C111.562 0.399999 112.834 0 114.579 0H120.813C122.558 0 123.821 0.399999 124.603 1.2C125.4 1.98333 125.799 3.25 125.799 5V13Z" fill="white"/>
<path d="M147.889 0.25H152.875L147.265 9L153 17.75H148.013L144.523 12.25L141.032 17.75H136.045L141.78 9L136.17 0.25H141.132L144.523 5.75L147.889 0.25Z" fill="white"/>
<path d="M4.488 17.75H0V0.25H4.488V7.125H6.732L10.6216 0.25H15.3589L10.472 8.875L15.334 17.75H10.5967L6.732 10.625H4.488V17.75Z" fill="#FFD600"/>
<path d="M29.9395 17.75H25.0775L31.6848 0.25H36.6715L43.2788 17.75H38.4168L37.2948 14.625H31.0615L29.9395 17.75ZM32.1835 11.375H36.1728L34.1781 5.5L32.1835 11.375Z" fill="#FFD600"/>
<path d="M54.4978 0.25H64.9698C66.7151 0.25 67.9784 0.65 68.7597 1.45C69.5575 2.23333 69.9565 3.5 69.9565 5.25V7.5C69.9565 8.88333 69.7238 9.95833 69.2583 10.725C68.8095 11.4917 68.0865 12 67.0891 12.25L70.2058 17.75H65.3438L62.4765 12.5H58.9858V17.75H54.4978V0.25ZM65.4685 5.25C65.4685 4.25 64.9698 3.75 63.9725 3.75H58.9858V9H63.9725C64.9698 9 65.4685 8.5 65.4685 7.5V5.25Z" fill="#FFD600"/>
</svg>
