<svg width="27" height="30" viewBox="0 0 27 30" fill="none" xmlns="http://www.w3.org/2000/svg">
<g clip-path="url(#clip0_16_15486)">
<path d="M5.73229 16.8748H1.91076C0.855664 16.8748 0 17.7144 0 18.7498V22.4997C0 23.5351 0.855664 24.3747 1.91076 24.3747H5.73229C6.78739 24.3747 7.64306 23.5351 7.64306 22.4997V18.7498C7.64306 17.7144 6.78739 16.8748 5.73229 16.8748ZM15.2861 16.8748H11.4646C10.4095 16.8748 9.55382 17.7144 9.55382 18.7498V22.4997C9.55382 23.5351 10.4095 24.3747 11.4646 24.3747H15.2861C16.3412 24.3747 17.1969 23.5351 17.1969 22.4997V18.7498C17.1969 17.7144 16.3412 16.8748 15.2861 16.8748ZM24.8399 16.8748H21.0184C19.9633 16.8748 19.1076 17.7144 19.1076 18.7498V22.4997C19.1076 23.5351 19.9633 24.3747 21.0184 24.3747H24.8399C25.895 24.3747 26.7507 23.5351 26.7507 22.4997V18.7498C26.7507 17.7144 25.895 16.8748 24.8399 16.8748ZM5.73229 5.62481H1.91076C0.855664 5.62481 0 6.46446 0 7.49981V11.2498C0 12.2851 0.855664 13.1248 1.91076 13.1248H5.73229C6.78739 13.1248 7.64306 12.2851 7.64306 11.2498V7.49981C7.64306 6.46446 6.78739 5.62481 5.73229 5.62481ZM15.2861 5.62481H11.4646C10.4095 5.62481 9.55382 6.46446 9.55382 7.49981V11.2498C9.55382 12.2851 10.4095 13.1248 11.4646 13.1248H15.2861C16.3412 13.1248 17.1969 12.2851 17.1969 11.2498V7.49981C17.1969 6.46446 16.3412 5.62481 15.2861 5.62481ZM24.8399 5.62481H21.0184C19.9633 5.62481 19.1076 6.46446 19.1076 7.49981V11.2498C19.1076 12.2851 19.9633 13.1248 21.0184 13.1248H24.8399C25.895 13.1248 26.7507 12.2851 26.7507 11.2498V7.49981C26.7507 6.46446 25.895 5.62481 24.8399 5.62481Z" fill="#12908D"/>
</g>
<defs>
<clipPath id="clip0_16_15486">
<rect width="26.25" height="29.4384" fill="white" transform="scale(1.01907)"/>
</clipPath>
</defs>
</svg>
