<svg width="28" height="28" viewBox="0 0 28 28" fill="none" xmlns="http://www.w3.org/2000/svg">
<path d="M14.0022 14.5397C18.0022 14.5397 21.2721 11.2699 21.2721 7.26985C21.2721 3.26983 18.0022 0 14.0022 0C10.0022 0 6.73242 3.26983 6.73242 7.26985C6.73242 11.2699 10.0022 14.5397 14.0022 14.5397Z" fill="#96A0AF"/>
<path d="M26.4786 20.349C26.2881 19.8728 26.0341 19.4284 25.7484 19.0157C24.2881 16.8569 22.0342 15.4284 19.4945 15.0792C19.1771 15.0474 18.8279 15.1109 18.5739 15.3014C17.2405 16.2855 15.6532 16.7934 14.0024 16.7934C12.3516 16.7934 10.7643 16.2855 9.43096 15.3014C9.17697 15.1109 8.82776 15.0157 8.51033 15.0792C5.97064 15.4284 3.68495 16.8569 2.25639 19.0157C1.97068 19.4284 1.71668 19.9046 1.52625 20.349C1.43103 20.5395 1.46275 20.7617 1.55797 20.9522C1.81196 21.3967 2.12939 21.8412 2.4151 22.2221C2.85953 22.8253 3.33574 23.3649 3.87544 23.8729C4.31987 24.3173 4.82779 24.73 5.33578 25.1427C7.84369 27.0158 10.8596 27.9998 13.9707 27.9998C17.0818 27.9998 20.0977 27.0157 22.6056 25.1427C23.1135 24.7618 23.6215 24.3173 24.0659 23.8729C24.5739 23.3649 25.0818 22.8252 25.5263 22.2221C25.8437 21.8094 26.1295 21.3967 26.3834 20.9522C26.5421 20.7617 26.5738 20.5395 26.4786 20.349Z" fill="#96A0AF"/>
</svg>
