<svg width="268" height="268" viewBox="0 0 268 268" fill="none" xmlns="http://www.w3.org/2000/svg">
<path fill-rule="evenodd" clip-rule="evenodd" d="M134 268C208.006 268 268 208.006 268 134C268 59.9938 208.006 0 134 0C59.9938 0 0 59.9938 0 134C0 208.006 59.9938 268 134 268Z" fill="#F25146"/>
<mask id="mask0_16_18821" style="mask-type:alpha" maskUnits="userSpaceOnUse" x="0" y="0" width="268" height="268">
<path fill-rule="evenodd" clip-rule="evenodd" d="M134 268C208.006 268 268 208.006 268 134C268 59.9938 208.006 0 134 0C59.9938 0 0 59.9938 0 134C0 208.006 59.9938 268 134 268Z" fill="white"/>
</mask>
<g mask="url(#mask0_16_18821)">
<rect width="268" height="268" fill="#FF4545"/>
</g>
</svg>
