<svg width="72" height="72" viewBox="0 0 72 72" fill="none" xmlns="http://www.w3.org/2000/svg">
<circle cx="36" cy="36" r="36" fill="#9A754B"/>
<path fill-rule="evenodd" clip-rule="evenodd" d="M46.6667 27.9997C46.6667 29.4663 45.4667 30.6663 44 30.6663C42.5333 30.6663 41.3333 29.4663 41.3333 27.9997C41.3333 26.533 42.5333 25.333 44 25.333C45.4667 25.333 46.6667 26.533 46.6667 27.9997ZM25.3333 33.333C25.3333 31.8663 26.5333 30.6663 28 30.6663C29.4667 30.6663 30.6667 31.8663 30.6667 33.333C30.6667 34.7997 29.4667 35.9997 28 35.9997C26.5333 35.9997 25.3333 34.7997 25.3333 33.333ZM30.6667 38.6663C30.6667 37.1997 31.8667 35.9997 33.3333 35.9997C34.8 35.9997 36 37.1997 36 38.6663C36 40.133 34.8 41.333 33.3333 41.333C31.8667 41.333 30.6667 40.133 30.6667 38.6663ZM28 41.333C26.5333 41.333 25.3333 42.533 25.3333 43.9997C25.3333 45.4663 26.5333 46.6663 28 46.6663C29.4667 46.6663 30.6667 45.4663 30.6667 43.9997C30.6667 42.533 29.4667 41.333 28 41.333ZM38.6667 41.333C37.2 41.333 36 42.533 36 43.9997C36 45.4663 37.2 46.6663 38.6667 46.6663C40.1333 46.6663 41.3333 45.4663 41.3333 43.9997C41.3333 42.533 40.1333 41.333 38.6667 41.333ZM41.3333 38.6663C41.3333 37.1997 42.5333 35.9997 44 35.9997C45.4667 35.9997 46.6667 37.1997 46.6667 38.6663C46.6667 40.133 45.4667 41.333 44 41.333C42.5333 41.333 41.3333 40.133 41.3333 38.6663ZM38.6667 30.6663C37.2 30.6663 36 31.8663 36 33.333C36 34.7997 37.2 35.9997 38.6667 35.9997C40.1333 35.9997 41.3333 34.7997 41.3333 33.333C41.3333 31.8663 40.1333 30.6663 38.6667 30.6663ZM30.6667 27.9997C30.6667 26.533 31.8667 25.333 33.3333 25.333C34.8 25.333 36 26.533 36 27.9997C36 29.4663 34.8 30.6663 33.3333 30.6663C31.8667 30.6663 30.6667 29.4663 30.6667 27.9997Z" fill="white"/>
</svg>
