<svg width="345" height="120" viewBox="0 0 345 120" fill="none" xmlns="http://www.w3.org/2000/svg">
<path d="M0 0H345V120H0V0Z" fill="#F2F6FC"/>
<path d="M148.098 79.5797C144.817 79.5797 142.256 79.089 140.416 78.1077C138.607 77.157 137.702 75.593 137.702 73.4157C137.702 72.281 137.963 71.269 138.484 70.3797C139.036 69.521 139.879 68.6317 141.014 67.7117C140.462 67.3437 140.033 66.8684 139.726 66.2857C139.45 65.703 139.312 65.0897 139.312 64.4457C139.312 63.9857 139.419 63.5104 139.634 63.0197C139.879 62.529 140.37 61.701 141.106 60.5357C139.021 59.0024 137.978 56.7637 137.978 53.8197C137.978 51.029 138.821 48.959 140.508 47.6097C142.225 46.2297 144.602 45.5397 147.638 45.5397C148.926 45.5397 150.475 45.739 152.284 46.1377L159.69 45.9077V50.8297L156.24 50.5537C156.639 51.1977 156.899 51.7497 157.022 52.2097C157.175 52.6697 157.252 53.2984 157.252 54.0957C157.252 56.8557 156.47 58.8337 154.906 60.0297C153.342 61.195 150.965 61.7777 147.776 61.7777C146.856 61.7777 146.151 61.7164 145.66 61.5937C145.353 62.3297 145.2 62.9584 145.2 63.4797C145.2 64.1237 145.507 64.5224 146.12 64.6757C146.764 64.7984 147.945 64.875 149.662 64.9057C152.023 64.967 153.894 65.151 155.274 65.4577C156.685 65.7644 157.773 66.393 158.54 67.3437C159.307 68.2637 159.69 69.6284 159.69 71.4377C159.69 74.2284 158.739 76.283 156.838 77.6017C154.937 78.9204 152.023 79.5797 148.098 79.5797ZM147.684 57.0857C150.015 57.0857 151.18 55.951 151.18 53.6817C151.18 51.443 150.015 50.3237 147.684 50.3237C145.323 50.3237 144.142 51.443 144.142 53.6817C144.142 55.951 145.323 57.0857 147.684 57.0857ZM148.512 74.5197C150.26 74.5197 151.517 74.3204 152.284 73.9217C153.081 73.523 153.48 72.9097 153.48 72.0817C153.48 71.315 153.189 70.8244 152.606 70.6097C152.054 70.4257 151.395 70.3184 150.628 70.2877C149.892 70.257 149.401 70.2417 149.156 70.2417L145.016 69.9197C144.188 70.7477 143.774 71.5757 143.774 72.4037C143.774 73.1397 144.157 73.6764 144.924 74.0137C145.721 74.351 146.917 74.5197 148.512 74.5197Z" fill="#273240"/>
<path d="M163.424 45.9997H169.542V48.4377C172.18 46.9044 174.633 45.9077 176.902 45.4477V51.6577C174.602 52.1177 172.471 52.6544 170.508 53.2677L169.588 53.5897V68.9997H163.424V45.9997Z" fill="#273240"/>
<path d="M180.54 45.9997H186.704V68.9997H180.54V45.9997ZM180.54 36.8457H186.704V43.0557H180.54V36.8457Z" fill="#273240"/>
<path d="M199.591 68.9997H195.267L189.609 45.9997H195.681L199.867 63.7557H200.925L205.111 45.9997H211.183L203.087 78.6597H197.061L199.591 68.9997Z" fill="#273240"/>
<path d="M219.978 69.5517C215.224 69.5517 212.848 67.037 212.848 62.0077C212.848 59.6157 213.476 57.8984 214.734 56.8557C216.022 55.7824 218.076 55.1537 220.898 54.9697L225.82 54.6017V53.1757C225.82 52.2557 225.605 51.6117 225.176 51.2437C224.777 50.8757 224.087 50.6917 223.106 50.6917C222.094 50.6917 220.698 50.7377 218.92 50.8297C217.141 50.891 215.654 50.9677 214.458 51.0597L214.274 46.7817C217.586 45.8924 220.714 45.4477 223.658 45.4477C226.602 45.4477 228.718 46.061 230.006 47.2877C231.324 48.5144 231.984 50.477 231.984 53.1757V62.7437C232.045 63.5104 232.168 64.0317 232.352 64.3077C232.566 64.5837 232.95 64.783 233.502 64.9057L233.318 69.5517C231.723 69.5517 230.45 69.4444 229.5 69.2297C228.58 69.015 227.66 68.5857 226.74 67.9417C224.501 69.015 222.247 69.5517 219.978 69.5517ZM221.312 64.5377C222.477 64.5377 223.75 64.3537 225.13 63.9857L225.82 63.8017V58.8797L221.634 59.2477C219.916 59.401 219.058 60.321 219.058 62.0077C219.058 63.6944 219.809 64.5377 221.312 64.5377Z" fill="#273240"/>
<path d="M237.584 61.3637H244.208V68.9997H237.584V61.3637Z" fill="#273240"/>
<rect x="50" y="28" width="64" height="64" rx="18" fill="#216FED"/>
<path d="M83.9128 76.6462H66.7712C65.992 76.6462 65.3545 76.0087 65.3545 75.2295V50.9337C65.3545 50.1545 65.992 49.517 66.7712 49.517H67.6212C77.3962 49.517 85.3295 57.4503 85.3295 67.2253V75.2295C85.2587 76.0087 84.692 76.6462 83.9128 76.6462ZM68.117 73.8837H82.4962V67.2253C82.4962 59.1503 76.1212 52.6337 68.117 52.3503V73.8837Z" fill="#F2F6FC"/>
<path d="M97.2293 76.6462H80.0877C79.3085 76.6462 78.671 76.0087 78.671 75.2295C78.671 74.4503 79.3085 73.8128 80.0877 73.8128H95.8835V61.0628C95.8835 52.9878 89.5085 46.4712 81.5043 46.1878V56.2462C81.5043 57.0253 80.8668 57.6628 80.0877 57.6628C79.3085 57.6628 78.671 57.0253 78.671 56.2462V44.7712C78.671 43.992 79.3085 43.3545 80.0877 43.3545H80.9377C90.7127 43.3545 98.646 51.2878 98.646 61.0628V75.3003C98.646 76.0087 98.0085 76.6462 97.2293 76.6462Z" fill="#F2F6FC"/>
<path d="M78.2463 76.6461H72.2963C71.5171 76.6461 70.8796 76.0086 70.8796 75.2295V65.9503C70.8796 65.1712 71.5171 64.5337 72.2963 64.5337H78.2463C79.0254 64.5337 79.6629 65.1712 79.6629 65.9503V75.2295C79.6629 76.0086 79.0254 76.6461 78.2463 76.6461ZM73.7129 73.8836H76.8296V67.367H73.7129V73.8836Z" fill="#F2F6FC"/>
</svg>
