<svg width="40" height="35" viewBox="0 0 40 35" fill="none" xmlns="http://www.w3.org/2000/svg">
<path d="M1.42857 6.42857H38.5714C39.2857 6.42857 40 5.80357 40 5V1.42857C40 0.714286 39.2857 0 38.5714 0H1.42857C0.625 0 0 0.714286 0 1.42857V5C0 5.80357 0.625 6.42857 1.42857 6.42857ZM1.42857 20.7143H38.5714C39.2857 20.7143 40 20.0893 40 19.2857V15.7143C40 15 39.2857 14.2857 38.5714 14.2857H1.42857C0.625 14.2857 0 15 0 15.7143V19.2857C0 20.0893 0.625 20.7143 1.42857 20.7143ZM1.42857 35H38.5714C39.2857 35 40 34.375 40 33.5714V30C40 29.2857 39.2857 28.5714 38.5714 28.5714H1.42857C0.625 28.5714 0 29.2857 0 30V33.5714C0 34.375 0.625 35 1.42857 35Z" fill="white"/>
</svg>
