<svg width="14" height="14" viewBox="0 0 14 14" fill="none" xmlns="http://www.w3.org/2000/svg">
<path d="M7 0C3.13306 0 0 3.16129 0 7C0 10.8669 3.13306 14 7 14C10.8387 14 14 10.8669 14 7C14 3.16129 10.8387 0 7 0ZM13.0968 7C13.0968 10.3589 10.3589 13.0968 7 13.0968C3.64113 13.0968 0.903226 10.3871 0.903226 7C0.903226 3.66935 3.6129 0.903226 7 0.903226C10.3306 0.903226 13.0968 3.64113 13.0968 7ZM9.93548 9.87903C10.0484 9.7379 10.0766 9.56855 9.96371 9.42742L9.70968 9.08871C9.56855 8.94758 9.34274 8.91935 9.20161 9.06048C9.00403 9.25806 8.24194 9.87903 7.1129 9.87903C5.58871 9.87903 4.43145 8.6371 4.43145 7C4.43145 5.39113 5.56048 4.20565 7.1129 4.20565C8.10081 4.20565 8.80645 4.68548 9.06048 4.88306C9.20161 4.99597 9.42742 4.96774 9.54032 4.82661L9.79435 4.4879C9.82258 4.43145 9.85081 4.34677 9.85081 4.29032C9.85081 4.20565 9.79435 4.09274 9.7379 4.03629C9.48387 3.81048 8.58065 3.10484 7.08468 3.10484C4.91129 3.10484 3.24597 4.79839 3.24597 7C3.24597 9.25806 4.91129 10.9798 7.1129 10.9798C8.69355 10.9798 9.68145 10.1331 9.93548 9.87903Z" fill="white"/>
</svg>
