<svg width="65" height="49" viewBox="0 0 65 49" fill="none" xmlns="http://www.w3.org/2000/svg">
<path d="M63.7305 16.123C60.8105 18.4082 57.1289 21.2012 44.1797 30.5957C41.6406 32.5 36.9434 36.6895 32.5 36.6895C27.9297 36.6895 23.3594 32.5 20.6934 30.5957C7.74414 21.2012 4.0625 18.4082 1.14258 16.123C0.634766 15.7422 0 16.123 0 16.7578V42.6562C0 46.084 2.66602 48.75 6.09375 48.75H58.9062C62.207 48.75 65 46.084 65 42.6562V16.7578C65 16.123 64.2383 15.7422 63.7305 16.123ZM32.5 32.5C35.4199 32.627 39.6094 28.8184 41.7676 27.2949C58.6523 15.1074 59.9219 13.9648 63.7305 10.918C64.4922 10.4102 65 9.52148 65 8.50586V6.09375C65 2.79297 62.207 0 58.9062 0H6.09375C2.66602 0 0 2.79297 0 6.09375V8.50586C0 9.52148 0.380859 10.4102 1.14258 10.918C4.95117 13.9648 6.2207 15.1074 23.1055 27.2949C25.2637 28.8184 29.4531 32.627 32.5 32.5Z" fill="#03C4A1"/>
</svg>
