<svg width="19" height="19" viewBox="0 0 19 19" fill="none" xmlns="http://www.w3.org/2000/svg">
<path d="M18.2977 0.998054L14.4533 0.110895C14.0467 0 13.6031 0.22179 13.4183 0.628405L11.644 4.76848C11.4961 5.13813 11.607 5.54475 11.9027 5.8035L14.1576 7.65175C12.8268 10.4611 10.4981 12.8268 7.61479 14.1946L5.76654 11.9397C5.50778 11.644 5.10117 11.5331 4.73152 11.6809L0.59144 13.4553C0.184825 13.6401 0 14.0837 0.07393 14.4903L0.961089 18.3346C1.07198 18.7412 1.40467 19 1.84825 19C11.3113 19 19 11.3482 19 1.84825C19 1.44163 18.7043 1.10895 18.2977 0.998054Z" fill="white"/>
</svg>
