<svg width="32" height="32" viewBox="0 0 32 32" fill="none" xmlns="http://www.w3.org/2000/svg">
<path d="M25.3332 5.3335H6.6665C5.60564 5.3335 4.58822 5.75492 3.83808 6.50507C3.08793 7.25521 2.6665 8.27263 2.6665 9.3335V22.6668C2.6665 23.7277 3.08793 24.7451 3.83808 25.4953C4.58822 26.2454 5.60564 26.6668 6.6665 26.6668H25.3332C26.394 26.6668 27.4115 26.2454 28.1616 25.4953C28.9117 24.7451 29.3332 23.7277 29.3332 22.6668V9.3335C29.3332 8.27263 28.9117 7.25521 28.1616 6.50507C27.4115 5.75492 26.394 5.3335 25.3332 5.3335V5.3335ZM24.5692 8.00016L16.7998 14.4002C16.5778 14.5691 16.3081 14.6636 16.0292 14.6703C15.7503 14.677 15.4764 14.5956 15.2465 14.4375L7.4305 8.00016H24.5692ZM25.3332 24.0002H6.6665C6.31288 24.0002 5.97374 23.8597 5.7237 23.6096C5.47365 23.3596 5.33317 23.0205 5.33317 22.6668V9.7335L13.5998 16.5335C14.2877 17.0486 15.1245 17.3261 15.9838 17.3242C16.8733 17.3228 17.7381 17.0322 18.4478 16.4962L26.6665 9.7335V22.6668C26.6665 23.0205 26.526 23.3596 26.276 23.6096C26.0259 23.8597 25.6868 24.0002 25.3332 24.0002Z" fill="#424241"/>
</svg>
