<svg width="24" height="75" viewBox="0 0 24 75" fill="none" xmlns="http://www.w3.org/2000/svg">
<path d="M4.1152 53.4H8.4032V51H0V59.4032H2.4V55.0832L8.7616 61.4384L10.464 59.7488L4.1152 53.4Z" fill="white"/>
<path d="M10.4384 66.2384L8.736 64.536L2.4 70.872V66.6032H0V75H8.4032V72.6H4.0768L10.4384 66.2384Z" fill="white"/>
<path d="M15.6032 51V53.4H19.8848L13.5488 59.7488L15.2384 61.4384L21.6 55.0704V59.4032H24V51H15.6032Z" fill="white"/>
<path d="M21.5999 66.6032V70.8848L15.2639 64.5488L13.5615 66.2384L19.9167 72.6H15.6031V75H23.9999V66.6032H21.5999Z" fill="white"/>
<path d="M17.9999 15C17.3708 15.0015 16.7509 15.1517 16.1909 15.4385C15.631 15.7253 15.1468 16.1404 14.7779 16.65L9.76288 13.307C10.0789 12.4643 10.0789 11.5357 9.76288 10.693L14.7779 7.35002C15.3408 8.11315 16.1574 8.65054 17.0809 8.86564C18.0045 9.08075 18.9745 8.95946 19.8166 8.52357C20.6588 8.08769 21.3179 7.36577 21.6755 6.48754C22.0332 5.6093 22.066 4.6323 21.7679 3.73208C21.4699 2.83186 20.8606 2.06742 20.0495 1.57611C19.2385 1.08479 18.2788 0.898808 17.3429 1.05157C16.407 1.20433 15.5563 1.68582 14.9435 2.40953C14.3308 3.13325 13.9962 4.05175 13.9999 5.00002C14.0064 5.14573 14.0211 5.29096 14.0439 5.43502L8.65288 9.02902C8.07837 8.51111 7.36602 8.17088 6.60209 8.04954C5.83817 7.9282 5.05546 8.03095 4.34874 8.34536C3.64202 8.65976 3.04162 9.17232 2.62025 9.82097C2.19888 10.4696 1.97461 11.2265 1.97461 12C1.97461 12.7735 2.19888 13.5304 2.62025 14.1791C3.04162 14.8277 3.64202 15.3403 4.34874 15.6547C5.05546 15.9691 5.83817 16.0718 6.60209 15.9505C7.36602 15.8292 8.07837 15.4889 8.65288 14.971L14.0439 18.565C14.0211 18.7091 14.0064 18.8543 13.9999 19C13.9999 19.7911 14.2345 20.5645 14.674 21.2223C15.1135 21.8801 15.7382 22.3928 16.4692 22.6955C17.2001 22.9983 18.0043 23.0775 18.7802 22.9232C19.5562 22.7688 20.2689 22.3879 20.8283 21.8284C21.3877 21.269 21.7687 20.5563 21.923 19.7804C22.0774 19.0045 21.9982 18.2002 21.6954 17.4693C21.3927 16.7384 20.88 16.1137 20.2222 15.6741C19.5644 15.2346 18.791 15 17.9999 15V15Z" fill="white"/>
</svg>
