<svg width="16" height="11" viewBox="0 0 16 11" fill="none" xmlns="http://www.w3.org/2000/svg">
<path fill-rule="evenodd" clip-rule="evenodd" d="M14.0719 2.63397L8.35743 7.05C8.25286 7.13045 8.12657 7.17068 8.00028 7.17068C7.87342 7.17068 7.74713 7.13045 7.64255 7.05L1.92807 2.63397C1.68177 2.44386 1.64234 2.09671 1.83949 1.85921C2.03721 1.62226 2.39723 1.58424 2.64295 1.7738L8.00028 5.91376L13.357 1.7738C13.6033 1.58369 13.9628 1.62171 14.1605 1.85921C14.3576 2.09671 14.3182 2.44386 14.0719 2.63397M14.8577 0H1.1429C0.511446 0 0 0.493181 0 1.10208V9.36767C0 9.97602 0.511446 10.4698 1.1429 10.4698H14.8577C15.4885 10.4698 16.0006 9.97602 16.0006 9.36767V1.10208C16.0006 0.493181 15.4885 0 14.8577 0" fill="#3A55E6"/>
</svg>
