<svg width="40" height="40" viewBox="0 0 40 40" fill="none" xmlns="http://www.w3.org/2000/svg">
<path d="M30.2055 21.4192L16.108 29.4973C13.3178 30.966 13.2422 28.249 13.2422 28.249V11.9461C13.3203 9.08162 15.96 10.5503 15.96 10.5503L30.0565 18.9225C31.6726 20.0976 30.2055 21.4192 30.2055 21.4192Z" fill="#333333"/>
<path d="M20.0961 0.537109C9.31766 0.537109 0.580078 9.27508 0.580078 20.0536C0.580078 30.832 9.31766 39.5699 20.0961 39.5699C30.8745 39.5699 39.6125 30.832 39.6125 20.0536C39.6125 9.27508 30.8745 0.537109 20.0961 0.537109ZM20.0961 36.9891C10.7428 36.9891 3.16047 29.4069 3.16047 20.0535C3.16047 10.7002 10.7428 3.11789 20.0961 3.11789C29.4495 3.11789 37.0318 10.7002 37.0318 20.0535C37.0318 29.4069 29.4495 36.9891 20.0961 36.9891Z" fill="#333333"/>
</svg>
